<svg version="1.1" id="Layer_1" xmlns="http://www.w3.org/2000/svg" fill="#d1d3d4" xmlns:xlink="http://www.w3.org/1999/xlink" x="0px" y="0px"
	 viewBox="0 0 16 16" style="enable-background:new 0 0 16 16;" xml:space="preserve">
<g>
	<path d="M13.7,13.6C12.1,15.2,10.2,16,8,16s-4.1-0.8-5.7-2.3C0.8,12.1,0,10.2,0,8s0.8-4.1,2.3-5.7C3.9,0.8,5.8,0,8,0
		c2.2,0,4.1,0.8,5.7,2.3S16,5.8,16,8S15.2,12.1,13.7,13.6z M12.4,3.6C11.2,2.4,9.7,1.8,8,1.8c-1.7,0-3.2,0.6-4.4,1.8S1.8,6.3,1.8,8
		s0.6,3.2,1.8,4.4c1.2,1.2,2.7,1.8,4.4,1.8c1.7,0,3.2-0.6,4.4-1.8c1.2-1.2,1.8-2.7,1.8-4.4S13.6,4.8,12.4,3.6z M5,11.4
		c-0.8-0.9-1.2-2-1.2-3.4c0-1.4,0.4-2.5,1.2-3.4C5.7,3.7,6.7,3.2,8,3.2c1.1,0,2,0.3,2.8,1c0.7,0.7,1.2,1.6,1.3,2.7H9.8
		C9.6,5.8,9.1,5.3,8.1,5.3C7.6,5.3,7.2,5.5,6.9,6C6.5,6.5,6.4,7.1,6.4,8c0,0.9,0.2,1.5,0.5,2c0.3,0.5,0.8,0.7,1.4,0.7
		c0.5,0,0.8-0.1,1-0.4C9.5,10,9.7,9.6,9.8,9.1H12c-0.1,1.1-0.5,2-1.3,2.6c-0.7,0.7-1.6,1-2.6,1C6.9,12.7,5.8,12.3,5,11.4z"/>
</g>
</svg>
