<?xml version="1.0" encoding="utf-8"?>
<!-- Generator: Adobe Illustrator 28.0.0, SVG Export Plug-In . SVG Version: 6.00 Build 0)  -->
<svg version="1.1" id="Layer_1" xmlns="http://www.w3.org/2000/svg" xmlns:xlink="http://www.w3.org/1999/xlink" x="0px" y="0px"
	 viewBox="0 0 191.3 191.3" style="enable-background:new 0 0 191.3 191.3;" xml:space="preserve">
<g>
	<polygon points="128.6,105.1 93.6,140.1 58.8,105.1 75,105.1 75,66.2 112.5,66.2 112.5,105.1 	"/>
	<rect x="75" y="38.2" width="37.5" height="8"/>
	<rect x="75" y="50.4" width="37.5" height="11.5"/>
	<rect x="47.6" y="148" width="92.3" height="4.3"/>
</g>
<path d="M95.6,191.3C42.9,191.3,0,148.4,0,95.6C0,42.9,42.9,0,95.6,0s95.6,42.9,95.6,95.6C191.3,148.4,148.4,191.3,95.6,191.3z
	 M95.6,5C45.7,5,5,45.7,5,95.6s40.7,90.6,90.6,90.6s90.6-40.7,90.6-90.6S145.6,5,95.6,5z"/>
</svg>
