<?xml version="1.0" encoding="utf-8"?>
<!-- Generator: Adobe Illustrator 28.0.0, SVG Export Plug-In . SVG Version: 6.00 Build 0)  -->
<svg version="1.1" id="Layer_1" xmlns="http://www.w3.org/2000/svg" xmlns:xlink="http://www.w3.org/1999/xlink" x="0px" y="0px"
	 viewBox="0 0 512 512" style="enable-background:new 0 0 512 512;" xml:space="preserve">
<path d="M256,500c-65.2,0-126.4-25.4-172.5-71.5C37.4,382.4,12,321.2,12,256S37.4,129.6,83.5,83.5C129.6,37.4,190.8,12,256,12
	s126.4,25.4,172.5,71.5C474.6,129.6,500,190.8,500,256s-25.4,126.4-71.5,172.5C382.4,474.6,321.2,500,256,500z M256,36
	C134.7,36,36,134.7,36,256s98.7,220,220,220s220-98.7,220-220S377.3,36,256,36z M256,388c-2,0-4-0.8-5.7-2.3l-107-99.8
	c-2.1-1.9-3.3-4.7-3.3-7.5c0-5.7,4.6-10.3,10.3-10.3H220V160c0-11,9-20,20-20h32c11,0,20,9,20,20v108h69.7c5.7,0,10.3,4.6,10.3,10.3
	c0,2.8-1.2,5.6-3.3,7.5l-107.1,99.9C260.1,387.2,258,388,256,388z"/>
</svg>
