<?xml version="1.0" encoding="utf-8"?>
<!-- Generator: Adobe Illustrator 28.0.0, SVG Export Plug-In . SVG Version: 6.00 Build 0)  -->
<svg version="1.1" id="Layer_1" xmlns="http://www.w3.org/2000/svg" xmlns:xlink="http://www.w3.org/1999/xlink" x="0px" y="0px"
	 viewBox="0 0 198.43 198.43" style="enable-background:new 0 0 198.43 198.43;" xml:space="preserve">
<style type="text/css">
	.st0{fill:#035187;}
	
		.st1{clip-path:url(#SVGID_00000013895533061043929940000017821904993519108529_);fill-rule:evenodd;clip-rule:evenodd;fill:#FFFFFF;}
	
		.st2{clip-path:url(#SVGID_00000013895533061043929940000017821904993519108529_);fill-rule:evenodd;clip-rule:evenodd;fill:#035187;}
	
		.st3{clip-path:url(#SVGID_00000013895533061043929940000017821904993519108529_);fill-rule:evenodd;clip-rule:evenodd;fill:#010101;}
</style>
<g>
	<polygon class="st0" points="14.17,89.54 14.17,99.87 184.25,108.63 184.25,89.54 	"/>
	<g>
		<defs>
			<rect id="SVGID_1_" x="14.17" y="84.83" width="170.08" height="28.76"/>
		</defs>
		<clipPath id="SVGID_00000141432857549114065570000018073605148555090847_">
			<use xlink:href="#SVGID_1_"  style="overflow:visible;"/>
		</clipPath>
		
			<path style="clip-path:url(#SVGID_00000141432857549114065570000018073605148555090847_);fill-rule:evenodd;clip-rule:evenodd;fill:#FFFFFF;" d="
			M134.69,95.28l-0.18,2.55h-0.51c-0.37-0.66-0.86-1.01-1.47-1.01c-1.29,0-1.93,0.93-1.93,2.8v3.48c0,0.6,0.12,1.01,0.37,1.24
			c0.25,0.22,0.68,0.34,1.29,0.34h0.11v0.67l-0.35-0.02l-2.29-0.07l-2.85,0.1v-0.67H127c0.75,0,1.23-0.2,1.45-0.57
			c0.16-0.27,0.24-0.84,0.24-1.67v-4.66c0-0.57-0.17-0.96-0.5-1.17c-0.26-0.15-0.68-0.22-1.3-0.22v-0.66
			c1.47-0.2,2.61-0.45,3.42-0.75c0.11,0.16,0.16,0.3,0.16,0.39v0.46v1.1l0.29-0.27l0.83-0.72c0.75-0.65,1.47-0.97,2.16-0.97
			C134.1,94.99,134.41,95.09,134.69,95.28"/>
		
			<path style="clip-path:url(#SVGID_00000141432857549114065570000018073605148555090847_);fill-rule:evenodd;clip-rule:evenodd;fill:#FFFFFF;" d="
			M143.15,103.62c-0.48,0.88-1.23,1.32-2.23,1.32c-1.27,0-2.21-0.61-2.82-1.82c-0.5-0.97-0.74-2.14-0.74-3.51
			c0-2.59,1.01-3.89,3.03-3.89c1.17,0,2.06,0.61,2.66,1.83c0.47,0.95,0.7,2.08,0.7,3.38C143.74,102.02,143.55,102.92,143.15,103.62
			 M144.44,96.42c-0.95-0.95-2.14-1.43-3.6-1.43c-1.68,0-3.03,0.5-4.04,1.49c-1.01,0.98-1.51,2.32-1.51,4.01
			c0,1.51,0.41,2.75,1.25,3.7c0.88,1.01,2.05,1.52,3.53,1.52c1.68,0,3.07-0.52,4.16-1.58c1.09-1.04,1.63-2.41,1.63-4.07
			C145.86,98.58,145.38,97.37,144.44,96.42"/>
		
			<path style="clip-path:url(#SVGID_00000141432857549114065570000018073605148555090847_);fill-rule:evenodd;clip-rule:evenodd;fill:#FFFFFF;" d="
			M162.2,99.87c-0.57,0.1-0.86,0.5-0.86,1.22v0.08v0.88l0.12,2.52l-0.24,0.06c-1.11,0.31-2.18,0.58-3.21,0.82
			c-0.69,0.16-1.5,0.24-2.41,0.24c-2.59,0-4.67-0.66-6.24-1.95c-1.7-1.42-2.55-3.38-2.55-5.92c0-2.5,0.84-4.48,2.53-5.96
			c1.6-1.43,3.67-2.14,6.2-2.14c1.04,0,1.97,0.09,2.77,0.25l1.42,0.28l1.48,0.4l0.31,0.07l-0.51,3.3h-0.64l-0.02-0.65
			c-0.03-0.65-0.12-1.09-0.27-1.34c-0.16-0.24-0.52-0.49-1.09-0.74c-1.03-0.45-2.02-0.67-2.97-0.67c-2.11,0-3.77,0.57-4.97,1.73
			c-1.25,1.17-1.87,2.81-1.87,4.9c0,2.25,0.6,4.04,1.8,5.38c1.25,1.4,2.98,2.11,5.2,2.11c1.05,0,1.76-0.06,2.13-0.18
			c0.73-0.23,1.1-0.76,1.1-1.56v-0.11v-0.88l-0.07-1.41l-0.07-0.26c-0.08-0.18-0.4-0.28-0.97-0.31c-0.2,0-0.54-0.01-1.06-0.05h-0.42
			v-0.71h5.36V99.87z"/>
		
			<path style="clip-path:url(#SVGID_00000141432857549114065570000018073605148555090847_);fill-rule:evenodd;clip-rule:evenodd;fill:#FFFFFF;" d="
			M169.13,103.25c-0.95,0.78-1.67,1.16-2.16,1.16c-0.51,0-0.91-0.15-1.2-0.45c-0.29-0.31-0.44-0.72-0.44-1.24
			c0-0.92,0.3-1.6,0.88-2.02c0.44-0.33,1.59-0.65,3.46-0.99v1.61v1.1C169.67,102.68,169.49,102.96,169.13,103.25 M173.04,104.67
			h-0.12c-0.52,0-0.87-0.08-1.07-0.24c-0.19-0.16-0.29-0.49-0.29-0.99v-4.77c-0.02-2.46-1.17-3.69-3.48-3.69
			c-0.94,0-1.84,0.26-2.69,0.77l-0.62,0.37c-0.35,0.22-0.52,0.42-0.52,0.61l0.02,0.18v0.94l0.59,0.15l0.42-0.97
			c0.18-0.39,0.43-0.64,0.76-0.77c0.22-0.08,0.59-0.11,1.11-0.11c1.68,0,2.52,0.86,2.52,2.6v0.22l-0.3,0.07
			c-1.06,0.23-2.13,0.45-3.21,0.63c-0.56,0.16-1.1,0.42-1.62,0.79c-0.75,0.51-1.12,1.31-1.12,2.4c0,0.85,0.23,1.52,0.69,2.04
			c0.46,0.5,1.1,0.76,1.94,0.76c0.42,0,0.81-0.13,1.18-0.4c0.47-0.33,0.77-0.56,0.92-0.66l1.27-0.95l0.26-0.2v0.56
			c-0.02,0.86-0.04,1.31-0.05,1.35l1.87-0.12h0.44c0.17,0,0.31,0,0.4,0.02h0.02c0.33,0.05,0.56,0.08,0.69,0.1V104.67z"/>
		
			<path style="clip-path:url(#SVGID_00000141432857549114065570000018073605148555090847_);fill-rule:evenodd;clip-rule:evenodd;fill:#FFFFFF;" d="
			M40.79,96.31v0.04c-0.07,0-0.11,0.01-0.13,0.01c-0.04,0.01-0.06,0.04-0.06,0.08c0,0.02,0.01,0.05,0.02,0.09
			c0.01,0.04,0.04,0.1,0.08,0.19l0.41,0.9l0.37-0.98c0.02-0.04,0.03-0.08,0.04-0.11c0.01-0.03,0.01-0.05,0.01-0.07
			c0-0.05-0.02-0.09-0.06-0.1c-0.03-0.01-0.07-0.02-0.13-0.02v-0.04h0.53v0.04c-0.06,0.01-0.1,0.02-0.12,0.04
			c-0.04,0.03-0.08,0.1-0.12,0.2l-0.57,1.46h-0.04l-0.64-1.43c-0.05-0.12-0.1-0.2-0.13-0.23c-0.03-0.03-0.08-0.05-0.14-0.05v-0.04
			H40.79z"/>
		
			<path style="clip-path:url(#SVGID_00000141432857549114065570000018073605148555090847_);fill-rule:evenodd;clip-rule:evenodd;fill:#FFFFFF;" d="
			M44.01,96.31v0.05c-0.1,0.01-0.16,0.02-0.19,0.05c-0.03,0.03-0.04,0.09-0.04,0.18v0.83c0,0.14,0.02,0.24,0.06,0.32
			c0.07,0.14,0.2,0.21,0.39,0.21c0.21,0,0.35-0.07,0.43-0.21c0.04-0.08,0.06-0.2,0.06-0.37v-0.68c0-0.14-0.02-0.23-0.05-0.27
			c-0.03-0.04-0.1-0.06-0.19-0.07v-0.05h0.6v0.05c-0.1,0.01-0.17,0.03-0.2,0.07c-0.03,0.04-0.05,0.12-0.05,0.26v0.68
			c0,0.18-0.03,0.32-0.08,0.42c-0.1,0.18-0.29,0.28-0.58,0.28c-0.28,0-0.47-0.09-0.57-0.27c-0.05-0.1-0.08-0.23-0.08-0.39v-0.81
			c0-0.09-0.01-0.16-0.04-0.18c-0.03-0.03-0.09-0.04-0.19-0.05v-0.05H44.01z"/>
		
			<path style="clip-path:url(#SVGID_00000141432857549114065570000018073605148555090847_);fill-rule:evenodd;clip-rule:evenodd;fill:#FFFFFF;" d="
			M46.44,97.98c0.1-0.01,0.16-0.03,0.19-0.05c0.03-0.02,0.04-0.09,0.04-0.18v-1.16c0-0.09-0.01-0.15-0.04-0.18
			c-0.03-0.03-0.09-0.05-0.19-0.05v-0.05h1.38l0.01,0.37h-0.07c-0.02-0.11-0.05-0.19-0.1-0.22c-0.04-0.03-0.14-0.05-0.29-0.05h-0.35
			c-0.04,0-0.06,0.01-0.07,0.02c-0.01,0.01-0.01,0.04-0.01,0.07v0.58h0.4c0.11,0,0.18-0.02,0.21-0.05c0.03-0.03,0.06-0.1,0.07-0.2
			h0.06v0.6h-0.06c-0.02-0.1-0.04-0.17-0.08-0.2c-0.03-0.03-0.1-0.05-0.21-0.05h-0.4v0.64c0,0.05,0.02,0.08,0.05,0.09
			c0.03,0.01,0.13,0.01,0.29,0.01c0.18,0,0.31-0.02,0.39-0.06c0.08-0.04,0.16-0.13,0.23-0.28h0.07l-0.12,0.44h-1.4V97.98z"/>
		
			<path style="clip-path:url(#SVGID_00000141432857549114065570000018073605148555090847_);fill-rule:evenodd;clip-rule:evenodd;fill:#FFFFFF;" d="
			M49.33,97.98c0.1-0.01,0.16-0.03,0.19-0.05c0.03-0.02,0.04-0.09,0.04-0.18v-1.16c0-0.09-0.01-0.15-0.04-0.18
			c-0.03-0.03-0.09-0.05-0.19-0.05v-0.05h0.73v0.05c-0.1,0-0.16,0.02-0.19,0.05c-0.03,0.03-0.05,0.08-0.05,0.17v1.25
			c0,0.03,0.01,0.05,0.01,0.07c0.01,0.02,0.03,0.03,0.06,0.03c0.02,0,0.04,0,0.06,0s0.06,0,0.12,0c0.23,0,0.39-0.02,0.47-0.06
			c0.08-0.04,0.16-0.14,0.24-0.29h0.07l-0.13,0.45h-1.4V97.98z"/>
		
			<path style="clip-path:url(#SVGID_00000141432857549114065570000018073605148555090847_);fill-rule:evenodd;clip-rule:evenodd;fill:#FFFFFF;" d="
			M52.22,98.03v-0.05c0.07-0.01,0.12-0.03,0.15-0.08c0.03-0.04,0.09-0.16,0.17-0.35l0.54-1.27h0.05l0.65,1.47
			c0.04,0.1,0.08,0.16,0.1,0.18c0.03,0.02,0.07,0.04,0.13,0.05v0.05h-0.66v-0.05c0.08-0.01,0.13-0.01,0.15-0.02
			c0.02-0.01,0.03-0.03,0.03-0.07c0-0.01,0-0.03-0.01-0.07c-0.01-0.03-0.02-0.07-0.04-0.1l-0.1-0.25H52.7
			c-0.07,0.17-0.11,0.27-0.12,0.31c-0.01,0.04-0.02,0.07-0.02,0.09c0,0.04,0.02,0.07,0.05,0.09c0.02,0.01,0.06,0.02,0.12,0.02v0.05
			H52.22z M53.34,97.36l-0.3-0.72l-0.3,0.72H53.34z"/>
		
			<path style="clip-path:url(#SVGID_00000141432857549114065570000018073605148555090847_);fill-rule:evenodd;clip-rule:evenodd;fill:#FFFFFF;" d="
			M57.21,97.98c0.11-0.01,0.17-0.02,0.21-0.05c0.03-0.02,0.05-0.09,0.05-0.19v-1.16c0-0.1-0.02-0.16-0.05-0.18
			c-0.03-0.03-0.1-0.04-0.21-0.05v-0.05h0.77v0.05c-0.11,0-0.17,0.02-0.21,0.05c-0.03,0.03-0.05,0.09-0.05,0.18v1.16
			c0,0.1,0.02,0.16,0.05,0.19c0.03,0.02,0.1,0.04,0.21,0.05v0.05h-0.77V97.98z"/>
		
			<path style="clip-path:url(#SVGID_00000141432857549114065570000018073605148555090847_);fill-rule:evenodd;clip-rule:evenodd;fill:#FFFFFF;" d="
			M59.36,97.98c0.11-0.01,0.18-0.04,0.21-0.07c0.03-0.04,0.05-0.13,0.05-0.26V96.5l-0.04-0.04c-0.04-0.04-0.07-0.07-0.1-0.08
			c-0.03-0.01-0.07-0.02-0.12-0.02v-0.05h0.45l1,1.24v-0.86c0-0.14-0.02-0.23-0.06-0.28c-0.03-0.03-0.09-0.05-0.19-0.05v-0.05h0.61
			v0.05c-0.1,0.01-0.17,0.03-0.2,0.07c-0.03,0.04-0.05,0.13-0.05,0.26v1.37h-0.04l-1.15-1.43v1.01c0,0.14,0.02,0.23,0.06,0.28
			c0.03,0.03,0.09,0.05,0.18,0.06v0.05h-0.61V97.98z"/>
		
			<path style="clip-path:url(#SVGID_00000141432857549114065570000018073605148555090847_);fill-rule:evenodd;clip-rule:evenodd;fill:#FFFFFF;" d="
			M62.55,96.31h1.47l0.01,0.44h-0.06c-0.03-0.14-0.07-0.23-0.12-0.27c-0.05-0.04-0.15-0.06-0.3-0.06h-0.15v1.33
			c0,0.1,0.02,0.16,0.05,0.19c0.03,0.02,0.1,0.04,0.21,0.05v0.05h-0.76v-0.05c0.11-0.01,0.18-0.03,0.21-0.05
			c0.03-0.03,0.04-0.1,0.04-0.21v-1.3h-0.15c-0.14,0-0.24,0.02-0.29,0.06c-0.05,0.04-0.09,0.13-0.12,0.27h-0.06L62.55,96.31z"/>
		
			<path style="clip-path:url(#SVGID_00000141432857549114065570000018073605148555090847_);fill-rule:evenodd;clip-rule:evenodd;fill:#FFFFFF;" d="
			M65.42,97.98c0.1-0.01,0.16-0.03,0.19-0.05c0.03-0.02,0.04-0.09,0.04-0.18v-1.16c0-0.09-0.01-0.15-0.04-0.18
			c-0.03-0.03-0.09-0.05-0.19-0.05v-0.05h1.38l0.01,0.37h-0.07c-0.02-0.11-0.06-0.19-0.1-0.22c-0.04-0.03-0.14-0.05-0.29-0.05h-0.35
			c-0.04,0-0.06,0.01-0.07,0.02c-0.01,0.01-0.01,0.04-0.01,0.07v0.58h0.4c0.11,0,0.18-0.02,0.21-0.05c0.03-0.03,0.06-0.1,0.07-0.2
			h0.06v0.6H66.6c-0.02-0.1-0.04-0.17-0.07-0.2c-0.03-0.03-0.1-0.05-0.21-0.05h-0.4v0.64c0,0.05,0.02,0.08,0.05,0.09
			c0.03,0.01,0.13,0.01,0.29,0.01c0.18,0,0.31-0.02,0.39-0.06c0.08-0.04,0.16-0.13,0.23-0.28h0.07l-0.12,0.44h-1.4V97.98z"/>
		
			<path style="clip-path:url(#SVGID_00000141432857549114065570000018073605148555090847_);fill-rule:evenodd;clip-rule:evenodd;fill:#FFFFFF;" d="
			M68.3,97.98c0.1-0.01,0.16-0.03,0.19-0.05c0.03-0.02,0.04-0.09,0.04-0.18v-1.16c0-0.09-0.01-0.15-0.04-0.18
			c-0.03-0.03-0.09-0.05-0.19-0.05v-0.05h0.73v0.05c-0.1,0-0.16,0.02-0.19,0.05c-0.03,0.03-0.05,0.08-0.05,0.17v1.25
			c0,0.03,0,0.05,0.01,0.07c0.01,0.02,0.03,0.03,0.06,0.03c0.02,0,0.04,0,0.06,0c0.02,0,0.06,0,0.12,0c0.23,0,0.39-0.02,0.47-0.06
			c0.08-0.04,0.16-0.14,0.24-0.29h0.07l-0.13,0.45h-1.4V97.98z"/>
		
			<path style="clip-path:url(#SVGID_00000141432857549114065570000018073605148555090847_);fill-rule:evenodd;clip-rule:evenodd;fill:#FFFFFF;" d="
			M71.2,97.98c0.11-0.01,0.17-0.02,0.21-0.05c0.03-0.02,0.05-0.09,0.05-0.19v-1.16c0-0.1-0.02-0.16-0.05-0.18
			c-0.03-0.03-0.1-0.04-0.21-0.05v-0.05h0.77v0.05c-0.11,0-0.17,0.02-0.21,0.05c-0.03,0.03-0.05,0.09-0.05,0.18v1.16
			c0,0.1,0.02,0.16,0.05,0.19c0.03,0.02,0.1,0.04,0.21,0.05v0.05H71.2V97.98z"/>
		
			<path style="clip-path:url(#SVGID_00000141432857549114065570000018073605148555090847_);fill-rule:evenodd;clip-rule:evenodd;fill:#FFFFFF;" d="
			M74.58,96.32c0.1,0.03,0.15,0.04,0.17,0.04c0.04,0,0.06-0.01,0.08-0.02c0.02-0.01,0.03-0.03,0.04-0.06h0.06l0.02,0.55h-0.06
			c-0.05-0.13-0.11-0.22-0.16-0.28c-0.1-0.11-0.24-0.16-0.4-0.16c-0.17,0-0.31,0.06-0.44,0.19c-0.13,0.13-0.19,0.33-0.19,0.62
			c0,0.24,0.06,0.43,0.19,0.56c0.13,0.13,0.28,0.2,0.47,0.2c0.03,0,0.07,0,0.11-0.01c0.04-0.01,0.08-0.02,0.12-0.03
			c0.06-0.02,0.1-0.04,0.11-0.05c0.02-0.02,0.02-0.04,0.02-0.07v-0.41c0-0.1-0.01-0.16-0.04-0.19c-0.03-0.02-0.09-0.04-0.19-0.05
			v-0.05h0.66v0.05c-0.06,0-0.11,0.02-0.13,0.03c-0.04,0.03-0.05,0.08-0.05,0.17v0.51c0,0.03-0.07,0.07-0.22,0.12
			c-0.15,0.05-0.29,0.08-0.43,0.08c-0.25,0-0.47-0.07-0.64-0.22c-0.19-0.16-0.29-0.38-0.29-0.66c0-0.24,0.08-0.45,0.23-0.62
			c0.17-0.19,0.39-0.29,0.67-0.29C74.38,96.28,74.48,96.29,74.58,96.32"/>
		
			<path style="clip-path:url(#SVGID_00000141432857549114065570000018073605148555090847_);fill-rule:evenodd;clip-rule:evenodd;fill:#FFFFFF;" d="
			M76.53,97.98c0.1-0.01,0.16-0.03,0.19-0.05c0.03-0.02,0.04-0.09,0.04-0.18v-1.16c0-0.09-0.01-0.15-0.04-0.18
			c-0.03-0.03-0.09-0.05-0.19-0.05v-0.05h1.38l0.01,0.37h-0.07c-0.02-0.11-0.05-0.19-0.1-0.22c-0.04-0.03-0.14-0.05-0.29-0.05H77.1
			c-0.04,0-0.06,0.01-0.07,0.02c-0.01,0.01-0.01,0.04-0.01,0.07v0.58h0.4c0.11,0,0.18-0.02,0.21-0.05c0.03-0.03,0.05-0.1,0.07-0.2
			h0.06v0.6h-0.06c-0.02-0.1-0.04-0.17-0.07-0.2c-0.03-0.03-0.1-0.05-0.21-0.05h-0.4v0.64c0,0.05,0.02,0.08,0.05,0.09
			c0.03,0.01,0.13,0.01,0.29,0.01c0.18,0,0.31-0.02,0.39-0.06c0.08-0.04,0.16-0.13,0.23-0.28h0.07l-0.12,0.44h-1.4V97.98z"/>
		
			<path style="clip-path:url(#SVGID_00000141432857549114065570000018073605148555090847_);fill-rule:evenodd;clip-rule:evenodd;fill:#FFFFFF;" d="
			M79.41,97.98c0.11-0.01,0.18-0.04,0.21-0.07c0.03-0.04,0.05-0.13,0.05-0.26V96.5l-0.04-0.04c-0.04-0.04-0.07-0.07-0.1-0.08
			c-0.03-0.01-0.07-0.02-0.12-0.02v-0.05h0.45l1,1.24v-0.86c0-0.14-0.02-0.23-0.06-0.28c-0.03-0.03-0.09-0.05-0.19-0.05v-0.05h0.61
			v0.05c-0.1,0.01-0.17,0.03-0.2,0.07c-0.03,0.04-0.05,0.13-0.05,0.26v1.37h-0.04l-1.15-1.43v1.01c0,0.14,0.02,0.23,0.06,0.28
			c0.03,0.03,0.09,0.05,0.18,0.06v0.05h-0.61V97.98z"/>
		
			<path style="clip-path:url(#SVGID_00000141432857549114065570000018073605148555090847_);fill-rule:evenodd;clip-rule:evenodd;fill:#FFFFFF;" d="
			M82.61,96.31h1.47l0.01,0.44h-0.06c-0.03-0.14-0.07-0.23-0.12-0.27c-0.05-0.04-0.15-0.06-0.3-0.06h-0.15v1.33
			c0,0.1,0.02,0.16,0.05,0.19c0.03,0.02,0.1,0.04,0.21,0.05v0.05h-0.76v-0.05c0.11-0.01,0.18-0.03,0.21-0.05
			c0.03-0.03,0.04-0.1,0.04-0.21v-1.3h-0.15c-0.14,0-0.24,0.02-0.29,0.06c-0.05,0.04-0.09,0.13-0.12,0.27h-0.06L82.61,96.31z"/>
		
			<path style="clip-path:url(#SVGID_00000141432857549114065570000018073605148555090847_);fill-rule:evenodd;clip-rule:evenodd;fill:#FFFFFF;" d="
			M85.47,97.98c0.1-0.01,0.16-0.03,0.19-0.05c0.03-0.02,0.04-0.09,0.04-0.18v-1.16c0-0.09-0.01-0.15-0.04-0.18
			c-0.03-0.03-0.09-0.05-0.19-0.05v-0.05h1.38l0.01,0.37H86.8c-0.02-0.11-0.05-0.19-0.1-0.22c-0.04-0.03-0.14-0.05-0.29-0.05h-0.35
			c-0.04,0-0.06,0.01-0.07,0.02c-0.01,0.01-0.01,0.04-0.01,0.07v0.58h0.4c0.11,0,0.18-0.02,0.21-0.05c0.03-0.03,0.05-0.1,0.07-0.2
			h0.06v0.6h-0.06c-0.02-0.1-0.04-0.17-0.07-0.2c-0.03-0.03-0.1-0.05-0.21-0.05h-0.4v0.64c0,0.05,0.02,0.08,0.05,0.09
			c0.03,0.01,0.13,0.01,0.29,0.01c0.18,0,0.31-0.02,0.39-0.06c0.08-0.04,0.16-0.13,0.23-0.28H87l-0.12,0.44h-1.4V97.98z"/>
		
			<path style="clip-path:url(#SVGID_00000141432857549114065570000018073605148555090847_);fill-rule:evenodd;clip-rule:evenodd;fill:#FFFFFF;" d="
			M88.36,97.98c0.11-0.01,0.18-0.04,0.21-0.07c0.03-0.04,0.05-0.13,0.05-0.26v-1.06c0-0.09-0.01-0.15-0.04-0.18
			c-0.03-0.03-0.1-0.05-0.2-0.05v-0.05h0.51l0.6,1.29l0.58-1.29h0.52v0.05c-0.1,0.01-0.16,0.02-0.19,0.05
			c-0.03,0.03-0.04,0.09-0.04,0.18v1.16c0,0.09,0.01,0.16,0.04,0.18c0.03,0.03,0.09,0.04,0.19,0.05v0.05h-0.73v-0.05
			c0.1-0.01,0.17-0.03,0.2-0.06c0.03-0.03,0.04-0.1,0.04-0.21v-1.17l-0.67,1.48h-0.04l-0.65-1.42v1.04c0,0.14,0.02,0.23,0.06,0.28
			c0.03,0.03,0.09,0.05,0.18,0.06v0.05h-0.61V97.98z"/>
		
			<path style="clip-path:url(#SVGID_00000141432857549114065570000018073605148555090847_);fill-rule:evenodd;clip-rule:evenodd;fill:#FFFFFF;" d="
			M91.97,97.98c0.1-0.01,0.16-0.03,0.19-0.05c0.03-0.02,0.04-0.09,0.04-0.18v-1.16c0-0.09-0.01-0.15-0.04-0.18
			c-0.03-0.03-0.09-0.05-0.19-0.05v-0.05h1.38l0.01,0.37h-0.07c-0.02-0.11-0.05-0.19-0.1-0.22c-0.04-0.03-0.14-0.05-0.29-0.05h-0.35
			c-0.04,0-0.06,0.01-0.07,0.02c-0.01,0.01-0.01,0.04-0.01,0.07v0.58h0.4c0.11,0,0.18-0.02,0.21-0.05c0.03-0.03,0.05-0.1,0.07-0.2
			h0.06v0.6h-0.06c-0.02-0.1-0.04-0.17-0.07-0.2c-0.03-0.03-0.1-0.05-0.21-0.05h-0.4v0.64c0,0.05,0.02,0.08,0.05,0.09
			c0.03,0.01,0.13,0.01,0.29,0.01c0.18,0,0.31-0.02,0.39-0.06c0.08-0.04,0.16-0.13,0.23-0.28h0.07l-0.12,0.44h-1.4V97.98z"/>
		
			<path style="clip-path:url(#SVGID_00000141432857549114065570000018073605148555090847_);fill-rule:evenodd;clip-rule:evenodd;fill:#FFFFFF;" d="
			M94.85,97.98c0.11-0.01,0.18-0.04,0.21-0.07c0.03-0.04,0.05-0.13,0.05-0.26V96.5l-0.04-0.04c-0.04-0.04-0.07-0.07-0.1-0.08
			c-0.03-0.01-0.07-0.02-0.12-0.02v-0.05h0.45l1,1.24v-0.86c0-0.14-0.02-0.23-0.06-0.28c-0.03-0.03-0.09-0.05-0.19-0.05v-0.05h0.61
			v0.05c-0.1,0.01-0.16,0.03-0.2,0.07c-0.03,0.04-0.05,0.13-0.05,0.26v1.37h-0.04l-1.15-1.43v1.01c0,0.14,0.02,0.23,0.06,0.28
			c0.03,0.03,0.09,0.05,0.18,0.06v0.05h-0.61V97.98z"/>
		
			<path style="clip-path:url(#SVGID_00000141432857549114065570000018073605148555090847_);fill-rule:evenodd;clip-rule:evenodd;fill:#FFFFFF;" d="
			M98.05,96.31h1.47l0.01,0.44h-0.06c-0.03-0.14-0.07-0.23-0.12-0.27c-0.05-0.04-0.15-0.06-0.3-0.06h-0.15v1.33
			c0,0.1,0.02,0.16,0.05,0.19c0.03,0.02,0.1,0.04,0.21,0.05v0.05h-0.76v-0.05c0.11-0.01,0.18-0.03,0.21-0.05
			c0.03-0.03,0.04-0.1,0.04-0.21v-1.3h-0.15c-0.14,0-0.24,0.02-0.29,0.06c-0.05,0.04-0.09,0.13-0.12,0.27h-0.06L98.05,96.31z"/>
		
			<path style="clip-path:url(#SVGID_00000141432857549114065570000018073605148555090847_);fill-rule:evenodd;clip-rule:evenodd;fill:#FFFFFF;" d="
			M100.92,97.98c0.1-0.01,0.16-0.03,0.19-0.05c0.03-0.02,0.04-0.09,0.04-0.18v-1.16c0-0.09-0.01-0.15-0.04-0.18
			c-0.03-0.03-0.09-0.05-0.19-0.05v-0.05h1.38l0.01,0.37h-0.07c-0.02-0.11-0.06-0.19-0.1-0.22c-0.04-0.03-0.14-0.05-0.29-0.05h-0.35
			c-0.04,0-0.06,0.01-0.07,0.02c-0.01,0.01-0.01,0.04-0.01,0.07v0.58h0.4c0.11,0,0.18-0.02,0.21-0.05c0.03-0.03,0.06-0.1,0.07-0.2
			h0.06v0.6h-0.06c-0.02-0.1-0.04-0.17-0.07-0.2c-0.03-0.03-0.1-0.05-0.21-0.05h-0.4v0.64c0,0.05,0.02,0.08,0.05,0.09
			c0.03,0.01,0.13,0.01,0.29,0.01c0.18,0,0.31-0.02,0.39-0.06c0.08-0.04,0.16-0.13,0.23-0.28h0.07l-0.12,0.44h-1.4V97.98z"/>
		
			<path style="clip-path:url(#SVGID_00000141432857549114065570000018073605148555090847_);fill-rule:evenodd;clip-rule:evenodd;fill:#FFFFFF;" d="
			M176.58,89.68h1c0.02,0.07,0.02,0.14,0.02,0.21v0.43l-0.12,2.71v9.48c0,0.82,0.08,1.36,0.25,1.63c0.23,0.36,0.72,0.54,1.47,0.54
			h0.11v0.67l-0.35-0.02l-2.24-0.07l-2.86,0.1v-0.67H174c0.7,0,1.16-0.2,1.39-0.59c0.15-0.28,0.23-0.83,0.23-1.65v-10.6
			c0-0.66-0.58-0.99-1.75-0.99v-0.68l0.59-0.07l0.33-0.06l1.19-0.19l0.37-0.12L176.58,89.68z"/>
		
			<path style="clip-path:url(#SVGID_00000141432857549114065570000018073605148555090847_);fill-rule:evenodd;clip-rule:evenodd;fill:#FFFFFF;" d="
			M124.01,105.39l-4.51-0.23c-0.47-0.24-0.88-0.57-1.23-0.97c-0.82-0.95-1.23-2.25-1.23-3.89c0-2.06,0.86-3.58,2.59-4.56
			c0.88-0.49,1.76-0.75,2.64-0.75c1.16,0,2.14,0.39,2.96,1.16c0.81,0.77,1.18,1.73,1.09,2.87l-0.07,0.88
			c-1.32,0.25-3.09,0.35-5.31,0.33h-1.85c0,1.29,0.31,2.32,0.93,3.08c0.65,0.82,1.61,1.23,2.88,1.23c0.77,0,1.63-0.28,2.55-0.85
			l0.33-0.2l0.24,0.26l-0.13,0.26c-0.28,0.56-0.85,0.99-1.71,1.3C124.14,105.35,124.07,105.37,124.01,105.39"/>
		
			<path style="clip-path:url(#SVGID_00000141432857549114065570000018073605148555090847_);fill-rule:evenodd;clip-rule:evenodd;fill:#035187;" d="
			M124.32,99.39l-2.55,0.08h-0.13c-0.9,0-1.75-0.04-2.53-0.14c0-2.38,0.9-3.59,2.7-3.59c0.96,0,1.66,0.35,2.09,1.03
			c0.37,0.58,0.52,1.36,0.44,2.34L124.32,99.39z"/>
		
			<path style="clip-path:url(#SVGID_00000141432857549114065570000018073605148555090847_);fill-rule:evenodd;clip-rule:evenodd;fill:#FFFFFF;" d="
			M116.51,105l-5.83-0.3v-0.02c1.26,0,1.89-0.24,1.89-0.71c0-0.25-0.07-0.55-0.2-0.89l-1.23-2.78h-6.17l-1.34,3.2
			c-0.09,0.2-0.15,0.36-0.15,0.48c0,0.15,0.05,0.27,0.14,0.37l-1.85-0.1c0.19-0.22,0.42-0.61,0.68-1.19
			c0.05-0.08,0.21-0.43,0.48-1.06l5.28-12.08h0.72l5.57,13.16c0.45,1.08,1.12,1.61,2,1.61V105z"/>
		
			<polygon style="clip-path:url(#SVGID_00000141432857549114065570000018073605148555090847_);fill-rule:evenodd;clip-rule:evenodd;fill:#035187;" points="
			105.32,99.32 108.02,92.91 110.73,99.32 		"/>
		
			<path style="clip-path:url(#SVGID_00000141432857549114065570000018073605148555090847_);fill-rule:evenodd;clip-rule:evenodd;fill:#010101;" d="
			M122.32,91c0,0.05,0.07,0.07,0.1,0.04c0.03,0.1,0.06,0.2,0.14,0.24c0.06,0.03,0.08,0.05,0.13,0.09c0.03,0.02,0.05,0.02,0.09,0.04
			c0.04,0.01,0.06,0.05,0.07,0.09c0.01,0.04-0.01,0.08,0.01,0.11c0.02,0.05,0.06,0.05,0.07,0.13c0.01,0.08-0.01,0.16-0.03,0.23
			c-0.04,0.11-0.01,0.26-0.08,0.36c-0.01,0.03-0.03,0.05-0.06,0.07c-0.03,0-0.08-0.02-0.1,0c-0.02,0.01-0.02,0.08-0.04,0.1
			c-0.03,0.04-0.08,0.07-0.12,0.1c-0.13,0.09-0.24,0.14-0.39,0.06c-0.06,0.08-0.22,0.06-0.26,0.16c-0.01,0.03,0,0.05-0.01,0.07
			c-0.01,0.02-0.02,0.05-0.03,0.07c-0.04,0.11-0.05,0.21-0.09,0.32c-0.04,0.11-0.06,0.21-0.16,0.29c-0.05,0.04-0.11,0.04-0.16,0.07
			c-0.08,0.02-0.06,0.02-0.1,0.09c-0.01,0-0.02,0-0.03-0.01c-0.02,0.03-0.01,0.07-0.02,0.1c-0.03-0.03-0.03-0.07-0.06-0.1
			c-0.03-0.03-0.09-0.04-0.12-0.07c-0.03-0.04-0.04-0.06-0.09-0.09c-0.03-0.02-0.07-0.02-0.09-0.06c-0.05,0.09,0.04,0.19,0.09,0.24
			c0.08,0.07,0.12,0.12,0.17,0.21c0.07,0.12,0.13,0.29,0.14,0.44c0.01,0.06,0.01,0.12-0.02,0.17c-0.06,0.08-0.16,0.08-0.2,0.18
			c-0.05,0.13-0.08,0.25-0.11,0.39c-0.02,0.05-0.06,0.09-0.07,0.14c-0.04,0.08-0.03,0.11-0.1,0.16c-0.06,0.04-0.11,0.09-0.14,0.16
			c-0.02,0.07-0.07,0.11-0.11,0.18c0.04-0.01,0.12-0.03,0.15-0.06c0.04-0.04,0.03-0.1,0.07-0.14c0.04-0.03,0.09-0.05,0.14-0.07
			c0.04-0.02,0.12-0.11,0.17-0.09c-0.08,0.05-0.05,0.1-0.08,0.17c-0.01,0.04-0.04,0.04,0,0.09c0.02,0.02,0.07,0.03,0.09,0.03
			c0.04,0.02,0.13,0.05,0.13,0.1c0,0.03-0.02,0.07-0.03,0.1c0,0.03,0,0.07,0,0.08c-0.07-0.04-0.13-0.18-0.22-0.18
			c-0.04,0-0.16,0.12-0.16,0.07c-0.07,0.02-0.11,0.1-0.16,0.14c-0.05,0.06-0.14,0.14-0.22,0.17c-0.08,0.03-0.17,0.03-0.21-0.05
			c-0.05-0.1-0.11-0.08-0.21-0.11c-0.06-0.02-0.18-0.1-0.15-0.18c-0.05-0.04-0.01-0.14-0.05-0.19c-0.02-0.03-0.17-0.1-0.21-0.1
			c0.05-0.07,0.12-0.09,0.19-0.14c0.02-0.02,0.05-0.09,0.09-0.08c0.06,0,0.03,0.06,0.04,0.1c0.01,0.03,0.04,0.07,0.07,0.08
			c0.06-0.05,0.07-0.17,0.11-0.25c0.03-0.08,0.07-0.15,0.13-0.2c0.11-0.11,0.19-0.28,0.24-0.42c0.02-0.08-0.02-0.12-0.04-0.2
			c-0.03-0.1,0.01-0.15,0.02-0.24c0.01-0.12-0.02-0.24-0.01-0.36c0-0.05,0-0.09,0.03-0.13c0.02-0.03,0.06-0.02,0.07-0.08
			c-0.07,0.12-0.17,0.24-0.21,0.37c-0.04,0.13-0.01,0.3,0,0.44c0.02,0.15-0.05,0.17-0.16,0.24c-0.04,0.03-0.1,0.07-0.14,0.1
			c-0.08,0.06-0.11,0.14-0.17,0.22c-0.05,0.08-0.14,0.12-0.2,0.2c-0.07,0.1-0.09,0.2-0.19,0.26c-0.11,0.07-0.22,0.09-0.34,0.17
			c-0.14,0.11-0.29,0.25-0.46,0.3c-0.33,0.07-0.63-0.24-0.94-0.34c-0.12-0.04-0.24-0.01-0.36,0c-0.15,0-0.28-0.04-0.43-0.04
			c-0.09,0-0.29-0.04-0.38,0.02c-0.05,0.04-0.08,0.11-0.14,0.14c0.15,0.02,0.34,0.08,0.5,0.06c0.07-0.02,0.14-0.04,0.21-0.04
			c0.18,0,0.33,0.07,0.5,0.11c0.15,0.04,0.32,0.09,0.47,0.14c0.09,0.03,0.21,0.04,0.23,0.15c0.01,0.05,0,0.09,0.01,0.14
			c0.03,0.1,0.06,0.2,0.07,0.31c0.01,0.07,0.01,0.14-0.01,0.21c-0.01,0.07-0.06,0.1-0.07,0.17c-0.03,0.07,0,0.18,0,0.25
			c0.01,0.04,0.02,0.08,0.02,0.13c0,0.04-0.01,0.06-0.01,0.1c-0.01,0.08,0.05,0.12,0.14,0.11c0.05,0,0.09-0.05,0.15-0.07
			c0.02-0.01,0.04-0.01,0.07-0.01c0.03-0.02,0.05-0.04,0.08-0.05c0.05-0.02,0.12,0,0.17,0c0.12,0,0.28,0.07,0.33,0.2
			c-0.07-0.05-0.15-0.03-0.21-0.01c-0.04,0.01-0.07,0.02-0.12,0.02c-0.04,0-0.08-0.04-0.12-0.01c-0.03,0.03-0.02,0.11-0.03,0.14
			c-0.01,0.04-0.03,0.06-0.05,0.09c-0.03,0.05-0.05,0.18-0.12,0.16c0.11-0.03,0.23-0.1,0.33-0.16c0.09-0.05,0.18-0.04,0.28-0.03
			c0.07,0.01,0.12,0.01,0.19,0.04c0.07,0.03,0.06,0.01,0.12,0c0.06-0.01,0.19,0,0.22,0.06c-0.05,0.04-0.16,0.04-0.22,0.05
			c-0.05,0-0.08-0.05-0.11-0.03c-0.07,0.04-0.14,0.1-0.21,0.14c-0.09,0.05-0.17-0.02-0.27,0.02c-0.03,0.01-0.07,0.02-0.09,0.04
			c-0.03,0.01-0.05,0.05-0.08,0.05c0.1,0.1,0.29,0.16,0.42,0.22c0.11,0.06,0.2,0.17,0.27,0.28c0.05,0.07,0.08,0.14,0.13,0.21
			c0.05,0.09,0.13,0.17,0.18,0.27c0.02,0.05,0.09,0.14,0.09,0.18c0,0.04-0.02,0.09-0.05,0.06c-0.05,0.04-0.16,0.02-0.14,0.1
			c-0.02-0.04-0.03-0.12-0.04-0.18c0-0.03,0.01-0.05-0.01-0.08c-0.03-0.04-0.09-0.08-0.11-0.13c-0.06-0.08-0.1-0.16-0.17-0.21
			c-0.11-0.08-0.13-0.23-0.24-0.33c-0.01,0.01-0.01,0.04,0,0.06c-0.04,0.02-0.25-0.06-0.22,0.02c-0.08,0.01-0.15-0.01-0.24-0.01
			c-0.07-0.01-0.14-0.02-0.22-0.03c-0.03-0.01-0.08-0.04-0.11-0.01c0.08,0.09,0.1,0.23,0.08,0.35c-0.01,0.05-0.06,0.16-0.1,0.19
			c-0.03,0.01-0.12,0.09-0.14,0.08c-0.04,0-0.09,0.02-0.11,0c0.03-0.11,0.08-0.23,0.14-0.31c0.03-0.02,0.07-0.06,0.07-0.08
			c0.01-0.04-0.02-0.07-0.01-0.12c-0.01,0.01-0.03,0-0.04,0c-0.02-0.02-0.24-0.04-0.28-0.04c-0.03-0.01-0.07-0.02-0.09-0.01
			c-0.05,0-0.1-0.03-0.14-0.03c0,0,0-0.02,0.02-0.02h0.02c-0.07,0.01-0.08,0.04-0.14-0.01c-0.04-0.04-0.1-0.08-0.14-0.13
			c-0.08-0.08-0.08-0.28-0.08-0.38c0.01-0.16,0.08-0.36,0.13-0.51c0.04-0.12,0.08-0.25,0.11-0.36c0.01-0.06-0.01-0.13,0.02-0.19
			c-0.03-0.02-0.15,0.05-0.2,0.05c-0.13,0.01-0.28-0.01-0.42-0.02c-0.1,0-0.19-0.03-0.28-0.03c-0.04,0-0.09-0.01-0.12,0
			c-0.05,0.02-0.05,0.04-0.13,0.01c-0.08-0.04-0.16-0.06-0.25-0.1c-0.07-0.04-0.12-0.13-0.21-0.15c-0.14-0.03-0.25,0.11-0.39,0.08
			c0.04-0.07,0-0.15,0.03-0.23c0.02-0.05,0.14-0.17,0.12-0.22c-0.17,0.15-0.28,0.39-0.38,0.6c-0.06,0.11-0.14,0.2-0.19,0.32
			c-0.06,0.13,0.01,0.26,0.02,0.4c0.02,0.16,0.02,0.32,0.03,0.48c0.02,0.24-0.01,0.48,0.11,0.68c0.21,0.31,0.46,0.55,0.72,0.8
			c0.23,0.21,0.42,0.4,0.59,0.66c0.1,0.15,0.27,0.24,0.36,0.39c0.03-0.01,0.05-0.01,0.07-0.01c-0.05,0.05,0.04,0.15,0.07,0.2
			c0.06,0.1,0.08,0.16,0.2,0.16c0.08,0,0.2-0.06,0.27-0.03c0.07,0.03,0.13,0.13,0.21,0.17c0.05,0.02,0.07,0.01,0.12,0.01
			c0.07,0.03,0.16,0.09,0.21,0.13c0.06,0.05,0.1,0.12,0.16,0.18c0.03,0.04,0.03,0.03,0.09,0.03c0.18-0.02,0.34,0.06,0.49,0.16
			c0.01,0.01,0.02,0.03,0.04,0.03c0.01,0.01,0.03,0,0.04,0.01c0.03,0.02,0.05,0.06,0.07,0.08c0.04-0.03,0.1-0.14,0.16-0.14
			c0.06,0.01,0.1,0.15,0.14,0.2c0.05-0.02,0.08-0.08,0.12-0.1c0.04-0.03,0.07-0.04,0.1-0.08c0.02,0.02,0.02,0.07,0.05,0.1
			c0.03-0.07,0.16-0.22,0.22-0.23c0.08-0.02,0.12,0.07,0.14,0.13c0.02-0.05,0.07-0.14,0.11-0.17c0.04,0.07,0.02,0.15,0.04,0.22
			c0.04-0.11,0.12-0.2,0.2-0.29c0.01,0.05,0.02,0.1,0.03,0.15c0.05-0.1,0.12-0.21,0.22-0.29c0.02,0.03,0.02,0.07,0.04,0.1
			c0.03-0.06,0.11-0.16,0.17-0.12c0.05,0.02,0.04,0.07,0.07,0.13c0.01-0.06,0.11-0.18,0.16-0.18c0.09,0.01,0.04,0.18,0.08,0.24
			c0.07-0.04,0.14-0.09,0.22-0.08c-0.01,0.04-0.05,0.05-0.07,0.08c-0.03,0.03-0.05,0.08-0.07,0.12c0.02-0.04,0.04-0.05,0.07-0.07
			c-0.28,0.14-0.57,0.24-0.85,0.35c-0.34,0.12-0.66,0.3-1,0.44c-0.4,0.16-0.78,0.11-1.17-0.02c-0.53-0.18-1.06-0.37-1.57-0.58
			c-0.48-0.2-0.84-0.52-1.17-0.93c-0.3-0.37-0.63-0.7-0.93-1.06c-0.3-0.37-0.52-0.82-0.57-1.3c-0.04-0.29,0.05-0.55,0.04-0.83
			c-0.01-0.34-0.12-0.71,0.02-1.04c0.05-0.12,0.13-0.21,0.18-0.32c0.06-0.13-0.05-0.02-0.02-0.15c-0.04,0.12,0.01,0-0.04,0.11
			c-0.04,0.07-0.08,0.14-0.14,0.19c-0.06,0.05-0.1,0.03-0.17,0.02c-0.05-0.01-0.06,0.01-0.12,0.01c-0.14,0.03-0.19,0-0.29-0.12
			c0.05,0.05,0.09,0.09,0.14,0.13c0.02,0.03,0.07,0.06,0.08,0.08c0.01,0.05-0.04,0.11-0.04,0.16c-0.02,0.07-0.02,0.15-0.03,0.22
			c-0.01,0.04-0.02,0.07-0.02,0.11c0,0.09,0.02,0.07,0.09,0.06c-0.01,0.05-0.04,0.09-0.07,0.13c-0.04,0.07-0.06,0.14-0.11,0.22
			c-0.02,0.05-0.06,0.12-0.09,0.15c-0.05,0.07-0.33,0.07-0.3,0.18c-0.04,0.04,0.01,0.08-0.01,0.12c-0.02,0.04-0.11,0.07-0.14,0.07
			c-0.06,0-0.12-0.01-0.16-0.04c-0.02-0.01-0.04-0.04-0.07-0.06c-0.05-0.04-0.11-0.04-0.16-0.09c-0.05-0.06-0.1-0.11-0.15-0.18
			c-0.05-0.05-0.1-0.07-0.15-0.1c-0.04-0.02-0.09-0.1-0.13-0.03c0.13,0.06-0.03,0.16-0.07,0.23c-0.02,0.03-0.04,0.09-0.04,0.13
			c0,0.03,0.03,0.06,0.02,0.09c-0.07-0.03-0.14-0.09-0.14-0.17c0-0.07,0.04-0.14,0.07-0.2c0.03-0.08,0.11-0.23,0.2-0.25
			c-0.01-0.07-0.07-0.11-0.08-0.19c-0.01-0.07,0.04-0.14,0.03-0.22c0-0.03-0.05-0.11-0.08-0.13c-0.06-0.04-0.19-0.01-0.27-0.02
			c-0.07-0.02-0.15-0.05-0.22-0.05c-0.05,0-0.12-0.02-0.18-0.01c-0.09,0-0.13,0.09-0.18,0.17c0-0.11,0.02-0.22,0.1-0.28
			c0.07-0.07,0.18-0.09,0.27-0.08c0.11,0.02,0.24,0.07,0.35,0.12c0.11,0.06,0.21,0.14,0.33,0.18c0.04-0.05-0.09-0.21-0.13-0.25
			c-0.03-0.04-0.06-0.06-0.08-0.1c-0.02-0.03-0.03-0.08-0.06-0.1c-0.13-0.14-0.36,0.08-0.51,0.06c0.07-0.08,0.15-0.15,0.25-0.21
			c0.11-0.06,0.19,0.01,0.3,0.04c0.12,0.04,0.28,0.08,0.33,0.22c0.03,0.09,0.03,0.22,0.1,0.28c0.05-0.08,0.13-0.26,0.08-0.36
			c-0.04-0.08-0.14-0.08-0.2-0.09c0.02-0.06,0.08-0.06,0.14-0.06c0.05,0,0.16,0.01,0.2,0.05c0.04,0.05,0.04,0.17,0.05,0.23
			c0,0.04,0,0.07,0,0.11c0,0.03-0.02,0.03,0,0.05c0.03-0.04,0.07-0.06,0.1-0.1c0.03-0.04,0.06-0.08,0.11-0.11
			c0.02-0.12,0.06-0.22,0.12-0.31c0.08-0.12,0.14-0.24,0.2-0.37c0.06-0.12,0.14-0.23,0.21-0.34c0.07-0.1,0.15-0.12,0.26-0.15
			c0.14-0.03,0.26-0.1,0.39-0.15c0.13-0.05,0.26-0.05,0.38-0.11c0.06-0.02,0.3-0.13,0.26,0.03c-0.02,0.1-0.14,0.15-0.2,0.23
			c-0.07,0.1-0.14,0.22-0.18,0.33c-0.04,0.1-0.04,0.23-0.04,0.34c0.03-0.07,0.04-0.15,0.08-0.23c0.06-0.11,0.11-0.21,0.21-0.29
			c0.07-0.06,0.12-0.06,0.16-0.14c0.05-0.09,0.1-0.18,0.13-0.27c0.03-0.11,0.06-0.17,0.16-0.25c0.06-0.06,0.12-0.11,0.16-0.19
			c0.03-0.05,0.05-0.12,0.08-0.18c0.02-0.05,0.07-0.08,0.09-0.12c0.03-0.04,0.04-0.09,0.07-0.13c0.08-0.12,0.16-0.25,0.25-0.35
			c0.12-0.13,0.31-0.21,0.45-0.32c0.14-0.12,0.23-0.26,0.38-0.37c0.07-0.05,0.13-0.1,0.21-0.15c0.1-0.07,0.21-0.12,0.32-0.18
			c0.15-0.07,0.31-0.12,0.47-0.17c0.12-0.04,0.21-0.1,0.33-0.15c0.07-0.03,0.19-0.05,0.22-0.12c0.07-0.12-0.12-0.3,0-0.42
			c0.11,0.07,0.21,0.2,0.27,0.31c0.04,0.06,0.05,0.13,0.08,0.18c0.03,0.05,0.05,0.08,0.06,0.12c-0.07-0.24-0.23-0.5-0.14-0.76
			c0.01,0.05,0.04,0.07,0.06,0.11c0.04,0.06,0.07,0.13,0.11,0.2c0.04,0.06,0.08,0.12,0.12,0.18c0.02,0.03,0.03,0.09,0.07,0.11
			c-0.04-0.12-0.11-0.22-0.15-0.34c-0.01-0.07-0.04-0.15-0.03-0.23c0.06,0.1,0.12,0.19,0.18,0.29c0.05,0.07,0.1,0.17,0.17,0.24
			c-0.04-0.1-0.07-0.21-0.09-0.32c-0.03-0.11-0.08-0.26-0.01-0.36c0.04,0.1,0.12,0.21,0.19,0.28c0.05,0.05,0.12,0.17,0.19,0.19
			c0.02-0.18-0.08-0.36-0.09-0.52c0.1,0.14,0.2,0.26,0.33,0.36c-0.03-0.16-0.21-0.28-0.25-0.44c0.07,0.11,0.2,0.17,0.27,0.25
			c0.16,0.03,0.18-0.2,0.19-0.33c0.1,0.05,0.18,0.18,0.28,0.24c0.02-0.12-0.11-0.18-0.12-0.28c0.04,0.01,0.06,0.06,0.07,0.08
			c0.19,0.07-0.01-0.27-0.01-0.27c0.1,0.02,0.13,0.13,0.21,0.19c0.1-0.11-0.13-0.3-0.18-0.38c0.08-0.03,0.26,0.07,0.33,0.1
			c0.07,0.04,0.14,0.14,0.22,0.16c0-0.11-0.23-0.21-0.3-0.25c-0.06-0.02-0.18-0.06-0.21-0.11c0.03,0,0.06,0.02,0.09,0.04
			c0.09,0.05,0.21,0.02,0.3,0.07c0.04,0.03,0.1,0.05,0.15,0.07c0.04-0.12-0.16-0.23-0.21-0.33c0.06,0.1,0.18,0.14,0.25,0.23
			c0.04,0.04,0.07,0.14,0.11,0.16c0.01-0.11-0.13-0.25-0.19-0.32c-0.11-0.12-0.26-0.21-0.38-0.32c0.13,0.04,0.3,0.12,0.41,0.2
			c0.09,0.08,0.17,0.18,0.27,0.25c0.02-0.11-0.09-0.27-0.15-0.34c-0.05-0.06-0.13-0.11-0.19-0.14c0.07-0.05,0.25,0.05,0.31,0.08
			c0.09,0.05,0.09,0.04,0.17,0.13c-0.03-0.14-0.05-0.18-0.1-0.3c0.01,0.06,0.08,0.12,0.11,0.18c0.03,0.05,0.05,0.09,0.06,0.15
			c0.05-0.08,0.06-0.2,0.08-0.29c0,0.03,0,0.06,0.01,0.09c0.02-0.06,0.05-0.11,0.07-0.16c0,0.04-0.01,0.08-0.01,0.12
			c0.01,0,0.02,0,0.03-0.02c0.04,0.15,0.13,0.28,0.24,0.36c0.07-0.07,0.03-0.17,0.07-0.25c0.01,0.05,0.02,0.15,0.04,0.19
			c0.05-0.05,0.1-0.13,0.14-0.18c0.01,0.08,0.05,0.26,0.1,0.31c0.07-0.05,0.05-0.17,0.12-0.21c0.04,0.09,0.04,0.16,0.09,0.25
			c0.03-0.1,0.13-0.08,0.18-0.01c0.02-0.02,0.04-0.05,0.06-0.07c0.04,0.05,0.02,0.13,0.08,0.17L122.32,91z"/>
	</g>
</g>
</svg>
