<?xml version="1.0" encoding="utf-8"?>
<!-- Generator: Adobe Illustrator 28.0.0, SVG Export Plug-In . SVG Version: 6.00 Build 0)  -->
<svg version="1.1" id="Layer_1" xmlns="http://www.w3.org/2000/svg" xmlns:xlink="http://www.w3.org/1999/xlink" x="0px" y="0px"
	 viewBox="0 0 198.43 198.43" style="enable-background:new 0 0 198.43 198.43;" xml:space="preserve">
<style type="text/css">
	.st0{fill-rule:evenodd;clip-rule:evenodd;fill:#FFFFFF;}
	.st1{fill:none;stroke:#1B1918;stroke-width:0.083;}
	.st2{fill-rule:evenodd;clip-rule:evenodd;fill:#D03B29;}
</style>
<g>
	<g>
		<path class="st0" d="M99.21,48.76c41.39,0,74.95,22.59,74.95,50.46c0,27.86-33.56,50.46-74.95,50.46s-74.95-22.6-74.95-50.46
			C24.26,71.35,57.83,48.76,99.21,48.76"/>
		<ellipse class="st1" cx="99.21" cy="99.21" rx="74.95" ry="50.46"/>
		<path class="st2" d="M116.98,100.67c2.05-1.78,4.65-4.61,6.5-7.76c1.21-2.08,2.25-4.77,2.29-7.24c0.02-1.23-0.21-2.41-0.78-3.43
			c-0.58-1.02-1.5-1.88-2.88-2.47c-2.63-1.13-6.15-0.09-9.47,1.68c-3.31,1.77-6.42,4.27-8.23,6.06c-2.68,2.65-5.29,5.56-7.41,8.76
			c-2.12,3.2-3.66,7.08-4.41,10.86c-1.46,0.95-3.91,2.22-6.34,2.77c-2.43,0.55-4.82,0.39-6.15-1.54c2.04-1.74,4.01-3.51,5.91-5.32
			c3.75-3.55,7.31-7.3,10.64-11.25c1.64-1.95,3.21-3.93,4.71-5.94c4.21-5.67,7.94-11.7,10.99-17.92c0.54-1.11,1.04-2.22,1.48-3.33
			c0.44-1.11,0.81-2.23,1.11-3.34c0.91-3.48,1-5.71,0.52-7.04c-0.25-0.68-0.68-1.08-1.18-1.4c-1.63-1.06-4.07-0.57-6.89,0.86
			c-2.82,1.43-6.03,3.8-9.19,6.5c-3.16,2.7-6.27,5.74-8.9,8.5c-2.49,2.62-4.84,5.32-6.99,8.13c-2.16,2.81-4.13,5.72-5.88,8.75
			c-1.75,3.03-3.28,6.19-4.54,9.49c-1.27,3.3-2.27,6.74-2.98,10.34c-0.73,0.48-1.63,0.98-2.57,1.35c-0.94,0.37-1.91,0.63-2.79,0.64
			c-0.87,0.01-1.65-0.23-2.18-0.84c-0.53-0.61-0.83-1.6-0.74-3.09c0.09-1.54,0.61-2.98,1.13-4.41c3.02-7.18,6.18-11.49,10.42-17.67
			c0.14-0.19,0.27-0.44,0.27-0.64c0.01-0.2-0.11-0.35-0.47-0.35c-2.88,0-5.76-0.02-8.64-0.04c-0.28,0-0.55,0.12-0.77,0.31
			c-0.22,0.19-0.4,0.43-0.5,0.68c-1.09,1.96-2.25,4.08-3.42,6.21c-1.18,2.12-2.38,4.24-3.56,6.2c-1.42,2.36-2.79,4.5-4.4,6.4
			c-0.76,0.89-2.05,2.3-3.5,3.46c-1.22,0.98-2.73,1.81-4.1,1.9c-1.37,0.09-2.59-0.58-3.22-2.61c-0.54-1.75-0.44-3.78,0.09-5.9
			c0.53-2.12,1.48-4.35,2.64-6.49c1.16-2.14,2.54-4.2,3.91-6c3.25-4.27,7.92-8.51,12.59-11.16c5.14-2.92,10.27-5.06,15.57-6.64
			c1.32-0.39,2.66-0.75,4.01-1.08c1.35-0.33,2.71-0.62,4.09-0.88c1.38-0.26,2.77-0.5,4.19-0.71c1.13-0.17,2.26-0.34,3.42-0.45
			l1.02-0.09c3.38-3.61,6.76-6.62,11.02-9.42c-2.76-0.03-5.2-0.1-7.96,0.03c-1.18,0.05-2.37,0.13-3.55,0.22
			c-1.19,0.09-2.37,0.21-3.55,0.35c-4.73,0.55-9.41,1.47-13.88,2.81c-6.93,2.08-13.75,5.05-19.95,8.96
			c-6.2,3.91-11.77,8.74-16.2,14.56c-1.69,2.22-3.17,4.65-4.39,7.22c-1.21,2.56-2.16,5.25-2.77,7.97c-0.4,1.79-0.64,4.03-0.61,6.39
			c0.03,2.36,0.33,4.84,1,7.11c0.67,2.27,1.71,4.32,3.22,5.82c1.51,1.5,3.49,2.46,6.05,2.53c1.77,0.05,3.59-0.35,5.32-1.01
			c1.1-0.42,2.26-0.98,3.49-1.69c1.22-0.71,2.51-1.57,3.86-2.6c0.3,1.71,0.87,3.2,1.72,4.36c0.85,1.16,1.99,1.97,3.44,2.31
			c1.45,0.34,3.21,0.21,5.31-0.53c2.1-0.74,4.53-2.09,7.31-4.17c0.7,1.33,1.95,2.54,3.44,3.43c1.49,0.88,3.21,1.43,4.83,1.42
			c2.39-0.02,4.96-0.74,7.45-1.7c2.5-0.96,4.93-2.15,7.06-3.11c0.89,1.28,1.84,2.49,3.3,3.38c1.46,0.89,3.42,1.45,6.32,1.45
			c3.38-0.08,6.41-0.95,9.28-2.28c2.86-1.33,5.56-3.11,8.25-5.01c4.16-2.94,7.44-6.15,10.44-9.61c3-3.46,5.73-7.16,8.79-11.08
			c0.3,1.54,0.59,3.07,0.88,4.61c0.39,2.01,0.65,4.05,0.42,5.99c-0.23,1.94-0.94,3.77-2.52,5.34c-0.36,0.36-0.77,0.69-1.2,0.84
			c-0.43,0.15-0.9,0.13-1.36-0.21c-1.2-0.89-2.56-1.68-3.95-1.88c-1.39-0.2-2.83,0.18-4.19,1.61c-0.95,1.12-1.45,2.49-1.49,3.87
			c-0.06,1.77,0.7,3.4,1.88,4.69c0.97,1.07,2.05,1.85,3.23,2.36c1.18,0.51,2.46,0.76,3.86,0.76c1.78,0.01,3.6-0.52,5.27-1.38
			c1.66-0.86,3.17-2.04,4.33-3.35c1.58-1.79,2.73-3.98,3.47-6.37c0.4-1.29,0.66-2.63,0.76-3.99c0.1-1.35,0.05-2.72-0.18-4.07
			c-0.42-2.51-1-5.01-1.49-7.51c-0.25-1.25-0.47-2.5-0.65-3.75c-0.15-1.03-0.3-2.06-0.33-3.08c-0.03-1.02,0.06-2.03,0.39-3.04
			c0.26-0.78,0.59-1.53,0.88-2.25c0.11-0.26,0.12-0.49,0.02-0.65c-0.1-0.16-0.3-0.26-0.6-0.25c-2.33,0.04-4.66,0.08-6.99,0.12
			c-0.26,0-0.47,0.11-0.65,0.27c-0.17,0.16-0.31,0.37-0.41,0.58c-2.26,4.43-4.83,8.71-7.81,12.7c-1.6,2.14-3.4,4.24-5.34,6.2
			c-1.43,1.45-2.95,2.84-4.56,4.13c-2.39,1.92-4.99,3.64-7.81,4.85c-2.05,0.88-4.41,1.62-6.67,1.5c-1.08-0.05-2.08-0.32-2.93-0.87
			c1.32-0.72,4.05-2.36,6.74-4.09C113.12,103.52,115.78,101.71,116.98,100.67 M118.92,64.49c2.95,0.55,5.99,1.27,9.02,2.18
			c3.56,1.07,7.11,2.4,10.49,4.03c1.69,0.81,3.35,1.7,4.94,2.67c1.59,0.97,3.12,2.01,4.58,3.14c4.1,3.17,7.68,7.12,9.89,11.64
			c1.84,3.77,2.51,7.41,2.29,10.87c-0.22,3.46-1.33,6.74-3.04,9.79c-1.71,3.05-4.03,5.86-6.67,8.39
			c-4.64,4.45-10.21,8.09-16.34,10.92c-6.12,2.84-12.8,4.88-19.65,6.14c-1.71,0.31-3.44,0.58-5.17,0.8
			c-1.73,0.22-3.46,0.39-5.2,0.51c-1.73,0.12-3.47,0.2-5.2,0.22c-1.73,0.03-3.45,0-5.16-0.06c-3.94-0.16-7.82-0.59-11.63-1.29
			c-3.81-0.7-7.55-1.68-11.19-2.92c-3.64-1.24-7.2-2.75-10.64-4.53c-3.02-1.56-5.95-3.32-8.79-5.28c-0.87-0.61-1.69-1.24-2.52-1.9
			c-0.73,0.35-1.46,0.66-2.22,0.92c-1.66,0.58-3.37,0.91-5.12,1.09c-0.41,0.04-0.89,0.09-1.38,0.13c-0.49,0.04-0.98,0.07-1.39,0.09
			c1.81,2.23,4.46,4.49,7.61,6.67c3.15,2.18,6.81,4.28,10.65,6.17c3.84,1.9,7.85,3.59,11.72,4.97c3.87,1.37,7.59,2.43,10.83,3.04
			c5.07,0.96,10.32,1.5,15.67,1.58c4.88,0.07,9.76-0.09,14.64-0.59c4.88-0.51,9.76-1.37,14.63-2.71c6.57-1.81,12.83-4.59,18.67-8.09
			c4.38-2.62,8.53-5.62,12.33-9.02c1.8-1.62,3.52-3.36,5.11-5.19c1.64-1.89,2.95-4.03,4.13-6.23c0.88-1.64,1.61-3.28,2.18-4.91
			c1.39-3.98,1.92-8.23,1.67-12.43c-0.19-3.11-1.01-6.19-2.17-9.08c-1.25-3.1-2.88-6.03-4.95-8.67c-1.61-2.06-3.43-3.96-5.35-5.72
			c-1.1-1.01-2.31-1.89-3.52-2.77c-5.14-3.76-10.48-6.54-16.07-8.67c-2.73-1.04-5.52-1.95-8.38-2.73
			c-3.35-0.92-6.73-1.69-10.14-2.25c-0.23,3.01-0.71,5.82-1.75,8.61C117.21,64.18,118.06,64.33,118.92,64.49 M95.56,80.84
			c-1.86,2.35-3.82,4.66-5.77,6.83c-1.95,2.17-3.89,4.21-5.71,6.03c-1.82,1.82-3.51,3.43-4.97,4.73c1.29-3.87,2.87-7.33,4.68-10.62
			c1.81-3.28,3.85-6.38,6.05-9.5c2.08-2.94,4.49-5.62,6.91-8c4.41-4.35,7.33-6.47,8.19-6.01C107.07,65.44,97.27,78.68,95.56,80.84
			 M101.28,102.73c0.66-2.25,1.58-4.14,2.77-5.84c1.19-1.69,2.65-3.19,4.41-4.66c0.67-0.56,1.37-1.1,2.07-1.61
			c0.33-0.24,1.99-1.43,3.58-2.16c1.35-0.62,2.17-0.76,2.61-0.6c0.45,0.16,0.52,0.63,0.37,1.23c-0.38,1.27-1.32,2.62-2.56,3.97
			c-2.65,2.87-6.04,5.24-9.32,7.32C103.66,101.38,102.27,102.18,101.28,102.73"/>
	</g>
</g>
</svg>
