<?xml version="1.0" encoding="utf-8"?>
<!-- Generator: Adobe Illustrator 28.0.0, SVG Export Plug-In . SVG Version: 6.00 Build 0)  -->
<svg version="1.1" id="Layer_1" xmlns="http://www.w3.org/2000/svg" xmlns:xlink="http://www.w3.org/1999/xlink" x="0px" y="0px"
	 viewBox="0 0 198.43 198.43" style="enable-background:new 0 0 198.43 198.43;" xml:space="preserve">
<style type="text/css">
	
		.st0{clip-path:url(#SVGID_00000106146042509806531630000017809195535887601840_);fill:url(#SVGID_00000156570778978930066280000018376852612719196601_);}
	.st1{clip-path:url(#SVGID_00000162310233097218784230000006834711692943369640_);fill:#FFFFFF;}
	.st2{clip-path:url(#SVGID_00000162310233097218784230000006834711692943369640_);fill:#EFF9FE;}
	.st3{clip-path:url(#SVGID_00000162310233097218784230000006834711692943369640_);fill:#00C0F3;}
	.st4{clip-path:url(#SVGID_00000162310233097218784230000006834711692943369640_);fill:#F8C1D9;}
	.st5{clip-path:url(#SVGID_00000162310233097218784230000006834711692943369640_);fill:#F173AC;}
	.st6{clip-path:url(#SVGID_00000162310233097218784230000006834711692943369640_);fill:#B9E5FA;}
</style>
<g>
	<defs>
		<rect id="SVGID_1_" x="14.17" y="69.93" width="170.08" height="58.57"/>
	</defs>
	<clipPath id="SVGID_00000151507306969561349940000005346937229941499524_">
		<use xlink:href="#SVGID_1_"  style="overflow:visible;"/>
	</clipPath>
	
		<linearGradient id="SVGID_00000135656515170593406880000002087763247872407217_" gradientUnits="userSpaceOnUse" x1="-155.963" y1="187.1846" x2="-155.6301" y2="187.1846" gradientTransform="matrix(-2.9533 162.4368 162.4368 2.9533 -30766.6738 24859.2617)">
		<stop  offset="0" style="stop-color:#CFEAE6"/>
		<stop  offset="0.3501" style="stop-color:#CDE9E6"/>
		<stop  offset="0.4867" style="stop-color:#C6E8E4"/>
		<stop  offset="0.586" style="stop-color:#BAE4E1"/>
		<stop  offset="0.6673" style="stop-color:#A9E0DD"/>
		<stop  offset="0.7376" style="stop-color:#92DAD7"/>
		<stop  offset="0.8001" style="stop-color:#76D2D0"/>
		<stop  offset="0.857" style="stop-color:#55CAC8"/>
		<stop  offset="0.9092" style="stop-color:#2FC0BF"/>
		<stop  offset="0.9563" style="stop-color:#05B4B4"/>
		<stop  offset="0.9615" style="stop-color:#00B3B3"/>
		<stop  offset="1" style="stop-color:#00B3B3"/>
	</linearGradient>
	
		<polygon style="clip-path:url(#SVGID_00000151507306969561349940000005346937229941499524_);fill:url(#SVGID_00000135656515170593406880000002087763247872407217_);" points="
		185.32,69.94 184.2,131.59 13.11,128.48 14.23,66.83 	"/>
</g>
<g>
	<defs>
		<rect id="SVGID_00000068647689421306947120000009071161027710309049_" x="14.17" y="69.93" width="170.08" height="58.57"/>
	</defs>
	<clipPath id="SVGID_00000178188542131093069950000011359131085321083573_">
		<use xlink:href="#SVGID_00000068647689421306947120000009071161027710309049_"  style="overflow:visible;"/>
	</clipPath>
	<path style="clip-path:url(#SVGID_00000178188542131093069950000011359131085321083573_);fill:#FFFFFF;" d="M31.26,88l5,22.89
		l6.92,0.58c0,0,58.86-9.43,116.37,0.19l3.66-2.69l4.62-20.58l-4.43-3.66C163.41,84.73,74.93,71.46,31.26,88"/>
	<path style="clip-path:url(#SVGID_00000178188542131093069950000011359131085321083573_);fill:#EFF9FE;" d="M157.6,92.31
		c-0.34-0.46-0.84-0.76-1.4-0.86c-0.36-0.05-0.71-0.11-1.07-0.17c-0.11-0.01-0.23-0.02-0.34-0.02c-1.12-0.07-2.07,0.68-2.24,1.79
		c0,0-1.05,6.85-1.05,6.85c-0.01,0.04-0.02,0.09-0.02,0.13c-0.02,0-0.03-0.01-0.05-0.01c-0.62-0.09-1.24-0.18-1.86-0.27
		c0.32-2.3,0.65-4.6,0.97-6.9c0.09-0.6-0.07-1.21-0.44-1.69c-0.34-0.45-0.85-0.74-1.41-0.82l-1.07-0.15
		c-0.11-0.01-0.23-0.01-0.34-0.01c-0.4-0.02-0.77,0.07-1.1,0.24c-0.33-0.31-0.74-0.51-1.2-0.57c0,0-6.12-0.73-6.12-0.73
		c-0.12-0.01-0.23-0.01-0.34-0.01c-1.04-0.01-1.9,0.66-2.12,1.63c-0.72-0.79-1.62-1.41-2.68-1.8c-1.61-0.59-3.36-0.7-4.9-0.8
		c-0.34-0.02-0.67-0.05-1.01-0.07c-0.63-0.05-1.25,0.14-1.71,0.53c-0.43,0.36-0.69,0.87-0.73,1.42l-0.79,10.17c0,0.11,0,0.23,0,0.34
		c0.03,1.09,0.85,1.97,1.97,2.06l1.3,0.12c0.85,0.08,1.72,0.16,2.61,0.2c1.24,0.06,3.08,0.01,4.78-1.13
		c0.02-0.01,0.03-0.03,0.05-0.04c0.14,0.97,0.9,1.75,1.88,1.86c0,0,5.83,0.69,5.83,0.69c0.5,0.06,0.99-0.04,1.39-0.26
		c0.32,0.31,0.73,0.53,1.2,0.59c0,0,4.97,0.7,4.97,0.71c0.43,0.07,0.85,0.01,1.22-0.14c0.28,0.25,0.64,0.42,1.03,0.48l1.03,0.16
		c1.22,0.19,2.37-0.59,2.56-1.76c0.05-0.35,0.11-0.69,0.17-1.04c0.48-3.01,0.97-6.02,1.46-9.03
		C158.1,93.41,157.95,92.79,157.6,92.31 M132.67,96.19c-0.12,0.79-0.67,1.27-1.52,1.31c-0.31,0.02-0.62,0.01-0.94-0.01
		c0.09-1.06,0.18-2.13,0.27-3.2c0.02-0.19,0.03-0.38,0.05-0.57c0.38,0.06,0.75,0.14,1.09,0.26
		C132.82,94.39,132.76,95.67,132.67,96.19"/>
	<path style="clip-path:url(#SVGID_00000178188542131093069950000011359131085321083573_);fill:#00C0F3;" d="M159.18,103.46
		c-0.01,0.16-0.05,0.3-0.14,0.43c-0.08,0.13-0.19,0.23-0.33,0.31c-0.14,0.07-0.28,0.1-0.44,0.09c-0.15,0-0.3-0.05-0.43-0.13
		c-0.13-0.08-0.24-0.19-0.31-0.33c-0.07-0.13-0.1-0.28-0.1-0.43c0-0.15,0.05-0.29,0.13-0.43c0.08-0.13,0.19-0.23,0.33-0.3
		c0.14-0.07,0.29-0.11,0.44-0.1c0.15,0,0.3,0.05,0.43,0.13c0.13,0.08,0.23,0.19,0.31,0.33
		C159.15,103.16,159.18,103.31,159.18,103.46 M159.06,103.46c0.01-0.13-0.02-0.26-0.09-0.37c-0.06-0.12-0.15-0.21-0.26-0.28
		c-0.11-0.07-0.24-0.11-0.37-0.12c-0.13-0.01-0.26,0.02-0.38,0.09c-0.12,0.06-0.21,0.15-0.29,0.26c-0.07,0.11-0.11,0.23-0.12,0.37
		c0,0.13,0.02,0.26,0.09,0.37c0.06,0.12,0.15,0.21,0.27,0.28c0.11,0.07,0.24,0.11,0.37,0.11c0.14,0.01,0.26-0.02,0.38-0.08
		c0.12-0.06,0.21-0.15,0.29-0.26C159.01,103.71,159.05,103.59,159.06,103.46 M157.96,102.91c0.14,0.01,0.28,0.01,0.42,0.02
		c0.1,0,0.17,0.01,0.21,0.04c0.04,0.03,0.08,0.05,0.1,0.1c0.02,0.04,0.04,0.09,0.03,0.15c0,0.05-0.01,0.09-0.03,0.13
		c-0.01,0.02-0.05,0.05-0.1,0.08c0.04,0.03,0.07,0.05,0.09,0.08c0.01,0.03,0.02,0.08,0.01,0.14c0,0.04,0,0.08,0,0.11
		c0,0.05,0.01,0.09,0.03,0.13c0.01,0,0.01,0.02,0.02,0.02c-0.06,0-0.12,0-0.18,0c0-0.04-0.01-0.09-0.01-0.15c0-0.04,0-0.08,0-0.12
		c0-0.04,0-0.08-0.02-0.09c-0.01-0.02-0.03-0.03-0.05-0.04c-0.02-0.01-0.06-0.01-0.12-0.02c-0.08,0-0.16,0-0.25,0
		c-0.01,0.13-0.01,0.27-0.02,0.4c-0.05,0-0.11,0-0.16-0.01C157.94,103.57,157.95,103.24,157.96,102.91 M158.13,103.06
		c-0.01,0.09-0.01,0.19-0.01,0.29c0.08,0,0.16,0.01,0.24,0.01c0.07,0,0.12,0,0.15-0.02c0.04-0.02,0.06-0.06,0.06-0.12
		c0-0.05-0.01-0.09-0.04-0.11c-0.02-0.03-0.07-0.04-0.15-0.04C158.29,103.07,158.21,103.06,158.13,103.06"/>
	<path style="clip-path:url(#SVGID_00000178188542131093069950000011359131085321083573_);fill:#F8C1D9;" d="M169.72,88.73
		c-0.66-2.98-3.64-5.55-7.08-6.1c-0.17-0.03-0.33-0.05-0.5-0.08c-0.08-0.01-0.17-0.02-0.25-0.04c-1.53-0.23-3.07-0.47-4.6-0.7
		c-6.32-0.92-12.75-1.7-19.11-2.31c-9.08-0.88-18.32-1.46-27.46-1.72c-9.88-0.28-19.9-0.2-29.77,0.25
		c-8.64,0.39-17.38,1.07-25.97,2.01c-5.39,0.59-10.83,1.31-16.17,2.11c-0.87,0.13-1.74,0.26-2.61,0.4
		c-3.58,0.56-6.34,2.78-7.39,5.92c-0.52,1.54-0.22,3.01,0.06,4.43c0.01,0.08,0.03,0.16,0.05,0.25c0.34,1.71,0.67,3.42,1.01,5.14
		c0.42,2.13,0.83,4.26,1.25,6.38c0.08,0.41,0.16,0.82,0.24,1.23c0.11,0.57,0.22,1.14,0.33,1.71c0.74,3.76,4.05,6.47,8.06,6.63
		c0.89,0.04,1.76-0.11,2.6-0.25c0.2-0.03,0.4-0.07,0.61-0.1c1.8-0.27,3.61-0.53,5.42-0.79c6.34-0.88,12.8-1.6,19.19-2.15
		c8.57-0.73,17.27-1.17,25.87-1.31c8.97-0.14,18.06,0.05,27.01,0.57c7.51,0.43,15.09,1.1,22.55,1.99c4.2,0.5,8.47,1.08,12.67,1.73
		c0.37,0.06,0.74,0.12,1.11,0.18c4.6,0.72,8.89-1.97,9.8-6.15v-0.01v0l1.73-8.88c0.36-1.84,0.73-3.68,1.09-5.51
		c0.01-0.06,0.02-0.11,0.03-0.16C169.8,91.86,170.09,90.39,169.72,88.73 M161.89,108.13c-0.05-0.03-0.11-0.06-0.15-0.1
		c0.06,0.01,0.11,0.04,0.16,0.07C161.9,108.12,161.9,108.13,161.89,108.13 M161.18,108.71c0.06,0.02,0.11,0.06,0.16,0.11
		c-0.01,0.01-0.02,0.02-0.03,0.03C161.25,108.81,161.21,108.76,161.18,108.71 M159.45,109.7c0.03,0.04,0.06,0.1,0.07,0.15
		c-0.01,0-0.03,0.01-0.04,0.01C159.46,109.81,159.45,109.76,159.45,109.7 M36.1,87.05c3.15-0.5,6.34-0.97,9.49-1.39
		c7.27-0.98,14.69-1.77,22.02-2.34c9.49-0.75,19.13-1.16,28.66-1.23c9.71-0.07,19.54,0.21,29.22,0.85
		c7.89,0.51,15.87,1.27,23.7,2.25c4.08,0.51,8.21,1.09,12.29,1.73c0.09,0.01,0.19,0.03,0.28,0.04c0.11,0.02,0.22,0.03,0.33,0.05
		c0.21,0.03,0.45,0.09,0.73,0.16c0.01,0,0.02,0.01,0.03,0.01c0.08,0.03,0.18,0.06,0.28,0.09c0.13,0.05,0.27,0.12,0.41,0.19
		c0.12,0.06,0.24,0.13,0.36,0.2c0.08,0.07,0.16,0.12,0.23,0.18c0.01,0.01,0.02,0.01,0.03,0.02c0.12,0.1,0.24,0.21,0.36,0.33
		c-0.01-0.01-0.02-0.01-0.02-0.02c0.03,0.03,0.06,0.07,0.1,0.09c0.05,0.06,0.1,0.12,0.15,0.18c0.1,0.13,0.18,0.26,0.27,0.4
		c0.01,0.02,0.02,0.04,0.03,0.06c0.03,0.05,0.06,0.12,0.1,0.18c0.09,0.2,0.16,0.43,0.23,0.71c0.01,0.08,0.02,0.15,0.03,0.21
		c0,0.02,0.01,0.06,0.01,0.07c0.02,0.14,0.01,0.29,0.01,0.45c-0.01,0.02-0.01,0.04-0.01,0.05c-0.01,0.07-0.02,0.15-0.02,0.24
		c-0.09,0.45-0.57,3.08-0.57,3.08c-0.39,2.1-0.78,4.2-1.17,6.29c-0.26,1.44-0.53,2.89-0.79,4.33c-0.14,0.76-0.28,1.53-0.42,2.29
		c-0.06,0.3-0.14,0.58-0.24,0.85c-0.05,0.09-0.09,0.18-0.13,0.26c0,0,0,0.01-0.01,0.01c-0.07,0.13-0.16,0.26-0.26,0.39
		c-0.01,0.03-0.03,0.04-0.04,0.07c-0.03,0.02-0.05,0.04-0.07,0.07c-0.1,0.11-0.22,0.22-0.34,0.32c0,0.01-0.01,0.01-0.02,0.02
		c-0.06,0.05-0.13,0.1-0.19,0.17c-0.15,0.1-0.31,0.2-0.47,0.28c-0.1,0.06-0.21,0.11-0.32,0.16c-0.1,0.03-0.19,0.06-0.27,0.09
		c-0.02,0-0.04,0.01-0.04,0.02c-0.13,0.04-0.29,0.07-0.45,0.11c-0.04,0-0.07,0.02-0.11,0.02c-0.03,0-0.05,0-0.07,0
		c-0.27,0.03-0.56,0.03-0.94,0c-0.07-0.01-0.17-0.03-0.17-0.03c-0.15-0.02-0.29-0.04-0.44-0.07c-1.41-0.22-2.82-0.43-4.23-0.64
		c-5.87-0.86-11.85-1.58-17.76-2.16c-8.48-0.83-17.1-1.37-25.63-1.62c-9.24-0.27-18.62-0.2-27.85,0.22
		c-8.1,0.36-16.29,0.99-24.34,1.87c-5.06,0.55-10.2,1.22-15.24,1.98c-0.84,0.13-1.68,0.26-2.52,0.39c-0.05,0.01-0.1,0.01-0.16,0.03
		c-0.02,0-0.04,0-0.06,0c-0.16,0.02-0.34,0.03-0.51,0.04h-0.02c-0.09,0-0.19,0-0.28,0c-0.14-0.02-0.28-0.03-0.42-0.05
		c-0.01,0-0.09-0.02-0.15-0.04c-0.09-0.02-0.18-0.04-0.28-0.05c-0.22-0.08-0.45-0.18-0.73-0.32c-0.07-0.05-0.14-0.09-0.2-0.12
		c-0.02-0.01-0.03-0.02-0.05-0.03c-0.12-0.08-0.24-0.18-0.36-0.28c-0.02-0.02-0.03-0.03-0.05-0.04c-0.04-0.04-0.09-0.09-0.15-0.14
		c-0.08-0.09-0.17-0.2-0.25-0.31c-0.07-0.09-0.14-0.19-0.2-0.29c-0.04-0.09-0.09-0.19-0.13-0.27c-0.03-0.05-0.06-0.12-0.07-0.14
		c-0.06-0.13-0.1-0.29-0.16-0.45c0-0.01-0.01-0.02-0.01-0.03c0-0.01,0-0.03-0.01-0.05l-0.04-0.23c-0.02-0.08-0.03-0.15-0.04-0.23
		l-0.34-1.85c-0.29-1.57-0.58-3.13-0.87-4.69c-0.43-2.34-0.86-4.69-1.3-7.03c-0.1-0.55-0.21-1.11-0.31-1.67
		c-0.01-0.04-0.02-0.09-0.03-0.13c-0.01-0.06-0.02-0.12-0.04-0.18c-0.02-0.12-0.04-0.24-0.05-0.36c-0.02-0.15-0.02-0.32-0.02-0.48
		v0.02c0-0.02,0-0.05,0-0.07c0.01-0.1,0.02-0.19,0.04-0.28c0.17-1.03,0.76-1.81,1.87-2.44c0.03-0.02,0.05-0.03,0.08-0.04
		c0.03-0.02,0.06-0.03,0.09-0.04c0.16-0.07,0.34-0.13,0.52-0.19c0.02,0,0.13-0.03,0.2-0.05C35.91,87.1,36.01,87.08,36.1,87.05"/>
	<path style="clip-path:url(#SVGID_00000178188542131093069950000011359131085321083573_);fill:#F173AC;" d="M37.04,108.43
		c-0.03-0.03-0.05-0.06-0.08-0.09C36.95,108.34,36.97,108.36,37.04,108.43"/>
	<path style="clip-path:url(#SVGID_00000178188542131093069950000011359131085321083573_);fill:#F173AC;" d="M38.76,109.45
		c0.01,0,0.03,0.01,0.07,0.02C38.81,109.46,38.78,109.46,38.76,109.45"/>
	<path style="clip-path:url(#SVGID_00000178188542131093069950000011359131085321083573_);fill:#F173AC;" d="M37.93,109.09
		c-0.03-0.01-0.05-0.03-0.09-0.04C37.89,109.07,37.91,109.08,37.93,109.09"/>
	<path style="clip-path:url(#SVGID_00000178188542131093069950000011359131085321083573_);fill:#F173AC;" d="M161.08,108.75
		c-0.03,0.02-0.06,0.04-0.09,0.06C160.98,108.82,161.01,108.8,161.08,108.75"/>
	<path style="clip-path:url(#SVGID_00000178188542131093069950000011359131085321083573_);fill:#F173AC;" d="M35.3,86.46
		C35.52,86.32,34.99,86.58,35.3,86.46"/>
	<path style="clip-path:url(#SVGID_00000178188542131093069950000011359131085321083573_);fill:#F173AC;" d="M33,89.68
		c0-0.02,0.01-0.03,0.01-0.05C33.01,89.54,33.01,89.56,33,89.68"/>
	<path style="clip-path:url(#SVGID_00000178188542131093069950000011359131085321083573_);fill:#F173AC;" d="M160.04,109.33
		c-0.01,0.01-0.04,0.02-0.05,0.03C160.01,109.34,160.03,109.34,160.04,109.33"/>
	<path style="clip-path:url(#SVGID_00000178188542131093069950000011359131085321083573_);fill:#F173AC;" d="M159.09,109.59
		C158.85,109.65,159.4,109.56,159.09,109.59"/>
	<path style="clip-path:url(#SVGID_00000178188542131093069950000011359131085321083573_);fill:#F173AC;" d="M162.73,86.28
		c0.04,0.01,0.07,0.03,0.11,0.04C162.85,86.32,162.82,86.31,162.73,86.28"/>
	<path style="clip-path:url(#SVGID_00000178188542131093069950000011359131085321083573_);fill:#F173AC;" d="M39.82,109.63
		c-0.04,0-0.07-0.01-0.11-0.01C39.7,109.62,39.73,109.62,39.82,109.63"/>
	<path style="clip-path:url(#SVGID_00000178188542131093069950000011359131085321083573_);fill:#F173AC;" d="M157.96,109.6
		L157.96,109.6c-0.01,0-0.02,0-0.02,0c-0.03,0-0.06,0-0.09-0.01C157.9,109.59,157.94,109.6,157.96,109.6"/>
	<path style="clip-path:url(#SVGID_00000178188542131093069950000011359131085321083573_);fill:#F173AC;" d="M161.72,108.12
		C161.58,108.33,161.87,107.95,161.72,108.12"/>
	<path style="clip-path:url(#SVGID_00000178188542131093069950000011359131085321083573_);fill:#F173AC;" d="M164.11,108.55
		c-1.38,2.13-3.97,3.36-6.65,2.93c-38.47-6.1-77.97-6.1-116.45,0c-3.5,0.55-6.87-1.71-7.53-5.12c-1.05-5.51-2.1-11.01-3.17-16.51
		c-0.5-2.52,0.77-5,3.02-6.36c-1.94,0.99-3.35,2.61-4.03,4.61c-0.5,1.49-0.16,2.95,0.12,4.41c0.75,3.84,1.51,7.68,2.26,11.53
		c0.19,0.98,0.38,1.96,0.57,2.94c0.69,3.52,3.76,6.03,7.53,6.18c1.03,0.04,2.08-0.19,3.09-0.35c1.81-0.28,3.62-0.54,5.43-0.8
		c6.4-0.89,12.81-1.6,19.25-2.15c8.63-0.74,17.28-1.18,25.94-1.31c9.03-0.14,18.07,0.05,27.08,0.57c7.56,0.43,15.1,1.1,22.62,2
		c4.25,0.5,8.48,1.09,12.71,1.74c0.37,0.06,0.74,0.12,1.11,0.17c4.12,0.65,8.29-1.73,9.15-5.72
		C165.99,108.15,164.98,108.64,164.11,108.55"/>
	<path style="clip-path:url(#SVGID_00000178188542131093069950000011359131085321083573_);fill:#F173AC;" d="M163.25,106.59
		c-0.18-0.08-0.39-0.24-0.76-0.27c-0.04,0.21-0.1,0.42-0.16,0.62c-0.08,0.26-0.27,0.63-0.27,0.63c-0.09,0.15-0.18,0.3-0.28,0.45
		c-0.03,0.04-0.05,0.07-0.06,0.09c0.16-0.17-0.14,0.22,0,0c-0.02,0.02-0.05,0.05-0.09,0.09c-0.12,0.13-0.24,0.25-0.37,0.37
		c-0.01,0-0.25,0.21-0.26,0.23c0.03-0.02,0.06-0.04,0.09-0.06c-0.08,0.06-0.1,0.07-0.09,0.06c-0.17,0.11-0.34,0.22-0.51,0.31
		c-0.14,0.08-0.29,0.14-0.43,0.21c-0.01,0.01-0.03,0.01-0.05,0.03c0.02-0.01,0.04-0.02,0.05-0.03c0.21-0.09-0.27,0.09-0.29,0.09
		c-0.18,0.05-0.35,0.1-0.53,0.13c-0.06,0.01-0.1,0.02-0.13,0.03c0.31-0.03-0.24,0.06,0,0c-0.03,0-0.06,0-0.1,0.01
		c-0.36,0.04-0.7,0.03-1.06,0c0.01,0,0.01,0,0.02,0h0c0.04,0,0.03,0,0,0c-0.02,0-0.05,0-0.11-0.01c0.03,0,0.06,0,0.09,0.01
		c-0.21-0.03-0.42-0.07-0.63-0.1c-1.4-0.22-2.79-0.43-4.19-0.63c-5.84-0.85-11.71-1.56-17.59-2.14c-8.43-0.82-16.9-1.35-25.37-1.6
		c-9.19-0.27-18.39-0.2-27.58,0.21c-8.05,0.36-16.09,0.97-24.1,1.85c-5.05,0.55-10.08,1.21-15.09,1.96
		c-0.83,0.13-1.66,0.25-2.49,0.39c-0.07,0.01-0.14,0.02-0.22,0.03c-0.19,0.02-0.39,0.04-0.58,0.05c-0.01,0-0.35-0.01-0.38-0.01
		c0.04,0.01,0.07,0.01,0.11,0.01c-0.09,0-0.12-0.01-0.11-0.01c-0.15-0.01-0.29-0.03-0.44-0.06c-0.06-0.01-0.55-0.13-0.5-0.1
		c0.02,0.01,0.05,0.01,0.07,0.02c-0.04-0.01-0.06-0.02-0.07-0.02c-0.29-0.1-0.56-0.23-0.84-0.36c-0.02,0-0.04-0.02-0.09-0.04
		c0.03,0.01,0.06,0.03,0.09,0.04c0.09,0.05-0.27-0.16-0.28-0.18c-0.15-0.1-0.29-0.21-0.42-0.32c-0.01-0.01-0.22-0.22-0.25-0.24
		c0.03,0.03,0.05,0.06,0.08,0.09c-0.07-0.08-0.09-0.09-0.08-0.09c-0.09-0.1-0.18-0.21-0.26-0.32c-0.11-0.14-0.2-0.29-0.3-0.44
		c0.18,0.29-0.14-0.3-0.17-0.37c-0.07-0.17-0.13-0.34-0.18-0.51c-0.11-0.34-0.04-0.15-0.02-0.07c0-0.02-0.01-0.04-0.01-0.07
		c-0.03-0.15-0.06-0.3-0.08-0.45c-0.11-0.61-0.22-1.23-0.34-1.84c-0.71-3.88-1.43-7.76-2.15-11.64c-0.1-0.55-0.21-1.1-0.31-1.65
		c-0.02-0.11-0.04-0.21-0.06-0.31c-0.03-0.13-0.04-0.25-0.06-0.38c-0.02-0.18-0.03-0.36-0.03-0.54c0-0.06,0-0.1,0-0.13
		c0,0.02,0,0.03-0.01,0.05c0.01-0.12,0.01-0.14,0.01-0.05c0.01-0.1,0.03-0.2,0.04-0.3c0.2-1.22,0.91-2.11,2.13-2.81
		c0.06-0.03,0.09-0.05,0.12-0.07c-0.3,0.13,0.22-0.14,0,0c0.03-0.01,0.06-0.02,0.1-0.04c0.19-0.08,0.38-0.14,0.57-0.2
		c0.08-0.03,0.8-0.18,0.47-0.13c0.02-0.01,0.03-0.01,0.05-0.01c3.15-0.5,6.31-0.96,9.47-1.39c7.26-0.98,14.56-1.75,21.87-2.33
		c9.46-0.74,18.96-1.15,28.46-1.22c9.68-0.07,19.36,0.21,29.02,0.84c7.87,0.52,15.71,1.26,23.53,2.24c4.08,0.51,8.14,1.08,12.2,1.71
		c0.2,0.03,0.4,0.07,0.61,0.1c0.27,0.04,0.54,0.1,0.8,0.18c0.01,0,0.36,0.12,0.38,0.13c-0.04-0.02-0.07-0.03-0.11-0.05
		c0.09,0.03,0.11,0.05,0.11,0.05c0.15,0.06,0.29,0.13,0.43,0.2c0.16,0.08,0.3,0.17,0.45,0.25c0.01,0.01,0.03,0.02,0.05,0.03
		c-0.02-0.01-0.04-0.02-0.05-0.03c-0.19-0.11,0.24,0.18,0.25,0.19c0.15,0.12,0.28,0.24,0.42,0.37c0.09,0.1,0.13,0.14,0.13,0.13
		c-0.03-0.03-0.05-0.06-0.07-0.09c0.04,0.06,0.07,0.08,0.07,0.09c0.05,0.07,0.1,0.13,0.15,0.19c0.12,0.14,0.21,0.29,0.31,0.45
		c0.01,0.01,0.15,0.29,0.17,0.31c-0.01-0.03-0.03-0.07-0.04-0.11c0.04,0.09,0.05,0.11,0.04,0.11c0.11,0.26,0.19,0.53,0.26,0.79
		c0.01,0.02,0.01,0.05,0.03,0.1c-0.01-0.04-0.02-0.07-0.03-0.1c-0.03-0.09,0.05,0.31,0.05,0.33c0.02,0.18,0.02,0.36,0.01,0.53
		c0,0.01-0.05,0.42-0.03,0.35c0.01-0.02,0.01-0.05,0.01-0.07c0.01-0.01,0.01-0.02,0.01-0.02c-0.01,0.05-0.01,0.08-0.02,0.09
		c-0.57,3.1-1.15,6.2-1.72,9.31c-0.4,2.19-0.8,4.39-1.21,6.58c0.16,0.34,0.54,0.65,0.98,1.02c0.23-0.36,0.44-1.32,0.6-2.28
		c0.96-5.14,1.93-10.28,2.91-15.42c0.54-2.83-1.56-5.59-4.7-6.08c-41.65-6.62-84.44-6.62-126.09,0c-3.15,0.5-5.25,3.25-4.7,6.08
		c1.05,5.51,2.08,11.02,3.12,16.52c0.54,2.84,3.32,4.73,6.22,4.27c38.6-6.12,78.22-6.12,116.81,0c2.17,0.34,4.27-0.63,5.42-2.33
		C163.66,107.15,163.78,106.81,163.25,106.59"/>
	<path style="clip-path:url(#SVGID_00000178188542131093069950000011359131085321083573_);fill:#F173AC;" d="M169.23,88.27
		c-0.48-2.15-2.29-4.08-4.57-5.06c2.55,1.28,4.03,3.93,3.5,6.63c-1,5.13-1.98,10.27-2.96,15.4c-0.07,0.37-0.14,0.74-0.21,1.11
		c-0.16,0.8-0.47,1.54-0.89,2.19c0.87,0.09,1.88-0.4,2.05-1.25c0.58-2.96,1.15-5.91,1.73-8.87c0.36-1.84,0.72-3.68,1.08-5.51
		C169.27,91.35,169.59,89.88,169.23,88.27"/>
	<path style="clip-path:url(#SVGID_00000178188542131093069950000011359131085321083573_);fill:#F173AC;" d="M165.1,88.31
		c0.02,0.04,0.03,0.07,0.04,0.11C165.15,88.43,165.14,88.4,165.1,88.31"/>
	<path style="clip-path:url(#SVGID_00000178188542131093069950000011359131085321083573_);fill:#F173AC;" d="M163.72,86.78
		c0.01,0.01,0.03,0.02,0.05,0.03C163.75,86.8,163.73,86.79,163.72,86.78"/>
	<path style="clip-path:url(#SVGID_00000178188542131093069950000011359131085321083573_);fill:#F173AC;" d="M164.45,87.38
		c0.02,0.03,0.04,0.06,0.07,0.09C164.52,87.46,164.49,87.44,164.45,87.38"/>
	<path style="clip-path:url(#SVGID_00000178188542131093069950000011359131085321083573_);fill:#F173AC;" d="M165.44,90.36
		c0,0.03,0,0.05-0.01,0.07c0.01-0.01,0.01-0.04,0.02-0.09C165.44,90.34,165.44,90.35,165.44,90.36"/>
	<path style="clip-path:url(#SVGID_00000178188542131093069950000011359131085321083573_);fill:#F173AC;" d="M165.4,89.21
		c0.01,0.03,0.02,0.07,0.03,0.1C165.41,89.27,165.41,89.23,165.4,89.21"/>
	<path style="clip-path:url(#SVGID_00000178188542131093069950000011359131085321083573_);fill:#FFFFFF;" d="M164.66,83.21
		c-0.65-0.28-1.34-0.49-2.04-0.6c-0.25-0.04-0.5-0.08-0.75-0.12c-1.53-0.24-3.07-0.48-4.6-0.7c-6.35-0.92-12.71-1.69-19.1-2.31
		c-9.12-0.89-18.28-1.46-27.45-1.72c-9.92-0.28-19.85-0.2-29.77,0.25c-8.67,0.39-17.33,1.06-25.96,2.01
		c-5.41,0.6-10.79,1.3-16.17,2.11c-0.87,0.13-1.74,0.27-2.6,0.4c-1.06,0.17-2.04,0.48-2.91,0.93c-2.24,1.36-3.51,3.84-3.02,6.36
		c1.06,5.5,2.12,11.01,3.17,16.51c0.66,3.41,4.03,5.68,7.53,5.12c38.48-6.1,77.98-6.1,116.45,0c2.68,0.42,5.28-0.8,6.65-2.93
		c0.42-0.65,0.73-1.39,0.89-2.19c0.07-0.37,0.14-0.74,0.21-1.11c0.98-5.13,1.96-10.27,2.96-15.4
		C168.7,87.14,167.21,84.49,164.66,83.21 M166.98,89.63c-0.98,5.14-1.95,10.28-2.91,15.42c-0.07,0.37-0.14,0.74-0.21,1.1
		c-0.14,0.72-0.42,1.37-0.8,1.94c-1.15,1.7-3.25,2.67-5.42,2.33c-38.59-6.12-78.22-6.12-116.81,0c-2.9,0.46-5.69-1.44-6.22-4.27
		c-1.03-5.51-2.07-11.02-3.12-16.52c-0.55-2.83,1.56-5.58,4.7-6.08c41.65-6.61,84.44-6.61,126.09,0
		C165.42,84.05,167.53,86.8,166.98,89.63"/>
	<path style="clip-path:url(#SVGID_00000178188542131093069950000011359131085321083573_);fill:#B9E5FA;" d="M85.37,100.76
		c0,0,1.04-0.04,1.04-0.03c1.07-0.04,1.94-0.76,2.14-1.71c0.74,0.62,1.6,1.1,2.56,1.41c2.23,0.72,4.61,0.48,6.58-0.56
		c0.4,0.42,0.95,0.67,1.53,0.67c0.38,0,0.77,0,1.15,0c0.9,0.01,1.67-0.46,2.07-1.26c0,0,1.48-2.96,1.48-2.96s0.18-0.34,0.42-0.82
		c0.23,0.49,0.39,0.84,0.39,0.84c0.47,1.01,0.93,2.03,1.39,3.04c0.34,0.76,1.09,1.26,1.91,1.28l1.15,0.04c0.35,0.01,0.69-0.07,1-0.2
		c0.29,0.16,0.62,0.25,0.98,0.26l1.04,0.04c0.61,0.02,1.22-0.19,1.66-0.59c0.41-0.37,0.65-0.88,0.68-1.43c0,0,0.04-0.89,0.09-1.99
		c0.46,0.56,2.11,2.58,2.11,2.58c0.05,0.05,0.11,0.14,0.17,0.22c0.38,0.52,1.08,1.49,2.4,1.57c1.24,0.07,2.3-0.81,2.38-1.97
		c0.21-3.36,0.42-6.72,0.64-10.08c0.04-0.59-0.17-1.19-0.57-1.63c-0.38-0.42-0.9-0.67-1.48-0.7c-0.36-0.02-0.72-0.04-1.08-0.06
		c-1.26-0.07-2.34,0.82-2.4,1.99c0,0-0.05,0.92-0.11,2.06c-0.5-0.6-2.19-2.6-2.19-2.6c-0.05-0.05-0.11-0.13-0.18-0.22
		c-0.41-0.53-1.17-1.53-2.51-1.58c-0.63-0.02-1.24,0.2-1.69,0.6c-0.41,0.38-0.65,0.88-0.67,1.44c-0.01,0.18-0.01,0.35-0.02,0.53
		c-0.05,1.39-0.1,2.77-0.14,4.16c-0.84-1.84-1.69-3.69-2.55-5.52c-0.29-0.83-1.06-1.38-2-1.4c0,0-0.27,0-0.27,0
		c-0.91-0.01-1.69,0.44-2.1,1.23c-1.17,2.25-2.34,4.55-3.48,6.84c0,0-0.01-0.01-0.02-0.01c-0.91-0.67-2.2-0.52-2.99,0.35
		c-0.7,0.77-1.82,1.06-2.86,0.76c-0.51-0.15-1.38-0.57-1.55-1.73c-0.14-0.93,0.39-1.79,1.38-2.22c0.98-0.43,2.28-0.1,3,0.76
		c0.76,0.89,2.1,1.04,3.07,0.33c0,0,0.83-0.61,0.83-0.61c0.83-0.6,1.11-1.63,0.7-2.55c-0.08-0.18-0.18-0.36-0.3-0.52
		c-2.03-2.58-5.79-3.6-9.13-2.47c-1.06,0.36-2,0.92-2.77,1.64c-0.11-0.42-0.33-0.81-0.65-1.1c-0.42-0.38-0.96-0.59-1.54-0.57
		c-0.36,0.01-0.72,0.03-1.09,0.04c-0.11,0-0.23,0.02-0.34,0.04c-0.67,0.09-1.23,0.46-1.56,0.98c-1.43-0.92-3.18-0.82-4.47-0.74
		c-0.09,0-0.18,0.01-0.27,0.01c-0.71,0.04-1.42,0.08-2.13,0.12c-0.11,0-0.22,0.02-0.33,0.05c-0.38,0.06-0.73,0.21-1.01,0.43
		c-0.38-0.23-0.82-0.34-1.27-0.32c0,0-6.15,0.45-6.15,0.46c-0.11,0.01-0.22,0.03-0.33,0.05c-0.74,0.13-1.32,0.6-1.59,1.22
		c-0.44-0.62-1.21-1.01-2-0.93c0,0-0.18,0.02-0.18,0.02c-0.9,0.09-1.61,0.6-1.94,1.42c-0.62,1.53-1.23,3.07-1.84,4.62
		c-0.92-1.4-1.86-2.79-2.8-4.17c-0.46-0.68-1.28-1.06-2.08-0.96l-0.19,0.02c-1.16,0.14-1.99,1.01-2.02,2.13
		c-0.04,1.84-0.09,3.69-0.13,5.53c-1.23-1.86-2.48-3.72-3.73-5.56c-0.42-0.76-1.27-1.19-2.2-1.06l-0.13,0.02
		c-0.04,0-0.09,0.01-0.13,0.02c-0.9,0.13-1.6,0.7-1.88,1.54c-1.18,3.56-2.33,7.18-3.41,10.74c-0.21,0.69-0.04,1.44,0.46,2
		c0.5,0.56,1.23,0.84,1.95,0.72c0.38-0.06,0.76-0.11,1.14-0.17c0.89-0.13,1.58-0.72,1.84-1.56c0,0,0.99-3.15,0.99-3.15
		c0.1-0.3,0.19-0.59,0.29-0.89c0.3,0.45,0.52,0.77,0.52,0.77c0.62,0.93,1.24,1.86,1.86,2.79c0.46,0.69,1.27,1.08,2.08,0.97
		c0,0,1.14-0.14,1.14-0.14c0.51-0.06,1.01-0.13,1.52-0.19l0.99-0.12c1.13-0.14,1.96-1.03,1.99-2.13c0,0,0-0.11,0.01-0.3
		c0.2,0.3,0.4,0.61,0.6,0.91c0.45,0.69,1.25,1.07,2.04,0.99l0.27-0.03c0.88-0.09,1.57-0.62,1.89-1.44c0,0,0.16-0.42,0.4-1.02
		c0.03,0.12,0.06,0.24,0.09,0.36c0.24,1.02,1.25,1.74,2.29,1.64l0.98-0.09h0.02c0.43-0.04,0.83-0.2,1.17-0.44
		c0.35,0.18,0.74,0.27,1.15,0.24c1.95-0.15,3.9-0.29,5.85-0.43c0.49-0.03,0.94-0.21,1.3-0.49c0.38,0.24,0.82,0.36,1.28,0.33
		c0,0,1.04-0.06,1.04-0.06c0.97-0.06,1.75-0.68,2.03-1.5c0.23,0.27,0.43,0.5,0.43,0.5c0.86,0.98,2.14,0.84,2.83,0.76
		c0.08-0.01,0.2-0.02,0.23-0.02C84.13,100.81,84.75,100.78,85.37,100.76 M157.63,91.48c-0.34-0.45-0.83-0.75-1.4-0.84
		c-0.36-0.06-0.72-0.11-1.07-0.17c-0.11-0.02-0.22-0.02-0.34-0.02c-1.12-0.06-2.07,0.68-2.24,1.77c0,0-1.05,6.78-1.05,6.78
		c-0.01,0.04-0.01,0.09-0.02,0.13c-0.02,0-0.04-0.01-0.05-0.01c-0.62-0.09-1.24-0.18-1.86-0.27c0.32-2.28,0.64-4.56,0.97-6.83
		c0.09-0.59-0.07-1.2-0.44-1.68c-0.34-0.45-0.85-0.74-1.41-0.81c0,0-1.08-0.14-1.08-0.14c-0.11-0.01-0.22-0.01-0.34-0.01
		c-0.4-0.02-0.77,0.07-1.1,0.24c-0.33-0.31-0.74-0.51-1.2-0.56c0,0-6.13-0.72-6.13-0.72c-0.12-0.01-0.23-0.01-0.34-0.01
		c-1.03-0.01-1.9,0.65-2.12,1.62c-0.72-0.78-1.62-1.4-2.68-1.78c-1.62-0.58-3.36-0.7-4.9-0.8c-0.34-0.02-0.68-0.04-1.01-0.07
		c-0.63-0.05-1.25,0.14-1.71,0.53c-0.43,0.36-0.69,0.86-0.74,1.41c0,0-0.79,10.06-0.79,10.06c-0.01,0.11,0,0.22,0.01,0.34
		c0.03,1.08,0.85,1.95,1.97,2.03l1.29,0.12c0.85,0.08,1.73,0.16,2.61,0.2c1.24,0.06,3.08,0.01,4.78-1.12
		c0.02-0.01,0.04-0.03,0.05-0.04c0.15,0.96,0.9,1.74,1.89,1.84c0,0,5.83,0.68,5.83,0.68c0.5,0.07,0.99-0.03,1.4-0.26
		c0.31,0.31,0.73,0.53,1.2,0.59c0-0.01,4.97,0.69,4.97,0.7c0.43,0.06,0.85,0.01,1.22-0.13c0.29,0.24,0.64,0.41,1.03,0.47
		c0,0,1.03,0.16,1.03,0.16c1.22,0.19,2.37-0.59,2.56-1.74c0.05-0.34,0.11-0.68,0.17-1.03c0.48-2.98,0.97-5.96,1.46-8.94
		C158.13,92.57,157.98,91.96,157.63,91.48 M132.71,95.33c-0.13,0.79-0.68,1.26-1.53,1.3c-0.31,0.01-0.62,0.01-0.94-0.01
		c0.09-1.05,0.18-2.11,0.28-3.17c0.02-0.19,0.03-0.38,0.05-0.57c0.39,0.06,0.75,0.14,1.09,0.25
		C132.85,93.55,132.79,94.81,132.71,95.33"/>
	<path style="clip-path:url(#SVGID_00000178188542131093069950000011359131085321083573_);fill:#FFFFFF;" d="M99.53,89.63
		c0.01,0.01,0.01,0.02,0.02,0.04c0,0.01,0.02,0.03,0.02,0.04C99.56,89.69,99.54,89.66,99.53,89.63 M143.66,98.99
		c0,0-2.39-0.29-3.64-0.43c0.01-0.09,0.02-0.17,0.03-0.25c0.05-0.41,0.1-0.82,0.15-1.23c1.19,0.14,2.38,0.28,3.56,0.43
		c0.64,0.08,1.55-0.27,1.65-1.01c0,0,0.05-0.34,0.05-0.34c0.03-0.22,0.06-0.43,0.08-0.65c0.05-0.35-0.24-0.72-0.45-0.99
		c-0.19-0.25-0.47-0.41-0.79-0.45c0,0-2.43-0.29-3.7-0.44c0.03-0.23,0.05-0.46,0.08-0.69c1.26,0.15,3.67,0.44,3.67,0.44
		c0.65,0.08,1.57-0.27,1.66-1.01l0.07-0.47c0.02-0.17,0.04-0.35,0.07-0.52c0.04-0.35-0.24-0.71-0.45-0.99
		c-0.19-0.25-0.48-0.41-0.79-0.45c-2.04-0.25-4.07-0.49-6.11-0.72c-0.07-0.01-0.15-0.01-0.22,0c-0.65-0.02-1.17,0.41-1.23,1.04
		c0,0-0.15,1.37-0.28,2.53c-0.56-1.73-1.85-3.15-3.63-3.8c-1.49-0.54-3.09-0.64-4.64-0.74c-0.34-0.02-0.68-0.04-1.03-0.07
		c-0.37-0.03-0.75,0.09-1.02,0.31c-0.24,0.2-0.38,0.47-0.41,0.77l-0.79,10.06c-0.01,0.07,0,0.15,0.01,0.22c0,0.62,0.46,1.1,1.1,1.15
		c0.43,0.04,0.87,0.07,1.31,0.11c0.84,0.08,1.7,0.16,2.57,0.2c1.1,0.05,2.74,0.01,4.2-0.96c0.7-0.47,1.29-1.12,1.74-1.9
		c-0.08,0.72-0.16,1.43-0.23,2.14c-0.08,0.71,0.4,1.33,1.07,1.41c0,0,5.84,0.68,5.84,0.69c0.63,0.08,1.54-0.27,1.64-1.01
		c0,0,0.05-0.39,0.05-0.39c0.03-0.2,0.05-0.39,0.08-0.59c0.04-0.35-0.24-0.72-0.45-0.99C144.25,99.19,143.97,99.03,143.66,98.99
		 M133.64,95.47c-0.19,1.22-1.12,2.02-2.42,2.08c-0.66,0.03-1.32-0.01-2-0.07c0.12-1.37,0.23-2.74,0.35-4.11
		c0.05-0.51,0.09-1.02,0.13-1.53c0.78,0.07,1.56,0.17,2.26,0.41C133.49,92.78,133.83,94.26,133.64,95.47 M54.5,102.25l0.99-0.12
		c0.67-0.08,1.15-0.59,1.16-1.23c0,0,0.04-1.74,0.08-3.29c0.76,1.14,1.51,2.28,2.27,3.42c0.25,0.39,0.72,0.62,1.15,0.57
		c0.09-0.01,0.18-0.02,0.27-0.03c0.53-0.05,0.92-0.36,1.11-0.85c0,0,0.82-2.08,1.5-3.8c0.26,1.08,0.53,2.17,0.79,3.25
		c0.14,0.57,0.72,0.99,1.29,0.93l0.98-0.09c0.01,0,0.01,0,0.02,0c0.39-0.03,0.75-0.23,0.97-0.53c0.08-0.11,0.14-0.23,0.18-0.36
		c0.21,0.42,0.62,0.73,1.18,0.69c1.96-0.15,3.91-0.29,5.87-0.43c0.64-0.04,1.46-0.53,1.42-1.28c-0.01-0.16-0.02-0.33-0.04-0.49
		c-0.01-0.16-0.02-0.33-0.03-0.49c-0.02-0.35-0.37-0.69-0.63-0.91c-0.24-0.2-0.54-0.3-0.85-0.28c0,0-2.4,0.17-3.66,0.26
		c-0.04-0.5-0.08-0.99-0.12-1.48c1.2-0.09,2.39-0.18,3.58-0.26c0.65-0.04,1.47-0.53,1.43-1.28c-0.01-0.16-0.02-0.33-0.03-0.5
		c-0.01-0.16-0.02-0.32-0.03-0.49c-0.02-0.36-0.38-0.69-0.64-0.91c-0.24-0.21-0.54-0.31-0.86-0.29c0,0-2.44,0.17-3.72,0.26
		c-0.02-0.23-0.04-0.46-0.06-0.69c1.27-0.09,3.69-0.26,3.69-0.26c0.65-0.05,1.48-0.54,1.43-1.28c-0.02-0.33-0.04-0.66-0.06-0.99
		c-0.03-0.35-0.38-0.68-0.64-0.91c-0.24-0.21-0.55-0.31-0.87-0.29c-2.05,0.15-4.09,0.3-6.14,0.45c-0.08,0.01-0.15,0.02-0.22,0.04
		c-0.64,0.11-1.06,0.63-1.01,1.26c0,0,0.53,6.1,0.76,8.8c-0.71-2.94-1.42-5.89-2.14-8.82c-0.14-0.56-0.73-0.98-1.31-0.93l-0.19,0.02
		c-0.54,0.05-0.95,0.34-1.14,0.84c-0.85,2.09-1.69,4.21-2.5,6.31c-1.25-1.9-2.52-3.8-3.81-5.69c-0.26-0.38-0.73-0.6-1.18-0.55
		l-0.19,0.02c-0.68,0.08-1.17,0.59-1.19,1.23c-0.07,2.85-0.14,5.71-0.21,8.55c-1.77-2.72-3.59-5.45-5.43-8.15
		c-0.23-0.44-0.71-0.68-1.24-0.61c-0.04,0.01-0.09,0.01-0.13,0.02c-0.04,0-0.09,0.01-0.13,0.02c-0.54,0.08-0.94,0.4-1.11,0.9
		c-1.18,3.56-2.33,7.17-3.41,10.73c-0.12,0.38-0.02,0.8,0.27,1.12c0.28,0.32,0.7,0.48,1.1,0.42l1.14-0.18
		c0.53-0.08,0.92-0.41,1.07-0.91l1-3.15c0.3-0.91,0.59-1.82,0.89-2.73c0.71,1.05,1.61,2.38,1.61,2.38c0.62,0.93,1.24,1.86,1.86,2.79
		c0.26,0.39,0.73,0.61,1.17,0.55c0,0,1.15-0.14,1.15-0.14C53.49,102.37,53.99,102.31,54.5,102.25 M85.34,99.83
		c0.35-0.01,0.7-0.02,1.05-0.04c0.64-0.02,1.3-0.49,1.27-1.23c0,0-0.03-1.01-0.07-2.24c0.78,1.5,2.12,2.67,3.82,3.22
		c2.25,0.72,4.75,0.31,6.62-0.98c0.03,0.16,0.09,0.32,0.18,0.46c0.23,0.36,0.61,0.58,1.02,0.58c0.38,0,0.77,0,1.15,0.01
		c0.53,0,0.98-0.26,1.21-0.73c0.49-0.99,0.99-1.98,1.48-2.96c0,0,0.72-1.42,1.31-2.55c0.54,1.15,1.21,2.6,1.21,2.6
		c0.47,1.02,0.93,2.04,1.39,3.05c0.19,0.43,0.63,0.72,1.07,0.73l1.15,0.04c0.4,0.01,0.78-0.15,1.03-0.43
		c0.21,0.29,0.54,0.48,0.94,0.49c0.35,0.01,0.7,0.03,1.04,0.04c0.36,0.02,0.73-0.12,0.99-0.35c0.23-0.21,0.36-0.49,0.38-0.79
		c0,0,0.1-2.55,0.18-4.42c0.48,0.58,0.97,1.15,1.45,1.73c0.75,0.91,1.49,1.82,2.24,2.73c0.06,0.08,0.13,0.17,0.2,0.26
		c0.33,0.45,0.82,1.13,1.69,1.18c0.64,0.04,1.34-0.37,1.38-1.11c0,0,0.63-10.07,0.63-10.07c0.02-0.35-0.1-0.71-0.33-0.96
		c-0.21-0.23-0.5-0.37-0.82-0.39c-0.36-0.02-0.72-0.04-1.08-0.07c-0.66-0.03-1.36,0.37-1.4,1.12c0,0-0.15,2.58-0.25,4.45
		c-0.47-0.56-0.94-1.12-1.4-1.69c-0.78-0.92-1.56-1.84-2.34-2.76c-0.06-0.07-0.13-0.17-0.2-0.26c-0.36-0.47-0.9-1.17-1.79-1.2
		c-0.37-0.01-0.74,0.12-1,0.35c-0.23,0.21-0.36,0.49-0.37,0.79c-0.01,0.17-0.02,0.35-0.02,0.52c-0.09,2.74-0.19,5.48-0.29,8.22
		c-1.38-3.1-2.8-6.22-4.24-9.29c-0.16-0.47-0.59-0.78-1.13-0.79l-0.27,0c-0.54-0.01-1,0.25-1.24,0.72
		c-1.35,2.58-2.68,5.21-3.98,7.85c-0.03-0.03-0.07-0.06-0.1-0.08c-0.07-0.05-0.14-0.1-0.21-0.15c-0.21-0.15-0.42-0.3-0.62-0.45
		c-0.53-0.39-1.26-0.29-1.73,0.23c-0.94,1.03-2.45,1.43-3.83,1.02c-1.23-0.36-2.03-1.26-2.22-2.48c-0.2-1.35,0.55-2.61,1.93-3.21
		c1.38-0.6,3.11-0.18,4.11,1.01c0.43,0.51,1.21,0.59,1.77,0.18l0.84-0.61c0.48-0.35,0.63-0.92,0.39-1.44
		c-0.04-0.11-0.1-0.21-0.18-0.3c-1.78-2.27-5.11-3.16-8.07-2.16c-1.8,0.6-3.17,1.88-3.89,3.47c-0.02-0.74-0.05-1.47-0.07-2.2
		c-0.01-0.36-0.17-0.69-0.42-0.93c-0.24-0.22-0.54-0.33-0.86-0.32c-0.36,0.01-0.72,0.02-1.08,0.04c-0.07,0-0.15,0.01-0.23,0.03
		c-0.64,0.08-1.09,0.58-1.06,1.21c0.01,0.28,0.02,0.56,0.03,0.83c-0.25-0.38-0.56-0.73-0.95-1.03c-1.2-0.93-2.83-0.84-4.14-0.77
		c-0.09,0.01-0.18,0.01-0.28,0.02c0,0-2.12,0.12-2.12,0.12c-0.07,0-0.14,0.02-0.22,0.03c-0.64,0.09-1.07,0.6-1.03,1.24l0.63,10.08
		c0.02,0.36,0.19,0.69,0.45,0.92c0.23,0.2,0.53,0.31,0.85,0.29l1.04-0.06c0.64-0.04,1.28-0.52,1.24-1.26c0,0-0.07-1.35-0.1-1.79
		c0.31,0.35,0.61,0.69,0.91,1.03c0.39,0.45,0.78,0.9,1.17,1.35c0.53,0.61,1.41,0.51,2,0.44c0.12-0.01,0.23-0.03,0.3-0.03
		C84.09,99.88,84.72,99.86,85.34,99.83 M80.68,91.61c-0.22,0.29-1.16,0.37-1.88,0.4c0-0.03-0.01-0.07-0.01-0.1
		c-0.01-0.3-0.03-0.6-0.05-0.9c0.11-0.01,0.23-0.01,0.34-0.02c0.05,0,0.09,0,0.14-0.01c1.05-0.06,1.35,0.01,1.44,0.33
		C80.69,91.4,80.73,91.54,80.68,91.61 M81.88,94.94c0.92-0.36,1.58-0.93,1.99-1.7c0,0.11,0.01,0.21,0.01,0.32
		c0.05,1.28,0.1,2.56,0.15,3.85C83.32,96.58,82.6,95.76,81.88,94.94 M156.86,92.03c-0.19-0.25-0.46-0.42-0.78-0.47
		c-0.36-0.06-0.72-0.11-1.07-0.17c-0.07-0.01-0.15-0.01-0.23-0.01c-0.65-0.05-1.18,0.36-1.28,0.99c-0.36,2.26-0.71,4.52-1.06,6.78
		c-0.08,0.52-0.16,1.04-0.24,1.57c-0.04-0.07-0.07-0.15-0.13-0.21c-0.18-0.25-0.46-0.41-0.77-0.46c-0.93-0.14-1.85-0.27-2.78-0.4
		c0.36-2.58,0.73-5.17,1.1-7.75c0.05-0.35-0.04-0.71-0.25-0.99c-0.2-0.25-0.48-0.41-0.79-0.45l-1.07-0.14
		c-0.07-0.01-0.15-0.01-0.23-0.01c-0.65-0.03-1.17,0.38-1.26,1.01c-0.45,3.33-0.9,6.67-1.34,10.01c-0.08,0.63,0.28,1.33,1.03,1.43
		c1.66,0.23,3.33,0.46,4.99,0.7c0.48,0.07,1.02-0.11,1.29-0.52c0.12,0.42,0.45,0.78,0.96,0.86l1.03,0.16
		c0.63,0.1,1.36-0.23,1.48-0.97c0,0,0.17-1.03,0.17-1.03c0.48-2.98,0.97-5.96,1.45-8.94C157.15,92.66,157.07,92.3,156.86,92.03"/>
	<path style="clip-path:url(#SVGID_00000178188542131093069950000011359131085321083573_);fill:#00C0F3;" d="M49.43,98.82
		c0.62,0.93,1.25,1.87,1.86,2.8c0.09,0.14,0.28,0.25,0.45,0.23c0.38-0.05,0.76-0.1,1.14-0.15c0.38-0.04,0.64-0.42,0.42-0.76
		c-2.02-3.13-4.09-6.24-6.2-9.33c-0.07-0.17-0.23-0.29-0.49-0.26c-0.08,0.01-0.17,0.02-0.26,0.04c-0.25,0.04-0.42,0.16-0.49,0.39
		c-1.18,3.57-2.32,7.14-3.41,10.71c-0.09,0.29,0.22,0.64,0.53,0.59c0.38-0.06,0.76-0.11,1.14-0.17c0.25-0.04,0.4-0.16,0.48-0.4
		c0.33-1.05,0.66-2.11,0.99-3.16c0.45-1.4,0.9-2.8,1.36-4.2C47.78,96.37,48.61,97.59,49.43,98.82"/>
	<path style="clip-path:url(#SVGID_00000178188542131093069950000011359131085321083573_);fill:#00C0F3;" d="M106.28,95.66
		c0.47,1.02,0.93,2.04,1.39,3.05c0.07,0.15,0.24,0.29,0.41,0.29c0.38,0.01,0.77,0.02,1.16,0.03c0.37,0.01,0.7-0.32,0.53-0.69
		c-1.5-3.4-3.05-6.79-4.64-10.18c-0.04-0.18-0.18-0.32-0.44-0.33c-0.08,0-0.18-0.01-0.26-0.01c-0.26,0-0.43,0.1-0.55,0.31
		c-1.74,3.34-3.43,6.69-5.08,10.05c-0.13,0.27,0.12,0.66,0.43,0.66c0.39,0,0.77,0,1.16,0.01c0.25,0,0.42-0.1,0.53-0.32
		c0.49-0.99,0.99-1.98,1.49-2.96c0.67-1.32,1.34-2.63,2.02-3.94C105.04,92.98,105.66,94.32,106.28,95.66"/>
	<path style="clip-path:url(#SVGID_00000178188542131093069950000011359131085321083573_);fill:#00C0F3;" d="M66.55,99.66
		c-0.79-3.31-1.59-6.61-2.41-9.92c-0.05-0.2-0.28-0.38-0.5-0.36c-0.06,0-0.12,0.01-0.19,0.01c-0.26,0.03-0.42,0.15-0.51,0.37
		c-1.04,2.55-2.05,5.11-3.04,7.68c-1.51-2.31-3.05-4.62-4.61-6.91c-0.09-0.14-0.27-0.25-0.45-0.23c-0.06,0.01-0.13,0.01-0.19,0.02
		c-0.29,0.03-0.5,0.22-0.51,0.51c-0.09,3.41-0.18,6.8-0.25,10.2c0,0.13,0.04,0.22,0.1,0.3c0.08,0.13,0.22,0.21,0.43,0.18
		c0.33-0.04,0.67-0.08,1-0.12c0.28-0.03,0.49-0.22,0.5-0.51c0.04-1.89,0.08-3.79,0.13-5.69c1.22,1.81,2.42,3.62,3.6,5.44
		c0.09,0.14,0.27,0.25,0.44,0.24c0.09-0.01,0.18-0.02,0.27-0.03c0.25-0.02,0.4-0.14,0.49-0.37c0.78-2.01,1.57-4.01,2.38-6.02
		c0.45,1.86,0.91,3.71,1.34,5.57c0.05,0.2,0.28,0.38,0.5,0.36c0.33-0.03,0.66-0.06,1-0.09C66.39,100.26,66.63,100,66.55,99.66"/>
	<path style="clip-path:url(#SVGID_00000178188542131093069950000011359131085321083573_);fill:#00C0F3;" d="M73.71,90.57
		c0.26-0.02,0.56-0.2,0.54-0.49c-0.02-0.33-0.04-0.66-0.07-0.99c-0.01-0.25-0.2-0.53-0.51-0.51c-2.04,0.13-4.08,0.28-6.13,0.45
		c-0.05,0-0.09,0.01-0.13,0.02c-0.23,0.03-0.43,0.18-0.4,0.47c0.29,3.35,0.58,6.7,0.86,10.06c0.02,0.25,0.21,0.53,0.51,0.5
		c1.95-0.16,3.92-0.31,5.88-0.44c0.26-0.01,0.54-0.19,0.52-0.48c-0.02-0.33-0.04-0.66-0.06-0.99c-0.02-0.25-0.2-0.53-0.5-0.51
		c-1.47,0.09-2.93,0.2-4.4,0.32c-0.08-0.99-0.16-1.98-0.24-2.97c1.45-0.11,2.89-0.22,4.34-0.31c0.26-0.02,0.55-0.19,0.53-0.48
		c-0.02-0.33-0.04-0.66-0.07-0.99c-0.02-0.25-0.21-0.53-0.5-0.51c-1.49,0.1-2.97,0.2-4.46,0.32c-0.06-0.73-0.11-1.45-0.18-2.17
		C70.74,90.77,72.22,90.66,73.71,90.57"/>
	<path style="clip-path:url(#SVGID_00000178188542131093069950000011359131085321083573_);fill:#00C0F3;" d="M83.85,98.33
		c-1.09-1.27-2.2-2.53-3.31-3.79c1.15-0.2,2.22-0.68,2.74-1.79c0.63-1.37,0.23-2.92-0.98-3.86c-1.05-0.81-2.64-0.66-3.9-0.59
		c-0.7,0.04-1.41,0.08-2.12,0.12c-0.05,0-0.09,0.01-0.13,0.03c-0.23,0.02-0.43,0.17-0.41,0.45c0.21,3.36,0.42,6.72,0.62,10.07
		c0.01,0.25,0.19,0.53,0.49,0.51c0.35-0.02,0.7-0.04,1.05-0.06c0.25-0.01,0.55-0.19,0.53-0.47c-0.07-1.31-0.14-2.63-0.22-3.95
		c0.79,0.89,1.58,1.77,2.36,2.66c0.39,0.45,0.79,0.9,1.18,1.34c0.34,0.39,1.23,0.17,1.7,0.15C83.89,99.15,84.15,98.69,83.85,98.33
		 M77.94,90.31c0.37-0.02,0.73-0.04,1.1-0.06c0.89-0.05,2.04-0.16,2.35,0.85c0.5,1.66-1.95,1.65-3.31,1.67
		C78.04,91.95,77.99,91.13,77.94,90.31"/>
	<path style="clip-path:url(#SVGID_00000178188542131093069950000011359131085321083573_);fill:#00C0F3;" d="M86.09,87.98
		c-0.36,0.02-0.72,0.02-1.08,0.04c-0.05,0-0.09,0.01-0.13,0.02c-0.23,0.02-0.44,0.16-0.43,0.45c0.13,3.36,0.25,6.73,0.38,10.09
		c0.01,0.25,0.19,0.53,0.48,0.52c0.35-0.01,0.7-0.02,1.05-0.03c0.26-0.01,0.55-0.18,0.54-0.47c-0.11-3.36-0.21-6.73-0.32-10.09
		C86.57,88.26,86.4,87.97,86.09,87.98"/>
	<path style="clip-path:url(#SVGID_00000178188542131093069950000011359131085321083573_);fill:#00C0F3;" d="M98.66,96.18
		c-0.28-0.2-0.55-0.4-0.83-0.6c-0.24-0.17-0.54-0.07-0.72,0.12c-2.28,2.49-6.82,1.63-7.36-1.84c-0.26-1.73,0.73-3.28,2.37-4
		c1.75-0.77,3.84-0.16,5.01,1.22c0.18,0.22,0.51,0.22,0.73,0.06c0.28-0.2,0.56-0.4,0.84-0.61c0.22-0.16,0.24-0.38,0.14-0.55
		c-0.02-0.05-0.04-0.1-0.08-0.15c-1.62-2.07-4.67-2.77-7.22-1.91c-2.52,0.85-4.05,3.15-3.94,5.64c0.11,2.4,1.66,4.52,4.03,5.29
		c2.54,0.82,5.47,0.05,7.15-1.97C98.97,96.65,98.88,96.33,98.66,96.18"/>
	<path style="clip-path:url(#SVGID_00000178188542131093069950000011359131085321083573_);fill:#00C0F3;" d="M120.16,88.44
		c-0.36-0.02-0.72-0.04-1.08-0.06c-0.26-0.02-0.58,0.13-0.6,0.41c-0.12,2.13-0.24,4.25-0.36,6.37c-0.87-1.06-1.75-2.12-2.63-3.18
		c-0.77-0.92-1.55-1.84-2.33-2.75c-0.38-0.44-0.78-1.17-1.44-1.2c-0.26-0.01-0.58,0.14-0.59,0.42c-0.12,3.36-0.24,6.73-0.36,10.09
		c0,0.04,0,0.09,0.01,0.12c0,0.22,0.13,0.42,0.43,0.43c0.35,0.01,0.7,0.02,1.05,0.04c0.26,0.01,0.57-0.14,0.58-0.43
		c0.09-2.12,0.17-4.24,0.26-6.36c0.91,1.08,1.82,2.15,2.71,3.24c0.75,0.91,1.49,1.82,2.24,2.73c0.37,0.45,0.7,1.13,1.35,1.16
		c0.25,0.01,0.56-0.13,0.58-0.41c0.21-3.36,0.42-6.72,0.63-10.08C120.62,88.76,120.47,88.45,120.16,88.44"/>
	<path style="clip-path:url(#SVGID_00000178188542131093069950000011359131085321083573_);fill:#00C0F3;" d="M133.15,89.73
		c-1.71-0.62-3.66-0.63-5.46-0.77c-0.26-0.02-0.58,0.11-0.61,0.4c-0.27,3.36-0.53,6.71-0.8,10.06c0,0.04,0,0.09,0.01,0.13
		c-0.01,0.22,0.12,0.43,0.41,0.45c1.28,0.1,2.57,0.25,3.86,0.31c1.34,0.06,2.62-0.09,3.75-0.84c1.12-0.75,1.82-1.97,2.12-3.23
		C137.07,93.64,135.92,90.73,133.15,89.73 M134.38,95.58c-0.25,1.59-1.48,2.64-3.13,2.71c-0.95,0.05-1.91-0.05-2.86-0.14
		c0.2-2.37,0.41-4.74,0.61-7.11c1.08,0.08,2.19,0.17,3.2,0.52C134.02,92.18,134.65,93.91,134.38,95.58"/>
	<path style="clip-path:url(#SVGID_00000178188542131093069950000011359131085321083573_);fill:#00C0F3;" d="M144.43,92.66
		c0.26,0.03,0.59-0.09,0.63-0.37c0.04-0.33,0.09-0.65,0.13-0.98c0.03-0.25-0.09-0.55-0.4-0.59c-2.03-0.26-4.06-0.5-6.1-0.71
		c-0.05-0.01-0.09-0.01-0.14,0c-0.23-0.02-0.45,0.1-0.48,0.38c-0.37,3.35-0.74,6.69-1.11,10.04c-0.03,0.25,0.1,0.55,0.4,0.58
		c1.95,0.21,3.9,0.44,5.85,0.69c0.26,0.03,0.57-0.09,0.61-0.37c0.04-0.33,0.08-0.66,0.13-0.98c0.03-0.25-0.09-0.56-0.39-0.59
		c-1.46-0.18-2.92-0.36-4.38-0.53c0.12-0.99,0.23-1.97,0.35-2.95c1.44,0.16,2.88,0.34,4.32,0.52c0.26,0.04,0.58-0.08,0.62-0.37
		c0.04-0.33,0.09-0.65,0.13-0.98c0.03-0.25-0.09-0.56-0.4-0.6c-1.48-0.19-2.96-0.36-4.44-0.53c0.08-0.72,0.17-1.44,0.25-2.16
		C141.49,92.3,142.96,92.47,144.43,92.66"/>
	<path style="clip-path:url(#SVGID_00000178188542131093069950000011359131085321083573_);fill:#00C0F3;" d="M151.21,100.78
		c-1.17-0.17-2.35-0.34-3.52-0.5c0.39-2.82,0.79-5.65,1.19-8.48c0.04-0.24-0.09-0.56-0.4-0.6c-0.36-0.05-0.71-0.09-1.07-0.14
		c-0.04-0.01-0.09-0.01-0.13,0c-0.23-0.03-0.46,0.08-0.5,0.37c-0.45,3.34-0.9,6.67-1.35,10.01c-0.03,0.25,0.09,0.55,0.39,0.59
		c1.66,0.23,3.33,0.45,4.99,0.7c0.25,0.04,0.58-0.08,0.61-0.36c0.06-0.33,0.1-0.65,0.15-0.98
		C151.62,101.13,151.5,100.82,151.21,100.78"/>
	<path style="clip-path:url(#SVGID_00000178188542131093069950000011359131085321083573_);fill:#00C0F3;" d="M155.96,92.29
		c-0.35-0.06-0.71-0.11-1.07-0.17c-0.05-0.01-0.09-0.01-0.13,0c-0.23-0.03-0.46,0.08-0.5,0.36c-0.52,3.33-1.04,6.65-1.56,9.98
		c-0.04,0.25,0.08,0.56,0.37,0.6c0.34,0.05,0.69,0.11,1.03,0.16c0.25,0.04,0.57-0.07,0.62-0.36c0.54-3.32,1.08-6.64,1.62-9.97
		C156.39,92.65,156.27,92.34,155.96,92.29"/>
	<path style="clip-path:url(#SVGID_00000178188542131093069950000011359131085321083573_);fill:#F173AC;" d="M72.4,116.41
		c0.08,0.81-0.72,1.7-2.4,2.65c-0.52,0.3-1.36,0.7-2.54,1.2c-0.28,0.11-0.65,0.3-1.12,0.54c-0.26,0.14-0.49,0.22-0.67,0.23
		c-0.19,0.02-0.31-0.01-0.37-0.08c-0.04-0.05-0.08-0.16-0.09-0.32c-0.03-0.36,0.03-0.92,0.19-1.7c0.16-0.78,0.22-1.32,0.2-1.63
		c-0.02-0.19-0.06-0.36-0.13-0.5c0.05-0.08,0.14-0.13,0.28-0.14c0.07-0.01,0.15,0,0.23,0.01c0.06-0.1,0.1-0.28,0.13-0.53
		c0.03-0.28,0.06-0.47,0.09-0.56c0.07-0.18,0.19-0.28,0.38-0.29c0.05,0,0.11,0,0.18,0.01c0.09,0.05,0.15,0.15,0.16,0.31l0,0.04
		c0.01,0.1,0.03,0.19,0.06,0.25c0.64-0.41,1.09-0.66,1.35-0.75c0.17-0.05,0.56-0.11,1.17-0.17c0.72-0.06,1.29-0.05,1.7,0.06
		C71.93,115.22,72.33,115.68,72.4,116.41 M71.53,116.69c-0.03-0.37-0.36-0.63-1-0.78c-0.45-0.1-0.87-0.13-1.27-0.09
		c-0.64,0.06-1.2,0.25-1.69,0.57c-0.17,0.1-0.34,0.21-0.5,0.32c-0.2,0.13-0.31,0.22-0.33,0.28c-0.14,0.36-0.26,0.81-0.35,1.37
		c-0.07,0.46-0.14,0.92-0.21,1.38c0.69-0.27,1.72-0.68,3.08-1.23C70.82,117.84,71.58,117.23,71.53,116.69"/>
	<path style="clip-path:url(#SVGID_00000178188542131093069950000011359131085321083573_);fill:#F173AC;" d="M77.64,116.59
		c-0.57,0.19-1.35,0.38-2.34,0.57c-0.78,0.15-1.28,0.3-1.51,0.45c-0.35,0.21-0.49,0.56-0.42,1.04c0.03,0.01,0.09,0.02,0.16,0.01
		c0.07,0,0.18-0.02,0.33-0.05c0.15-0.03,0.24-0.05,0.28-0.05c0.06,0,0.37-0.09,0.93-0.27c0.56-0.18,0.87-0.27,0.92-0.27
		c0.17-0.01,0.29,0,0.37,0.02c0.14,0.05,0.28,0.17,0.41,0.37c-0.17,0.38-0.66,0.78-1.48,1.2c-0.77,0.4-1.43,0.62-1.96,0.65
		c-0.36,0.03-0.63-0.02-0.81-0.14c-0.2-0.14-0.32-0.39-0.35-0.74c-0.03-0.47,0.12-1.33,0.46-2.59c0.33-1.2,0.56-1.87,0.7-2.02
		c0.14-0.14,0.6-0.25,1.38-0.3c0.35-0.02,0.62-0.02,0.8,0.02c0.27,0.07,0.52,0.22,0.75,0.45l-0.06,0.3
		c-0.01,0.01-0.24,0.03-0.68,0.04c-0.51,0.02-0.9,0.08-1.17,0.17c-0.41,0.15-0.6,0.41-0.58,0.76l0.02,0.24
		c0.28-0.01,0.81-0.08,1.59-0.18c0.81-0.11,1.33-0.18,1.54-0.19c0.18-0.01,0.35,0.01,0.53,0.06c0.19,0.05,0.28,0.13,0.29,0.24
		C77.74,116.47,77.71,116.53,77.64,116.59"/>
	<path style="clip-path:url(#SVGID_00000178188542131093069950000011359131085321083573_);fill:#F173AC;" d="M80.21,115.79
		c0.03,0.57-0.07,1.31-0.31,2.21c-0.25,0.93-0.52,1.54-0.81,1.83c-0.09,0.09-0.24,0.14-0.47,0.15c-0.19,0.01-0.54-0.1-1.02-0.34
		c-0.54-0.25-0.82-0.49-0.83-0.7c0-0.09,0.02-0.17,0.05-0.27c0.05-0.12,0.11-0.18,0.18-0.19c0.1-0.01,0.23,0.05,0.41,0.18
		c0.18,0.14,0.39,0.19,0.63,0.18c0.16-0.01,0.27-0.02,0.32-0.04c0.11-0.05,0.21-0.18,0.31-0.39c0.09-0.2,0.22-0.59,0.37-1.16
		c0.15-0.54,0.26-0.99,0.32-1.34c0.01-0.07,0.02-0.32,0.01-0.74c0-0.12,0.03-0.24,0.1-0.34C79.92,114.8,80.17,115.11,80.21,115.79"
		/>
	<path style="clip-path:url(#SVGID_00000178188542131093069950000011359131085321083573_);fill:#F173AC;" d="M87,116.56
		c-0.05,0.35-0.15,0.58-0.28,0.69c-0.12,0.09-0.33,0.14-0.64,0.15c-0.2,0.01-0.34,0-0.45-0.03c-0.04,0.39-0.09,0.78-0.13,1.16
		c-0.13,0.71-0.35,1.06-0.66,1.07c-0.24,0.01-0.37-0.21-0.39-0.66c-0.01-0.24,0.02-0.55,0.07-0.92c0.06-0.37,0.08-0.55,0.08-0.53
		c-0.01-0.01-0.07,0-0.19,0.03c-0.12,0.03-0.19,0.04-0.21,0.04c-0.08,0-0.37,0.06-0.86,0.16c-0.59,0.12-1.04,0.23-1.35,0.33
		c-0.09,0.14-0.22,0.32-0.39,0.57c-0.17,0.24-0.35,0.5-0.52,0.75c-0.2,0.27-0.43,0.4-0.69,0.41c-0.38,0.02-0.57-0.15-0.59-0.51
		c-0.01-0.3,0.7-1.17,2.13-2.59c0.85-0.81,1.7-1.63,2.55-2.44c0.18-0.18,0.47-0.28,0.85-0.29c0.24-0.01,0.4,0.07,0.46,0.25
		c0.03,0.07,0.05,0.24,0.06,0.51l-0.07,1.77l0.99-0.04C86.86,116.42,86.94,116.46,87,116.56 M84.69,116.4
		c0-0.46-0.02-0.77-0.06-0.92c-0.03-0.11-0.08-0.17-0.16-0.17c-0.11-0.01-0.18-0.03-0.22-0.06c-0.17,0.13-0.4,0.39-0.69,0.76
		c-0.19,0.27-0.4,0.54-0.6,0.81L84.69,116.4z"/>
	<path style="clip-path:url(#SVGID_00000178188542131093069950000011359131085321083573_);fill:#F173AC;" d="M93.23,113.78
		c0.02,0.03,0.04,0.06,0.04,0.1c0,0.13-0.16,0.29-0.48,0.45c-0.26,0.14-0.44,0.21-0.55,0.23c-0.24,0.04-0.67,0.06-1.28,0.08
		c-0.48,0.02-0.86,0.07-1.14,0.15c0,0.08,0,0.16-0.01,0.24c-0.01,0.08-0.03,0.18-0.08,0.29c-0.03,0.06-0.13,0.53-0.3,1.4
		c-0.19,0.95-0.28,1.54-0.28,1.76l0.02,0.98c-0.05,0.13-0.26,0.19-0.63,0.2c-0.26,0.01-0.39-0.2-0.4-0.63
		c0-0.19,0.04-0.52,0.13-0.98c0.08-0.38,0.14-0.66,0.19-0.85c0.03-0.11,0.09-0.43,0.16-0.96c0.08-0.56,0.12-0.93,0.12-1.12
		c0-0.06-0.04-0.11-0.1-0.16l-1.27,0.33c-0.19,0.04-0.29-0.2-0.3-0.72c-0.01-0.2,0.04-0.33,0.15-0.4c0.07-0.05,0.19-0.08,0.37-0.08
		c0.02,0,0.08,0,0.15,0.01c0.08,0.01,0.14,0.02,0.18,0.01l4.22-0.73c0.36-0.03,0.62-0.01,0.77,0.07
		C92.99,113.5,93.1,113.61,93.23,113.78"/>
	<path style="clip-path:url(#SVGID_00000178188542131093069950000011359131085321083573_);fill:#F173AC;" d="M97.14,116.04
		c-0.58,0.15-1.37,0.29-2.38,0.43c-0.78,0.1-1.3,0.22-1.53,0.35c-0.36,0.19-0.52,0.53-0.48,1.02c0.03,0.02,0.09,0.02,0.16,0.02
		s0.18-0.01,0.33-0.03c0.15-0.02,0.24-0.03,0.28-0.03c0.06,0,0.37-0.07,0.94-0.21c0.57-0.14,0.88-0.21,0.93-0.21
		c0.17,0,0.3,0.01,0.37,0.04c0.14,0.06,0.27,0.19,0.39,0.4c-0.2,0.37-0.71,0.74-1.54,1.11c-0.8,0.35-1.46,0.53-2,0.53
		c-0.37,0-0.63-0.06-0.8-0.19c-0.2-0.15-0.3-0.41-0.3-0.76c0-0.47,0.2-1.32,0.62-2.56c0.4-1.17,0.67-1.83,0.82-1.97
		c0.15-0.14,0.62-0.21,1.4-0.22c0.35,0,0.62,0.02,0.8,0.07c0.26,0.08,0.5,0.25,0.72,0.5l-0.08,0.29c-0.01,0.02-0.24,0.02-0.68,0.01
		c-0.52-0.01-0.91,0.02-1.18,0.1c-0.42,0.13-0.63,0.37-0.62,0.72v0.24c0.28,0,0.81-0.02,1.6-0.09c0.82-0.06,1.34-0.09,1.55-0.09
		c0.17,0,0.35,0.03,0.53,0.1c0.18,0.06,0.27,0.15,0.27,0.25C97.25,115.92,97.21,115.98,97.14,116.04"/>
	<path style="clip-path:url(#SVGID_00000178188542131093069950000011359131085321083573_);fill:#F173AC;" d="M106.74,113.91
		c0.02,0.03,0.04,0.07,0.04,0.1c0,0.14-0.17,0.28-0.5,0.44c-0.27,0.13-0.45,0.19-0.57,0.2c-0.23,0.03-0.66,0.04-1.28,0.03
		c-0.48,0-0.86,0.03-1.14,0.1c-0.01,0.08-0.01,0.16-0.02,0.24c-0.01,0.08-0.04,0.18-0.09,0.28c-0.03,0.06-0.15,0.52-0.35,1.39
		c-0.23,0.94-0.35,1.53-0.35,1.75l-0.01,0.98c-0.06,0.12-0.27,0.18-0.63,0.18c-0.27-0.01-0.39-0.22-0.38-0.65
		c0-0.2,0.06-0.52,0.17-0.97c0.09-0.38,0.17-0.66,0.23-0.85c0.04-0.11,0.11-0.43,0.2-0.96c0.11-0.56,0.16-0.93,0.17-1.12
		c0-0.06-0.03-0.11-0.1-0.16l-1.28,0.28c-0.19,0.04-0.28-0.21-0.27-0.73c0-0.2,0.06-0.33,0.17-0.4c0.07-0.04,0.2-0.07,0.37-0.06
		c0.02,0,0.07,0.01,0.15,0.02c0.08,0.01,0.14,0.02,0.17,0.02l4.25-0.57c0.36-0.01,0.62,0.02,0.77,0.1
		C106.52,113.62,106.62,113.73,106.74,113.91"/>
	<path style="clip-path:url(#SVGID_00000178188542131093069950000011359131085321083573_);fill:#F173AC;" d="M110.55,116.32
		c-0.58,0.13-1.38,0.24-2.39,0.34c-0.79,0.07-1.3,0.16-1.54,0.29c-0.36,0.17-0.54,0.5-0.52,1c0.03,0.02,0.08,0.03,0.16,0.03
		c0.07,0,0.18,0,0.33-0.02c0.15-0.01,0.25-0.02,0.28-0.02c0.06,0,0.38-0.05,0.95-0.17c0.58-0.12,0.89-0.18,0.94-0.18
		c0.18,0.01,0.3,0.02,0.37,0.06c0.13,0.06,0.26,0.2,0.37,0.41c-0.21,0.36-0.74,0.71-1.59,1.04c-0.81,0.32-1.48,0.47-2.02,0.45
		c-0.37-0.01-0.63-0.08-0.79-0.22c-0.19-0.16-0.28-0.42-0.27-0.77c0.01-0.47,0.25-1.31,0.72-2.53c0.44-1.16,0.74-1.8,0.9-1.94
		c0.16-0.13,0.63-0.18,1.4-0.16c0.36,0.01,0.62,0.04,0.8,0.1c0.25,0.09,0.48,0.27,0.69,0.52l-0.09,0.29
		c-0.01,0.02-0.24,0.01-0.68-0.02c-0.51-0.03-0.91-0.01-1.18,0.05c-0.42,0.11-0.64,0.35-0.66,0.7l-0.01,0.24
		c0.28,0.01,0.82,0.01,1.6-0.02c0.81-0.03,1.33-0.04,1.55-0.03c0.17,0,0.35,0.04,0.53,0.12c0.18,0.07,0.26,0.16,0.26,0.26
		C110.68,116.21,110.64,116.27,110.55,116.32"/>
	<path style="clip-path:url(#SVGID_00000178188542131093069950000011359131085321083573_);fill:#F173AC;" d="M116.68,114.57
		c-0.01,0.19-0.21,0.7-0.6,1.51c-0.43,0.88-0.85,1.63-1.27,2.25c-0.53,0.77-0.94,1.15-1.23,1.13c-0.25-0.01-0.51-0.27-0.78-0.77
		c-0.19-0.36-0.38-0.84-0.57-1.44c-0.09-0.3-0.18-0.6-0.27-0.9c-0.32,0.59-0.68,1.5-1.08,2.74c-0.04,0.09-0.14,0.19-0.3,0.29
		c-0.16,0.1-0.29,0.15-0.38,0.15c-0.21-0.01-0.37-0.11-0.47-0.31c-0.07-0.15-0.11-0.31-0.1-0.48c0.01-0.24,0.06-0.47,0.16-0.68
		c0.24-0.52,0.63-1.23,1.19-2.14c0.34-0.55,0.65-0.97,0.93-1.24c0.04-0.03,0.13-0.06,0.28-0.07c0.22-0.02,0.34-0.03,0.38-0.04
		c0.47,0.86,0.75,2.02,0.82,3.49c0.06,0.06,0.15,0.15,0.28,0.28c0.3-0.47,0.67-1.17,1.13-2.13c0.28-0.6,0.47-0.98,0.56-1.13
		c0.39-0.65,0.75-0.96,1.07-0.94c0.14,0,0.23,0.07,0.26,0.19C116.69,114.35,116.69,114.43,116.68,114.57"/>
	<path style="clip-path:url(#SVGID_00000178188542131093069950000011359131085321083573_);fill:#F173AC;" d="M122.43,114.71
		c0.02,0.03,0.03,0.07,0.03,0.1c-0.01,0.13-0.18,0.27-0.52,0.41c-0.27,0.11-0.46,0.18-0.57,0.18c-0.24,0.02-0.67,0.01-1.29-0.03
		c-0.48-0.02-0.86,0-1.15,0.05c-0.01,0.08-0.02,0.16-0.03,0.24c-0.02,0.08-0.05,0.17-0.1,0.28c-0.03,0.05-0.17,0.51-0.41,1.37
		c-0.27,0.93-0.41,1.51-0.43,1.74l-0.06,0.98c-0.06,0.12-0.27,0.17-0.64,0.15c-0.26-0.02-0.38-0.24-0.35-0.66
		c0.01-0.19,0.08-0.51,0.21-0.96c0.11-0.37,0.19-0.65,0.27-0.84c0.04-0.11,0.12-0.42,0.24-0.94c0.13-0.56,0.2-0.92,0.21-1.11
		c0-0.06-0.02-0.11-0.09-0.17l-1.29,0.22c-0.19,0.03-0.27-0.22-0.24-0.74c0.01-0.2,0.07-0.33,0.18-0.39
		c0.07-0.04,0.2-0.06,0.38-0.05c0.03,0,0.07,0.01,0.16,0.03c0.08,0.02,0.13,0.03,0.17,0.03l4.27-0.38c0.36,0,0.62,0.04,0.76,0.13
		C122.22,114.4,122.32,114.52,122.43,114.71"/>
	<path style="clip-path:url(#SVGID_00000178188542131093069950000011359131085321083573_);fill:#F173AC;" d="M127.43,117.78
		c-0.09,0.34-0.21,0.55-0.36,0.65c-0.13,0.08-0.35,0.1-0.66,0.08c-0.19-0.02-0.34-0.04-0.44-0.08c-0.09,0.38-0.18,0.76-0.27,1.14
		c-0.22,0.68-0.48,1.01-0.78,0.99c-0.24-0.02-0.35-0.25-0.31-0.7c0.02-0.24,0.08-0.54,0.18-0.9c0.1-0.36,0.15-0.54,0.15-0.52
		c-0.01-0.01-0.08-0.01-0.2,0.01c-0.12,0.02-0.19,0.02-0.22,0.02c-0.08,0-0.38,0.01-0.88,0.06c-0.6,0.05-1.06,0.1-1.37,0.17
		c-0.1,0.12-0.26,0.29-0.46,0.52c-0.2,0.22-0.41,0.45-0.6,0.68c-0.23,0.23-0.48,0.35-0.74,0.32c-0.37-0.03-0.55-0.22-0.52-0.58
		c0.02-0.3,0.83-1.08,2.42-2.32c0.94-0.71,1.88-1.42,2.82-2.13c0.2-0.16,0.5-0.22,0.88-0.19c0.24,0.02,0.39,0.12,0.43,0.3
		c0.02,0.07,0.02,0.24,0,0.51l-0.28,1.75l0.99,0.08C127.32,117.62,127.39,117.67,127.43,117.78 M125.17,117.34
		c0.05-0.46,0.07-0.76,0.04-0.92c-0.01-0.12-0.06-0.18-0.14-0.19c-0.11-0.02-0.18-0.05-0.21-0.09c-0.19,0.11-0.45,0.34-0.77,0.68
		c-0.22,0.24-0.45,0.49-0.69,0.73L125.17,117.34z"/>
	<path style="clip-path:url(#SVGID_00000178188542131093069950000011359131085321083573_);fill:#F173AC;" d="M133.21,116.64
		c-0.12,0.75-0.79,1.13-2,1.16c0.4,0.29,0.77,0.61,1.1,0.96c0.5,0.52,0.74,0.94,0.71,1.25c-0.01,0.11-0.05,0.24-0.12,0.4
		c-0.08,0.2-0.16,0.3-0.23,0.29c-0.04,0-0.17-0.17-0.37-0.5c-0.21-0.33-0.34-0.5-0.37-0.52l-1.87-1.21
		c-0.09-0.01-0.22-0.04-0.39-0.11c-0.23-0.09-0.34-0.18-0.33-0.27c0.03-0.28,0.28-0.5,0.75-0.67c0.13-0.04,0.4-0.1,0.8-0.18
		c0.22-0.04,0.4-0.08,0.52-0.11c0.25-0.07,0.43-0.15,0.53-0.25c-0.02-0.07-0.11-0.11-0.26-0.12c-0.27-0.03-0.71,0.04-1.3,0.21
		c-0.61,0.16-0.95,0.32-1.03,0.46c-0.06,0.11-0.16,0.34-0.27,0.67c-0.12,0.34-0.24,0.63-0.36,0.86c-0.07,0.13-0.14,0.35-0.23,0.69
		c-0.06,0.22-0.17,0.48-0.33,0.76c-0.26,0.46-0.52,0.68-0.78,0.65c-0.05,0-0.11-0.05-0.19-0.13c0.02-0.41,0.1-0.79,0.22-1.14
		c0.07-0.2,0.24-0.55,0.48-1.05c0.27-0.54,0.5-1.04,0.68-1.49c-0.14-0.05-0.28-0.12-0.43-0.21c0-0.07,0.02-0.17,0.07-0.28
		c0.06-0.17,0.1-0.27,0.11-0.29c0.15-0.03,0.33-0.09,0.54-0.19c0.07-0.09,0.14-0.18,0.22-0.25c0.07-0.08,0.18-0.11,0.33-0.1
		c0.02,0,0.14,0.03,0.34,0.08c0.2,0.05,0.31,0.08,0.34,0.08c0.01,0,0.24-0.05,0.68-0.16c0.45-0.11,0.85-0.15,1.19-0.11
		c0.42,0.04,0.71,0.09,0.87,0.15C133.13,116.09,133.26,116.32,133.21,116.64"/>
	<path style="clip-path:url(#SVGID_00000178188542131093069950000011359131085321083573_);fill:#F173AC;" d="M78.64,111.95
		c-0.08,0.3-0.28,0.58-0.59,0.84c-0.3,0.23-0.6,0.45-0.9,0.67c-0.34,0.26-0.6,0.5-0.77,0.72c-0.19,0-0.33-0.01-0.42-0.05
		c-0.29-0.11-0.4-0.28-0.31-0.51c0.1-0.27,0.37-0.54,0.81-0.81c0.84-0.52,1.38-0.87,1.62-1.06c0.12,0,0.24,0.01,0.34,0.05
		C78.5,111.84,78.58,111.89,78.64,111.95"/>
</g>
</svg>
