<?xml version="1.0" encoding="utf-8"?>
<!-- Generator: Adobe Illustrator 28.0.0, SVG Export Plug-In . SVG Version: 6.00 Build 0)  -->
<svg version="1.1" id="Layer_1" xmlns="http://www.w3.org/2000/svg" xmlns:xlink="http://www.w3.org/1999/xlink" x="0px" y="0px"
	 viewBox="0 0 198.43 198.43" style="enable-background:new 0 0 198.43 198.43;" xml:space="preserve">
<style type="text/css">
	.st0{fill-rule:evenodd;clip-rule:evenodd;fill:#1B1918;}
</style>
<g>
	<path class="st0" d="M53.46,123.11c-0.15,0-0.29-0.05-0.44-0.14c-2.87-1.85-4.99-12.73-4.85-20.58c-3.34,1.19-9.4,2.52-11.91,2.92
		c-0.38,0.06-0.38,0.06-0.58,0.51l-0.06,0.13c-0.62,1.39-3.09,6.43-4.26,7.87c-0.51,0.62-1.53,1.07-2.42,1.07
		c-0.71,0-1.29-0.29-1.63-0.8c-0.59-0.89-0.42-2.4,0.49-4.47c0.69-1.56,1.1-2.57,1.29-3.04c-0.14-0.02-0.3-0.02-0.49-0.03
		c-0.78-0.05-1.85-0.11-2.71-0.46c-0.75-0.31-1.97-1.48-1.55-2.9c0.25-0.82,0.92-1.04,7.25-2.3c0.12-0.07,0.36-0.57,0.52-0.9
		c0.1-0.2,0.19-0.4,0.31-0.61c5.4-10.06,11.18-19.56,15.83-26.06c1.64-2.28,4.18-2.33,5.41-2.36h0.16c1.15,0,1.93,0.26,2.35,0.77
		c0.3,0.36,0.4,0.84,0.3,1.41c-0.98,5.14-1.73,13.79-2.16,18.95c-0.14,1.64-0.25,2.95-0.33,3.63c0.71-0.19,2.22-0.66,3.98-1.22
		c0.17-0.06,0.36-0.09,0.52-0.09c0.54,0,0.95,0.31,1.09,0.81c0.2,0.76-0.28,1.99-1.82,2.88c-0.85,0.49-2.78,1.58-3.46,1.95
		c-0.07,0.03-0.13,0.07-0.19,0.09c-0.26,0.13-0.26,0.13-0.28,0.48c-0.01,0.08-0.51,5.91-0.36,10.02c0.1,2.64,0.25,5.07,0.39,7.04
		c0.18,2.56,0.29,4.25,0.18,4.94C53.98,122.91,53.75,123.11,53.46,123.11 M49.86,80.24c-0.03,0.04-0.06,0.09-0.1,0.15
		c-4.7,7.55-7.62,12.39-10.54,17.93c-0.33,0.64-0.55,1.07-0.63,1.28c0.83-0.06,9.13-1.96,9.58-2.12c0.06-0.02,0.07-0.03,0.07-0.03
		c0.02-0.04,0.03-0.28,0.05-0.52l0.01-0.07c0.48-6.97,0.91-10.75,1.29-14.08c0.08-0.71,0.16-1.42,0.24-2.13
		C49.85,80.46,49.86,80.33,49.86,80.24"/>
	<path class="st0" d="M58.06,114.9c-0.25,0-0.47-0.09-0.63-0.25c-0.21-0.22-0.31-0.55-0.29-1c0.05-1.9,1.27-6.24,2.56-10.84
		c0.69-2.46,1.4-5.01,1.9-7.08c0.33-1.41,0.59-2.63,0.81-3.72c0.61-2.94,0.91-4.41,1.89-4.41c0.43,0,0.88,0.33,1.5,1.11
		c0.89,1.11,1.38,2.35,1.45,3.59c1.26-1.85,3.53-4.13,7.31-4.69c0.3-0.04,0.61-0.06,0.94-0.06c1.53,0,2.98,0.47,3.82,0.91
		c0.41,0.22,1.39,0.79,1.59,1.55c0.07,0.27,0.03,0.53-0.11,0.77c-0.27,0.41-0.83,0.51-1.7,0.66c-0.76,0.11-1.81,0.29-3.11,0.74
		c-4.67,1.63-8.51,4.58-12.11,13.68c-2.15,5.45-3.21,7.77-5.06,8.81C58.67,114.76,58.37,114.9,58.06,114.9"/>
	<path class="st0" d="M79.76,114.9c-2.73,0-4.61-1.09-5.58-3.25c-1.13-2.49-0.37-6.89,2.02-11.78c2.35-4.81,6.85-10.85,11.79-12.04
		c0.67-0.16,1.32-0.24,1.94-0.24c2.12,0,3.8,1.03,4.6,2.82c0.92,2.03,0.5,4.64-0.99,6.33c-0.29,0.33-0.75,0.5-1.32,0.5
		c-0.94,0-2.12-0.48-2.68-1.1c-0.28-0.32-0.48-0.68,0-1.32c0.36-0.46,0.71-1.05,0.67-1.96c-0.03-0.65-0.33-0.65-0.43-0.65
		c-0.23,0-0.53,0.13-0.84,0.38c-4.34,3.38-7.86,8.88-9.71,12.91c-0.84,1.83-1.01,3.23-0.48,4.07c0.5,0.77,1.52,0.88,2.09,0.88
		c0.59,0,1.25-0.12,1.83-0.34c2.63-0.97,4.63-3.21,6.25-4.84c1.25-1.26,1.87-1.86,2.4-1.86c0.1,0,0.19,0.02,0.27,0.06
		c0.12,0.06,0.29,0.2,0.35,0.47c0.24,1.2-1.89,4.82-3.36,6.47c-1.61,1.8-4.37,4.04-7.44,4.4C80.66,114.88,80.2,114.9,79.76,114.9"/>
	<path class="st0" d="M92.42,114.26c-0.54-0.72-0.56-1.99-0.05-3.77c1.66-5.8,6.27-15.86,10.32-24.73
		c2.44-5.36,4.55-9.98,5.66-12.86c0.64-1.65,1.6-1.9,2.12-1.9c0.57,0,1.16,0.28,1.66,0.79c0.66,0.67,1.06,1.63,1.05,2.52
		c-0.02,1.27-4.78,11.41-11.01,24.53c-0.73,1.52-1.41,2.97-2.03,4.28c4.57-6.27,7.88-10.16,11.64-14.25c1-1.11,2.07-1.34,2.78-1.34
		c1.07,0,2.1,0.54,2.75,1.45c0.66,0.93,0.81,2.11,0.41,3.23c-0.3,0.83-0.65,1.64-0.99,2.43c-0.32,0.72-0.61,1.4-0.85,2.07
		c-1.1,3.05-2.97,8.67-3.1,12.01c-0.09,2.3,0.8,3.04,1.48,3.4c0.26,0.13,0.61,0.27,1.35,0.32c0.5,0.04,0.66,0.33,0.7,0.46
		c0.1,0.27-0.02,0.59-0.3,0.85c-0.76,0.69-1.78,1.07-2.87,1.07c-0.69,0-1.35-0.15-1.92-0.43c-1.81-0.91-2.92-2.91-3.11-5.59
		c-0.08-1.19,0.36-6.32,2.38-11.52c-2,2.3-4.49,5.28-6.56,7.81c-2.81,3.45-3.85,5.03-5.72,7.04c-1.37,1.49-2.63,2.75-3.98,2.75
		C93.31,114.9,92.73,114.67,92.42,114.26"/>
	<path class="st0" d="M129.5,84.47c-1.27,0-2.32-0.69-2.7-1.36c-0.3-0.6-0.46-1.39-0.46-2.2c0-0.82,0.22-1.95,0.85-2.73
		c0.62-0.74,1.73-1.14,3.2-1.14c0.98,0,2.25,0.31,2.76,0.9c0.71,0.78,0.84,1.64,0.8,2.21C133.79,83.42,130.88,84.47,129.5,84.47"/>
	<path class="st0" d="M137.35,114.89c-1.95,0-3.84-0.54-5.3-1.53c-0.67-0.45-1.28-1.03-1.79-1.68l-0.07-0.08
		c0,0-0.01-0.01-0.02-0.02c-0.02,0.01-0.03,0.02-0.06,0.04c-2.78,2.11-5.53,3.26-7.74,3.26c-1.09,0-2.66-0.43-3.81-1.67
		c-1.12-1.19-1.61-2.87-1.46-4.96c0.11-1.53,0.25-2.86,0.97-4.92c0.19-0.5,0.33-0.98,0.48-1.42c0.18-0.58,0.35-1.1,0.55-1.58
		c0.65-1.54,1.14-2.77,1.62-3.97c0.87-2.19,1.62-4.08,3.05-7.06c0.55-1.15,1.62-1.73,3.16-1.73h0.07c1.56,0.01,2.31,0.94,2.47,1.73
		c0.45,2.15-0.67,3.57-1.86,5.06c-0.64,0.81-1.3,1.64-1.77,2.63c-0.7,1.51-1.17,2.85-1.68,4.26c-0.23,0.63-0.46,1.28-0.72,1.96
		c-1.03,2.73-1.41,4.92-1.41,5.72c0,0.92,0.27,1.45,0.81,1.57c0.03,0,0.08,0.01,0.18,0.01c1,0,3.54-0.91,5.43-2.14
		c0.18-0.12,0.22-0.29,0.2-0.65c-0.03-0.44-0.03-1.62,0.14-2.79c1-7.12,7.45-17.16,15.68-17.32h0.19c2.78,0,4.19,1.38,4.32,4.23
		c0.21,4.48-7.48,13.48-14.95,17.52c-0.07,0.04-0.11,0.06-0.14,0.08c0.22,0.76,1.49,1.24,3.26,1.24c3.19,0,8.13-1.57,11.51-5.99
		l0.28-0.36c0.57-0.76,0.88-1.18,1.35-1.18c0.08,0,0.17,0.01,0.25,0.04c0.17,0.06,0.29,0.2,0.36,0.36c0.15,0.39-0.06,1.04-0.72,2.21
		C145.71,113.71,140.22,114.89,137.35,114.89 M142.3,92.8c-2.79,2.29-7.63,6.97-8.74,12.62c1.06-0.78,5.56-4.27,8.1-8.02
		c2.16-3.19,3.26-5.45,2.54-5.67C143.9,91.63,142.94,92.28,142.3,92.8"/>
	<path class="st0" d="M152.68,94.82c-0.29,0-0.46-0.13-0.55-0.25c-0.15-0.2-0.19-0.47-0.1-0.83c0.97-4.1,2.5-10.48,2.5-10.48
		c0.88-4.51,1.67-6.19,2.9-6.19c0.75,0,1.48,0.63,2.59,1.8c0.92,0.97,0.55,2.33-0.43,5.95l-0.28,1.05
		C157.9,91.12,154.17,94.82,152.68,94.82"/>
	<path class="st0" d="M163.04,114.88c-0.52,0-1.08-0.05-1.74-0.16c-5.4-0.92-8.66-5.69-9.12-7.93c-0.19-0.94,0.08-1.34,0.34-1.51
		c0.12-0.09,0.26-0.13,0.39-0.13c0.44,0,0.76,0.41,1.17,0.92c1.71,2.17,5.23,4.7,7.2,4.7c0.08,0,0.15,0,0.22,0
		c0.07-0.07,0.11-0.35-0.15-1.54l-0.26-1.15c-0.81-3.55-2.03-8.9-2.25-10.22c-0.26-1.61-0.2-4.08,1.62-6.73
		c1.26-1.84,4.02-3.71,6.86-3.71c1.52,0,2.87,0.53,4.03,1.57c0.87,0.77,1.32,2.3,1.39,3.4c0.08,1.19-0.21,2.13-0.84,2.79
		c-0.62,0.65-1.54,1-2.63,1c-0.91,0-2.22-0.3-2.26-0.97c-0.02-0.18,0.06-0.41,0.19-0.62c0.45-0.77,0.8-1.42,0.75-2.13
		c-0.03-0.41-0.05-0.83-0.35-1.07c-0.17-0.14-0.45-0.22-0.78-0.22c-0.42,0-0.81,0.13-1.13,0.38c-1.58,1.22-2.2,3.04-1.9,5.56
		c0.03,0.27,0.44,2.48,0.6,3.12c0.2,1.01,0.49,2.23,0.79,3.52c1.02,4.41,1.72,7.62,1.38,8.76
		C166.08,114.11,164.94,114.88,163.04,114.88"/>
	<path class="st0" d="M173.32,114.01c-0.56,0.56-1.23,0.84-2.02,0.84c-0.8,0-1.46-0.28-2.02-0.84c-0.55-0.57-0.83-1.23-0.83-2.03
		c0-0.79,0.28-1.46,0.84-2.02c0.55-0.56,1.23-0.84,2.01-0.84c0.79,0,1.47,0.28,2.02,0.84c0.56,0.55,0.84,1.23,0.84,2.02
		C174.16,112.77,173.88,113.45,173.32,114.01 M169.56,110.25c-0.47,0.48-0.71,1.06-0.71,1.74c0,0.68,0.24,1.27,0.71,1.75
		c0.48,0.49,1.05,0.73,1.74,0.73c0.68,0,1.26-0.24,1.74-0.73c0.47-0.48,0.71-1.07,0.71-1.75c0-0.68-0.24-1.27-0.71-1.74
		c-0.48-0.48-1.07-0.72-1.74-0.72C170.62,109.53,170.05,109.77,169.56,110.25 M171.24,110.42c0.39,0,0.68,0.03,0.86,0.1
		c0.32,0.14,0.49,0.41,0.49,0.8c0,0.28-0.11,0.49-0.3,0.61c-0.11,0.08-0.26,0.12-0.45,0.15c0.25,0.04,0.42,0.14,0.54,0.31
		c0.12,0.16,0.17,0.33,0.17,0.48v0.23c0,0.07,0.01,0.15,0.01,0.23c0,0.08,0.01,0.13,0.02,0.16l0.02,0.04h-0.51
		c-0.01-0.02-0.01-0.03-0.01-0.04c0-0.01-0.01-0.02-0.01-0.03l-0.01-0.1v-0.25c0-0.36-0.1-0.6-0.29-0.72
		c-0.12-0.07-0.32-0.1-0.62-0.1h-0.44v1.23h-0.55v-3.13H171.24z M171.84,110.91c-0.14-0.08-0.36-0.12-0.67-0.12h-0.48v1.14h0.5
		c0.24,0,0.41-0.02,0.52-0.07c0.22-0.09,0.32-0.24,0.32-0.49C172.05,111.14,171.98,110.98,171.84,110.91"/>
	<path class="st0" d="M146.9,124.19l-1.84-5.15h-0.03l-1.82,5.15H146.9z M149.02,126.89c0,0.31-0.18,0.47-0.55,0.47
		c-0.13,0-0.25-0.04-0.36-0.11c-0.1-0.07-0.18-0.17-0.23-0.33l-0.63-1.72h-4.38l-0.63,1.72c-0.1,0.27-0.3,0.41-0.6,0.41
		c-0.33,0-0.52-0.15-0.55-0.47c0.01-0.05,0.02-0.11,0.04-0.17l0.04-0.15l3.06-8.18c0.09-0.23,0.2-0.41,0.34-0.52
		c0.15-0.12,0.31-0.18,0.47-0.18c0.18,0,0.35,0.06,0.49,0.18c0.14,0.11,0.25,0.28,0.33,0.5l3.1,8.2
		C149,126.69,149.02,126.8,149.02,126.89 M140.67,126.73c0,0.35-0.19,0.52-0.57,0.52h-5.56c-0.42,0-0.65-0.17-0.68-0.52
		c0.02-0.17,0.08-0.33,0.18-0.49l4.93-7.46h-4.31c-0.35,0-0.54-0.16-0.57-0.49c0.03-0.34,0.23-0.52,0.6-0.52h5.2
		c0.4,0,0.6,0.15,0.6,0.46c0,0.15-0.07,0.33-0.21,0.55l-4.96,7.46h4.8C140.49,126.24,140.67,126.4,140.67,126.73 M133.27,126.73
		c0,0.35-0.19,0.52-0.57,0.52h-5.56c-0.42,0-0.65-0.17-0.68-0.52c0.02-0.17,0.08-0.33,0.18-0.49l4.93-7.46h-4.31
		c-0.35,0-0.54-0.16-0.57-0.49c0.03-0.34,0.23-0.52,0.6-0.52h5.2c0.4,0,0.6,0.15,0.6,0.46c0,0.15-0.07,0.33-0.21,0.55l-4.96,7.46
		h4.8C133.09,126.24,133.27,126.4,133.27,126.73 M125.42,126.68c0,0.43-0.19,0.65-0.56,0.65c-0.4,0-0.6-0.21-0.6-0.63v-8.39
		c0-0.41,0.2-0.62,0.6-0.62c0.37,0,0.56,0.21,0.56,0.62V126.68z M122.18,120.71c0-0.58-0.18-1.05-0.54-1.4
		c-0.36-0.35-0.83-0.53-1.42-0.53h-1.71v3.92h1.66c0.59,0,1.07-0.19,1.45-0.56C122,121.77,122.18,121.29,122.18,120.71
		 M123.35,120.73c0.01,0.81-0.27,1.51-0.84,2.1c-0.56,0.59-1.26,0.88-2.07,0.88h-1.93v3.05c0,0.17-0.06,0.3-0.17,0.41
		c-0.11,0.11-0.25,0.16-0.42,0.16c-0.17,0-0.31-0.06-0.41-0.17c-0.11-0.11-0.16-0.26-0.16-0.43v-8.33c0-0.41,0.19-0.62,0.57-0.62
		h2.35c0.85,0,1.56,0.25,2.14,0.76C123.04,119.07,123.35,119.8,123.35,120.73 M113.61,118.31c0,0.36-0.17,0.55-0.52,0.55h-1.83v7.87
		c0,0.17-0.06,0.32-0.17,0.43c-0.11,0.11-0.26,0.17-0.43,0.17c-0.17,0-0.31-0.06-0.41-0.17c-0.11-0.11-0.16-0.26-0.16-0.43v-7.87
		h-1.82c-0.33,0-0.51-0.18-0.55-0.55c0.03-0.36,0.22-0.54,0.57-0.54h4.75C113.42,117.77,113.61,117.95,113.61,118.31 M107.17,126.73
		c0,0.35-0.19,0.52-0.57,0.52h-3.41c-0.38,0-0.57-0.21-0.57-0.63v-8.2c0-0.16,0.04-0.31,0.12-0.43c0.09-0.14,0.22-0.22,0.37-0.22
		h3.58c0.33,0,0.49,0.18,0.49,0.54c0,0.36-0.17,0.55-0.52,0.55h-2.89v3.12h2.63c0.35,0,0.52,0.18,0.52,0.55
		c0,0.36-0.18,0.55-0.54,0.55h-2.61v3.08h2.91C107.01,126.16,107.17,126.35,107.17,126.73 M101.44,126.57
		c0,0.52-0.19,0.78-0.57,0.78c-0.35,0-0.55-0.17-0.6-0.52l-1.09-7.66l-2.32,7.71c-0.09,0.31-0.28,0.47-0.57,0.47
		c-0.3,0-0.5-0.15-0.6-0.47l-2.29-7.71l-1.12,7.71c-0.05,0.38-0.27,0.58-0.65,0.58c-0.34,0-0.52-0.23-0.54-0.68
		c0.02-0.07,0.03-0.16,0.03-0.27l1.38-8.02c0.05-0.28,0.15-0.49,0.31-0.62c0.17-0.14,0.36-0.22,0.57-0.22
		c0.21,0,0.39,0.06,0.55,0.17c0.14,0.1,0.25,0.26,0.31,0.48l2.02,6.94h0.03l2.02-7c0.06-0.19,0.16-0.34,0.31-0.44
		c0.15-0.1,0.33-0.16,0.52-0.16c0.23,0,0.43,0.07,0.6,0.2c0.16,0.13,0.26,0.33,0.31,0.58L101.44,126.57z M89.12,120.44
		c0-0.33-0.07-0.62-0.23-0.88c-0.33-0.52-0.83-0.78-1.52-0.78h-1.6v3.37h1.65c0.83,0,1.35-0.27,1.55-0.82
		C89.06,121.08,89.11,120.78,89.12,120.44 M90.47,126.89c0,0.27-0.18,0.41-0.55,0.41c-0.22,0-0.4-0.08-0.55-0.24l-3.62-3.98v3.67
		c0,0.38-0.2,0.57-0.58,0.57c-0.38,0-0.57-0.2-0.57-0.6v-8.33c0-0.41,0.19-0.62,0.57-0.62h2.27c1.04,0,1.84,0.42,2.41,1.27
		c0.3,0.46,0.45,0.98,0.43,1.56c-0.01,0.42-0.11,0.8-0.28,1.16c-0.3,0.61-0.81,0.99-1.55,1.16c-0.36,0.08-0.78,0.12-1.26,0.12
		l3.03,3.32C90.39,126.52,90.47,126.69,90.47,126.89 M83.07,123.59c0,1.59-0.53,2.68-1.59,3.28c-0.54,0.31-1.21,0.46-2.01,0.46
		c-1.24,0-2.17-0.34-2.8-1.02c-0.6-0.65-0.91-1.55-0.91-2.69v-5.33c0-0.4,0.19-0.6,0.57-0.6c0.39,0,0.58,0.2,0.58,0.6v5.69
		c0,1,0.42,1.69,1.25,2.07c0.4,0.19,0.85,0.28,1.33,0.27c0.48-0.01,0.91-0.11,1.29-0.32c0.76-0.41,1.14-1.08,1.14-2.02v-5.69
		c0-0.4,0.18-0.6,0.55-0.6c0.4,0,0.6,0.2,0.6,0.6V123.59z M73.37,122.5c0.01-1.23-0.27-2.18-0.84-2.86
		c-0.53-0.63-1.22-0.95-2.07-0.95c-1.17,0-2.01,0.58-2.53,1.75c-0.26,0.58-0.39,1.26-0.39,2.06c0,1.41,0.39,2.48,1.18,3.21
		c0.43,0.4,1.01,0.6,1.73,0.6c0.66,0,1.23-0.2,1.71-0.61c0.44-0.37,0.76-0.89,0.97-1.54C73.28,123.68,73.36,123.12,73.37,122.5
		 M74.6,122.53c0.01,0.85-0.16,1.64-0.5,2.39c-0.34,0.76-0.83,1.34-1.46,1.77c-0.64,0.43-1.37,0.64-2.19,0.64
		c-0.79,0-1.51-0.21-2.14-0.62c-0.62-0.4-1.11-0.97-1.47-1.68c-0.37-0.73-0.55-1.56-0.55-2.5c0-0.84,0.15-1.62,0.46-2.33
		c0.34-0.77,0.83-1.39,1.47-1.84c0.63-0.44,1.38-0.67,2.23-0.67c1.28,0,2.3,0.48,3.05,1.44c0.35,0.45,0.62,0.96,0.8,1.54
		C74.5,121.27,74.6,121.89,74.6,122.53 M65.59,122.91c0,1.63-0.47,2.85-1.42,3.66c-0.59,0.51-1.46,0.76-2.59,0.76
		c-1.38,0-2.45-0.54-3.19-1.61c-0.64-0.92-0.96-1.94-0.97-3.08c-0.01-1.4,0.34-2.56,1.06-3.47c0.35-0.45,0.79-0.81,1.32-1.07
		c0.55-0.27,1.15-0.41,1.81-0.42c0.66-0.01,1.3,0.1,1.92,0.31c0.57,0.2,1.01,0.49,1.33,0.85c0.09,0.1,0.13,0.23,0.13,0.39
		c0,0.15-0.06,0.27-0.18,0.37c-0.11,0.09-0.24,0.14-0.4,0.15c-0.17-0.01-0.32-0.07-0.45-0.17c-0.41-0.32-0.76-0.54-1.05-0.66
		c-0.36-0.15-0.77-0.23-1.22-0.23c-1.03,0-1.8,0.42-2.33,1.25c-0.45,0.72-0.68,1.54-0.69,2.47c-0.01,1.35,0.37,2.42,1.13,3.19
		c0.44,0.45,1.01,0.68,1.7,0.7c0.48,0.02,0.96-0.09,1.44-0.33c1-0.48,1.5-1.37,1.5-2.67v-0.41h-1.69c-0.33,0-0.51-0.17-0.54-0.52
		c0.03-0.38,0.19-0.57,0.49-0.57h2.13c0.52,0,0.77,0.29,0.77,0.88V122.91z"/>
</g>
</svg>
