<?xml version="1.0" encoding="utf-8"?>
<!-- Generator: Adobe Illustrator 28.0.0, SVG Export Plug-In . SVG Version: 6.00 Build 0)  -->
<svg version="1.1" id="Layer_1" xmlns="http://www.w3.org/2000/svg" xmlns:xlink="http://www.w3.org/1999/xlink" x="0px" y="0px"
	 viewBox="0 0 198.43 198.43" style="enable-background:new 0 0 198.43 198.43;" xml:space="preserve">
<style type="text/css">
	
		.st0{clip-path:url(#SVGID_00000167379477107412199340000011550162517754948014_);fill-rule:evenodd;clip-rule:evenodd;fill:#D2CABC;}
	
		.st1{clip-path:url(#SVGID_00000167379477107412199340000011550162517754948014_);fill-rule:evenodd;clip-rule:evenodd;fill:#FFEBC6;}
	
		.st2{clip-path:url(#SVGID_00000167379477107412199340000011550162517754948014_);fill-rule:evenodd;clip-rule:evenodd;fill:#815012;}
	
		.st3{clip-path:url(#SVGID_00000167379477107412199340000011550162517754948014_);fill-rule:evenodd;clip-rule:evenodd;fill:#DA231F;}
	
		.st4{clip-path:url(#SVGID_00000167379477107412199340000011550162517754948014_);fill-rule:evenodd;clip-rule:evenodd;fill:#FFFFFF;}
</style>
<g>
	<defs>
		<rect id="SVGID_1_" x="14.17" y="65.17" width="170.08" height="68.09"/>
	</defs>
	<clipPath id="SVGID_00000007395979600869438320000012562062518708091521_">
		<use xlink:href="#SVGID_1_"  style="overflow:visible;"/>
	</clipPath>
	
		<path style="clip-path:url(#SVGID_00000007395979600869438320000012562062518708091521_);fill-rule:evenodd;clip-rule:evenodd;fill:#D2CABC;" d="
		M181.28,92.33c1.42,16.96-34.16,33.79-79.49,37.59c-45.32,3.8-83.22-6.87-84.64-23.83C15.73,89.13,51.32,72.3,96.64,68.5
		C141.96,64.7,179.85,75.37,181.28,92.33"/>
	
		<path style="clip-path:url(#SVGID_00000007395979600869438320000012562062518708091521_);fill-rule:evenodd;clip-rule:evenodd;fill:#FFEBC6;" d="
		M172.1,99.21c0,16.49-32.63,29.85-72.89,29.85c-40.25,0-72.89-13.36-72.89-29.85c0-16.49,32.63-29.85,72.89-29.85
		C139.47,69.36,172.1,82.73,172.1,99.21"/>
	
		<path style="clip-path:url(#SVGID_00000007395979600869438320000012562062518708091521_);fill-rule:evenodd;clip-rule:evenodd;fill:#815012;" d="
		M61.52,82.29h-6.49L40.5,103.76h6.78l2.59-3.93h8.6l0.63,3.93h6.45L61.52,82.29z M56.96,88c0.11,1.64,0.19,2.35,0.59,4.93L58,95.64
		h-5.67l1.7-2.68C55.14,91.19,56.22,89.38,56.96,88"/>
	
		<path style="clip-path:url(#SVGID_00000007395979600869438320000012562062518708091521_);fill-rule:evenodd;clip-rule:evenodd;fill:#815012;" d="
		M82.16,92.57c-0.78-0.74-1.22-1-1.85-1c-1.63,0-2.97,0.48-4,1.42c-0.89,0.84-1.45,1.97-1.89,3.87l-1.7,6.9h-5.86l3.78-15.57h5.82
		l-0.67,2.64c0.59-1.67,3.15-3.06,5.67-3.06c0.7,0,1.04,0.03,1.85,0.19L82.16,92.57z"/>
	
		<path style="clip-path:url(#SVGID_00000007395979600869438320000012562062518708091521_);fill-rule:evenodd;clip-rule:evenodd;fill:#815012;" d="
		M100.14,99.12H94.4c-0.56,0.9-1.52,1.32-3.08,1.32c-2.22,0-3.48-1.03-3.48-2.87c0-0.1,0-0.16,0.04-0.35h13.05l0.11-0.61
		c0.22-1.06,0.33-2.03,0.33-2.87c0-3.93-3.3-6.35-8.56-6.35c-6.49,0-10.49,3.74-10.49,9.8c0,4.58,3,7.03,8.56,7.03
		C95.73,104.21,98.99,102.44,100.14,99.12 M88.58,93.45c0.44-1.39,1.96-2.26,4-2.26c2.08,0,3.3,0.84,3.3,2.26H88.58z"/>
	
		<path style="clip-path:url(#SVGID_00000007395979600869438320000012562062518708091521_);fill-rule:evenodd;clip-rule:evenodd;fill:#815012;" d="
		M109.32,90.32c0.63-1.35,3.41-2.55,5.89-2.55c3.19,0,5.3,1.61,5.3,4.03c0,0.58-0.15,1.74-0.37,2.58l-2.3,9.38h-5.82l2.19-8.96
		c0.15-0.52,0.19-0.94,0.19-1.32c0-1.19-0.78-1.84-2.19-1.84c-2.04,0-3.48,1.32-4.08,3.74l-2.04,8.38h-5.89l3.78-15.57h5.86
		L109.32,90.32z"/>
	
		<path style="clip-path:url(#SVGID_00000007395979600869438320000012562062518708091521_);fill-rule:evenodd;clip-rule:evenodd;fill:#815012;" d="
		M122.25,92.93h5.52c0.41-0.97,1.26-1.35,3.04-1.35c1.67,0,2.59,0.48,2.59,1.42c0,1.45-0.52,1.68-4.67,1.93
		c-3.49,0.23-5.34,0.65-6.82,1.52c-1.33,0.81-2.11,2.16-2.11,3.61c0,2.61,2.19,4.19,5.75,4.19c2.45,0,4.41-0.68,5.75-2
		c-0.07,0.52-0.07,0.68-0.07,0.94c0,0.22,0,0.32,0.11,0.58h6.04c-0.15-0.45-0.22-0.81-0.22-1.26c0-0.68,0.11-1.26,0.44-2.64
		l1.34-5.32c0.33-1.35,0.44-2.03,0.44-2.71c0-2.61-2.89-4.06-8.12-4.06c-3.48,0-5.6,0.58-7.12,1.9
		C123.14,90.58,122.54,91.58,122.25,92.93 M132.63,96.54l-0.33,1.16c-0.52,1.94-1.67,2.74-3.82,2.74c-1.41,0-2.26-0.55-2.26-1.48
		c0-1.22,0.78-1.61,3.71-1.84C131.37,96.99,132.14,96.83,132.63,96.54"/>
	
		<path style="clip-path:url(#SVGID_00000007395979600869438320000012562062518708091521_);fill-rule:evenodd;clip-rule:evenodd;fill:#815012;" d="
		M151.8,92.77c-0.11-0.77-0.85-1.13-2.45-1.13c-1.37,0-2.26,0.52-2.26,1.35c0,0.71,0.59,1.03,2.41,1.42l2.22,0.42
		c2.85,0.58,4.37,2,4.37,4.12c0,3.22-3.37,5.19-8.75,5.19c-5.19,0-8.12-1.84-8.12-5.06c0-0.1,0-0.22,0.04-0.42h5.45
		c0,1.16,0.89,1.71,2.71,1.71c1.52,0,2.48-0.61,2.48-1.51c0-0.77-0.67-1.23-2.45-1.61l-2.08-0.42c-2.97-0.61-4.34-1.9-4.34-4
		c0-3.13,3.15-5.03,8.34-5.03c5.08,0,7.75,1.58,7.75,4.58v0.39H151.8z"/>
	
		<path style="clip-path:url(#SVGID_00000007395979600869438320000012562062518708091521_);fill-rule:evenodd;clip-rule:evenodd;fill:#DA231F;" d="
		M86.21,81.64h0.91c0.65,0,0.92,0.19,0.92,0.67c0,0.55-0.34,0.78-1.17,0.78h-1.01L86.21,81.64z M84.88,80.59l-1.32,5.42h1.58
		l0.45-1.81h1.22c0.86,0,1.44-0.11,1.85-0.33c0.62-0.35,0.99-0.99,0.99-1.72c0-0.61-0.19-0.99-0.62-1.25
		c-0.37-0.23-0.8-0.31-1.63-0.31H84.88z M92.68,84.18l-0.08,0.29c-0.13,0.49-0.42,0.69-0.96,0.69c-0.36,0-0.57-0.14-0.57-0.37
		c0-0.31,0.2-0.41,0.94-0.46C92.36,84.3,92.56,84.26,92.68,84.18 M90.06,83.27h1.39c0.1-0.24,0.32-0.34,0.77-0.34
		c0.42,0,0.65,0.12,0.65,0.36c0,0.37-0.13,0.42-1.18,0.49c-0.88,0.06-1.35,0.16-1.72,0.38c-0.34,0.2-0.53,0.54-0.53,0.91
		c0,0.66,0.55,1.06,1.45,1.06c0.62,0,1.11-0.17,1.45-0.5c-0.02,0.13-0.02,0.17-0.02,0.24c0,0.06,0,0.08,0.03,0.15h1.52
		c-0.04-0.11-0.06-0.2-0.06-0.32c0-0.17,0.03-0.32,0.11-0.67l0.34-1.34c0.08-0.34,0.11-0.51,0.11-0.68c0-0.66-0.73-1.03-2.05-1.03
		c-0.88,0-1.41,0.15-1.8,0.48C90.29,82.68,90.14,82.93,90.06,83.27 M96.87,82.61c0.16-0.34,0.86-0.64,1.49-0.64
		c0.8,0,1.34,0.41,1.34,1.02c0,0.15-0.04,0.44-0.09,0.65l-0.58,2.37h-1.47l0.55-2.26c0.04-0.13,0.05-0.24,0.05-0.33
		c0-0.3-0.2-0.46-0.55-0.46c-0.51,0-0.88,0.33-1.03,0.94l-0.51,2.12h-1.49l0.95-3.93h1.48L96.87,82.61z M103.22,84.18l-0.08,0.29
		c-0.13,0.49-0.42,0.69-0.96,0.69c-0.35,0-0.57-0.14-0.57-0.37c0-0.31,0.2-0.41,0.94-0.46C102.9,84.3,103.1,84.26,103.22,84.18
		 M100.6,83.27h1.39c0.1-0.24,0.32-0.34,0.77-0.34c0.42,0,0.66,0.12,0.66,0.36c0,0.37-0.13,0.42-1.18,0.49
		c-0.88,0.06-1.35,0.16-1.72,0.38c-0.34,0.2-0.53,0.54-0.53,0.91c0,0.66,0.55,1.06,1.45,1.06c0.62,0,1.11-0.17,1.45-0.5
		c-0.02,0.13-0.02,0.17-0.02,0.24c0,0.06,0,0.08,0.03,0.15h1.53c-0.04-0.11-0.06-0.2-0.06-0.32c0-0.17,0.03-0.32,0.11-0.67
		l0.34-1.34c0.08-0.34,0.11-0.51,0.11-0.68c0-0.66-0.73-1.03-2.05-1.03c-0.88,0-1.41,0.15-1.8,0.48
		C100.82,82.68,100.67,82.93,100.6,83.27 M108.21,82.95c0.41,0.02,0.66,0.28,0.66,0.68c0,0.87-0.47,1.51-1.11,1.51
		c-0.45,0-0.7-0.25-0.7-0.72c0-0.86,0.46-1.46,1.11-1.46H108.21z M111.09,80.59h-1.47l-0.4,1.64c-0.03,0.11-0.05,0.18-0.08,0.36
		c-0.25-0.41-0.69-0.62-1.33-0.62c-1.35,0-2.33,1.06-2.33,2.51c0,1.03,0.62,1.62,1.68,1.62c0.59,0,1.01-0.18,1.31-0.58
		c-0.03,0.13-0.05,0.18-0.07,0.26l-0.04,0.22h1.4L111.09,80.59z M112.55,83.4c0.11-0.35,0.5-0.57,1.01-0.57
		c0.52,0,0.83,0.21,0.83,0.57H112.55z M115.47,84.83h-1.45c-0.14,0.23-0.38,0.33-0.78,0.33c-0.56,0-0.88-0.26-0.88-0.72
		c0-0.02,0-0.04,0.01-0.09h3.29l0.03-0.15c0.06-0.27,0.08-0.51,0.08-0.72c0-0.99-0.83-1.6-2.16-1.6c-1.64,0-2.65,0.94-2.65,2.47
		c0,1.16,0.76,1.77,2.16,1.77C114.36,86.12,115.18,85.67,115.47,84.83 M119.83,83.18c-0.2-0.19-0.31-0.25-0.47-0.25
		c-0.41,0-0.75,0.12-1.01,0.36c-0.22,0.21-0.37,0.5-0.48,0.98l-0.43,1.74h-1.48l0.96-3.93h1.47l-0.17,0.67
		c0.15-0.42,0.79-0.77,1.43-0.77c0.18,0,0.26,0.01,0.47,0.05L119.83,83.18z M121.84,81.6h-1.01l0.93-1.1h1.63L121.84,81.6z
		 M121.07,86.01h-1.47l0.95-3.93h1.48L121.07,86.01z M125.32,84.18l-0.08,0.29c-0.13,0.49-0.42,0.69-0.96,0.69
		c-0.36,0-0.57-0.14-0.57-0.37c0-0.31,0.2-0.41,0.94-0.46C125,84.3,125.2,84.26,125.32,84.18 M122.7,83.27h1.39
		c0.1-0.24,0.32-0.34,0.77-0.34c0.42,0,0.65,0.12,0.65,0.36c0,0.37-0.13,0.42-1.18,0.49c-0.88,0.06-1.35,0.16-1.72,0.38
		c-0.34,0.2-0.53,0.54-0.53,0.91c0,0.66,0.55,1.06,1.45,1.06c0.62,0,1.11-0.17,1.45-0.5c-0.02,0.13-0.02,0.17-0.02,0.24
		c0,0.06,0,0.08,0.03,0.15h1.52c-0.04-0.11-0.06-0.2-0.06-0.32c0-0.17,0.03-0.32,0.11-0.67l0.34-1.34c0.08-0.34,0.11-0.51,0.11-0.68
		c0-0.66-0.73-1.03-2.05-1.03c-0.88,0-1.41,0.15-1.8,0.48C122.92,82.68,122.77,82.93,122.7,83.27"/>
	
		<path style="clip-path:url(#SVGID_00000007395979600869438320000012562062518708091521_);fill-rule:evenodd;clip-rule:evenodd;fill:#DA231F;" d="
		M157.33,109.53c0,1.69-1.37,3.06-3.06,3.06H44.85c-1.69,0-3.06-1.37-3.06-3.06c0-1.69,1.37-3.06,3.06-3.06h109.43
		C155.96,106.47,157.33,107.84,157.33,109.53"/>
	
		<path style="clip-path:url(#SVGID_00000007395979600869438320000012562062518708091521_);fill-rule:evenodd;clip-rule:evenodd;fill:#FFFFFF;" d="
		M150.63,108.89v-0.03c0-0.39-0.28-0.58-0.82-0.58c-0.51,0-0.83,0.2-0.83,0.52c0,0.26,0.19,0.39,0.79,0.52
		c0.39,0.09,0.55,0.13,0.71,0.22c0.11,0.06,0.2,0.14,0.26,0.23c0.08,0.12,0.13,0.26,0.13,0.42c0,0.58-0.55,0.94-1.38,0.94
		c-0.88,0-1.36-0.35-1.36-1.01v-0.06h0.45v0.02c0,0.5,0.28,0.72,0.91,0.72c0.57,0,0.93-0.23,0.93-0.59c0-0.29-0.16-0.4-0.77-0.53
		c-0.44-0.1-0.58-0.14-0.75-0.24c-0.11-0.06-0.2-0.14-0.26-0.24c-0.06-0.11-0.1-0.23-0.1-0.36c0-0.53,0.5-0.88,1.28-0.88
		c0.79,0,1.25,0.33,1.25,0.88c0,0.02,0,0.03,0,0.07H150.63z M146.63,108.34h-1.99l-0.24,0.98h1.85l-0.07,0.33h-1.85l-0.27,1.08h2.01
		l-0.08,0.33h-2.46l0.75-3.07h2.44L146.63,108.34z M139.77,110.72h1.89l-0.08,0.33h-2.34l0.75-3.07h0.45L139.77,110.72z
		 M137.77,108.34h-1.99l-0.24,0.98h1.85l-0.08,0.33h-1.85l-0.27,1.08h2.01l-0.08,0.33h-2.46l0.75-3.07h2.44L137.77,108.34z
		 M133.41,108.32h-1.2l-0.67,2.74h-0.45l0.66-2.74h-1.2l0.08-0.33h2.85L133.41,108.32z M128.08,108.89v-0.03
		c0-0.39-0.28-0.58-0.82-0.58c-0.51,0-0.83,0.2-0.83,0.52c0,0.26,0.19,0.39,0.79,0.52c0.39,0.09,0.55,0.13,0.71,0.22
		c0.11,0.06,0.2,0.14,0.26,0.23c0.08,0.12,0.13,0.26,0.13,0.42c0,0.58-0.55,0.94-1.38,0.94c-0.88,0-1.36-0.35-1.36-1.01v-0.06h0.45
		v0.02c0,0.5,0.28,0.72,0.91,0.72c0.57,0,0.93-0.23,0.93-0.59c0-0.29-0.16-0.4-0.77-0.53c-0.44-0.1-0.58-0.14-0.75-0.24
		c-0.11-0.06-0.2-0.14-0.26-0.24c-0.06-0.11-0.1-0.23-0.1-0.36c0-0.53,0.5-0.88,1.28-0.88c0.79,0,1.25,0.33,1.25,0.88
		c0,0.02,0,0.03,0,0.07H128.08z M123.05,107.99h-0.52l-2.13,3.07h0.52l0.63-0.94h1.48l0.17,0.94h0.48L123.05,107.99z M122.71,108.33
		c0.03,0.19,0.04,0.25,0.08,0.49l0.05,0.23l0.14,0.74h-1.21l0.38-0.57C122.47,108.73,122.53,108.63,122.71,108.33 M117.14,107.99
		l-0.75,3.07h0.45l0.31-1.26h0.89c0.55,0,0.76-0.03,0.98-0.15c0.32-0.17,0.51-0.5,0.51-0.86c0-0.25-0.11-0.47-0.31-0.61
		c-0.19-0.14-0.42-0.18-0.89-0.18H117.14z M117.51,108.32h0.68c0.3,0,0.42,0.01,0.55,0.04c0.2,0.06,0.33,0.23,0.33,0.46
		c0,0.21-0.11,0.41-0.3,0.53c-0.14,0.09-0.3,0.11-0.74,0.11h-0.81L117.51,108.32z M111.58,109.5c0,0.21-0.19,0.37-0.43,0.37
		c-0.24,0-0.43-0.17-0.43-0.37c0-0.21,0.19-0.38,0.43-0.38C111.39,109.12,111.58,109.29,111.58,109.5 M105.31,108.89v-0.03
		c0-0.39-0.28-0.58-0.82-0.58c-0.51,0-0.83,0.2-0.83,0.52c0,0.26,0.19,0.39,0.79,0.52c0.39,0.09,0.55,0.13,0.71,0.22
		c0.11,0.06,0.2,0.14,0.26,0.23c0.08,0.12,0.13,0.26,0.13,0.42c0,0.58-0.55,0.94-1.38,0.94c-0.88,0-1.36-0.35-1.36-1.01v-0.06h0.45
		v0.02c0,0.5,0.28,0.72,0.91,0.72c0.57,0,0.93-0.23,0.93-0.59c0-0.29-0.16-0.4-0.77-0.53c-0.44-0.1-0.58-0.14-0.75-0.24
		c-0.11-0.06-0.2-0.14-0.26-0.24c-0.06-0.11-0.1-0.23-0.1-0.36c0-0.53,0.5-0.88,1.28-0.88c0.79,0,1.25,0.33,1.25,0.88
		c0,0.02,0,0.03,0,0.07H105.31z M100.28,107.99h-0.52l-2.13,3.07h0.52l0.63-0.94h1.48l0.18,0.94h0.48L100.28,107.99z M99.94,108.33
		c0.03,0.19,0.04,0.25,0.08,0.49l0.05,0.23l0.14,0.74h-1.21l0.38-0.57C99.7,108.73,99.76,108.63,99.94,108.33 M97.02,108.32h-1.2
		l-0.67,2.74h-0.45l0.66-2.74h-1.2l0.08-0.33h2.85L97.02,108.32z M92.34,108.34h-1.99l-0.24,0.98h1.85l-0.07,0.33h-1.85l-0.27,1.08
		h2.01l-0.08,0.33h-2.46l0.75-3.07h2.44L92.34,108.34z M85.48,110.72h1.89l-0.08,0.33h-2.34l0.75-3.07h0.45L85.48,110.72z
		 M81.19,110.72h1.89L83,111.06h-2.34l0.75-3.07h0.45L81.19,110.72z M78.16,107.99h-0.52l-2.13,3.07h0.52l0.63-0.94h1.48l0.18,0.94
		h0.48L78.16,107.99z M77.83,108.33c0.03,0.19,0.04,0.25,0.08,0.49l0.05,0.23l0.14,0.74h-1.21l0.38-0.57
		C77.59,108.73,77.65,108.63,77.83,108.33 M73.58,111.06h-0.3l-0.01-0.18l-0.01-0.06l0-0.07c-0.28,0.29-0.62,0.4-1.11,0.4
		c-0.91,0-1.45-0.49-1.45-1.32c0-1.11,0.8-1.88,1.96-1.88c0.85,0,1.36,0.38,1.38,1.01h-0.46c-0.05-0.44-0.37-0.67-0.94-0.67
		c-0.87,0-1.48,0.64-1.48,1.55c0,0.61,0.39,0.98,1.05,0.98c0.67,0,1.06-0.32,1.27-1.04h-1.13l0.08-0.33h1.54L73.58,111.06z
		 M65.72,109.5c0,0.21-0.19,0.37-0.43,0.37s-0.43-0.17-0.43-0.37c0-0.21,0.19-0.38,0.43-0.38S65.72,109.29,65.72,109.5
		 M59.34,111.06h-0.52l-1-2.04l-0.09-0.18c-0.07-0.15-0.1-0.23-0.16-0.41c-0.03,0.21-0.08,0.45-0.18,0.88l-0.42,1.75h-0.45
		l0.75-3.07h0.51l0.99,2.03c0.11,0.22,0.2,0.43,0.27,0.61l0.02-0.1c0.06-0.3,0.13-0.65,0.2-0.93l0.39-1.61h0.46L59.34,111.06z
		 M54.04,107.99h-0.52l-2.13,3.07h0.52l0.63-0.94h1.48l0.17,0.94h0.48L54.04,107.99z M53.7,108.33c0.03,0.19,0.04,0.25,0.08,0.49
		l0.05,0.23l0.14,0.74h-1.21l0.38-0.57C53.46,108.73,53.53,108.63,53.7,108.33 M48.14,107.99l-0.75,3.07h0.45l0.31-1.26h0.89
		c0.54,0,0.76-0.03,0.98-0.15c0.32-0.17,0.51-0.5,0.51-0.86c0-0.25-0.11-0.47-0.31-0.61c-0.19-0.14-0.42-0.18-0.89-0.18H48.14z
		 M48.51,108.32h0.68c0.3,0,0.42,0.01,0.55,0.04c0.2,0.06,0.33,0.23,0.33,0.46c0,0.21-0.11,0.41-0.3,0.53
		c-0.14,0.09-0.3,0.11-0.74,0.11h-0.81L48.51,108.32z"/>
	
		<path style="clip-path:url(#SVGID_00000007395979600869438320000012562062518708091521_);fill-rule:evenodd;clip-rule:evenodd;fill:#815012;" d="
		M157.17,102.17c-1.1,0-1.99,0.8-1.99,1.79c0,0.99,0.89,1.79,1.99,1.79c1.09,0,1.98-0.8,1.98-1.79
		C159.15,102.97,158.26,102.17,157.17,102.17 M157.17,102.49c0.9,0,1.62,0.65,1.62,1.47c0,0.81-0.73,1.47-1.62,1.47
		c-0.9,0-1.63-0.66-1.63-1.47C155.54,103.15,156.27,102.49,157.17,102.49 M156.33,103.03v1.83h0.38v-0.75h0.45
		c0.4,0,0.47,0.07,0.5,0.45c0.01,0.2,0.02,0.22,0.06,0.3h0.37c-0.04-0.11-0.04-0.12-0.04-0.16l-0.01-0.07l-0.01-0.12l-0.02-0.13
		c0-0.05-0.01-0.09-0.03-0.14c-0.02-0.06-0.03-0.1-0.05-0.12l-0.09-0.1l-0.01-0.09c0.17-0.13,0.22-0.22,0.22-0.39
		c0-0.34-0.27-0.52-0.78-0.52H156.33z M156.7,103.3h0.5c0.32,0,0.48,0.08,0.48,0.28c0,0.18-0.16,0.28-0.52,0.28h-0.46V103.3z"/>
</g>
</svg>
