<?xml version="1.0" encoding="utf-8"?>
<!-- Generator: Adobe Illustrator 28.0.0, SVG Export Plug-In . SVG Version: 6.00 Build 0)  -->
<svg version="1.1" id="Layer_1" xmlns="http://www.w3.org/2000/svg" xmlns:xlink="http://www.w3.org/1999/xlink" x="0px" y="0px"
	 viewBox="0 0 198.43 198.43" style="enable-background:new 0 0 198.43 198.43;" xml:space="preserve">
<style type="text/css">
	.st0{fill-rule:evenodd;clip-rule:evenodd;fill:#442C1B;}
	
		.st1{clip-path:url(#SVGID_00000088108565013105290330000001923393668685066430_);fill-rule:evenodd;clip-rule:evenodd;fill:#442C1B;}
</style>
<path class="st0" d="M32.84,100.16h2.34l-1.15-3.66L32.84,100.16z M39.69,106.44h-2.57l-1.34-4.31h-3.54l-1.35,4.31h-2.43
	l4.67-13.64h2.04L39.69,106.44z"/>
<g>
	<defs>
		<rect id="SVGID_1_" x="24.26" y="86.09" width="149.9" height="26.25"/>
	</defs>
	<clipPath id="SVGID_00000019660385477924327510000009016352940743345054_">
		<use xlink:href="#SVGID_1_"  style="overflow:visible;"/>
	</clipPath>
	
		<path style="clip-path:url(#SVGID_00000019660385477924327510000009016352940743345054_);fill-rule:evenodd;clip-rule:evenodd;fill:#442C1B;" d="
		M44.82,106.64c-0.48,0-0.96-0.04-1.4-0.11c-0.4-0.07-0.81-0.18-1.23-0.35c-0.41-0.18-0.77-0.38-1.1-0.61
		c-0.35-0.26-0.68-0.55-0.99-0.87l-0.34-0.36l1.78-1.66l0.34,0.37c0.36,0.39,0.79,0.74,1.29,1.02c0.48,0.28,1.04,0.42,1.66,0.42
		c0.72,0,1.27-0.16,1.67-0.48c0.38-0.29,0.56-0.7,0.56-1.28c0-0.55-0.16-0.93-0.48-1.17c-0.41-0.32-1.04-0.63-1.91-0.95l-0.02-0.01
		l-0.68-0.28c-1.05-0.38-1.9-0.87-2.59-1.49c-0.75-0.66-1.14-1.56-1.14-2.67c0-1.14,0.45-2.05,1.33-2.71
		c0.83-0.64,1.88-0.96,3.12-0.96c0.94,0,1.74,0.15,2.38,0.43c0.65,0.29,1.22,0.7,1.75,1.23l0.32,0.33l-1.45,1.65l-0.37-0.36
		c-0.3-0.28-0.66-0.55-1.12-0.8c-0.39-0.22-0.89-0.33-1.49-0.33c-0.63,0-1.15,0.15-1.55,0.43c-0.36,0.26-0.53,0.56-0.53,0.94
		c0,0.51,0.2,0.88,0.61,1.18c0.5,0.34,1.04,0.62,1.6,0.83l1.21,0.5c1.31,0.5,2.19,1.04,2.7,1.64c0.51,0.62,0.77,1.43,0.77,2.41
		c0,1.29-0.47,2.32-1.4,3.04C47.19,106.29,46.09,106.64,44.82,106.64"/>
	
		<polygon style="clip-path:url(#SVGID_00000019660385477924327510000009016352940743345054_);fill-rule:evenodd;clip-rule:evenodd;fill:#442C1B;" points="
		55.82,106.44 53.46,106.44 53.46,94.95 49.55,94.95 49.55,92.8 59.76,92.8 59.76,94.95 55.82,94.95 	"/>
	
		<path style="clip-path:url(#SVGID_00000019660385477924327510000009016352940743345054_);fill-rule:evenodd;clip-rule:evenodd;fill:#442C1B;" d="
		M63.25,99.01h0.83c0.95,0,1.69-0.21,2.18-0.62c0.48-0.4,0.71-0.89,0.71-1.5c0-0.72-0.19-1.24-0.55-1.53
		c-0.28-0.22-0.87-0.48-2.13-0.48h-1.04V99.01z M70.67,106.44h-2.8l-3.26-5.42c-0.3,0.01-0.79,0.01-1.37,0.02v5.4h-2.36V92.8h3.93
		c1.46,0,2.6,0.36,3.37,1.08c0.79,0.72,1.19,1.74,1.19,3.03c0,0.87-0.31,1.68-0.91,2.42c-0.44,0.53-0.93,0.92-1.47,1.18
		L70.67,106.44z"/>
	
		<rect x="72.44" y="92.8" style="clip-path:url(#SVGID_00000019660385477924327510000009016352940743345054_);fill-rule:evenodd;clip-rule:evenodd;fill:#442C1B;" width="2.36" height="13.64"/>
	
		<path style="clip-path:url(#SVGID_00000019660385477924327510000009016352940743345054_);fill-rule:evenodd;clip-rule:evenodd;fill:#442C1B;" d="
		M79.92,104.39h0.53c1.38,0,2.41-0.4,3.17-1.24c0.76-0.84,1.15-2.11,1.15-3.8c0-1.46-0.36-2.59-1.07-3.36
		c-0.7-0.76-1.78-1.15-3.22-1.15h-0.56V104.39z M80.66,106.44h-3.11V92.8h3.2c2.15,0,3.78,0.61,4.87,1.81
		c1.07,1.19,1.61,2.8,1.61,4.78c0,2.22-0.57,3.97-1.7,5.19C84.4,105.81,82.76,106.44,80.66,106.44"/>
	
		<path style="clip-path:url(#SVGID_00000019660385477924327510000009016352940743345054_);fill-rule:evenodd;clip-rule:evenodd;fill:#442C1B;" d="
		M108.8,106.64c-1.75,0-3.15-0.69-4.16-2.06c-0.98-1.32-1.48-3.03-1.48-5.07c0-1.91,0.48-3.56,1.44-4.92
		c0.99-1.41,2.41-2.12,4.2-2.12c0.97,0,1.72,0.11,2.3,0.34c0.54,0.22,1.11,0.61,1.76,1.21l0.37,0.34l-1.55,1.62l-0.36-0.33
		c-0.41-0.38-0.77-0.64-1.12-0.79c-0.34-0.16-0.82-0.24-1.44-0.24c-0.93,0-1.66,0.43-2.24,1.31c-0.61,0.93-0.92,2.06-0.92,3.36
		c0,1.71,0.35,3.03,1.03,3.91c0.66,0.86,1.43,1.28,2.33,1.28c0.48,0,0.91-0.03,1.34-0.1c0.33-0.06,0.61-0.11,0.84-0.17v-4.85h2.36
		v6.37l-0.31,0.12c-0.45,0.18-1.02,0.35-1.79,0.53C110.6,106.55,109.73,106.64,108.8,106.64"/>
	
		<path style="clip-path:url(#SVGID_00000019660385477924327510000009016352940743345054_);fill-rule:evenodd;clip-rule:evenodd;fill:#442C1B;" d="
		M118.91,100.16h2.34l-1.15-3.66L118.91,100.16z M125.76,106.44h-2.56l-1.36-4.31h-3.54l-1.35,4.31h-2.42l4.66-13.64h2.04
		L125.76,106.44z"/>
	
		<path style="clip-path:url(#SVGID_00000019660385477924327510000009016352940743345054_);fill-rule:evenodd;clip-rule:evenodd;fill:#442C1B;" d="
		M130.89,106.64c-0.47,0-0.94-0.04-1.4-0.11c-0.4-0.07-0.8-0.18-1.23-0.35c-0.41-0.18-0.77-0.38-1.1-0.62
		c-0.34-0.25-0.67-0.54-0.98-0.87l-0.34-0.36l1.78-1.66l0.34,0.38c0.34,0.37,0.77,0.72,1.28,1.02c0.49,0.28,1.03,0.42,1.66,0.42
		c0.73,0,1.28-0.16,1.68-0.48c0.38-0.29,0.56-0.7,0.56-1.28c0-0.55-0.16-0.93-0.48-1.17c-0.41-0.32-1.03-0.63-1.91-0.95l-0.02-0.01
		l-0.68-0.28c-1.05-0.38-1.9-0.87-2.59-1.49c-0.75-0.67-1.14-1.56-1.14-2.67c0-1.14,0.45-2.06,1.32-2.71
		c0.83-0.64,1.89-0.96,3.13-0.96c0.94,0,1.74,0.15,2.37,0.44c0.65,0.29,1.22,0.7,1.75,1.23l0.32,0.33l-1.44,1.65l-0.37-0.35
		c-0.32-0.3-0.69-0.56-1.12-0.81c-0.39-0.22-0.89-0.33-1.49-0.33c-0.64,0-1.15,0.14-1.56,0.43c-0.36,0.26-0.53,0.55-0.53,0.94
		c0,0.51,0.19,0.88,0.61,1.17c0.51,0.34,1.05,0.62,1.59,0.83l1.21,0.5c1.31,0.5,2.2,1.04,2.7,1.64c0.51,0.63,0.77,1.43,0.77,2.4
		c0,1.29-0.47,2.32-1.4,3.04C133.26,106.29,132.16,106.64,130.89,106.64"/>
	
		<polygon style="clip-path:url(#SVGID_00000019660385477924327510000009016352940743345054_);fill-rule:evenodd;clip-rule:evenodd;fill:#442C1B;" points="
		141.9,106.44 139.54,106.44 139.54,94.95 135.62,94.95 135.62,92.8 145.83,92.8 145.83,94.95 141.9,94.95 	"/>
	
		<path style="clip-path:url(#SVGID_00000019660385477924327510000009016352940743345054_);fill-rule:evenodd;clip-rule:evenodd;fill:#442C1B;" d="
		M150.64,92.36l-1.13-1.13l3.15-3.54l1.66,1.81L150.64,92.36z M152.08,94.62c-1.17,0-2.06,0.42-2.72,1.28
		c-0.69,0.91-1.03,2.05-1.03,3.47c0,1.66,0.36,2.96,1.08,3.84c0.7,0.85,1.56,1.26,2.62,1.26c0.9,0,1.7-0.42,2.44-1.28
		c0.74-0.87,1.12-2.21,1.12-3.96c0-1.11-0.3-2.19-0.91-3.21C154.13,95.08,153.28,94.62,152.08,94.62 M151.96,106.64
		c-1.93,0-3.46-0.69-4.52-2.05c-1.03-1.32-1.55-3.07-1.55-5.21c0-1.95,0.59-3.6,1.76-4.92c1.19-1.32,2.67-1.98,4.4-1.98
		c1.9,0,3.39,0.67,4.45,2c1.03,1.32,1.54,3.05,1.54,5.13c0,1.96-0.58,3.63-1.71,4.98C155.19,105.95,153.71,106.64,151.96,106.64"/>
	
		<polygon style="clip-path:url(#SVGID_00000019660385477924327510000009016352940743345054_);fill-rule:evenodd;clip-rule:evenodd;fill:#442C1B;" points="
		169.97,106.44 167.88,106.44 162.31,97.32 162.31,106.44 159.96,106.44 159.95,92.8 162.1,92.8 167.61,101.94 167.61,92.8 
		169.97,92.8 	"/>
	
		<path style="clip-path:url(#SVGID_00000019660385477924327510000009016352940743345054_);fill-rule:evenodd;clip-rule:evenodd;fill:#442C1B;" d="
		M93.19,95.18c-0.43,0.44-0.3,0.75-0.07,1.15l0.03,0.05c0.08,0.13,0.36,0.46,0.63,0.74c1.17-0.74,1.37-1.28,1.38-1.55
		c0.01-0.31-0.22-0.52-0.28-0.57c-0.22-0.11-0.45-0.17-0.69-0.17C93.65,94.83,93.25,95.13,93.19,95.18 M93.02,100.51
		c-0.47,0.39-1.28,1.22-1.06,2.29c0.03,0.12,0.34,1.29,1.86,1.29c0.49,0,1.06-0.12,1.7-0.36c0.05-0.02,0.13-0.05,0.24-0.12
		l-1.88-2.1c-0.07-0.08-0.13-0.16-0.2-0.24l-0.08-0.1C93.4,100.94,93.21,100.72,93.02,100.51 M93.83,106.65
		c-0.7,0-1.31-0.09-1.88-0.27c-0.56-0.18-1.06-0.45-1.48-0.8c-0.42-0.36-0.74-0.8-0.96-1.31c-0.22-0.5-0.33-1.06-0.33-1.69
		c0-0.58,0.08-1.08,0.25-1.52c0.16-0.43,0.38-0.82,0.65-1.17c0.28-0.34,0.59-0.64,0.93-0.89c0.16-0.12,0.33-0.24,0.5-0.35
		c-0.07-0.07-0.13-0.15-0.19-0.22c-0.22-0.29-0.4-0.52-0.55-0.79c-0.16-0.28-0.29-0.57-0.4-0.88c-0.11-0.33-0.15-0.66-0.15-1.02
		c0-0.57,0.13-1.08,0.4-1.51c0.23-0.4,0.56-0.75,0.97-1.04c0.41-0.28,0.84-0.48,1.29-0.61c0.49-0.14,0.94-0.2,1.39-0.2
		c0.47,0,0.92,0.06,1.33,0.17c0.45,0.13,0.82,0.3,1.14,0.54c0.34,0.27,0.61,0.59,0.8,0.96c0.19,0.35,0.29,0.79,0.29,1.3
		c0.01,0.48-0.07,0.92-0.25,1.35c-0.2,0.45-0.43,0.8-0.71,1.08c-0.52,0.52-1.07,0.93-1.45,1.19c0.12,0.14,0.24,0.29,0.34,0.41
		c0.12,0.14,0.24,0.28,0.36,0.42c0.16,0.18,0.31,0.36,0.47,0.54c0.27,0.31,0.55,0.61,0.83,0.93c0.12,0.12,0.27,0.29,0.42,0.45
		c0.22-0.32,0.55-0.86,0.96-1.66l0.14-0.27h2.92l-0.29,0.69c-0.22,0.52-0.52,1.08-0.9,1.66c-0.28,0.45-0.62,0.92-1.02,1.43
		l2.77,2.78h-4.21l-0.7-0.74c-0.4,0.28-0.86,0.51-1.38,0.69C95.45,106.53,94.67,106.65,93.83,106.65"/>
</g>
</svg>
