<?xml version="1.0" encoding="utf-8"?>
<!-- Generator: Adobe Illustrator 28.0.0, SVG Export Plug-In . SVG Version: 6.00 Build 0)  -->
<svg version="1.1" id="Layer_1" xmlns="http://www.w3.org/2000/svg" xmlns:xlink="http://www.w3.org/1999/xlink" x="0px" y="0px"
	 viewBox="0 0 198.43 198.43" style="enable-background:new 0 0 198.43 198.43;" xml:space="preserve">
<style type="text/css">
	.st0{fill-rule:evenodd;clip-rule:evenodd;fill:#827DA9;}
	.st1{fill:none;stroke:#827DA9;stroke-width:0.433;stroke-miterlimit:2.414;}
</style>
<g>
	<path class="st0" d="M35.9,85.35l-11.64,26.71h3.31l3.34-7.87h10.02l3.34,7.87h3.3L35.9,85.35z M35.9,92.11l4.09,9.45h-8.18
		L35.9,92.11z M74.11,113.07l10.81-26.72h-3.3l-7.5,19.66l-7.54-19.66h-3.31L74.11,113.07z M130.49,99.26
		c0-3.67-1.36-7.01-3.98-9.56c-2.58-2.52-6.1-3.92-9.73-3.92c-3.63,0-7.11,1.4-9.69,3.92c-2.62,2.55-4.02,5.9-4.02,9.56
		c0,3.67,1.4,6.97,4.02,9.53c2.58,2.52,6.07,3.96,9.69,3.96c3.59,0,7.11-1.41,9.73-3.96C129.09,106.27,130.49,102.93,130.49,99.26
		 M116.78,109.87c-2.84,0-5.38-1.08-7.43-3.13c-2.01-2.05-3.09-4.6-3.09-7.48c0-2.88,1.08-5.5,3.09-7.55
		c1.97-2.01,4.59-3.09,7.43-3.09c2.84,0,5.42,1.08,7.43,3.09c2.01,2.01,3.09,4.67,3.09,7.55c0,2.88-1.08,5.46-3.09,7.48
		C122.16,108.79,119.58,109.87,116.78,109.87 M152.48,112.06h3.05v-19.3l18.63,20.32V86.36h-3.05v19.52l-18.63-20.53V112.06z"/>
	<path class="st1" d="M35.9,85.35l-11.64,26.71h3.31l3.34-7.87h10.02l3.34,7.87h3.3L35.9,85.35z M35.9,92.11l4.09,9.45h-8.18
		L35.9,92.11z M74.11,113.07l10.81-26.72h-3.3l-7.5,19.66l-7.54-19.66h-3.31L74.11,113.07z M130.49,99.26
		c0-3.67-1.36-7.01-3.98-9.56c-2.58-2.52-6.1-3.92-9.73-3.92c-3.63,0-7.11,1.4-9.69,3.92c-2.62,2.55-4.02,5.9-4.02,9.56
		c0,3.67,1.4,6.97,4.02,9.53c2.58,2.52,6.07,3.96,9.69,3.96c3.59,0,7.11-1.41,9.73-3.96C129.09,106.27,130.49,102.93,130.49,99.26z
		 M116.78,109.87c-2.84,0-5.38-1.08-7.43-3.13c-2.01-2.05-3.09-4.6-3.09-7.48c0-2.88,1.08-5.5,3.09-7.55
		c1.97-2.01,4.59-3.09,7.43-3.09c2.84,0,5.42,1.08,7.43,3.09c2.01,2.01,3.09,4.67,3.09,7.55c0,2.88-1.08,5.46-3.09,7.48
		C122.16,108.79,119.58,109.87,116.78,109.87z M152.48,112.06h3.05v-19.3l18.63,20.32V86.36h-3.05v19.52l-18.63-20.53V112.06z"/>
</g>
</svg>
