<?xml version="1.0" encoding="utf-8"?>
<!-- Generator: Adobe Illustrator 28.0.0, SVG Export Plug-In . SVG Version: 6.00 Build 0)  -->
<svg version="1.1" id="Layer_1" xmlns="http://www.w3.org/2000/svg" xmlns:xlink="http://www.w3.org/1999/xlink" x="0px" y="0px"
	 viewBox="0 0 198.43 198.43" style="enable-background:new 0 0 198.43 198.43;" xml:space="preserve">
<style type="text/css">
	.st0{fill:#00953A;}
	.st1{fill:#0055B8;}
	.st2{fill:#FFD100;}
	.st3{fill:none;stroke:#00953A;stroke-width:0.905;stroke-miterlimit:10;}
</style>
<g>
	<g>
		<path class="st0" d="M27.67,93.6v2.99c0.32-0.3,0.66-0.53,1.05-0.68c0.39-0.15,0.8-0.22,1.26-0.22c0.52,0,0.97,0.07,1.35,0.2
			c0.38,0.13,0.68,0.32,0.88,0.57c0.2,0.24,0.32,0.48,0.37,0.71c0.04,0.23,0.06,0.73,0.06,1.5v4.66c0,0.76-0.06,1.32-0.18,1.69
			c-0.12,0.37-0.41,0.69-0.86,0.97c-0.46,0.27-0.99,0.41-1.61,0.41c-0.45,0-0.86-0.08-1.25-0.24c-0.38-0.16-0.74-0.4-1.06-0.73
			l-0.25,0.78h-3.56V93.6H27.67z M28.82,98.81c0-0.53-0.04-0.88-0.12-1.05c-0.08-0.16-0.24-0.24-0.48-0.24
			c-0.23,0-0.38,0.07-0.45,0.21c-0.07,0.14-0.1,0.51-0.1,1.08v4.46c0,0.55,0.04,0.91,0.12,1.07c0.08,0.16,0.24,0.23,0.47,0.23
			c0.24,0,0.39-0.08,0.46-0.24c0.07-0.16,0.11-0.55,0.11-1.16V98.81z"/>
		<path class="st0" d="M37.27,99.88h-3.56v-0.69c0-0.8,0.11-1.42,0.33-1.85c0.22-0.43,0.67-0.82,1.34-1.15
			c0.67-0.33,1.54-0.5,2.61-0.5c1.29,0,2.26,0.19,2.91,0.57c0.65,0.38,1.04,0.84,1.18,1.39c0.13,0.55,0.2,1.68,0.2,3.38v5.19h-3.71
			v-0.92c-0.23,0.37-0.53,0.65-0.9,0.83c-0.36,0.18-0.8,0.27-1.31,0.27c-0.67,0-1.28-0.15-1.83-0.46c-0.56-0.31-0.83-0.98-0.83-2.03
			v-0.85c0-0.77,0.15-1.3,0.44-1.58c0.29-0.28,1.02-0.61,2.19-0.98c1.25-0.4,1.92-0.68,2.01-0.82c0.09-0.14,0.13-0.43,0.13-0.86
			c0-0.54-0.05-0.89-0.15-1.06c-0.1-0.16-0.26-0.24-0.49-0.24c-0.26,0-0.42,0.07-0.48,0.21c-0.06,0.14-0.1,0.49-0.1,1.07V99.88z
			 M38.49,101.3c-0.61,0.37-0.96,0.68-1.07,0.93c-0.09,0.25-0.15,0.61-0.15,1.07c0,0.54,0.05,0.88,0.13,1.04
			c0.08,0.16,0.26,0.23,0.5,0.23s0.4-0.06,0.47-0.18c0.07-0.12,0.11-0.44,0.11-0.96V101.3z"/>
		<path class="st0" d="M47.47,95.88l-0.07,0.95c0.27-0.38,0.61-0.67,1.01-0.85c0.4-0.19,0.87-0.29,1.38-0.29
			c0.65,0,1.19,0.13,1.6,0.38c0.42,0.26,0.68,0.58,0.8,0.96c0.12,0.39,0.18,1.03,0.18,1.93v7.25h-3.8v-7.16
			c0-0.71-0.03-1.14-0.09-1.3c-0.05-0.16-0.21-0.23-0.47-0.23c-0.27,0-0.44,0.09-0.51,0.27c-0.07,0.18-0.1,0.66-0.1,1.44v6.99h-3.8
			V95.88H47.47z"/>
		<path class="st1" d="M63.04,99.1h-3.96V96.9c0-0.64-0.04-1.04-0.13-1.19c-0.09-0.16-0.27-0.24-0.56-0.24
			c-0.32,0-0.53,0.1-0.62,0.29c-0.09,0.19-0.13,0.61-0.13,1.25v5.86c0,0.61,0.04,1.02,0.13,1.2c0.09,0.19,0.29,0.28,0.59,0.28
			c0.29,0,0.49-0.09,0.58-0.28c0.09-0.19,0.14-0.63,0.14-1.32v-1.58h3.96v0.49c0,1.3-0.11,2.23-0.33,2.78
			c-0.23,0.55-0.72,1.03-1.48,1.44c-0.76,0.41-1.7,0.62-2.82,0.62c-1.16,0-2.11-0.17-2.87-0.52c-0.75-0.35-1.25-0.83-1.5-1.45
			c-0.25-0.62-0.37-1.54-0.37-2.77v-3.69c0-0.91,0.04-1.59,0.12-2.04c0.07-0.46,0.3-0.89,0.68-1.31c0.37-0.42,0.88-0.75,1.55-1
			c0.66-0.24,1.42-0.36,2.28-0.36c1.16,0,2.13,0.19,2.89,0.56c0.76,0.37,1.27,0.84,1.5,1.4c0.24,0.56,0.36,1.43,0.36,2.6V99.1z"/>
		<path class="st1" d="M73.52,100.99c0,1.27-0.04,2.17-0.11,2.69c-0.07,0.53-0.3,1.01-0.68,1.45c-0.38,0.44-0.89,0.77-1.54,1.01
			c-0.64,0.23-1.4,0.35-2.26,0.35c-0.82,0-1.55-0.11-2.2-0.33c-0.65-0.22-1.17-0.55-1.57-0.99c-0.4-0.44-0.63-0.92-0.71-1.44
			c-0.07-0.52-0.11-1.43-0.11-2.73v-2.16c0-1.27,0.04-2.16,0.11-2.69c0.07-0.53,0.29-1.01,0.68-1.44c0.38-0.44,0.89-0.77,1.54-1.01
			c0.64-0.23,1.4-0.35,2.26-0.35c0.81,0,1.55,0.11,2.2,0.33c0.65,0.22,1.17,0.55,1.56,0.99c0.39,0.44,0.63,0.92,0.71,1.44
			c0.07,0.52,0.11,1.43,0.11,2.73V100.99z M69.56,96.84c0-0.59-0.04-0.96-0.12-1.12c-0.08-0.16-0.24-0.25-0.49-0.25
			c-0.21,0-0.37,0.07-0.48,0.2c-0.11,0.13-0.16,0.52-0.16,1.17v5.89c0,0.73,0.04,1.18,0.11,1.35c0.07,0.17,0.24,0.26,0.5,0.26
			c0.27,0,0.45-0.1,0.52-0.3c0.07-0.19,0.11-0.66,0.11-1.41V96.84z"/>
		<path class="st1" d="M75,93.6h2.97c1.91,0,3.21,0.07,3.88,0.22c0.68,0.15,1.19,0.39,1.54,0.72c0.35,0.33,0.57,0.7,0.66,1.11
			c0.09,0.41,0.13,1.21,0.13,2.4v4.42c0,1.13-0.06,1.89-0.19,2.27c-0.13,0.38-0.35,0.68-0.67,0.89c-0.32,0.22-0.72,0.36-1.18,0.45
			c-0.47,0.08-1.18,0.13-2.13,0.13h-5V93.6z M78.97,95.76v8.3c0.57,0,0.92-0.09,1.05-0.29c0.13-0.19,0.19-0.7,0.19-1.54v-4.9
			c0-0.57-0.02-0.94-0.06-1.1c-0.04-0.16-0.15-0.28-0.3-0.35C79.69,95.8,79.4,95.76,78.97,95.76"/>
		<polygon class="st1" points="85.66,93.6 92.27,93.6 92.27,96.13 89.62,96.13 89.62,98.52 92.1,98.52 92.1,100.92 89.62,100.92 
			89.62,103.69 92.53,103.69 92.53,106.22 85.66,106.22 		"/>
		<path class="st1" d="M102.07,97.42h-3.68v-0.93c0-0.44-0.05-0.71-0.14-0.83c-0.1-0.12-0.25-0.18-0.47-0.18
			c-0.24,0-0.42,0.08-0.54,0.24c-0.12,0.16-0.18,0.4-0.18,0.73c0,0.42,0.07,0.74,0.21,0.95c0.13,0.22,0.5,0.47,1.12,0.77
			c1.77,0.87,2.88,1.58,3.34,2.14c0.46,0.55,0.69,1.45,0.69,2.69c0,0.9-0.13,1.56-0.39,1.99c-0.26,0.43-0.75,0.78-1.47,1.07
			c-0.73,0.29-1.58,0.43-2.54,0.43c-1.06,0-1.96-0.16-2.72-0.5c-0.75-0.33-1.24-0.76-1.47-1.27c-0.23-0.51-0.35-1.24-0.35-2.19
			v-0.83h3.68v1.54c0,0.47,0.06,0.77,0.16,0.91c0.1,0.14,0.29,0.2,0.55,0.2c0.26,0,0.46-0.09,0.59-0.26
			c0.13-0.17,0.19-0.42,0.19-0.76c0-0.74-0.12-1.23-0.37-1.46c-0.25-0.23-0.87-0.61-1.85-1.15c-0.99-0.54-1.64-0.93-1.96-1.18
			c-0.32-0.24-0.59-0.58-0.8-1.01c-0.21-0.43-0.32-0.98-0.32-1.65c0-0.97,0.15-1.67,0.45-2.12c0.3-0.45,0.78-0.8,1.45-1.05
			c0.67-0.25,1.47-0.38,2.41-0.38c1.03,0,1.9,0.14,2.63,0.42c0.72,0.27,1.2,0.62,1.44,1.04c0.24,0.42,0.35,1.13,0.35,2.13V97.42z"/>
		<path class="st1" d="M110.49,93.6l2.27,12.62h-4.05l-0.21-2.27h-1.42l-0.24,2.27h-4.1l2.02-12.62H110.49z M108.39,101.71
			c-0.2-1.43-0.4-3.19-0.6-5.3c-0.4,2.41-0.66,4.18-0.76,5.3H108.39z"/>
		<path class="st1" d="M113.43,93.6h2.8c1.87,0,3.14,0.06,3.8,0.18c0.66,0.12,1.21,0.42,1.62,0.92c0.42,0.49,0.63,1.27,0.63,2.35
			c0,0.98-0.15,1.64-0.45,1.98c-0.29,0.34-0.87,0.54-1.74,0.61c0.78,0.16,1.31,0.38,1.58,0.65c0.27,0.27,0.43,0.52,0.5,0.74
			c0.07,0.23,0.1,0.85,0.1,1.87v3.33h-3.69v-4.19c0-0.68-0.06-1.09-0.19-1.25c-0.13-0.16-0.46-0.24-1.01-0.24v5.69h-3.96V93.6z
			 M117.4,95.76v2.81c0.45,0,0.76-0.05,0.93-0.15c0.18-0.1,0.27-0.43,0.27-0.98v-0.69c0-0.4-0.08-0.66-0.26-0.79
			C118.17,95.82,117.86,95.76,117.4,95.76"/>
		<path class="st1" d="M123.81,93.6h2.81c1.87,0,3.14,0.06,3.79,0.18c0.66,0.12,1.2,0.42,1.62,0.92c0.41,0.49,0.62,1.27,0.62,2.35
			c0,0.98-0.15,1.64-0.44,1.98c-0.3,0.34-0.88,0.54-1.74,0.61c0.78,0.16,1.31,0.38,1.58,0.65c0.27,0.27,0.44,0.52,0.5,0.74
			c0.07,0.23,0.1,0.85,0.1,1.87v3.33h-3.68v-4.19c0-0.68-0.07-1.09-0.19-1.25c-0.13-0.16-0.46-0.24-1.01-0.24v5.69h-3.97V93.6z
			 M127.78,95.76v2.81c0.44,0,0.76-0.05,0.93-0.15c0.18-0.1,0.27-0.43,0.27-0.98v-0.69c0-0.4-0.09-0.66-0.26-0.79
			C128.55,95.82,128.24,95.76,127.78,95.76"/>
		<path class="st1" d="M143.26,100.99c0,1.27-0.04,2.17-0.11,2.69c-0.07,0.53-0.29,1.01-0.68,1.45c-0.38,0.44-0.89,0.77-1.54,1.01
			c-0.65,0.23-1.4,0.35-2.26,0.35c-0.82,0-1.55-0.11-2.2-0.33c-0.65-0.22-1.17-0.55-1.57-0.99c-0.39-0.44-0.63-0.92-0.71-1.44
			c-0.08-0.52-0.11-1.43-0.11-2.73v-2.16c0-1.27,0.04-2.16,0.11-2.69c0.07-0.53,0.29-1.01,0.68-1.44c0.38-0.44,0.89-0.77,1.54-1.01
			c0.65-0.23,1.4-0.35,2.27-0.35c0.81,0,1.55,0.11,2.2,0.33c0.65,0.22,1.18,0.55,1.57,0.99c0.4,0.44,0.63,0.92,0.71,1.44
			c0.08,0.52,0.11,1.43,0.11,2.73V100.99z M139.3,96.84c0-0.59-0.04-0.96-0.12-1.12c-0.08-0.16-0.24-0.25-0.48-0.25
			c-0.21,0-0.36,0.07-0.48,0.2c-0.11,0.13-0.17,0.52-0.17,1.17v5.89c0,0.73,0.04,1.18,0.11,1.35c0.07,0.17,0.24,0.26,0.5,0.26
			c0.27,0,0.45-0.1,0.52-0.3c0.07-0.19,0.11-0.66,0.11-1.41V96.84z"/>
		<polygon class="st1" points="148.7,93.6 148.7,103.69 151.11,103.69 151.11,106.22 144.73,106.22 144.73,93.6 		"/>
		<polygon class="st1" points="156.04,93.6 156.04,103.69 158.44,103.69 158.44,106.22 152.07,106.22 152.07,93.6 		"/>
		<path class="st1" d="M168.17,100.99c0,1.27-0.04,2.17-0.11,2.69c-0.07,0.53-0.3,1.01-0.68,1.45c-0.38,0.44-0.89,0.77-1.54,1.01
			c-0.65,0.23-1.41,0.35-2.27,0.35c-0.81,0-1.54-0.11-2.2-0.33c-0.65-0.22-1.17-0.55-1.57-0.99c-0.39-0.44-0.63-0.92-0.71-1.44
			c-0.07-0.52-0.11-1.43-0.11-2.73v-2.16c0-1.27,0.04-2.16,0.11-2.69c0.07-0.53,0.3-1.01,0.68-1.44c0.38-0.44,0.9-0.77,1.54-1.01
			c0.65-0.23,1.4-0.35,2.26-0.35c0.82,0,1.55,0.11,2.2,0.33c0.65,0.22,1.17,0.55,1.57,0.99c0.39,0.44,0.64,0.92,0.71,1.44
			c0.07,0.52,0.11,1.43,0.11,2.73V100.99z M164.2,96.84c0-0.59-0.04-0.96-0.12-1.12c-0.07-0.16-0.24-0.25-0.48-0.25
			c-0.21,0-0.37,0.07-0.47,0.2c-0.11,0.13-0.16,0.52-0.16,1.17v5.89c0,0.73,0.03,1.18,0.1,1.35c0.07,0.17,0.24,0.26,0.5,0.26
			c0.27,0,0.44-0.1,0.52-0.3c0.08-0.19,0.11-0.66,0.11-1.41V96.84z"/>
		<path class="st0" d="M13.55,122.02c12.17-3.08,25.28-5.68,39.11-7.47c13.83-1.8,28.38-2.79,43.35-2.79
			c14.97,0,29.51,0.99,43.35,2.79c13.83,1.79,26.94,4.38,39.11,7.47c-11.9-3.76-24.93-6.91-38.8-9.09
			c-13.86-2.18-28.55-3.39-43.66-3.39s-29.8,1.2-43.67,3.39C38.49,115.11,25.45,118.26,13.55,122.02"/>
		<rect x="54.79" y="117.31" class="st1" width="1.02" height="4.5"/>
		<path class="st1" d="M57.12,118.43h0.93v0.34c0.19-0.28,0.48-0.43,0.85-0.43c0.6,0,0.93,0.28,0.93,0.81v2.66H58.9v-2.26
			c0-0.37-0.09-0.54-0.4-0.54c-0.35,0-0.45,0.22-0.45,0.65v2.15h-0.94V118.43z"/>
		<polygon class="st1" points="60.73,118.43 61.74,118.43 62.28,121.01 62.8,118.43 63.78,118.43 62.84,121.81 61.68,121.81 		"/>
		<path class="st1" d="M67.42,120.65c0,0.05,0.01,0.09,0.01,0.13c0,0.77-0.44,1.12-1.39,1.12c-0.5,0-0.84-0.09-1.07-0.32
			c-0.36-0.35-0.36-0.85-0.36-1.57c0-0.6,0.02-1.03,0.31-1.31c0.24-0.24,0.62-0.35,1.14-0.35c0.51,0,0.87,0.13,1.11,0.38
			c0.26,0.29,0.28,0.69,0.28,1.25v0.26h-1.86c-0.01,0.06-0.01,0.14-0.01,0.22c0,0.61,0.11,0.87,0.48,0.87
			c0.35,0,0.48-0.21,0.48-0.66H67.42z M66.5,119.69v-0.15c0-0.43-0.1-0.61-0.46-0.61c-0.36,0-0.46,0.18-0.46,0.61
			c0,0.02,0,0.07,0,0.15H66.5z"/>
		<path class="st1" d="M68.61,118.43h0.91v0.55c0.25-0.43,0.51-0.63,0.96-0.64v0.95c-0.1-0.01-0.18-0.01-0.24-0.01
			c-0.42,0-0.66,0.22-0.66,0.55v1.98h-0.96V118.43z"/>
		<path class="st1" d="M72.62,120.78c0,0.3,0.03,0.42,0.3,0.42c0.03,0,0.07,0,0.1-0.01v0.61c-0.22,0.02-0.4,0.03-0.51,0.03
			c-0.72,0-0.83-0.23-0.83-0.8v-2.03H71.3v-0.58h0.37v-0.92h0.94v0.92h0.39v0.58h-0.39v1.55V120.78z"/>
		<path class="st1" d="M74.02,117.31h0.94v0.7h-0.94V117.31z M74.02,118.43h0.94v3.38h-0.94V118.43z"/>
		<path class="st1" d="M76.22,118.43h0.88v0.39c0.21-0.34,0.46-0.48,0.99-0.48c0.41,0,0.72,0.17,0.84,0.43
			c0.25-0.31,0.52-0.43,0.94-0.43c0.65,0,0.98,0.29,0.98,0.87v2.59h-0.93v-2.16c0-0.44-0.05-0.63-0.47-0.63
			c-0.37,0-0.46,0.2-0.46,0.62v2.18h-0.94v-2.19c0-0.41-0.08-0.6-0.43-0.6c-0.36,0-0.48,0.19-0.48,0.59v2.2h-0.94V118.43z"/>
		<path class="st1" d="M83.42,118.34c1.16,0,1.44,0.53,1.44,1.78c0,1.26-0.28,1.78-1.44,1.78c-1.16,0-1.44-0.52-1.44-1.78
			C81.97,118.87,82.25,118.34,83.42,118.34 M82.95,120.16c0,0.83,0,1.14,0.46,1.14c0.46,0,0.48-0.29,0.48-1.03v-0.14v-0.19
			c0-0.7-0.03-1.01-0.47-1.01c-0.45,0-0.47,0.29-0.47,0.91v0.23V120.16z"/>
		<path class="st1" d="M86.71,120.68v0.1c0,0.38,0.13,0.54,0.46,0.54c0.27,0,0.43-0.13,0.43-0.33c0-0.23-0.26-0.33-0.64-0.54
			c-0.67-0.38-1.09-0.6-1.09-1.18c0-0.59,0.46-0.92,1.32-0.92c0.83,0,1.25,0.35,1.25,1.05v0.07H87.6v-0.07
			c0-0.32-0.14-0.47-0.47-0.47c-0.24,0-0.4,0.12-0.4,0.29c0,0.2,0.18,0.32,0.52,0.5c0.73,0.41,1.25,0.62,1.25,1.25
			c0,0.59-0.46,0.94-1.34,0.94c-0.91,0-1.32-0.33-1.32-1.08c0-0.04,0.01-0.08,0.01-0.13H86.71z"/>
		<path class="st1" d="M94.57,120.65c0,0.05,0,0.09,0,0.13c0,0.77-0.43,1.12-1.39,1.12c-0.49,0-0.84-0.09-1.06-0.32
			c-0.36-0.35-0.36-0.85-0.36-1.57c0-0.6,0.02-1.03,0.31-1.31c0.24-0.24,0.62-0.35,1.14-0.35c0.51,0,0.87,0.13,1.1,0.38
			c0.26,0.29,0.29,0.69,0.29,1.25v0.26h-1.87c0,0.06,0,0.14,0,0.22c0,0.61,0.11,0.87,0.47,0.87c0.35,0,0.48-0.21,0.48-0.66H94.57z
			 M93.65,119.69v-0.15c0-0.43-0.1-0.61-0.47-0.61c-0.35,0-0.46,0.18-0.46,0.61c0,0.02,0.01,0.07,0.01,0.15H93.65z"/>
		<path class="st1" d="M95.76,118.43h0.92v0.34c0.2-0.28,0.49-0.43,0.86-0.43c0.58,0,0.92,0.28,0.92,0.81v2.66h-0.91v-2.26
			c0-0.37-0.09-0.54-0.4-0.54c-0.35,0-0.44,0.22-0.44,0.65v2.15h-0.95V118.43z"/>
		<polygon class="st1" points="102,117.31 103.01,117.31 103.01,119.07 104.41,119.07 104.41,117.31 105.41,117.31 105.41,121.81 
			104.41,121.81 104.41,119.77 103.01,119.77 103.01,121.81 102,121.81 		"/>
		<path class="st1" d="M109.41,121.81h-0.93v-0.33c-0.19,0.28-0.49,0.42-0.86,0.42c-0.59,0-0.91-0.28-0.91-0.81v-2.66h0.91v2.21
			c0,0.39,0.07,0.59,0.41,0.59s0.43-0.2,0.43-0.64v-2.16h0.95V121.81z"/>
		<path class="st1" d="M110.67,118.43h0.88v0.39c0.21-0.34,0.46-0.48,1-0.48c0.4,0,0.71,0.17,0.84,0.43
			c0.26-0.31,0.52-0.43,0.94-0.43c0.65,0,0.98,0.29,0.98,0.87v2.59h-0.93v-2.16c0-0.44-0.04-0.63-0.46-0.63
			c-0.38,0-0.46,0.2-0.46,0.62v2.18h-0.94v-2.19c0-0.41-0.08-0.6-0.43-0.6c-0.36,0-0.48,0.19-0.48,0.59v2.2h-0.94V118.43z"/>
		<path class="st1" d="M118.38,121.48c-0.2,0.27-0.52,0.42-0.94,0.42c-0.61,0-0.99-0.36-0.99-0.98c0-0.63,0.36-0.87,1.13-1.16
			c0.49-0.18,0.75-0.22,0.75-0.53c0-0.22-0.14-0.34-0.42-0.34c-0.35,0-0.5,0.16-0.5,0.47v0.07h-0.92c0-0.77,0.43-1.09,1.42-1.09
			c1.01,0,1.35,0.28,1.35,1.07v1.91c0,0.17,0.04,0.32,0.14,0.48h-0.92C118.44,121.75,118.41,121.65,118.38,121.48 M117.44,120.85
			c0,0.3,0.13,0.44,0.42,0.44c0.32,0,0.49-0.24,0.49-0.71v-0.54C117.72,120.3,117.44,120.49,117.44,120.85"/>
		<path class="st1" d="M120.5,118.43h0.92v0.34c0.2-0.28,0.49-0.43,0.86-0.43c0.58,0,0.92,0.28,0.92,0.81v2.66h-0.91v-2.26
			c0-0.37-0.09-0.54-0.4-0.54c-0.35,0-0.44,0.22-0.44,0.65v2.15h-0.95V118.43z"/>
		<path class="st1" d="M124.44,117.31h0.94v0.7h-0.94V117.31z M124.44,118.43h0.94v3.38h-0.94V118.43z"/>
		<path class="st1" d="M127.61,121.9c-0.85,0-1.08-0.53-1.08-1.76c0-1.24,0.21-1.79,1.06-1.79c0.38,0,0.65,0.12,0.8,0.38v-1.41h0.95
			v4.5h-0.9v-0.35C128.29,121.75,128,121.9,127.61,121.9 M127.92,121.25c0.43,0,0.49-0.27,0.49-0.92c0-0.93-0.01-1.34-0.49-1.34
			c-0.41,0-0.44,0.34-0.44,1.07C127.49,120.9,127.51,121.25,127.92,121.25"/>
		<path class="st1" d="M132.43,121.48c-0.19,0.27-0.52,0.42-0.93,0.42c-0.62,0-0.98-0.36-0.98-0.98c0-0.63,0.35-0.87,1.13-1.16
			c0.48-0.18,0.74-0.22,0.74-0.53c0-0.22-0.15-0.34-0.42-0.34c-0.35,0-0.5,0.16-0.5,0.47v0.07h-0.92c0-0.77,0.44-1.09,1.42-1.09
			c1.01,0,1.35,0.28,1.35,1.07v1.91c0,0.17,0.04,0.32,0.14,0.48h-0.92C132.49,121.75,132.46,121.65,132.43,121.48 M131.49,120.85
			c0,0.3,0.13,0.44,0.42,0.44c0.33,0,0.49-0.24,0.49-0.71v-0.54C131.77,120.3,131.49,120.49,131.49,120.85"/>
		<path class="st1" d="M135.51,121.9c-0.84,0-1.08-0.53-1.08-1.76c0-1.24,0.21-1.79,1.06-1.79c0.38,0,0.64,0.12,0.8,0.38v-1.41h0.95
			v4.5h-0.9v-0.35C136.19,121.75,135.91,121.9,135.51,121.9 M135.83,121.25c0.43,0,0.49-0.27,0.49-0.92c0-0.93-0.01-1.34-0.49-1.34
			c-0.41,0-0.43,0.34-0.43,1.07C135.4,120.9,135.42,121.25,135.83,121.25"/>
		<path class="st2" d="M178.35,86.25c0-2.39-2.25-4.33-5.03-4.33c-2.77,0-5.03,1.94-5.03,4.33c0,2.39,2.25,4.33,5.03,4.33
			C176.1,90.58,178.35,88.64,178.35,86.25"/>
		<path class="st3" d="M178.35,86.25c0-2.39-2.25-4.33-5.03-4.33c-2.77,0-5.03,1.94-5.03,4.33c0,2.39,2.25,4.33,5.03,4.33
			C176.1,90.58,178.35,88.64,178.35,86.25z"/>
		<path class="st2" d="M176.03,81.85l3.82-1.23l-1.43,3.29C177.89,83.03,177.05,82.32,176.03,81.85"/>
		<path class="st3" d="M176.03,81.85l3.82-1.23l-1.43,3.29C177.89,83.03,177.05,82.32,176.03,81.85z"/>
		<path class="st2" d="M170.61,90.64l-3.82,1.23l1.43-3.29C168.75,89.46,169.58,90.18,170.61,90.64"/>
		<path class="st3" d="M170.61,90.64l-3.82,1.23l1.43-3.29C168.75,89.46,169.58,90.18,170.61,90.64z"/>
		<path class="st2" d="M173.32,91.23c0.81,0,1.58-0.14,2.27-0.4l-2.27,4.3l-2.27-4.3C171.75,91.08,172.51,91.23,173.32,91.23"/>
		<path class="st3" d="M173.32,91.23c0.81,0,1.58-0.14,2.27-0.4l-2.27,4.3l-2.27-4.3C171.75,91.08,172.51,91.23,173.32,91.23z"/>
		<path class="st2" d="M183.63,86.25l-4.99,1.95c0.3-0.6,0.46-1.26,0.46-1.95c0-0.69-0.16-1.36-0.46-1.96L183.63,86.25z"/>
		<path class="st3" d="M183.63,86.25l-4.99,1.95c0.3-0.6,0.46-1.26,0.46-1.95c0-0.69-0.16-1.36-0.46-1.96L183.63,86.25z"/>
		<path class="st2" d="M178.42,88.58l1.43,3.29l-3.82-1.23C177.05,90.18,177.89,89.46,178.42,88.58"/>
		<path class="st3" d="M178.42,88.58l1.43,3.29l-3.82-1.23C177.05,90.18,177.89,89.46,178.42,88.58z"/>
		<path class="st2" d="M167.54,86.25c0,0.69,0.16,1.35,0.46,1.95l-4.99-1.95l4.99-1.96C167.7,84.89,167.54,85.55,167.54,86.25"/>
		<path class="st3" d="M167.54,86.25c0,0.69,0.16,1.35,0.46,1.95l-4.99-1.95l4.99-1.96C167.7,84.89,167.54,85.55,167.54,86.25z"/>
		<path class="st2" d="M173.32,81.27c-0.8,0-1.57,0.14-2.27,0.4l2.27-4.3l2.27,4.3C174.9,81.41,174.13,81.27,173.32,81.27"/>
		<path class="st3" d="M173.32,81.27c-0.8,0-1.57,0.14-2.27,0.4l2.27-4.3l2.27,4.3C174.9,81.41,174.13,81.27,173.32,81.27z"/>
		<path class="st2" d="M168.22,83.91l-1.43-3.29l3.82,1.23C169.58,82.32,168.76,83.03,168.22,83.91"/>
		<path class="st3" d="M168.22,83.91l-1.43-3.29l3.82,1.23C169.58,82.32,168.76,83.03,168.22,83.91z"/>
	</g>
</g>
</svg>
