<?xml version="1.0" encoding="utf-8"?>
<!-- Generator: Adobe Illustrator 28.0.0, SVG Export Plug-In . SVG Version: 6.00 Build 0)  -->
<svg version="1.1" id="Layer_1" xmlns="http://www.w3.org/2000/svg" xmlns:xlink="http://www.w3.org/1999/xlink" x="0px" y="0px"
	 viewBox="0 0 198.43 198.43" style="enable-background:new 0 0 198.43 198.43;" xml:space="preserve">
<style type="text/css">
	.st0{fill:#231916;}
	.st1{fill:#FDD01A;}
	.st2{fill:#F7F6F5;}
</style>
<g>
	<path class="st0" d="M174.16,99.21c0-41.39-33.56-74.95-74.95-74.95c-41.39,0-74.95,33.56-74.95,74.95s33.56,74.95,74.95,74.95
		C140.61,174.16,174.16,140.61,174.16,99.21"/>
	<path class="st1" d="M171.6,99.21c0-39.98-32.41-72.39-72.39-72.39S26.82,59.23,26.82,99.21s32.41,72.39,72.39,72.39
		S171.6,139.19,171.6,99.21"/>
	<path class="st0" d="M161.93,99.21c0-34.64-28.08-62.71-62.71-62.71c-34.64,0-62.71,28.08-62.71,62.71s28.08,62.71,62.71,62.71
		C133.85,161.93,161.93,133.85,161.93,99.21"/>
	<path class="st2" d="M159.84,99.21c0-33.48-27.14-60.62-60.62-60.62S38.59,65.73,38.59,99.21s27.14,60.62,60.62,60.62
		S159.84,132.69,159.84,99.21"/>
	<path class="st0" d="M132.38,72.27c7.04,0,12.98,5.66,12.98,12.81c0,9.57-9.5,11.33-9.5,11.33l0.08,2.02
		c5.02,0,9.13,2.93,9.13,11.36c0,11.73-9.64,15.36-12.9,15.36H58.82v-0.32h2.02c3.78,0,6.65-3.91,6.65-10.02V81.28
		c0-6.18-4.01-8.67-8.67-8.67l0-0.35H132.38z M78.12,96.09h44.71c4.4,0,8.58-2.25,8.58-9.81c0-6.78-4.78-8.29-7.28-8.29H78.12V96.09
		 M78.12,118.47h45.2c3.88,0,8.06-2.34,8.06-9.54c0-7.75-5.44-8.53-7.05-8.53H78.12V118.47 M132.38,70.07H58.82h-2.23l0.03,2.23
		l0,0.35l0.03,2.17h2.17c2.95,0,6.47,1.12,6.47,6.47v33.53c0,4.53-1.87,7.82-4.45,7.82h-2.02h-2.2v2.2v0.32v2.2h2.2h73.34
		c2.28,0,5.98-1.17,9.09-3.8c2.74-2.31,6.01-6.57,6.01-13.76c0-8.15-3.51-11.46-6.86-12.76c0.47-0.25,0.96-0.55,1.45-0.89
		c2.6-1.79,5.7-5.17,5.7-11.06C147.56,76.8,140.75,70.07,132.38,70.07 M80.32,80.2h43.81c1.19,0,5.08,0.44,5.08,6.09
		c0,5.12-2.09,7.61-6.38,7.61H80.32V80.2z M80.32,102.6h44.01c1.46,0,4.85,0.62,4.85,6.33c0,6.39-3.67,7.34-5.86,7.34h-43V102.6z"/>
	<path class="st1" d="M145.06,109.78c0-8.43-4.11-11.36-9.13-11.36l-0.08-2.02c0,0,9.5-1.76,9.5-11.33
		c0-7.15-5.94-12.81-12.98-12.81H58.82l0,0.35c4.66,0,8.67,2.48,8.67,8.67v33.53c0,6.1-2.88,10.02-6.65,10.02h-2.02v0.32h73.34
		C135.42,125.14,145.06,121.51,145.06,109.78 M123.32,118.47h-45.2V100.4h46.21c1.61,0,7.05,0.78,7.05,8.53
		C131.38,116.14,127.2,118.47,123.32,118.47 M122.83,96.09H78.12V78h46.01c2.49,0,7.28,1.5,7.28,8.29
		C131.41,93.84,127.23,96.09,122.83,96.09"/>
	<path class="st0" d="M98.04,58.13v52.62c0,0.29,0.6,1.4,1.83,1.4c1.24,0,11.32-3.57,11.32-29.13c0-0.98-0.03-1.92-0.07-2.82h-2.2
		c0.05,0.91,0.07,1.85,0.07,2.82c0,12.36-2.45,19.01-4.5,22.41c-1.62,2.67-3.32,3.9-4.25,4.34V61.36c1.5,0.83,3.11,2.13,4.53,4.18
		c0.91,1.31,1.68,2.83,2.3,4.53h2.32C106.74,62.05,101.72,59.08,98.04,58.13"/>
	<path class="st1" d="M98.03,132.38v-5.04H87.76v5.1c0,2.88-1.96,6.35-3.94,6.66h18.27C100.4,138.75,98.03,134.75,98.03,132.38"/>
	<path class="st1" d="M111.12,80.2c0.04,0.91,0.07,1.84,0.07,2.82c0,25.55-10.08,29.13-11.32,29.13c-1.24,0-1.83-1.11-1.83-1.4
		V58.13c3.69,0.96,8.71,3.92,11.35,11.94h11.15c-3.94-7.81-12.47-15.91-26.71-15.91c-19.22,0-20.92,8.29-20.92,11.34
		c0,4.11,1.98,6.55,7.88,6.55c0.69,0,2.07-0.33,2.07-0.94c0-1.04-4.58-0.53-4.58-5.66c0-1.98,1.15-6.42,9.5-6.42v57.25h10.26v-2.56
		c9.07,0,24.95-9.22,25.14-33.52H111.12z"/>
	<path class="st0" d="M85.05,71.11c0-1.82-1.65-2.47-2.45-2.78c-1.24-0.49-2.14-0.84-2.14-2.88c0-1.11,0.54-3.51,5.1-4.09v54.92h2.2
		V59.03c-8.34,0-9.5,4.44-9.5,6.42c0,5.13,4.58,4.62,4.58,5.66c0,0.6-1.37,0.94-2.07,0.94c-5.9,0-7.88-2.44-7.88-6.55
		c0-3.04,1.7-11.34,20.92-11.34c14.25,0,22.77,8.1,26.71,15.91h2.43c-1.17-2.55-2.81-5.21-5.05-7.73
		c-4.2-4.73-11.8-10.38-24.1-10.38c-8.81,0-15.24,1.7-19.11,5.07c-3.49,3.03-4.01,6.61-4.01,8.47c0,2.79,0.82,4.96,2.45,6.44
		c1.7,1.55,4.2,2.31,7.64,2.31C82.85,74.25,85.05,73.15,85.05,71.11"/>
	<path class="st0" d="M123.17,80.2c-0.19,24.3-16.07,33.52-25.14,33.52v2.56h2.2v-0.51c4.49-0.59,10.36-2.98,15.39-8.27
		c4.4-4.63,9.64-13.12,9.75-27.29H123.17z"/>
	<path class="st0" d="M100.23,132.38v-5.04h-2.2v5.04c0,2.36,2.24,6.26,4.07,6.72H83.83c2.01-0.35,3.94-3.78,3.94-6.66v-5.1h-2.2
		v5.1c0,2.9-2.37,5.77-4.25,5.77h-3.85v2.83h34.15v-2.83h-6.29C102.73,138.21,100.23,134.87,100.23,132.38"/>
</g>
</svg>
