<?xml version="1.0" encoding="utf-8"?>
<!-- Generator: Adobe Illustrator 28.0.0, SVG Export Plug-In . SVG Version: 6.00 Build 0)  -->
<svg version="1.1" id="Layer_1" xmlns="http://www.w3.org/2000/svg" xmlns:xlink="http://www.w3.org/1999/xlink" x="0px" y="0px"
	 viewBox="0 0 198.43 198.43" style="enable-background:new 0 0 198.43 198.43;" xml:space="preserve">
<style type="text/css">
	.st0{fill:#ADACAB;}
	.st1{fill:#2B2926;}
	.st2{fill:#D0343A;}
</style>
<g>
	<path class="st0" d="M26.45,109.05c0-1.53-0.8-2.54-2.4-3.05c-0.91-0.27-2.43-0.41-4.58-0.43v6c0,0.53,0.67,0.8,2,0.8
		c0.09,0,0.51-0.01,1.25-0.02c1.12-0.02,2.02-0.33,2.7-0.93C26.11,110.81,26.45,110.02,26.45,109.05 M25.89,101.75
		c0-2.14-1.59-3.21-4.77-3.21c-0.85,0-1.33,0.03-1.41,0.09c-0.16,0.06-0.24,0.2-0.24,0.43v5.58h1.12c1.71,0,2.89-0.12,3.57-0.36
		C25.32,103.87,25.89,103.02,25.89,101.75 M29.54,109.05c0,1.37-0.66,2.44-1.97,3.21c-1.14,0.68-2.51,1.01-4.13,1.01h-8.95
		l0.05-0.47c0.9,0,1.16-0.08,1.49-0.26c0.46-0.25,0.69-0.74,0.69-1.46V99.81c0-0.65-0.26-1.1-0.77-1.37
		c-0.37-0.19-0.97-0.31-1.78-0.36v-0.45h7.91c1.74,0,3.2,0.28,4.37,0.83c1.46,0.71,2.18,1.77,2.18,3.19c0,1.78-1.19,2.91-3.57,3.38
		v0.05C28.05,105.67,29.54,107,29.54,109.05"/>
	<path class="st0" d="M41.86,113.32c-1.65,0-2.51-0.57-2.58-2.32c-2.2,1.75-4.13,2.62-5.78,2.62c-1.23,0-2.22-0.39-2.98-1.16
		c-0.76-0.77-1.14-1.71-1.14-2.81c0-1.64,1.21-3.09,3.65-4.35c1.99-1.04,4.05-1.68,6.18-1.92c0.02-0.53,0.03-1.36,0.03-2.48
		c0-1.94-1.01-2.91-3.04-2.91c-0.68,0-1.3,0.15-1.87,0.45c-0.69,0.35-1.04,0.79-1.04,1.32c0,0.16,0.03,0.39,0.11,0.69
		c0.07,0.3,0.11,0.53,0.11,0.68c0,0.39-0.17,0.73-0.52,1.02c-0.35,0.28-0.74,0.42-1.19,0.42c-0.44,0-0.82-0.14-1.14-0.41
		c-0.32-0.27-0.48-0.62-0.48-1.03c0-1.23,0.74-2.21,2.24-2.95c1.24-0.6,2.62-0.9,4.13-0.9c3.76,0,5.65,1.62,5.65,4.87v7.87
		c0,1.13,0.42,1.7,1.25,1.7c0.55,0,1.34-0.38,1.91-0.79l-0.23,0.96C43.92,113.05,42.84,113.32,41.86,113.32 M39.22,107.2v-3.05
		c-1.67,0.19-3.12,0.62-4.34,1.28c-1.6,0.85-2.4,1.91-2.4,3.19c0,0.87,0.28,1.6,0.83,2.2c0.6,0.65,1.38,0.97,2.32,0.97
		c1.23,0,2.17-0.52,2.82-1.56C38.96,109.39,39.22,108.39,39.22,107.2"/>
	<path class="st0" d="M52.76,113.27v-0.45c0.89-0.03,1.52-0.23,1.9-0.6c0.38-0.37,0.57-0.96,0.57-1.76v-8.58
		c0-0.82-0.26-1.49-0.78-2.01c-0.53-0.52-1.25-0.78-2.17-0.78c-1.22,0-2.57,0.69-4.05,2.08v9.88c0,1.1,0.87,1.69,2.61,1.77v0.45
		h-8.82l0.78-0.45c1.63-0.03,2.45-0.72,2.45-2.05v-9.92c0-1.09-0.47-1.63-1.41-1.63c-0.28,0-0.66,0.05-1.12,0.14v-0.5
		c0.71-0.16,1.57-0.4,2.58-0.73c1.47-0.49,2.32-0.76,2.56-0.83l0.27,0.05v2.83c1.14-0.96,2.01-1.61,2.61-1.96
		c1.05-0.61,2.1-0.92,3.17-0.92c1.33,0,2.39,0.46,3.17,1.37c0.75,0.83,1.12,1.87,1.12,3.12v8.67c0,0.87,0.16,1.46,0.49,1.77
		c0.33,0.31,0.97,0.51,1.93,0.59v0.45H52.76z"/>
	<path class="st0" d="M75.4,110.6c-1.74,2-4.17,3-7.3,3c-2.68,0-4.83-0.74-6.45-2.22c-1.62-1.48-2.42-3.41-2.42-5.79
		c0-2.46,0.85-4.45,2.54-5.99c1.7-1.53,3.93-2.3,6.7-2.3c0.67,0,2.07,0.25,4.18,0.73c0.14,0.03,0.27,0.05,0.37,0.05
		c0.62,0,1.01-0.26,1.17-0.78h0.61l0.24,5.32h-0.67c-0.87-2.91-2.78-4.37-5.73-4.37c-2.13,0-3.76,0.75-4.87,2.25
		c-0.96,1.29-1.44,2.93-1.44,4.92c0,2.05,0.51,3.7,1.52,4.96c1.13,1.47,2.81,2.2,5.03,2.2c2.17,0,4.16-0.8,5.99-2.41L75.4,110.6z"/>
	<path class="st0" d="M92.52,105.45c0,2.36-0.78,4.3-2.34,5.81c-1.63,1.56-3.76,2.34-6.39,2.34c-2.61,0-4.72-0.78-6.34-2.34
		c-1.56-1.51-2.34-3.43-2.34-5.76c0-2.32,0.77-4.24,2.32-5.79c1.61-1.61,3.71-2.41,6.29-2.41c2.66,0,4.81,0.77,6.45,2.32
		C91.73,101.13,92.52,103.08,92.52,105.45 M89.46,105.48c0-1.95-0.39-3.58-1.17-4.87c-0.99-1.62-2.5-2.43-4.5-2.43
		c-1.97,0-3.45,0.8-4.45,2.41c-0.78,1.28-1.17,2.87-1.17,4.77c0,1.97,0.38,3.6,1.15,4.89c0.98,1.67,2.48,2.5,4.5,2.5
		c1.99,0,3.48-0.81,4.48-2.43C89.07,109.03,89.46,107.42,89.46,105.48"/>
	<path class="st1" d="M108.46,110.31c-1.72,1.97-4.52,3.29-7.6,3.29c-2.65,0-4.77-0.73-6.37-2.19c-1.6-1.46-2.39-3.37-2.39-5.72
		c0-2.43,0.84-4.4,2.51-5.91c1.67-1.52,3.88-2.27,6.62-2.27c0.66,0,2.04,0.24,4.13,0.72c0.14,0.03,0.26,0.05,0.37,0.05
		c0.61,0,1-0.26,1.16-0.77h0.61l0.24,5.25h-0.66c-0.86-2.88-2.74-4.32-5.65-4.32c-2.11,0-3.71,0.74-4.82,2.22
		c-0.95,1.28-1.42,2.89-1.42,4.85c0,2.02,0.5,3.65,1.5,4.9c1.12,1.45,2.78,2.17,4.97,2.17c2.14,0,4.83-1.4,6.63-2.99L108.46,110.31z
		"/>
	<path class="st1" d="M120.58,113.3c-1.63,0-2.48-0.53-2.55-2.26c-2.18,1.73-4.08,2.59-5.71,2.59c-1.21,0-2.19-0.38-2.94-1.14
		c-0.75-0.76-1.13-1.69-1.13-2.78c0-1.62,1.2-3.05,3.6-4.29c1.96-1.03,4-1.66,6.1-1.89c0.02-0.53,0.03-1.35,0.03-2.45
		c0-1.91-1-2.87-3-2.87c-0.67,0-1.28,0.15-1.84,0.44c-0.68,0.34-1.03,0.78-1.03,1.31c0,0.16,0.04,0.38,0.11,0.68
		c0.07,0.29,0.1,0.52,0.1,0.68c0,0.39-0.17,0.72-0.51,1c-0.34,0.28-0.73,0.42-1.17,0.42c-0.44,0-0.82-0.14-1.13-0.41
		c-0.31-0.27-0.47-0.61-0.47-1.01c0-1.21,0.74-2.18,2.21-2.92c1.23-0.59,2.59-0.89,4.08-0.89c3.72,0,5.57,1.6,5.57,4.81v7.77
		c0,1.12,0.41,1.68,1.24,1.68c0.54,0,1.09-0.2,1.66-0.61v0.77C122.61,113.06,121.54,113.3,120.58,113.3 M117.98,107.29v-3.01
		c-1.65,0.19-3.08,0.61-4.29,1.26c-1.58,0.84-2.37,1.89-2.37,3.15c0,0.86,0.27,1.58,0.82,2.17c0.6,0.64,1.36,0.96,2.29,0.96
		c1.21,0,2.14-0.51,2.79-1.54C117.72,109.45,117.98,108.45,117.98,107.29"/>
	<path class="st1" d="M135.2,102.22c0,0.84-0.28,1.61-0.84,2.31c-1.1,1.37-3.16,2.05-6.18,2.05c-0.53,0-1.15-0.03-1.87-0.09
		l0.03,4.46c0,0.79,0.21,1.32,0.63,1.59c0.32,0.19,0.92,0.28,1.82,0.28v0.47h-8.26l0.87-0.47c0.77-0.03,1.31-0.13,1.6-0.3
		c0.4-0.23,0.61-0.67,0.61-1.3V99.87c0-0.62-0.2-1.03-0.61-1.24c-0.21-0.11-0.74-0.23-1.6-0.35v-0.44h7.29
		c2.05,0,3.51,0.3,4.36,0.91C134.48,99.76,135.2,100.92,135.2,102.22 M132.39,102.22c0-2.33-1.73-3.5-5.18-3.5
		c-0.6,0-0.89,0.27-0.89,0.79v6.04c0.72,0.05,1.24,0.07,1.55,0.07C130.88,105.63,132.39,104.49,132.39,102.22"/>
	<path class="st1" d="M142.2,113.28h-7.86v-0.47c0.91,0,1.53-0.09,1.87-0.26c0.47-0.23,0.71-0.72,0.71-1.47v-11.06
		c0-0.7-0.25-1.17-0.74-1.42c-0.33-0.17-0.95-0.28-1.84-0.33v-0.44h7.86v0.44c-0.91,0.05-1.53,0.15-1.84,0.3
		c-0.49,0.25-0.74,0.73-0.74,1.45v11.06c0,0.73,0.24,1.21,0.71,1.45c0.33,0.17,0.95,0.26,1.87,0.28V113.28z"/>
	<path class="st1" d="M157.74,101.83h-0.68c-0.25-1.07-0.59-1.83-1.03-2.26c-0.4-0.39-0.99-0.62-1.76-0.7
		c-0.21-0.02-1.14-0.02-2.79-0.02v11.9c0,0.86,0.18,1.42,0.55,1.7c0.31,0.23,0.97,0.36,1.97,0.37v0.47h-7.71v-0.47
		c0.79-0.02,1.36-0.1,1.71-0.26c0.51-0.23,0.76-0.66,0.76-1.28V98.84h-0.34c-1.95,0-3.14,0.09-3.58,0.28
		c-0.77,0.33-1.32,1.23-1.63,2.7h-0.68l0.18-3.99h14.83L157.74,101.83z"/>
	<path class="st1" d="M168.26,113.31c-1.63,0-2.48-0.55-2.55-2.27c-2.17,1.73-4.08,2.59-5.71,2.59c-1.21,0-2.19-0.38-2.94-1.14
		c-0.75-0.76-1.13-1.69-1.13-2.78c0-1.62,1.2-3.05,3.6-4.29c1.96-1.03,4-1.66,6.1-1.89c0.02-0.53,0.03-1.35,0.03-2.45
		c0-1.91-1-2.87-3-2.87c-0.67,0-1.28,0.15-1.84,0.44c-0.68,0.34-1.03,0.78-1.03,1.31c0,0.16,0.03,0.38,0.11,0.68
		c0.07,0.29,0.1,0.52,0.1,0.68c0,0.39-0.17,0.72-0.51,1c-0.34,0.28-0.73,0.42-1.17,0.42c-0.44,0-0.82-0.14-1.13-0.41
		c-0.32-0.27-0.47-0.61-0.47-1.01c0-1.21,0.74-2.18,2.21-2.92c1.23-0.59,2.58-0.89,4.07-0.89c3.72,0,5.58,1.6,5.58,4.81v7.77
		c0,1.12,0.41,1.68,1.23,1.68c0.55,0,1.1-0.2,1.66-0.61v0.77C170.29,113.06,169.23,113.31,168.26,113.31 M165.66,107.29v-3.01
		c-1.65,0.19-3.08,0.61-4.29,1.26c-1.58,0.84-2.37,1.89-2.37,3.15c0,0.86,0.27,1.58,0.81,2.17c0.6,0.64,1.36,0.96,2.29,0.96
		c1.21,0,2.14-0.51,2.79-1.54C165.4,109.45,165.66,108.45,165.66,107.29"/>
	<path class="st1" d="M184.25,109.22l-1.26,4.06h-14.15v-0.47c0.81-0.02,1.37-0.13,1.68-0.35c0.4-0.26,0.6-0.75,0.6-1.47V99.91
		c0-0.62-0.21-1.05-0.63-1.28c-0.3-0.16-0.85-0.27-1.66-0.35v-0.44h7.44v0.44c-0.91,0.09-1.5,0.21-1.76,0.35
		c-0.46,0.23-0.68,0.69-0.68,1.38v11.38c0,0.41,0.12,0.67,0.35,0.78c0.23,0.12,1.26,0.17,3.06,0.17c1.81,0,3.1-0.17,3.89-0.51
		c0.98-0.42,1.79-1.29,2.42-2.61H184.25z"/>
	<path class="st2" d="M140.35,94.54c0,1.24-1.01,2.25-2.25,2.25c-1.24,0-2.25-1.01-2.25-2.25c0-1.24,1.01-2.25,2.25-2.25
		C139.34,92.3,140.35,93.3,140.35,94.54"/>
	<path class="st2" d="M92.08,102.23c0,0,9.16-16.64,27.44-15.64c10.25,0.82,16.1,6.12,16.1,6.12s0.73-1.31,2-1.36
		c0,0-10.66-10.29-27.03-5.08C95.17,91.57,92.08,102.23,92.08,102.23"/>
</g>
</svg>
