<?xml version="1.0" encoding="utf-8"?>
<!-- Generator: Adobe Illustrator 28.0.0, SVG Export Plug-In . SVG Version: 6.00 Build 0)  -->
<svg version="1.1" id="Layer_1" xmlns="http://www.w3.org/2000/svg" xmlns:xlink="http://www.w3.org/1999/xlink" x="0px" y="0px"
	 viewBox="0 0 198.43 198.43" style="enable-background:new 0 0 198.43 198.43;" xml:space="preserve">
<style type="text/css">
	.st0{fill-rule:evenodd;clip-rule:evenodd;fill:#ED1D24;}
	.st1{fill-rule:evenodd;clip-rule:evenodd;fill:#2E2F90;}
</style>
<g>
	<path class="st0" d="M115.13,102.48L115.13,102.48l6.59,10.22h-7.67L104.5,96.9h11.94l0.84-6.09h-11.3l0.92-5l13.76-0.06
		c1.71,0,3.11,1.16,3.11,2.58l-2.05,11.02c0,1.42-1.4,2.56-3.13,2.56l-2.95,0.05C115.36,101.96,115.13,102.19,115.13,102.48
		 M143.23,107.63l-1.18,5.11H122.5l1.27-5.11H143.23z M145.75,96.66l-1.14,5.09h-19.46l1.01-5.09H145.75z M148.58,85.67l-1.35,5.11
		h-19.58l1.13-5.11H148.58z M161.28,112.77c1.71,0,3.48-1.16,3.48-2.58l5.32-21.96c0-1.42-1.4-2.58-3.13-2.58l-15.81,0.05l-3.92,16
		h6.19l2.69-10.59l6.72,0.08l-4.25,16.63l-12.83,0.06l-1.06,4.88l17.23-0.08L161.28,112.77z"/>
	<path class="st1" d="M35.08,85.76h9.36c6.06,0,6.78,2.93,6.56,5.88c-0.27,3.54-2.03,5.95-4.66,6.62l1.1,0.06
		c1.95,0.56,2.96,2.87,2.79,5.29c-0.42,5.46-4.33,9.01-10.91,9.06H28.35L35.08,85.76z M64.52,85.76h6.98l2.3,26.91h-6.94l-0.26-4.83
		h-9.31l-3.03,4.83h-7.23L64.52,85.76z M36.77,107.16h2.37c2.03,0,4.03-0.53,4.24-3.43c0.19-2.5-1.68-2.67-3.19-2.67H38.3
		L36.77,107.16z M39.46,96.34h1.47c2.37,0,3.59-0.9,3.75-2.98c0.15-1.95-1.53-2.11-2.8-2.11h-1.14L39.46,96.34z M80.68,85.76h6.65
		l7.94,16.02l3.98-16.02h6.54l-6.54,26.91h-6.75l-7.49-17.66l-4.41,17.66h-6.69L80.68,85.76z M60.36,102.63h6.04l-0.27-9.67h-0.08
		L60.36,102.63z"/>
</g>
</svg>
