<?xml version="1.0" encoding="utf-8"?>
<!-- Generator: Adobe Illustrator 28.0.0, SVG Export Plug-In . SVG Version: 6.00 Build 0)  -->
<svg version="1.1" id="Layer_1" xmlns="http://www.w3.org/2000/svg" xmlns:xlink="http://www.w3.org/1999/xlink" x="0px" y="0px"
	 viewBox="0 0 198.43 198.43" style="enable-background:new 0 0 198.43 198.43;" xml:space="preserve">
<style type="text/css">
	.st0{fill-rule:evenodd;clip-rule:evenodd;fill:#005BAA;}
	.st1{fill-rule:evenodd;clip-rule:evenodd;fill:#FFFFFF;}
	.st2{fill-rule:evenodd;clip-rule:evenodd;fill:#CF4C9B;}
</style>
<g>
	<g>
		<path class="st0" d="M99.1,24.26c-41.28,0.06-74.84,33.65-74.84,74.95c0,41.32,33.62,74.95,74.95,74.95
			c41.32,0,74.93-33.61,74.95-74.92v-0.06c-0.02-41.28-33.58-74.86-74.84-74.92H99.1z"/>
		<path class="st1" d="M166.86,99.21c0,37.37-30.29,67.66-67.65,67.66c-37.37,0-67.65-30.29-67.65-67.66
			c0-37.36,30.29-67.65,67.65-67.65C136.58,31.56,166.86,61.85,166.86,99.21"/>
		<path class="st2" d="M99.21,35C63.81,35,35,63.81,35,99.21c0,35.4,28.8,64.21,64.21,64.21c35.4,0,64.2-28.8,64.2-64.21
			C163.42,63.81,134.62,35,99.21,35 M99.21,170.31c-39.21,0-71.1-31.9-71.1-71.1c0-39.2,31.9-71.1,71.1-71.1
			c39.2,0,71.1,31.9,71.1,71.1C170.31,138.42,138.42,170.31,99.21,170.31"/>
		<polygon class="st2" points="118.67,51.97 105.99,51.1 104.95,107.07 112.66,107.78 		"/>
		<polygon class="st0" points="71.82,53.85 57.53,56.32 68.04,106.77 73.89,106.49 		"/>
		<path class="st2" d="M73.63,51.64c0,0,19.32-2.28,24.64,10.41c5.33,12.69-8.07,17.74-8.07,17.74s14.46,2.76,10.26,15.78
			c-4.18,13.01-24.5,11.69-24.5,11.69l0.14-4.45c0,0,10.98,1.09,12.7-7.85c1.78-9.23-11.35-9.3-11.35-9.3l-0.43-6.66
			c0,0,9.88-0.4,10.24-8.34c0.36-7.92-12.82-6.95-12.82-6.95L73.63,51.64z"/>
		<path class="st0" d="M120.07,53.91c0,0,19.41,0.06,20.74,14.86c1.34,14.86-14.44,19.64-14.44,19.64l6.75,17.26l-6.09,1.17
			l-10.55-16.43l0.79-6.27c0,0,9.1-2.01,10.46-7.47c2.18-8.78-8.71-10.48-8.71-10.48L120.07,53.91z"/>
		<path class="st0" d="M71.29,118.46c-1.68,0.21-2.94,1.75-2.73,3.29c0.2,1.57,1.82,2.73,3.5,2.52c1.66-0.21,2.94-1.73,2.73-3.3
			C74.59,119.43,72.96,118.25,71.29,118.46 M67.85,116.39c0.85-0.6,1.85-1,3.02-1.15c3.64-0.45,6.95,1.9,7.4,5.29
			c0.45,3.39-2.13,6.51-5.77,6.97c-1.17,0.15-2.24,0-3.22-0.36l0.2,1.2L66,128.79l-2.24-16.95l3.46-0.43L67.85,116.39z"/>
		<path class="st0" d="M82.63,122.67c-0.1,1.58,1.28,2.99,2.95,3.07c1.7,0.08,3.22-1.2,3.32-2.78c0.1-1.56-1.25-2.99-2.95-3.07
			C84.28,119.8,82.73,121.1,82.63,122.67 M89.4,116.32l3.49,0.17l-0.99,13.29l-3.49-0.17l0.15-1.21c-0.95,0.44-2.01,0.67-3.18,0.61
			c-3.66-0.18-6.43-3.09-6.22-6.5c0.22-3.42,3.33-6.03,6.99-5.85c1.17,0.05,2.2,0.38,3.09,0.91L89.4,116.32z"/>
		<path class="st0" d="M100.97,115.88c-0.23,0.05-0.29,0.07-0.52,0.13c-1.68,0.41-2.69,1.68-2.21,2.73l2.21,4.85
			c1.05,2.31-1.05,4.9-4.68,5.77c-0.23,0.05-0.28,0.06-0.51,0.12l-1-2.2c0.23-0.06,0.29-0.08,0.52-0.13
			c1.68-0.41,2.7-1.67,2.21-2.73l-2.2-4.84c-1.05-2.31,1.05-4.88,4.68-5.76c0.23-0.06,0.29-0.07,0.52-0.13L100.97,115.88z"/>
		<polygon class="st0" points="108.74,121.9 101.92,128.09 103.07,109.54 106.55,109.77 105.8,120.07 111.92,113.85 114.44,116.06 
			111.15,119.44 115,124.64 112.19,126.53 		"/>
		<path class="st0" d="M120.17,116.28l0.4,11.39l-3.49,0.12l-0.41-11.39L120.17,116.28z M120.42,113.33
			c0.04,1.07-0.87,1.99-2.03,2.02c-1.17,0.04-2.12-0.81-2.16-1.88c-0.04-1.09,0.85-1.98,2.02-2.02
			C119.42,111.41,120.38,112.24,120.42,113.33"/>
		<polygon class="st0" points="135.3,116.47 134.52,130.26 126.44,121.61 126.29,127.74 122.79,127.69 123.45,114.05 131.66,122.56 
			131.8,116.42 		"/>
		<path class="st0" d="M64.65,131.83l3.88-0.29l0.17,1.45c0.98-0.62,2.11-1.01,3.41-1.11l0.4-0.03l0.3,3.59l-0.4,0.03
			c-1.88,0.14-3.35,1.77-3.2,3.51l0.54,6.99l-3.88,0.29L64.65,131.83z"/>
		<path class="st0" d="M78.02,142.74c1.53-0.02,2.81-1.24,2.79-2.66c-0.01-1.4-1.33-2.61-2.85-2.6c-1.5,0.02-2.8,1.26-2.79,2.66
			C75.19,141.57,76.52,142.75,78.02,142.74 M77.93,134.57c3.29-0.04,5.99,2.41,6.02,5.47c0.04,3.07-2.61,5.59-5.9,5.62
			c-3.28,0.05-5.96-2.42-5.99-5.48C72.01,137.11,74.63,134.61,77.93,134.57"/>
		<path class="st0" d="M91.17,138.5c-1.52-0.03-2.85,1.17-2.89,2.56c-0.04,1.42,1.22,2.66,2.74,2.69c1.5,0.03,2.86-1.14,2.89-2.56
			C93.95,139.79,92.66,138.53,91.17,138.5 M88.41,136.21c0.84-0.42,1.78-0.64,2.84-0.62c3.28,0.07,5.88,2.61,5.79,5.68
			c-0.09,3.06-2.83,5.49-6.12,5.41c-1.05-0.02-1.97-0.29-2.8-0.75l-0.05,1.03l-3.14-0.07l0.44-15.33l3.14,0.07L88.41,136.21z"/>
		<path class="st0" d="M103.95,135.77c-1.52,0.05-2.77,1.32-2.72,2.72c0.06,1.42,1.39,2.58,2.92,2.53c1.51-0.05,2.77-1.3,2.72-2.72
			C106.81,136.9,105.45,135.72,103.95,135.77 M101.05,133.64c0.8-0.47,1.74-0.75,2.79-0.78c3.28-0.11,6.04,2.27,6.16,5.33
			c0.11,3.06-2.46,5.64-5.75,5.75c-1.06,0.04-2-0.17-2.84-0.58l0.05,1.02l-3.13,0.11l-0.57-15.33l3.14-0.11L101.05,133.64z"/>
		<path class="st0" d="M114.65,133.22l-0.58,10.21l-3.13-0.15l0.57-10.2L114.65,133.22z M115.12,130.61
			c-0.06,0.96-0.95,1.71-1.98,1.66c-1.05-0.05-1.83-0.87-1.77-1.84c0.05-0.98,0.92-1.71,1.98-1.67
			C114.37,128.82,115.17,129.63,115.12,130.61"/>
		<polygon class="st0" points="127.95,133.01 127.61,145.76 120.08,137.61 120.04,143.11 116.91,143.06 117,129.53 124.77,138.47 
			124.81,132.96 		"/>
		<path class="st0" d="M135.72,133.71c-0.22,0.04-0.29,0.05-0.51,0.1c-1.65,0.31-2.65,1.55-2.18,2.67l2.15,5.11
			c1.02,2.44-1.05,4.97-4.62,5.64c-0.22,0.05-0.29,0.06-0.51,0.09l-0.98-2.33c0.23-0.04,0.28-0.05,0.52-0.09
			c1.65-0.32,2.65-1.54,2.18-2.67l-2.14-5.11c-1.02-2.44,1.05-4.95,4.61-5.63c0.23-0.04,0.29-0.05,0.51-0.09L135.72,133.71z"/>
		<path class="st0" d="M139.21,136.81c0.48,0,0.68-0.23,0.68-0.62c0-0.38-0.2-0.63-0.68-0.63h-0.34v1.26H139.21z M140.4,137.9h-0.56
			l-0.46-0.69c-0.05,0.01-0.11,0.01-0.17,0.01h-0.35v0.68h-0.52v-2.78h0.86c0.81,0,1.2,0.49,1.2,1.06c0,0.37-0.19,0.73-0.55,0.91
			L140.4,137.9z M141.38,136.53c0,1.27-0.9,2.1-2.12,2.1c-1.2,0-2.07-0.83-2.07-2.1c0-1.28,0.87-2.11,2.07-2.11
			C140.47,134.42,141.38,135.25,141.38,136.53 M136.7,136.53c0-1.47,1.15-2.52,2.55-2.52c1.42,0,2.59,1.06,2.59,2.52
			c0,1.44-1.17,2.51-2.59,2.51C137.86,139.04,136.7,137.97,136.7,136.53"/>
	</g>
</g>
</svg>
