<?xml version="1.0" encoding="utf-8"?>
<!-- Generator: Adobe Illustrator 28.0.0, SVG Export Plug-In . SVG Version: 6.00 Build 0)  -->
<svg version="1.1" id="Layer_1" xmlns="http://www.w3.org/2000/svg" xmlns:xlink="http://www.w3.org/1999/xlink" x="0px" y="0px"
	 viewBox="0 0 198.43 198.43" style="enable-background:new 0 0 198.43 198.43;" xml:space="preserve">
<style type="text/css">
	
		.st0{clip-path:url(#SVGID_00000127756529691981607770000013803068766620895925_);fill-rule:evenodd;clip-rule:evenodd;fill:#1B1918;}
	.st1{clip-path:url(#SVGID_00000127756529691981607770000013803068766620895925_);fill:none;stroke:#1B1918;stroke-width:0.967;}
	.st2{clip-path:url(#SVGID_00000127756529691981607770000013803068766620895925_);fill:none;stroke:#1B1918;stroke-width:0.713;}
	.st3{clip-path:url(#SVGID_00000127756529691981607770000013803068766620895925_);fill:none;stroke:#1B1918;stroke-width:1.26;}
	
		.st4{clip-path:url(#SVGID_00000127756529691981607770000013803068766620895925_);fill-rule:evenodd;clip-rule:evenodd;fill:#00A690;}
	
		.st5{clip-path:url(#SVGID_00000127756529691981607770000013803068766620895925_);fill-rule:evenodd;clip-rule:evenodd;fill:#F6BBCC;}
	
		.st6{clip-path:url(#SVGID_00000127756529691981607770000013803068766620895925_);fill-rule:evenodd;clip-rule:evenodd;fill:#00978D;}
	
		.st7{clip-path:url(#SVGID_00000127756529691981607770000013803068766620895925_);fill-rule:evenodd;clip-rule:evenodd;fill:#F8EF99;}
	.st8{clip-path:url(#SVGID_00000127756529691981607770000013803068766620895925_);fill-rule:evenodd;clip-rule:evenodd;}
	
		.st9{clip-path:url(#SVGID_00000127756529691981607770000013803068766620895925_);fill-rule:evenodd;clip-rule:evenodd;fill:#FFD500;}
	
		.st10{clip-path:url(#SVGID_00000127756529691981607770000013803068766620895925_);fill-rule:evenodd;clip-rule:evenodd;fill:#FFFFFF;}
	
		.st11{clip-path:url(#SVGID_00000127756529691981607770000013803068766620895925_);fill-rule:evenodd;clip-rule:evenodd;fill:#8178B3;}
	
		.st12{clip-path:url(#SVGID_00000127756529691981607770000013803068766620895925_);fill-rule:evenodd;clip-rule:evenodd;fill:#F08284;}
</style>
<g>
	<defs>
		<rect id="SVGID_1_" x="24.26" y="49.62" width="149.9" height="99.19"/>
	</defs>
	<clipPath id="SVGID_00000147187469451922098640000011532103591548630679_">
		<use xlink:href="#SVGID_1_"  style="overflow:visible;"/>
	</clipPath>
	
		<path style="clip-path:url(#SVGID_00000147187469451922098640000011532103591548630679_);fill-rule:evenodd;clip-rule:evenodd;fill:#1B1918;" d="
		M170.27,106.47c0,0,3.02,1.93,1.98,7.01c-1.04,5.08-6.71,5.21-6.71,5.21s2.73,7.95-6.59,6.97c0,0,6.06-7.23,8.21-8.86
		C169.32,115.17,170.27,106.47,170.27,106.47"/>
	
		<path style="clip-path:url(#SVGID_00000147187469451922098640000011532103591548630679_);fill-rule:evenodd;clip-rule:evenodd;fill:#1B1918;" d="
		M58.07,98.36c0,0-2.96-17.39-15.2-6.52c0,0-8.1,10.66-0.6,15.79C42.27,107.64,58.86,114.76,58.07,98.36 M43.66,82.17
		c0,0,29.49-2.63,23.17,22.11c-6.32,24.75-31.6,7.91-31.6,7.91c-7.37,5.26-7.9-3.17-7.9-3.17l12.63-53.17
		c5.79-7.91,8.43,2.62,8.43,2.62L43.66,82.17z"/>
	
		<path style="clip-path:url(#SVGID_00000147187469451922098640000011532103591548630679_);fill-rule:evenodd;clip-rule:evenodd;fill:#1B1918;" d="
		M79.48,95.8l13.32,2.66C92.8,98.46,88.1,86.17,79.48,95.8 M78.18,108.01l13.73,7.2c5.41,4.92-1.78,7.3-1.78,7.3l-7.81-2.01
		c-19.89-9.35-10.04-25.23-10.04-25.23c23.09-22.77,26.96,9.11,26.96,9.11l-19.16-3.3C72.02,99.55,78.18,108.01,78.18,108.01"/>
	
		<path style="clip-path:url(#SVGID_00000147187469451922098640000011532103591548630679_);fill-rule:evenodd;clip-rule:evenodd;fill:#1B1918;" d="
		M141.14,97.61l11.33-8.35C152.47,89.26,139.76,84.3,141.14,97.61 M149.58,107.11l15.08-5.5c7.54-0.72,4.36,6.45,4.36,6.45l-7,4.57
		c-21.03,8.73-26.32-9.88-26.32-9.88c-1.35-33.55,25.77-14.3,25.77-14.3l-15.88,12.38C138.82,105.95,149.58,107.11,149.58,107.11"/>
	
		<path style="clip-path:url(#SVGID_00000147187469451922098640000011532103591548630679_);fill-rule:evenodd;clip-rule:evenodd;fill:#1B1918;" d="
		M125.44,98.61c0,0-2.58-15.13-13.23-5.67c0,0-7.04,9.26-0.51,13.74C111.69,106.68,126.12,112.86,125.44,98.61 M109.86,87.96
		l1.83-1.38c3.67-5.95,23.83-5.05,20.61,14.19c-3.21,19.25-29.32,12.84-29.32,12.84l-4.13-51.31c4.13-9.17,7.79-0.46,7.79-0.46
		l2.75,23.83L109.86,87.96z"/>
	
		<path style="clip-path:url(#SVGID_00000147187469451922098640000011532103591548630679_);fill-rule:evenodd;clip-rule:evenodd;fill:#1B1918;" d="
		M149.54,138.58c-1.71,1.32-5.66,4.21-8.42,1.19c-2.77-3.03-1.18-7.63-0.66-8.82c0.53-1.18,3.69-8.29,8.03-9.08
		c0,0,4.88-1.19,5.79,3.82C155.19,130.69,151.26,137.27,149.54,138.58 M157.31,123.72c-1.96-5.92-7.1-5.92-7.1-5.92
		c-5.66,0.39-8.16,3.55-10.8,8.03c-2.63,4.47-2.72,11.22-2.23,12.89c0.66,2.24,1.57,5,6.84,5.39c5.27,0.39,8.56-4.87,9.35-5.92
		C154.15,137.15,159.28,129.63,157.31,123.72"/>
	
		<path style="clip-path:url(#SVGID_00000147187469451922098640000011532103591548630679_);fill:none;stroke:#1B1918;stroke-width:0.967;" d="
		M149.54,138.58c-1.71,1.32-5.66,4.21-8.42,1.19c-2.77-3.03-1.18-7.63-0.66-8.82c0.53-1.18,3.69-8.29,8.03-9.08
		c0,0,4.88-1.19,5.79,3.82C155.19,130.69,151.26,137.27,149.54,138.58z M157.31,123.72c-1.96-5.92-7.1-5.92-7.1-5.92
		c-5.66,0.39-8.16,3.55-10.8,8.03c-2.63,4.47-2.72,11.22-2.23,12.89c0.66,2.24,1.57,5,6.84,5.39c5.27,0.39,8.56-4.87,9.35-5.92
		C154.15,137.15,159.28,129.63,157.31,123.72z"/>
	
		<path style="clip-path:url(#SVGID_00000147187469451922098640000011532103591548630679_);fill-rule:evenodd;clip-rule:evenodd;fill:#1B1918;" d="
		M86.73,125.93c0,0-2.33,0.45-3.05,6.41c-0.73,5.97-1.17,9.9,1.75,11.5c2.9,1.6,3.78,0.43,4.94-0.73c1.16-1.17,5.24-6.55,6.12-11.64
		c0.88-5.1,0.58-5.54-0.44-5.54c-1.01,0-2.03,3.35-2.18,4.09c-0.14,0.72-2.47,9.17-3.93,10.05c-1.45,0.87-2.77,1.74-3.2-0.88
		c-0.44-2.62,0.14-7.72,0.73-9.75C88.04,127.4,87.9,125.66,86.73,125.93"/>
	
		<path style="clip-path:url(#SVGID_00000147187469451922098640000011532103591548630679_);fill:none;stroke:#1B1918;stroke-width:0.713;" d="
		M86.73,125.93c0,0-2.33,0.45-3.05,6.41c-0.73,5.97-1.17,9.9,1.75,11.5c2.9,1.6,3.78,0.43,4.94-0.73c1.16-1.17,5.24-6.55,6.12-11.64
		c0.88-5.1,0.58-5.54-0.44-5.54c-1.01,0-2.03,3.35-2.18,4.09c-0.14,0.72-2.47,9.17-3.93,10.05c-1.45,0.87-2.77,1.74-3.2-0.88
		c-0.44-2.62,0.14-7.72,0.73-9.75C88.04,127.4,87.9,125.66,86.73,125.93z"/>
	
		<path style="clip-path:url(#SVGID_00000147187469451922098640000011532103591548630679_);fill-rule:evenodd;clip-rule:evenodd;fill:#1B1918;" d="
		M38.8,145.12c0,0-2.5-17.46-1.66-22.01c0.83-4.54,6.35-4.78,7.47-1.67c0,0,1.37-4.31,6.08-4.07c0,0,4.43,0.48,5.53,2.15
		c0,0,3.88-4.74,5.53-5.26c6.08-1.91,15.49,15.79,20.74,23.92c0,0,0.78,2.8-1.11,3.82c-4.43,2.39-9.95-9.1-15.21-16.98
		c-3.77-5.66-4.98,0-4.98,0s2.21,15.07,1.11,17.95c-0.98,2.52-3.6,2.86-4.98,0.23c-1.38-2.63-3.04-14.11-3.59-15.54
		c-0.55-1.44-3.59-4.31-5.8-3.11c-2.21,1.2-3.04,4.78-3.04,6.22c0,1.43,0,11.96-0.56,13.39c-0.56,1.43-0.56,3.12-2.48,3.12
		C39.9,147.28,39.35,147.03,38.8,145.12"/>
	
		<path style="clip-path:url(#SVGID_00000147187469451922098640000011532103591548630679_);fill:none;stroke:#1B1918;stroke-width:1.26;" d="
		M38.8,145.12c0,0-2.5-17.46-1.66-22.01c0.83-4.54,6.35-4.78,7.47-1.67c0,0,1.37-4.31,6.08-4.07c0,0,4.43,0.48,5.53,2.15
		c0,0,3.88-4.74,5.53-5.26c6.08-1.91,15.49,15.79,20.74,23.92c0,0,0.78,2.8-1.11,3.82c-4.43,2.39-9.95-9.1-15.21-16.98
		c-3.77-5.66-4.98,0-4.98,0s2.21,15.07,1.11,17.95c-0.98,2.52-3.6,2.86-4.98,0.23c-1.38-2.63-3.04-14.11-3.59-15.54
		c-0.55-1.44-3.59-4.31-5.8-3.11c-2.21,1.2-3.04,4.78-3.04,6.22c0,1.43,0,11.96-0.56,13.39c-0.56,1.43-0.56,3.12-2.48,3.12
		C39.9,147.28,39.35,147.03,38.8,145.12z"/>
	
		<path style="clip-path:url(#SVGID_00000147187469451922098640000011532103591548630679_);fill-rule:evenodd;clip-rule:evenodd;fill:#1B1918;" d="
		M103.78,126.57c0,0-1.53-4.59-4.08,0.25l-1.02,17.86c0,0,0.51,4.59,3.82,0l1.52-12.49c0,0,2.3-4.09,4.08,0.25l4.09,14.03
		c0,0,6.12,2.29,5.1-4.59c0,0-3.82-17.1-10.71-16.07L103.78,126.57z"/>
	
		<path style="clip-path:url(#SVGID_00000147187469451922098640000011532103591548630679_);fill-rule:evenodd;clip-rule:evenodd;fill:#1B1918;" d="
		M129.24,131.42c0,0-5.22-5.39-8.63,1.44c0,0,0,9,4.32,9.53c0,0,3.42,0,5.04-2.7C129.96,139.69,131.21,134.3,129.24,131.42
		 M133.49,110.95l1.44,26.84c2.88,3.84-0.25,6.71-0.25,6.71c-3.11,0.96-3.59-1.67-3.59-1.67l-1.44,1.44
		c-9.35,7.92-13.18-9.11-13.18-9.11c0.24-9.11,11.5-10.54,11.5-10.54l0.72-13.9C132.29,106.39,133.49,110.95,133.49,110.95"/>
	
		<path style="clip-path:url(#SVGID_00000147187469451922098640000011532103591548630679_);fill-rule:evenodd;clip-rule:evenodd;fill:#00A690;" d="
		M54.99,95.09c0,0-2.95-17.39-15.19-6.52c0,0-8.09,10.66-0.59,15.77C39.2,104.34,55.78,111.46,54.99,95.09 M40.58,78.88
		c0,0,29.49-2.63,23.17,22.12c-6.31,24.75-31.59,7.9-31.59,7.9c-7.37,5.27-7.9-3.18-7.9-3.18L36.9,52.55
		c5.79-7.9,8.42,2.63,8.42,2.63L40.58,78.88z"/>
	
		<path style="clip-path:url(#SVGID_00000147187469451922098640000011532103591548630679_);fill-rule:evenodd;clip-rule:evenodd;fill:#F6BBCC;" d="
		M76.71,94.29l13.32,2.68C90.03,96.97,85.32,84.67,76.71,94.29 M75.41,106.5l13.72,7.19c5.41,4.93-1.78,7.31-1.78,7.31l-7.81-2.03
		C59.66,109.63,69.5,93.77,69.5,93.77c23.08-22.78,26.96,9.11,26.96,9.11l-19.15-3.31C69.24,98.04,75.41,106.5,75.41,106.5"/>
	
		<path style="clip-path:url(#SVGID_00000147187469451922098640000011532103591548630679_);fill-rule:evenodd;clip-rule:evenodd;fill:#00978D;" d="
		M138.53,97.15l11.32-8.35C149.85,88.8,137.15,83.85,138.53,97.15 M146.98,106.66l15.08-5.5c7.53-0.72,4.36,6.45,4.36,6.45
		l-6.99,4.57c-21.03,8.73-26.32-9.86-26.32-9.86c-1.36-33.59,25.76-14.31,25.76-14.31l-15.88,12.36
		C136.2,105.5,146.98,106.66,146.98,106.66"/>
	
		<path style="clip-path:url(#SVGID_00000147187469451922098640000011532103591548630679_);fill-rule:evenodd;clip-rule:evenodd;fill:#F8EF99;" d="
		M122.86,95.73c0,0-2.58-15.12-13.23-5.67c0,0-7.04,9.28-0.51,13.74C109.11,103.8,123.54,109.99,122.86,95.73 M107.28,85.08
		l1.84-1.37c3.65-5.96,23.82-5.04,20.61,14.2c-3.21,19.24-29.32,12.83-29.32,12.83l-4.12-51.3c4.12-9.16,7.78-0.45,7.78-0.45
		l2.75,23.82L107.28,85.08z"/>
	
		<path style="clip-path:url(#SVGID_00000147187469451922098640000011532103591548630679_);fill-rule:evenodd;clip-rule:evenodd;fill:#00A690;" d="
		M102.63,124.92c0,0-1.53-4.58-4.08,0.26l-1.02,17.86c0,0,0.5,4.59,3.82,0l1.53-12.5c0,0,2.3-4.09,4.09,0.25l4.08,14.03
		c0,0,6.12,2.3,5.1-4.59c0,0-3.83-17.09-10.71-16.06L102.63,124.92z"/>
	
		<path style="clip-path:url(#SVGID_00000147187469451922098640000011532103591548630679_);fill-rule:evenodd;clip-rule:evenodd;fill:#F6BBCC;" d="
		M128.2,129.86c0,0-5.21-5.39-8.63,1.44c0,0,0,9,4.32,9.53c0,0,3.41,0,5.03-2.69C128.91,138.14,130.18,132.75,128.2,129.86
		 M132.45,109.39l1.44,26.84c2.88,3.84-0.24,6.71-0.24,6.71c-3.11,0.96-3.59-1.68-3.59-1.68l-1.45,1.44
		c-9.34,7.91-13.17-9.1-13.17-9.1c0.24-9.12,11.5-10.56,11.5-10.56l0.73-13.89C131.26,104.84,132.45,109.39,132.45,109.39"/>
	
		<path style="clip-path:url(#SVGID_00000147187469451922098640000011532103591548630679_);fill-rule:evenodd;clip-rule:evenodd;fill:#00978D;" d="
		M36.14,144.06c0,0-2.49-17.46-1.66-22.01c0.83-4.54,6.36-4.78,7.47-1.67c0,0,1.38-4.3,6.09-4.07c0,0,4.42,0.48,5.53,2.16
		c0,0,3.88-4.74,5.53-5.26c6.09-1.91,15.48,15.79,20.74,23.92c0,0,0.78,2.81-1.1,3.83c-4.42,2.39-9.96-9.09-15.21-16.99
		c-3.76-5.67-4.97,0-4.97,0s2.21,15.07,1.11,17.94c-0.98,2.53-3.6,2.86-4.97,0.24c-1.39-2.64-3.05-14.11-3.6-15.54
		c-0.55-1.45-3.6-4.31-5.8-3.1c-2.22,1.2-3.05,4.78-3.05,6.21c0,1.43,0,11.96-0.55,13.4c-0.55,1.43-0.55,3.11-2.49,3.11
		C37.24,146.2,36.69,145.96,36.14,144.06"/>
	
		<path style="clip-path:url(#SVGID_00000147187469451922098640000011532103591548630679_);fill-rule:evenodd;clip-rule:evenodd;fill:#F8EF99;" d="
		M85.54,125.32c0,0-2.33,0.44-3.05,6.4c-0.74,5.97-1.17,9.9,1.74,11.51c2.92,1.59,3.79,0.43,4.96-0.73
		c1.17-1.16,5.24-6.55,6.11-11.65c0.88-5.1,0.59-5.53-0.43-5.53c-1.02,0-2.04,3.34-2.18,4.08c-0.15,0.73-2.47,9.18-3.94,10.05
		c-1.45,0.87-2.76,1.75-3.2-0.86c-0.44-2.63,0.15-7.73,0.73-9.77C86.85,126.77,86.7,125.04,85.54,125.32"/>
	
		<path style="clip-path:url(#SVGID_00000147187469451922098640000011532103591548630679_);fill-rule:evenodd;clip-rule:evenodd;fill:#00A690;" d="
		M147.54,137c-1.71,1.31-5.66,4.2-8.43,1.19c-2.76-3.04-1.18-7.64-0.65-8.83c0.53-1.17,3.68-8.28,8.02-9.07c0,0,4.87-1.19,5.8,3.82
		C153.2,129.11,149.25,135.68,147.54,137 M155.3,122.12c-1.97-5.92-7.1-5.92-7.1-5.92c-5.66,0.39-8.16,3.56-10.79,8.02
		c-2.63,4.48-2.72,11.25-2.23,12.9c0.66,2.24,1.58,5.01,6.84,5.41c5.27,0.39,8.56-4.87,9.34-5.92
		C152.15,135.55,157.28,128.05,155.3,122.12"/>
	
		<path style="clip-path:url(#SVGID_00000147187469451922098640000011532103591548630679_);fill-rule:evenodd;clip-rule:evenodd;" d="
		M175.3,137.76c-1.12-2.61-2.44-5.12-2.76-8.05c0.19-0.16,0.35-0.4,0.58-0.48C174.46,131.83,175.17,134.67,175.3,137.76
		 M167.02,138.58c-0.98-0.23-2.14-0.23-3.09-0.34c1.05-0.98,1.82-2.32,3.17-2.99L167.02,138.58z M201.23,86.72
		c-1.29-0.98-2.71-1.59-3.99-2.59c-2.66-2.72-5.38-6.36-9.11-7.07c-0.24-3.16-2.14-5.63-4.55-7.89c-0.26-0.26-0.17-0.76-0.08-1.07
		c0.68-1.93,3.88-0.99,3.25-3.57c-0.26-0.58-0.71-1.18-1.29-1.47c-0.53-0.1-1.25-0.17-1.71,0.08c-1.61,0.95-0.71,3.11-2.12,4.23
		c-2.01-0.81-4.02-1.7-6.34-1.8c-0.2,0-0.63-0.02-0.89,0.08c-0.58-0.44-0.29-1.2-0.25-1.85c0.28-0.99,1.78-1.56,1.22-2.77
		c-0.48-0.97-1.53-1.2-2.44-1.07c-0.23-0.05-0.55,0.1-0.81,0.18c-0.4,0.25-0.6,0.76-0.74,1.21c0.35,1.45,1.61,3.42,0.08,4.72
		c-3.13,0.67-7.18,2.37-7.71,6.09l-0.16,0.17c-3.45-0.22-6.42,0.74-9.02,2.6l-2.6,1.29l-3,0.33c-0.46,0.28-0.85,0.73-0.74,1.29
		c0.36,1.69,2.2,2.49,3.5,3.25c4.24,1.31,8.97,0.42,12.11-2.68c1.78,3.39-2.15,6.3,0.24,9.52c1.26,1.76,3.06,2.88,4.72,4.07
		c0.47,5.82,1.83,11.82,0.73,17.79c-0.4,2.43-1.33,4.62-2.53,6.75c-3.14,3.56-7.02,7.06-9.58,10.87c-0.27,0.58-0.93,1.14-1.39,1.47
		c-1.71-1.87-3.57-3.99-6.17-4.06c-0.33,0.59-0.41,1.26-1.05,1.7c0.24,0.94-1.06,1.03-0.91,1.96c1.63,0.46,3.46,0.56,4.47,2.27
		c0.27,0.55,0.58,1.21,0.33,1.87c-1.14,0.96-2.52,2.03-2.77,3.58c-0.31,1.92,0.32,3.76,2.03,4.79c0.32,0.23,0.8,0.31,0.98,0.73
		c0.16,0.98,0.21,2.14,1.21,2.6c2.82,0.63,5.94,0.79,8.94,0.81c0.29,0.19,0.41-0.02,0.74,0.08l3.65-0.24
		c0.13,0.72,0.39,1.46,0.4,2.12c1.1,1.9,3.47,1.37,5.36,1.69h1.23c1.44-0.05,2.72-0.48,3.98-0.97c0.91-0.7,0.18-1.72,0.24-2.6
		c2.15-0.14,4.21-0.54,6.02-1.55c0.45-0.24,0.75-0.71,0.73-1.22c-0.56-3-1.91-5.69-3.82-8.12c-2.27-3.92-4.14-8.01-4.79-12.6
		c0.73-2.52,1.3-5.19,0.98-8.04c-0.32-1.32-0.65-2.6-0.98-3.9c0.16-0.23-0.29-0.39-0.24-0.65c-0.86-4.48-2.85-8.49-3.41-13.08
		c0.14-1.21-0.1-2.77,1.22-3.26c1.96-0.08,4.36,0.32,5.92-0.97c1.8-1.51,2.07-3.63,2.69-5.61c0.68-1.5,2.37-2.18,3.32-3.58
		c1.48,2.58,4.24,5.22,7.24,5.76c2.42,0.19,5.77,1.24,7.55-0.88C201.23,87.31,201.41,87.01,201.23,86.72"/>
	
		<path style="clip-path:url(#SVGID_00000147187469451922098640000011532103591548630679_);fill-rule:evenodd;clip-rule:evenodd;fill:#FFD500;" d="
		M171.72,60.9c-0.58,1.41,1.22,2.22,0.82,3.73c-0.09,0.43-0.12,0.87-0.4,1.23c-0.42,0.33-0.8,0.64-1.31,0.73
		c-0.69,0.33-1.5,0.34-2.19,0.64c-2.07,0.55-4.04,2.54-4.47,4.63c-0.41,0.23-0.2,0.71-0.48,0.99c-2.48-0.15-5.23,0.05-7.31,1.38
		c-1.65,0.81-3.02,2.36-4.97,2.43c-1.05,0.1-2.37-0.32-2.92,0.82c-0.19,1.26,1.28,1.94,2.03,2.68c2.72,1.64,7.01,1.45,9.84,0.15
		c1.08-0.69,2.47-1.13,3.09-2.43c-0.15-0.12-0.11-0.36,0-0.48c0.04-0.1,0.15-0.08,0.24-0.08c1.36,2.26,0.91,5.43,0.08,7.79
		c-0.42,2.26,1.42,3.94,3.09,5.29c0.65,0.61,1.55,0.69,2.19,1.29c-0.24,0.68,0.13,1.31,0,2.03c0.56,0.19,0.97,0.71,1.46,1.06
		l0.8,0.89l0.58,4.39c-0.43,1.19-0.71,2.42-1.62,3.42c0.24,1.01-0.12,1.94,0,3c0.76,0.56,1.04,1.46,1.7,2.12
		c0.13,1.01,0.13,2.15,0,3.18l0.08,0.07c-0.36,1.3,0.17,2.97-1.04,3.91c-1.27,1.79-3.15,2.14-4.96,2.59
		c-0.92,0.7,0.09,1.59-0.24,2.52c-0.14,1.93-1.59,3.62-3.25,4.64c-1.02,0.51-2.22,0.06-3.33,0.08l-1.88,2.27
		c0.48,0.67,0.56,1.52,0.97,2.21c0.81,0.97-0.1,2.05-0.16,3.08c-0.83,1.95-0.43,4.62-2.85,5.68c-0.76,0.47-1.62,0.72-2.43,1.06
		c-0.56,0.04-0.43-0.5-0.9-0.65c-0.61-0.58-0.81-1.33-0.98-2.11c0.33-3.66,6.09-2.76,5.05-6.83c-0.83-2.04-2.87-3.77-4.8-4.71
		c-0.35-0.17-0.85-0.3-1.21-0.24v0.16c0.76,0.5,1.54,1.1,2.19,1.71l-0.08,0.08c-0.82-0.43-1.67-0.77-2.44-1.29l-0.74,0.81
		c0.96,0.91,2.44,1.24,3.34,2.1l-0.09,0.08c-0.98-0.71-2.17-0.91-3.26-1.36c-0.11,0.09-0.31,0.07-0.48,0.07l-0.33,0.56
		c2-0.1,3.63,1.23,4.72,2.77c0.21,0.77,0.35,1.87-0.41,2.43c-1.47,0.55-2.14,2.15-2.36,3.57c0.17,1.72,1.06,3.5,2.77,4.23
		c0.43,1.05,0.32,2.75,1.87,2.93c3.15,0.42,6.51,0.86,9.75,0.56c-0.14-1.99,0.19-4.01,0.65-5.85c-0.82-0.15-1.53-0.07-2.27-0.09
		c0.07-0.68,0.7-0.92,1.12-1.46c1.54-1.75,2.51-3.93,1.95-6.33c-0.38-1.51-1.89-2.9-3.33-3.4c-0.65-0.2-1.39-0.36-2.11-0.19
		l-0.16-0.15c0.19-0.46,0.75-0.43,1.21-0.4c2.13,0.26,4.16,1.76,4.88,3.81c0.4,1.52,0.01,3.14-0.32,4.56
		c0.36-0.33,1.05-0.74,0.98-1.23c0.12-0.49-0.25-1.09,0-1.62c-0.31-2.31-0.76-4.51-2.2-6.34c0.11-0.16,0.36-0.12,0.49,0
		c1.12,1.34,1.47,2.99,1.86,4.62l0.17,0.9l2.11,3.16l0.16,4.72c-0.3,1.1-1.13,1.98-1.94,2.84c2.21-1.01,5.19-0.45,7.72-0.47
		c0.34-0.07,0.79,0.1,1.21,0.08c-0.96-1.78-1.77-3.64-2.68-5.44c-2.36-0.79-4.49-3.15-4.88-5.61c0.18-1.96,0.58-3.8,0.89-5.68
		c0.45-0.6,1.39-0.74,1.71-1.46c0.1,0.01,0.27-0.07,0.32,0.07c-0.16,1.62-0.08,3.3,0.25,4.8h0.16c0.89-1.24,1.71-2.51,2.29-3.89
		c-0.9-1.51-1.29-3.22-1.8-4.88c0.35-1.88,1.29-3.51,1.8-5.29c0.79-0.72,1.35-1.82,2.26-2.44c-0.16-0.64-0.32-1.3-0.48-1.95
		c-3.12-0.97-3.49-4.39-4.23-6.98c0.38-1.15,0.51-2.38,1.15-3.42c-0.78-2.03-1.08-4.75,0-6.74c0.94-1.08,2.64-0.3,3.89-0.65
		c1.5-0.05,2.82-0.68,3.73-1.95c1.08-2.09,0.6-5.03,3.25-6.25c2.44-2.18,3.78-5.5,2.93-8.78c-0.63-2.27-2.32-3.88-4.06-5.69
		c-0.19-0.36-0.35-0.81-0.16-1.22c-0.03-0.2,0.02-0.57,0.16-0.82c0.59-1.75,3.13-0.42,3.16-2.51c0.07-0.86-0.69-1.33-1.22-1.79
		c-0.52-0.15-0.98-0.17-1.46,0.07c-1.36,1.15-0.24,3.4-2.03,4.31c-1.06,0.27-1.81-0.72-2.77-0.97c-1.47-0.42-3.05-0.86-4.72-0.56
		c-0.67-0.6-0.74-1.52-0.56-2.35c0.14-1.04,1.74-1.57,1.22-2.77C174.21,60.17,172.36,59.78,171.72,60.9"/>
	
		<path style="clip-path:url(#SVGID_00000147187469451922098640000011532103591548630679_);fill-rule:evenodd;clip-rule:evenodd;fill:#1B1918;" d="
		M168.64,74.79l0.07,0.08c0.86-1.22,2.4-1.7,3.91-1.47c0.51,0.12,0.92,0.73,1.38,0.73c-0.16-0.64-0.87-1.01-1.47-1.14
		C171.01,73.06,169.44,73.3,168.64,74.79"/>
	
		<path style="clip-path:url(#SVGID_00000147187469451922098640000011532103591548630679_);fill-rule:evenodd;clip-rule:evenodd;fill:#1B1918;" d="
		M153.53,79.09c-0.95,0.09-1.8-0.08-2.53-0.5c0.13,0.69,0.86,0.59,1.31,0.82c2.74,0.5,4.87-0.93,6.73-2.76
		c1.35-0.87,2.82-1.33,4.48-1.45l-0.08-0.41C159.36,74.31,157.55,79.38,153.53,79.09"/>
	
		<path style="clip-path:url(#SVGID_00000147187469451922098640000011532103591548630679_);fill-rule:evenodd;clip-rule:evenodd;fill:#1B1918;" d="
		M168.48,77.07c-0.85,1.51-1.18,3.82-0.17,5.36c0.61,0.8,1.65,1.2,2.69,0.9c1.86-0.94,2.85-2.95,3-4.96
		c0.06-1.28-0.59-2.42-1.63-3.08C170.81,74.74,169.31,75.68,168.48,77.07"/>
	
		<path style="clip-path:url(#SVGID_00000147187469451922098640000011532103591548630679_);fill-rule:evenodd;clip-rule:evenodd;fill:#FFFFFF;" d="
		M171.55,75.6c1.24,1.31,1.12,3.51,0.41,5.03c-0.63,0.74-0.99,1.65-1.86,2.2c0.62,0.21,1.4-0.02,1.94-0.41
		c1.39-1.35,2.11-3.16,1.72-5.04C173.41,76.54,172.6,75.54,171.55,75.6"/>
	
		<path style="clip-path:url(#SVGID_00000147187469451922098640000011532103591548630679_);fill-rule:evenodd;clip-rule:evenodd;fill:#8178B3;" d="
		M169.94,76.09c0.27,0.62,0.51,1.36,0.41,2.03c0.04,0.39-0.05,0.97-0.26,1.38c-0.44,0.78-0.66,1.78-1.62,2.2
		c0.02,0.35,0.35,0.68,0.57,0.89c1.69-0.57,2.5-2.36,2.85-3.91c-0.02-1.15-0.1-2.36-1.21-3L169.94,76.09z"/>
	
		<path style="clip-path:url(#SVGID_00000147187469451922098640000011532103591548630679_);fill-rule:evenodd;clip-rule:evenodd;fill:#1B1918;" d="
		M168.31,90.06c0.31,1.09,1.33,1.98,2.37,2.28l1.77,0.16c0.11-0.14,0.33-0.04,0.41-0.23c-0.34-0.12-0.79,0.02-1.22,0
		c-1.19-0.28-2.54-0.93-3.08-2.12l-0.32-1.14C168.07,89.34,168.26,89.72,168.31,90.06"/>
	
		<path style="clip-path:url(#SVGID_00000147187469451922098640000011532103591548630679_);fill-rule:evenodd;clip-rule:evenodd;fill:#1B1918;" d="
		M151.58,136.78c-0.19,1,0.22,1.8,0.89,2.36c0.36-1.32,0.25-2.97,0.73-4.3C152.49,135.26,151.58,135.85,151.58,136.78"/>
	
		<path style="clip-path:url(#SVGID_00000147187469451922098640000011532103591548630679_);fill-rule:evenodd;clip-rule:evenodd;fill:#FFFFFF;" d="
		M165.22,140.05c-0.31,1.48-0.77,3.18-0.24,4.71c0.82,0.05,1.56-0.04,2.27-0.25c-0.45-1.64-0.15-3.56-0.23-5.36
		c-0.38-0.21-0.81-0.28-1.3-0.24L165.22,140.05z"/>
	
		<path style="clip-path:url(#SVGID_00000147187469451922098640000011532103591548630679_);fill-rule:evenodd;clip-rule:evenodd;fill:#FFFFFF;" d="
		M167.59,142.97c0.27,1.78-0.06,3.96,1.54,5.03c0.69,0.12,1.32,0.42,2.11,0.32c2.31,0.06,4.9,0.39,6.75-0.88
		c1-1.15-0.18-2.37-0.41-3.51l-0.48-1.21C174.13,142.06,170.4,141.78,167.59,142.97"/>
	
		<path style="clip-path:url(#SVGID_00000147187469451922098640000011532103591548630679_);fill-rule:evenodd;clip-rule:evenodd;fill:#FFFFFF;" d="
		M170.32,79.3c-0.48,0-0.87-0.38-0.87-0.87c0-0.48,0.39-0.86,0.87-0.86c0.48,0,0.86,0.39,0.86,0.86
		C171.19,78.92,170.8,79.3,170.32,79.3"/>
	
		<path style="clip-path:url(#SVGID_00000147187469451922098640000011532103591548630679_);fill-rule:evenodd;clip-rule:evenodd;fill:#1B1918;" d="
		M169.05,93.72c0,0,6.02,2.66,1.22,9.75L169.05,93.72z"/>
	
		<path style="clip-path:url(#SVGID_00000147187469451922098640000011532103591548630679_);fill-rule:evenodd;clip-rule:evenodd;fill:#1B1918;" d="
		M173.68,99.61c0,0-5.09,7.16,3.06,10.56L173.68,99.61z"/>
	
		<path style="clip-path:url(#SVGID_00000147187469451922098640000011532103591548630679_);fill-rule:evenodd;clip-rule:evenodd;fill:#1B1918;" d="
		M177.2,111.92c0,0-2.61,1.37-3.46,4.82c0,0-2.27,4.03,1.12,8.47L177.2,111.92z"/>
	
		<path style="clip-path:url(#SVGID_00000147187469451922098640000011532103591548630679_);fill-rule:evenodd;clip-rule:evenodd;fill:#1B1918;" d="
		M174.86,125.93c0,0,3,2.99,0.45,8.79l-1.89-6.45L174.86,125.93z"/>
	
		<path style="clip-path:url(#SVGID_00000147187469451922098640000011532103591548630679_);fill-rule:evenodd;clip-rule:evenodd;fill:#1B1918;" d="
		M171.86,123.71c0,0-3.19,0.39-2.61,6.65c0,0,0.07,4.1,5.08,6.12C174.33,136.48,170.55,127.75,171.86,123.71"/>
	
		<path style="clip-path:url(#SVGID_00000147187469451922098640000011532103591548630679_);fill-rule:evenodd;clip-rule:evenodd;fill:#1B1918;" d="
		M167.3,131.41c0,0,6.58,6.58,0.2,10.88L167.3,131.41z"/>
	
		<path style="clip-path:url(#SVGID_00000147187469451922098640000011532103591548630679_);fill-rule:evenodd;clip-rule:evenodd;fill:#1B1918;" d="
		M157.43,127.43c0,0,5.77,10.42-4.72,12.44l0.71-5.4c0,0,4.44-0.98,2.81-5.28L157.43,127.43z"/>
	
		<path style="clip-path:url(#SVGID_00000147187469451922098640000011532103591548630679_);fill-rule:evenodd;clip-rule:evenodd;fill:#1B1918;" d="
		M169.49,87.75c-0.24-0.35-0.36-0.6-0.36-0.6c-0.67,0.39-1.79,0.19-1.79,0.19l-0.05-0.1c2.64,0.04,2.55-1.81,2.55-1.81l0.17-0.06
		c0.27,0.61-0.56,1.53-0.56,1.53c0.86,1.6,1.89,2.23,1.89,2.23c2.02,1.73,5.06,0.73,5.06,0.73c3.73-1.49,1.82-3.1,1.82-3.1
		c-1.08-0.65-1.82-2.14-1.82-2.14c-0.85-1.89,0.12-3.33,0.12-3.33c-1.28,2.79,2.12,5.34,2.12,5.34c1.37,1.41-0.23,2.62-0.23,2.62
		c-1.67,1.72-4.48,1.35-4.48,1.35c-0.09,0-0.18-0.01-0.27-0.01h-0.01c-0.35,0.17-1.56,0.97-2.87,0.36c-0.74-0.36-1.54-1.39-1.3-3.13
		L169.49,87.75z"/>
	
		<path style="clip-path:url(#SVGID_00000147187469451922098640000011532103591548630679_);fill-rule:evenodd;clip-rule:evenodd;fill:#F08284;" d="
		M172.97,90.45l0.02,0.01c-0.41,0.2-1.32,0.58-2.09,0.21c-0.61-0.31-1-0.86-1.26-1.94c0,0-0.08-0.67-0.01-0.76
		C169.63,87.96,170.59,89.81,172.97,90.45"/>
</g>
</svg>
