<?xml version="1.0" encoding="utf-8"?>
<!-- Generator: Adobe Illustrator 28.0.0, SVG Export Plug-In . SVG Version: 6.00 Build 0)  -->
<svg version="1.1" id="Layer_1" xmlns="http://www.w3.org/2000/svg" xmlns:xlink="http://www.w3.org/1999/xlink" x="0px" y="0px"
	 viewBox="0 0 198.43 198.43" style="enable-background:new 0 0 198.43 198.43;" xml:space="preserve">
<style type="text/css">
	.st0{fill:#FFD02A;}
	.st1{fill:#293779;}
	.st2{fill:#EE2C27;}
</style>
<g>
	<g>
		<path d="M93.12,94.53L93.12,94.53c-2.65,0-4.61-0.84-4.67-2.11c-0.06-1.47,2.48-2.47,5.39-2.47c2.85,0,4.88,0.84,4.93,2.14
			c0.07,1.54-2.48,2.44-5.53,2.44H93.12z M84.5,108.48l3.88-12.27h7.95l-4.15,12.27H84.5z"/>
		<path d="M111.61,97.07c-3.3-0.05-5.39,0.71-6.73,3.33c0.88,0.15,3.42,0.47,5.76,0.41c2.35-0.06,4.5-0.51,4.62-1.88
			C115.34,97.98,113.89,97.1,111.61,97.07 M119.25,108.05c-3.31,0.85-7.43,1.14-10.62,1.14c-8.07,0-12.25-2.32-12.25-6.08
			c0-4.38,6.27-8.93,16.55-8.93c5.74,0,9.87,1.64,9.87,4.32c0,3.64-9.72,6.95-18.61,4.06c-0.25,1.34,0.38,2.45,1.49,2.84
			c3.83,1.38,10.67,0.29,14.95-0.99L119.25,108.05z"/>
		<path d="M121.99,104.37c1.66,0.81,6.41,1.9,9.61,2c4.61,0.14,6.94-0.73,6.94-1.43c0-0.7-1.85-1.14-7.09-1.43
			c-3.9-0.21-8.05-1-7.9-3.95c0.19-3.57,7.1-5.31,15.69-5.31c3.89,0,7.51,0.43,9.14,0.81l-1.19,3.69c-1.36-0.26-3.98-1.7-11.18-1.48
			c-2.66,0.08-4.47,0.54-4.47,1.33c0,0.58,0.36,1.34,4.05,1.34c4.36,0,11.21-0.08,11.21,3.63c0,3.27-6.83,6.03-16.15,5.57
			c-4.22-0.2-8.18-0.49-10.16-1.11L121.99,104.37z"/>
		<path d="M147.76,104.37c1.66,0.81,6.41,1.9,9.61,2c4.61,0.14,6.95-0.73,6.95-1.43c0-0.7-1.86-1.14-7.09-1.43
			c-3.9-0.21-8.06-1-7.9-3.95c0.19-3.57,7.1-5.31,15.69-5.31c3.89,0,7.51,0.43,9.14,0.81l-1.19,3.69c-1.36-0.26-3.98-1.7-11.18-1.48
			c-2.66,0.08-4.47,0.54-4.47,1.33c0,0.58,0.35,1.34,4.04,1.34c4.37,0,11.21-0.08,11.21,3.63c0,3.27-6.83,6.03-16.15,5.57
			c-4.22-0.2-8.18-0.49-10.16-1.11L147.76,104.37z"/>
		<path d="M71.75,97L71.75,97h-9.64c1.04-3.55,5.39-3.98,5.39-3.98s8.78-0.75,8.38,1.59C75.49,96.96,71.75,97,71.75,97
			 M75.41,102.74c-0.68,2.18-4.5,2.38-6.37,2.38h-9.57l1.51-4.74h8.06C70.86,100.38,76.18,100.27,75.41,102.74 M78.57,98.1
			c0,0,2.64-0.54,4.42-2c1.07-0.87,1.82-2.07,1.5-3.68c-0.19-0.96-1.2-1.62-2.67-2.06c-2.33-0.69-4.88-0.87-7.43-0.84
			c-1.87,0.02-3.85,0.06-5.81,0.21c-3.93,0.29-8.26,0.82-11.38,3.47c-1.45,1.24-2.83,3.01-3.8,5.58l-3,9.7h19.17
			c0,0,4.35,0.1,8.24-1.03c2.58-0.75,4.95-2.03,5.73-4.23c0.75-2.12-0.06-3.37-1.23-4.1C80.75,98.16,78.57,98.1,78.57,98.1"/>
		<path class="st0" d="M49.76,87.21c-3.44-0.38-8.55,1.28-11.98,5.45c-1.73,2.11-2.8,4.56-3.3,7.16c-0.39,2.01-0.44,4.11-0.2,6.18
			c0.16-4.56,2.6-9.25,6.83-11.67c2.16-1.24,5.07-2.07,8.83-2.47c1.91-0.2,2.79-1.12,2.82-2.09C52.79,88.63,51.69,87.42,49.76,87.21
			"/>
		<path class="st1" d="M32.49,104.06c-0.29-1.63-0.28-3.31-0.03-4.92c0.12-0.74,0.28-1.52,0.5-2.35c0.37-1.37,0.9-2.87,1.63-4.48
			c2-4.32-2.15-5.32-4.2-1.02c-1.51,3.17-2.93,12.28,5.05,18.8C33.84,108.44,32.89,106.31,32.49,104.06"/>
		<path class="st2" d="M36.28,111.27c-3.86-1.31-7.43-4.86-8.35-8.95c-0.91-4.06-4.26-2.28-3.57,0.53
			C24.71,104.28,26.05,108.54,36.28,111.27"/>
	</g>
</g>
</svg>
