<?xml version="1.0" encoding="utf-8"?>
<!-- Generator: Adobe Illustrator 28.0.0, SVG Export Plug-In . SVG Version: 6.00 Build 0)  -->
<svg version="1.1" id="Layer_1" xmlns="http://www.w3.org/2000/svg" xmlns:xlink="http://www.w3.org/1999/xlink" x="0px" y="0px"
	 viewBox="0 0 198.43 198.43" style="enable-background:new 0 0 198.43 198.43;" xml:space="preserve">
<style type="text/css">
	.st0{fill-rule:evenodd;clip-rule:evenodd;}
</style>
<g>
	<rect x="155.8" y="59.42" class="st0" width="3.67" height="57.01"/>
	<rect x="163.14" y="59.42" class="st0" width="3.67" height="57.01"/>
	<rect x="170.49" y="59.42" class="st0" width="3.67" height="57.01"/>
	<g>
		<path class="st0" d="M48.45,76.66h2.19c1.25,0,2.28,1.03,2.28,2.33c0,1.25-1.03,2.28-2.28,2.28h-1.97h-2.6v3.9h4.66
			c3.4,0,6.18-2.78,6.18-6.18c0-3.45-2.78-6.18-6.18-6.18l-7.93-0.04v-0.04h-3.67v0.04h-0.04v3.9h0.04v39.77h3.67V76.66H48.45z"/>
		<path class="st0" d="M50.69,100.04H46.3v3.9h4.66c4.08,0,7.43-3.31,7.43-7.43c0-4.12-3.36-7.43-7.43-7.43l-4.97-0.04v3.94
			l4.7,0.04c1.93,0,3.49,1.57,3.49,3.49C54.18,98.47,52.61,100.04,50.69,100.04"/>
		<path class="st0" d="M65.82,96.77c0-3.85-1.61-7.3-4.21-9.81c1.79-2.15,2.87-4.97,2.87-8.02c0-6.94-5.6-12.54-12.54-12.54H35.46
			v-0.05h-3.67v50.07h3.67V70.35h16.53c4.75,0,8.6,3.85,8.6,8.6c0,4.03-2.73,7.39-6.45,8.37l0.18,0.04c4.3,0.99,7.48,4.84,7.48,9.45
			c0,5.37-4.34,9.72-9.72,9.72l-5.78-0.09v3.9h5.96C59.73,110.34,65.82,104.25,65.82,96.77"/>
		<path class="st0" d="M69.54,86.92c1.12-2.42,1.7-5.11,1.7-7.97c0-10.75-8.73-19.53-19.53-19.53H28.07H24.4v3.99v53.03h3.67V63.41
			h24.01c8.6,0,15.59,6.94,15.59,15.54c0,2.69-0.67,5.15-1.84,7.34l-0.63,0.9c0.04,0,0.04,0.04,0.09,0.09
			c-0.04,0.04-0.04,0.04-0.09,0.09l0.58,0.58c1.88,2.55,3,5.69,3,9.14c0,8.51-6.9,15.41-15.41,15.41h-6.76v3.94h6.18
			c10.79,0,19.53-8.73,19.53-19.48C72.32,93.28,71.33,89.87,69.54,86.92"/>
		<path class="st0" d="M90.68,116.43V82.89c0-4.84,3.94-8.73,8.78-8.73c4.84,0,8.73,3.9,8.73,8.73v33.54h-3.67V82.89
			c0-2.78-2.28-5.06-5.06-5.06c-2.82,0-5.11,2.28-5.11,5.06v33.54H90.68z"/>
		<path class="st0" d="M127.85,59.42c-5.11,0-9.81,1.61-13.66,4.39c-0.18,0.13-0.36,0.27-0.54,0.4c-0.18-0.13-0.36-0.27-0.54-0.4
			c-3.85-2.78-8.55-4.39-13.66-4.39c-12.99,0-23.51,10.52-23.51,23.47v33.54h3.72l0.09-33.54c0-10.88,8.82-19.71,19.71-19.71
			c3.94,0,7.61,1.16,10.7,3.18c1.25,0.85,2.42,1.79,3.45,2.87v0.04h0.04v-0.04c1.07-1.07,2.24-2.02,3.49-2.87
			c3.09-2.02,6.76-3.18,10.7-3.18c10.88,0,19.71,8.82,19.71,19.71l-0.04,33.54h3.85V82.89C151.37,69.94,140.84,59.42,127.85,59.42"
			/>
		<path class="st0" d="M119.16,116.43V82.89c0-4.84,3.9-8.73,8.73-8.73c4.84,0,8.78,3.9,8.78,8.73v33.54H133V82.89
			c0-2.78-2.28-5.06-5.11-5.06c-2.78,0-5.06,2.28-5.06,5.06v33.54H119.16z"/>
		<path class="st0" d="M127.9,66.77c-6.14,0-11.51,3.49-14.24,8.55c-2.69-5.06-8.06-8.55-14.2-8.55c-8.91,0-16.12,7.26-16.12,16.12
			v33.54h3.72V82.89c0-6.81,5.55-12.36,12.41-12.36c6.67,0,12.14,5.33,12.36,12c0,0.13-0.04,0.22-0.04,0.36v33.54h0.04h3.72h0.04
			V82.89c0-0.13-0.04-0.22-0.04-0.36c0.22-6.67,5.69-12,12.36-12c6.85,0,12.36,5.55,12.36,12.36v33.54h3.76V82.89
			C144.02,74.02,136.81,66.77,127.9,66.77"/>
		<polygon class="st0" points="35.73,125.79 27.44,125.79 27.44,129.06 35.06,129.06 35.06,131.79 27.44,131.79 27.44,135.83 
			36.09,135.83 36.09,138.6 24.26,138.6 24.26,123.02 35.73,123.02 		"/>
		<path class="st0" d="M56.64,128.12c-0.27-0.94-0.76-2.69-3.45-2.69c-1.57,0-3.85,1.03-3.85,5.42c0,2.82,1.12,5.33,3.85,5.33
			c1.79,0,3.05-1.03,3.45-2.91h3.27c-0.67,3.36-2.87,5.73-6.76,5.73c-4.17,0-7.12-2.78-7.12-8.15c0-5.46,3.14-8.24,7.17-8.24
			c4.66,0,6.54,3.22,6.72,5.51H56.64z"/>
		<path class="st0" d="M81.99,133.14c0,4.12-2.46,5.87-6.36,5.87c-1.43,0-3.58-0.36-4.97-1.88c-0.85-0.94-1.16-2.19-1.21-3.76
			v-10.35h3.31v10.12c0,2.15,1.25,3.14,2.78,3.14c2.24,0,3.14-1.12,3.14-3v-10.26h3.31V133.14z"/>
		<path class="st0" d="M94.53,138.6h-3.4l5.55-15.59h3.72l5.51,15.59h-3.54l-0.99-3.22h-5.78L94.53,138.6z M96.5,132.69h3.94
			l-1.93-6.14h-0.04L96.5,132.69z"/>
		<path class="st0" d="M114.69,123.02h6.85c5.24,0,6.36,4.48,6.36,7.43c0,3.31-1.34,8.15-6.49,8.15h-6.72V123.02z M117.87,135.91
			h3.18c2.64,0,3.54-2.69,3.54-5.24c0-4.61-2.19-4.97-3.58-4.97h-3.14V135.91z"/>
		<path class="st0" d="M144.07,122.61c2.06,0,7.48,0.9,7.48,8.2c0,7.3-5.42,8.2-7.48,8.2s-7.48-0.9-7.48-8.2
			C136.59,123.51,142.01,122.61,144.07,122.61 M144.07,136.27c1.75,0,4.21-1.12,4.21-5.46c0-4.34-2.46-5.42-4.21-5.42
			c-1.79,0-4.25,1.07-4.25,5.42C139.81,135.15,142.27,136.27,144.07,136.27"/>
		<path class="st0" d="M160.32,123.02h7.84c4.17,0,4.93,3.05,4.93,4.43c0,1.7-0.85,3.18-2.42,3.67c1.3,0.58,1.97,1.07,1.97,3.94
			c0,2.28,0,2.87,0.72,3.14v0.4h-3.63c-0.22-0.76-0.31-1.57-0.31-3.14c0-2.15-0.13-2.96-2.55-2.96h-3.36v6.09h-3.18V123.02z
			 M167.31,129.87c1.7,0,2.51-0.58,2.51-2.1c0-0.85-0.36-2.06-2.28-2.06h-4.03v4.17H167.31z"/>
	</g>
</g>
</svg>
