<?xml version="1.0" encoding="utf-8"?>
<!-- Generator: Adobe Illustrator 28.0.0, SVG Export Plug-In . SVG Version: 6.00 Build 0)  -->
<svg version="1.1" id="Layer_1" xmlns="http://www.w3.org/2000/svg" xmlns:xlink="http://www.w3.org/1999/xlink" x="0px" y="0px"
	 viewBox="0 0 198.43 198.43" style="enable-background:new 0 0 198.43 198.43;" xml:space="preserve">
<style type="text/css">
	.st0{fill-rule:evenodd;clip-rule:evenodd;fill:#231F20;}
</style>
<g>
	<path class="st0" d="M26.77,90.97h4.44c2.35,0,3.78,1.09,3.88,2.18c0.1,1.09-1.13,2.18-3.74,2.18h-4.59V90.97z M26.77,96.03h1.33
		c3.52,0,11.65,0.32,11.86,5.47c0.08,1.87-0.76,3.18-2.07,4.09c-2.67,1.87-7.27,2.08-9.91,1.99l-1.21-0.14V96.03z M30.89,108.25
		c0,0,2.67,0.13,5.22-0.32c1.33-0.24,2.61-0.68,3.68-1.43c0.87-0.6,1.49-1.3,1.9-2.11c0.58-1.16,0.74-2.42,0.5-3.59
		c-0.31-1.52-1.2-2.56-2.35-3.29c-1.48-0.94-3.4-1.37-5.1-1.67c0,0,0.54-0.22,1.09-0.7c0.54-0.47,1.09-1.2,1.09-2.21
		c0-1.01-0.67-1.68-1.48-2.1c-0.81-0.42-1.77-0.59-2.35-0.61l-2.75-0.08h-6.07v18.09H30.89z M44.99,90.17h2.11v13.84
		c0,2.15,1.12,3.23,4.65,3.23c3.54,0,4.8-1.04,4.8-3.21V90.17h1.23v14.51c0,2.18-1.7,3.56-6.5,3.56c-4.77,0-6.29-1.44-6.29-3.58
		V90.17z M119.98,108.25l3.57-11.14h3.64l5.07,11.14h2.64l-9.04-18.09h-1.1l-6.34,18.09H119.98z M123.81,96.32l1.08-3.35h0.42
		l1.53,3.35H123.81z M171.49,108.25h2.67V90.16h-2.67V108.25z M113.78,94.49h-0.63c0,0-0.05-0.64-1.45-1.73
		c-1.39-1.09-4.05-1.73-7.23-1.73c-2.05,0-4.65,0.69-6.88,1.93c-2.69,1.5-4.84,3.81-4.84,6.7c0,2.51,1.64,4.32,3.79,5.53
		c2.14,1.21,4.79,1.84,6.81,1.99c1.04,0.08,4.07,0.15,6.57-0.33c1.31-0.25,2.48-0.65,3.14-1.29c0.13-0.12,0.11-0.4,0.11-0.76
		c0-0.36-0.03-2.87-0.03-2.87l3.03,0v3.01c0,0-1.63,1.85-5.08,2.67c-3.45,0.81-9.65,0.93-13.31-0.13c-3.66-1.06-7.55-3.74-7.55-8.18
		c0-4.44,5.1-6.83,6.55-7.46c1.45-0.64,5.08-1.67,7.89-1.67c2.81,0,5.26,0.53,6.63,0.9c1.37,0.37,2.47,0.72,2.47,0.72V94.49z
		 M84.48,94.49h-0.63c0,0-0.05-0.64-1.45-1.73s-4.05-1.73-7.23-1.73c-2.05,0-4.65,0.69-6.87,1.93c-2.69,1.5-4.84,3.81-4.84,6.7
		c0,2.51,1.64,4.32,3.79,5.53c2.14,1.21,4.79,1.84,6.81,1.99c1.04,0.08,4.07,0.15,6.57-0.33c1.31-0.25,2.48-0.65,3.14-1.29
		c0.13-0.12,0.11-0.4,0.11-0.76c0-0.36-0.03-2.87-0.03-2.87l3.02,0v3.01c0,0-1.63,1.85-5.08,2.67c-3.45,0.81-9.65,0.93-13.31-0.13
		c-3.66-1.06-7.55-3.74-7.55-8.18c0-4.44,5.1-6.83,6.55-7.46c1.45-0.64,5.08-1.67,7.89-1.67c2.81,0,5.26,0.53,6.63,0.9
		c1.37,0.37,2.47,0.72,2.47,0.72V94.49z M158.63,108.25h2.58V91.22h6.2v-1.05h-14.99v1.05h6.2V108.25z M141.6,108.25h2.58V91.22h6.2
		v-1.05H135.4v1.05h6.2V108.25z"/>
</g>
</svg>
