<?xml version="1.0" encoding="utf-8"?>
<!-- Generator: Adobe Illustrator 28.0.0, SVG Export Plug-In . SVG Version: 6.00 Build 0)  -->
<svg version="1.1" id="Layer_1" xmlns="http://www.w3.org/2000/svg" xmlns:xlink="http://www.w3.org/1999/xlink" x="0px" y="0px"
	 viewBox="0 0 198.43 198.43" style="enable-background:new 0 0 198.43 198.43;" xml:space="preserve">
<style type="text/css">
	.st0{fill-rule:evenodd;clip-rule:evenodd;fill:#1B1918;}
</style>
<g>
	<path class="st0" d="M26.41,104.7l0.01-2.95l-0.44-0.03c-0.32,2.02-2.08,3.5-4.14,3.5c-2.08,0.01-4.01-1.08-5.06-2.86
		c-1.05-1.78-1.05-3.97,0-5.75c1.05-1.78,2.98-2.87,5.07-2.86c2.07,0.01,3.84,1.49,4.19,3.5l0.38,0.01v-2.97
		c-1.61-1.02-3.48-1.57-5.4-1.57c-3.77,0.02-6.83,3.01-6.85,6.72c-0.02,3.71,2.99,6.74,6.76,6.81
		C22.88,106.26,24.78,105.71,26.41,104.7"/>
	<path class="st0" d="M47.91,106.26c1.59,0,2.98-1.11,3.4-2.67c0.21-0.79,0.15-1.6-0.13-2.32c-0.55-1.41-1.84-1.98-3.04-2.7
		c-0.97-0.58-2.14-1.03-2.47-2.26c-0.14-0.52-0.1-1.09,0.13-1.6c0.23-0.51,0.63-0.91,1.11-1.14c0.48-0.23,1.03-0.3,1.57-0.16
		c0.54,0.14,0.99,0.48,1.28,0.93c0.3,0.45,0.45,1,0.41,1.56h0.26l0.05-0.89l0.05-0.89c-0.39-0.55-0.93-0.94-1.53-1.16
		c-0.6-0.22-1.26-0.26-1.91-0.09c-0.64,0.17-1.21,0.53-1.63,1.01c-0.42,0.48-0.71,1.1-0.8,1.77c-0.09,0.67,0.04,1.32,0.32,1.89
		c0.53,1.07,1.58,1.64,2.5,2.31c0.32,0.23,0.67,0.46,1.01,0.7c0.34,0.24,0.66,0.5,0.94,0.79c0.63,0.68,0.85,1.49,0.68,2.41
		c-0.3,0.97-1.2,1.65-2.2,1.66c-0.92,0.01-1.76-0.35-2.39-0.94c-0.63-0.6-1.05-1.43-1.13-2.37h-0.19l-0.19,0l0.02,2.38
		C44.99,105.6,46.46,106.26,47.91,106.26"/>
	<path class="st0" d="M33.03,99.56l1.45-4.57l1.79,4.57H33.03z M37.38,106.11h4.56v-0.44h-0.5c-0.71,0-1.66-1.03-1.97-1.85
		l-4.61-12.06l-4.06,12.33c-0.16,0.48-0.54,1.07-0.93,1.29c-0.37,0.22-0.98,0.28-0.98,0.28h-0.13v0.44h3.6v-0.44l-0.26,0
		c-0.15,0-0.32-0.08-0.46-0.21c-0.37-0.35-0.26-0.71-0.1-1.13l1.26-3.97h3.8l1.55,3.95c0,0,0.16,0.35,0.16,0.62
		c0,0.42-0.31,0.75-0.66,0.75l-0.26,0V106.11z"/>
	<path class="st0" d="M57.83,99.56l1.45-4.57l1.79,4.57H57.83z M62.18,106.11h4.56v-0.44h-0.5c-0.71,0-1.66-1.03-1.97-1.85
		l-4.61-12.06l-4.06,12.33c-0.16,0.48-0.54,1.07-0.93,1.29c-0.37,0.22-0.98,0.28-0.98,0.28h-0.13v0.44h3.6v-0.44l-0.26,0
		c-0.15,0-0.32-0.08-0.46-0.21c-0.37-0.35-0.26-0.71-0.1-1.13l1.26-3.97h3.8l1.55,3.95c0,0,0.16,0.35,0.16,0.62
		c0,0.42-0.31,0.75-0.66,0.75l-0.26,0V106.11z"/>
	<path class="st0" d="M172.48,98.69c0.02-1.37,0.61-2.66,1.62-3.56c1.01-0.9,2.35-1.32,3.68-1.15c3.15,0.41,5.43,3.28,5.16,6.5
		c-0.06,1.57-0.87,3.03-2.17,3.89c-1.3,0.86-2.93,1.03-4.39,0.44C173.86,103.9,172.27,101.39,172.48,98.69 M184.25,99.55
		c0-3.71-2.94-6.71-6.58-6.71c-3.63,0-6.58,3-6.58,6.71s2.94,6.71,6.58,6.71C181.31,106.26,184.25,103.25,184.25,99.55"/>
	<path class="st0" d="M88.02,93h-4.91v0.42h0.57c0.48,0,0.85,0.18,1.16,0.45c0.41,0.36,0.69,0.9,0.92,1.42l5,11.38l5.01-11.74
		c0.19-0.45,0.5-1.02,0.93-1.24c0.42-0.21,1-0.27,1-0.27h0.15V93h-3.47v0.42l0.3,0c0.26,0,0.44,0.17,0.52,0.39
		c0.07,0.19,0.08,0.43-0.01,0.62c-0.04,0.09-0.09,0.18-0.13,0.28l-3.86,8.98l-3.91-8.96c0,0-0.18-0.33-0.18-0.59
		c0-0.4,0.24-0.72,0.63-0.72l0.29,0V93z"/>
	<path class="st0" d="M111.97,93h-4.91v0.42h0.57c0.48,0,0.85,0.18,1.16,0.45c0.41,0.36,0.69,0.9,0.92,1.42l5,11.38l5.01-11.74
		c0.19-0.45,0.5-1.02,0.93-1.24c0.42-0.21,1-0.27,1-0.27h0.15V93h-3.47v0.42l0.3,0c0.26,0,0.44,0.17,0.52,0.39
		c0.07,0.19,0.08,0.43-0.01,0.62c-0.04,0.09-0.09,0.18-0.13,0.28l-3.86,8.98l-3.91-8.96c0,0-0.18-0.33-0.18-0.59
		c0-0.4,0.24-0.72,0.63-0.72l0.29,0V93z"/>
	<path class="st0" d="M125.74,99.52l1.45-4.57l1.79,4.57H125.74z M130.09,106.06h4.56v-0.44h-0.5c-0.71,0-1.66-1.03-1.97-1.85
		l-4.61-12.06l-4.06,12.33c-0.16,0.48-0.54,1.07-0.93,1.29c-0.37,0.22-0.98,0.28-0.98,0.28h-0.13v0.44h3.6v-0.44l-0.26,0
		c-0.15,0-0.32-0.08-0.46-0.21c-0.37-0.35-0.26-0.71-0.1-1.13l1.26-3.97h3.8l1.55,3.95c0,0,0.16,0.35,0.16,0.62
		c0,0.42-0.31,0.75-0.66,0.75l-0.26,0V106.06z"/>
	<path class="st0" d="M166.18,104.73l0.01-2.93l-0.42-0.03c-0.3,2-2,3.48-3.97,3.48c-1.99,0.01-3.85-1.07-4.85-2.84
		c-1-1.77-1-3.94,0-5.71c1.01-1.77,2.86-2.85,4.87-2.84c1.99,0.01,3.68,1.48,4.02,3.47l0.36,0.01v-2.94
		c-1.54-1.01-3.34-1.55-5.18-1.56c-3.62,0.02-6.55,2.99-6.57,6.67c-0.02,3.68,2.87,6.69,6.48,6.76
		C162.79,106.27,164.61,105.73,166.18,104.73L166.18,104.73z"/>
	<path class="st0" d="M99.89,93h4.91v0.41h-0.18c0,0-0.68,0-0.99,0.28c-0.3,0.27-0.56,0.71-0.56,1.09v9.52c0,0,0.09,0.66,0.37,0.93
		c0.29,0.27,0.99,0.44,1.11,0.44h0.25v0.41h-5.46v-0.41h0.89c0,0,0.56-0.05,0.93-0.37c0.37-0.32,0.44-0.99,0.44-0.99v-9.54
		c0,0,0.05-0.56-0.43-0.99c-0.48-0.43-0.92-0.36-0.92-0.36h-0.35L99.89,93z"/>
	<path class="st0" d="M146.28,93h4.42v0.41h-0.18c0,0-0.39,0-0.69,0.28c-0.3,0.27-0.56,0.71-0.56,1.09v11.94l-0.05-0.06l-0.05-0.06
		l-0.88-1.04v0l-8.52-10.01v0.2v8.57c0,0.23,0.04,0.56,0.37,0.93c0.33,0.38,0.92,0.41,0.92,0.41l0.14,0v0.41h-4.25v-0.41h0.74
		c0,0,0.43-0.04,0.87-0.35c0.44-0.32,0.46-0.98,0.46-0.98V95c0-0.18,0-0.31-0.41-0.88c-0.41-0.57-0.97-0.72-0.97-0.72l-0.43,0.01
		l0-0.41h2.14l8.92,10.49v-8.74c0,0,0.05-0.56-0.43-0.99c-0.48-0.43-0.92-0.36-0.92-0.36h-0.65V93z"/>
</g>
</svg>
