<?xml version="1.0" encoding="utf-8"?>
<!-- Generator: Adobe Illustrator 28.0.0, SVG Export Plug-In . SVG Version: 6.00 Build 0)  -->
<svg version="1.1" id="Layer_1" xmlns="http://www.w3.org/2000/svg" xmlns:xlink="http://www.w3.org/1999/xlink" x="0px" y="0px"
	 viewBox="0 0 198.43 198.43" style="enable-background:new 0 0 198.43 198.43;" xml:space="preserve">
<style type="text/css">
	.st0{fill:#DB2127;}
</style>
<g>
	
		<rect x="34.63" y="91.66" transform="matrix(1 -1.158930e-03 1.158930e-03 1 -0.1121 0.0428)" class="st0" width="4.47" height="10.25"/>
	<g>
		<path class="st0" d="M49.25,91.65l4.28,0l4.02,5.68l0.13,0c-0.18-0.86-0.37-1.74-0.38-2.61l0-3.07l4.27-0.01l0.01,10.25
			l-4.27,0.01l-3.95-5.38l-0.13,0c0.15,0.71,0.28,1.37,0.28,2.05l0.01,3.33l-4.27,0.01L49.25,91.65z"/>
		<polygon class="st0" points="71.62,91.62 79.88,91.61 79.89,94.41 76.12,94.41 76.12,95.39 79.56,95.39 79.56,98.05 76.12,98.05 
			76.13,99.07 80.02,99.07 80.02,101.86 71.64,101.87 		"/>
		<path class="st0" d="M123.9,98.09l0.81-3.13l0.16,0c0.08,0.44,0.16,0.88,0.3,1.32l0.52,1.81L123.9,98.09z M123.1,100.52
			L123.1,100.52l3.38-0.01l0.41,1.29l4.73,0l-4.4-10.24l-4.94,0.01l-4.26,10.25l4.73-0.01L123.1,100.52z"/>
		<path class="st0" d="M144.2,94.33l0.34,0c0.77,0,1.44,0.09,1.44,0.88c0,0.76-0.73,0.86-1.47,0.86l-0.31,0L144.2,94.33z
			 M139.83,101.79L139.83,101.79l4.37-0.01l0-3.29l0.08,0l1.96,3.29l5.15,0l-2.68-3.33c-0.25-0.3-0.52-0.46-0.75-0.61v-0.08
			c1.66-0.47,2.38-1.12,2.38-2.67c0-2.58-2.35-3.55-5.13-3.55l-5.41,0.01L139.83,101.79z"/>
		<path class="st0" d="M184.07,107.55l-16.48-10.61l4.92-5.44l-4.88,0.01l-4.13,4.45l-0.01-4.44l-4.31,0.01l0.01,10.25l4.31-0.01
			l-0.01-3.69l6.89,4.68l-59.98,0.07l-0.01-11.41l-4.68,0l-5.61,6.74l-5.21-6.73l-5.13,0.01l0.01,11.43l-67.07,0.08
			c-2.07,0-3.74-1.67-3.74-3.74c0-2.06,1.67-3.74,3.73-3.74c1.21,0,2.28,0.57,2.96,1.45l2.25-4.49c-1.44-1.12-3.26-1.78-5.22-1.77
			c-4.72,0-8.54,3.83-8.53,8.55c0.01,4.72,3.83,8.54,8.55,8.53l72.6-0.08l-0.01-7.69l4.79,4.73l5.39-4.74l0.01,7.69L184.07,107.55z"
			/>
		<path class="st0" d="M180.71,102.63c0,0.98,0.79,1.77,1.77,1.77c0.98,0,1.77-0.79,1.77-1.77c0-0.98-0.79-1.77-1.77-1.77
			C181.5,100.86,180.71,101.65,180.71,102.63 M181.29,102.63c0-0.67,0.52-1.22,1.19-1.22c0.67,0,1.18,0.55,1.18,1.22
			c0,0.67-0.52,1.22-1.18,1.22C181.81,103.85,181.29,103.3,181.29,102.63 M181.78,103.53v-1.8h0.7c0.51,0,0.79,0.12,0.79,0.56
			c0,0.35-0.21,0.47-0.47,0.49l0.4,0.74h-0.46l-0.36-0.72h-0.17v0.72H181.78z M182.2,102.07h0.26c0.14,0,0.35,0.01,0.35,0.18
			c0,0.18-0.09,0.24-0.25,0.23h-0.36V102.07z"/>
	</g>
</g>
</svg>
