<?xml version="1.0" encoding="utf-8"?>
<!-- Generator: Adobe Illustrator 28.0.0, SVG Export Plug-In . SVG Version: 6.00 Build 0)  -->
<svg version="1.1" id="Layer_1" xmlns="http://www.w3.org/2000/svg" xmlns:xlink="http://www.w3.org/1999/xlink" x="0px" y="0px"
	 viewBox="0 0 198.43 198.43" style="enable-background:new 0 0 198.43 198.43;" xml:space="preserve">
<style type="text/css">
	.st0{fill-rule:evenodd;clip-rule:evenodd;fill:#DC2028;}
	.st1{fill-rule:evenodd;clip-rule:evenodd;fill:#FFFFFF;}
	.st2{fill:none;stroke:#FFFFFF;stroke-width:0.033;stroke-miterlimit:2.414;}
</style>
<rect x="17.21" y="89.16" class="st0" width="20.27" height="20.11"/>
<polygon class="st1" points="27.31,94.17 36.81,102.35 27.31,89.88 17.83,102.34 "/>
<polygon class="st2" points="27.31,94.17 36.81,102.35 27.31,89.88 17.83,102.34 "/>
<polygon class="st1" points="27.31,100.62 36.73,108.67 27.31,96.34 17.9,108.65 "/>
<polygon class="st2" points="27.31,100.62 36.73,108.67 27.31,96.34 17.9,108.65 "/>
<g>
	<path class="st0" d="M64.97,100.92l2.38,1.52c-1.24,1.94-3.48,3.15-5.8,3.15c-3.81,0-6.91-3.09-6.91-6.87
		c0-3.77,3.1-6.85,6.91-6.85c2.33,0,4.56,1.21,5.8,3.13l-2.38,1.54c-0.74-1.11-2-1.85-3.42-1.85c-2.24,0-4.07,1.82-4.07,4.03
		c0,2.23,1.83,4.05,4.07,4.05C62.97,102.77,64.23,102.03,64.97,100.92"/>
	<rect x="74.74" y="92.11" class="st0" width="3.13" height="13.18"/>
	<path class="st0" d="M104.07,94.88h3.81c0.95,0,1.73,0.76,1.73,1.68c0,0.92-0.78,1.68-1.73,1.68h-3.81V94.88z M101.32,92.11v13.18
		h2.79v-4.58h2.15l3.15,4.58h3.64l-3.7-4.97c1.79-0.52,3.1-2.12,3.1-4.02c0-2.31-1.95-4.19-4.32-4.19h-4.03h-0.76H101.32z"/>
	<path class="st0" d="M124.46,91.84c3.82,0,6.93,3.09,6.93,6.87c0,3.79-3.12,6.88-6.93,6.88c-3.82,0-6.92-3.09-6.92-6.88
		C117.54,94.94,120.65,91.84,124.46,91.84 M124.46,94.72c-2.22,0-4.04,1.8-4.04,3.99c0,2.21,1.82,4.01,4.04,4.01
		c2.23,0,4.04-1.8,4.04-4.01C128.5,96.51,126.69,94.72,124.46,94.72"/>
	<path class="st0" d="M141.42,91.52c0.66,0,1.18-0.53,1.18-1.18c0-0.65-0.53-1.19-1.18-1.19c-0.66,0-1.2,0.53-1.2,1.19
		C140.23,90.98,140.76,91.52,141.42,91.52"/>
	<path class="st0" d="M145.84,91.52c0.66,0,1.18-0.53,1.18-1.18c0-0.65-0.53-1.19-1.18-1.19c-0.66,0-1.2,0.53-1.2,1.19
		C144.65,90.98,145.18,91.52,145.84,91.52"/>
	<polygon class="st0" points="83.65,92.11 95.1,92.11 95.1,94.88 90.93,94.88 90.93,105.29 87.82,105.29 87.82,94.88 83.65,94.88 	
		"/>
	<polygon class="st0" points="138.11,92.11 138.38,92.11 141.23,92.11 147.98,92.11 147.98,94.64 141.23,94.64 141.23,97.29 
		147.36,97.29 147.36,99.81 141.23,99.81 141.23,102.56 148.4,102.56 148.4,105.29 141.23,105.29 138.38,105.29 138.11,105.29 	"/>
	<polygon class="st0" points="154.97,92.11 155.58,92.11 157.96,92.11 158.37,92.11 163.85,100.75 163.85,92.11 166.64,92.11 
		166.64,105.29 165.18,105.29 163.85,105.29 163.26,105.29 157.96,96.95 157.96,105.29 154.97,105.29 	"/>
	<rect x="40.02" y="106.11" class="st0" width="141.24" height="3.15"/>
</g>
</svg>
