<?xml version="1.0" encoding="utf-8"?>
<!-- Generator: Adobe Illustrator 28.0.0, SVG Export Plug-In . SVG Version: 6.00 Build 0)  -->
<svg version="1.1" id="Layer_1" xmlns="http://www.w3.org/2000/svg" xmlns:xlink="http://www.w3.org/1999/xlink" x="0px" y="0px"
	 viewBox="0 0 198.43 198.43" style="enable-background:new 0 0 198.43 198.43;" xml:space="preserve">
<style type="text/css">
	.st0{fill-rule:evenodd;clip-rule:evenodd;fill:#FFD300;}
	.st1{fill:none;stroke:#CF3929;stroke-width:4.594;}
	.st2{fill-rule:evenodd;clip-rule:evenodd;fill:#CF3929;}
</style>
<g>
	<path class="st0" d="M99.22,174.57c41.4,0,74.95-33.74,74.95-75.35c0-41.62-33.55-75.37-74.95-75.37
		c-41.4,0-74.95,33.74-74.95,75.37C24.26,140.84,57.82,174.57,99.22,174.57"/>
	<path class="st1" d="M99.22,174.57c41.4,0,74.95-33.74,74.95-75.35c0-41.62-33.55-75.37-74.95-75.37
		c-41.4,0-74.95,33.74-74.95,75.37C24.26,140.84,57.82,174.57,99.22,174.57z"/>
	<path class="st0" d="M99.21,162.22c34.61,0,62.67-28.22,62.67-63c0-34.81-28.06-63.02-62.67-63.02
		c-34.61,0-62.66,28.21-62.66,63.02C36.55,134.01,64.6,162.22,99.21,162.22"/>
	<path class="st1" d="M99.21,162.22c34.61,0,62.67-28.22,62.67-63c0-34.81-28.06-63.02-62.67-63.02
		c-34.61,0-62.66,28.21-62.66,63.02C36.55,134.01,64.6,162.22,99.21,162.22z"/>
	<path class="st2" d="M103.37,142.1l-0.17,1.4l-2.86-0.17c1.65-0.1,0.43-2.97,2.17-1.48L103.37,142.1z M95.57,138.43
		c0.87,2.53-0.78,4.45-1.21,6.54c-1.56-0.43-3.3-0.43-4.86-0.88C89.25,140.53,93.5,140.27,95.57,138.43 M104.5,138.18
		c0.17,0.35-0.35,0.61-0.52,0.7c-0.43-0.18-0.78-0.61-0.78-1.04C103.64,137.66,104.5,137.3,104.5,138.18 M106.8,135.52
		c-0.17,0.18-0.52,0.1-0.78,0.1c-0.09,1.13-0.95,0.69-1.64,0.52c-0.25-0.35,0-0.7,0.27-0.96
		C105.41,135.26,106.45,134.91,106.8,135.52 M78.06,130.25c0.18-0.11-0.41-1-1.56-0.18v-0.17L78.06,130.25z M93.27,127.76
		c-0.35,0.26-0.69,0.61-0.35,1.22c0.09,0.18,0.35,0.09,0.52,0.35c-1.04,0.78-1.38,2.27-2.95,2.27c0.09,0.43,0.69,1.22-0.17,1.3
		c-0.78-0.16-1.65,0.27-2.08-0.35l-4.07-0.17v-0.26c1.9-0.26,3.46,0.62,5.11-0.26c-0.34-0.78-1.3-1.13-2.08-1.39
		c-2.17,0.09-4.34-0.61-6.51-0.53c0.43-0.61,1.47,0.35,1.91-0.52c2,0,4.5-0.26,6.24-1.75C90.15,127.33,91.97,127.25,93.27,127.76
		 M108.67,124.84c-0.35,0.96,1.39,0.7,0.69,1.48c-0.86-0.17-1.47-0.52-2.35-0.78c-0.69-0.34-1.12-1.13-0.77-1.74
		C107.2,123.8,108.06,124.23,108.67,124.84 M93.79,123.14c0,0.53-0.43,1.22,0,1.66c0.78-0.18,0.78,0.69,1.22,1.04
		c-0.26,1.14-1.91,0-2.43,0.96c-0.61-0.26-1.22,0.52-1.56-0.18c-2.43,1.31-3.12-2.08-5.55-0.87c0.44-0.78,1.47-1.4,2.52-1.22
		c0.78,0.35,1.82,0.26,2.34-0.79c-0.26-0.61,0.26-1.39,0.69-1.74C91.97,122.28,93.27,122.28,93.79,123.14 M74.37,115.84
		c0.87,0.16,0.09,0.86,0.35,1.38c-0.17,0.09-0.17,0.26-0.35,0.18l-0.08-0.87h-0.27c0.27-0.61-0.34-1.14,0-1.92l0.96,0.09
		L74.37,115.84z M92.75,113.91c0.18,1.04,1.39,1.39,1.04,2.62c0.7,0.6,0.78,1.48,1.22,2.26c-0.43,0.86-0.43,2.18-1.56,2.36
		c-5.37-0.18-10.14-0.43-15.34-0.52c-1.47-2.18,0.69-4.62-0.18-7.06c0-2.18,1.82-0.26,3.04-0.87
		C84.69,113.3,89.11,112.78,92.75,113.91 M74.72,110.25c1.39-0.09,0.61,1.39,1.56,2.01c-0.26,1.04-0.95,2-2.08,1.31
		c-0.18-0.18-0.34-0.09-0.52-0.18c-0.18,1.92-0.61,3.75-0.44,5.59c-0.18,0.34-0.44,0.52-0.87,0.43c-0.17-1.65,0.43-3.66-0.09-5.49
		c-0.52,0.43-0.35,1.22-0.52,1.83l0.17,0.53c-0.35,0.27-1.13,0.27-0.87,0.96c-1.22-0.87,0.87-1.13,0.08-2.27
		c1.04-0.96-1.3-1.31,0.44-2.09c0.17,0.26,0.35,0.44,0.69,0.35c0.35-0.17,0.26-0.61,0.09-0.87c-0.52-1.14-0.96,0.61-1.56-0.34
		l0.09-0.88c0.87,0.43,1.99-0.08,2.08-1.13C73.85,109.81,73.94,111.2,74.72,110.25 M64.49,108.5v0.08
		c-0.26,0.18-0.43-0.17-0.52-0.43l0.17-0.35C64.57,107.72,64.66,108.24,64.49,108.5 M76.45,102.31c-0.43-0.08-0.43-0.52-0.43-0.96
		l0.87,0.53L76.45,102.31z M76.8,100.83h-0.52C75.81,101.22,76.15,101.04,76.8,100.83 M67.44,100.31c0.69,2.27-0.7,3.93-1.74,5.58
		c-1.04,0.17-2.34,0.17-3.38,0c-1.13-1.65-1.48-4-0.52-5.84c0.52-0.69,0.95-1.22,1.74-1.57C65.35,97.96,66.48,99.17,67.44,100.31
		 M96.09,92.76c0.26,0.08,0.35-0.35,0.35-0.52c-0.09-0.96-0.96-1.31-1.04-2.27c0.77,0.7,2.08,0.26,2.95-0.17
		c-0.44,1.92,0.08,4.53-1.22,6.1c0.26,1.31,0,2.71-0.86,3.67c-1.48,1.13-3.3,2.7-5.37,2c-1.3-0.17-0.52-1.3-0.69-2
		c1.56-0.87,3.82-0.8,4.59-2.44c-0.52-0.52-1.47-0.7-2.08-0.17c-0.61,0.25-1.82-0.18-2.34,0.43c-0.35,0-0.69-0.35-0.87-0.52
		l1.56-0.52l5.11-0.35c0.27-0.53,0.79-1.13,0.27-1.75c-0.27-0.43-0.7-0.17-1.13-0.26c-0.95,1.57-3.12,1.05-4.6,1.74
		c-1.3-1.22-3.21-0.17-4.77-0.78c-0.52,0.26-0.17,0.69-0.17,1.05c1.47,0.43,1.82,1.91,2.77,2.87c-0.35,0.36-0.26,1.04-0.08,1.57
		c-2.26-2.71-4.08-5.93-5.21-9.33c1.04-0.26,2.17-0.6,3.03-1.39c-0.35,0.96-0.69,2.27-0.09,3.13c0.44,0.97,1.48,1.23,2.34,1.4
		c2.08-0.09,4.16-1.4,5.03-3.14l0.09-1.57C94.62,90.58,95.57,91.45,96.09,92.76 M106.76,88.75c-0.77,2.09-1.21,4.37-2.69,6.02
		c0.26-2.09,1.48-4.01,2.17-6.02H106.76z M89.94,88.41c0.35,0.79,0.18,1.82-0.26,2.62h-0.26C89.25,90.14,89.25,88.84,89.94,88.41
		 M80.7,88.11c0.09,0.26-0.55,0.9-0.73,1c-0.61,0.09-0.7-0.62-1.04-0.88v-0.26c0.34,0.26,0.34,0.78,0.86,0.78
		c0.18-0.35-0.17-0.87-0.52-1.13C79.88,87.62,80.53,87.76,80.7,88.11 M135.19,88.05l-0.43-0.08l0.17-1.49h0.34L135.19,88.05z
		 M85.99,88.2c-0.52,0.78-1.3,1.47-2.25,1.56c-0.52-0.87-0.69-1.91-0.61-3.14c0.96-0.77,2.26,0,2.52-1.65
		C86.51,85.58,86.08,87.23,85.99,88.2 M137.19,85.53c-0.44,0-0.7,1.14-1.22,0.43c-0.34-0.17-0.08-0.77,0.26-0.86
		C136.67,84.92,136.84,85.44,137.19,85.53 M81.27,88.75c-0.61-1.09-0.25-2.69-0.95-3.83C80.93,86.14,80.93,87.53,81.27,88.75
		 M134.33,84.92c0.09,0.17-0.09,0.26-0.18,0.43c-0.25,0-0.6,0-0.44-0.35l0.18-0.44C134.07,84.74,134.33,84.66,134.33,84.92
		 M89.94,87.09c1.39,0.53,2.87,1.84,2.87,3.49c0.08,1.14-1.22,0.79-1.83,1.14c-0.86,0.69-1.9,1.65-3.03,0.96l-0.61-0.96
		c0.35-2.36,0.52-4.79,1.04-7.15C89.16,85.18,89.25,86.31,89.94,87.09 M85.29,84.01c0,0.09-0.47,0.73-0.55,0.82h-0.26v-0.52
		C84.65,84.22,85.21,83.92,85.29,84.01 M109.7,84.04c0,0.44-0.6,1.14-0.95,1.22c-0.43,2.01-1.21,3.93-1.99,5.84
		c0.34-1.39,0.44-3.13,1.48-4.44c-0.08-0.71-1.22-1.93,0.08-2.1C108.84,84.57,109.1,84.04,109.7,84.04 M93.19,84.53
		c0.78,0.35,1.38,1.13,2.17,0.87c0-0.52-0.86-0.35-0.86-0.87c0.77-0.35,1.99-0.09,2.77-0.61c0.52,0.17-0.43,0.7,0.18,0.87
		c0.77-0.44,1.3-1.48,2.34-0.78l0.26-0.17c0.35,0.7,0.69,1.56,0.52,2.62c-0.61,0.87-1.3,1.66-2.25,2.09
		c-3.03-0.08-6.58-0.96-7.88-4.18c0.17-0.26,0.42-0.35,0.69-0.26c0.35,0.61,0.78,1.3,1.47,1.57c0.35-0.79-1.22-1.83-0.18-2.27
		L93.19,84.53z M83.7,84.57c0.47,0-0.67-0.02-1.65-0.34C82.66,83.78,83.18,84.04,83.7,84.57 M96.91,82.79l-0.74,0.74l-0.43-0.35
		C96.01,83.18,96.74,82.62,96.91,82.79 M94.57,82.88L94.1,83.7l-0.52-0.17C93.23,83.26,94.4,82.44,94.57,82.88 M138.32,83.43
		c0,0.26,0,0.53-0.26,0.61l-0.35-1.13C138.06,82.74,138.23,83.26,138.32,83.43 M81.18,82.13c-0.78,0.26-1.44-0.39-2.05,0.84
		c-0.61,1.13-0.2,2.65-0.39,3.88c-0.86-0.53-0.43-1.92-0.69-2.88c0.34-0.96,1.04-1.75,2.08-2.01
		C80.49,81.95,80.75,82.21,81.18,82.13 M103.15,81.39c0.26,1.66,0.69,4.01-1.13,4.71h-0.17C102.11,84.36,101.51,82.35,103.15,81.39
		 M65.96,80.87l-0.82,0.47l0.26-1.56C65.4,80.3,66.22,80.35,65.96,80.87 M109.88,75.51c-0.18-0.27-0.87-0.35-0.61-0.7
		C109.54,74.89,109.88,75.15,109.88,75.51 M73.94,75.55c0.17,4.36-1.39,8.37-4.77,10.81c1.91-3.22,1.3-7.49,2.95-10.81
		c-0.09-0.52-0.09-1.22,0.34-1.48C73.68,73.64,73.76,74.85,73.94,75.55 M111.65,79.3c-0.35,1.04-1.13,2.09-0.95,3.13
		c0.6-0.08,0.6-0.78,1.04-1.13c1.74,2.53,1.74,5.76,2.78,8.54c0.35,3.49-1.56,6.01-3.21,8.63c-0.17,2.09-1.99,4.18-3.81,4.88
		l-3.12,0.09c-1.13,2.27-2.17,4.53-2.78,6.97c-0.34,0.53-1.04,0.96-1.73,0.62c-1.66-3.14-4.94-4.88-7.64-6.89
		c0-0.52-0.43-0.87-0.69-1.3c0.95-0.35,2.77,0.34,3.72-0.53l0.78,0.09c1.04,1.92,2.69,3.75,3.82,5.5l0.17-0.26l-2.34-4.45
		c0.61-0.53,1.22,0.44,1.74,0c-0.43-0.87-1.65-0.78-1.99-1.57c1.64,1.04,3.29,0.27,4.94-0.27c2.17-1.57,2.95-4.35,3.64-6.88
		c0-0.08-0.09-0.17-0.09-0.17h-0.25c-1.3,2-1.48,5.48-4.42,5.93c-0.27,0.25-0.79,0.96-1.05,0.25c-0.6-0.6,0.26-1.65-0.43-2.26
		c-0.78,0-1.13,1.14-2,0.53c2.26-1.57,5.98-3.23,6.86-6.54c2.08-3.67,2.94-8.03,2.85-12.47c-0.43-1.31,2.86-2,0.35-3.05
		c0.69-0.09,0.95-1.49,1.73-0.79c-0.09,1.05,0.78,1.92,0.78,3.14l0.27,0.17c0.69-0.6,0.6-1.92,0.25-2.7
		c0.18-1.39-2.5-1.57-1.21-2.71C112.08,74.51,111.48,77.38,111.65,79.3 M98.3,68.06c0,2.44,0.25,4.8,1.04,6.88
		c-0.79,2.09,3.21,2.53,1.91,4.62c-0.18,0.61,0.95,1.14,0.26,1.74c-2.17,0.44-4.68,0-6.76,0c1.21-1.04,3.21-0.44,4.69-0.6
		c-0.43-0.44-0.69-1.31-1.3-1.58c-3.29-0.96-5.55,2.27-8.66,2.62c-1.39,0.61-3.13-0.26-4.6-0.61c-1.73-0.96-4.16-1.48-4.77-3.58
		c0-1.74-0.52-4.01,0.87-5.14c1.04-1.31,2.68-0.52,3.99-0.17c2.26-0.44,4.51-0.26,5.72-2.53c0.17-2.79,3.12-2.88,4.85-4.19
		C96.39,65.88,97.61,67.02,98.3,68.06 M118.63,57.55c-4.42,0.69-8.5-1.05-13-0.17c1.56,2.87,4.25,5.32,4.68,8.63
		c0.18,3.4-0.18,7.5,1.47,10.37c0.87,1.22,2.51,0.53,3.29,1.75c3.38,0.44,6.07,2.44,9.37,3.05c0.69-4.27,0.44-8.63,0.6-12.91
		c-0.08-1.82,0.18-4.53,0.27-6.79c16.04,11.32,22.8,30.41,18.11,49.51c-3.64,16.48-20.2,31.21-36.67,33.56
		c-3.46,0.53-7.19,0.78-10.92,0.53c2.6-4.11,4.6-9.25,3.12-14.21c-0.61-0.87-1.74-1.58-2.78-0.96c-2.6,0.7-3.64,3.83-5.63,5.05
		c-1.39,1.31-1.65,3.06-1.73,4.88l-0.53,0.18c-0.25-0.53-0.43-1.14-1.04-1.39c-1.04,0.86-2.69,1.21-4.16,0.86
		c-0.34-0.96-1.73-0.26-2.51-0.61c-0.7,0.53-2.26-0.18-2.17,1.05c-6.67-3.31-13.26-8.98-17.33-15.61l1.73-1.83
		c-0.86-0.7-2.25-0.44-3.38-0.62c-0.35-0.35,0.26-0.35,0.34-0.43c1.13-1.13,3.99,0.61,4.25-1.48c-1.73-0.35-3.64-0.61-5.54-0.52
		c-0.43-0.17-0.69-0.78-0.69-1.22c2.86,0,5.8-0.18,8.4,0.52c0,0.44-0.08,1.13,0.53,1.39c0.77-0.17,0.52-1.48,1.47-0.7
		c0.43-0.34,0-0.78,0-1.13l-0.95-0.43c-0.09-2.01,0.69-4.01,0.08-5.93c-3.81-0.43-7.89-0.43-11.62-1.22l0.34-0.26
		c3.38,0,7.02-0.18,10.23,0.52c0.17-0.52,1.13,0.08,0.95-0.52c-4.07-0.87-8.24-0.43-12.4-1.13l-0.26-0.34
		c-1.21-5.5-1.21-11.69-0.43-17.35c1.21,1.05,0.6,2.96,1.64,3.93c1.39-0.09,2.77,0.52,2.95,1.92c1.65-0.52,3.21-2.01,4.24-3.49
		c0.87-4.09-3.03-6.54-4.16-9.94c-0.96-0.96-0.96-2.27-1.39-3.49l0.43-0.78c0.27,1.91,1.47,3.92,2.69,5.66l0.26-0.17
		c-1.04-3.05-0.61-6.79-0.52-10.11c0.95-1.31,2.95-2.27,3.56-4.01c0-0.61-0.17-1.22,0.52-1.57c0,0.53,0.18,0.96,0.26,1.39
		c1.03-1.13,0.26-3.31,2.34-4.36c0,1.57-0.35,3.49,1.73,3.75c0.35,1.74-0.43,3.14,1.39,4.18l0.34,0.35c0.52-0.52,0.6-1.84,1.56-1.66
		l1.99,0.26c0.52,3.83,0.18,7.4-1.65,10.54c-1.73,3.58-7.62,4.96-6.16,9.68c0.34,1.22,1.39,2.35,2.43,3.14
		c0.43-0.09,1.3,0.26,1.3-0.52l6.59,0.09c0-2.18,0.52-4.45,2.43-5.58l-0.18-1.31c-1.12-2.53-2.94-4.97-2.08-8.11
		c0.78-0.95,1.91-2.26,0.87-3.49c-1.48-3.23-1.99-6.71-1.56-10.46l-0.17-0.26c1.47-0.61,1.29-2.62,1.04-3.92
		c-0.35-0.53,0.08-1.05,0.08-1.4c0.17-0.43,0.69-0.78,1.21-0.61c1.9-1.48,3.21-3.83,5.72-4.09c0.61-1.05,1.99-1.22,2.34-2.01
		c2.43-0.79,4.95-1.32,7.54-1.66c0.87,0.88,2.52,0.09,3.56,0.62c1.12,0.69,2.16,0.87,3.2,1.56c0.43-0.7,0.17-1.74,0.26-2.35
		C107.2,53.53,113.08,55.02,118.63,57.55"/>
	<path class="st2" d="M43.57,85.6c0.18,0.06,0.46,0.08,0.41,0.33c-0.04,0.18-0.16,0.19-0.31,0.19c-0.19,0-0.28,0.01-0.41,0.12
		c-0.47,0.38-0.8,1.03-0.9,1.63c-0.24,1.37,0.88,3.29,3.37,3.72c1.79,0.31,4.07-0.14,4.43-2.24c0.13-0.76-0.16-2.28-1-2.64
		c-0.14-0.04-0.27-0.11-0.23-0.29c0.03-0.14,0.14-0.19,0.27-0.17c0.19,0.03,0.69,0.2,1.33,0.36c0.3,1.04,0.28,2.37,0.11,3.44
		c-0.58,3.37-2.82,4.19-4.87,3.84c-3.57-0.62-4.37-4.03-3.99-6.21c0.14-0.83,0.48-1.62,0.91-2.33L43.57,85.6z"/>
	<path class="st2" d="M49.66,82.21c1.73,0.6,2,0.61,2.09,0.36c0.41-1.2,0.91-2.81,0.29-3.45c-0.09-0.09-0.15-0.15-0.1-0.29
		c0.04-0.13,0.14-0.15,0.26-0.13c0.15,0.06,0.89,0.59,1.22,0.83l-2.16,6.29l-0.48-0.16c0.2-0.59,0.23-0.68,0.1-0.72l-6.26-2.17
		c-0.79-0.27-0.86-0.06-0.92,0.13l-0.2,0.58l-0.48-0.16l1.33-3.86l0.48,0.18l-0.19,0.58c-0.06,0.17-0.08,0.21,0.15,0.32L49.66,82.21
		z"/>
	<path class="st2" d="M50.66,67.42l-0.23,0.43c-0.06,0.11-0.13,0.24-0.01,0.3l4.17,2.3c3.04,1.67,1.49,4.52,1.17,5.09
		c-0.15,0.29-1.63,3-4.1,1.65l-4.13-2.28c-0.73-0.4-0.83-0.21-0.93-0.03l-0.31,0.58l-0.45-0.26l1.9-3.49l0.44,0.25l-0.2,0.37
		c-0.1,0.19-0.15,0.27,0.08,0.39l4.22,2.32c1,0.56,2.38,1,3.22-0.53c1.16-2.12-0.67-3.16-1.08-3.38l-3.67-2.03
		c-0.49-0.27-0.83-0.33-0.98-0.06l-0.32,0.58l-0.44-0.24l1.2-2.21L50.66,67.42z"/>
	<path class="st2" d="M56.07,65.31c0.33-0.41,0.6-0.72,0.9-0.99c0.25-0.49-0.13-1.02-0.51-1.33c-0.78-0.63-1.85-0.55-2.48,0.24
		c-0.07,0.08-0.19,0.24-0.08,0.33L56.07,65.31z M57.92,66.81c1.66,1.32,1.7,1.28,2.01,0.89c0.63-0.78,0.37-1.88-0.39-2.5
		c-0.51-0.41-1.91-0.99-3.05,0.44L57.92,66.81z M51.33,65.61l2.71-3.39c1.64-2.07,3.04-1.14,3.23-0.99c0.98,0.78,0.57,1.91,0.22,2.7
		l0.02,0.01c1.01-0.78,2.22-1.27,3.35-0.36c0.82,0.67,0.91,1.65,0.62,2.6c-0.27,0.84-0.89,1.64-1.44,2.33l-1.79,2.25l-0.4-0.32
		c0.39-0.49,0.45-0.56,0.34-0.64l-5.16-4.16c-0.66-0.53-0.79-0.35-0.91-0.2l-0.39,0.48L51.33,65.61z"/>
	<path class="st2" d="M66.05,55.49c0.06,0.09,0.19,0.4-0.01,0.56c-0.21,0.17-0.49-0.01-0.57-0.09l-1.95-1.99
		c-0.05-0.05-0.11-0.14-0.16-0.21c-0.23-0.28-0.47-0.7-0.05-1.05c0.43-0.35,0.79-0.03,1.19,0.46L66.05,55.49z M63.73,57.38
		c0.06,0.09,0.19,0.41-0.02,0.58c-0.2,0.17-0.48-0.02-0.56-0.1l-1.95-1.99c-0.05-0.06-0.11-0.14-0.18-0.21
		c-0.23-0.29-0.46-0.7-0.03-1.05c0.42-0.35,0.78-0.04,1.18,0.45L63.73,57.38z"/>
	<path class="st2" d="M67.21,51.83c-0.44-0.71-0.62-0.6-0.8-0.5l-0.52,0.33l-0.26-0.44l5.82-3.61l0.42,0.89
		c0.08,0.19,0.3,0.5,0.08,0.63c-0.15,0.1-0.25,0.06-0.34-0.06c-0.18-0.24-0.31-0.26-0.58-0.2c-0.71,0.17-1.28,0.51-2.15,1.04
		c-0.16,0.1-0.23,0.14-0.12,0.32l1.5,2.45l0.63-0.39c1.28-0.8,1.22-0.99,1.03-1.31l-0.23-0.38l0.39-0.23l1.26,2.06l-0.39,0.24
		l-0.13-0.21c-0.21-0.34-0.31-0.5-1.27,0.09l-0.99,0.61l0.89,1.45c0.96,1.57,1.16,1.75,1.39,1.61c1.08-0.66,2.47-1.58,2.39-2.47
		c-0.01-0.13-0.02-0.21,0.1-0.29c0.12-0.07,0.21-0.04,0.28,0.07c0.08,0.13,0.32,1.02,0.43,1.42l-5.64,3.48l-0.26-0.43
		c0.52-0.33,0.6-0.37,0.53-0.49L67.21,51.83z"/>
	<path class="st2" d="M82.35,48.65l-1.45-3.65c-0.21-0.53-0.43-0.79-0.71-0.67l-0.62,0.24l-0.19-0.48l2.32-0.93l0.19,0.48
		l-0.45,0.18c-0.11,0.05-0.25,0.11-0.2,0.23l2.95,7.41c0.03,0.1,0.01,0.19-0.09,0.22c-0.17,0.07-0.44-0.08-0.58-0.15l-7.88-3.78
		l1.94,4.88c0.21,0.52,0.42,0.8,0.71,0.67l0.61-0.24l0.19,0.47l-2.32,0.93l-0.19-0.48l0.45-0.18c0.12-0.04,0.26-0.1,0.22-0.23
		L75.1,48.2c-0.63-1.58-1.6-1.18-1.85-1.09l-0.19-0.47l2.7-1.09L82.35,48.65z"/>
	<path class="st2" d="M87.67,46.1l0.34-0.07c1-0.2,1.47-0.92,1.27-1.94c-0.19-0.92-1.05-1.79-2.04-1.59
		c-0.16,0.03-0.29,0.06-0.26,0.21L87.67,46.1z M88.19,48.67c0.05,0.26,0.25,1.28,0.57,1.21l0.76-0.15l0.1,0.5l-3.89,0.8l-0.1-0.5
		c0.6-0.12,0.7-0.15,0.67-0.28l-1.31-6.52c-0.17-0.81-0.37-0.77-0.58-0.73l-0.6,0.12l-0.1-0.5l4.23-0.86
		c0.28-0.05,2.94-0.61,3.46,1.96c0.08,0.4-0.05,1.61-1.37,2.01c0.88,1.06,2,2.27,2.92,2.94c0.23,0.17,0.4,0.28,0.76,0.21l0.1,0.5
		l-1.93,0.4c-0.52,0.1-0.65,0.13-0.85-0.02c-0.71-0.52-1.98-2.25-2.6-3.24l-0.65,0.13L88.19,48.67z"/>
	<path class="st2" d="M93,40.94l3.96-0.28L97,41.18l-0.52,0.03c-0.18,0.02-0.23,0.02-0.24,0.28l0.41,6.05
		c0.01,0.27,0.09,1.31,0.41,1.29l0.77-0.06l0.04,0.52l-3.97,0.27l-0.04-0.51c0.62-0.04,0.71-0.05,0.7-0.19l-0.45-6.64
		c-0.06-0.84-0.27-0.83-0.48-0.81l-0.62,0.04L93,40.94z"/>
	<path class="st2" d="M104.33,49.01c1.01-0.53,1.26-1.75,1.34-2.69c0.13-1.73-0.15-5.04-2.44-5.21c-1.66-0.13-2.19,1.57-2.29,2.88
		c-0.15,1.92,0.22,4.51,2.12,5.14c0.37-0.03,0.72-0.17,1.03-0.35L104.33,49.01z M108.08,51.62c-0.74,0.33-1.9,0.63-2.72,0.57
		c-1.29-0.1-2.16-1.47-2.93-2.54c-2.47-0.4-3.95-2.07-3.75-4.63c0.15-1.87,1.53-4.73,5.13-4.45c2.55,0.2,4.33,1.94,4.11,4.7
		c-0.15,2.04-1.29,3.58-3.11,4.25c0.56,0.6,1.55,1.75,2.37,1.81c0.25,0.02,0.46-0.05,0.76-0.14L108.08,51.62z"/>
	<path class="st2" d="M118.68,44.4l-0.47-0.13c-0.12-0.03-0.25-0.07-0.3,0.06l-1.25,4.61c-0.91,3.36-4.02,2.51-4.65,2.33
		c-0.31-0.08-3.27-0.89-2.54-3.62l1.25-4.57c0.22-0.8,0.01-0.86-0.19-0.92l-0.63-0.17l0.13-0.5l3.83,1.04l-0.14,0.51l-0.4-0.12
		c-0.21-0.06-0.29-0.08-0.37,0.16l-1.27,4.68c-0.3,1.11-0.4,2.57,1.27,3.02c2.33,0.64,2.9-1.38,3.03-1.85l1.1-4.06
		c0.15-0.55,0.13-0.89-0.17-0.97l-0.63-0.17l0.13-0.5l2.41,0.66L118.68,44.4z"/>
	<path class="st2" d="M120.93,46.3c0.35-0.77,0.15-0.86-0.03-0.94l-0.56-0.27l0.21-0.46l6.21,2.91l-0.51,0.83
		c-0.1,0.17-0.24,0.53-0.47,0.42c-0.16-0.08-0.18-0.18-0.13-0.33c0.1-0.28,0.04-0.4-0.15-0.59c-0.53-0.51-1.13-0.8-2.05-1.23
		c-0.17-0.08-0.25-0.12-0.34,0.08l-1.21,2.61l0.66,0.31c1.36,0.64,1.5,0.48,1.65,0.15l0.19-0.41l0.41,0.2l-1.01,2.19l-0.41-0.2
		l0.1-0.22c0.17-0.37,0.25-0.54-0.77-1.01l-1.06-0.5l-0.71,1.55c-0.77,1.66-0.82,1.94-0.57,2.06c1.14,0.53,2.68,1.19,3.38,0.64
		c0.1-0.09,0.17-0.13,0.3-0.07c0.13,0.06,0.15,0.16,0.1,0.27c-0.07,0.15-0.67,0.83-0.95,1.13l-5.99-2.81l0.22-0.47
		c0.56,0.26,0.64,0.31,0.7,0.18L120.93,46.3z"/>
	<path class="st2" d="M132.1,56.12l0.27,0.21c0.8,0.64,1.65,0.54,2.29-0.28c0.58-0.73,0.69-1.96-0.1-2.59
		c-0.14-0.11-0.23-0.18-0.33-0.07L132.1,56.12z M130.48,58.16c-0.17,0.22-0.81,1.03-0.56,1.24l0.61,0.48l-0.32,0.4l-3.11-2.48
		l0.31-0.4c0.49,0.39,0.56,0.44,0.64,0.34l4.11-5.22c0.53-0.66,0.35-0.78,0.2-0.91l-0.48-0.4l0.32-0.39l3.38,2.7
		c0.22,0.17,2.36,1.88,0.74,3.93c-0.25,0.31-1.25,1-2.42,0.25c-0.25,1.35-0.45,3.01-0.36,4.14c0.01,0.28,0.04,0.49,0.33,0.71
		l-0.32,0.4l-1.55-1.23c-0.41-0.32-0.51-0.42-0.54-0.67c-0.06-0.87,0.44-2.97,0.79-4.09l-0.51-0.4L130.48,58.16z"/>
	<path class="st2" d="M145.29,64.05l-0.32-0.36c-0.08-0.1-0.18-0.21-0.27-0.12l-3.56,3.17c-2.59,2.31-4.72-0.12-5.17-0.61
		c-0.21-0.25-2.25-2.56-0.15-4.43l3.52-3.14c0.63-0.56,0.48-0.71,0.35-0.87l-0.44-0.5l0.38-0.34l2.63,2.98l-0.38,0.35l-0.27-0.32
		c-0.15-0.16-0.21-0.23-0.4-0.06l-3.61,3.21c-0.85,0.77-1.73,1.93-0.59,3.23c1.6,1.81,3.18,0.43,3.53,0.12l3.14-2.8
		c0.43-0.37,0.59-0.67,0.39-0.91l-0.44-0.49l0.38-0.34l1.65,1.88L145.29,64.05z"/>
	<path class="st2" d="M145.44,69.86c0.28,0.46,0.48,0.82,0.62,1.19c0.38,0.41,1,0.23,1.42-0.04c0.85-0.53,1.15-1.56,0.62-2.42
		c-0.05-0.09-0.16-0.26-0.29-0.19L145.44,69.86z M143.42,71.12c-1.81,1.12-1.77,1.17-1.51,1.6c0.53,0.86,1.64,0.98,2.47,0.46
		c0.56-0.34,1.58-1.47,0.61-3.03L143.42,71.12z M146.77,65.28l2.27,3.71c1.38,2.25,0.04,3.27-0.16,3.39
		c-1.06,0.66-1.99-0.11-2.6-0.7l-0.02,0.01c0.39,1.21,0.44,2.53-0.8,3.29c-0.9,0.56-1.85,0.31-2.64-0.29
		c-0.69-0.53-1.24-1.4-1.7-2.15l-1.5-2.46l0.43-0.27c0.33,0.54,0.37,0.61,0.49,0.54l5.65-3.49c0.71-0.43,0.6-0.62,0.49-0.78
		l-0.32-0.53L146.77,65.28z"/>
	<path class="st2" d="M151.4,73.25l1.63,3.65l-0.46,0.21l-0.22-0.48c-0.08-0.17-0.09-0.21-0.34-0.13l-5.5,2.49
		c-0.25,0.11-1.19,0.53-1.06,0.83l0.32,0.72l-0.46,0.2l-1.64-3.64l0.47-0.21c0.25,0.57,0.29,0.65,0.42,0.6l6.03-2.72
		c0.76-0.35,0.67-0.55,0.59-0.73l-0.25-0.57L151.4,73.25z"/>
	<path class="st2" d="M147.29,85.88c0.45,1.6,2.25,1.54,3.49,1.18c1.65-0.47,4.64-1.88,4.01-4.11c-0.45-1.61-2.22-1.52-3.48-1.16
		C149.67,82.25,146.66,83.66,147.29,85.88 M149.56,80.03c1.8-0.51,4.94-0.2,5.92,3.29c0.7,2.47-0.31,4.75-2.96,5.5
		c-1.8,0.51-4.93,0.18-5.92-3.31C145.92,83.04,146.92,80.78,149.56,80.03"/>
	<path class="st2" d="M153.61,94.44c-0.1,0-0.43-0.05-0.47-0.32c-0.04-0.27,0.28-0.4,0.38-0.43l2.71-0.59
		c0.08-0.01,0.17-0.02,0.26-0.03c0.37-0.05,0.84-0.02,0.91,0.53c0.07,0.55-0.39,0.69-1.02,0.76L153.61,94.44z M153.25,91.45
		c-0.1,0-0.43-0.05-0.47-0.32c-0.04-0.27,0.28-0.4,0.38-0.43l2.72-0.59c0.08-0.01,0.18-0.02,0.26-0.03c0.36-0.04,0.84-0.02,0.9,0.53
		c0.07,0.55-0.39,0.69-1.02,0.77L153.25,91.45z"/>
	<path class="st2" d="M150.09,122.4c-0.99-0.53-1.76-0.27-2.31,0.77c-0.07,0.13-0.15,0.29-0.23,0.46l2.29,1.22
		c0.25,0.13,0.49,0.25,0.74,0.37c0.09-0.12,0.2-0.31,0.33-0.55c0.24-0.46,0.29-0.9,0.13-1.3
		C150.9,122.98,150.58,122.65,150.09,122.4 M146.7,120.85c-0.72-0.39-1.29-0.2-1.69,0.56c-0.13,0.25-0.23,0.47-0.3,0.66
		c0.34,0.2,0.65,0.38,0.95,0.53l1.36,0.73c0.05-0.07,0.13-0.22,0.25-0.45c0.32-0.6,0.33-1.1,0.05-1.49
		C147.15,121.17,146.95,120.99,146.7,120.85 M150.74,120.79c0.83,0.44,1.25,1.19,1.28,2.24c0.01,0.51-0.14,1.09-0.47,1.71
		c-0.11,0.2-0.19,0.36-0.27,0.49l-0.65,1.17c-0.22,0.42-0.39,0.76-0.49,1l-0.08,0.02l-0.14-0.07l-0.05-0.06
		c-0.03-0.33-0.05-0.51-0.08-0.55c-0.04-0.06-0.25-0.2-0.63-0.41l-1.1-0.61l-2.5-1.34c-0.79-0.42-1.31-0.67-1.57-0.75
		c-0.11-0.03-0.2-0.01-0.27,0.07c-0.04,0.05-0.16,0.23-0.36,0.55l-0.08,0.02l-0.34-0.18l-0.02-0.08c0.18-0.28,0.46-0.78,0.83-1.5
		c0.24-0.46,0.45-0.88,0.63-1.25c0.14-0.3,0.27-0.55,0.37-0.75c0.49-0.93,1.02-1.42,1.59-1.48c0.3-0.03,0.6,0.03,0.88,0.18
		c0.47,0.25,0.76,0.64,0.88,1.18c0.06,0.25,0.07,0.5,0.04,0.72c-0.03,0.26-0.09,0.54-0.17,0.83
		C148.78,120.62,149.7,120.24,150.74,120.79 M149.14,129.38l0.01,0.08c-0.23,0.29-0.58,0.75-1.04,1.38
		c-0.47,0.65-0.8,1.12-0.98,1.42l-0.07,0.01l-0.31-0.23l-0.01-0.08c0.2-0.32,0.32-0.51,0.34-0.57c0.04-0.1,0.02-0.2-0.06-0.28
		c-0.19-0.2-0.64-0.56-1.36-1.08l-3.06-2.24l1.34,2.52c0.07,0.14,0.35,0.65,0.84,1.52l1.21,2.15l-0.22,0.31
		c-0.49-0.12-1.11-0.25-1.88-0.39l-1.8-0.35l-3.33-0.61l3.14,2.29c0.72,0.52,1.2,0.84,1.45,0.96c0.1,0.05,0.19,0.04,0.28-0.03
		c0.04-0.04,0.19-0.2,0.43-0.5l0.08-0.01l0.31,0.23l0.01,0.08c-0.27,0.33-0.51,0.66-0.73,0.95c-0.25,0.35-0.5,0.71-0.73,1.07
		l-0.07,0.01l-0.31-0.22l-0.01-0.08c0.2-0.32,0.32-0.51,0.34-0.57c0.04-0.1,0.02-0.19-0.06-0.28c-0.19-0.2-0.64-0.56-1.36-1.08
		l-2.39-1.75c-0.72-0.52-1.2-0.85-1.44-0.96c-0.1-0.05-0.19-0.04-0.28,0.03c-0.05,0.04-0.19,0.21-0.43,0.5l-0.08,0.01l-0.31-0.23
		l-0.01-0.08c0.25-0.3,0.55-0.69,0.89-1.18c0.27-0.37,0.49-0.7,0.67-0.99c0.3,0.07,0.73,0.16,1.28,0.28l0.83,0.16l4.06,0.75
		l-0.9-1.72l-1.53-2.78c-0.18-0.33-0.39-0.67-0.62-1.02c0.27-0.33,0.44-0.55,0.53-0.67c0.43-0.59,0.75-1.06,0.96-1.38l0.08-0.02
		l0.31,0.23l0.01,0.08c-0.2,0.32-0.32,0.51-0.34,0.57c-0.04,0.11-0.02,0.2,0.06,0.28c0.19,0.2,0.64,0.56,1.36,1.08l2.39,1.75
		c0.72,0.53,1.2,0.85,1.44,0.97c0.1,0.05,0.19,0.04,0.28-0.03c0.04-0.04,0.19-0.21,0.43-0.5l0.08-0.01L149.14,129.38z
		 M136.49,133.66l0,0.08c-0.32,0.3-0.42,0.56-0.3,0.77c0.06,0.12,0.24,0.34,0.53,0.67c0.22,0.24,0.53,0.59,0.95,1.04l1.18,1.27
		c0.76,0.81,1.13,1.54,1.14,2.19c0,0.86-0.39,1.65-1.17,2.39c-0.72,0.67-1.38,1.07-2.01,1.21c-0.53,0.12-1.01,0.04-1.46-0.24
		c-0.29-0.18-0.9-0.77-1.83-1.78l-0.98-1.06c-0.61-0.65-1.02-1.06-1.24-1.23c-0.09-0.07-0.18-0.07-0.28-0.02
		c-0.05,0.03-0.22,0.16-0.51,0.41l-0.08,0l-0.25-0.28l0-0.08c0.28-0.23,0.7-0.62,1.28-1.16c0.59-0.55,1-0.95,1.23-1.2l0.08,0
		l0.26,0.28l-0.01,0.08c-0.26,0.28-0.41,0.44-0.44,0.49c-0.06,0.1-0.06,0.19,0.01,0.28c0.15,0.23,0.52,0.67,1.13,1.32l0.79,0.85
		c0.96,1.04,1.6,1.63,1.9,1.78c0.61,0.29,1.28,0.09,2.01-0.6c0.48-0.45,0.74-0.91,0.79-1.4c0.02-0.23,0-0.42-0.06-0.59
		c-0.06-0.16-0.18-0.37-0.38-0.64c-0.18-0.25-0.38-0.49-0.59-0.72l-0.79-0.86c-0.67-0.72-1.12-1.21-1.37-1.46
		c-0.23-0.24-0.4-0.39-0.49-0.44c-0.07-0.03-0.16-0.03-0.26,0c-0.09,0.04-0.27,0.17-0.56,0.41h-0.08l-0.26-0.28l0.01-0.08
		c0.25-0.21,0.5-0.42,0.75-0.66c0.19-0.18,0.54-0.53,1.06-1.04h0.08L136.49,133.66z M127.49,144.87c0.18-0.11,0.38-0.17,0.6-0.19
		c0.22-0.01,0.43,0.03,0.63,0.14c0.2,0.11,0.35,0.25,0.47,0.44c0.18,0.29,0.23,0.59,0.16,0.93c-0.07,0.33-0.25,0.59-0.55,0.78
		c-0.29,0.18-0.6,0.23-0.93,0.15c-0.33-0.08-0.59-0.26-0.77-0.55c-0.12-0.19-0.18-0.39-0.18-0.62c-0.01-0.23,0.04-0.43,0.15-0.63
		C127.17,145.13,127.32,144.98,127.49,144.87 M121.23,150.66c-0.4-1.05-1.15-1.36-2.25-0.94c-0.14,0.05-0.3,0.12-0.47,0.2l0.93,2.43
		c0.1,0.26,0.2,0.52,0.32,0.76c0.15-0.03,0.36-0.1,0.61-0.2c0.49-0.19,0.8-0.49,0.95-0.9C121.46,151.63,121.43,151.17,121.23,150.66
		 M119.68,147.25c-0.3-0.77-0.84-1-1.64-0.69c-0.27,0.1-0.48,0.2-0.66,0.3c0.13,0.37,0.25,0.71,0.37,1.03l0.55,1.45
		c0.08-0.02,0.24-0.08,0.49-0.17c0.63-0.24,0.97-0.61,1.01-1.09C119.81,147.79,119.78,147.52,119.68,147.25 M122.77,149.88
		c0.34,0.88,0.17,1.72-0.49,2.53c-0.33,0.4-0.82,0.73-1.48,0.98c-0.21,0.08-0.38,0.15-0.52,0.19l-1.26,0.46
		c-0.45,0.17-0.79,0.32-1.02,0.43l-0.08-0.03l-0.06-0.15l0-0.07c0.19-0.26,0.3-0.42,0.3-0.47c0.01-0.08-0.06-0.32-0.21-0.72
		l-0.43-1.18l-1.02-2.66c-0.32-0.84-0.55-1.37-0.69-1.6c-0.06-0.09-0.14-0.13-0.25-0.13c-0.06,0.01-0.27,0.07-0.63,0.19l-0.07-0.03
		l-0.13-0.36l0.03-0.07c0.32-0.1,0.85-0.29,1.61-0.59c0.48-0.19,0.91-0.36,1.29-0.53c0.3-0.13,0.56-0.24,0.77-0.32
		c0.97-0.38,1.69-0.4,2.16-0.07c0.25,0.17,0.43,0.41,0.55,0.72c0.19,0.49,0.16,0.98-0.1,1.47c-0.12,0.23-0.27,0.42-0.44,0.57
		c-0.2,0.18-0.42,0.35-0.67,0.52C121.4,148.45,122.34,148.77,122.77,149.88 M114.74,149.14c0.16,0.76,0.03,1.4-0.4,1.93
		c-0.42,0.53-0.96,0.87-1.6,1.01c-0.22,0.05-0.44,0.07-0.68,0.06c-0.05-0.09-0.14-0.21-0.27-0.35l0.09-0.15
		c0.16,0.02,0.31,0.01,0.44-0.01c0.37-0.08,0.64-0.28,0.8-0.58c0.17-0.31,0.2-0.7,0.1-1.18c-0.22-1.02-0.78-1.44-1.7-1.24
		c-0.11,0.03-0.32,0.09-0.64,0.21c-0.01,0.1,0.1,0.7,0.33,1.81l0.61,2.91c0.19,0.87,0.33,1.43,0.43,1.69
		c0.04,0.1,0.12,0.16,0.23,0.16c0.03,0,0.29-0.03,0.76-0.1l0.07,0.05l0.08,0.36l-0.04,0.07c-0.5,0.08-1.1,0.2-1.8,0.35
		c-0.79,0.17-1.35,0.3-1.68,0.39l-0.06-0.04l-0.08-0.37l0.05-0.07c0.36-0.1,0.57-0.17,0.62-0.19c0.1-0.05,0.15-0.13,0.14-0.24
		c-0.01-0.28-0.1-0.85-0.29-1.72l-0.62-2.91c-0.18-0.87-0.33-1.44-0.43-1.69c-0.04-0.1-0.12-0.16-0.23-0.17
		c-0.06,0-0.27,0.03-0.65,0.08l-0.07-0.05l-0.08-0.37l0.05-0.07c0.36-0.05,0.91-0.16,1.65-0.32c0.31-0.06,0.75-0.17,1.32-0.3
		c0.57-0.14,0.9-0.21,0.99-0.23c1-0.21,1.7-0.1,2.11,0.35C114.51,148.46,114.66,148.76,114.74,149.14 M108.14,155.96l-0.22,0.59
		c-0.75,0.49-1.62,0.77-2.59,0.84c-1.94,0.14-3.32-0.48-4.13-1.83c-0.38-0.63-0.59-1.32-0.64-2.08c-0.09-1.23,0.25-2.23,1.01-3.02
		c0.78-0.81,1.88-1.27,3.32-1.37c0.91-0.06,1.82,0.04,2.71,0.31l0.08,0.08c-0.09,0.52-0.13,1.13-0.11,1.83l-0.05,0.06l-0.33,0.02
		l-0.06-0.06c-0.05-0.45-0.09-0.76-0.13-0.94c-0.5-0.49-1.19-0.71-2.07-0.65c-0.9,0.06-1.59,0.4-2.06,1.01
		c-0.47,0.61-0.68,1.41-0.61,2.4c0.09,1.34,0.62,2.33,1.59,2.98c0.51,0.35,1.18,0.49,2,0.43c0.74-0.05,1.46-0.3,2.14-0.73
		L108.14,155.96z M94.14,152.76c0.21,0.01,0.41,0.08,0.59,0.2c0.18,0.12,0.33,0.28,0.42,0.48c0.1,0.2,0.14,0.41,0.13,0.63
		c-0.03,0.34-0.16,0.62-0.42,0.85c-0.25,0.23-0.55,0.33-0.9,0.3c-0.34-0.03-0.62-0.17-0.84-0.42c-0.22-0.26-0.32-0.56-0.3-0.9
		c0.01-0.22,0.08-0.42,0.21-0.61c0.13-0.19,0.29-0.32,0.49-0.42C93.72,152.79,93.93,152.75,94.14,152.76 M85.7,153.47
		c0.29-1.09-0.13-1.78-1.27-2.09c-0.15-0.04-0.31-0.08-0.5-0.12l-0.67,2.52c-0.07,0.27-0.13,0.54-0.19,0.8
		c0.14,0.06,0.34,0.13,0.61,0.21c0.5,0.14,0.93,0.08,1.29-0.16C85.32,154.39,85.56,154,85.7,153.47 M86.43,149.79
		c0.21-0.8-0.1-1.31-0.92-1.53c-0.28-0.08-0.51-0.12-0.71-0.15c-0.11,0.38-0.21,0.73-0.3,1.05l-0.4,1.5
		c0.08,0.03,0.25,0.08,0.49,0.15c0.65,0.17,1.14,0.08,1.45-0.28C86.23,150.31,86.36,150.07,86.43,149.79 M87.4,153.74
		c-0.24,0.91-0.87,1.5-1.88,1.76c-0.5,0.13-1.09,0.11-1.77-0.08c-0.21-0.06-0.39-0.11-0.53-0.15l-1.28-0.37
		c-0.46-0.13-0.82-0.21-1.08-0.26l-0.04-0.07l0.04-0.15l0.05-0.06c0.31-0.1,0.48-0.16,0.52-0.2c0.05-0.06,0.13-0.29,0.25-0.71
		l0.34-1.22l0.73-2.75c0.23-0.86,0.36-1.43,0.38-1.7c0.01-0.11-0.03-0.19-0.13-0.25c-0.05-0.03-0.26-0.1-0.62-0.22l-0.04-0.07
		l0.1-0.37l0.06-0.04c0.32,0.11,0.86,0.27,1.64,0.48c0.5,0.14,0.95,0.25,1.35,0.34c0.32,0.07,0.59,0.14,0.81,0.19
		c1,0.27,1.6,0.68,1.79,1.22c0.1,0.29,0.11,0.59,0.03,0.9c-0.14,0.51-0.45,0.89-0.94,1.13c-0.23,0.11-0.46,0.18-0.69,0.2
		c-0.26,0.03-0.54,0.03-0.84,0.02C87.13,151.79,87.71,152.59,87.4,153.74 M79.54,152.23c-0.3,0.47-0.59,1.02-0.86,1.65l-0.08,0.03
		l-3.7-1.7c-0.62-0.28-1.06-0.46-1.33-0.55l-0.03-0.08l0.06-0.15l0.05-0.05c0.32-0.05,0.5-0.09,0.54-0.12
		c0.06-0.05,0.18-0.27,0.36-0.66l0.53-1.14l1.15-2.61c0.36-0.81,0.58-1.36,0.64-1.62c0.03-0.11,0-0.2-0.09-0.27
		c-0.05-0.03-0.24-0.14-0.58-0.32l-0.03-0.07l0.15-0.35l0.07-0.03c0.33,0.17,0.86,0.42,1.58,0.75c0.64,0.29,1.86,0.82,3.67,1.61
		l0.04,0.06l-0.32,0.54c-0.1,0.17-0.19,0.32-0.25,0.44l-0.25,0.46l-0.08,0.03l-0.3-0.13l-0.03-0.08c0.2-0.47,0.29-0.75,0.27-0.83
		c-0.02-0.06-0.18-0.19-0.5-0.36c-0.32-0.17-0.6-0.32-0.85-0.43c-0.3-0.13-0.6-0.26-0.91-0.37c-0.2,0.34-0.44,0.84-0.72,1.47
		l-0.47,1.06c0.26,0.14,0.48,0.24,0.64,0.32l0.67,0.29c0.32,0.14,0.5,0.19,0.56,0.16c0.08-0.04,0.22-0.25,0.41-0.65l0.07-0.03
		l0.32,0.14l0.03,0.08c-0.18,0.38-0.34,0.73-0.49,1.04c-0.15,0.35-0.31,0.73-0.48,1.14l-0.07,0.02l-0.34-0.15l-0.03-0.08
		c0.17-0.39,0.25-0.64,0.23-0.74c-0.02-0.1-0.17-0.22-0.43-0.37c-0.2-0.11-0.42-0.22-0.65-0.32c-0.25-0.11-0.49-0.21-0.71-0.29
		l-0.69,1.57c-0.2,0.45-0.38,0.89-0.55,1.32l0.69,0.31c0.99,0.44,1.62,0.68,1.88,0.7c0.04,0,0.08,0,0.11-0.02
		c0.06-0.03,0.13-0.12,0.23-0.26l0.4-0.59l0.08-0.03l0.31,0.14L79.54,152.23z M75.38,143.6l-0.37,0.53
		c-0.08,0.12-0.19,0.27-0.32,0.47l-0.25,0.38L74.37,145l-0.28-0.16l-0.02-0.08c0.24-0.45,0.35-0.71,0.34-0.8
		c-0.02-0.14-0.45-0.45-1.28-0.91c-0.13-0.07-0.35-0.18-0.65-0.32c-0.22,0.32-0.57,0.91-1.05,1.77l-0.36,0.66l0.54,0.32
		c0.16,0.1,0.48,0.26,0.94,0.5c0.09,0.05,0.16,0.06,0.22,0.03c0.09-0.05,0.24-0.25,0.45-0.6l0.08-0.02l0.3,0.17l0.02,0.08
		c-0.22,0.36-0.41,0.69-0.57,1c-0.19,0.33-0.38,0.7-0.58,1.1l-0.07,0.01l-0.33-0.18l-0.02-0.08c0.19-0.34,0.29-0.55,0.29-0.63
		c0.01-0.14-0.12-0.31-0.39-0.49c-0.18-0.12-0.37-0.24-0.55-0.34c-0.22-0.12-0.43-0.23-0.61-0.32l-0.65,1.17
		c-0.43,0.78-0.69,1.3-0.78,1.56c-0.04,0.1-0.01,0.2,0.07,0.28c0.02,0.02,0.24,0.17,0.67,0.44l0.02,0.08l-0.18,0.33l-0.08,0.02
		l-1.95-1.13c-0.28-0.16-0.67-0.37-1.18-0.62l-0.03-0.07l0.18-0.33l0.08-0.02c0.34,0.16,0.54,0.25,0.6,0.27
		c0.11,0.03,0.2,0,0.27-0.09c0.18-0.21,0.48-0.71,0.9-1.49l1.43-2.6c0.43-0.78,0.69-1.3,0.78-1.56c0.04-0.11,0.01-0.2-0.06-0.28
		c-0.05-0.04-0.23-0.16-0.55-0.37l-0.02-0.08l0.18-0.33l0.07-0.02c0.3,0.19,0.8,0.48,1.49,0.87c0.45,0.25,1.55,0.85,3.32,1.81
		L75.38,143.6z M64.91,140.62c0.17,0.13,0.29,0.3,0.38,0.5c0.08,0.21,0.11,0.42,0.08,0.64c-0.03,0.22-0.12,0.42-0.25,0.59
		c-0.21,0.27-0.48,0.42-0.81,0.47c-0.34,0.04-0.64-0.04-0.91-0.25c-0.27-0.21-0.42-0.49-0.46-0.82c-0.04-0.34,0.05-0.64,0.25-0.91
		c0.13-0.17,0.3-0.3,0.51-0.39c0.21-0.08,0.42-0.11,0.64-0.07C64.55,140.41,64.74,140.49,64.91,140.62 M61.72,135.5
		c-0.58,0.51-1.2,0.7-1.87,0.59c-0.67-0.11-1.22-0.42-1.65-0.92c-0.15-0.17-0.28-0.36-0.39-0.57c0.05-0.09,0.11-0.23,0.18-0.41
		l0.17,0.01c0.07,0.15,0.14,0.28,0.22,0.38c0.25,0.28,0.55,0.43,0.9,0.42c0.35-0.01,0.71-0.17,1.07-0.48
		c0.78-0.69,0.87-1.38,0.25-2.1c-0.07-0.08-0.24-0.24-0.49-0.46c-0.09,0.03-0.56,0.42-1.42,1.17l-2.23,1.95
		c-0.67,0.59-1.09,0.98-1.26,1.2c-0.07,0.09-0.08,0.18-0.03,0.28c0.02,0.03,0.17,0.24,0.46,0.62l-0.01,0.09l-0.28,0.24l-0.08,0
		c-0.32-0.4-0.71-0.87-1.18-1.42c-0.53-0.61-0.91-1.04-1.16-1.28l0-0.08l0.28-0.25l0.09,0.01c0.26,0.27,0.42,0.42,0.47,0.46
		c0.09,0.06,0.18,0.06,0.28,0.01c0.24-0.14,0.69-0.5,1.36-1.09l2.23-1.95c0.67-0.59,1.09-0.98,1.26-1.2
		c0.07-0.09,0.08-0.18,0.03-0.28c-0.03-0.05-0.16-0.23-0.39-0.53l0.01-0.08l0.28-0.24l0.08,0.01c0.22,0.29,0.58,0.73,1.08,1.3
		c0.21,0.24,0.51,0.58,0.9,1.02c0.39,0.44,0.62,0.69,0.68,0.76c0.67,0.78,0.91,1.45,0.72,2.02
		C62.21,134.97,62.01,135.25,61.72,135.5L61.72,135.5z M52.84,130.43c0.94-0.61,1.09-1.41,0.45-2.4c-0.08-0.13-0.18-0.27-0.29-0.42
		l-2.17,1.42c-0.23,0.15-0.46,0.31-0.68,0.47c0.06,0.14,0.17,0.33,0.32,0.57c0.28,0.44,0.64,0.69,1.07,0.75
		C51.94,130.85,52.38,130.73,52.84,130.43 M55.82,128.19c0.69-0.45,0.8-1.04,0.33-1.76c-0.15-0.24-0.3-0.44-0.43-0.58
		c-0.34,0.2-0.64,0.39-0.92,0.58l-1.29,0.84c0.04,0.08,0.13,0.22,0.27,0.44c0.37,0.57,0.79,0.82,1.27,0.77
		C55.33,128.44,55.58,128.35,55.82,128.19 M53.92,131.78c-0.78,0.51-1.64,0.53-2.57,0.05c-0.46-0.24-0.88-0.65-1.26-1.25
		c-0.12-0.19-0.22-0.35-0.3-0.47l-0.7-1.14c-0.26-0.4-0.47-0.71-0.63-0.92l0.02-0.08l0.13-0.08l0.07-0.01
		c0.3,0.13,0.47,0.2,0.52,0.2c0.08-0.01,0.3-0.13,0.66-0.36l1.06-0.67l2.38-1.55c0.74-0.49,1.22-0.82,1.41-1.01
		c0.08-0.08,0.11-0.17,0.07-0.27c-0.02-0.06-0.12-0.25-0.31-0.59l0.02-0.08l0.32-0.21l0.07,0.02c0.16,0.29,0.46,0.78,0.9,1.46
		c0.28,0.44,0.54,0.82,0.78,1.16c0.19,0.27,0.35,0.5,0.47,0.69c0.57,0.88,0.74,1.58,0.52,2.11c-0.12,0.28-0.31,0.51-0.59,0.69
		c-0.44,0.29-0.93,0.36-1.45,0.2c-0.25-0.07-0.46-0.18-0.65-0.31c-0.21-0.16-0.43-0.34-0.64-0.55
		C55.01,130.14,54.91,131.13,53.92,131.78 M48.76,121.57l2.15-2.34l-3.14,0.2c0.12,0.28,0.28,0.65,0.49,1.09
		C48.46,120.96,48.63,121.31,48.76,121.57 M47.53,126.08l-0.07-0.02c-0.33-0.77-0.53-1.22-0.6-1.38c-0.29-0.62-0.57-1.2-0.84-1.73
		l0.03-0.07l0.32-0.15l0.08,0.02l0.23,0.43c0.1,0.18,0.21,0.24,0.33,0.19c0.07-0.03,0.21-0.16,0.41-0.37l0.88-0.91
		c-0.21-0.47-0.43-0.95-0.66-1.44c-0.12-0.26-0.31-0.66-0.56-1.18l-0.72,0.07c-0.55,0.05-0.88,0.1-1,0.16
		c-0.13,0.06-0.17,0.17-0.12,0.35c0.03,0.1,0.09,0.28,0.2,0.54l-0.03,0.08l-0.33,0.15l-0.08-0.03c-0.27-0.64-0.45-1.05-0.53-1.23
		c-0.06-0.14-0.23-0.48-0.51-1.02l0.03-0.07l0.33-0.15l0.08,0.03c0.18,0.34,0.35,0.52,0.51,0.55c0.15,0.03,1-0.01,2.53-0.09
		l3.93-0.22c0.31-0.02,0.76-0.05,1.37-0.1l0.34,0.72L48,124.87c-0.19,0.22-0.28,0.38-0.27,0.48c0.01,0.13,0.06,0.3,0.16,0.51
		l-0.03,0.07L47.53,126.08z"/>
</g>
</svg>
