<?xml version="1.0" encoding="utf-8"?>
<!-- Generator: Adobe Illustrator 28.0.0, SVG Export Plug-In . SVG Version: 6.00 Build 0)  -->
<svg version="1.1" id="Layer_1" xmlns="http://www.w3.org/2000/svg" xmlns:xlink="http://www.w3.org/1999/xlink" x="0px" y="0px"
	 viewBox="0 0 198.43 198.43" style="enable-background:new 0 0 198.43 198.43;" xml:space="preserve">
<style type="text/css">
	.st0{fill:#003156;}
	.st1{fill:#4DC4CF;}
	.st2{fill:#FFC20E;}
</style>
<g>
	<path class="st0" d="M14.17,154.03l2.84-5.75h0.46l2.93,5.75h-0.72l-0.91-1.82h-3l-0.89,1.82H14.17z M16.04,151.64h2.44l-1.23-2.45
		h-0.02L16.04,151.64z"/>
	<polygon class="st0" points="23.49,154.03 23.49,148.31 24,148.31 28.54,152.91 28.55,152.91 28.55,148.31 29.19,148.31 
		29.19,154.03 28.75,154.03 24.15,149.36 24.13,149.36 24.13,154.03 	"/>
	<g>
		<path class="st0" d="M31.5,149.08c0.58-0.55,1.35-0.82,2.29-0.82c0.95,0,1.71,0.27,2.29,0.82c0.58,0.55,0.88,1.25,0.88,2.12
			c0,0.89-0.3,1.6-0.88,2.13c-0.58,0.53-1.35,0.79-2.29,0.79c-0.95,0-1.71-0.26-2.29-0.79c-0.58-0.53-0.88-1.24-0.88-2.13
			C30.62,150.33,30.92,149.63,31.5,149.08 M35.61,152.89c0.45-0.43,0.68-1,0.68-1.69c0-0.69-0.23-1.26-0.68-1.7
			c-0.44-0.44-1.05-0.66-1.81-0.66c-0.76,0-1.37,0.22-1.82,0.66c-0.44,0.44-0.67,1.01-0.67,1.7c0,0.69,0.23,1.26,0.67,1.69
			c0.44,0.43,1.05,0.65,1.82,0.65C34.56,153.54,35.16,153.33,35.61,152.89"/>
		<path class="st0" d="M38.39,154.03v-5.72h1.72c0.49,0,0.89,0.04,1.2,0.14c0.78,0.25,1.17,0.75,1.17,1.48
			c0,0.87-0.63,1.45-1.75,1.6v0.02c0.12,0.05,0.25,0.19,0.39,0.43l0.47,0.75c0.17,0.27,0.35,0.46,0.51,0.59
			c0.17,0.13,0.36,0.19,0.56,0.19c0.11,0,0.23-0.02,0.33-0.04l0.13,0.55c-0.14,0.05-0.31,0.08-0.52,0.08c-0.31,0-0.6-0.1-0.87-0.29
			c-0.2-0.14-0.39-0.34-0.58-0.6c-0.19-0.26-0.35-0.5-0.47-0.72c-0.23-0.44-0.56-0.83-0.86-0.83h-0.78v2.4H38.39z M39.03,151.06
			h0.91c0.43,0,0.76-0.03,0.98-0.1c0.58-0.17,0.88-0.52,0.88-1.05c0-0.44-0.28-0.76-0.67-0.9c-0.23-0.09-0.56-0.13-1.02-0.13h-1.08
			V151.06z"/>
		<path class="st0" d="M44.12,154.03v-5.72h2.05c0.7,0,1.29,0.08,1.75,0.24c1.15,0.39,1.82,1.25,1.82,2.53
			c0,1.42-0.8,2.38-2.21,2.76c-0.46,0.13-1.01,0.19-1.66,0.19H44.12z M44.76,153.46h1.08c0.61,0,1.11-0.05,1.51-0.16
			c1.14-0.32,1.71-1.06,1.71-2.22c0-0.98-0.45-1.63-1.36-1.96c-0.39-0.15-0.93-0.23-1.61-0.23h-1.32V153.46z"/>
		<path class="st0" d="M52.5,154.03l2.84-5.75h0.46l2.93,5.75h-0.72l-0.91-1.82h-3l-0.89,1.82H52.5z M54.37,151.64h2.44l-1.23-2.45
			h-0.02L54.37,151.64z"/>
		<polygon class="st0" points="59.78,154.03 59.78,148.31 60.29,148.31 64.82,152.91 64.84,152.91 64.84,148.31 65.48,148.31 
			65.48,154.03 65.04,154.03 60.44,149.36 60.42,149.36 60.42,154.03 		"/>
		<path class="st0" d="M67.84,149.1c0.63-0.56,1.46-0.83,2.51-0.83c0.79,0,1.55,0.15,2.28,0.45l-0.2,0.55
			c-0.64-0.29-1.33-0.43-2.06-0.43c-0.85,0-1.53,0.22-2.03,0.66c-0.5,0.44-0.76,1.01-0.76,1.71c0,1.47,0.96,2.34,2.83,2.34
			c0.63,0,1.2-0.1,1.7-0.3v-1.65H70v-0.57h2.77v2.6c-0.25,0.13-0.61,0.24-1.07,0.34c-0.46,0.1-0.9,0.15-1.33,0.15
			c-1.12,0-1.98-0.26-2.57-0.77c-0.59-0.52-0.89-1.22-0.89-2.1C66.91,150.37,67.23,149.65,67.84,149.1"/>
		<polygon class="st0" points="74.44,154.03 74.44,148.31 75.08,148.31 75.08,153.46 78.34,153.46 78.34,154.03 		"/>
		<rect x="79.34" y="148.31" class="st0" width="0.64" height="5.72"/>
		<path class="st0" d="M81.02,154.03l2.84-5.75h0.46l2.93,5.75h-0.72l-0.91-1.82h-3l-0.89,1.82H81.02z M82.88,151.64h2.44
			l-1.23-2.45h-0.02L82.88,151.64z"/>
		<polygon class="st0" points="90.33,154.03 90.33,148.31 94.27,148.31 94.27,148.88 90.98,148.88 90.98,150.83 93.95,150.83 
			93.95,151.39 90.98,151.39 90.98,153.46 94.33,153.46 94.33,154.03 		"/>
		<path class="st0" d="M95.58,154.03v-5.72h2.05c0.7,0,1.28,0.08,1.75,0.24c1.15,0.39,1.82,1.25,1.82,2.53
			c0,1.42-0.8,2.38-2.21,2.76c-0.46,0.13-1.01,0.19-1.66,0.19H95.58z M96.22,153.46h1.08c0.61,0,1.11-0.05,1.51-0.16
			c1.14-0.32,1.71-1.06,1.71-2.22c0-0.98-0.45-1.63-1.36-1.96c-0.39-0.15-0.93-0.23-1.62-0.23h-1.32V153.46z"/>
		<path class="st0" d="M102.54,148.31h0.64v3.13c0,0.43,0.04,0.77,0.13,1.01c0.27,0.72,0.95,1.09,2.01,1.09
			c1.05,0,1.71-0.35,1.99-1.04c0.1-0.25,0.15-0.58,0.15-1.01v-3.18h0.65v3.22c0,0.45-0.06,0.84-0.18,1.17
			c-0.36,0.95-1.23,1.42-2.6,1.42c-1.42,0-2.3-0.5-2.64-1.48c-0.1-0.31-0.15-0.67-0.15-1.07V148.31z"/>
		<path class="st0" d="M110.35,149.11c0.6-0.56,1.4-0.84,2.39-0.84c0.72,0,1.41,0.14,2.06,0.42l-0.2,0.55
			c-0.58-0.26-1.18-0.39-1.81-0.39c-0.81,0-1.46,0.22-1.94,0.66c-0.48,0.43-0.72,1-0.72,1.69c0,1.47,0.96,2.35,2.66,2.35
			c0.59,0,1.2-0.12,1.82-0.37l0.22,0.55c-0.66,0.27-1.36,0.4-2.09,0.4c-1.04,0-1.85-0.26-2.42-0.77c-0.56-0.52-0.85-1.22-0.85-2.1
			C109.45,150.37,109.75,149.66,110.35,149.11"/>
		<path class="st0" d="M115.56,154.03l2.84-5.75h0.46l2.93,5.75h-0.72l-0.91-1.82h-3l-0.89,1.82H115.56z M117.42,151.64h2.44
			l-1.23-2.45h-0.02L117.42,151.64z"/>
		<polygon class="st0" points="121.3,148.88 121.3,148.31 126.42,148.31 126.42,148.88 124.18,148.88 124.18,154.03 123.53,154.03 
			123.53,148.88 		"/>
		<rect x="127.43" y="148.31" class="st0" width="0.64" height="5.72"/>
		<path class="st0" d="M130.37,149.08c0.58-0.55,1.35-0.82,2.29-0.82c0.95,0,1.71,0.27,2.29,0.82c0.58,0.55,0.88,1.25,0.88,2.12
			c0,0.89-0.3,1.6-0.88,2.13c-0.58,0.53-1.35,0.79-2.29,0.79c-0.95,0-1.71-0.26-2.29-0.79c-0.58-0.53-0.88-1.24-0.88-2.13
			C129.49,150.33,129.79,149.63,130.37,149.08 M134.48,152.89c0.45-0.43,0.68-1,0.68-1.69c0-0.69-0.23-1.26-0.68-1.7
			c-0.44-0.44-1.05-0.66-1.81-0.66c-0.76,0-1.37,0.22-1.82,0.66c-0.44,0.44-0.67,1.01-0.67,1.7c0,0.69,0.23,1.26,0.67,1.69
			c0.44,0.43,1.05,0.65,1.82,0.65C133.43,153.54,134.03,153.33,134.48,152.89"/>
		<polygon class="st0" points="137.26,154.03 137.26,148.31 137.77,148.31 142.3,152.91 142.32,152.91 142.32,148.31 142.96,148.31 
			142.96,154.03 142.52,154.03 137.92,149.36 137.9,149.36 137.9,154.03 		"/>
		<path class="st0" d="M146.68,152.99c0.49,0.37,1.12,0.56,1.88,0.56c1.04,0,1.78-0.39,1.78-1.15c0-0.45-0.35-0.72-0.89-0.82
			c-0.27-0.06-0.55-0.1-0.83-0.14c-0.56-0.08-1.24-0.25-1.6-0.54c-0.3-0.24-0.45-0.58-0.45-1.02c0-1.02,0.87-1.61,2.2-1.61
			c0.83,0,1.64,0.23,2.09,0.55l-0.27,0.49c-0.51-0.31-1.11-0.47-1.78-0.47c-1.05,0-1.56,0.43-1.56,1c0,1.67,3.78,0.3,3.78,2.55
			c0,0.56-0.23,0.98-0.7,1.29c-0.47,0.3-1.05,0.44-1.75,0.44c-0.93,0-1.66-0.21-2.21-0.63L146.68,152.99z"/>
		<path class="st0" d="M152.99,149.11c0.6-0.56,1.4-0.84,2.39-0.84c0.72,0,1.41,0.14,2.06,0.42l-0.2,0.55
			c-0.58-0.26-1.18-0.39-1.81-0.39c-0.81,0-1.46,0.22-1.94,0.66c-0.48,0.43-0.72,1-0.72,1.69c0,1.47,0.96,2.35,2.66,2.35
			c0.59,0,1.2-0.12,1.82-0.37l0.22,0.55c-0.66,0.27-1.35,0.4-2.09,0.4c-1.04,0-1.85-0.26-2.42-0.77c-0.56-0.52-0.85-1.22-0.85-2.1
			C152.09,150.37,152.39,149.66,152.99,149.11"/>
		<polygon class="st0" points="158.61,154.03 158.61,148.31 159.25,148.31 159.25,150.84 163.08,150.84 163.08,148.31 
			163.72,148.31 163.72,154.03 163.08,154.03 163.08,151.41 159.25,151.41 159.25,154.03 		"/>
		<path class="st0" d="M166.02,149.08c0.58-0.55,1.35-0.82,2.29-0.82s1.71,0.27,2.29,0.82c0.58,0.55,0.88,1.25,0.88,2.12
			c0,0.89-0.3,1.6-0.88,2.13c-0.58,0.53-1.35,0.79-2.29,0.79s-1.71-0.26-2.29-0.79c-0.58-0.53-0.88-1.24-0.88-2.13
			C165.15,150.33,165.44,149.63,166.02,149.08 M170.13,152.89c0.45-0.43,0.68-1,0.68-1.69c0-0.69-0.23-1.26-0.68-1.7
			c-0.44-0.44-1.05-0.66-1.81-0.66c-0.76,0-1.37,0.22-1.82,0.66c-0.44,0.44-0.67,1.01-0.67,1.7c0,0.69,0.23,1.26,0.67,1.69
			c0.44,0.43,1.05,0.65,1.82,0.65C169.08,153.54,169.69,153.33,170.13,152.89"/>
		<path class="st0" d="M173.46,149.08c0.58-0.55,1.35-0.82,2.29-0.82c0.95,0,1.71,0.27,2.29,0.82c0.58,0.55,0.88,1.25,0.88,2.12
			c0,0.89-0.3,1.6-0.88,2.13c-0.58,0.53-1.35,0.79-2.29,0.79c-0.95,0-1.71-0.26-2.29-0.79c-0.58-0.53-0.88-1.24-0.88-2.13
			C172.58,150.33,172.87,149.63,173.46,149.08 M177.56,152.89c0.45-0.43,0.68-1,0.68-1.69c0-0.69-0.23-1.26-0.68-1.7
			c-0.44-0.44-1.05-0.66-1.82-0.66c-0.76,0-1.37,0.22-1.82,0.66c-0.44,0.44-0.67,1.01-0.67,1.7c0,0.69,0.23,1.26,0.67,1.69
			c0.44,0.43,1.05,0.65,1.82,0.65C176.51,153.54,177.12,153.33,177.56,152.89"/>
		<polygon class="st0" points="180.34,154.03 180.34,148.31 180.99,148.31 180.99,153.46 184.25,153.46 184.25,154.03 		"/>
		<path class="st0" d="M44.89,127.25c-3.2,0-5.01-1.75-5.01-4.41c0-2.65,2-4.57,4.95-4.57c1.31,0,2.4,0.27,3.36,0.71l-0.43,1.2
			c-0.84-0.37-1.75-0.61-2.8-0.61c-2.2,0-3.6,1.39-3.6,3.2c0,1.93,1.27,3.2,3.63,3.2c0.93,0,1.88-0.21,2.77-0.59l0.47,1.2
			C47.04,127.07,45.9,127.25,44.89,127.25"/>
		<path class="st0" d="M53.97,127.25c-2.83,0-4.88-1.72-4.88-4.48c0-2.68,2.01-4.51,4.88-4.51c2.87,0,4.88,1.83,4.88,4.51
			C58.84,125.53,56.79,127.25,53.97,127.25 M53.97,119.56c-2.16,0-3.4,1.36-3.4,3.21s1.24,3.19,3.4,3.19c2.16,0,3.4-1.33,3.4-3.19
			S56.13,119.56,53.97,119.56"/>
		<polygon class="st0" points="60.73,127.11 60.73,118.33 62.15,118.33 62.15,125.85 66.92,125.85 66.92,127.11 		"/>
		<polygon class="st0" points="68.2,127.11 68.2,118.33 74.46,118.33 74.46,119.6 69.61,119.6 69.61,122.02 74.01,122.02 
			74.01,123.29 69.61,123.29 69.61,125.85 74.54,125.85 74.54,127.11 		"/>
		<path class="st0" d="M81.03,127.25c-3.36,0-5.23-1.75-5.23-4.41c0-2.65,2-4.57,5.17-4.57c1.27,0,2.52,0.25,3.75,0.76l-0.43,1.2
			c-1.04-0.44-2.16-0.67-3.2-0.67c-2.41,0-3.81,1.39-3.81,3.2c0,1.93,1.33,3.2,3.81,3.2c0.79,0,1.64-0.12,2.35-0.35v-2.05h-2.97
			v-1.27h4.39v4.17C83.95,126.89,82.45,127.25,81.03,127.25"/>
		<rect x="87.13" y="118.33" class="st0" width="1.41" height="8.78"/>
		<path class="st0" d="M95.3,127.25c-2.83,0-4.88-1.72-4.88-4.48c0-2.68,2.01-4.51,4.88-4.51s4.88,1.83,4.88,4.51
			C100.18,125.53,98.13,127.25,95.3,127.25 M95.3,119.56c-2.16,0-3.4,1.36-3.4,3.21s1.24,3.19,3.4,3.19c2.16,0,3.4-1.33,3.4-3.19
			S97.46,119.56,95.3,119.56"/>
		<polygon class="st0" points="114.03,127.11 114.03,120.81 114,120.81 110.46,125.07 110.27,125.07 106.72,120.81 106.7,120.81 
			106.7,127.11 105.28,127.11 105.28,118.33 106.46,118.33 110.36,123.03 110.39,123.03 114.29,118.33 115.44,118.33 115.44,127.11 
					"/>
		<polygon class="st0" points="117.84,127.11 117.84,118.33 124.1,118.33 124.1,119.6 119.25,119.6 119.25,122.02 123.65,122.02 
			123.65,123.29 119.25,123.29 119.25,125.85 124.18,125.85 124.18,127.11 		"/>
		<polygon class="st0" points="133.96,127.11 127.56,120.66 127.53,120.66 127.53,127.11 126.12,127.11 126.12,118.33 
			127.25,118.33 133.56,124.69 133.59,124.69 133.59,118.33 135,118.33 135,127.11 		"/>
		<path class="st0" d="M141.77,127.25c-2.83,0-4.88-1.72-4.88-4.48c0-2.68,2.01-4.51,4.88-4.51c2.87,0,4.88,1.83,4.88,4.51
			C146.64,125.53,144.59,127.25,141.77,127.25 M141.77,119.56c-2.16,0-3.4,1.36-3.4,3.21s1.24,3.19,3.4,3.19
			c2.16,0,3.4-1.33,3.4-3.19S143.92,119.56,141.77,119.56"/>
		<path class="st0" d="M154.85,127.18c-0.67,0-1.19-0.24-1.61-0.59c-1.21-0.99-1.68-2.88-2.57-2.88h-0.72v3.4h-1.41v-8.78h2.63
			c0.67,0,1.27,0.04,1.77,0.17c1.15,0.31,2.07,1.05,2.07,2.44c0,1.51-1.08,2.27-2.52,2.51v0.03c0.57,0.32,0.93,1.49,1.64,2.07
			c0.27,0.21,0.56,0.35,0.93,0.35c0.16,0,0.41-0.03,0.61-0.08l0.29,1.2C155.7,127.11,155.26,127.18,154.85,127.18 M152.52,119.72
			c-0.37-0.11-0.77-0.12-1.33-0.12h-1.24v2.85h1.07c0.57,0,1.03-0.03,1.39-0.13c0.68-0.2,1.12-0.63,1.12-1.35
			C153.52,120.3,153.09,119.88,152.52,119.72"/>
		<path class="st0" d="M82.35,141.4c-3.01,0-5.02-1.73-5.02-4.49c0-2.68,2.01-4.51,4.88-4.51c2.87,0,4.88,1.83,4.88,4.43
			c0,1.32-0.43,2.56-1.44,3.27l0.01,0.01c0.84-0.16,1.52-0.21,2.37-0.21v1.37C85.42,141.26,83.98,141.4,82.35,141.4 M82.21,133.69
			c-2.16,0-3.4,1.36-3.4,3.21c0,1.85,1.24,3.19,3.4,3.19c0.84,0,1.55-0.2,2.09-0.56c0.84-0.56,1.31-1.49,1.31-2.63
			C85.61,135.05,84.37,133.69,82.21,133.69"/>
		<path class="st0" d="M97.46,139.29c-0.56,1.35-1.89,2.09-3.99,2.09c-2.19,0-3.55-0.83-4.05-2.24c-0.17-0.48-0.24-0.99-0.24-1.53
			v-5.14h1.41v4.97c0,0.48,0.05,0.91,0.2,1.28c0.35,0.87,1.15,1.37,2.68,1.37c1.48,0,2.28-0.47,2.64-1.28
			c0.17-0.39,0.24-0.85,0.24-1.37v-4.97h1.41v5.14C97.76,138.24,97.66,138.81,97.46,139.29"/>
		<rect x="100.1" y="132.47" class="st0" width="1.41" height="8.78"/>
		<polygon class="st0" points="107.46,133.73 107.46,141.25 106.04,141.25 106.04,133.73 102.78,133.73 102.78,132.47 
			110.72,132.47 110.72,133.73 		"/>
		<path class="st0" d="M116.12,141.38c-2.83,0-4.88-1.72-4.88-4.48c0-2.68,2.01-4.51,4.88-4.51c2.87,0,4.88,1.83,4.88,4.51
			C121,139.66,118.95,141.38,116.12,141.38 M116.12,133.69c-2.16,0-3.4,1.36-3.4,3.21c0,1.85,1.24,3.19,3.4,3.19s3.4-1.33,3.4-3.19
			C119.52,135.05,118.28,133.69,116.12,133.69"/>
		<rect x="101.11" y="44.31" class="st0" width="1.74" height="11.78"/>
		<rect x="101.11" y="92.28" class="st0" width="1.74" height="11.78"/>
		<rect x="72.1" y="73.32" class="st0" width="11.78" height="1.74"/>
		
			<rect x="90.72" y="46.67" transform="matrix(0.9014 -0.433 0.433 0.9014 -13.7295 44.8485)" class="st0" width="1.74" height="11.78"/>
		
			<rect x="111.5" y="89.92" transform="matrix(0.9014 -0.433 0.433 0.9014 -30.4063 58.1097)" class="st0" width="1.74" height="11.78"/>
		
			<rect x="74.47" y="83.7" transform="matrix(0.9014 -0.433 0.433 0.9014 -28.6983 43.1403)" class="st0" width="11.78" height="1.74"/>
		
			<rect x="86.18" y="49.52" transform="matrix(0.7828 -0.6223 0.6223 0.7828 -15.5732 66.2093)" class="st0" width="1.74" height="11.78"/>
		
			<rect x="116.04" y="87.07" transform="matrix(0.7828 -0.6223 0.6223 0.7828 -32.454 92.947)" class="st0" width="1.74" height="11.78"/>
		
			<rect x="77.32" y="88.25" transform="matrix(0.7828 -0.6223 0.6223 0.7828 -37.3824 71.1371)" class="st0" width="11.78" height="1.74"/>
		
			<rect x="114.86" y="58.39" transform="matrix(0.7828 -0.6223 0.6223 0.7828 -10.6449 88.018)" class="st0" width="11.78" height="1.74"/>
		
			<rect x="82.39" y="53.3" transform="matrix(0.625 -0.7806 0.7806 0.625 -14.9881 87.1921)" class="st0" width="1.74" height="11.78"/>
		
			<rect x="119.84" y="83.29" transform="matrix(0.625 -0.7806 0.7806 0.625 -24.3474 127.6715)" class="st0" width="1.74" height="11.78"/>
		
			<rect x="81.1" y="92.04" transform="matrix(0.625 -0.7806 0.7806 0.625 -39.9076 102.7519)" class="st0" width="11.78" height="1.74"/>
		
			<rect x="111.08" y="54.59" transform="matrix(0.625 -0.7806 0.7806 0.625 0.5719 112.1111)" class="st0" width="11.78" height="1.74"/>
		<rect x="79.52" y="57.84" transform="matrix(0.436 -0.9 0.9 0.436 -12.0093 108.294)" class="st0" width="1.74" height="11.78"/>
		<rect x="85.63" y="94.9" transform="matrix(0.436 -0.9 0.9 0.436 -34.5712 136.3833)" class="st0" width="11.78" height="1.74"/>
		<rect x="106.55" y="51.73" transform="matrix(0.436 -0.9 0.9 0.436 16.0799 130.8554)" class="st0" width="11.78" height="1.74"/>
		
			<rect x="77.74" y="62.89" transform="matrix(0.2253 -0.9743 0.9743 0.2253 -6.1133 129.8779)" class="st0" width="1.74" height="11.78"/>
		
			<rect x="90.69" y="96.69" transform="matrix(0.2253 -0.9743 0.9743 0.2253 -20.2273 169.6749)" class="st0" width="11.78" height="1.74"/>
		
			<rect x="101.49" y="49.95" transform="matrix(0.2253 -0.9743 0.9743 0.2253 33.6833 143.9915)" class="st0" width="11.78" height="1.74"/>
		
			<rect x="72.68" y="78.57" transform="matrix(0.9757 -0.2189 0.2189 0.9757 -15.4841 19.1284)" class="st0" width="11.78" height="1.74"/>
		
			<rect x="106.36" y="91.7" transform="matrix(0.9757 -0.2189 0.2189 0.9757 -18.7634 25.842)" class="st0" width="1.74" height="11.78"/>
		
			<rect x="95.86" y="44.89" transform="matrix(0.9757 -0.2189 0.2189 0.9757 -8.7705 22.4078)" class="st0" width="1.74" height="11.78"/>
		<path class="st1" d="M94.78,61.73l-4.32-6.88l-0.86,0.54l4.32,6.88C94.2,62.07,94.49,61.9,94.78,61.73"/>
		<path class="st1" d="M88.63,68.88l-7.66-2.71l-0.34,0.96l7.66,2.71C88.38,69.51,88.5,69.2,88.63,68.88"/>
		<path class="st1" d="M97.77,60.41l-2.65-7.67l-0.96,0.33l2.65,7.68C97.13,60.63,97.45,60.51,97.77,60.41"/>
		<path class="st1" d="M90.11,66.08l-6.88-4.32l-0.54,0.86l6.88,4.32C89.74,66.65,89.92,66.36,90.11,66.08"/>
		<path class="st1" d="M92.25,63.6l-5.72-5.78l-0.72,0.71l5.73,5.78C91.76,64.07,92,63.83,92.25,63.6"/>
		<path class="st1" d="M107.25,60.75l2.69-7.63l-0.96-0.34l-2.7,7.63C106.62,60.52,106.93,60.63,107.25,60.75"/>
		<path class="st1" d="M112.57,64.36l5.73-5.68l-0.71-0.72l-5.73,5.68C112.1,63.87,112.34,64.11,112.57,64.36"/>
		<path class="st1" d="M104.09,59.92l0.91-8.05l-1.01-0.11l-0.91,8.06C103.43,59.84,103.76,59.88,104.09,59.92"/>
		<path class="st1" d="M110.06,62.22l4.29-6.84l-0.86-0.54l-4.3,6.84C109.49,61.86,109.78,62.03,110.06,62.22"/>
		<path class="st1" d="M87.78,72.03l-8.06-0.91l-0.11,1.01l8.07,0.91C87.69,72.7,87.73,72.36,87.78,72.03"/>
		<path class="st1" d="M100.87,59.82l-0.91-8.07l-1.01,0.11l0.91,8.06C100.19,59.89,100.53,59.85,100.87,59.82"/>
		<path class="st1" d="M106.22,87.98l2.61,7.57l0.96-0.33l-2.61-7.57C106.87,87.77,106.55,87.88,106.22,87.98"/>
		<path class="st1" d="M103.1,88.55l0.9,7.97l1.01-0.11l-0.9-7.96C103.78,88.49,103.44,88.53,103.1,88.55"/>
		<path class="st1" d="M99.86,88.44l-0.9,7.97l1.01,0.11l0.9-7.97C100.53,88.52,100.19,88.49,99.86,88.44"/>
		<path class="st1" d="M111.8,84.77l5.63,5.68l0.72-0.71l-5.63-5.68C112.29,84.3,112.05,84.54,111.8,84.77"/>
		<path class="st1" d="M109.24,86.66l4.26,6.78l0.86-0.54l-4.25-6.77C109.82,86.31,109.54,86.49,109.24,86.66"/>
		<path class="st1" d="M88.23,78.35L80.58,81l0.33,0.96l7.65-2.64C88.44,79,88.33,78.68,88.23,78.35"/>
		<path class="st1" d="M87.66,75.25l-8.06,0.91l0.11,1.01l8.05-0.91C87.72,75.93,87.68,75.59,87.66,75.25"/>
		<path class="st1" d="M89.53,81.36l-6.85,4.3l0.54,0.86l6.84-4.29C89.87,81.94,89.7,81.65,89.53,81.36"/>
		<path class="st1" d="M91.4,83.92l-5.73,5.68l0.71,0.72l5.73-5.68C91.86,84.41,91.62,84.17,91.4,83.92"/>
		<path class="st1" d="M96.7,87.58l-2.68,7.58l0.96,0.34l2.68-7.57C97.33,87.82,97.01,87.7,96.7,87.58"/>
		<path class="st1" d="M93.88,86.08L89.6,92.9l0.86,0.54l4.28-6.82C94.45,86.45,94.16,86.27,93.88,86.08"/>
		<path class="st2" d="M100.11,63.7l-1.22-5.46c-0.29,0.06-0.58,0.12-0.87,0.19l1.22,5.46L100.11,63.7z"/>
		<path class="st2" d="M103.85,84.58l1.24,5.56c0.29-0.06,0.58-0.12,0.87-0.19l-1.24-5.57L103.85,84.58z"/>
		<path class="st2" d="M91.54,76.01l-5.47,1.22c0.06,0.29,0.12,0.58,0.19,0.87l5.48-1.22L91.54,76.01z"/>
		<path class="st2" d="M97.87,64.36L95.5,59.3c-0.27,0.12-0.54,0.25-0.8,0.38l2.38,5.06L97.87,64.36z"/>
		<path class="st2" d="M106.08,83.93l2.43,5.17c0.27-0.12,0.54-0.25,0.8-0.38l-2.43-5.17L106.08,83.93z"/>
		<path class="st2" d="M92.19,78.25l-5.09,2.39c0.12,0.27,0.24,0.54,0.38,0.81l5.09-2.39L92.19,78.25z"/>
		<path class="st2" d="M95.77,65.54l-3.46-4.39c-0.24,0.18-0.47,0.36-0.7,0.55l3.46,4.39L95.77,65.54z"/>
		<path class="st2" d="M108.18,82.74l3.54,4.49c0.24-0.18,0.47-0.36,0.7-0.55l-3.54-4.49L108.18,82.74z"/>
		<path class="st2" d="M93.38,80.35l-4.43,3.49c0.18,0.24,0.36,0.47,0.55,0.7l4.43-3.49L93.38,80.35z"/>
		<path class="st2" d="M94.04,67.11l-4.33-3.52c-0.19,0.22-0.38,0.45-0.56,0.69l4.33,3.53L94.04,67.11z"/>
		<path class="st2" d="M109.91,81.18l4.43,3.61c0.19-0.22,0.38-0.45,0.56-0.69l-4.43-3.61L109.91,81.18z"/>
		<path class="st2" d="M94.94,82.08l-3.57,4.38c0.22,0.19,0.45,0.38,0.69,0.56l3.57-4.38L94.94,82.08z"/>
		<path class="st2" d="M109.01,66.21l3.57-4.38c-0.23-0.19-0.46-0.38-0.69-0.56l-3.57,4.38L109.01,66.21z"/>
		<path class="st2" d="M92.65,69.09l-5.02-2.45c-0.14,0.26-0.27,0.53-0.39,0.8l5.02,2.45L92.65,69.09z"/>
		<path class="st2" d="M96.93,83.47l-2.49,5.09c0.26,0.14,0.53,0.27,0.8,0.39l2.49-5.09L96.93,83.47z"/>
		<path class="st2" d="M107.03,64.82l2.47-5.07c-0.26-0.14-0.53-0.26-0.8-0.39l-2.47,5.06L107.03,64.82z"/>
		<path class="st2" d="M91.77,71.26l-5.44-1.29c-0.08,0.29-0.15,0.57-0.21,0.86l5.44,1.29L91.77,71.26z"/>
		<path class="st2" d="M99.09,84.35l-1.31,5.52c0.29,0.08,0.57,0.15,0.86,0.21l1.31-5.53L99.09,84.35z"/>
		<path class="st2" d="M104.86,63.94l1.3-5.47c-0.29-0.08-0.57-0.14-0.86-0.2l-1.3,5.47L104.86,63.94z"/>
		<path class="st2" d="M91.38,73.64l-5.6-0.03c-0.01,0.29-0.01,0.59-0.01,0.89l5.6,0.03L91.38,73.64z"/>
		<path class="st2" d="M101.47,84.74l-0.03,5.69c0.29,0.01,0.59,0.01,0.89,0.01l0.03-5.69L101.47,84.74z"/>
		<path class="st2" d="M102.48,63.55l0.03-5.61c-0.29-0.01-0.59-0.01-0.89,0l-0.03,5.61L102.48,63.55z"/>
	</g>
</g>
</svg>
