<?xml version="1.0" encoding="utf-8"?>
<!-- Generator: Adobe Illustrator 28.0.0, SVG Export Plug-In . SVG Version: 6.00 Build 0)  -->
<svg version="1.1" id="Layer_1" xmlns="http://www.w3.org/2000/svg" xmlns:xlink="http://www.w3.org/1999/xlink" x="0px" y="0px"
	 viewBox="0 0 198.43 198.43" style="enable-background:new 0 0 198.43 198.43;" xml:space="preserve">
<style type="text/css">
	
		.st0{clip-path:url(#SVGID_00000070810907988941585570000011448622976761455038_);fill-rule:evenodd;clip-rule:evenodd;fill:#CD051B;}
	
		.st1{clip-path:url(#SVGID_00000070810907988941585570000011448622976761455038_);fill-rule:evenodd;clip-rule:evenodd;fill:#1B1918;}
	
		.st2{clip-path:url(#SVGID_00000070810907988941585570000011448622976761455038_);fill:none;stroke:#1B1918;stroke-width:0.896;stroke-miterlimit:10;}
</style>
<g>
	<defs>
		<rect id="SVGID_1_" x="24.26" y="15.75" width="149.9" height="166.93"/>
	</defs>
	<clipPath id="SVGID_00000040535385688512113900000012677183980749589635_">
		<use xlink:href="#SVGID_1_"  style="overflow:visible;"/>
	</clipPath>
	
		<path style="clip-path:url(#SVGID_00000040535385688512113900000012677183980749589635_);fill-rule:evenodd;clip-rule:evenodd;fill:#CD051B;" d="
		M85.2,169.56c2.89-1.84,3.7-2.55,5.26-3.87c1.43-1.2,2.7-2.7,3.63-4.17c0.81-1.27,1.58-2.56,2.06-4.65
		c4.46-19.68-1.14-42.39-5.5-61.33c-3.95-17.14-8.96-34.19-4.67-50.99l0.06-0.21H33.01v131.82h53.33
		C85.9,174.39,84.1,170.26,85.2,169.56"/>
	
		<path style="clip-path:url(#SVGID_00000040535385688512113900000012677183980749589635_);fill-rule:evenodd;clip-rule:evenodd;fill:#CD051B;" d="
		M107.39,44.35l-0.22,0.37c-7.57,12.85-7.9,28.01-6.25,42.51c1.98,19.12,6.58,37.58,5.26,56.68c-0.66,10.88-5.63,22.04-9.92,32.25
		v0.01h69.15V44.35H107.39z"/>
	
		<path style="clip-path:url(#SVGID_00000040535385688512113900000012677183980749589635_);fill-rule:evenodd;clip-rule:evenodd;fill:#1B1918;" d="
		M49.74,34.99c-0.29,1.29-0.57,2.66-0.84,4.11c-0.46,0-1.29,0.11-2.5,0.33c-1.54,0.28-2.68,0.42-3.42,0.42
		c-1.82,0-3.43-0.36-4.81-1.09c-1.38-0.72-2.47-1.77-3.24-3.11c-0.77-1.36-1.15-2.85-1.15-4.52c0-1.63,0.4-3.13,1.23-4.51
		c0.81-1.38,1.93-2.44,3.37-3.21c1.43-0.77,3.04-1.15,4.83-1.15c0.76,0,1.77,0.08,3.03,0.24c0.99,0.13,1.7,0.19,2.16,0.19
		c0.1,1.13,0.28,2.49,0.55,4.11c0,0.12-0.13,0.19-0.38,0.19c-0.16,0-0.25-0.07-0.28-0.19c-0.3-1.09-0.92-1.99-1.87-2.7
		c-0.96-0.71-2.06-1.06-3.3-1.06c-1.9,0-3.47,0.78-4.75,2.35c-1.28,1.57-1.92,3.48-1.92,5.75c0,2.21,0.63,4.08,1.9,5.62
		c1.28,1.55,2.82,2.32,4.65,2.32c2.87,0,4.9-1.36,6.09-4.08c0.06-0.13,0.17-0.2,0.33-0.2C49.63,34.79,49.74,34.86,49.74,34.99"/>
	
		<path style="clip-path:url(#SVGID_00000040535385688512113900000012677183980749589635_);fill-rule:evenodd;clip-rule:evenodd;fill:#1B1918;" d="
		M64.83,36.88c-1.13,1.45-2.64,2.19-4.52,2.19c-1.89,0-3.39-0.74-4.51-2.19c-1.13-1.47-1.69-3.38-1.69-5.75
		c0-2.38,0.56-4.32,1.71-5.83c1.13-1.51,2.63-2.26,4.5-2.26c1.87,0,3.37,0.75,4.52,2.26c1.13,1.51,1.71,3.45,1.71,5.83
		C66.54,33.49,65.98,35.41,64.83,36.88 M66.73,24.77c-1.65-1.67-3.78-2.51-6.42-2.51c-2.61,0-4.75,0.84-6.39,2.51
		c-1.64,1.67-2.48,3.79-2.48,6.36c0,2.56,0.82,4.65,2.45,6.28c1.64,1.62,3.78,2.43,6.42,2.43c2.65,0,4.79-0.81,6.42-2.43
		c1.64-1.63,2.46-3.72,2.46-6.28C69.2,28.56,68.38,26.45,66.73,24.77"/>
	
		<path style="clip-path:url(#SVGID_00000040535385688512113900000012677183980749589635_);fill-rule:evenodd;clip-rule:evenodd;fill:#1B1918;" d="
		M85.08,35c-0.38,1.42-0.68,2.9-0.9,4.44c-3.08-0.09-5.26-0.14-6.55-0.14c-1.28,0-3.44,0.05-6.47,0.14c-0.14,0-0.2-0.12-0.2-0.34
		c0-0.2,0.07-0.31,0.2-0.33c0.96-0.11,1.63-0.3,1.98-0.54c0.35-0.25,0.52-0.75,0.52-1.51V25.35c0-0.56-0.07-0.96-0.21-1.19
		c-0.14-0.22-0.39-0.41-0.74-0.54c-0.35-0.14-0.88-0.24-1.55-0.32c-0.14,0-0.2-0.12-0.2-0.34c0-0.22,0.07-0.33,0.2-0.33
		c0.53,0,1.18,0.02,1.92,0.06c0.72,0.04,1.32,0.06,1.81,0.06c0.49,0,1.09-0.02,1.8-0.06c0.73-0.05,1.37-0.06,1.91-0.06
		c0.13,0,0.19,0.11,0.19,0.33c0,0.22-0.06,0.34-0.19,0.34c-0.67,0.08-1.19,0.18-1.54,0.32c-0.35,0.13-0.6,0.32-0.73,0.53
		c-0.14,0.23-0.21,0.63-0.21,1.2v11.76c0,0.94,0.47,1.42,1.39,1.42h2.38c0.99,0,1.81-0.26,2.5-0.79c0.68-0.52,1.35-1.51,2.02-2.96
		c0.04-0.07,0.1-0.1,0.23-0.1c0.11,0,0.21,0.03,0.3,0.1C85.04,34.85,85.08,34.92,85.08,35"/>
	
		<path style="clip-path:url(#SVGID_00000040535385688512113900000012677183980749589635_);fill-rule:evenodd;clip-rule:evenodd;fill:#1B1918;" d="
		M94.39,39.1c0,0.23-0.07,0.34-0.19,0.34c-0.54,0-1.18-0.02-1.92-0.07c-0.7-0.05-1.3-0.07-1.79-0.07c-0.49,0-1.08,0.02-1.78,0.07
		c-0.75,0.05-1.4,0.07-1.94,0.07c-0.13,0-0.19-0.12-0.19-0.34c0-0.2,0.06-0.31,0.19-0.33c0.96-0.11,1.63-0.3,1.98-0.54
		c0.36-0.25,0.52-0.75,0.52-1.51V25.35c0-0.56-0.06-0.96-0.21-1.19c-0.14-0.22-0.39-0.41-0.75-0.54c-0.34-0.14-0.86-0.24-1.54-0.32
		c-0.13,0-0.19-0.12-0.19-0.34c0-0.22,0.06-0.33,0.19-0.33c0.54,0,1.19,0.02,1.94,0.06c0.7,0.04,1.29,0.06,1.78,0.06
		c0.49,0,1.09-0.02,1.79-0.06c0.75-0.05,1.38-0.06,1.92-0.06c0.12,0,0.19,0.11,0.19,0.33c0,0.22-0.07,0.34-0.19,0.34
		c-0.68,0.08-1.19,0.18-1.55,0.32c-0.34,0.13-0.59,0.32-0.73,0.53c-0.14,0.23-0.21,0.63-0.21,1.2v11.38c0,0.56,0.07,0.95,0.21,1.18
		c0.13,0.23,0.38,0.41,0.72,0.55c0.36,0.13,0.87,0.24,1.54,0.32C94.31,38.79,94.39,38.9,94.39,39.1"/>
	
		<path style="clip-path:url(#SVGID_00000040535385688512113900000012677183980749589635_);fill-rule:evenodd;clip-rule:evenodd;fill:#1B1918;" d="
		M116.45,22.97c0,0.2-0.07,0.31-0.2,0.34c-1,0.11-1.69,0.3-2.06,0.55c-0.37,0.26-0.57,0.76-0.58,1.49l-0.28,14.26
		c0,0.17-0.09,0.24-0.29,0.24c-0.09,0-0.22-0.06-0.38-0.19l-12.42-14.1l-0.16,11.18c-0.01,0.07-0.02,0.13-0.02,0.19
		c0,0.61,0.2,1.05,0.58,1.3c0.39,0.25,1.09,0.44,2.09,0.56c0.13,0.02,0.19,0.13,0.19,0.33c0,0.23-0.06,0.34-0.19,0.34
		c-0.42,0-0.99-0.02-1.71-0.07c-0.69-0.05-1.22-0.07-1.58-0.07c-0.4,0-0.96,0.02-1.63,0.07c-0.66,0.05-1.17,0.07-1.53,0.07
		c-0.13,0-0.19-0.12-0.19-0.34c0-0.2,0.07-0.31,0.22-0.33c0.99-0.12,1.67-0.3,2.04-0.56c0.37-0.26,0.56-0.75,0.59-1.49l0.42-11.38
		v-0.1c0-0.65-0.18-1.1-0.56-1.37c-0.38-0.25-1.07-0.45-2.1-0.57c-0.12,0-0.17-0.12-0.17-0.34c0-0.22,0.07-0.33,0.2-0.33
		c0.28,0,0.68,0.02,1.18,0.06c0.45,0.04,0.78,0.06,1.01,0.06c0.28,0,0.62-0.02,1-0.06c0.4-0.05,0.74-0.06,1.03-0.06l11.59,13.02
		V25.35c0-0.69-0.19-1.17-0.57-1.45c-0.39-0.28-1.11-0.47-2.16-0.59c-0.14-0.02-0.19-0.13-0.19-0.34c0-0.23,0.06-0.33,0.19-0.33
		c0.43,0,1,0.02,1.73,0.06c0.68,0.04,1.19,0.06,1.57,0.06c0.4,0,0.94-0.02,1.63-0.06c0.65-0.05,1.17-0.06,1.53-0.06
		C116.38,22.64,116.45,22.74,116.45,22.97"/>
	
		<path style="clip-path:url(#SVGID_00000040535385688512113900000012677183980749589635_);fill-rule:evenodd;clip-rule:evenodd;fill:#1B1918;" d="
		M131.93,35.46c-0.65,1.39-1.18,2.72-1.59,3.99c-3.02-0.09-5.19-0.14-6.47-0.14c-1.27,0-3.41,0.05-6.45,0.14
		c-0.13,0-0.2-0.12-0.2-0.34c0-0.2,0.07-0.31,0.2-0.33c0.66-0.07,1.17-0.19,1.53-0.32c0.35-0.13,0.6-0.31,0.74-0.54
		c0.14-0.23,0.21-0.62,0.21-1.19V25.35c0-0.55-0.07-0.94-0.21-1.17c-0.12-0.24-0.37-0.41-0.72-0.55c-0.35-0.14-0.87-0.25-1.55-0.32
		c-0.13,0-0.2-0.12-0.2-0.34c0-0.22,0.07-0.33,0.2-0.33c2.02,0.08,4.09,0.13,6.21,0.13c2.12,0,4.21-0.05,6.22-0.13
		c0.18,1.24,0.46,2.47,0.81,3.68c0,0.16-0.14,0.24-0.42,0.24c-0.13,0-0.22-0.05-0.25-0.16c-0.59-1.9-1.86-2.85-3.8-2.85h-2.43
		c-0.93,0-1.4,0.49-1.4,1.45v5.39h3.04c0.81,0,1.35-0.19,1.64-0.56c0.28-0.37,0.49-1.03,0.59-1.98c0-0.13,0.12-0.19,0.34-0.19
		c0.22,0,0.33,0.06,0.33,0.19c0,0.41-0.02,0.92-0.07,1.53c-0.04,0.59-0.06,1.07-0.06,1.44c0,0.38,0.03,0.86,0.06,1.46
		c0.05,0.63,0.07,1.15,0.07,1.55c0,0.13-0.11,0.19-0.33,0.19c-0.22,0-0.34-0.06-0.34-0.19c-0.12-0.98-0.33-1.68-0.63-2.07
		c-0.29-0.4-0.83-0.59-1.6-0.59h-3.04v5.95c0,0.94,0.47,1.42,1.4,1.42h2.63c0.96,0,1.91-0.31,2.84-0.93
		c0.95-0.64,1.63-1.41,2.08-2.35c0.03-0.07,0.1-0.11,0.2-0.11c0.11,0,0.22,0.02,0.31,0.09C131.88,35.29,131.93,35.36,131.93,35.46"
		/>
	
		<path style="clip-path:url(#SVGID_00000040535385688512113900000012677183980749589635_);fill-rule:evenodd;clip-rule:evenodd;fill:#1B1918;" d="
		M138.13,31.94l2.28-6.13l2.1,6.13H138.13z M149.58,38.77c-0.8-0.09-1.44-0.32-1.91-0.7c-0.48-0.37-0.86-0.93-1.14-1.72l-4.98-13.91
		c-0.04-0.12-0.16-0.19-0.36-0.19c-0.17,0-0.29,0.07-0.34,0.2l-5.63,13.9c-0.41,0.94-0.82,1.56-1.21,1.87
		c-0.38,0.31-0.92,0.49-1.58,0.55c-0.19,0.02-0.28,0.14-0.28,0.37c0,0.2,0.06,0.3,0.19,0.3c0.39,0,0.85-0.02,1.39-0.07
		c0.52-0.05,0.95-0.07,1.29-0.07c0.44,0,0.93,0.02,1.48,0.07c0.59,0.05,1.11,0.07,1.6,0.07c0.13,0,0.2-0.12,0.2-0.33
		c0-0.22-0.06-0.34-0.15-0.34c-1.3-0.06-1.95-0.45-1.95-1.16c0-0.27,0.08-0.66,0.26-1.16l1.37-3.74h4.95l1.37,4.05
		c0.16,0.46,0.24,0.8,0.24,1c0,0.33-0.16,0.58-0.47,0.74c-0.31,0.15-0.82,0.24-1.54,0.28c-0.1,0-0.14,0.12-0.14,0.34
		c0,0.22,0.06,0.33,0.2,0.33c0.53,0,1.18-0.02,1.94-0.07c0.73-0.05,1.33-0.07,1.83-0.07c0.42,0,0.95,0.02,1.55,0.07
		c0.7,0.05,1.32,0.07,1.88,0.07c0.12,0,0.19-0.12,0.19-0.34C149.83,38.9,149.74,38.79,149.58,38.77"/>
	
		<path style="clip-path:url(#SVGID_00000040535385688512113900000012677183980749589635_);fill-rule:evenodd;clip-rule:evenodd;fill:#1B1918;" d="
		M164.65,35c-0.37,1.42-0.67,2.9-0.89,4.44c-3.08-0.09-5.26-0.14-6.55-0.14c-1.28,0-3.45,0.05-6.48,0.14c-0.12,0-0.2-0.12-0.2-0.34
		c0-0.2,0.07-0.31,0.2-0.33c0.97-0.11,1.63-0.3,1.98-0.54c0.36-0.25,0.53-0.75,0.53-1.51V25.35c0-0.56-0.06-0.96-0.21-1.19
		c-0.14-0.22-0.39-0.41-0.74-0.54c-0.36-0.14-0.87-0.24-1.56-0.32c-0.12,0-0.2-0.12-0.2-0.34c0-0.22,0.07-0.33,0.2-0.33
		c0.54,0,1.18,0.02,1.93,0.06c0.72,0.04,1.32,0.06,1.8,0.06c0.49,0,1.09-0.02,1.79-0.06c0.74-0.05,1.38-0.06,1.92-0.06
		c0.12,0,0.19,0.11,0.19,0.33c0,0.22-0.06,0.34-0.19,0.34c-0.68,0.08-1.19,0.18-1.54,0.32c-0.35,0.13-0.6,0.32-0.74,0.53
		c-0.13,0.23-0.2,0.63-0.2,1.2v11.76c0,0.94,0.47,1.42,1.39,1.42h2.38c0.99,0,1.82-0.26,2.5-0.79c0.68-0.52,1.35-1.51,2.02-2.96
		c0.03-0.07,0.11-0.1,0.23-0.1c0.1,0,0.21,0.03,0.3,0.1C164.61,34.85,164.65,34.92,164.65,35"/>
	
		<rect x="24.42" y="15.9" style="clip-path:url(#SVGID_00000040535385688512113900000012677183980749589635_);fill:none;stroke:#1B1918;stroke-width:0.896;stroke-miterlimit:10;" width="149.58" height="166.62"/>
</g>
</svg>
