<?xml version="1.0" encoding="utf-8"?>
<!-- Generator: Adobe Illustrator 28.0.0, SVG Export Plug-In . SVG Version: 6.00 Build 0)  -->
<svg version="1.1" id="Layer_1" xmlns="http://www.w3.org/2000/svg" xmlns:xlink="http://www.w3.org/1999/xlink" x="0px" y="0px"
	 viewBox="0 0 198.43 198.43" style="enable-background:new 0 0 198.43 198.43;" xml:space="preserve">
<style type="text/css">
	.st0{fill:#478FCD;}
	
		.st1{clip-path:url(#SVGID_00000116917638556868315400000005912979934883607942_);fill-rule:evenodd;clip-rule:evenodd;fill:#FFFFFF;}
	
		.st2{clip-path:url(#SVGID_00000116917638556868315400000005912979934883607942_);fill-rule:evenodd;clip-rule:evenodd;fill:#ED2024;}
</style>
<rect x="14.17" y="84.03" class="st0" width="170.08" height="30.37"/>
<g>
	<defs>
		<rect id="SVGID_1_" x="14.17" y="84.03" width="170.08" height="30.37"/>
	</defs>
	<clipPath id="SVGID_00000102545069500616280310000015780016385986952120_">
		<use xlink:href="#SVGID_1_"  style="overflow:visible;"/>
	</clipPath>
	
		<path style="clip-path:url(#SVGID_00000102545069500616280310000015780016385986952120_);fill-rule:evenodd;clip-rule:evenodd;fill:#FFFFFF;" d="
		M100.47,96.12l3.11,0.02l1.13-3.52c0.04-0.11,0.04-0.24,0-0.37c-0.04-0.13-0.11-0.22-0.22-0.3c-0.09-0.07-0.22-0.11-0.35-0.11h-1.5
		c-0.24,0-0.44,0.07-0.63,0.2c-0.19,0.15-0.31,0.31-0.39,0.54L100.47,96.12z M158.14,91.84h-3.48l1.09-3.31h11.56l-1.07,3.31h-3.5
		l-4.65,14.22h-4.56L158.14,91.84z M127.73,88.53h8.33c0.65,0,1.22,0.19,1.76,0.57c0.54,0.39,0.89,0.89,1.09,1.52
		c0.2,0.63,0.2,1.22,0,1.85l-2.91,8.91c-0.46,1.43-1.28,2.52-2.48,3.39c-1.2,0.89-2.5,1.3-4,1.3h-7.5L127.73,88.53z M112.99,88.53
		h8.22c0.67,0,1.24,0.19,1.78,0.57c0.54,0.39,0.89,0.87,1.09,1.5c0.2,0.63,0.2,1.24,0,1.87l-4.44,13.59h-4.78l4.39-13.43
		c0.04-0.13,0.04-0.24,0-0.37c-0.04-0.13-0.11-0.22-0.22-0.3c-0.11-0.09-0.22-0.13-0.35-0.13h-2.28l-4.65,14.22h-4.48L112.99,88.53z
		 M103.23,88.53h3.33c0.67,0,1.24,0.19,1.78,0.57c0.54,0.39,0.89,0.87,1.09,1.5c0.2,0.63,0.2,1.24,0,1.87l-4.46,13.61h-4.65
		l2.19-6.69H99.4l-2.17,6.69h-4.65l4.2-12.85c0.46-1.43,1.26-2.54,2.46-3.41C100.45,88.95,101.75,88.53,103.23,88.53 M127.64,102.77
		h2.35c0.24,0,0.44-0.06,0.63-0.2c0.19-0.13,0.31-0.3,0.39-0.52l3.07-9.41c0.04-0.13,0.04-0.24,0-0.37
		c-0.04-0.13-0.11-0.22-0.22-0.31c-0.11-0.07-0.22-0.11-0.35-0.11h-2.3L127.64,102.77z M75.12,106.06h-4.56l5.72-17.54h15.59
		c0.65,0,1.22,0.19,1.76,0.57c0.52,0.39,0.87,0.85,1.09,1.48c0.2,0.63,0.2,1.22,0.02,1.85l-4.44,13.65h-4.67l4.65-14.24h-3.07
		l-4.57,14.22h-4.46l4.59-14.22h-3L75.12,106.06z M51.86,88.53h7.48l-1.09,3.31h-6.93c-0.24,0.02-0.46,0.07-0.65,0.22
		c-0.2,0.15-0.33,0.33-0.43,0.56l-3.07,9.43c-0.04,0.13-0.04,0.26,0,0.37c0.04,0.13,0.11,0.22,0.22,0.31
		c0.11,0.07,0.22,0.11,0.35,0.11h6.89l-1.04,3.22h-8.35c-0.67,0-1.24-0.19-1.78-0.57s-0.89-0.89-1.07-1.52
		c-0.2-0.63-0.2-1.24,0-1.87l3.02-8.93c0.48-1.41,1.28-2.5,2.48-3.37C49.1,88.95,50.38,88.53,51.86,88.53 M67.53,91.82l-1.5,0.02
		c-0.24,0-0.43,0.06-0.63,0.2c-0.19,0.13-0.3,0.3-0.37,0.52l-3.09,9.46c-0.04,0.13-0.04,0.24,0,0.37c0.06,0.13,0.11,0.22,0.22,0.3
		c0.11,0.07,0.22,0.11,0.35,0.11h1.52c0.24,0,0.44-0.06,0.63-0.2c0.19-0.13,0.31-0.3,0.39-0.54l3.06-9.46
		c0.04-0.13,0.04-0.24,0-0.37c-0.04-0.13-0.11-0.22-0.22-0.3C67.77,91.86,67.66,91.82,67.53,91.82 M66.62,88.55h3.33
		c0.65,0,1.22,0.19,1.76,0.57c0.54,0.39,0.89,0.87,1.09,1.5c0.2,0.63,0.2,1.24,0,1.87l-2.91,8.89c-0.46,1.43-1.26,2.52-2.48,3.39
		c-1.2,0.89-2.5,1.3-4,1.3H60.1c-0.67,0-1.24-0.19-1.78-0.57c-0.54-0.39-0.89-0.87-1.09-1.5s-0.2-1.22,0.02-1.85l2.91-8.91
		c0.46-1.41,1.26-2.5,2.46-3.39C63.84,88.97,65.12,88.55,66.62,88.55 M173.84,91.82l-1.5,0.02c-0.24,0-0.43,0.06-0.61,0.2
		c-0.2,0.13-0.31,0.3-0.39,0.52l-3.09,9.46c-0.04,0.13-0.04,0.24,0,0.37c0.06,0.13,0.11,0.22,0.22,0.3
		c0.11,0.07,0.22,0.11,0.35,0.11h1.52c0.24,0,0.44-0.06,0.63-0.2c0.19-0.13,0.31-0.3,0.39-0.54l3.06-9.46
		c0.04-0.13,0.04-0.24,0-0.37c-0.04-0.13-0.11-0.22-0.22-0.3C174.08,91.86,173.97,91.82,173.84,91.82 M172.94,88.55h3.33
		c0.65,0,1.22,0.19,1.76,0.57c0.54,0.39,0.89,0.87,1.09,1.5c0.2,0.63,0.2,1.24,0,1.87l-2.91,8.89c-0.46,1.43-1.26,2.52-2.48,3.39
		c-1.2,0.89-2.5,1.3-4,1.3h-3.32c-0.67,0-1.24-0.19-1.78-0.57c-0.52-0.39-0.87-0.87-1.07-1.5c-0.2-0.63-0.2-1.22,0-1.85l2.91-8.91
		c0.46-1.41,1.26-2.5,2.48-3.39C170.16,88.97,171.46,88.55,172.94,88.55 M144.62,96.12l3.11,0.02l1.13-3.52
		c0.04-0.11,0.04-0.24,0-0.37c-0.04-0.13-0.11-0.22-0.22-0.3c-0.11-0.07-0.22-0.11-0.35-0.11h-1.5c-0.24,0-0.44,0.07-0.63,0.2
		c-0.19,0.15-0.31,0.31-0.39,0.54L144.62,96.12z M147.38,88.53h3.33c0.67,0,1.24,0.19,1.78,0.57c0.54,0.39,0.89,0.87,1.09,1.5
		c0.2,0.63,0.19,1.24-0.02,1.87l-4.44,13.61h-4.65l2.19-6.69h-3.11l-2.19,6.69h-4.65l4.2-12.85c0.46-1.43,1.26-2.54,2.46-3.41
		C144.6,88.95,145.9,88.53,147.38,88.53"/>
	
		<rect x="19.1" y="108.31" style="clip-path:url(#SVGID_00000102545069500616280310000015780016385986952120_);fill-rule:evenodd;clip-rule:evenodd;fill:#ED2024;" width="160.23" height="1.61"/>
	
		<polygon style="clip-path:url(#SVGID_00000102545069500616280310000015780016385986952120_);fill-rule:evenodd;clip-rule:evenodd;fill:#ED2024;" points="
		43.23,88.53 19.1,88.53 19.1,106.06 37.51,106.06 	"/>
	
		<path style="clip-path:url(#SVGID_00000102545069500616280310000015780016385986952120_);fill-rule:evenodd;clip-rule:evenodd;fill:#FFFFFF;" d="
		M28.43,90.84c0-0.02,0.04-0.02,0.07-0.04c1.24-0.41,3.48-0.72,3.83-0.72h0.06c0.02-0.02,0.04-0.02,0.04-0.04c0,0-0.02,0-0.04-0.02
		h-0.07c-0.81,0.02-1.63,0.09-2.39,0.22c-3.06,0.44-6.28,2.09-7.98,4.68c-0.91,1.37-1.28,3.11-1.04,4.81
		c0.22,1.54,1.24,3.07,2.63,3.85c0.89,0.52,1.98,0.78,3.02,0.69h0.07c0.02,0,0.04-0.02,0.04-0.02s0-0.02-0.02-0.04
		c-0.02,0-0.04-0.02-0.06-0.02c-0.52-0.26-1.09-0.63-1.54-0.98c-0.65-0.52-1.15-1.13-1.57-1.93c-0.74-1.41-0.65-3.26,0.04-4.76
		c0.63-1.37,1.83-2.5,3.11-3.33c0.54-0.35,1.09-0.63,1.69-0.85c1.41-0.56,3.59-0.96,4.44-0.96h0.07c0.02,0,0.02-0.02,0.02-0.02
		s-0.02-0.02-0.04-0.02h-0.07c-1.3,0.02-2.59,0.22-3.89,0.46c-0.02,0-0.04,0.02-0.06,0.02c-0.02,0-0.04-0.02-0.04-0.02
		c0.02,0,0.02-0.02,0.04-0.02c0.04-0.02,0.06-0.02,0.09-0.04c1.31-0.41,2.63-0.63,3.93-0.7h0.06c0.02-0.02,0.04-0.04,0.04-0.04
		c0-0.02-0.02-0.02-0.04-0.02c-0.02-0.02-0.04,0-0.07,0c-1.28-0.09-2.94,0.24-4.39,0.59h-0.07c-0.02,0-0.02,0-0.02-0.02
		c0,0,0-0.02,0.02-0.02c0.02-0.02,0.04-0.02,0.06-0.04c1.11-0.44,2.85-0.63,4.3-0.78c0.02,0,0.06,0,0.07-0.02
		c0.02,0,0.02-0.02,0.02-0.02c0-0.02-0.02-0.02-0.04-0.02h-0.07c-1.43-0.02-2.85,0.15-4.3,0.52c-0.02,0.02-0.04,0.02-0.07,0.02
		c-0.02,0.02-0.04,0.02-0.06,0.02c-0.02,0.02-0.02,0.02-0.02,0l0.02-0.02c0.02,0,0.04-0.02,0.06-0.04c0.67-0.31,2.74-0.7,4.15-0.78
		c0.04,0,0.06,0,0.09-0.02c0.02,0,0.04-0.02,0.06-0.02v-0.04h-0.06h-0.07c-1.33,0-2.65,0.17-3.94,0.5h-0.07
		C28.43,90.86,28.43,90.84,28.43,90.84 M34.03,90.64c0,0.02,0,0.04,0.04,0.07l0.07,0.06c0.13,0.09,0.24,0.19,0.35,0.3
		c0.85,0.81,1.43,1.98,1.54,3.2c0.11,1.54-0.83,3.02-1.93,4.19c-0.78,0.83-1.74,1.52-2.8,2.06c-0.48,0.24-1.06,0.48-1.59,0.61
		c-0.17,0.04-0.11,0.09,0.02,0.07c0.07,0,0.2-0.04,0.3-0.06c0.76-0.2,1.5-0.48,2.22-0.85c0.46-0.24,0.96-0.48,1.39-0.78
		c0.02-0.02,0.04-0.04,0.06-0.04s0.04,0.02,0.04,0.04c-0.02,0.02-0.04,0.04-0.06,0.04c-0.24,0.19-0.5,0.37-0.76,0.52
		c-0.52,0.33-1.04,0.59-1.57,0.81c-0.46,0.2-0.94,0.35-1.43,0.5c-0.13,0.02-0.11,0.09,0.06,0.07c0.61-0.15,1.2-0.35,1.8-0.57
		c0.44-0.17,0.91-0.39,1.43-0.67c0.33-0.19,0.63-0.37,0.94-0.57l0.06-0.02c0.02-0.02,0.06,0,0.04,0.02
		c-0.98,1.09-3.76,1.93-3.94,1.96c-0.15,0.06-0.11,0.13,0.04,0.09c0.74-0.17,1.5-0.43,2.28-0.72c0.33-0.13,0.69-0.31,1.02-0.48
		c0.3-0.17,0.59-0.35,0.85-0.52l0.06-0.04c0.02,0,0.04,0.04,0.02,0.06c-0.02,0.02-0.04,0.04-0.06,0.06c-0.19,0.17-0.33,0.3-0.5,0.41
		c-0.41,0.26-0.87,0.5-1.31,0.72c-0.69,0.33-1.33,0.56-2.02,0.72c-0.13,0.04-0.07,0.13,0.07,0.09c0.78-0.19,1.59-0.41,2.33-0.76
		c0.37-0.17,0.74-0.35,1.09-0.59c0.13-0.11,0.31-0.22,0.46-0.33c0.07-0.04,0.09,0,0.06,0.04c-1.02,1.02-2.41,1.54-3.78,1.89
		c-0.19,0.04-0.09,0.11,0.06,0.09c0.17-0.02,0.26-0.06,0.44-0.09c1.72-0.41,3.48-1.31,4.59-2.7c1-1.26,1.67-2.91,1.65-4.5
		c0-1.46-1.02-3-2.28-3.76c-0.37-0.22-0.81-0.43-1.24-0.59c-0.02-0.02-0.04-0.02-0.06-0.04H34.03z M28.69,102.45
		c-1.43-0.69-2.41-2.24-2.37-4.09c0.06-2.5,2.5-5.2,5.41-5.22c1.04,0,2.13,0.59,2.78,1.41c0.11,0.15,0.22,0.33,0.33,0.52
		c0.04,0.04,0.09,0.17,0.11-0.11c0.04-1.02-0.8-2.63-2.83-2.89c-2.06-0.28-4.41,0.56-5.87,2.04c-1.35,1.33-2.07,3.22-1.43,5.33
		c0.56,1.76,2.2,2.89,3.83,3.09C28.93,102.56,28.71,102.45,28.69,102.45 M27.25,104.14c0.19,0.09,0.37,0.17,0.56,0.2
		c1.35,0.33,2.78,0.26,4.15-0.02c1.28-0.24,4.06-1.31,4.06-1.31l0.28-1.15l-4.89,1.2c-1.7,0.11-3.56-0.13-4.98-1.04
		c-0.22-0.15-0.39-0.28-0.57-0.43c-0.93-0.83-1.43-2.15-1.56-3.39c-0.04-0.19-0.09-0.11-0.09,0c-0.04,0.59,0.17,1.61,0.54,2.3
		c0.13,0.24,0.26,0.44,0.43,0.67c0.81,1.02,2.09,1.67,3.37,1.98c0.15,0.04,0.65,0.15,0.8,0.19c0.11,0.02,0.06,0.04,0.04,0.04
		c-0.17-0.02-0.7-0.13-0.85-0.15c-0.96-0.15-1.93-0.59-2.69-1.13c-0.41-0.3-0.8-0.83-0.81-0.87c-0.06-0.06-0.09-0.04-0.07,0.02
		c0.11,0.15,0.3,0.67,1.24,1.28c0.44,0.28,0.94,0.52,1.43,0.69c0.56,0.19,1.13,0.35,1.69,0.44c0.07,0.02,0.06,0.06,0.02,0.06
		c-1.19-0.06-3.17-0.78-3.61-1.18c-0.07-0.07-0.17-0.07-0.06,0.04c0.93,0.87,2.28,1.28,3.54,1.48c0.13,0.04,0.07,0.07-0.02,0.06
		h-0.02c-1.35-0.06-2.65-0.74-2.67-0.74c-0.11-0.06-0.15-0.02-0.02,0.07c0,0,0.83,0.63,2.56,0.89c0.09,0.02,0.07,0.04-0.02,0.04
		c-0.57,0-1.39-0.15-1.7-0.28C27.17,104.03,27.21,104.12,27.25,104.14"/>
</g>
</svg>
