<?xml version="1.0" encoding="utf-8"?>
<!-- Generator: Adobe Illustrator 28.0.0, SVG Export Plug-In . SVG Version: 6.00 Build 0)  -->
<svg version="1.1" id="Layer_1" xmlns="http://www.w3.org/2000/svg" xmlns:xlink="http://www.w3.org/1999/xlink" x="0px" y="0px"
	 viewBox="0 0 198.43 198.43" style="enable-background:new 0 0 198.43 198.43;" xml:space="preserve">
<style type="text/css">
	.st0{fill-rule:evenodd;clip-rule:evenodd;fill:#231F20;}
	.st1{fill-rule:evenodd;clip-rule:evenodd;fill:#ED1D24;}
	.st2{fill-rule:evenodd;clip-rule:evenodd;fill:#FFFFFF;}
</style>
<g>
	<g>
		<path class="st0" d="M49.68,102.1h8.38c1.06,0,1.91-0.86,1.92-1.92v-1.93c0-1.06-0.86-1.91-1.92-1.92h-8.38
			c-1.06,0-1.91,0.86-1.92,1.92v1.93C47.76,101.23,48.63,102.09,49.68,102.1 M69.64,96.64l9.22,9.29h5.82V92.5h-4.29l0.01,9.28
			l-8.67-9.28l-6.37-0.01l0.01,13.44h4.27V96.64z M42.88,96.33v-0.11v-3.72H30.09c-3.2,0-5.83,2.62-5.83,5.83v1.78
			c0,3.21,2.63,5.83,5.84,5.84l12.78-0.01v-3.62v-0.21H30.45c-1.06,0-1.91-0.86-1.92-1.91v-1.93c0-0.52,0.19-0.98,0.56-1.35
			c0.37-0.37,0.83-0.55,1.36-0.56L42.88,96.33z M49.42,105.93l8.91,0.01c1.6,0,2.99-0.57,4.13-1.71c1.13-1.14,1.7-2.52,1.7-4.13
			v-1.77c0-3.21-2.62-5.83-5.82-5.83l-8.91-0.01c-1.6,0-2.99,0.57-4.13,1.71c-1.13,1.13-1.7,2.52-1.7,4.12v1.78
			c0,1.6,0.57,2.99,1.7,4.12C46.43,105.35,47.81,105.93,49.42,105.93"/>
		<path class="st0" d="M159.69,102.09h8.38c1.06,0,1.91-0.86,1.92-1.92v-1.93c0-1.06-0.86-1.91-1.92-1.92h-8.38
			c-1.06,0-1.91,0.86-1.92,1.92v1.93C157.77,101.23,158.63,102.09,159.69,102.09 M129.14,92.49v7.68c0,1.05-0.86,1.91-1.92,1.92
			h-8.38c-1.05,0-1.91-0.86-1.92-1.92v-7.69h-4.19v7.61c0,1.6,0.57,2.99,1.71,4.12c1.14,1.14,2.52,1.71,4.12,1.71l8.91,0.01
			c1.6,0,2.99-0.57,4.12-1.71c1.14-1.14,1.71-2.52,1.71-4.12v-7.62L129.14,92.49z M134.38,96.32h6.83v9.6h4.67v-9.6h6.79v-3.84
			h-18.29V96.32z M159.42,105.92l8.91,0.01c1.6,0,2.99-0.57,4.12-1.71c1.14-1.13,1.71-2.52,1.71-4.12v-1.78
			c0-1.6-0.57-2.99-1.7-4.13c-1.14-1.14-2.52-1.7-4.13-1.71h-8.91c-1.6,0-2.99,0.57-4.13,1.71c-1.14,1.13-1.7,2.52-1.71,4.13v1.77
			c0,1.6,0.57,2.99,1.71,4.12C156.43,105.35,157.81,105.92,159.42,105.92"/>
		<path class="st1" d="M98.71,86.33c-7.09,0-12.89,5.8-12.89,12.89c0,7.08,5.8,12.88,12.89,12.88c7.08,0,12.88-5.8,12.88-12.88
			C111.59,92.13,105.79,86.33,98.71,86.33"/>
		<path class="st2" d="M94.14,103.29l-1.61,2.97h-3.88l10.06-18.57l10.06,18.57l-3.89-0.01l-1.61-2.96H94.14z M95.66,100.49h6.09
			l-3.04-5.63L95.66,100.49z"/>
	</g>
</g>
</svg>
