<?xml version="1.0" encoding="utf-8"?>
<!-- Generator: Adobe Illustrator 28.0.0, SVG Export Plug-In . SVG Version: 6.00 Build 0)  -->
<svg version="1.1" id="Layer_1" xmlns="http://www.w3.org/2000/svg" xmlns:xlink="http://www.w3.org/1999/xlink" x="0px" y="0px"
	 viewBox="0 0 198.43 198.43" style="enable-background:new 0 0 198.43 198.43;" xml:space="preserve">
<style type="text/css">
	.st0{fill:#1C449C;}
	.st1{fill:none;stroke:#1C449C;stroke-width:0.04;stroke-miterlimit:2.414;}
	.st2{fill-rule:evenodd;clip-rule:evenodd;fill:#FFFFFF;}
	.st3{fill-rule:evenodd;clip-rule:evenodd;fill:#E6E7E8;}
	.st4{fill:none;stroke:#E6E7E8;stroke-width:0.04;stroke-miterlimit:2.414;}
</style>
<g>
	<rect x="14.17" y="91.23" class="st0" width="170.08" height="15.97"/>
	<rect x="14.17" y="91.23" class="st1" width="170.08" height="15.97"/>
	<g>
		<path class="st2" d="M112.11,104.9v-3.79c0.25-0.05,0.45-0.07,0.58-0.07c0.62,0,1.02,0.38,1.02,0.91c0,0.59-0.44,0.93-1.37,1.14
			l2.16,2.71c0.54,0.68,1.27,0.66,1.96,0.39c-0.55-0.06-0.99-0.3-1.3-0.69l-1.8-2.26c0.68-0.28,1.19-0.68,1.19-1.36
			c0-0.77-0.67-1.35-1.76-1.35h-1.85c0.29,0.25,0.31,0.53,0.31,0.93v3.44c0,0.4-0.02,0.68-0.31,0.94h1.46
			C112.14,105.58,112.11,105.3,112.11,104.9 M83.01,104.29c-0.9,0.51-1.7,0.78-2.42,0.78c-1.71,0-2.88-1.26-2.88-3.16
			c0-1.74,1.13-2.86,2.8-2.86c0.61,0,1.22,0.19,1.87,0.53v-1.21c-0.66-0.2-1.24-0.3-1.78-0.3c-1.13,0-2.13,0.38-2.9,1.08
			c-0.85,0.78-1.32,1.83-1.32,2.87c0,1.44,0.68,2.66,1.8,3.33c0.69,0.41,1.5,0.65,2.37,0.65c0.59,0,1.22-0.12,1.9-0.35L83.01,104.29
			z M85.84,105.97c0.78,0,1.47-0.26,2-0.75c0.6-0.55,0.94-1.29,0.94-2.03c0-0.81-0.3-1.52-0.85-2.03c-0.51-0.48-1.25-0.75-2.09-0.75
			c-0.97,0-1.82,0.42-2.37,1.17c-0.36,0.49-0.55,1.06-0.55,1.65c0,0.76,0.31,1.48,0.85,1.99C84.26,105.68,85,105.97,85.84,105.97
			 M85.87,100.97c1.12,0,2,0.93,2,2.26c0,1.29-0.88,2.17-2.04,2.17c-1.12,0-2-0.94-2-2.27C83.82,101.84,84.7,100.97,85.87,100.97
			 M93.91,100.53H92.7c0.29,0.25,0.31,0.53,0.31,0.93v3.06l-3.15-3.99h-1.09c0.29,0.25,0.31,0.53,0.31,0.93v3.44
			c0,0.4-0.02,0.68-0.31,0.94h1.21c-0.29-0.26-0.31-0.54-0.31-0.94v-3.23l2.75,3.46c0.4,0.51,0.71,0.82,1.16,0.84v-4.51
			C93.59,101.06,93.62,100.78,93.91,100.53 M94.01,105.72c0.52,0.17,0.99,0.26,1.42,0.26c1.32,0,2.2-0.77,2.2-1.64
			c0-0.39-0.18-0.76-0.5-1.01c-0.36-0.28-0.74-0.44-1.09-0.6c-0.76-0.36-1.2-0.6-1.2-1.07c0-0.4,0.38-0.71,1.01-0.71
			c0.49,0,0.93,0.16,1.36,0.49v-0.89c-0.5-0.09-0.92-0.14-1.27-0.14c-1.27,0-1.98,0.57-1.98,1.41c0,0.68,0.46,1.05,1.36,1.5
			c0.66,0.33,1.12,0.52,1.31,0.78c0.09,0.13,0.13,0.27,0.13,0.42c0,0.48-0.46,0.85-1.22,0.85c-0.57,0-1.16-0.2-1.77-0.61
			L94.01,105.72z M97.59,105.84h3.24l0.37-1.04c-0.46,0.31-0.94,0.45-1.48,0.45c-0.24,0-0.57-0.03-0.98-0.09v-1.9h0.48
			c0.4,0,0.67,0.01,0.83,0.2v-0.78h-1.31v-1.5c0.3-0.06,0.57-0.1,0.79-0.1c0.4,0,0.71,0.09,0.98,0.29v-0.83h-2.92
			c0.29,0.25,0.31,0.53,0.31,0.93v3.44C97.9,105.3,97.88,105.58,97.59,105.84 M105.2,101.41v-0.85c-0.52-0.11-0.96-0.16-1.33-0.16
			c-0.83,0-1.54,0.26-2.09,0.76c-0.61,0.56-0.93,1.29-0.93,2.07c0,0.96,0.49,1.83,1.27,2.3c0.5,0.31,1.1,0.44,1.82,0.44
			c0.51,0,1.1-0.08,1.78-0.24v-2.59h-1.04c0.29,0.25,0.31,0.53,0.31,0.93v1.12c-0.37,0.12-0.72,0.18-1.04,0.18
			c-1.35,0-2.19-0.86-2.19-2.23c0-1.32,0.83-2.18,2.06-2.18C104.31,100.97,104.75,101.12,105.2,101.41 M109.56,105.84h1.11
			c-0.29-0.26-0.31-0.54-0.31-0.94v-3.44c0-0.42,0.05-0.71,0.31-0.93h-1.46c0.29,0.25,0.31,0.53,0.31,0.93v2.65
			c0,0.45-0.07,0.75-0.31,0.96c-0.26,0.22-0.61,0.34-0.99,0.34c-0.47,0-0.82-0.13-1.02-0.38c-0.2-0.25-0.24-0.65-0.24-1.23v-2.34
			c0-0.4,0.02-0.68,0.31-0.93h-1.46c0.29,0.25,0.31,0.53,0.31,0.93v2.5c0,0.61,0.07,1.05,0.39,1.42c0.35,0.41,0.84,0.61,1.46,0.61
			c0.55,0,1.07-0.18,1.6-0.56V105.84z M117.6,105.97c0.78,0,1.47-0.26,2-0.75c0.6-0.55,0.94-1.29,0.94-2.03
			c0-0.81-0.3-1.52-0.85-2.03c-0.51-0.48-1.25-0.75-2.09-0.75c-0.97,0-1.82,0.42-2.37,1.17c-0.36,0.49-0.55,1.06-0.55,1.65
			c0,0.76,0.31,1.48,0.85,1.99C116.03,105.68,116.77,105.97,117.6,105.97 M117.64,100.97c1.12,0,2,0.93,2,2.26
			c0,1.29-0.88,2.17-2.04,2.17c-1.12,0-2-0.94-2-2.27C115.59,101.84,116.47,100.97,117.64,100.97 M120.53,105.72
			c0.52,0.17,0.99,0.26,1.42,0.26c1.32,0,2.2-0.77,2.2-1.64c0-0.39-0.18-0.76-0.5-1.01c-0.36-0.28-0.74-0.44-1.09-0.6
			c-0.76-0.36-1.2-0.6-1.2-1.07c0-0.4,0.38-0.71,1.01-0.71c0.49,0,0.93,0.16,1.36,0.49v-0.89c-0.5-0.09-0.92-0.14-1.27-0.14
			c-1.27,0-1.98,0.57-1.98,1.41c0,0.68,0.46,1.05,1.36,1.5c0.66,0.33,1.12,0.52,1.31,0.78c0.09,0.13,0.13,0.27,0.13,0.42
			c0,0.48-0.46,0.85-1.22,0.85c-0.57,0-1.16-0.2-1.77-0.61L120.53,105.72z"/>
		<path class="st2" d="M97.28,93.04c1.12,0,2,0.93,2,2.26c0,1.29-0.88,2.17-2.04,2.17c-1.12,0-2-0.94-2-2.27
			C95.24,93.92,96.12,93.04,97.28,93.04 M97.25,98.05c0.78,0,1.47-0.26,2-0.75c0.6-0.55,0.94-1.29,0.94-2.03
			c0-0.81-0.3-1.52-0.85-2.03c-0.51-0.48-1.25-0.75-2.09-0.75c-0.97,0-1.82,0.42-2.37,1.17c-0.36,0.49-0.55,1.06-0.55,1.65
			c0,0.76,0.31,1.48,0.85,1.99C95.68,97.76,96.42,98.05,97.25,98.05 M91.8,96.98v-3.75c0.24-0.05,0.45-0.07,0.61-0.07
			c0.74,0,1.19,0.39,1.19,1c0,0.66-0.49,1.1-1.45,1.28c0.21,0.04,0.42,0.06,0.61,0.06c1.06,0,1.72-0.6,1.72-1.44
			c0-0.85-0.7-1.45-1.9-1.45h-1.91c0.29,0.25,0.31,0.53,0.31,0.93v3.44c0,0.4-0.02,0.68-0.31,0.94h1.46
			C91.82,97.66,91.8,97.38,91.8,96.98 M89.42,97.92h1.11c-0.29-0.26-0.31-0.54-0.31-0.94v-3.44c0-0.42,0.05-0.71,0.31-0.93h-1.46
			c0.29,0.25,0.31,0.53,0.31,0.93v2.65c0,0.45-0.07,0.75-0.31,0.96c-0.26,0.22-0.61,0.34-0.99,0.34c-0.47,0-0.82-0.13-1.02-0.38
			c-0.2-0.25-0.24-0.65-0.24-1.23v-2.34c0-0.4,0.02-0.68,0.31-0.93h-1.46c0.29,0.25,0.31,0.53,0.31,0.93v2.5
			c0,0.61,0.07,1.05,0.39,1.42c0.35,0.41,0.84,0.61,1.46,0.61c0.55,0,1.07-0.18,1.6-0.56V97.92z M82.81,96.98v-3.79
			c0.25-0.05,0.45-0.07,0.58-0.07c0.62,0,1.02,0.38,1.02,0.91c0,0.59-0.44,0.93-1.37,1.14l2.16,2.71c0.54,0.68,1.27,0.66,1.96,0.39
			c-0.55-0.06-0.99-0.3-1.3-0.69l-1.8-2.26c0.68-0.28,1.2-0.68,1.2-1.36c0-0.77-0.67-1.35-1.76-1.35h-1.85
			c0.29,0.25,0.31,0.53,0.31,0.93v3.44c0,0.4-0.02,0.68-0.31,0.94h1.46C82.84,97.66,82.81,97.38,82.81,96.98 M80.46,93.91v-1.2
			c-0.74-0.16-1.36-0.23-1.89-0.23c-1.18,0-2.19,0.37-2.97,1.08c-0.86,0.79-1.32,1.83-1.32,2.94c0,1.37,0.69,2.61,1.81,3.27
			c0.71,0.43,1.56,0.63,2.58,0.63c0.73,0,1.56-0.11,2.54-0.34v-3.67h-1.47c0.41,0.36,0.45,0.76,0.45,1.33v1.59
			c-0.52,0.17-1.02,0.26-1.47,0.26c-1.92,0-3.12-1.22-3.12-3.16c0-1.87,1.18-3.1,2.93-3.1C79.2,93.3,79.81,93.5,80.46,93.91"/>
		<rect x="132.8" y="98.86" class="st3" width="45.94" height="0.71"/>
		<rect x="132.8" y="98.86" class="st4" width="45.94" height="0.71"/>
		<rect x="19.69" y="98.86" class="st3" width="45.94" height="0.71"/>
		<rect x="19.69" y="98.86" class="st4" width="45.94" height="0.71"/>
	</g>
</g>
</svg>
