<?xml version="1.0" encoding="utf-8"?>
<!-- Generator: Adobe Illustrator 28.0.0, SVG Export Plug-In . SVG Version: 6.00 Build 0)  -->
<svg version="1.1" id="Layer_1" xmlns="http://www.w3.org/2000/svg" xmlns:xlink="http://www.w3.org/1999/xlink" x="0px" y="0px"
	 viewBox="0 0 198.43 198.43" style="enable-background:new 0 0 198.43 198.43;" xml:space="preserve">
<style type="text/css">
	.st0{fill:#003399;}
</style>
<g>
	<path class="st0" d="M125.88,106.64c-1.52,0-1.97,1.65-1.98,2.9c0,0,3.88,0.01,3.87,0C127.87,108.39,127.4,106.64,125.88,106.64
		 M125.84,105.79c4.18,0,5.46,3.07,5.55,4.82h-7.48c-0.1,2.14,1.05,4.52,3.65,4.52c1.73,0,2.63-1.17,3.07-1.93l0.59,0.27
		c-0.64,1.57-2.34,3.42-5.43,3.41c-2.71-0.01-5.47-1.85-5.47-5.54C120.31,107.56,123.37,105.79,125.84,105.79 M105.72,106.46
		c0.97-0.03,4.94-0.4,4.94-0.4l0.02,1.62c1.3-0.9,2.7-1.87,4.35-1.57c2.43,0.45,2.91,2.44,2.9,3.79v4.59
		c0.01,0.62,0.29,1.46,1.4,1.46v0.52h-6.3v-0.52c0.59,0,1.43-0.21,1.44-1.53v-4.47c0-0.96-0.42-1.58-1.1-1.85
		c-1.02-0.41-2.02,0.19-2.68,0.85c0,0,0.01,4.96,0.01,5.44c0,0.62,0.16,1.55,1.38,1.55v0.52h-6.23v-0.52c0.7,0,1.38-0.35,1.39-1.59
		c0,0,0-5.15,0-5.8c0-1.14-0.26-1.62-1.5-1.62 M72.88,115.93c-1.66,0.03-1.88-1.83-2.38-2.96l-3.97-10.59l-2.6,0l-4.43,11.39
		c-0.33,0.73-0.67,1.55-1.44,2c-0.18,0.28-0.97,0.2-0.97,0.2l0.01,0.48l5.02,0.01l-0.01-0.48c-0.48,0-0.96-0.08-1.25-0.57
		c-0.33-1.28,0.37-2.47,0.8-3.62h4.48l0.9,2.47c0.07,0.42,0.21,0.93-0.11,1.26c-0.35,0.42-0.85,0.38-1.31,0.47v0.43l7.09,0.02
		 M62.09,110.6l1.86-4.86l1.74,4.86H62.09z M80.5,115.96c0,0,0.64,0.03,0.82-0.17c0.51-0.24,0.64-0.75,0.71-1.23l0.01-6.8
		c-0.34-0.95-0.97-0.93-1.5-1c0.04-0.14,0.02-0.3,0.02-0.44l4.9-0.24l-0.01,2.79c0.96-1.2,2-3.4,3.93-2.79l0.7,0.27
		c-0.18,1.15-0.46,2.36-0.71,3.52c-0.88-0.57-1.97-1.42-3.05-0.69c-0.38,0.28-0.68,0.65-0.87,1.05v4.27
		c0.04,0.59,0.26,1.08,0.68,1.29c0.38,0.18,0.82,0.16,0.82,0.16l-0.02,0.5l-6.42-0.02"/>
	<path class="st0" d="M72.92,115.93c1.02,0,1.33-0.58,1.33-1.99v-5.49c0-0.24,0.05-0.95-0.36-1.33c-0.29-0.26-0.74-0.34-1.14-0.35
		v-0.48l4.91-0.23v7.9c0,1.85,0.79,1.97,1.46,1.97v0.52h-6.39 M90.04,115.94c0.63-0.03,1.6-0.16,1.6-1.68v-10.12
		c0-0.99-0.29-1.56-1.6-1.47v-0.52l5.13-0.41c0,0-0.02,10.09,0,12.49c0.01,1.44,0.67,1.71,1.53,1.71c-0.01,0,0,0.52,0,0.52h-6.66
		C90.04,116.47,90.04,115.94,90.04,115.94 M97.98,115.93c1.01,0,1.44-0.57,1.44-1.97c-0.01-2.36,0-5.45,0-5.45
		c-0.01-0.23,0.04-0.95-0.36-1.31c-0.3-0.27-0.75-0.35-1.14-0.35v-0.48l4.91-0.23c0,0,0.01,6.36,0,7.84c0,1.84,0.8,1.95,1.46,1.95
		v0.52h-6.3 M101.01,104.92c1.07,0,1.93-0.84,1.93-1.87c0-1.02-0.86-1.86-1.93-1.86c-1.05,0-1.91,0.83-1.91,1.86
		C99.09,104.09,99.96,104.92,101.01,104.92 M75.89,104.92c1.06,0,1.93-0.84,1.93-1.87c0-1.02-0.86-1.86-1.93-1.86
		c-1.05,0-1.92,0.83-1.92,1.86C73.98,104.09,74.84,104.92,75.89,104.92 M133.29,112.8c0.79-0.27,0.52,0.76,0.94,1.06
		c0.87,1.28,2.2,2.43,3.84,2.07c0.37-0.16,0.81-0.4,1-0.8c0.2-0.56,0.03-1.19-0.37-1.58c-1.78-1.37-5.09-1.15-5.34-4.09
		c-0.09-1.13,0.37-2.09,1.23-2.77c1.57-1.21,4.12-0.9,5.87-0.31c0.56,0.16,0.7-0.62,1.23-0.46l0.12,3.23l-0.46,0.03
		c-0.43-1.1-1.52-2.23-2.66-2.57c-0.56-0.16-1.31-0.11-1.82,0.14c-0.34,0.21-0.66,0.56-0.65,0.99c-0.02,0.48,0.24,0.9,0.66,1.15
		c2.04,0.85,5.35,1.29,5.44,4.25c0.06,1.1-0.42,2.01-1.25,2.7c-1.64,1.51-4.45,0.99-6.34,0.39c-0.32-0.04-0.63,0.1-0.76,0.4v0.06
		l-0.44,0.04C133.4,115.46,133.32,114.13,133.29,112.8 M21.74,82.46c2.46,0,3.11,0.76,4.03,0.76c0.66,0,0.8-0.52,0.86-0.72
		l0.63-0.01v5.17h-0.75c-0.16-1.58-1.26-4.11-4.22-4.11c-2.47,0-4.1,2.39-4.1,5.79c0.01,3.82,1.84,6.21,4.7,6.21
		c1.71,0,3.32-1.13,4.23-2.26l0.67,0.34c-1.18,2.16-3.4,3.56-6.45,3.56c-4.39,0-7.18-3.23-7.18-7.47
		C14.17,86.12,16.82,82.45,21.74,82.46 M35.19,87.05c-1.83,0-2.55,1.99-2.56,4.57c0,2.86,0.78,4.59,2.57,4.59
		c1.73,0,2.54-1.87,2.54-4.59C37.74,88.98,37.01,87.04,35.19,87.05 M35.19,86.09c4.26-0.02,6.39,2.8,6.41,5.52
		c0,3.13-2.74,5.57-6.36,5.57c-3.92-0.01-6.37-2.5-6.36-5.57C28.89,88.83,31.33,86.11,35.19,86.09 M42.74,86.78
		c0.98-0.04,4.93-0.4,4.93-0.4L47.71,88c1.3-0.91,2.69-1.87,4.35-1.58c2.43,0.45,2.9,2.45,2.9,3.79v4.6c0,0.61,0.29,1.45,1.4,1.46
		v0.51h-6.31v-0.52c0.58,0,1.43-0.21,1.43-1.53c0.01-0.74,0-3.5,0-4.47c0.01-0.96-0.41-1.58-1.09-1.84
		c-1.03-0.4-2.02,0.19-2.67,0.85c0,0,0,4.96,0,5.44c0,0.62,0.17,1.55,1.38,1.55v0.52h-6.23v-0.52c0.69,0,1.39-0.34,1.39-1.59v-5.8
		c0.01-1.15-0.27-1.63-1.51-1.62L42.74,86.78z M57.07,87.3c1.66-1.13,3.38-2.9,4.54-4.31h0.37v3.65h3.1v1.14h-3.11
		c0,0-0.01,3.58,0,5.79c0.01,1.31,0.55,1.97,1.53,1.97c0.47,0,0.95-0.21,1.29-0.55l0.54,0.23c-0.82,1.35-2.06,1.97-3.55,1.97
		c-2.28,0-3.26-1.51-3.25-3.17c0.01-1.42,0.01-6.24,0.01-6.24h-1.47V87.3z M94.24,86.94c-1.52,0-1.97,1.65-1.98,2.9h3.87
		C96.22,88.69,95.76,86.94,94.24,86.94 M94.19,86.09c4.18,0,5.46,3.06,5.56,4.82h-7.49c-0.1,2.14,1.05,4.52,3.65,4.52
		c1.73,0,2.63-1.17,3.07-1.93l0.6,0.28c-0.65,1.57-2.34,3.42-5.44,3.41c-2.71-0.01-5.46-1.84-5.46-5.54
		C88.67,87.85,91.72,86.08,94.19,86.09 M130.39,94.54l-0.01-3.27c-2.07,0.7-2.79,1.4-2.79,2.97c0,0.68,0.37,1.33,1.21,1.34
		C129.49,95.59,130.15,94.93,130.39,94.54 M127.03,97.21c-1.7,0-3.08-1.15-3.08-2.75c0-3.07,4.64-3.83,6.43-4.16
		c0-2.04-1.5-2.37-2.48-2.37c-1.52,0-2.31,1-2.58,1.46l-0.57-0.27c0.43-1.18,1.65-3.03,4.58-3.04c3.29,0,4.54,1.73,4.54,4.05
		c0,0,0,4.16,0,4.87c0,0.49,0.2,0.63,0.41,0.63c0.34,0,0.61-0.47,0.71-0.74l0.59,0.26c-0.36,0.94-1.37,2.06-2.72,2.05
		c-1.39,0-2.01-0.93-2.29-1.55C130.03,96.12,128.71,97.21,127.03,97.21 M136.34,96.25c0.63-0.02,1.59-0.16,1.59-1.68
		c0.01-0.42,0.01-8.85,0-10.11c0-1-0.29-1.58-1.6-1.48v-0.52l5.15-0.41c0,0-0.02,10.09,0,12.5c0,1.44,0.66,1.71,1.52,1.71v0.52
		h-6.66C136.34,96.78,136.33,96.25,136.34,96.25 M66.59,96.27c1.03,0,1.45-0.57,1.45-1.96v-5.45c0-0.23,0.04-0.95-0.36-1.32
		c-0.3-0.27-0.75-0.34-1.14-0.35V86.7l4.91-0.22c0,0,0.01,6.35,0,7.84c0,1.84,0.8,1.94,1.45,1.94v0.52h-6.32L66.59,96.27z
		 M69.64,85.26c1.05,0,1.91-0.84,1.91-1.86c0-1.03-0.86-1.87-1.91-1.87c-1.06,0-1.93,0.84-1.93,1.87
		C67.71,84.43,68.58,85.26,69.64,85.26 M74.18,86.78c0.98-0.04,4.93-0.4,4.93-0.4L79.13,88c1.31-0.91,2.71-1.88,4.36-1.58
		c2.44,0.45,2.91,2.45,2.91,3.79c0,0-0.01,4.09,0,4.59c0,0.61,0.28,1.45,1.4,1.46c-0.01,0,0,0.52,0,0.52h-6.3v-0.52
		c0.58,0,1.42-0.21,1.42-1.53c0-0.74,0-3.5,0-4.46c0-0.97-0.42-1.57-1.1-1.84c-1.03-0.4-2.02,0.18-2.66,0.85v5.44
		c0,0.62,0.16,1.55,1.38,1.55l-0.01,0.52H74.3v-0.52c0.7,0,1.4-0.34,1.4-1.59v-5.8c0.01-1.14-0.27-1.63-1.52-1.62V86.78z
		 M100.65,86.78c0.98-0.04,4.94-0.4,4.94-0.4l0.02,1.63c1.31-0.91,2.71-1.88,4.35-1.58c2.44,0.45,2.91,2.45,2.9,3.79v4.59
		c0.01,0.61,0.29,1.45,1.4,1.46v0.52h-6.3v-0.52c0.58,0,1.42-0.21,1.43-1.53v-4.47c0-0.97-0.42-1.57-1.09-1.84
		c-1.03-0.4-2.03,0.18-2.67,0.85v5.44c0,0.62,0.16,1.55,1.38,1.55v0.52h-6.23v-0.52c0.7,0,1.39-0.34,1.4-1.59c0,0-0.01-5.14,0-5.8
		c0-1.14-0.28-1.63-1.52-1.62V86.78z M114.92,87.3c1.67-1.13,3.38-2.9,4.55-4.31h0.38v3.65h3.09v1.15h-3.11c0,0-0.01,3.58,0,5.79
		c0.01,1.32,0.55,1.97,1.53,1.97c0.47,0,0.95-0.2,1.29-0.56l0.53,0.24c-0.82,1.35-2.06,1.97-3.55,1.97
		c-2.29,0.01-3.24-1.5-3.24-3.16c0.01-1.42,0.01-6.24,0.01-6.24h-1.48L114.92,87.3L114.92,87.3z M150.04,85.98
		c3.04-0.13,4.64,1.58,5.17,3.7c1.05,4.19-1.29,8.29-5.17,10.92l0.01-1.49c0.43-0.23,1.61-1.22,1.94-1.74
		c-0.49-0.18-1.4-0.3-1.95-0.29v-1.89c0.93-0.06,2.35,0.12,3.22,0.32c0.37-0.58,0.58-1.07,0.72-1.73c-0.95-0.17-2.92-0.13-3.95,0.02
		v-1.32c1.05-0.29,3.39-0.52,4.29-0.42c0.07-0.41,0.06-0.94-0.08-1.41c-0.9-0.07-3.18,0.2-4.2,0.51v-1.08
		c0.94-0.4,3.09-0.78,3.99-0.84c-0.08-0.38-0.32-0.83-0.59-1.08c-0.85,0.06-2.42,0.4-3.39,0.72v-1.01c0.58-0.27,1.83-0.57,2.48-0.62
		c-0.35-0.24-1.48-0.57-2.47-0.5"/>
	<path class="st0" d="M152.6,85.55c7.01-1.3,10.18,1.81,8.28,9.38c-1.76,6.22-5.49,10.41-10.83,13.62v-3.28
		c0.31,0.26,0.71,0.77,0.99,1.22c0.59-0.29,1.39-0.86,1.81-1.31c-0.42-0.62-1.99-2.16-2.79-2.64c-0.01,0.01-0.01-0.4,0-0.43
		c0.72-0.39,1.99-1.33,2.54-2.05c0.9,0.39,2.68,1.85,3.07,2.38c0.64-0.64,1.39-1.7,1.72-2.41c-0.72-0.62-2.1-1.42-3.12-1.78
		c0.55-0.58,1.12-1.55,1.38-2.23c0.87,0.2,2.49,0.67,3.24,1.11c0.37-0.65,0.66-1.53,0.85-2.47c-0.76-0.3-2.32-0.59-3.32-0.69
		c0.14-0.42,0.24-1.49,0.21-1.92c1.15-0.03,2.74,0.14,3.59,0.34c0.11-0.51,0.16-1.1,0.07-1.72c-0.99-0.15-2.64-0.24-3.76-0.16
		c-0.01-0.46-0.16-1.15-0.34-1.48c0.89-0.15,2.7-0.16,3.74-0.04c-0.16-0.5-0.36-1-0.82-1.38c-0.72-0.07-2.39,0.01-3.42,0.2
		c-0.19-0.37-0.53-0.77-0.88-1c0.67-0.2,2.04-0.34,2.8-0.3c-0.62-0.32-1.77-0.61-3.57-0.37C153.36,85.69,152.6,85.55,152.6,85.55"/>
	<path class="st0" d="M150.05,85.12c4.88-1.55,14.59-0.67,20.23,4.41c4.58,4.12,7.72,9.36,8.1,16.55c0.24,4.38-0.89,8.28-1.97,10.42
		h7.84v-34.2h-34.21"/>
	<path class="st0" d="M164.7,89.8c-0.64-0.28-1.62-0.57-2.39-0.61c0.15,0.48,0.21,1.07,0.23,1.69c0.78,0.11,2.14,0.48,2.82,0.78
		c0.26,0.79,0.27,1.49,0.27,2.27c-0.76-0.43-2.16-0.99-3.16-1.18c-0.03,0.7-0.19,1.7-0.43,2.46c1.03,0.33,2.56,1.1,3.25,1.6
		c-0.13,1.04-0.49,2.21-1,3.19c-0.77-0.68-2.3-1.64-3.29-2.06c-0.28,0.91-1.13,2.65-1.71,3.36c0.87,0.52,2.3,1.8,2.86,2.49
		c-0.65,1.15-1.39,2.06-2.23,2.76c-0.44-0.8-1.55-2.27-2.34-2.89c-0.63,1.05-2.14,2.58-3.16,3.23c0.69,0.69,1.66,2.03,2.09,2.81
		c-0.59,0.6-1.67,1.36-2.56,1.82c-0.33-1.06-0.86-2.17-1.46-3.08c-0.58,0.6-1.52,1.09-2.44,1.57v4.79
		c6.24-2.27,14.35-8.74,16.28-17.51c0.93-4.27,0-6.85-0.9-8.26c-1.45-2.31-4.12-2.76-5.32-2.94c0.51,0.27,1.23,0.92,1.59,1.48
		C163.66,87.91,164.37,89.1,164.7,89.8"/>
	<path class="st0" d="M150.04,116.48v-0.4c1.98-0.6,4.29-1.86,5.27-2.72c0.35,0.82,0.69,2.18,0.79,2.96
		c0.89-0.54,1.96-1.27,2.68-2.13c-0.21-0.7-0.65-1.64-1.09-2.32c1.28-0.86,2.93-2.44,3.91-3.67c0.39,0.62,0.87,1.68,1.12,2.5
		c0.96-0.8,2.15-2.24,2.74-3.22c-0.36-0.67-0.97-1.47-1.62-2.08c0.96-1.15,1.99-3.16,2.3-4.19c0.55,0.31,1.5,1.37,1.85,1.91
		c0.68-1.25,1.1-2.57,1.32-4c-0.44-0.51-1.21-1.13-1.92-1.45c0.23-0.81,0.47-2.17,0.41-3.06c0.61,0.26,1.45,0.88,1.86,1.33
		c0.11-0.91,0.01-1.8-0.22-2.7c-0.39-0.4-1.27-0.92-1.8-1.07c-0.06-0.59-0.3-1.34-0.49-1.73c0.44,0.09,1.31,0.62,1.64,0.91
		c-0.33-0.82-1.26-1.62-1.97-1.89c-0.21-0.38-0.62-1.01-1-1.37c3.96,1.33,4.42,4.14,4.72,5.25c0.65,4.24-0.23,8.02-2.12,11.68
		c-2.4,4.63-5.35,7.31-10.46,11.45"/>
	<path class="st0" d="M159.81,116.5c1.82-1.2,3.06-2.29,4.21-3.76c0.37,0.84,0.57,2.43,0.57,2.43c0.84-0.71,2.58-2.6,3.17-3.65
		c-0.17-0.58-0.57-1.48-0.9-1.89c1.14-1.14,2.28-3.22,2.69-4.6c0.47,0.46,0.94,1.3,1.12,1.84c0.73-1.35,1.41-3,1.73-4.81
		c-0.25-0.53-0.67-1.13-1.13-1.58c0.33-0.94,0.51-2.29,0.47-3.4c0.35,0.27,0.97,1.04,1.28,1.59c-0.01-1.9-0.2-3.12-1.34-4.13
		c-0.02-0.56-0.19-1.5-0.54-2.23c1.68,1.42,3.15,3.31,2.74,7.53c-0.64,6.37-4.39,12.44-8.82,16.67 M172.01,116.5
		c0.93-0.85,1.4-1.7,1.92-2.81c0.22,0.54,0.32,1.18,0.36,1.9c0.28-0.8,1.77-3.26,1.74-6.71c0.51-1.68,0.81-3.52,0.9-4.95
		c0.51,2.47,0.51,7.94-1.9,12.56"/>
	<path class="st0" d="M175.29,101.59c0.11-0.66-0.04-1.73-0.52-2.44c0.02-0.5-0.09-1.74-0.2-2.28c0.99,1.35,1.83,2.87,1.5,6.42
		c-0.55,4.82-2.01,9.67-5.7,13.21h-1.43c0.03-0.41-0.03-1.49-0.25-2.21c1.38-1.42,2.86-3.76,3.43-5.47c0.39,0.78,0.59,1.52,0.7,2.47
		c0.95-1.74,1.7-4.25,1.91-5.97c-0.14-0.54-0.39-1.07-0.66-1.46c0.34-0.85,0.62-2.45,0.63-3.33
		C174.93,100.76,175.18,101.3,175.29,101.59"/>
</g>
</svg>
