<?xml version="1.0" encoding="utf-8"?>
<!-- Generator: Adobe Illustrator 28.0.0, SVG Export Plug-In . SVG Version: 6.00 Build 0)  -->
<svg version="1.1" id="Layer_1" xmlns="http://www.w3.org/2000/svg" xmlns:xlink="http://www.w3.org/1999/xlink" x="0px" y="0px"
	 viewBox="0 0 198.43 198.43" style="enable-background:new 0 0 198.43 198.43;" xml:space="preserve">
<style type="text/css">
	.st0{fill:#C41E02;}
	.st1{fill:#1B1918;}
	.st2{fill:#FFFFFF;}
	.st3{fill:#FCFCFC;}
</style>
<g>
	<path class="st0" d="M150.94,126.17c-1.05-0.94-1.97-2.24-2.96-3.36c-0.73-0.82-1.46-1.65-2.18-2.47c-0.15-0.17-0.3-0.32-0.42-0.51
		c-0.21-0.31-0.34,0.1-0.41,0.04c-0.78-0.63-4.22-4.82-4.83-5.44c-0.91-0.92-2.11-1.4-2.64-2.65c-0.28-0.66-1.39-1.35-1.87-1.97
		c-0.51-0.65-1.01-1.32-1.57-1.96c-0.28-0.32-0.53-0.29-0.72-0.67c-0.17-0.35-0.19-0.77-0.39-1.09c-0.53-0.85-0.76-1.28-0.76-2.3
		c0-1.6,1.57-2.7,2.38-3.86c0.57-0.82,1.1-1.24,1.49-2.19c0.16-0.39,0.29-1.03,0.56-1.36c0.21-0.25,1.62-2.05,2.44-2.87
		c0.74-0.74,1.07-1.41,1.66-2.24c0.99-1.39,2.16-2.33,3.31-3.54c0.57-0.6,1.3-1.28,1.59-2.07c0.2-0.52,1.59-1.24,1.78-1.54
		c0.95-1.48,2.26-2.5,3.24-3.98c0.85-0.32,3.66-2.24,1.87-2.76c-0.49-0.14-3.5,2.86-3.92,3.25c-1.55,1.42-3,2.97-4.49,4.45
		c-1.02,1.01-2,2.43-3.17,3.21c-0.73,0.49-1.39,1.5-1.99,2.14c-0.36,0.38-0.71,0.76-1.07,1.14c-0.2,0.21-0.11,0.49-0.26,0.68
		c-0.07,0.09-0.54,0.38-0.73,0.57c-0.3,0.3-0.59,0.6-0.89,0.89c-0.91,0.91-1.82,1.83-2.72,2.74c-2.37,2.38-4.98,4.58-6.96,7.39
		c-0.41,0.58-0.4,1.86-0.14,2.51c0.54,1.35,0.26,1.42-0.57,2.63c-0.24,0.35-0.31,0.96-0.61,1.19c-0.35,0.26-0.6,0.65-0.88,0.99
		c-0.46,0.55-0.65,0.95-1,1.48c-0.47,0.71-0.8,1.54-1.25,2.33c-0.38,0.66-0.93,1.07-1.17,1.79c-0.47,1.41-1.77,2.63-2.5,3.92
		c-0.42-0.46-0.08-1.21-0.01-1.78c0.1-0.88,0.53-1.68,0.83-2.43c0.32-0.8,0.24-1.68,0.57-2.43c0.22-0.5,0.74-1.71,0.74-2.23
		c0-0.97,0.49-1.72,0.57-2.72c0.06-0.86,0.58-1.68,0.69-2.54c0.12-0.95,0.11-1.99,0.49-2.87c0.31-0.74,0.16-1.97,0.39-2.82
		c0.15-0.54,0.24-1.46,0.24-1.8c0-3.56,0.33-7.02-1.28-10.33c-0.6-1.23-1.2-2.45-1.8-3.68c-0.31-0.64-0.69-0.86-1.1-1.55
		c-0.51-0.88-1.65-3.4-2.71-3.46c0.11,1.63-0.81,3.05-0.25,4.62c-0.63-0.12-1.25,1.12-1.39,1.4c-0.64,1.24,0.38,2,0.9,3.13
		c0.91,1.96,1.51,4.04,1.97,6.1c0.5,2.25,0.41,4.66,0.46,6.94c0.05,2.39-0.55,4.66-0.66,7.04c-0.04,0.86,0,1.45-0.12,2.27
		c-0.09,0.61-0.16,0.95-0.27,1.54c-0.2,1.08-0.19,1.99-0.15,3.09c0.02,0.37-0.42,0.38-0.35,0.89c0.12,0.82-0.15,0.59-0.3,1.24
		c-0.41,1.75-0.77,3.48-1.34,5.19c-0.3,0.91-0.69,1.7-1.06,2.57c-0.18,0.41-0.57,0.76-0.85,1.11c-0.42,0.51-0.1,0.45-0.28,0.94
		c-0.15,0.41-0.74,0.73-0.32,1.26c0.2,0.25,0.64,0.42,0.98,0.3c0.63-0.2,0.96-1.13,1.45-1.6c0.67-0.63,1.31-1.3,2-1.9
		c0.64-0.57,0.7-1.47,1.29-2.11c2.61-2.8,6.8-9.55,7.07-9.89c0.49-0.61,0.8-1.32,1.32-1.92c0.5-0.58,0.49-1.73,1.3-2.04
		c1.14-0.44,2.68,2.03,3.36,2.8c1.29,1.48,2.88,2.71,4.34,4.02c0.65,0.58,1.33,1.16,1.97,1.75c0.54,0.5,1.22,0.96,1.73,1.56
		c0.89,1.04,1.99,2.02,3.03,2.97c0.62,0.56,1.65,0.86,1.92,1.69c0.14,0.41,1.03,1.19,1.52,1.19c1.85,0,3.61,1.56,5.02,2.58
		c0.41,0.3,0.74,0.14,1.21,0.31c0.28,0.1,0.49,0.4,0.74,0.49c1.01,0.4,1.36-0.63,2.05-0.41
		C154.11,128.72,151.49,126.66,150.94,126.17"/>
	<path class="st0" d="M154.34,68.85c-14.01-1.1-20.72,4.53-16.12,10.66l1.76,2.31l0.57-1.18c0,0-4.63-4.42-1.34-7.95
		c3.29-3.52,15.21-3.51,21.62-1.75c6.41,1.77,8.39,4.25-1.01,6.83l0.84-2.13l0.08-2.34h-1.32l-1.65-0.84c0,0-1.15,0.25-1.07,1.01
		c0.08,0.76-2.15,9.69-2.23,10.03c-0.08,0.34,1.4-0.68,1.4-0.68l2.64-3.48c0,0,6.17-1.09,8.3-3.35
		C168.98,73.72,167.3,69.87,154.34,68.85"/>
	<path class="st1" d="M173.76,91.93c-0.27-0.27-0.59-0.4-0.96-0.4c-0.38,0-0.7,0.13-0.96,0.4c-0.26,0.27-0.4,0.59-0.4,0.97
		c0,0.38,0.13,0.7,0.4,0.96c0.27,0.26,0.59,0.39,0.96,0.39c0.37,0,0.69-0.13,0.96-0.39c0.26-0.26,0.4-0.59,0.4-0.96
		C174.16,92.52,174.03,92.2,173.76,91.93 M173.53,93.65c-0.2,0.22-0.45,0.32-0.74,0.32c-0.29,0-0.53-0.11-0.73-0.32
		c-0.2-0.22-0.3-0.47-0.3-0.75c0-0.29,0.1-0.54,0.3-0.75c0.2-0.21,0.44-0.32,0.73-0.32c0.29,0,0.53,0.11,0.74,0.32
		c0.2,0.22,0.3,0.47,0.3,0.75C173.84,93.19,173.74,93.44,173.53,93.65"/>
	<path class="st2" d="M173.53,92.15c-0.2-0.21-0.45-0.32-0.74-0.32c-0.29,0-0.53,0.11-0.73,0.32c-0.2,0.22-0.3,0.47-0.3,0.75
		c0,0.29,0.1,0.54,0.3,0.75c0.2,0.22,0.44,0.32,0.73,0.32c0.29,0,0.53-0.11,0.74-0.32c0.2-0.22,0.3-0.47,0.3-0.75
		C173.84,92.61,173.74,92.37,173.53,92.15 M173.37,93.61h-0.39v-0.26c0-0.1-0.02-0.19-0.06-0.27c-0.04-0.07-0.09-0.11-0.16-0.11
		h-0.1v0.64h-0.17h-0.18v-1.46h0.57c0.15,0,0.27,0.03,0.34,0.09c0.08,0.06,0.11,0.13,0.11,0.23v0.06v0.06c0,0.08-0.02,0.15-0.07,0.2
		c-0.04,0.05-0.1,0.09-0.16,0.1c0.1,0.05,0.17,0.13,0.21,0.22c0.04,0.09,0.06,0.18,0.06,0.26V93.61z"/>
	<path class="st1" d="M173.1,92.89c0.07-0.01,0.12-0.05,0.16-0.1c0.05-0.05,0.07-0.12,0.07-0.2v-0.06v-0.06
		c0-0.1-0.04-0.17-0.11-0.23c-0.08-0.06-0.19-0.09-0.35-0.09h-0.57v1.46h0.18h0.17v-0.64h0.1c0.07,0,0.12,0.04,0.16,0.11
		c0.04,0.07,0.06,0.16,0.06,0.27v0.26h0.39v-0.24c0-0.08-0.02-0.17-0.06-0.26C173.27,93.02,173.2,92.94,173.1,92.89 M173.01,92.58
		v0.03c0,0.06-0.01,0.1-0.04,0.13c-0.02,0.03-0.06,0.04-0.11,0.04h-0.21v-0.39h0.11h0.1c0.04,0,0.08,0.01,0.1,0.05
		c0.03,0.03,0.04,0.07,0.04,0.12V92.58z"/>
	<path class="st3" d="M172.87,92.39h-0.1h-0.11v0.39h0.21c0.05,0,0.09-0.01,0.11-0.04c0.02-0.03,0.04-0.07,0.04-0.13v-0.03v-0.03
		c0-0.05-0.01-0.08-0.04-0.12C172.94,92.41,172.91,92.39,172.87,92.39"/>
	<path class="st1" d="M85.53,102.53c0-1.02-0.38-2.14-0.93-3c-0.34-0.53-1.27-0.36-0.89,0.32c-0.67,0.3-2-1.98-2.6-2.45
		c-1.18-0.92-1.53-2.15-3.14-2.28c-1.36-0.11-2.61,0.57-3.93,0.83c-1.52,0.3-2.93,1.24-4.31,1.92c-2.13,1.04-4.11,2.81-5.49,4.67
		c-0.88,1.2-1.84,2.37-2.33,3.79c-0.21,0.63-0.34,1.08-0.34,1.77c0,0.94,0.25,0.93,0.61,1.74c0.36,0.82,0.77,1.38,0.69,2.34
		c-0.07,0.75-0.27,1.5-0.36,2.25c-0.19,1.68,0.25,2.95,0.73,4.48c0.45,1.45,2.21,3.03,3.7,3.4c1.98,0.49,3.6,0.33,5.5-0.22
		c1.43-0.42,3.84-1.12,4.72-2.41c0.77-1.14,2.01-2.34,2.98-3.29c1.12-1.1,2.24-2.68,3.03-4.03c0.53-0.91,1.06-1.82,1.59-2.74
		c0.08-0.13-0.18-0.77-0.18-0.84c0.03-0.38,0.41-0.58,0.34-1.06C85.65,105.8,85.53,104.45,85.53,102.53 M64.34,107.99
		c-0.39,0.88-0.56-1.71-0.47-2.18c0.16-0.84,0.83-1.67,1.42-2.25c0.67-0.66,1.18-1.5,1.75-2.22c0.6-0.75,1.68-1.3,2.44-1.88
		c1.07,0.3-2.38,3.3-2.53,3.9c-0.14,0.54-0.59,0.72-0.76,1.19c-0.13,0.36-0.25,0.8-0.42,1.13C65.49,106.2,64.74,107.89,64.34,107.99
		 M83.44,107.36c-0.33,1.7-0.93,3.21-1.66,4.77c-1.15,2.45-3.16,4.74-5.46,6.1c-0.67,0.39-1.4,0.55-2.04,0.97
		c-0.44,0.29-1.58,0.16-2.17,0.24c-1.64,0.21-3.24-0.49-4.59-1.18c-0.9-0.46-2.05-2.46-2.29-3.44c-0.32-1.29,0.84-0.98,1.68-1.19
		c0.73-0.18,1.41-0.47,2.23-0.59c-0.32-0.85-0.38-1.64-1.21-1.99c-0.22-0.09-0.36,0.2-0.64,0.03c-0.43-0.25-0.82-0.55-1.23-0.84
		c-0.68-0.47-0.75-0.54-0.69-1.38c0.02-0.26,0.25-1.58,0.47-1.69c0.61-0.3,0.9-1.35,1.11-1.93c0.2-0.55,0.78-0.96,1.12-1.42
		c0.96-1.29,1.76-2.35,2.97-3.44c1.21-1.09,1.64-2.16,3.21-2.79c0.24-0.1,0.85-0.38,1.04-0.19c0.12,0.12,0.54,0.22,0.71,0.17
		c0.74-0.24,1.05,0.48,1.65,0.49c0.02,0,0.26-0.41,0.61-0.4c0.14,0.01,0.59,0.38,0.74,0.46c0.49,0.28,1.21,0.49,1.58,0.91
		c0.58,0.66,1.06,1.38,1.61,2.04c0.44,0.52,0.38,1.29,0.92,1.75C83.14,103.12,83.63,106.35,83.44,107.36"/>
	<path class="st1" d="M57.48,113.26c-0.42,0.1-0.85,0.83-1.15,1.15c-0.46,0.48-1.27,0.71-1.65,1.2c-0.34,0.44-0.82,1.08-1.31,1.32
		c-2.42,1.17-5.56,3.09-8.17,3.47c-1.21,0.18-3.77,0.88-4.91,0.23c-0.59-0.33-1.16,0.16-1.77-0.09c-0.77-0.32-1.38-0.74-2.09-1.1
		c-0.2-0.1-0.67,0.01-0.78-0.2c-0.1-0.19-0.2-0.4-0.37-0.53c-0.66-0.52-1.08-0.76-1.48-1.52c-0.27-0.51-1.18-1.39-0.88-1.92
		c-1.78-1.67-1.46-5.19-1.6-7.37c-0.04-0.57,0.25-1.07,0.32-1.63c0.07-0.59-0.06-1.18,0.07-1.76c0.28-1.25,0.59-2.34,0.94-3.57
		c0.68-2.32,1.86-4.18,3.24-6.22c1.14-1.69,2.58-3.55,4.12-4.87c0.64-0.55,1.52-1.28,2-1.91l0.99-1.27c0.1-0.13,0.03-0.42-0.15-0.28
		c-1.28,1.01-2.54,2.05-3.82,3.03c-0.68,0.52-1.22,1.29-1.86,1.89c-0.49,0.46-0.98,0.89-1.45,1.36c-1.32,1.29-2.26,2.51-3.14,4.07
		c-0.64,1.14-1.49,2.49-2.12,3.84c-0.3,0.65-1.31,1.83-1.01,0.37c0.15-0.74,0.05-1.47,0.2-2.22c0.35-1.76,1.19-3.68,2.25-5.01
		c0.27-0.33,0.13-0.89,0.52-1.12c0.32-0.19,0.54-0.54,0.78-0.83c0.47-0.57,2.92-2.75,3.58-3.18c0.82-0.53,1.51-1.26,2.29-1.85
		c1.77-1.33,3.78-2.25,5.87-2.71c1.82-0.4,3.73-0.93,5.67-0.99c0.8-0.03,2.05-0.01,2.97,0.07c0.43,0.04,2.13,0.56,1.69-0.26
		c0.23-0.44,1.19-1.41,1.21-1.32c1.08-0.48,0.43-1.33-0.6-1.33c-0.53,0-1.89-0.14-2.5-0.13c-1.3,0.01-2.65,0.28-3.95,0.42
		c-0.62,0.07-4.86,1.42-6.26,2.12c-6.43,3.23-12.43,8.58-15.91,14.87c-0.32,0.58-0.79,1.7-1.25,2.15c-0.51,0.5-0.48,1.39-0.82,2
		c-0.35,0.63-0.58,1.95-0.76,2.67c-0.23,0.93-0.14,1.91-0.14,2.85c0,1.77,1.15,3.83,2.11,5.28c0.2,0.3,0.78,0.41,0.89,0.76
		c0.14,0.48,0.38,1,0.45,1.5c0.12,0.89,0.1,1.57,0.47,2.45c1.09,2.63,2.69,4.72,5.31,5.87c1.96,0.86,3.76,1.27,5.9,1.32
		c0.99,0.02,1.86,0,2.83-0.24c0.14-0.03,1.2,0.19,1.68-0.16c1.42-1.05,3.43-1.52,5.05-2.2c0.91-0.38,1.67-0.87,2.48-1.48
		c0.7-0.52,1.21-1.33,2.03-1.6c0.57-0.19,1.31-0.97,1.71-1.44c0.35-0.41,0.31-0.75,0.61-1.13c0.1-0.12,0.66-0.38,0.88-0.6
		c0.35-0.35,0.65-0.79,0.97-1.17c0.44-0.54,0.82-0.89,1.12-1.54c0.11-0.29,0.23-0.57,0.34-0.86
		C58.41,111.98,58.19,113.08,57.48,113.26"/>
	<path class="st1" d="M112.17,102.53c0-1.02-0.38-2.14-0.93-3c-0.34-0.53-1.27-0.36-0.89,0.32c-0.67,0.3-2-1.98-2.6-2.45
		c-1.18-0.92-1.53-2.15-3.14-2.28c-1.36-0.11-2.62,0.57-3.93,0.83c-1.52,0.3-2.93,1.24-4.31,1.92c-2.13,1.04-4.11,2.81-5.49,4.67
		c-0.88,1.2-1.84,2.37-2.33,3.79c-0.21,0.63-0.34,1.08-0.34,1.77c0,0.94,0.25,0.93,0.61,1.74c0.36,0.82,0.77,1.38,0.69,2.34
		c-0.07,0.75-0.27,1.5-0.36,2.25c-0.19,1.68,0.25,2.95,0.73,4.48c0.45,1.45,2.21,3.03,3.7,3.4c1.98,0.49,3.6,0.33,5.5-0.22
		c1.43-0.42,3.84-1.12,4.72-2.41c0.77-1.14,2.01-2.34,2.98-3.29c1.12-1.1,2.24-2.68,3.03-4.03c0.53-0.91,1.06-1.82,1.59-2.74
		c0.08-0.13-0.18-0.77-0.18-0.84c0.03-0.38,0.41-0.58,0.34-1.06C112.29,105.8,112.17,104.45,112.17,102.53 M90.98,107.99
		c-0.39,0.88-0.56-1.71-0.47-2.18c0.16-0.84,0.83-1.67,1.42-2.25c0.67-0.66,1.18-1.5,1.75-2.22c0.6-0.75,1.68-1.3,2.44-1.88
		c1.07,0.3-2.38,3.3-2.53,3.9c-0.14,0.54-0.59,0.72-0.76,1.19c-0.13,0.36-0.25,0.8-0.42,1.13C92.13,106.2,91.38,107.89,90.98,107.99
		 M110.08,107.36c-0.33,1.7-0.93,3.21-1.66,4.77c-1.15,2.45-3.16,4.74-5.46,6.1c-0.67,0.39-1.4,0.55-2.04,0.97
		c-0.44,0.29-1.58,0.16-2.17,0.24c-1.64,0.21-3.24-0.49-4.59-1.18c-0.9-0.46-2.05-2.46-2.29-3.44c-0.32-1.29,0.84-0.98,1.68-1.19
		c0.73-0.18,1.41-0.47,2.23-0.59c-0.32-0.85-0.38-1.64-1.21-1.99c-0.22-0.09-0.36,0.2-0.64,0.03c-0.43-0.25-0.82-0.55-1.23-0.84
		c-0.68-0.47-0.75-0.54-0.69-1.38c0.02-0.26,0.25-1.58,0.47-1.69c0.61-0.3,0.9-1.35,1.11-1.93c0.2-0.55,0.78-0.96,1.12-1.42
		c0.96-1.29,1.76-2.35,2.97-3.44c1.21-1.09,1.64-2.16,3.21-2.79c0.24-0.1,0.85-0.38,1.04-0.19c0.12,0.12,0.54,0.22,0.71,0.17
		c0.74-0.24,1.05,0.48,1.65,0.49c0.02,0,0.26-0.41,0.61-0.4c0.14,0.01,0.6,0.38,0.74,0.46c0.49,0.28,1.21,0.49,1.58,0.91
		c0.58,0.66,1.06,1.38,1.61,2.04c0.44,0.52,0.38,1.29,0.92,1.75C109.77,103.12,110.27,106.35,110.08,107.36"/>
	<path class="st1" d="M171.05,107.35c-0.96-0.5-1.54-0.88-2.6-0.87c-1.86,0.01-3.6,0.52-5.37,1.16c-0.79,0.29-1.66,0.39-2.47,0.68
		c-0.81,0.29-1.63,0.7-2.49,0.79c-1.88,0.2-3.62,0.65-4.32-1.57c-0.44-1.39,0.85-3.1,1.69-4.24c2.06-2.76,5.34-4.7,8.32-6.33
		c0.85-0.46,1.98-0.64,2.9-0.93c0.35-0.11,2.08,0,2.27,0.28c0.69,1.01,0.91,1.21,1.1,2.52c0.03,0.17,0.16,0.66,0.45,0.36
		c0.14-0.14-0.05-1.1-0.07-1.32c0.35-0.03,0.43-0.46,0.54-0.86c0.04-0.51,0.21-1.04-0.4-0.99c0.34-0.82,0.47-1.49-0.34-2.18
		c-0.76-0.65-1.19-0.45-2.1-0.38c-2.05,0.15-4.27,1.11-5.89,2.45c-3.6,2.97-6.52,5.5-9.14,9.08c-1.01,1.38-1.86,3.3-2.31,4.99
		c-0.49,1.87,0.67,2.8,2.07,3.71c0.59,0.39,1.97,0.23,2.66,0.14c0.45-0.06,2.02-0.62,2.39-0.39c0.38,0.25,1.66-0.27,2.09-0.4
		c0.93-0.3,1.66-0.77,2.53-1.12c1.11-0.44,4.25-1.95,5.2-0.79c0.99,1.22,0.57,3.4-0.63,4.37c-0.78,0.64-1.08,1.62-1.81,2.25
		c-0.58,0.51-1.36,1.09-2.03,1.51c-1.21,0.76-3.76,1.43-5.19,1.51c-1.45,0.09-3.1-0.09-4.54-0.47c-0.82-0.21-1.67,0.25-2.45,0.59
		c-1.02,0.44-0.66,1.1,0.42,1.17c1.56,0.1,2.86,1.04,4.68,0.94c1.8-0.1,3.71-0.62,5.33-1.41c1.8-0.88,3.33-2.17,4.9-3.41
		c1.37-1.07,2.25-2.6,3.31-4.02c0.97-1.3,2.13-3.2,1.8-4.85C171.46,108.76,171.89,107.8,171.05,107.35"/>
</g>
</svg>
