<?xml version="1.0" encoding="utf-8"?>
<!-- Generator: Adobe Illustrator 28.0.0, SVG Export Plug-In . SVG Version: 6.00 Build 0)  -->
<svg version="1.1" id="Layer_1" xmlns="http://www.w3.org/2000/svg" xmlns:xlink="http://www.w3.org/1999/xlink" x="0px" y="0px"
	 viewBox="0 0 198.43 198.43" style="enable-background:new 0 0 198.43 198.43;" xml:space="preserve">
<style type="text/css">
	.st0{fill:#637361;}
	.st1{fill:#D7B369;}
	.st2{fill-rule:evenodd;clip-rule:evenodd;fill:#637361;}
	.st3{fill:none;stroke:#1B1918;stroke-width:0.042;stroke-miterlimit:3.864;}
</style>
<g>
	<g>
		<path class="st0" d="M74.73,101.35l1.4,0.35c-0.29,1.15-0.82,2.02-1.58,2.63c-0.76,0.6-1.69,0.9-2.79,0.9
			c-1.14,0-2.07-0.23-2.78-0.7c-0.71-0.46-1.26-1.14-1.63-2.02c-0.37-0.88-0.56-1.82-0.56-2.83c0-1.1,0.21-2.06,0.63-2.88
			c0.42-0.82,1.02-1.44,1.8-1.87c0.78-0.43,1.63-0.64,2.56-0.64c1.06,0,1.95,0.27,2.67,0.81c0.72,0.54,1.22,1.3,1.51,2.27
			l-1.38,0.32c-0.25-0.77-0.6-1.33-1.07-1.68c-0.47-0.35-1.05-0.53-1.76-0.53c-0.81,0-1.49,0.19-2.04,0.58
			c-0.55,0.39-0.93,0.91-1.15,1.57c-0.22,0.66-0.33,1.33-0.33,2.03c0,0.9,0.13,1.68,0.39,2.35c0.26,0.67,0.67,1.17,1.22,1.5
			c0.55,0.33,1.15,0.5,1.8,0.5c0.78,0,1.45-0.23,1.99-0.68C74.17,102.91,74.53,102.24,74.73,101.35 M77.42,99.91
			c0-1.75,0.47-3.13,1.41-4.12c0.94-0.99,2.16-1.49,3.65-1.49c0.98,0,1.86,0.23,2.64,0.7c0.78,0.47,1.38,1.12,1.79,1.95
			c0.41,0.83,0.62,1.78,0.62,2.84c0,1.07-0.22,2.03-0.65,2.88s-1.05,1.49-1.84,1.92c-0.79,0.44-1.65,0.65-2.57,0.65
			c-0.99,0-1.88-0.24-2.67-0.72c-0.78-0.48-1.38-1.14-1.78-1.97C77.62,101.71,77.42,100.84,77.42,99.91 M78.86,99.93
			c0,1.27,0.34,2.28,1.03,3.01c0.69,0.73,1.54,1.1,2.58,1.1c1.05,0,1.92-0.37,2.6-1.11c0.68-0.74,1.02-1.79,1.02-3.15
			c0-0.86-0.15-1.61-0.44-2.25c-0.29-0.64-0.72-1.14-1.28-1.49c-0.56-0.35-1.19-0.53-1.89-0.53c-0.99,0-1.84,0.34-2.56,1.02
			C79.22,97.2,78.86,98.34,78.86,99.93 M88.89,99.91c0-1.75,0.47-3.13,1.41-4.12c0.94-0.99,2.16-1.49,3.65-1.49
			c0.98,0,1.86,0.23,2.64,0.7c0.78,0.47,1.38,1.12,1.79,1.95C98.8,97.78,99,98.73,99,99.78c0,1.07-0.22,2.03-0.65,2.88
			c-0.43,0.85-1.05,1.49-1.84,1.92c-0.79,0.44-1.65,0.65-2.57,0.65c-0.99,0-1.88-0.24-2.67-0.72c-0.78-0.48-1.38-1.14-1.78-1.97
			C89.1,101.71,88.89,100.84,88.89,99.91 M90.34,99.93c0,1.27,0.34,2.28,1.03,3.01c0.69,0.73,1.54,1.1,2.58,1.1
			c1.05,0,1.92-0.37,2.6-1.11c0.68-0.74,1.02-1.79,1.02-3.15c0-0.86-0.15-1.61-0.44-2.25c-0.29-0.64-0.72-1.14-1.28-1.49
			c-0.56-0.35-1.19-0.53-1.89-0.53c-0.99,0-1.84,0.34-2.56,1.02C90.69,97.2,90.34,98.34,90.34,99.93 M100.79,105.06V94.49h3.99
			c0.7,0,1.24,0.03,1.61,0.1c0.52,0.09,0.95,0.25,1.31,0.49c0.35,0.24,0.63,0.58,0.85,1.02c0.21,0.44,0.32,0.92,0.32,1.44
			c0,0.9-0.29,1.66-0.86,2.28c-0.57,0.62-1.61,0.93-3.1,0.93h-2.71v4.3H100.79z M102.19,99.51h2.73c0.9,0,1.55-0.17,1.93-0.5
			c0.38-0.34,0.57-0.81,0.57-1.42c0-0.44-0.11-0.82-0.34-1.14c-0.22-0.31-0.52-0.52-0.88-0.62c-0.24-0.06-0.67-0.09-1.31-0.09h-2.7
			V99.51z M110.65,105.06V94.49h4.69c0.94,0,1.66,0.1,2.15,0.28c0.49,0.19,0.88,0.53,1.18,1.01c0.29,0.48,0.44,1.01,0.44,1.59
			c0,0.75-0.24,1.38-0.73,1.9c-0.49,0.51-1.24,0.84-2.25,0.98c0.37,0.18,0.65,0.35,0.84,0.53c0.41,0.37,0.8,0.84,1.16,1.41
			l1.84,2.88h-1.76l-1.4-2.2c-0.41-0.63-0.75-1.12-1.01-1.46c-0.26-0.34-0.5-0.57-0.71-0.71c-0.21-0.13-0.42-0.23-0.64-0.28
			c-0.16-0.03-0.42-0.05-0.78-0.05h-1.62v4.69H110.65z M112.05,99.15h3.01c0.64,0,1.14-0.07,1.5-0.2c0.36-0.13,0.63-0.34,0.82-0.63
			c0.19-0.29,0.28-0.61,0.28-0.95c0-0.5-0.18-0.91-0.54-1.23c-0.36-0.32-0.94-0.48-1.72-0.48h-3.35V99.15z M120.86,99.91
			c0-1.75,0.47-3.13,1.41-4.12c0.94-0.99,2.16-1.49,3.65-1.49c0.98,0,1.86,0.23,2.64,0.7c0.78,0.47,1.38,1.12,1.79,1.95
			c0.41,0.83,0.62,1.78,0.62,2.84c0,1.07-0.22,2.03-0.65,2.88c-0.43,0.85-1.05,1.49-1.84,1.92c-0.79,0.44-1.65,0.65-2.57,0.65
			c-0.99,0-1.88-0.24-2.67-0.72c-0.78-0.48-1.38-1.14-1.78-1.97C121.07,101.71,120.86,100.84,120.86,99.91 M122.31,99.93
			c0,1.27,0.34,2.28,1.03,3.01c0.69,0.73,1.54,1.1,2.58,1.1c1.05,0,1.92-0.37,2.6-1.11c0.68-0.74,1.02-1.79,1.02-3.15
			c0-0.86-0.15-1.61-0.44-2.25c-0.29-0.64-0.72-1.14-1.28-1.49c-0.56-0.35-1.19-0.53-1.89-0.53c-0.99,0-1.84,0.34-2.56,1.02
			C122.66,97.2,122.31,98.34,122.31,99.93 M137.71,100.91v-1.24l4.48-0.01v3.92c-0.69,0.55-1.4,0.96-2.13,1.24
			c-0.73,0.28-1.48,0.41-2.25,0.41c-1.04,0-1.98-0.22-2.83-0.67c-0.85-0.44-1.49-1.09-1.92-1.93c-0.43-0.84-0.65-1.78-0.65-2.82
			c0-1.03,0.21-1.99,0.65-2.88c0.43-0.89,1.05-1.55,1.86-1.99s1.74-0.65,2.79-0.65c0.76,0,1.46,0.12,2.07,0.37
			c0.62,0.25,1.1,0.59,1.45,1.03c0.35,0.44,0.62,1.02,0.8,1.73l-1.26,0.35c-0.16-0.54-0.36-0.96-0.59-1.27
			c-0.24-0.31-0.57-0.55-1.01-0.74c-0.44-0.19-0.92-0.28-1.46-0.28c-0.64,0-1.19,0.1-1.66,0.29c-0.47,0.19-0.84,0.45-1.13,0.77
			c-0.29,0.32-0.51,0.67-0.67,1.05c-0.27,0.65-0.4,1.36-0.4,2.13c0,0.94,0.16,1.73,0.49,2.36c0.32,0.63,0.8,1.11,1.42,1.41
			c0.62,0.31,1.28,0.46,1.98,0.46c0.61,0,1.2-0.12,1.77-0.35c0.58-0.23,1.01-0.48,1.31-0.75v-1.97H137.71z M144.26,105.06V94.49
			h4.69c0.94,0,1.66,0.1,2.15,0.28c0.49,0.19,0.88,0.53,1.18,1.01c0.29,0.48,0.44,1.01,0.44,1.59c0,0.75-0.24,1.38-0.73,1.9
			c-0.49,0.51-1.24,0.84-2.25,0.98c0.37,0.18,0.65,0.35,0.84,0.53c0.41,0.37,0.8,0.84,1.16,1.41l1.84,2.88h-1.76l-1.4-2.2
			c-0.41-0.63-0.75-1.12-1.01-1.46c-0.26-0.34-0.5-0.57-0.71-0.71c-0.21-0.13-0.42-0.23-0.64-0.28c-0.16-0.03-0.42-0.05-0.78-0.05
			h-1.62v4.69H144.26z M145.66,99.15h3.01c0.64,0,1.14-0.07,1.5-0.2c0.36-0.13,0.63-0.34,0.82-0.63c0.19-0.29,0.28-0.61,0.28-0.95
			c0-0.5-0.18-0.91-0.54-1.23c-0.36-0.32-0.94-0.48-1.72-0.48h-3.35V99.15z M154.93,105.06V94.49h7.64v1.25h-6.24v3.24h5.85v1.24
			h-5.85v3.6h6.49v1.25H154.93z M164.26,101.66l1.32-0.12c0.06,0.53,0.21,0.96,0.44,1.3c0.23,0.34,0.58,0.61,1.06,0.82
			c0.48,0.21,1.02,0.31,1.62,0.31c0.53,0,1-0.08,1.41-0.24c0.41-0.16,0.71-0.38,0.91-0.65c0.2-0.28,0.3-0.58,0.3-0.91
			c0-0.33-0.1-0.62-0.29-0.87c-0.19-0.25-0.51-0.46-0.95-0.62c-0.28-0.11-0.91-0.28-1.88-0.52c-0.97-0.23-1.65-0.45-2.04-0.66
			c-0.5-0.26-0.88-0.59-1.13-0.98c-0.25-0.39-0.37-0.83-0.37-1.32c0-0.53,0.15-1.03,0.45-1.5c0.3-0.46,0.74-0.82,1.33-1.06
			c0.58-0.24,1.23-0.36,1.94-0.36c0.78,0,1.47,0.13,2.07,0.38c0.6,0.25,1.06,0.62,1.38,1.11c0.32,0.49,0.5,1.05,0.52,1.67l-1.34,0.1
			c-0.07-0.67-0.32-1.17-0.73-1.51c-0.42-0.34-1.03-0.51-1.84-0.51c-0.85,0-1.46,0.15-1.85,0.46c-0.39,0.31-0.58,0.68-0.58,1.12
			c0,0.38,0.14,0.69,0.41,0.94c0.27,0.25,0.97,0.5,2.11,0.75c1.14,0.26,1.92,0.48,2.34,0.67c0.62,0.28,1.07,0.64,1.36,1.08
			c0.29,0.44,0.44,0.94,0.44,1.5c0,0.56-0.16,1.09-0.48,1.59c-0.32,0.5-0.78,0.88-1.39,1.16c-0.6,0.28-1.28,0.41-2.04,0.41
			c-0.96,0-1.76-0.14-2.4-0.42c-0.65-0.28-1.15-0.7-1.52-1.26C164.47,103,164.28,102.37,164.26,101.66 M174.14,99.91
			c0-1.75,0.47-3.13,1.41-4.12c0.94-0.99,2.16-1.49,3.65-1.49c0.98,0,1.86,0.23,2.64,0.7c0.78,0.47,1.38,1.12,1.79,1.95
			c0.41,0.83,0.62,1.78,0.62,2.84c0,1.07-0.22,2.03-0.65,2.88c-0.43,0.85-1.05,1.49-1.84,1.92c-0.79,0.44-1.65,0.65-2.57,0.65
			c-0.99,0-1.88-0.24-2.67-0.72c-0.78-0.48-1.38-1.14-1.78-1.97C174.35,101.71,174.14,100.84,174.14,99.91 M175.59,99.93
			c0,1.27,0.34,2.28,1.03,3.01c0.68,0.73,1.54,1.1,2.58,1.1c1.05,0,1.92-0.37,2.6-1.11c0.68-0.74,1.02-1.79,1.02-3.15
			c0-0.86-0.15-1.61-0.44-2.25c-0.29-0.64-0.72-1.14-1.28-1.49c-0.56-0.35-1.19-0.53-1.89-0.53c-0.99,0-1.84,0.34-2.56,1.02
			C175.94,97.2,175.59,98.34,175.59,99.93"/>
		<path class="st1" d="M66.25,109.9l0.73,0.19c-0.15,0.6-0.43,1.06-0.83,1.38c-0.4,0.32-0.89,0.47-1.46,0.47
			c-0.6,0-1.08-0.12-1.45-0.36c-0.37-0.24-0.66-0.59-0.85-1.05c-0.2-0.46-0.29-0.95-0.29-1.48c0-0.58,0.11-1.08,0.33-1.51
			c0.22-0.43,0.53-0.75,0.94-0.98c0.41-0.22,0.85-0.33,1.34-0.33c0.55,0,1.02,0.14,1.4,0.42c0.38,0.28,0.64,0.68,0.79,1.19
			l-0.72,0.17c-0.13-0.4-0.31-0.7-0.56-0.88c-0.24-0.18-0.55-0.28-0.92-0.28c-0.43,0-0.78,0.1-1.07,0.31
			c-0.29,0.2-0.49,0.48-0.6,0.82c-0.12,0.34-0.17,0.7-0.17,1.06c0,0.47,0.07,0.88,0.21,1.23c0.14,0.35,0.35,0.61,0.64,0.79
			c0.29,0.17,0.6,0.26,0.94,0.26c0.41,0,0.76-0.12,1.04-0.35C65.95,110.72,66.15,110.37,66.25,109.9 M67.54,109.84
			c0-0.74,0.21-1.29,0.62-1.65c0.34-0.3,0.76-0.45,1.26-0.45c0.55,0,1,0.18,1.35,0.54c0.35,0.36,0.52,0.86,0.52,1.5
			c0,0.52-0.08,0.92-0.23,1.22c-0.15,0.3-0.38,0.53-0.68,0.69c-0.3,0.16-0.62,0.25-0.97,0.25c-0.56,0-1.01-0.18-1.36-0.54
			C67.71,111.03,67.54,110.51,67.54,109.84 M68.24,109.84c0,0.51,0.11,0.9,0.34,1.15c0.22,0.26,0.51,0.38,0.85,0.38
			c0.34,0,0.62-0.13,0.84-0.38c0.22-0.26,0.34-0.65,0.34-1.17c0-0.5-0.11-0.87-0.34-1.13c-0.23-0.26-0.51-0.38-0.84-0.38
			c-0.34,0-0.62,0.13-0.85,0.38C68.35,108.94,68.24,109.32,68.24,109.84 M72.09,111.84v-4.01h0.61v0.56c0.13-0.2,0.29-0.35,0.5-0.47
			c0.21-0.12,0.45-0.18,0.71-0.18c0.3,0,0.54,0.06,0.73,0.19c0.19,0.12,0.32,0.3,0.4,0.52c0.32-0.47,0.73-0.7,1.24-0.7
			c0.4,0,0.7,0.11,0.92,0.33c0.21,0.22,0.32,0.56,0.32,1.02v2.75h-0.68v-2.52c0-0.27-0.02-0.47-0.07-0.59
			c-0.04-0.12-0.12-0.22-0.24-0.29c-0.12-0.07-0.25-0.11-0.41-0.11c-0.28,0-0.52,0.09-0.7,0.28c-0.19,0.19-0.28,0.49-0.28,0.9v2.33
			h-0.68v-2.6c0-0.3-0.06-0.53-0.17-0.68c-0.11-0.15-0.29-0.23-0.54-0.23c-0.19,0-0.37,0.05-0.53,0.15
			c-0.16,0.1-0.28,0.25-0.35,0.44c-0.07,0.19-0.11,0.47-0.11,0.84v2.08H72.09z M78.53,113.38v-5.54h0.62v0.52
			c0.15-0.2,0.31-0.36,0.49-0.46c0.18-0.1,0.41-0.15,0.67-0.15c0.34,0,0.64,0.09,0.91,0.26c0.26,0.18,0.46,0.42,0.59,0.75
			c0.13,0.32,0.2,0.67,0.2,1.05c0,0.41-0.07,0.78-0.22,1.11c-0.15,0.33-0.36,0.58-0.64,0.75c-0.28,0.17-0.58,0.26-0.88,0.26
			c-0.23,0-0.43-0.05-0.61-0.14c-0.18-0.1-0.33-0.22-0.44-0.36v1.95H78.53z M79.14,109.86c0,0.52,0.1,0.9,0.31,1.14
			c0.21,0.25,0.46,0.37,0.76,0.37c0.3,0,0.56-0.13,0.78-0.38c0.22-0.26,0.32-0.65,0.32-1.19c0-0.51-0.11-0.89-0.32-1.15
			c-0.21-0.25-0.46-0.38-0.75-0.38c-0.29,0-0.55,0.14-0.77,0.41C79.26,108.95,79.14,109.34,79.14,109.86 M85.58,111.84
			c-0.07-0.14-0.12-0.31-0.14-0.49c-0.25,0.21-0.49,0.36-0.73,0.45c-0.23,0.09-0.48,0.13-0.75,0.13c-0.44,0-0.78-0.11-1.02-0.32
			c-0.24-0.22-0.35-0.49-0.35-0.82c0-0.2,0.04-0.38,0.13-0.54c0.09-0.16,0.21-0.29,0.35-0.39c0.14-0.1,0.31-0.17,0.49-0.22
			c0.13-0.04,0.33-0.07,0.6-0.1c0.55-0.07,0.95-0.14,1.21-0.23c0-0.09,0-0.15,0-0.18c0-0.28-0.06-0.47-0.19-0.59
			c-0.17-0.15-0.43-0.23-0.77-0.23c-0.32,0-0.56,0.06-0.71,0.17c-0.15,0.11-0.27,0.31-0.34,0.59l-0.66-0.09
			c0.06-0.28,0.16-0.51,0.3-0.69c0.14-0.17,0.34-0.31,0.6-0.4c0.26-0.09,0.56-0.14,0.91-0.14c0.34,0,0.62,0.04,0.83,0.12
			c0.21,0.08,0.37,0.18,0.47,0.3c0.1,0.12,0.17,0.28,0.21,0.46c0.02,0.12,0.03,0.32,0.03,0.63v0.91c0,0.63,0.01,1.03,0.04,1.2
			c0.03,0.17,0.09,0.33,0.17,0.48H85.58z M85.39,109.83c-0.25,0.1-0.62,0.19-1.11,0.26c-0.28,0.04-0.48,0.09-0.59,0.14
			c-0.12,0.05-0.21,0.12-0.27,0.22c-0.06,0.1-0.09,0.2-0.09,0.32c0,0.18,0.07,0.33,0.21,0.45c0.14,0.12,0.34,0.18,0.6,0.18
			c0.26,0,0.49-0.06,0.7-0.17c0.2-0.11,0.35-0.27,0.45-0.47c0.07-0.15,0.11-0.38,0.11-0.68V109.83z M87.12,111.84v-4.01h0.61v0.61
			c0.16-0.28,0.3-0.47,0.43-0.56c0.13-0.09,0.28-0.14,0.44-0.14c0.23,0,0.46,0.07,0.7,0.22l-0.23,0.63c-0.17-0.1-0.33-0.15-0.5-0.15
			c-0.15,0-0.28,0.04-0.4,0.13c-0.12,0.09-0.2,0.21-0.25,0.37c-0.08,0.24-0.11,0.51-0.11,0.79v2.1H87.12z M90.88,111.26
			c0.08,0,0.17-0.01,0.3-0.03l0.1,0.6c-0.19,0.04-0.36,0.06-0.51,0.06c-0.25,0-0.44-0.04-0.57-0.12c-0.14-0.08-0.23-0.18-0.29-0.31
			c-0.06-0.13-0.08-0.39-0.08-0.8v-2.31h-0.5v-0.53h0.5v-0.99l0.68-0.41v1.4h0.68v0.53H90.5v2.34c0,0.19,0.01,0.32,0.04,0.37
			s0.06,0.1,0.12,0.13C90.71,111.24,90.78,111.26,90.88,111.26 M91.84,106.31h0.68v0.78h-0.68V106.31z M91.84,107.83h0.68v4.01
			h-0.68V107.83z M93.55,111.84v-4.01h0.61v0.56c0.13-0.2,0.29-0.35,0.5-0.47c0.21-0.12,0.45-0.18,0.71-0.18
			c0.3,0,0.54,0.06,0.73,0.19c0.19,0.12,0.32,0.3,0.4,0.52c0.32-0.47,0.73-0.7,1.24-0.7c0.4,0,0.7,0.11,0.92,0.33
			s0.32,0.56,0.32,1.02v2.75h-0.68v-2.52c0-0.27-0.02-0.47-0.07-0.59c-0.04-0.12-0.12-0.22-0.24-0.29
			c-0.12-0.07-0.25-0.11-0.41-0.11c-0.28,0-0.52,0.09-0.7,0.28c-0.19,0.19-0.28,0.49-0.28,0.9v2.33h-0.68v-2.6
			c0-0.3-0.06-0.53-0.17-0.68c-0.11-0.15-0.29-0.23-0.54-0.23c-0.19,0-0.37,0.05-0.53,0.15c-0.16,0.1-0.28,0.25-0.35,0.44
			c-0.07,0.19-0.11,0.47-0.11,0.84v2.08H93.55z M99.74,109.84c0-0.74,0.21-1.29,0.62-1.65c0.34-0.3,0.76-0.45,1.26-0.45
			c0.55,0,1,0.18,1.35,0.54c0.35,0.36,0.52,0.86,0.52,1.5c0,0.52-0.08,0.92-0.23,1.22c-0.15,0.3-0.38,0.53-0.68,0.69
			c-0.3,0.16-0.62,0.25-0.97,0.25c-0.56,0-1.01-0.18-1.36-0.54C99.91,111.03,99.74,110.51,99.74,109.84 M100.44,109.84
			c0,0.51,0.11,0.9,0.34,1.15c0.22,0.26,0.51,0.38,0.85,0.38c0.34,0,0.62-0.13,0.84-0.38c0.22-0.26,0.34-0.65,0.34-1.17
			c0-0.5-0.11-0.87-0.34-1.13c-0.23-0.26-0.51-0.38-0.84-0.38c-0.34,0-0.62,0.13-0.85,0.38
			C100.55,108.94,100.44,109.32,100.44,109.84 M104.02,110.64l0.67-0.11c0.04,0.27,0.14,0.48,0.32,0.62
			c0.17,0.14,0.41,0.22,0.72,0.22c0.31,0,0.54-0.06,0.69-0.19c0.15-0.13,0.23-0.28,0.23-0.45c0-0.15-0.07-0.27-0.2-0.36
			c-0.09-0.06-0.32-0.14-0.69-0.23c-0.5-0.13-0.84-0.23-1.04-0.33c-0.19-0.09-0.34-0.22-0.44-0.38c-0.1-0.16-0.15-0.34-0.15-0.54
			c0-0.18,0.04-0.34,0.12-0.5c0.08-0.15,0.19-0.28,0.33-0.38c0.11-0.08,0.25-0.14,0.43-0.2c0.18-0.05,0.38-0.08,0.59-0.08
			c0.31,0,0.59,0.05,0.83,0.14c0.24,0.09,0.41,0.21,0.53,0.37c0.11,0.15,0.19,0.36,0.23,0.62l-0.66,0.09
			c-0.03-0.21-0.12-0.37-0.26-0.48c-0.14-0.12-0.35-0.17-0.61-0.17c-0.31,0-0.53,0.05-0.67,0.15c-0.13,0.1-0.2,0.22-0.2,0.36
			c0,0.09,0.03,0.17,0.08,0.24c0.06,0.07,0.14,0.13,0.26,0.18c0.07,0.03,0.27,0.08,0.6,0.17c0.48,0.13,0.82,0.23,1.01,0.32
			c0.19,0.08,0.34,0.2,0.45,0.36s0.16,0.35,0.16,0.58c0,0.23-0.07,0.44-0.2,0.64c-0.13,0.2-0.32,0.35-0.57,0.46
			c-0.25,0.11-0.53,0.16-0.85,0.16c-0.52,0-0.92-0.11-1.19-0.32C104.27,111.39,104.09,111.07,104.02,110.64 M110.28,106.31h0.68
			v5.53h-0.68V106.31z M111.76,109.84c0-0.74,0.21-1.29,0.62-1.65c0.34-0.3,0.76-0.45,1.26-0.45c0.55,0,1,0.18,1.35,0.54
			c0.35,0.36,0.52,0.86,0.52,1.5c0,0.52-0.08,0.92-0.23,1.22c-0.15,0.3-0.38,0.53-0.68,0.69c-0.3,0.16-0.62,0.25-0.97,0.25
			c-0.56,0-1.01-0.18-1.36-0.54C111.93,111.03,111.76,110.51,111.76,109.84 M112.46,109.84c0,0.51,0.11,0.9,0.34,1.15
			c0.22,0.26,0.51,0.38,0.85,0.38c0.34,0,0.62-0.13,0.84-0.38c0.22-0.26,0.34-0.65,0.34-1.17c0-0.5-0.11-0.87-0.34-1.13
			c-0.23-0.26-0.51-0.38-0.84-0.38c-0.34,0-0.62,0.13-0.85,0.38C112.57,108.94,112.46,109.32,112.46,109.84 M116.04,110.64
			l0.67-0.11c0.04,0.27,0.14,0.48,0.32,0.62c0.17,0.14,0.41,0.22,0.72,0.22c0.31,0,0.54-0.06,0.69-0.19
			c0.15-0.13,0.23-0.28,0.23-0.45c0-0.15-0.07-0.27-0.2-0.36c-0.09-0.06-0.32-0.14-0.69-0.23c-0.5-0.13-0.84-0.23-1.04-0.33
			c-0.19-0.09-0.34-0.22-0.44-0.38c-0.1-0.16-0.15-0.34-0.15-0.54c0-0.18,0.04-0.34,0.12-0.5c0.08-0.15,0.19-0.28,0.33-0.38
			c0.11-0.08,0.25-0.14,0.43-0.2c0.18-0.05,0.38-0.08,0.59-0.08c0.31,0,0.59,0.05,0.83,0.14c0.24,0.09,0.41,0.21,0.53,0.37
			c0.11,0.15,0.19,0.36,0.23,0.62l-0.66,0.09c-0.03-0.21-0.12-0.37-0.26-0.48c-0.14-0.12-0.35-0.17-0.61-0.17
			c-0.31,0-0.53,0.05-0.67,0.15c-0.13,0.1-0.2,0.22-0.2,0.36c0,0.09,0.03,0.17,0.08,0.24c0.06,0.07,0.14,0.13,0.26,0.18
			c0.07,0.03,0.27,0.08,0.6,0.17c0.48,0.13,0.82,0.23,1.01,0.32c0.19,0.08,0.34,0.2,0.45,0.36c0.11,0.16,0.16,0.35,0.16,0.58
			c0,0.23-0.07,0.44-0.2,0.64c-0.13,0.2-0.32,0.35-0.57,0.46c-0.25,0.11-0.53,0.16-0.85,0.16c-0.52,0-0.92-0.11-1.19-0.32
			C116.29,111.39,116.11,111.07,116.04,110.64 M122.32,111.84v-4.01h0.61v0.56c0.13-0.2,0.29-0.35,0.5-0.47
			c0.21-0.12,0.45-0.18,0.71-0.18c0.3,0,0.54,0.06,0.73,0.19c0.19,0.12,0.32,0.3,0.4,0.52c0.32-0.47,0.73-0.7,1.24-0.7
			c0.4,0,0.7,0.11,0.92,0.33c0.21,0.22,0.32,0.56,0.32,1.02v2.75h-0.68v-2.52c0-0.27-0.02-0.47-0.07-0.59
			c-0.04-0.12-0.12-0.22-0.24-0.29c-0.12-0.07-0.25-0.11-0.41-0.11c-0.28,0-0.52,0.09-0.7,0.28c-0.19,0.19-0.28,0.49-0.28,0.9v2.33
			h-0.68v-2.6c0-0.3-0.06-0.53-0.17-0.68c-0.11-0.15-0.29-0.23-0.54-0.23c-0.19,0-0.37,0.05-0.53,0.15
			c-0.16,0.1-0.28,0.25-0.35,0.44c-0.07,0.19-0.11,0.47-0.11,0.84v2.08H122.32z M128.76,106.31h0.68v0.78h-0.68V106.31z
			 M128.76,107.83h0.68v4.01h-0.68V107.83z M130.2,110.64l0.67-0.11c0.04,0.27,0.14,0.48,0.32,0.62s0.41,0.22,0.72,0.22
			c0.31,0,0.54-0.06,0.69-0.19c0.15-0.13,0.23-0.28,0.23-0.45c0-0.15-0.07-0.27-0.2-0.36c-0.09-0.06-0.32-0.14-0.69-0.23
			c-0.5-0.13-0.84-0.23-1.04-0.33c-0.19-0.09-0.34-0.22-0.44-0.38c-0.1-0.16-0.15-0.34-0.15-0.54c0-0.18,0.04-0.34,0.12-0.5
			c0.08-0.15,0.19-0.28,0.33-0.38c0.11-0.08,0.25-0.14,0.43-0.2c0.18-0.05,0.38-0.08,0.59-0.08c0.31,0,0.59,0.05,0.83,0.14
			c0.24,0.09,0.41,0.21,0.53,0.37c0.11,0.15,0.19,0.36,0.23,0.62l-0.66,0.09c-0.03-0.21-0.12-0.37-0.26-0.48
			c-0.14-0.12-0.35-0.17-0.61-0.17c-0.31,0-0.53,0.05-0.67,0.15c-0.13,0.1-0.2,0.22-0.2,0.36c0,0.09,0.03,0.17,0.08,0.24
			c0.06,0.07,0.14,0.13,0.26,0.18c0.07,0.03,0.27,0.08,0.6,0.17c0.48,0.13,0.82,0.23,1.01,0.32c0.19,0.08,0.34,0.2,0.45,0.36
			c0.11,0.16,0.16,0.35,0.16,0.58c0,0.23-0.07,0.44-0.2,0.64c-0.13,0.2-0.32,0.35-0.57,0.46c-0.25,0.11-0.53,0.16-0.85,0.16
			c-0.52,0-0.92-0.11-1.19-0.32C130.45,111.39,130.27,111.07,130.2,110.64 M134.34,111.84v-4.01h0.61v0.56
			c0.13-0.2,0.29-0.35,0.5-0.47c0.21-0.12,0.45-0.18,0.71-0.18c0.3,0,0.54,0.06,0.73,0.19c0.19,0.12,0.32,0.3,0.4,0.52
			c0.32-0.47,0.73-0.7,1.24-0.7c0.4,0,0.7,0.11,0.92,0.33s0.32,0.56,0.32,1.02v2.75h-0.68v-2.52c0-0.27-0.02-0.47-0.07-0.59
			c-0.04-0.12-0.12-0.22-0.24-0.29c-0.12-0.07-0.25-0.11-0.41-0.11c-0.28,0-0.52,0.09-0.7,0.28c-0.19,0.19-0.28,0.49-0.28,0.9v2.33
			h-0.68v-2.6c0-0.3-0.06-0.53-0.17-0.68c-0.11-0.15-0.29-0.23-0.54-0.23c-0.19,0-0.37,0.05-0.53,0.15
			c-0.16,0.1-0.28,0.25-0.35,0.44c-0.07,0.19-0.11,0.47-0.11,0.84v2.08H134.34z M140.52,109.84c0-0.74,0.21-1.29,0.62-1.65
			c0.34-0.3,0.76-0.45,1.26-0.45c0.55,0,1,0.18,1.35,0.54c0.35,0.36,0.52,0.86,0.52,1.5c0,0.52-0.08,0.92-0.23,1.22
			s-0.38,0.53-0.68,0.69c-0.3,0.16-0.62,0.25-0.97,0.25c-0.56,0-1.01-0.18-1.36-0.54C140.69,111.03,140.52,110.51,140.52,109.84
			 M141.22,109.84c0,0.51,0.11,0.9,0.34,1.15c0.22,0.26,0.51,0.38,0.85,0.38c0.34,0,0.62-0.13,0.84-0.38
			c0.22-0.26,0.34-0.65,0.34-1.17c0-0.5-0.11-0.87-0.34-1.13c-0.23-0.26-0.51-0.38-0.84-0.38c-0.34,0-0.62,0.13-0.85,0.38
			C141.33,108.94,141.22,109.32,141.22,109.84 M144.8,110.64l0.67-0.11c0.04,0.27,0.14,0.48,0.32,0.62
			c0.17,0.14,0.41,0.22,0.72,0.22c0.31,0,0.54-0.06,0.69-0.19c0.15-0.13,0.23-0.28,0.23-0.45c0-0.15-0.07-0.27-0.2-0.36
			c-0.09-0.06-0.32-0.14-0.69-0.23c-0.5-0.13-0.84-0.23-1.04-0.33c-0.19-0.09-0.34-0.22-0.44-0.38c-0.1-0.16-0.15-0.34-0.15-0.54
			c0-0.18,0.04-0.34,0.12-0.5c0.08-0.15,0.19-0.28,0.33-0.38c0.11-0.08,0.25-0.14,0.43-0.2c0.18-0.05,0.38-0.08,0.59-0.08
			c0.31,0,0.59,0.05,0.83,0.14c0.24,0.09,0.41,0.21,0.53,0.37c0.11,0.15,0.19,0.36,0.23,0.62l-0.66,0.09
			c-0.03-0.21-0.12-0.37-0.26-0.48c-0.14-0.12-0.35-0.17-0.61-0.17c-0.31,0-0.53,0.05-0.67,0.15c-0.13,0.1-0.2,0.22-0.2,0.36
			c0,0.09,0.03,0.17,0.08,0.24c0.06,0.07,0.14,0.13,0.26,0.18c0.07,0.03,0.27,0.08,0.6,0.17c0.48,0.13,0.82,0.23,1.01,0.32
			c0.19,0.08,0.34,0.2,0.45,0.36s0.16,0.35,0.16,0.58c0,0.23-0.07,0.44-0.2,0.64c-0.13,0.2-0.32,0.35-0.57,0.46
			c-0.25,0.11-0.53,0.16-0.85,0.16c-0.52,0-0.92-0.11-1.19-0.32C145.05,111.39,144.87,111.07,144.8,110.64 M151.08,106.31h0.68v0.78
			h-0.68V106.31z M151.08,107.83h0.68v4.01h-0.68V107.83z M152.79,111.84v-4.01h0.61v0.57c0.29-0.44,0.72-0.66,1.28-0.66
			c0.24,0,0.46,0.04,0.67,0.13c0.2,0.09,0.35,0.2,0.45,0.34c0.1,0.14,0.17,0.31,0.21,0.5c0.03,0.13,0.04,0.35,0.04,0.66v2.46h-0.68
			v-2.44c0-0.28-0.03-0.48-0.08-0.62c-0.05-0.14-0.15-0.25-0.28-0.33c-0.13-0.08-0.29-0.12-0.47-0.12c-0.29,0-0.54,0.09-0.75,0.28
			c-0.21,0.18-0.32,0.53-0.32,1.05v2.19H152.79z M158.28,111.26c0.08,0,0.17-0.01,0.3-0.03l0.1,0.6c-0.19,0.04-0.36,0.06-0.51,0.06
			c-0.25,0-0.44-0.04-0.57-0.12c-0.14-0.08-0.23-0.18-0.29-0.31c-0.06-0.13-0.08-0.39-0.08-0.8v-2.31h-0.5v-0.53h0.5v-0.99
			l0.68-0.41v1.4h0.68v0.53h-0.68v2.34c0,0.19,0.01,0.32,0.04,0.37c0.02,0.06,0.06,0.1,0.12,0.13
			C158.1,111.24,158.17,111.26,158.28,111.26 M161.98,110.55l0.7,0.09c-0.11,0.41-0.32,0.73-0.62,0.95
			c-0.3,0.23-0.68,0.34-1.15,0.34c-0.59,0-1.05-0.18-1.39-0.54c-0.34-0.36-0.52-0.87-0.52-1.52c0-0.67,0.17-1.2,0.52-1.57
			c0.35-0.37,0.8-0.56,1.35-0.56c0.54,0,0.97,0.18,1.31,0.55c0.34,0.36,0.51,0.88,0.51,1.54c0,0.04,0,0.1,0,0.18h-2.99
			c0.03,0.44,0.15,0.78,0.37,1.01c0.22,0.23,0.5,0.35,0.84,0.35c0.25,0,0.46-0.07,0.64-0.2
			C161.73,111.05,161.87,110.84,161.98,110.55 M159.74,109.45h2.24c-0.03-0.34-0.12-0.59-0.26-0.76c-0.22-0.26-0.5-0.39-0.84-0.39
			c-0.31,0-0.57,0.1-0.79,0.31C159.89,108.82,159.77,109.1,159.74,109.45 M163.52,111.84v-4.01h0.61v0.61
			c0.16-0.28,0.3-0.47,0.43-0.56c0.13-0.09,0.28-0.14,0.44-0.14c0.23,0,0.46,0.07,0.7,0.22l-0.23,0.63c-0.17-0.1-0.33-0.15-0.5-0.15
			c-0.15,0-0.28,0.04-0.4,0.13c-0.12,0.09-0.2,0.21-0.25,0.37c-0.08,0.24-0.11,0.51-0.11,0.79v2.1H163.52z M168.85,110.55l0.7,0.09
			c-0.11,0.41-0.32,0.73-0.62,0.95c-0.3,0.23-0.68,0.34-1.15,0.34c-0.59,0-1.05-0.18-1.39-0.54c-0.34-0.36-0.52-0.87-0.52-1.52
			c0-0.67,0.17-1.2,0.52-1.57c0.35-0.37,0.8-0.56,1.35-0.56c0.54,0,0.97,0.18,1.31,0.55c0.34,0.36,0.51,0.88,0.51,1.54
			c0,0.04,0,0.1,0,0.18h-2.99c0.03,0.44,0.15,0.78,0.37,1.01c0.22,0.23,0.5,0.35,0.84,0.35c0.25,0,0.46-0.07,0.64-0.2
			C168.6,111.05,168.74,110.84,168.85,110.55 M166.62,109.45h2.24c-0.03-0.34-0.12-0.59-0.26-0.76c-0.22-0.26-0.5-0.39-0.84-0.39
			c-0.31,0-0.57,0.1-0.79,0.31C166.76,108.82,166.64,109.1,166.62,109.45 M170.13,110.64l0.67-0.11c0.04,0.27,0.14,0.48,0.32,0.62
			c0.17,0.14,0.41,0.22,0.72,0.22c0.31,0,0.54-0.06,0.69-0.19c0.15-0.13,0.23-0.28,0.23-0.45c0-0.15-0.07-0.27-0.2-0.36
			c-0.09-0.06-0.32-0.14-0.69-0.23c-0.5-0.13-0.84-0.23-1.04-0.33c-0.19-0.09-0.34-0.22-0.44-0.38c-0.1-0.16-0.15-0.34-0.15-0.54
			c0-0.18,0.04-0.34,0.12-0.5c0.08-0.15,0.19-0.28,0.33-0.38c0.11-0.08,0.25-0.14,0.43-0.2c0.18-0.05,0.38-0.08,0.59-0.08
			c0.31,0,0.59,0.05,0.83,0.14c0.24,0.09,0.41,0.21,0.53,0.37c0.11,0.15,0.19,0.36,0.23,0.62l-0.66,0.09
			c-0.03-0.21-0.12-0.37-0.26-0.48c-0.14-0.12-0.35-0.17-0.61-0.17c-0.31,0-0.53,0.05-0.67,0.15c-0.13,0.1-0.2,0.22-0.2,0.36
			c0,0.09,0.03,0.17,0.08,0.24c0.06,0.07,0.14,0.13,0.26,0.18c0.07,0.03,0.27,0.08,0.6,0.17c0.48,0.13,0.82,0.23,1.01,0.32
			s0.34,0.2,0.45,0.36c0.11,0.16,0.16,0.35,0.16,0.58c0,0.23-0.07,0.44-0.2,0.64c-0.13,0.2-0.32,0.35-0.57,0.46
			c-0.25,0.11-0.53,0.16-0.85,0.16c-0.52,0-0.92-0.11-1.19-0.32C170.38,111.39,170.2,111.07,170.13,110.64 M177.01,110.55l0.7,0.09
			c-0.11,0.41-0.32,0.73-0.62,0.95c-0.3,0.23-0.68,0.34-1.15,0.34c-0.59,0-1.05-0.18-1.39-0.54c-0.34-0.36-0.52-0.87-0.52-1.52
			c0-0.67,0.17-1.2,0.52-1.57c0.35-0.37,0.8-0.56,1.35-0.56c0.54,0,0.97,0.18,1.31,0.55c0.34,0.36,0.51,0.88,0.51,1.54
			c0,0.04,0,0.1,0,0.18h-2.99c0.03,0.44,0.15,0.78,0.37,1.01c0.22,0.23,0.5,0.35,0.84,0.35c0.25,0,0.46-0.07,0.64-0.2
			C176.77,111.05,176.91,110.84,177.01,110.55 M174.78,109.45h2.24c-0.03-0.34-0.12-0.59-0.26-0.76c-0.22-0.26-0.5-0.39-0.84-0.39
			c-0.31,0-0.57,0.1-0.79,0.31S174.8,109.1,174.78,109.45 M178.29,110.64l0.67-0.11c0.04,0.27,0.14,0.48,0.32,0.62
			c0.17,0.14,0.41,0.22,0.72,0.22c0.31,0,0.54-0.06,0.69-0.19c0.15-0.13,0.23-0.28,0.23-0.45c0-0.15-0.07-0.27-0.2-0.36
			c-0.09-0.06-0.32-0.14-0.69-0.23c-0.5-0.13-0.84-0.23-1.04-0.33c-0.19-0.09-0.34-0.22-0.44-0.38c-0.1-0.16-0.15-0.34-0.15-0.54
			c0-0.18,0.04-0.34,0.12-0.5c0.08-0.15,0.19-0.28,0.33-0.38c0.11-0.08,0.25-0.14,0.43-0.2c0.18-0.05,0.38-0.08,0.59-0.08
			c0.31,0,0.59,0.05,0.83,0.14c0.24,0.09,0.41,0.21,0.53,0.37c0.11,0.15,0.19,0.36,0.23,0.62l-0.66,0.09
			c-0.03-0.21-0.12-0.37-0.26-0.48s-0.35-0.17-0.61-0.17c-0.31,0-0.53,0.05-0.67,0.15c-0.13,0.1-0.2,0.22-0.2,0.36
			c0,0.09,0.03,0.17,0.08,0.24c0.06,0.07,0.14,0.13,0.26,0.18c0.07,0.03,0.27,0.08,0.6,0.17c0.48,0.13,0.82,0.23,1.01,0.32
			c0.19,0.08,0.34,0.2,0.45,0.36c0.11,0.16,0.16,0.35,0.16,0.58c0,0.23-0.07,0.44-0.2,0.64c-0.13,0.2-0.32,0.35-0.57,0.46
			c-0.25,0.11-0.53,0.16-0.85,0.16c-0.52,0-0.92-0.11-1.19-0.32C178.54,111.39,178.37,111.07,178.29,110.64"/>
		<polygon class="st2" points="14.17,95.85 35.2,103.96 35.2,108.17 14.17,100.06 		"/>
		<polygon class="st3" points="14.17,95.85 35.2,103.96 35.2,108.17 14.17,100.06 		"/>
		<polygon class="st2" points="36.39,108.2 39.97,108.2 39.97,98.92 39.97,90.84 38.18,89.71 36.39,90.84 		"/>
		<polygon class="st3" points="36.39,108.2 39.97,108.2 39.97,98.92 39.97,90.84 38.18,89.71 36.39,90.84 		"/>
		<polygon class="st2" points="25.67,95.86 35.2,99.53 35.2,103.14 25.67,99.47 		"/>
		<polygon class="st3" points="25.67,95.86 35.2,99.53 35.2,103.14 25.67,99.47 		"/>
		<polygon class="st2" points="31,96.78 35.26,94.81 35.26,91.19 26.74,95.14 		"/>
		<polygon class="st3" points="31,96.78 35.26,94.81 35.26,91.19 26.74,95.14 		"/>
		<polygon class="st2" points="62.19,95.85 41.16,103.96 41.16,108.17 62.19,100.06 		"/>
		<polygon class="st3" points="62.19,95.85 41.16,103.96 41.16,108.17 62.19,100.06 		"/>
		<polygon class="st2" points="50.69,95.86 41.16,99.53 41.16,103.14 50.69,99.47 		"/>
		<polygon class="st3" points="50.69,95.86 41.16,99.53 41.16,103.14 50.69,99.47 		"/>
		<polygon class="st2" points="19.81,97.15 36.86,89.26 36.86,85.05 14.85,95.24 		"/>
		<polygon class="st3" points="19.81,97.15 36.86,89.26 36.86,85.05 14.85,95.24 		"/>
		<polygon class="st2" points="56.55,97.15 39.5,89.26 39.5,85.05 61.51,95.24 		"/>
		<polygon class="st3" points="56.55,97.15 39.5,89.26 39.5,85.05 61.51,95.24 		"/>
		<polygon class="st2" points="45.36,96.78 41.1,94.81 41.1,91.19 49.62,95.14 		"/>
		<polygon class="st3" points="45.36,96.78 41.1,94.81 41.1,91.19 49.62,95.14 		"/>
	</g>
</g>
</svg>
