<?xml version="1.0" encoding="utf-8"?>
<!-- Generator: Adobe Illustrator 28.0.0, SVG Export Plug-In . SVG Version: 6.00 Build 0)  -->
<svg version="1.1" id="Layer_1" xmlns="http://www.w3.org/2000/svg" xmlns:xlink="http://www.w3.org/1999/xlink" x="0px" y="0px"
	 viewBox="0 0 198.43 198.43" style="enable-background:new 0 0 198.43 198.43;" xml:space="preserve">
<style type="text/css">
	
		.st0{clip-path:url(#SVGID_00000057145642123868071560000011969447817366001332_);fill:url(#SVGID_00000083059286540935817990000015637309887901510545_);}
	
		.st1{clip-path:url(#SVGID_00000037672170614088861870000014221296139009977481_);fill:none;stroke:#000000;stroke-width:1.689;stroke-miterlimit:2.414;}
	
		.st2{clip-path:url(#SVGID_00000152242570259134559610000008200485885710046366_);fill:url(#SVGID_00000018201436247195651590000010020462662443218106_);}
	
		.st3{clip-path:url(#SVGID_00000005263635736020783090000016497956169640964528_);fill:url(#SVGID_00000021825897864818064060000018304671518557739193_);}
	
		.st4{clip-path:url(#SVGID_00000096763725248879356100000006320264131834027915_);fill:none;stroke:#000000;stroke-width:1.689;stroke-miterlimit:2.414;}
	.st5{clip-path:url(#SVGID_00000183927736947665904500000006433620316948068009_);fill-rule:evenodd;clip-rule:evenodd;}
	
		.st6{clip-path:url(#SVGID_00000183927736947665904500000006433620316948068009_);fill:none;stroke:#231F20;stroke-width:0.13;stroke-miterlimit:2.414;}
</style>
<g>
	<g>
		<defs>
			<path id="SVGID_1_" d="M95.94,79.74c-7.61,0.31-13.05,1.01-17.03,1.89c-3.97,0.88-6.47,1.95-8.19,2.98c-3.45,2.07-2.78,5-2.78,5
				v8.05c0,0-0.67,2.93,2.78,5c1.72,1.03,4.22,2.1,8.19,2.98c3.97,0.88,9.42,1.59,17.03,1.89c7.18,0.29,14.23,0.35,21.28,0.3
				c7.05-0.04,14.1-0.19,21.27-0.3c7.59-0.09,14.68-0.25,19.87-1.59c5.19-1.34,8.48-3.68,8.47-8.5h-29.78c0,0,0.38,3.85-6.11,4.15
				c-6.49,0.3-10.94,0.38-10.94,0.38h-4.45c0,0-4.45-0.08-10.94-0.38c-6.49-0.3-6.11-4.15-6.11-4.15v-7.62c0,0-0.38-3.85,6.11-4.15
				c6.49-0.3,10.94-0.38,10.94-0.38h4.45c0,0,4.45,0.08,10.94,0.38c6.49,0.3,6.11,4.15,6.11,4.15l0,0.18h29.78
				c0.01-4.82-3.28-7.34-8.47-8.68c-5.19-1.34-12.28-1.5-19.87-1.59c-7.18-0.12-14.22-0.26-21.27-0.3
				c-1.34-0.01-2.69-0.01-4.04-0.01C107.48,79.42,101.75,79.5,95.94,79.74"/>
		</defs>
		<clipPath id="SVGID_00000105420207601087958580000016986094814960517769_">
			<use xlink:href="#SVGID_1_"  style="overflow:visible;"/>
		</clipPath>
		
			<linearGradient id="SVGID_00000021095825178934598930000010772210899420568767_" gradientUnits="userSpaceOnUse" x1="-134.5663" y1="220.3132" x2="-134.2463" y2="220.3132" gradientTransform="matrix(-239.1872 149.4608 149.4608 239.1872 -64959.1484 -32514.1582)">
			<stop  offset="0" style="stop-color:#000000"/>
			<stop  offset="0.14" style="stop-color:#000000"/>
			<stop  offset="0.86" style="stop-color:#FFFFFF"/>
			<stop  offset="1" style="stop-color:#FFFFFF"/>
		</linearGradient>
		
			<polygon style="clip-path:url(#SVGID_00000105420207601087958580000016986094814960517769_);fill:url(#SVGID_00000021095825178934598930000010772210899420568767_);" points="
			179.63,99.89 95.23,152.62 54.49,87.41 138.88,34.68 		"/>
	</g>
	<g>
		<defs>
			<rect id="SVGID_00000049189338477752185880000001117768316443595706_" x="24.26" y="60.45" width="149.9" height="77.52"/>
		</defs>
		<clipPath id="SVGID_00000013904074049241657400000005448605448389263258_">
			<use xlink:href="#SVGID_00000049189338477752185880000001117768316443595706_"  style="overflow:visible;"/>
		</clipPath>
		
			<path style="clip-path:url(#SVGID_00000013904074049241657400000005448605448389263258_);fill:none;stroke:#000000;stroke-width:1.689;stroke-miterlimit:2.414;" d="
			M166.82,97.44h-29.78c0,0,0.38,3.85-6.11,4.15c-6.49,0.3-10.94,0.38-10.94,0.38h-4.45c0,0-4.45-0.08-10.94-0.38
			c-6.49-0.3-6.11-4.15-6.11-4.15v-7.62c0,0-0.38-3.85,6.11-4.15c6.49-0.3,10.94-0.38,10.94-0.38h4.45c0,0,4.45,0.08,10.94,0.38
			c6.49,0.3,6.11,4.15,6.11,4.15l0,0.18h29.78c0.01-4.82-3.28-7.34-8.47-8.68c-5.19-1.34-12.28-1.5-19.87-1.59
			c-7.17-0.12-14.22-0.26-21.27-0.3c-7.05-0.04-14.1,0.01-21.28,0.3c-7.61,0.31-13.05,1.01-17.03,1.89
			c-3.97,0.88-6.47,1.95-8.19,2.98c-3.45,2.07-2.78,5-2.78,5v8.05c0,0-0.67,2.93,2.78,5c1.72,1.03,4.22,2.1,8.19,2.98
			c3.97,0.88,9.42,1.59,17.03,1.89c7.18,0.29,14.23,0.35,21.28,0.3c7.05-0.04,14.1-0.19,21.27-0.3c7.59-0.09,14.68-0.25,19.87-1.59
			C163.55,104.6,166.84,102.26,166.82,97.44z"/>
	</g>
	<g>
		<defs>
			<polygon id="SVGID_00000088815557102876545490000012174232576595354027_" points="77.78,67.22 77.11,67.22 76.45,67.23 
				75.79,67.23 75.12,67.23 74.46,67.24 73.79,67.24 73.13,67.25 72.46,67.25 71.8,67.26 71.13,67.27 70.46,67.28 69.8,67.29 
				69.13,67.3 68.46,67.32 67.79,67.33 67.12,67.35 66.45,67.36 65.78,67.38 65.11,67.4 64.44,67.42 63.77,67.44 63.09,67.46 
				62.42,67.49 61.74,67.51 61.07,67.54 60.36,67.57 59.66,67.6 58.97,67.64 58.29,67.67 57.63,67.71 56.98,67.75 56.34,67.8 
				55.71,67.84 55.09,67.89 54.48,67.94 53.89,67.99 53.31,68.04 52.74,68.1 52.17,68.16 51.62,68.22 51.08,68.28 50.55,68.34 
				50.04,68.4 49.53,68.47 49.03,68.54 48.54,68.61 48.06,68.68 47.59,68.75 47.13,68.82 46.68,68.9 46.24,68.98 45.81,69.05 
				45.39,69.13 44.97,69.21 44.57,69.3 44.17,69.38 43.79,69.46 43.41,69.55 43.04,69.64 42.67,69.73 42.32,69.82 41.97,69.91 
				41.63,70 41.3,70.09 40.98,70.18 40.66,70.28 40.35,70.37 40.05,70.47 39.76,70.57 39.47,70.66 39.19,70.76 38.91,70.86 
				38.65,70.96 38.38,71.06 38.13,71.16 37.88,71.26 37.64,71.37 37.4,71.47 37.17,71.57 36.95,71.68 36.73,71.78 36.51,71.88 
				36.3,71.99 36.1,72.09 35.9,72.2 35.71,72.3 35.52,72.41 35.34,72.51 35.15,72.63 34.79,72.85 34.45,73.09 34.13,73.34 
				33.83,73.59 33.56,73.85 33.3,74.11 33.07,74.38 32.86,74.65 32.66,74.92 32.49,75.19 32.34,75.46 32.2,75.73 32.08,76 
				31.98,76.26 31.9,76.51 31.82,76.76 31.77,77.01 31.72,77.24 31.68,77.46 31.66,77.68 31.64,77.88 31.63,78.07 31.63,78.25 
				31.63,78.41 31.64,78.56 31.65,78.7 31.66,78.82 31.67,78.93 31.68,78.99 31.68,86.79 31.67,86.85 31.66,86.95 31.65,87.07 
				31.64,87.21 31.63,87.36 31.63,87.53 31.63,87.7 31.64,87.89 31.66,88.1 31.68,88.31 31.72,88.53 31.77,88.77 31.82,89.01 
				31.9,89.26 31.98,89.51 32.08,89.77 32.2,90.04 32.34,90.31 32.49,90.58 32.66,90.85 32.86,91.12 33.07,91.39 33.3,91.66 
				33.56,91.92 33.83,92.18 34.13,92.44 34.45,92.68 34.79,92.92 35.15,93.15 35.34,93.26 35.52,93.36 35.71,93.47 35.9,93.57 
				36.1,93.68 36.3,93.78 36.51,93.89 36.73,93.99 36.94,94.1 37.17,94.2 37.4,94.3 37.64,94.41 37.88,94.51 38.13,94.61 
				38.38,94.71 38.65,94.81 38.91,94.91 39.19,95.01 39.47,95.11 39.76,95.21 40.05,95.3 40.35,95.4 40.66,95.5 40.98,95.59 
				41.3,95.68 41.63,95.78 41.97,95.87 42.32,95.96 42.67,96.05 43.04,96.13 43.41,96.22 43.79,96.31 44.17,96.39 44.57,96.48 
				44.97,96.56 45.39,96.64 45.81,96.72 46.24,96.8 46.68,96.87 47.13,96.95 47.59,97.02 48.06,97.1 48.54,97.17 49.03,97.24 
				49.53,97.3 50.04,97.37 50.55,97.43 51.08,97.5 51.62,97.56 52.17,97.62 52.74,97.67 53.31,97.73 53.89,97.78 54.48,97.83 
				55.09,97.88 55.71,97.93 56.34,97.98 56.98,98.02 57.63,98.06 58.29,98.1 58.97,98.14 59.66,98.17 60.36,98.2 61.07,98.23 
				61.74,98.26 62.42,98.28 63.09,98.31 63.77,98.33 64.44,98.35 65.11,98.37 65.78,98.39 66.45,98.41 67.12,98.43 67.79,98.44 
				68.46,98.46 69.13,98.47 69.8,98.48 70.46,98.49 71.13,98.5 71.8,98.51 72.46,98.52 73.13,98.53 73.79,98.53 74.46,98.54 
				75.12,98.54 75.79,98.54 76.45,98.55 77.11,98.55 77.78,98.55 78.44,98.55 79.1,98.55 79.77,98.55 80.43,98.55 81.09,98.54 
				81.75,98.54 82.41,98.54 83.08,98.53 83.74,98.53 84.4,98.52 85.06,98.52 85.72,98.51 86.39,98.5 87.05,98.5 87.71,98.49 
				88.37,98.48 89.04,98.47 89.7,98.46 90.36,98.45 91.03,98.44 91.69,98.43 92.35,98.42 93.02,98.41 93.68,98.4 94.35,98.39 
				95.01,98.38 95.68,98.37 96.34,98.36 97.01,98.35 97.68,98.34 98.34,98.32 99.01,98.31 99.68,98.3 100.35,98.29 101.02,98.28 
				101.69,98.27 102.36,98.26 103.03,98.25 103.7,98.23 104.41,98.23 105.11,98.22 105.82,98.21 106.52,98.19 107.22,98.18 
				107.91,98.17 108.6,98.15 109.29,98.13 109.97,98.12 110.65,98.09 111.32,98.07 111.99,98.04 112.65,98.01 113.31,97.98 
				113.96,97.94 114.6,97.9 115.24,97.86 115.87,97.81 116.5,97.76 117.11,97.71 117.72,97.65 118.33,97.58 118.92,97.51 
				119.51,97.43 120.09,97.35 120.66,97.26 121.22,97.17 121.78,97.07 122.32,96.96 122.86,96.85 123.39,96.73 123.9,96.6 
				124.41,96.46 124.91,96.32 125.39,96.17 125.87,96.01 126.33,95.85 126.79,95.67 127.23,95.49 127.67,95.3 128.09,95.09 
				128.5,94.87 128.9,94.65 129.29,94.41 129.67,94.16 130.03,93.89 130.38,93.61 130.71,93.32 131.03,93.01 131.33,92.69 
				131.62,92.35 131.88,92 132.13,91.63 132.36,91.24 132.57,90.85 132.76,90.43 132.92,90.01 133.07,89.57 133.19,89.12 
				133.29,88.66 133.37,88.18 133.42,87.7 133.45,87.2 133.49,85.24 100.64,85.24 100.78,86.8 100.78,86.83 100.78,86.86 
				100.78,86.91 100.77,86.97 100.76,87.04 100.74,87.12 100.72,87.2 100.69,87.29 100.66,87.39 100.61,87.49 100.56,87.59 
				100.5,87.7 100.43,87.81 100.34,87.92 100.24,88.04 100.12,88.15 99.99,88.27 99.83,88.39 99.65,88.51 99.44,88.63 99.2,88.75 
				98.94,88.86 98.64,88.97 98.3,89.07 97.93,89.16 97.52,89.24 97.07,89.31 96.58,89.36 96.04,89.4 95.45,89.42 94.86,89.45 
				94.29,89.47 93.72,89.5 93.18,89.52 92.64,89.54 92.12,89.56 91.62,89.58 91.13,89.6 90.66,89.62 90.2,89.63 89.76,89.65 
				89.33,89.66 88.93,89.67 88.54,89.69 88.17,89.7 87.82,89.71 87.49,89.72 87.18,89.72 86.89,89.73 86.62,89.74 86.37,89.74 
				86.15,89.75 85.94,89.75 85.76,89.76 85.47,89.77 85.36,89.77 85.27,89.77 85.21,89.77 85.17,89.77 80.74,89.77 80.7,89.77 
				80.64,89.77 80.55,89.77 80.44,89.77 80.16,89.76 79.97,89.75 79.76,89.75 79.53,89.74 79.29,89.74 79.02,89.73 78.73,89.72 
				78.42,89.72 78.09,89.71 77.74,89.7 77.37,89.69 76.98,89.67 76.57,89.66 76.15,89.65 75.71,89.63 75.25,89.62 74.78,89.6 
				74.29,89.58 73.79,89.56 73.27,89.54 72.73,89.52 72.18,89.5 71.62,89.47 71.05,89.45 70.46,89.42 69.87,89.4 69.33,89.36 
				68.84,89.31 68.39,89.24 67.98,89.16 67.61,89.07 67.27,88.97 66.97,88.86 66.71,88.75 66.47,88.63 66.26,88.51 66.08,88.39 
				65.92,88.27 65.79,88.15 65.67,88.04 65.57,87.92 65.48,87.81 65.41,87.7 65.35,87.59 65.29,87.49 65.25,87.39 65.22,87.29 
				65.19,87.2 65.17,87.12 65.15,87.04 65.14,86.97 65.13,86.91 65.13,86.86 65.13,86.83 65.13,86.8 65.13,86.8 65.13,86.75 
				65.13,79.02 65.13,78.97 65.13,78.97 65.13,78.95 65.13,78.91 65.13,78.86 65.14,78.8 65.15,78.73 65.17,78.65 65.19,78.57 
				65.22,78.48 65.25,78.38 65.29,78.28 65.35,78.18 65.41,78.07 65.48,77.96 65.57,77.85 65.67,77.73 65.79,77.62 65.92,77.5 
				66.08,77.38 66.26,77.26 66.47,77.14 66.71,77.02 66.97,76.91 67.27,76.8 67.61,76.7 67.98,76.61 68.39,76.53 68.84,76.46 
				69.33,76.41 69.87,76.38 70.46,76.35 71.05,76.32 71.62,76.3 72.18,76.27 72.73,76.25 73.27,76.23 73.79,76.21 74.29,76.19 
				74.78,76.17 75.25,76.16 75.71,76.14 76.15,76.13 76.57,76.11 76.98,76.1 77.37,76.09 77.74,76.08 78.09,76.07 78.42,76.06 
				78.73,76.05 79.02,76.04 79.29,76.03 79.53,76.03 79.76,76.02 79.97,76.02 80.31,76.01 80.55,76.01 80.64,76 80.7,76 80.75,76 
				85.16,76 85.2,76 85.27,76 85.36,76.01 85.61,76.01 85.94,76.02 86.15,76.02 86.37,76.03 86.62,76.03 86.89,76.04 87.18,76.05 
				87.49,76.06 87.82,76.07 88.17,76.08 88.54,76.09 88.93,76.1 89.33,76.11 89.76,76.13 90.2,76.14 90.65,76.16 91.13,76.17 
				91.62,76.19 92.12,76.21 92.64,76.23 93.18,76.25 93.72,76.27 94.29,76.3 94.86,76.32 95.45,76.35 96.04,76.38 96.58,76.41 
				97.07,76.46 97.52,76.53 97.93,76.61 98.3,76.7 98.64,76.8 98.94,76.91 99.2,77.02 99.44,77.14 99.65,77.26 99.83,77.38 
				99.98,77.5 100.12,77.62 100.24,77.73 100.34,77.85 100.43,77.96 100.5,78.07 100.56,78.18 100.61,78.28 100.66,78.38 
				100.69,78.48 100.72,78.57 100.74,78.65 100.76,78.73 100.77,78.8 100.78,78.86 100.78,78.91 100.78,78.94 100.78,78.97 
				100.78,79.02 100.79,80.71 133.49,80.71 133.45,78.75 133.42,78.26 133.37,77.77 133.29,77.29 133.19,76.83 133.07,76.37 
				132.93,75.93 132.76,75.5 132.58,75.08 132.37,74.68 132.14,74.29 131.9,73.92 131.63,73.56 131.35,73.21 131.05,72.88 
				130.73,72.56 130.39,72.26 130.05,71.97 129.69,71.7 129.31,71.44 128.92,71.19 128.52,70.95 128.11,70.73 127.69,70.51 
				127.25,70.31 126.8,70.12 126.35,69.94 125.88,69.77 125.4,69.61 124.91,69.45 124.41,69.31 123.9,69.17 123.39,69.04 
				122.86,68.92 122.32,68.81 121.78,68.7 121.22,68.6 120.66,68.51 120.09,68.42 119.51,68.34 118.92,68.26 118.33,68.19 
				117.72,68.13 117.11,68.07 116.5,68.01 115.87,67.96 115.24,67.91 114.6,67.87 113.96,67.83 113.31,67.79 112.65,67.76 
				111.99,67.73 111.32,67.7 110.65,67.68 109.97,67.66 109.29,67.64 108.6,67.62 107.91,67.6 107.22,67.59 106.52,67.58 
				105.82,67.57 105.11,67.56 104.41,67.55 103.7,67.54 103.03,67.53 102.36,67.52 101.69,67.51 101.02,67.49 100.35,67.48 
				99.68,67.47 99.01,67.46 98.34,67.45 97.68,67.44 97.01,67.43 96.34,67.41 95.68,67.4 95.01,67.39 94.35,67.38 93.68,67.37 
				93.02,67.36 92.35,67.35 91.69,67.34 91.03,67.33 90.36,67.32 89.7,67.31 89.04,67.3 88.37,67.29 87.71,67.28 87.05,67.28 
				86.39,67.27 85.72,67.26 85.06,67.26 84.4,67.25 83.74,67.24 83.08,67.24 82.41,67.24 81.75,67.23 81.09,67.23 80.43,67.23 
				79.77,67.22 79.1,67.22 78.44,67.22 			"/>
		</defs>
		<clipPath id="SVGID_00000118388347134002830210000007394224966709470850_">
			<use xlink:href="#SVGID_00000088815557102876545490000012174232576595354027_"  style="overflow:visible;"/>
		</clipPath>
		
			<linearGradient id="SVGID_00000109023274625469643910000009735851349104052633_" gradientUnits="userSpaceOnUse" x1="-134.7446" y1="220.5163" x2="-134.4246" y2="220.5163" gradientTransform="matrix(-246.8763 154.2655 154.2655 246.8763 -67161.2188 -33595.6328)">
			<stop  offset="0" style="stop-color:#FFFFFF"/>
			<stop  offset="0.15" style="stop-color:#FFFFFF"/>
			<stop  offset="0.85" style="stop-color:#FFFFFF"/>
			<stop  offset="1" style="stop-color:#FFFFFF"/>
		</linearGradient>
		
			<polygon style="clip-path:url(#SVGID_00000118388347134002830210000007394224966709470850_);fill:url(#SVGID_00000109023274625469643910000009735851349104052633_);" points="
			147.57,89.75 60.23,144.33 17.55,76.02 104.89,21.45 		"/>
	</g>
	<g>
		<defs>
			<path id="SVGID_00000108300104522916729060000015113054368089538960_" d="M61.13,68.99C53.52,69.29,48.07,70,44.1,70.88
				c-3.97,0.88-6.47,1.95-8.19,2.98c-3.45,2.07-2.78,5-2.78,5v8.05c0,0-0.67,2.93,2.78,5c1.72,1.03,4.22,2.1,8.19,2.98
				c3.97,0.88,9.42,1.59,17.03,1.89c7.18,0.29,14.23,0.35,21.28,0.3c7.05-0.04,14.1-0.19,21.27-0.3c7.59-0.09,14.68-0.25,19.87-1.59
				c5.19-1.34,8.48-3.68,8.47-8.5h-29.78c0,0,0.38,3.85-6.11,4.15c-6.49,0.3-10.94,0.38-10.94,0.38h-4.45c0,0-4.45-0.08-10.94-0.38
				c-6.49-0.3-6.11-4.15-6.11-4.15v-7.62c0,0-0.38-3.85,6.11-4.15c6.49-0.3,10.94-0.38,10.94-0.38h4.45c0,0,4.45,0.08,10.94,0.38
				c6.49,0.3,6.11,4.15,6.11,4.15l0,0.18h29.78c0.01-4.82-3.28-7.34-8.47-8.68c-5.19-1.34-12.28-1.5-19.87-1.59
				c-7.18-0.11-14.22-0.26-21.27-0.3c-1.34-0.01-2.69-0.01-4.04-0.01C72.66,68.67,66.94,68.76,61.13,68.99"/>
		</defs>
		<clipPath id="SVGID_00000058561507751358200980000004665321656456315304_">
			<use xlink:href="#SVGID_00000108300104522916729060000015113054368089538960_"  style="overflow:visible;"/>
		</clipPath>
		
			<linearGradient id="SVGID_00000043429324971514204210000004976659065589296039_" gradientUnits="userSpaceOnUse" x1="-134.7459" y1="220.521" x2="-134.4259" y2="220.521" gradientTransform="matrix(-239.1872 149.4608 149.4608 239.1872 -65067.9609 -32547.748)">
			<stop  offset="0" style="stop-color:#000000"/>
			<stop  offset="0.14" style="stop-color:#000000"/>
			<stop  offset="0.86" style="stop-color:#FFFFFF"/>
			<stop  offset="1" style="stop-color:#FFFFFF"/>
		</linearGradient>
		
			<polygon style="clip-path:url(#SVGID_00000058561507751358200980000004665321656456315304_);fill:url(#SVGID_00000043429324971514204210000004976659065589296039_);" points="
			144.81,89.14 60.42,141.87 19.67,76.66 104.06,23.93 		"/>
	</g>
	<g>
		<defs>
			<rect id="SVGID_00000000924818066645604010000017902632665373907363_" x="24.26" y="60.45" width="149.9" height="77.52"/>
		</defs>
		<clipPath id="SVGID_00000170273968619796675690000013257808939743184314_">
			<use xlink:href="#SVGID_00000000924818066645604010000017902632665373907363_"  style="overflow:visible;"/>
		</clipPath>
		
			<path style="clip-path:url(#SVGID_00000170273968619796675690000013257808939743184314_);fill:none;stroke:#000000;stroke-width:1.689;stroke-miterlimit:2.414;" d="
			M132.01,86.7h-29.78c0,0,0.38,3.85-6.11,4.15c-6.49,0.3-10.94,0.38-10.94,0.38h-4.45c0,0-4.45-0.08-10.94-0.38
			c-6.49-0.3-6.11-4.15-6.11-4.15v-7.62c0,0-0.38-3.85,6.11-4.15c6.49-0.3,10.94-0.38,10.94-0.38h4.45c0,0,4.45,0.08,10.94,0.38
			c6.49,0.3,6.11,4.15,6.11,4.15l0,0.18h29.78c0.01-4.82-3.28-7.34-8.47-8.68c-5.19-1.34-12.28-1.5-19.87-1.59
			c-7.17-0.12-14.22-0.26-21.27-0.3c-7.05-0.04-14.1,0.01-21.28,0.3C53.52,69.29,48.07,70,44.1,70.88
			c-3.97,0.88-6.47,1.95-8.19,2.98c-3.45,2.07-2.78,5-2.78,5v8.05c0,0-0.67,2.93,2.78,5c1.72,1.03,4.22,2.1,8.19,2.98
			c3.97,0.88,9.42,1.59,17.03,1.89c7.18,0.29,14.23,0.35,21.28,0.3c7.05-0.04,14.1-0.19,21.27-0.3c7.59-0.09,14.68-0.25,19.87-1.59
			C128.73,93.86,132.02,91.52,132.01,86.7z"/>
	</g>
	<g>
		<path d="M35.31,123.41c-0.23,0.11-0.69,0.22-1.28,0.22c-1.36,0-2.39-0.83-2.39-2.35c0-1.45,1.02-2.44,2.52-2.44
			c0.6,0,0.98,0.12,1.15,0.21l-0.15,0.49c-0.24-0.11-0.57-0.19-0.97-0.19c-1.13,0-1.88,0.7-1.88,1.91c0,1.14,0.68,1.87,1.86,1.87
			c0.38,0,0.77-0.08,1.02-0.19L35.31,123.41z"/>
		<path d="M43.13,121.19c0,1.6-1.01,2.45-2.24,2.45c-1.28,0-2.17-0.95-2.17-2.36c0-1.47,0.95-2.44,2.24-2.44
			C42.28,118.84,43.13,119.81,43.13,121.19z M39.39,121.27c0,0.99,0.56,1.88,1.54,1.88c0.99,0,1.55-0.87,1.55-1.93
			c0-0.92-0.5-1.89-1.54-1.89C39.9,119.33,39.39,120.25,39.39,121.27z"/>
		<path d="M47.75,119.43h-1.47v-0.51h3.58v0.51h-1.48v4.13h-0.63V119.43z"/>
		<path d="M57.39,121.19c0,1.6-1.01,2.45-2.24,2.45c-1.28,0-2.17-0.95-2.17-2.36c0-1.47,0.95-2.44,2.24-2.44
			C56.54,118.84,57.39,119.81,57.39,121.19z M53.64,121.27c0,0.99,0.56,1.88,1.54,1.88c0.99,0,1.55-0.87,1.55-1.93
			c0-0.92-0.5-1.89-1.54-1.89C54.16,119.33,53.64,120.25,53.64,121.27z"/>
		<path d="M64.64,123.41c-0.23,0.11-0.69,0.22-1.28,0.22c-1.36,0-2.39-0.83-2.39-2.35c0-1.45,1.02-2.44,2.52-2.44
			c0.6,0,0.98,0.12,1.15,0.21l-0.15,0.49c-0.24-0.11-0.57-0.19-0.97-0.19c-1.13,0-1.88,0.7-1.88,1.91c0,1.14,0.68,1.87,1.86,1.87
			c0.38,0,0.77-0.08,1.02-0.19L64.64,123.41z"/>
		<path d="M72.47,121.19c0,1.6-1.01,2.45-2.24,2.45c-1.28,0-2.17-0.95-2.17-2.36c0-1.47,0.95-2.44,2.24-2.44
			C71.61,118.84,72.47,119.81,72.47,121.19z M68.72,121.27c0,0.99,0.56,1.88,1.54,1.88c0.99,0,1.55-0.87,1.55-1.93
			c0-0.92-0.5-1.89-1.54-1.89C69.23,119.33,68.72,120.25,68.72,121.27z"/>
		<path d="M76.34,118.92h0.62v4.14h2.06v0.5h-2.69V118.92z"/>
		<path d="M82.79,118.92h0.62v4.14h2.06v0.5h-2.69V118.92z"/>
		<path d="M90.02,122.1l-0.5,1.46h-0.65l1.64-4.64h0.75l1.65,4.64h-0.67l-0.52-1.46H90.02z M91.6,121.63l-0.47-1.34
			c-0.11-0.3-0.18-0.58-0.25-0.85h-0.01c-0.07,0.28-0.15,0.56-0.24,0.84l-0.47,1.34H91.6z"/>
		<path d="M100.71,121.19c0,1.6-1.01,2.45-2.24,2.45c-1.28,0-2.17-0.95-2.17-2.36c0-1.47,0.95-2.44,2.24-2.44
			C99.86,118.84,100.71,119.81,100.71,121.19z M96.96,121.27c0,0.99,0.56,1.88,1.54,1.88c0.99,0,1.55-0.87,1.55-1.93
			c0-0.92-0.5-1.89-1.54-1.89C97.48,119.33,96.96,120.25,96.96,121.27z"/>
		<path d="M110.83,118.92h0.62v4.14h2.06v0.5h-2.69V118.92z"/>
		<path d="M117.57,119.43h-1.47v-0.51h3.58v0.51h-1.48v4.13h-0.63V119.43z"/>
		<path d="M123.28,118.98c0.38-0.06,0.83-0.1,1.33-0.1c0.9,0,1.53,0.2,1.96,0.58c0.43,0.38,0.68,0.92,0.68,1.67
			c0,0.76-0.24,1.38-0.7,1.81c-0.45,0.43-1.2,0.67-2.14,0.67c-0.44,0-0.82-0.02-1.13-0.05V118.98z M123.9,123.08
			c0.16,0.03,0.39,0.03,0.63,0.03c1.33,0,2.06-0.72,2.06-1.97c0.01-1.1-0.64-1.79-1.96-1.79c-0.32,0-0.57,0.03-0.73,0.06V123.08z"/>
		<path d="M131.79,122.1l-0.5,1.46h-0.65l1.64-4.64h0.75l1.65,4.64h-0.67l-0.52-1.46H131.79z M133.38,121.63l-0.47-1.34
			c-0.11-0.3-0.18-0.58-0.25-0.85h-0.01c-0.07,0.28-0.15,0.56-0.24,0.84l-0.47,1.34H133.38z"/>
		<path d="M138.29,123.2c0-0.25,0.18-0.43,0.43-0.43c0.25,0,0.42,0.18,0.42,0.43c0,0.25-0.16,0.43-0.43,0.43
			C138.46,123.64,138.29,123.45,138.29,123.2z"/>
	</g>
	<g>
		<path d="M34.92,115.39c-0.14,0.08-0.41,0.17-0.76,0.17c-0.82,0-1.43-0.63-1.43-1.8c0-1.11,0.61-1.86,1.51-1.86
			c0.36,0,0.59,0.09,0.69,0.16l-0.09,0.37c-0.14-0.08-0.34-0.15-0.58-0.15c-0.68,0-1.13,0.53-1.13,1.46c0,0.87,0.41,1.43,1.11,1.43
			c0.23,0,0.46-0.06,0.61-0.15L34.92,115.39z"/>
		<path d="M39.11,113.69c0,1.22-0.61,1.87-1.34,1.87c-0.76,0-1.3-0.73-1.3-1.8c0-1.13,0.57-1.86,1.34-1.86
			C38.6,111.89,39.11,112.64,39.11,113.69z M36.86,113.75c0,0.76,0.34,1.44,0.92,1.44c0.59,0,0.93-0.67,0.93-1.47
			c0-0.71-0.3-1.44-0.92-1.44C37.17,112.27,36.86,112.97,36.86,113.75z"/>
		<path d="M43.41,113.69c0,1.22-0.61,1.87-1.34,1.87c-0.76,0-1.3-0.73-1.3-1.8c0-1.13,0.57-1.86,1.34-1.86
			C42.89,111.89,43.41,112.64,43.41,113.69z M41.16,113.75c0,0.76,0.33,1.44,0.92,1.44c0.59,0,0.93-0.67,0.93-1.47
			c0-0.71-0.3-1.44-0.92-1.44C41.47,112.27,41.16,112.97,41.16,113.75z"/>
		<path d="M45.23,111.99c0.18-0.04,0.42-0.07,0.72-0.07c0.37,0,0.64,0.11,0.81,0.3c0.16,0.17,0.25,0.43,0.25,0.74
			c0,0.32-0.08,0.57-0.22,0.76c-0.2,0.26-0.52,0.39-0.89,0.39c-0.11,0-0.21-0.01-0.3-0.03v1.42h-0.37V111.99z M45.6,113.71
			c0.08,0.03,0.18,0.04,0.31,0.04c0.45,0,0.73-0.27,0.73-0.76c0-0.47-0.27-0.7-0.68-0.7c-0.16,0-0.29,0.02-0.35,0.04V113.71z"/>
		<path d="M50.35,113.84h-1.13v1.28h1.25v0.38h-1.63v-3.55h1.56v0.38h-1.19v1.12h1.13V113.84z"/>
		<path d="M52.3,112c0.19-0.05,0.46-0.07,0.72-0.07c0.4,0,0.66,0.09,0.84,0.29c0.15,0.16,0.23,0.4,0.23,0.67
			c0,0.47-0.24,0.78-0.55,0.91v0.02c0.22,0.09,0.36,0.35,0.43,0.72c0.09,0.5,0.16,0.84,0.22,0.97H53.8
			c-0.05-0.1-0.11-0.41-0.19-0.85c-0.09-0.49-0.24-0.67-0.58-0.69h-0.35v1.54H52.3V112z M52.67,113.62h0.38
			c0.4,0,0.65-0.27,0.65-0.67c0-0.46-0.27-0.66-0.67-0.66c-0.18,0-0.31,0.02-0.37,0.04V113.62z"/>
		<path d="M56.44,114.39l-0.3,1.12h-0.39l0.98-3.55h0.45l0.99,3.55h-0.4l-0.31-1.12H56.44z M57.39,114.03l-0.28-1.02
			c-0.06-0.23-0.11-0.44-0.15-0.65h-0.01c-0.04,0.21-0.09,0.43-0.15,0.64l-0.28,1.03H57.39z"/>
		<path d="M60.15,112.34h-0.88v-0.39h2.14v0.39h-0.89v3.16h-0.38V112.34z"/>
		<path d="M63.45,111.95v3.55h-0.37v-3.55H63.45z"/>
		<path d="M66.08,115.5l-0.95-3.55h0.4l0.45,1.75c0.12,0.48,0.23,0.91,0.31,1.33h0.01c0.08-0.41,0.2-0.86,0.33-1.32l0.49-1.75h0.4
			l-1.04,3.55H66.08z"/>
		<path d="M69.4,114.39l-0.3,1.12h-0.39l0.98-3.55h0.45l0.99,3.55h-0.4l-0.31-1.12H69.4z M70.35,114.03l-0.28-1.02
			c-0.06-0.23-0.11-0.44-0.15-0.65h-0.01c-0.04,0.21-0.09,0.43-0.15,0.64l-0.28,1.03H70.35z"/>
		<path d="M74.03,112c0.23-0.04,0.5-0.07,0.79-0.07c0.54,0,0.92,0.15,1.17,0.44c0.26,0.29,0.41,0.7,0.41,1.27
			c0,0.58-0.15,1.05-0.42,1.38c-0.27,0.33-0.72,0.51-1.28,0.51c-0.27,0-0.49-0.02-0.68-0.04V112z M74.4,115.14
			c0.09,0.02,0.23,0.03,0.38,0.03c0.8,0,1.23-0.55,1.23-1.51c0-0.84-0.38-1.37-1.17-1.37c-0.19,0-0.34,0.02-0.44,0.05V115.14z"/>
		<path d="M79.73,113.84H78.6v1.28h1.25v0.38h-1.63v-3.55h1.56v0.38H78.6v1.12h1.13V113.84z"/>
		<path d="M83.28,114.39l-0.3,1.12h-0.39l0.98-3.55h0.45l0.99,3.55h-0.4l-0.31-1.12H83.28z M84.23,114.03l-0.28-1.02
			c-0.06-0.23-0.11-0.44-0.15-0.65h-0.01c-0.04,0.21-0.09,0.43-0.15,0.64l-0.28,1.03H84.23z"/>
		<path d="M87.16,111.95v1.49h1.4v-1.49h0.38v3.55h-0.38v-1.66h-1.4v1.66h-0.37v-3.55H87.16z"/>
		<path d="M93.4,113.69c0,1.22-0.61,1.87-1.34,1.87c-0.76,0-1.3-0.73-1.3-1.8c0-1.13,0.57-1.86,1.34-1.86
			C92.89,111.89,93.4,112.64,93.4,113.69z M91.15,113.75c0,0.76,0.33,1.44,0.92,1.44c0.59,0,0.93-0.67,0.93-1.47
			c0-0.71-0.3-1.44-0.92-1.44C91.46,112.27,91.15,112.97,91.15,113.75z"/>
		<path d="M95.22,112c0.19-0.05,0.46-0.07,0.72-0.07c0.4,0,0.66,0.09,0.84,0.29c0.15,0.16,0.23,0.4,0.23,0.67
			c0,0.47-0.24,0.78-0.55,0.91v0.02c0.22,0.09,0.36,0.35,0.43,0.72c0.09,0.5,0.16,0.84,0.22,0.97h-0.39
			c-0.05-0.1-0.11-0.41-0.19-0.85c-0.09-0.49-0.24-0.67-0.58-0.69h-0.35v1.54h-0.37V112z M95.59,113.62h0.38
			c0.4,0,0.65-0.27,0.65-0.67c0-0.46-0.27-0.66-0.67-0.66c-0.18,0-0.31,0.02-0.37,0.04V113.62z"/>
		<path d="M98.87,112c0.19-0.05,0.46-0.07,0.72-0.07c0.4,0,0.66,0.09,0.84,0.29c0.15,0.16,0.23,0.4,0.23,0.67
			c0,0.47-0.24,0.78-0.55,0.91v0.02c0.22,0.09,0.36,0.35,0.43,0.72c0.09,0.5,0.16,0.84,0.22,0.97h-0.39
			c-0.05-0.1-0.11-0.41-0.19-0.85c-0.09-0.49-0.24-0.67-0.58-0.69h-0.35v1.54h-0.37V112z M99.25,113.62h0.38
			c0.4,0,0.65-0.27,0.65-0.67c0-0.46-0.27-0.66-0.67-0.66c-0.18,0-0.31,0.02-0.37,0.04V113.62z"/>
		<path d="M105.01,113.69c0,1.22-0.61,1.87-1.34,1.87c-0.76,0-1.3-0.73-1.3-1.8c0-1.13,0.57-1.86,1.34-1.86
			C104.49,111.89,105.01,112.64,105.01,113.69z M102.76,113.75c0,0.76,0.33,1.44,0.92,1.44c0.59,0,0.93-0.67,0.93-1.47
			c0-0.71-0.3-1.44-0.92-1.44C103.07,112.27,102.76,112.97,102.76,113.75z"/>
		<path d="M108.07,115.5V114l-0.92-2.04h0.43l0.41,0.98c0.11,0.27,0.2,0.48,0.29,0.73h0.01c0.08-0.23,0.18-0.46,0.29-0.73l0.42-0.98
			h0.43l-0.97,2.04v1.51H108.07z"/>
		<path d="M114.24,115.39c-0.14,0.08-0.41,0.17-0.76,0.17c-0.82,0-1.43-0.63-1.43-1.8c0-1.11,0.61-1.86,1.51-1.86
			c0.36,0,0.59,0.09,0.69,0.16l-0.09,0.37c-0.14-0.08-0.34-0.15-0.58-0.15c-0.68,0-1.13,0.53-1.13,1.46c0,0.87,0.41,1.43,1.11,1.43
			c0.23,0,0.46-0.06,0.61-0.15L114.24,115.39z"/>
		<path d="M116.05,112c0.19-0.05,0.46-0.07,0.72-0.07c0.4,0,0.66,0.09,0.84,0.29c0.15,0.16,0.23,0.4,0.23,0.67
			c0,0.47-0.24,0.78-0.55,0.91v0.02c0.22,0.09,0.36,0.35,0.43,0.72c0.09,0.5,0.16,0.84,0.22,0.97h-0.39
			c-0.05-0.1-0.11-0.41-0.19-0.85c-0.09-0.49-0.24-0.67-0.58-0.69h-0.35v1.54h-0.37V112z M116.42,113.62h0.38
			c0.4,0,0.65-0.27,0.65-0.67c0-0.46-0.27-0.66-0.67-0.66c-0.18,0-0.31,0.02-0.37,0.04V113.62z"/>
		<path d="M121.2,113.84h-1.13v1.28h1.25v0.38h-1.63v-3.55h1.56v0.38h-1.19v1.12h1.13V113.84z"/>
		<path d="M123.15,112c0.23-0.04,0.5-0.07,0.79-0.07c0.54,0,0.92,0.15,1.17,0.44c0.26,0.29,0.41,0.7,0.41,1.27
			c0,0.58-0.15,1.05-0.42,1.38c-0.27,0.33-0.72,0.51-1.28,0.51c-0.27,0-0.49-0.02-0.68-0.04V112z M123.53,115.14
			c0.09,0.02,0.23,0.03,0.38,0.03c0.8,0,1.23-0.55,1.23-1.51c0-0.84-0.38-1.37-1.17-1.37c-0.19,0-0.34,0.02-0.44,0.05V115.14z"/>
		<path d="M127.73,111.95v3.55h-0.37v-3.55H127.73z"/>
		<path d="M130.27,112.34h-0.88v-0.39h2.14v0.39h-0.89v3.16h-0.38V112.34z"/>
		<path d="M135.55,113.69c0,1.22-0.61,1.87-1.34,1.87c-0.76,0-1.3-0.73-1.3-1.8c0-1.13,0.57-1.86,1.34-1.86
			C135.04,111.89,135.55,112.64,135.55,113.69z M133.3,113.75c0,0.76,0.33,1.44,0.92,1.44c0.59,0,0.93-0.67,0.93-1.47
			c0-0.71-0.3-1.44-0.92-1.44C133.61,112.27,133.3,112.97,133.3,113.75z"/>
	</g>
	<path d="M59.29,124.26c0.37-0.07,0.9-0.1,1.4-0.1c0.78,0,1.29,0.12,1.64,0.4c0.29,0.22,0.45,0.55,0.45,0.93
		c0,0.64-0.47,1.07-1.07,1.24v0.02c0.44,0.13,0.7,0.48,0.83,0.98c0.18,0.68,0.32,1.15,0.44,1.34h-0.76
		c-0.09-0.14-0.22-0.56-0.38-1.16c-0.17-0.67-0.47-0.93-1.13-0.95h-0.69v2.11h-0.73V124.26z M60.03,126.48h0.75
		c0.78,0,1.28-0.37,1.28-0.93c0-0.63-0.53-0.9-1.3-0.91c-0.35,0-0.61,0.03-0.72,0.06V126.48z M64.24,127.44
		c0.02,0.86,0.66,1.22,1.4,1.22c0.53,0,0.85-0.08,1.13-0.18l0.13,0.46c-0.26,0.1-0.71,0.22-1.35,0.22c-1.25,0-2-0.71-2-1.77
		s0.72-1.89,1.91-1.89c1.33,0,1.68,1.01,1.68,1.65c0,0.13-0.02,0.23-0.03,0.3H64.24z M66.41,126.98c0.01-0.41-0.19-1.03-1.03-1.03
		c-0.75,0-1.08,0.59-1.13,1.03H66.41z M67.94,128.42c0.22,0.12,0.61,0.25,0.98,0.25c0.54,0,0.79-0.23,0.79-0.52
		c0-0.3-0.21-0.47-0.76-0.64c-0.73-0.22-1.08-0.57-1.08-0.99c0-0.56,0.53-1.03,1.4-1.03c0.41,0,0.77,0.1,1,0.22l-0.18,0.46
		c-0.16-0.09-0.45-0.2-0.83-0.2c-0.44,0-0.68,0.22-0.68,0.48c0,0.29,0.24,0.42,0.77,0.59c0.71,0.23,1.07,0.54,1.07,1.06
		c0,0.61-0.55,1.05-1.52,1.05c-0.45,0-0.86-0.09-1.14-0.24L67.94,128.42z M71.37,126.72c0-0.45-0.02-0.81-0.03-1.14H72l0.03,0.6
		h0.02c0.3-0.43,0.78-0.68,1.45-0.68c0.98,0,1.72,0.72,1.72,1.78c0,1.26-0.89,1.88-1.85,1.88c-0.54,0-1.01-0.2-1.25-0.55H72.1v1.9
		h-0.73V126.72z M72.1,127.65c0,0.09,0.02,0.18,0.03,0.26c0.13,0.44,0.58,0.75,1.11,0.75c0.78,0,1.24-0.55,1.24-1.35
		c0-0.7-0.43-1.3-1.21-1.3c-0.5,0-0.98,0.31-1.12,0.79c-0.03,0.08-0.05,0.17-0.05,0.26V127.65z M78.4,129.07l-0.06-0.44h-0.03
		c-0.23,0.27-0.66,0.52-1.24,0.52c-0.82,0-1.24-0.5-1.24-1.01c0-0.85,0.87-1.31,2.45-1.3v-0.07c0-0.29-0.09-0.81-0.92-0.81
		c-0.38,0-0.77,0.1-1.06,0.26l-0.17-0.42c0.34-0.19,0.82-0.31,1.34-0.31c1.24,0,1.55,0.73,1.55,1.43v1.31c0,0.3,0.02,0.6,0.07,0.84
		H78.4z M78.29,127.29c-0.81-0.01-1.72,0.11-1.72,0.79c0,0.41,0.32,0.61,0.7,0.61c0.53,0,0.87-0.29,0.98-0.59
		c0.03-0.07,0.04-0.14,0.04-0.2V127.29z M80.2,123.94h0.74v5.14H80.2V123.94z M85.7,123.94v4.23c0,0.31,0.01,0.67,0.03,0.9h-0.66
		l-0.03-0.61h-0.02c-0.23,0.39-0.72,0.69-1.39,0.69c-0.98,0-1.74-0.72-1.74-1.78c-0.01-1.16,0.83-1.88,1.82-1.88
		c0.62,0,1.04,0.25,1.23,0.54h0.02v-2.09H85.7z M84.96,127c0-0.08-0.01-0.19-0.03-0.27c-0.11-0.41-0.51-0.74-1.07-0.74
		c-0.77,0-1.22,0.58-1.22,1.35c0,0.71,0.4,1.3,1.2,1.3c0.5,0,0.95-0.28,1.08-0.76c0.03-0.09,0.03-0.17,0.03-0.27V127z M90.61,127.29
		c0,1.3-1.04,1.86-2.03,1.86c-1.1,0-1.95-0.69-1.95-1.8c0-1.17,0.89-1.86,2.02-1.86C89.82,125.49,90.61,126.22,90.61,127.29z
		 M87.38,127.33c0,0.77,0.51,1.35,1.24,1.35c0.71,0,1.24-0.57,1.24-1.36c0-0.59-0.34-1.35-1.22-1.35
		C87.76,125.97,87.38,126.66,87.38,127.33z M96.1,128.53h-0.02c-0.22,0.35-0.67,0.62-1.33,0.62c-0.95,0-1.72-0.71-1.72-1.77
		c0-1.31,0.98-1.89,1.84-1.89c0.63,0,1.05,0.27,1.25,0.61h0.02l0.03-0.53h0.7c-0.02,0.3-0.03,0.6-0.03,0.96v3.97H96.1V128.53z
		 M96.1,126.99c0-0.09-0.01-0.19-0.03-0.27c-0.11-0.39-0.5-0.72-1.06-0.72c-0.77,0-1.23,0.56-1.23,1.35c0,0.69,0.39,1.3,1.2,1.3
		c0.48,0,0.89-0.25,1.06-0.69c0.03-0.09,0.06-0.21,0.06-0.3V126.99z M101.47,128.12c0,0.36,0.01,0.68,0.03,0.96h-0.66l-0.04-0.57
		h-0.02c-0.19,0.28-0.62,0.65-1.35,0.65c-0.64,0-1.4-0.3-1.4-1.53v-2.05h0.74v1.94c0,0.67,0.24,1.11,0.91,1.11
		c0.5,0,0.84-0.3,0.98-0.58c0.04-0.09,0.07-0.21,0.07-0.33v-2.15h0.74V128.12z M103.1,127.44c0.02,0.86,0.66,1.22,1.4,1.22
		c0.53,0,0.85-0.08,1.13-0.18l0.13,0.46c-0.26,0.1-0.71,0.22-1.35,0.22c-1.25,0-2-0.71-2-1.77s0.72-1.89,1.91-1.89
		c1.33,0,1.68,1.01,1.68,1.65c0,0.13-0.02,0.23-0.03,0.3H103.1z M105.27,126.98c0.01-0.41-0.19-1.03-1.03-1.03
		c-0.75,0-1.08,0.59-1.13,1.03H105.27z M112.2,123.94v4.23c0,0.31,0.01,0.67,0.03,0.9h-0.66l-0.03-0.61h-0.02
		c-0.23,0.39-0.72,0.69-1.39,0.69c-0.98,0-1.74-0.72-1.74-1.78c-0.01-1.16,0.83-1.88,1.82-1.88c0.62,0,1.04,0.25,1.23,0.54h0.02
		v-2.09H112.2z M111.46,127c0-0.08-0.01-0.19-0.03-0.27c-0.11-0.41-0.51-0.74-1.07-0.74c-0.77,0-1.22,0.58-1.22,1.35
		c0,0.71,0.4,1.3,1.2,1.3c0.5,0,0.95-0.28,1.08-0.76c0.03-0.09,0.03-0.17,0.03-0.27V127z M115.68,129.07l-0.06-0.44h-0.03
		c-0.23,0.27-0.66,0.52-1.24,0.52c-0.82,0-1.24-0.5-1.24-1.01c0-0.85,0.87-1.31,2.45-1.3v-0.07c0-0.29-0.09-0.81-0.92-0.81
		c-0.38,0-0.77,0.1-1.06,0.26l-0.17-0.42c0.34-0.19,0.82-0.31,1.34-0.31c1.24,0,1.55,0.73,1.55,1.43v1.31c0,0.3,0.02,0.6,0.07,0.84
		H115.68z M115.57,127.29c-0.81-0.01-1.72,0.11-1.72,0.79c0,0.41,0.32,0.61,0.7,0.61c0.53,0,0.87-0.29,0.98-0.59
		c0.03-0.07,0.04-0.14,0.04-0.2V127.29z M122.16,128.94c-0.19,0.09-0.62,0.2-1.17,0.2c-1.23,0-2.03-0.72-2.03-1.79
		c0-1.08,0.86-1.86,2.19-1.86c0.44,0,0.82,0.09,1.03,0.18l-0.17,0.49c-0.18-0.09-0.45-0.17-0.86-0.17c-0.93,0-1.44,0.59-1.44,1.32
		c0,0.81,0.61,1.31,1.41,1.31c0.42,0,0.7-0.09,0.91-0.17L122.16,128.94z M126.66,127.29c0,1.3-1.04,1.86-2.03,1.86
		c-1.1,0-1.95-0.69-1.95-1.8c0-1.17,0.89-1.86,2.02-1.86C125.87,125.49,126.66,126.22,126.66,127.29z M123.43,127.33
		c0,0.77,0.51,1.35,1.24,1.35c0.71,0,1.24-0.57,1.24-1.36c0-0.59-0.34-1.35-1.22-1.35C123.81,125.97,123.43,126.66,123.43,127.33z
		 M127.59,126.52c0-0.36-0.01-0.66-0.03-0.95h0.66l0.04,0.58h0.02c0.2-0.33,0.67-0.66,1.35-0.66c0.56,0,1.44,0.29,1.44,1.49v2.09
		h-0.74v-2.02c0-0.56-0.24-1.03-0.94-1.03c-0.49,0-0.87,0.3-0.99,0.65c-0.03,0.08-0.05,0.19-0.05,0.3v2.11h-0.74V126.52z
		 M132.34,129.07v-3.02h-0.57v-0.48h0.57v-0.19c0-0.93,0.63-1.53,1.77-1.53c0.38,0,0.82,0.1,1.03,0.23l-0.21,0.48
		c-0.18-0.11-0.5-0.2-0.86-0.2c-0.78,0-1.01,0.47-1.01,1.03v0.17h2.36v3.5h-0.73v-3.02h-1.63v3.02H132.34z M138.91,129.07
		l-0.06-0.44h-0.03c-0.23,0.27-0.66,0.52-1.24,0.52c-0.82,0-1.24-0.5-1.24-1.01c0-0.85,0.87-1.31,2.45-1.3v-0.07
		c0-0.29-0.09-0.81-0.92-0.81c-0.38,0-0.77,0.1-1.06,0.26l-0.17-0.42c0.34-0.19,0.82-0.31,1.34-0.31c1.24,0,1.55,0.73,1.55,1.43
		v1.31c0,0.3,0.02,0.6,0.07,0.84H138.91z M138.8,127.29c-0.81-0.01-1.72,0.11-1.72,0.79c0,0.41,0.32,0.61,0.7,0.61
		c0.53,0,0.87-0.29,0.98-0.59c0.03-0.07,0.04-0.14,0.04-0.2V127.29z M140.71,126.52c0-0.36-0.01-0.66-0.03-0.95h0.66l0.04,0.58h0.02
		c0.2-0.33,0.67-0.66,1.35-0.66c0.56,0,1.44,0.29,1.44,1.49v2.09h-0.74v-2.02c0-0.56-0.24-1.03-0.94-1.03
		c-0.49,0-0.87,0.3-0.99,0.65c-0.03,0.08-0.05,0.19-0.05,0.3v2.11h-0.74V126.52z M144.91,128.71l1.84-2.06
		c0.18-0.19,0.34-0.35,0.53-0.54v-0.01h-2.2v-0.51h3.1l-0.01,0.4l-1.82,2.03c-0.17,0.2-0.34,0.37-0.52,0.55v0.01h2.38v0.51h-3.3
		V128.71z M151.23,129.07l-0.06-0.44h-0.03c-0.23,0.27-0.66,0.52-1.24,0.52c-0.82,0-1.24-0.5-1.24-1.01c0-0.85,0.87-1.31,2.45-1.3
		v-0.07c0-0.29-0.09-0.81-0.92-0.81c-0.38,0-0.77,0.1-1.06,0.26l-0.17-0.42c0.34-0.19,0.82-0.31,1.34-0.31
		c1.24,0,1.55,0.73,1.55,1.43v1.31c0,0.3,0.02,0.6,0.07,0.84H151.23z M151.12,127.29c-0.81-0.01-1.72,0.11-1.72,0.79
		c0,0.41,0.32,0.61,0.7,0.61c0.53,0,0.87-0.29,0.98-0.59c0.03-0.07,0.04-0.14,0.04-0.2V127.29z"/>
	<g>
		<defs>
			<rect id="SVGID_00000095339675711647487510000007030049411179639938_" x="24.26" y="60.45" width="149.9" height="77.52"/>
		</defs>
		<clipPath id="SVGID_00000074407945016822801850000000992435671119731374_">
			<use xlink:href="#SVGID_00000095339675711647487510000007030049411179639938_"  style="overflow:visible;"/>
		</clipPath>
		
			<rect x="31.27" y="110.05" style="clip-path:url(#SVGID_00000074407945016822801850000000992435671119731374_);fill-rule:evenodd;clip-rule:evenodd;" width="133.52" height="0.43"/>
		
			<rect x="31.27" y="110.05" style="clip-path:url(#SVGID_00000074407945016822801850000000992435671119731374_);fill:none;stroke:#231F20;stroke-width:0.13;stroke-miterlimit:2.414;" width="133.52" height="0.43"/>
		
			<rect x="31.61" y="116.33" style="clip-path:url(#SVGID_00000074407945016822801850000000992435671119731374_);fill-rule:evenodd;clip-rule:evenodd;" width="133.52" height="0.43"/>
		
			<rect x="31.61" y="116.33" style="clip-path:url(#SVGID_00000074407945016822801850000000992435671119731374_);fill:none;stroke:#231F20;stroke-width:0.13;stroke-miterlimit:2.414;" width="133.52" height="0.43"/>
	</g>
</g>
</svg>
