<?xml version="1.0" encoding="utf-8"?>
<!-- Generator: Adobe Illustrator 28.0.0, SVG Export Plug-In . SVG Version: 6.00 Build 0)  -->
<svg version="1.1" id="Layer_1" xmlns="http://www.w3.org/2000/svg" xmlns:xlink="http://www.w3.org/1999/xlink" x="0px" y="0px"
	 viewBox="0 0 198.43 198.43" style="enable-background:new 0 0 198.43 198.43;" xml:space="preserve">
<style type="text/css">
	.st0{fill:#FFFFFF;}
	
		.st1{clip-path:url(#SVGID_00000026159493358770983730000011581536393504787617_);fill:none;stroke:#1B1918;stroke-width:0.09;stroke-miterlimit:3.864;}
	.st2{fill:#DA0016;}
	
		.st3{clip-path:url(#SVGID_00000094600710983935370770000011295520176295089042_);fill-rule:evenodd;clip-rule:evenodd;fill:#FFFFFF;}
</style>
<rect x="24.26" y="70.37" class="st0" width="149.9" height="57.69"/>
<g>
	<defs>
		<rect id="SVGID_1_" x="24.26" y="70.37" width="149.9" height="57.69"/>
	</defs>
	<clipPath id="SVGID_00000000932438158017032120000007440819644380116393_">
		<use xlink:href="#SVGID_1_"  style="overflow:visible;"/>
	</clipPath>
	
		<rect x="23" y="69.1" style="clip-path:url(#SVGID_00000000932438158017032120000007440819644380116393_);fill:none;stroke:#1B1918;stroke-width:0.09;stroke-miterlimit:3.864;" width="152.43" height="60.23"/>
</g>
<rect x="24.26" y="70.37" class="st0" width="149.9" height="57.69"/>
<rect x="24.26" y="70.37" class="st2" width="149.9" height="57.69"/>
<g>
	<defs>
		<rect id="SVGID_00000088109976427284370450000007882432851286269854_" x="24.26" y="70.37" width="149.9" height="57.69"/>
	</defs>
	<clipPath id="SVGID_00000093140546463244799540000009889505498838452128_">
		<use xlink:href="#SVGID_00000088109976427284370450000007882432851286269854_"  style="overflow:visible;"/>
	</clipPath>
	
		<path style="clip-path:url(#SVGID_00000093140546463244799540000009889505498838452128_);fill-rule:evenodd;clip-rule:evenodd;fill:#FFFFFF;" d="
		M44.36,84.24c1.67,1.07,1.3,4.25,1.37,6.62h9.39c0.07-3.78,0.29-8.39-1.42-10.88c-3.69-5.36-10.47-6.62-16.45-4.85
		c-3.97,1.18-7.69,4.93-7.69,9.1l-0.01,18.87c0,4.73,2.19,9.51,6.69,11.46c4.79,1.77,11.06,1.18,15.2-1.54
		c4.2-2.96,3.97-8.24,3.85-12.97h-9.51c0,1.49,0.09,3.68-0.24,5.21c-0.2,0.96-1.68,1.31-2.63,1.31c-0.95-0.06-2.25-0.49-2.31-2.07
		c0,0-0.01-18.29-0.01-18.63C40.63,84.68,42.37,83.03,44.36,84.24"/>
	
		<path style="clip-path:url(#SVGID_00000093140546463244799540000009889505498838452128_);fill-rule:evenodd;clip-rule:evenodd;fill:#FFFFFF;" d="
		M109.36,79.39c1.65,2.6,2.66,5.5,2.42,8.93h-9.11c-0.06-1.77-0.12-3.84-1.95-4.67c-1.55-0.33-2.22,0.3-2.72,1.12
		c-0.47,1.01-0.36,1.89,0.12,2.84c3.55,5.97,12.67,3.9,13.49,12.65c0.48,5.13-0.5,10.99-4.67,13.6c-4.41,2.74-11.65,2.6-15.91-0.53
		c-3.96-3.25-4.73-8.04-4.26-13.24h9.82c0.06,2.24-0.47,5.08,2.01,5.97c1.01,0.18,1.77-0.12,2.37-1.01
		c0.66-1.31,0.47-3.37-0.53-4.49c-4.32-3.78-11.54-4.19-13.07-10.64c-0.94-3.78-1-8.57,1.71-11.53c3.37-3.55,8.28-4.37,13.08-3.66
		C104.87,75.49,107.65,76.79,109.36,79.39"/>
	
		<path style="clip-path:url(#SVGID_00000093140546463244799540000009889505498838452128_);fill-rule:evenodd;clip-rule:evenodd;fill:#FFFFFF;" d="
		M166.06,79.39c1.65,2.6,2.66,5.5,2.42,8.93h-9.11c-0.06-1.77-0.12-3.84-1.95-4.67c-1.55-0.33-2.22,0.3-2.72,1.12
		c-0.47,1.01-0.36,1.89,0.12,2.84c3.55,5.97,12.67,3.9,13.49,12.65c0.48,5.13-0.49,10.99-4.67,13.6c-4.41,2.74-11.65,2.6-15.91-0.53
		c-3.96-3.25-4.73-8.04-4.26-13.24h9.82c0.06,2.24-0.47,5.08,2.01,5.97c1.01,0.18,1.77-0.12,2.37-1.01
		c0.66-1.31,0.47-3.37-0.53-4.49c-4.32-3.78-11.54-4.19-13.07-10.64c-0.94-3.78-1-8.57,1.71-11.53c3.37-3.55,8.28-4.37,13.07-3.66
		C161.56,75.49,164.34,76.79,166.06,79.39"/>
	
		<path style="clip-path:url(#SVGID_00000093140546463244799540000009889505498838452128_);fill-rule:evenodd;clip-rule:evenodd;fill:#FFFFFF;" d="
		M82.51,79.1c1.07,1.48,1.72,3.2,1.71,4.96l0.01,21.82c-0.03,3.87-3.24,8.17-6.92,9.1c-5.45,1.38-12.6,1.36-16.51-3.37
		c-1.3-1.83-2.13-3.91-2.13-6.27v-21.4c0-3.92,3.49-7.86,7.39-8.81C71.81,73.72,78.67,74.14,82.51,79.1 M71.44,84.05
		c-1.41-0.01-2.12,1.05-2.12,2.09L69.3,103.8c0.03,1.36,0.82,2.09,2.38,2.05c1.48,0.01,2.24-0.76,2.2-1.92c0,0,0-17.69,0-17.72
		C73.88,85.37,73.25,84.05,71.44,84.05"/>
	
		<path style="clip-path:url(#SVGID_00000093140546463244799540000009889505498838452128_);fill-rule:evenodd;clip-rule:evenodd;fill:#FFFFFF;" d="
		M143.06,114.74l-9.27,0.01l-1.42-5.85h-10.23l-1.54,5.85h-9.23l9.76-39.19h12.24L143.06,114.74z M130.24,100.55l-3.02-12.76
		l-2.96,12.76H130.24z"/>
	
		<path style="clip-path:url(#SVGID_00000093140546463244799540000009889505498838452128_);fill-rule:evenodd;clip-rule:evenodd;fill:#FFFFFF;" d="
		M44.69,123.09l-0.77,1.55h-0.89l3.19-6.47l3.19,6.47h-0.89l-0.77-1.55H44.69z M46.22,119.87l-1.19,2.51h2.37L46.22,119.87z"/>
	
		<path style="clip-path:url(#SVGID_00000093140546463244799540000009889505498838452128_);fill-rule:evenodd;clip-rule:evenodd;fill:#FFFFFF;" d="
		M59.05,124.64h-1.01l-1.97-2.63h-0.35v2.63h-0.83v-6.21h1.01c0.59,0,1.24,0.01,1.77,0.29c0.56,0.3,0.88,0.89,0.88,1.48
		c0,0.89-0.64,1.63-1.61,1.73L59.05,124.64z M55.73,121.37h0.27c0.85,0,1.78-0.15,1.78-1.14c0-0.98-1-1.11-1.82-1.11h-0.22V121.37z"
		/>
	
		<polygon style="clip-path:url(#SVGID_00000093140546463244799540000009889505498838452128_);fill-rule:evenodd;clip-rule:evenodd;fill:#FFFFFF;" points="
		60.63,118.43 64.23,118.43 64.23,119.14 61.47,119.14 61.47,120.88 64.15,120.88 64.15,121.58 61.47,121.58 61.47,123.93 
		64.23,123.93 64.23,124.64 60.63,124.64 	"/>
	
		<polygon style="clip-path:url(#SVGID_00000093140546463244799540000009889505498838452128_);fill-rule:evenodd;clip-rule:evenodd;fill:#FFFFFF;" points="
		68.39,123.03 70.37,118.43 71.29,118.43 68.39,124.96 65.48,118.43 66.39,118.43 	"/>
	
		<rect x="72.75" y="118.43" style="clip-path:url(#SVGID_00000093140546463244799540000009889505498838452128_);fill-rule:evenodd;clip-rule:evenodd;fill:#FFFFFF;" width="0.83" height="6.21"/>
	
		<path style="clip-path:url(#SVGID_00000093140546463244799540000009889505498838452128_);fill-rule:evenodd;clip-rule:evenodd;fill:#FFFFFF;" d="
		M78.73,119.61c-0.25-0.39-0.57-0.58-1.08-0.58c-0.53,0-1.12,0.34-1.12,0.88c0,0.49,0.52,0.74,0.93,0.89l0.48,0.17
		c0.95,0.34,1.66,0.83,1.66,1.86c0,1.13-0.94,1.94-2.14,1.94c-1.08,0-1.93-0.74-2.06-1.74l0.84-0.17c-0.01,0.69,0.58,1.18,1.3,1.18
		c0.72,0,1.23-0.56,1.23-1.21c0-0.67-0.58-0.95-1.15-1.17l-0.46-0.18c-0.76-0.3-1.46-0.71-1.46-1.57c0-1,0.96-1.6,1.97-1.6
		c0.74,0,1.36,0.33,1.72,0.94L78.73,119.61z"/>
	
		<polygon style="clip-path:url(#SVGID_00000093140546463244799540000009889505498838452128_);fill-rule:evenodd;clip-rule:evenodd;fill:#FFFFFF;" points="
		83.24,124.64 82.41,124.64 82.41,119.14 80.82,119.14 80.82,118.43 84.83,118.43 84.83,119.14 83.24,119.14 	"/>
	
		<path style="clip-path:url(#SVGID_00000093140546463244799540000009889505498838452128_);fill-rule:evenodd;clip-rule:evenodd;fill:#FFFFFF;" d="
		M86.65,123.09l-0.76,1.55h-0.89l3.19-6.47l3.19,6.47h-0.89l-0.76-1.55H86.65z M88.18,119.87l-1.19,2.51h2.38L88.18,119.87z"/>
	
		<rect x="96.22" y="118.43" style="clip-path:url(#SVGID_00000093140546463244799540000009889505498838452128_);fill-rule:evenodd;clip-rule:evenodd;fill:#FFFFFF;" width="0.83" height="6.21"/>
	
		<polygon style="clip-path:url(#SVGID_00000093140546463244799540000009889505498838452128_);fill-rule:evenodd;clip-rule:evenodd;fill:#FFFFFF;" points="
		98.84,118.14 103.86,123.02 103.86,118.43 104.7,118.43 104.7,124.9 99.68,120.01 99.68,124.64 98.84,124.64 	"/>
	
		<polygon style="clip-path:url(#SVGID_00000093140546463244799540000009889505498838452128_);fill-rule:evenodd;clip-rule:evenodd;fill:#FFFFFF;" points="
		108.2,124.64 107.37,124.64 107.37,119.14 105.78,119.14 105.78,118.43 109.79,118.43 109.79,119.14 108.2,119.14 	"/>
	
		<polygon style="clip-path:url(#SVGID_00000093140546463244799540000009889505498838452128_);fill-rule:evenodd;clip-rule:evenodd;fill:#FFFFFF;" points="
		110.85,118.43 114.45,118.43 114.45,119.14 111.68,119.14 111.68,120.88 114.37,120.88 114.37,121.58 111.68,121.58 111.68,123.93 
		114.45,123.93 114.45,124.64 110.85,124.64 	"/>
	
		<path style="clip-path:url(#SVGID_00000093140546463244799540000009889505498838452128_);fill-rule:evenodd;clip-rule:evenodd;fill:#FFFFFF;" d="
		M120.11,124.64h-1.01l-1.97-2.63h-0.35v2.63h-0.83v-6.21h1.01c0.59,0,1.24,0.01,1.77,0.29c0.56,0.3,0.88,0.89,0.88,1.48
		c0,0.89-0.64,1.63-1.61,1.73L120.11,124.64z M116.78,121.37h0.27c0.85,0,1.78-0.15,1.78-1.14c0-0.98-0.99-1.11-1.82-1.11h-0.22
		V121.37z"/>
	
		<polygon style="clip-path:url(#SVGID_00000093140546463244799540000009889505498838452128_);fill-rule:evenodd;clip-rule:evenodd;fill:#FFFFFF;" points="
		121.17,118.14 126.19,123.02 126.19,118.43 127.02,118.43 127.02,124.9 122,120.01 122,124.64 121.17,124.64 	"/>
	
		<path style="clip-path:url(#SVGID_00000093140546463244799540000009889505498838452128_);fill-rule:evenodd;clip-rule:evenodd;fill:#FFFFFF;" d="
		M129.64,123.09l-0.76,1.55h-0.89l3.19-6.47l3.19,6.47h-0.89l-0.77-1.55H129.64z M131.17,119.87l-1.19,2.51h2.37L131.17,119.87z"/>
	
		<path style="clip-path:url(#SVGID_00000093140546463244799540000009889505498838452128_);fill-rule:evenodd;clip-rule:evenodd;fill:#FFFFFF;" d="
		M140.23,119.62c-0.48-0.39-1.13-0.61-1.76-0.61c-1.5,0-2.65,1.16-2.65,2.54c0,1.35,1.14,2.52,2.62,2.52c0.66,0,1.29-0.23,1.78-0.64
		v0.91c-0.51,0.28-1.17,0.43-1.76,0.43c-1.9,0-3.48-1.41-3.48-3.2c0-1.84,1.59-3.27,3.56-3.27c0.59,0,1.18,0.13,1.68,0.42V119.62z"
		/>
	
		<rect x="141.64" y="118.43" style="clip-path:url(#SVGID_00000093140546463244799540000009889505498838452128_);fill-rule:evenodd;clip-rule:evenodd;fill:#FFFFFF;" width="0.84" height="6.21"/>
	
		<path style="clip-path:url(#SVGID_00000093140546463244799540000009889505498838452128_);fill-rule:evenodd;clip-rule:evenodd;fill:#FFFFFF;" d="
		M150.7,121.54c0,1.85-1.57,3.23-3.5,3.23c-1.94,0-3.5-1.39-3.5-3.23c0-1.78,1.58-3.23,3.5-3.23
		C149.12,118.3,150.7,119.76,150.7,121.54 M149.87,121.54c0-1.36-1.1-2.51-2.67-2.51c-1.57,0-2.67,1.15-2.67,2.51
		c0,1.42,1.23,2.51,2.67,2.51C148.64,124.05,149.87,122.95,149.87,121.54"/>
	
		<polygon style="clip-path:url(#SVGID_00000093140546463244799540000009889505498838452128_);fill-rule:evenodd;clip-rule:evenodd;fill:#FFFFFF;" points="
		151.87,118.14 156.89,123.02 156.89,118.43 157.73,118.43 157.73,124.9 152.7,120.01 152.7,124.64 151.87,124.64 	"/>
	
		<path style="clip-path:url(#SVGID_00000093140546463244799540000009889505498838452128_);fill-rule:evenodd;clip-rule:evenodd;fill:#FFFFFF;" d="
		M160.3,123.09l-0.77,1.55h-0.89l3.19-6.47l3.19,6.47h-0.89l-0.77-1.55H160.3z M161.84,119.87l-1.19,2.51h2.38L161.84,119.87z"/>
	
		<polygon style="clip-path:url(#SVGID_00000093140546463244799540000009889505498838452128_);fill-rule:evenodd;clip-rule:evenodd;fill:#FFFFFF;" points="
		166.86,123.93 168.9,123.93 168.9,124.64 166.03,124.64 166.03,118.43 166.86,118.43 	"/>
	
		<path style="clip-path:url(#SVGID_00000093140546463244799540000009889505498838452128_);fill-rule:evenodd;clip-rule:evenodd;fill:#FFFFFF;" d="
		M30.16,118.5v3.66c0,1.01,0.33,1.95,1.61,1.95c1.29,0,1.62-0.94,1.62-1.95v-3.66h0.83v3.93c0,1.37-0.91,2.41-2.45,2.41
		s-2.45-1.04-2.45-2.41v-3.93H30.16z"/>
	
		<polygon style="clip-path:url(#SVGID_00000093140546463244799540000009889505498838452128_);fill-rule:evenodd;clip-rule:evenodd;fill:#FFFFFF;" points="
		35.96,118.2 40.98,123.08 40.98,118.5 41.81,118.5 41.81,124.96 36.79,120.08 36.79,124.7 35.96,124.7 	"/>
	
		<path style="clip-path:url(#SVGID_00000093140546463244799540000009889505498838452128_);fill-rule:evenodd;clip-rule:evenodd;fill:#FFFFFF;" d="
		M166.06,79.39c1.65,2.6,2.66,5.5,2.42,8.93h-9.11c-0.06-1.77-0.12-3.84-1.95-4.67c-1.55-0.33-2.22,0.3-2.72,1.12
		c-0.47,1.01-0.36,1.89,0.12,2.84c3.55,5.97,12.67,3.9,13.49,12.65c0.48,5.13-0.49,10.99-4.67,13.6c-4.41,2.74-11.65,2.6-15.91-0.53
		c-3.96-3.25-4.73-8.04-4.26-13.24h9.82c0.06,2.24-0.47,5.08,2.01,5.97c1.01,0.18,1.77-0.12,2.37-1.01
		c0.66-1.31,0.47-3.37-0.53-4.49c-4.32-3.78-11.54-4.19-13.07-10.64c-0.94-3.78-1-8.57,1.71-11.53c3.37-3.55,8.28-4.37,13.07-3.66
		C161.56,75.49,164.34,76.79,166.06,79.39"/>
	
		<path style="clip-path:url(#SVGID_00000093140546463244799540000009889505498838452128_);fill-rule:evenodd;clip-rule:evenodd;fill:#FFFFFF;" d="
		M26.69,73.02v-0.51h0.49c0.07,0,0.12,0.01,0.16,0.03c0.08,0.04,0.12,0.11,0.12,0.22c0,0.1-0.03,0.17-0.08,0.2
		c-0.05,0.04-0.13,0.06-0.22,0.06H26.69z M26.49,73.83h0.2v-0.64h0.45c0.08,0,0.14,0.01,0.18,0.03c0.07,0.03,0.1,0.1,0.11,0.2
		l0.02,0.25c0,0.06,0.01,0.1,0.01,0.12c0,0.02,0.01,0.04,0.02,0.05h0.25V73.8c-0.03-0.02-0.05-0.05-0.06-0.09
		c-0.01-0.03-0.01-0.07-0.02-0.13l-0.01-0.2c0-0.09-0.02-0.15-0.05-0.19c-0.03-0.04-0.07-0.07-0.13-0.1
		c0.07-0.03,0.12-0.08,0.16-0.14c0.04-0.06,0.05-0.13,0.05-0.22c0-0.18-0.07-0.3-0.21-0.36c-0.08-0.03-0.17-0.05-0.28-0.05h-0.68
		V73.83z"/>
	
		<path style="clip-path:url(#SVGID_00000093140546463244799540000009889505498838452128_);fill-rule:evenodd;clip-rule:evenodd;fill:#FFFFFF;" d="
		M25.46,73.18c0,0.89,0.72,1.61,1.61,1.61c0.89,0,1.61-0.72,1.61-1.61c0-0.89-0.72-1.61-1.61-1.61
		C26.18,71.57,25.46,72.29,25.46,73.18 M25.66,73.18c0-0.77,0.63-1.4,1.4-1.4c0.77,0,1.4,0.63,1.4,1.4c0,0.77-0.63,1.4-1.4,1.4
		C26.29,74.58,25.66,73.95,25.66,73.18"/>
</g>
</svg>
