<?xml version="1.0" encoding="utf-8"?>
<!-- Generator: Adobe Illustrator 28.0.0, SVG Export Plug-In . SVG Version: 6.00 Build 0)  -->
<svg version="1.1" id="Layer_1" xmlns="http://www.w3.org/2000/svg" xmlns:xlink="http://www.w3.org/1999/xlink" x="0px" y="0px"
	 viewBox="0 0 198.43 198.43" style="enable-background:new 0 0 198.43 198.43;" xml:space="preserve">
<style type="text/css">
	.st0{fill-rule:evenodd;clip-rule:evenodd;fill:#01003C;}
</style>
<g>
	<path class="st0" d="M49.54,87.06c0,2.66-0.89,5.69-2.34,8.45c-1.49,2.85-3.58,5.41-5.93,6.97c0,0-2.05,1.28-0.08,1.96
		c2.02,0.7,4.13,1.14,6.25,1.46c1.32,0.2,1.84,0.06,2.87-1.2c3.58-4.38,5.54-9.97,5.37-15.55C55.45,81.7,51.57,74.1,43.19,74
		c-14.27-0.18-18.74,17.27-18.92,28.66c-0.1,6.21,1,12.3,3.58,16.83c2.58,4.52,6.62,7.48,12.41,7.43c4.06-0.04,6.84-1.45,8.69-3.06
		c2.49-2.17,3.31-4.69,3.31-4.69c0.44-0.94,0.08-1.41-0.41-1.94c-1.04-1.12-2.26-1.89-3.6-2.62c-0.95-0.52-1.71-0.47-1.79,1.07
		c-0.04,0.93-0.4,2.95-1.33,4.72c-0.87,1.65-2.23,3.07-4.29,3.11c-2.13,0.04-4.05-2-5.43-5.65c-3.32-8.76-2.92-20.31-0.18-29.18
		c0.5-1.61,1.22-3.72,2.28-5.6c1.36-2.42,3.27-4.44,5.94-4.5C47.87,78.47,49.54,83.45,49.54,87.06"/>
	<path class="st0" d="M56.41,100.38c-0.22,2.96-0.47,9.91,1.26,14.33c1.12,2.85,2.88,3.89,4.82,3.85c2.49-0.06,5.27-1.91,7.32-3.99
		c1.01-1.02,1.87-2.13,2.41-3.16l-1.9,30.11c-0.19,2.97,1.48,3.68,4.13,2.13c0.8-0.46,2.13-1.29,3.03-1.84
		c0.75-0.46,0.61-0.85,0.6-1.29c-0.13-2.76-0.32-11.17-0.28-15.37c0.07-7.42,0.06-17.34,1.79-25.01c0.28-1.25-0.06-1.77-0.77-2.37
		c-0.6-0.5-1.29-1-2.05-1.22c-0.73-0.21-1.3-0.14-1.75,0.11c-0.87,0.47-1.33,1.61-1.79,2.71c-0.44,1.1-0.83,2.23-1.06,2.76
		c-0.43,1.03-0.94,2.23-1.5,3.42c-0.86,1.85-2.56,6.26-5.14,6.12c-2.03-0.11-1.86-5.42-1.89-6.78c-0.05-2.55,0.07-5.14-0.01-7.59
		c-0.03-1.22-0.73-2-2.07-1.52c-1.19,0.43-3.12,1.46-4.02,2.07C56.7,98.41,56.51,99.09,56.41,100.38"/>
	<path class="st0" d="M163.27,101.27c2.91,0,5.28,2.46,5.28,5.5c0,3.04-2.37,5.5-5.28,5.5c-2.92,0-5.28-2.47-5.28-5.5
		C158,103.74,160.36,101.27,163.27,101.27 M162.32,95.79c6.54,0,11.84,5.64,11.84,12.59c0,6.96-5.3,12.6-11.84,12.6
		c-6.54,0-11.84-5.64-11.84-12.6C150.48,101.43,155.78,95.79,162.32,95.79"/>
	<path class="st0" d="M139.32,103.96c0.84,3.5,3.09,12.99,3.61,15.25c0.4,1.73,1.28,2.15,2.95,0.95c1.02-0.74,4.03-3.86,4.03-3.86
		s1.14-0.85,0.34-2.34c-0.69-1.28-6.36-13.51-7.9-16.72c-1.08-2.24-3.26-2.46-4.48-0.57c-0.84,1.31-3.43,5.58-4.13,6.79
		c-0.3,0.52-0.67,0.8-1.02,0.81c-0.39,0.02-0.75-0.3-0.94-1l-1.02-3.74c0,0-0.35-2.11-2.17-0.45l-3.99,3.82c0,0-1.02,0.8-0.57,2.68
		c0.9,3.69,2.06,7.36,3.16,11.01c0.28,0.94,0.45,2.47,1.68,2.55c0.69,0.05,1.34-0.3,1.89-1.04c1.48-2,2.71-4.54,3.93-6.72
		c1.36-2.44,2.66-4.93,3.91-7.44C138.94,103.28,139.17,103.3,139.32,103.96"/>
	<path class="st0" d="M116.24,109.33c-1.24,1.2-2.89,2.71-4.67,3.89c-2.92,1.95-6.38,1.8-5.94-2.38c0.39-3.66,3.97-6.85,7.48-7.58
		c2.16-0.46,3.53,1.19,3.93,1.53c0.4,0.35,1.31,1.31,2.85-0.06c1.53-1.36,2.33-2.73,2.62-3.19c0.29-0.46,1.37-2.91-0.97-4.44
		c-1.35-0.89-3.88-1.59-6.75-1.34c-6.66,0.59-11.63,6.31-13.37,12.48c-0.86,3.07-0.54,6.4,1,8.58c3.21,4.54,9.26,1.46,11.29,0.29
		c0.49-0.28,0.54-0.43,0.9,0.1l2.03,2.97c0,0,1.48,1.65,3.7-0.28c2.22-1.94,2.39-2.34,2.39-2.34s1.37-1.08-0.06-3.37
		c-0.81-1.29-2.14-3.3-3.17-4.77C118.37,107.82,117.54,108.06,116.24,109.33"/>
	<path class="st0" d="M84.04,119.13l-2.66-15.05c0,0-0.35-1.77,1.07-2.78c0.89-0.64,2.13-1.59,2.93-2.21
		c0.86-0.67,2.28-1.57,2.82,0.25c0.09,0.3,0.26,0.99,0.47,1.93c0.99-1.25,2.7-3.68,4.95-5.88c1.35-1.33,4.5-2.33,5.57-0.2
		c0.4,0.78,1.28,2.63,1.98,4.8c0.95,2.91-0.53,4.68-2.43,6.46c-2.1,1.97-3.17,0.98-3.43-0.85c-0.16-1.13-0.71-3.69-1.14-3.95
		c-0.59-0.35-1.54,0.53-2.25,1.48c-0.41,0.54-1.36,2.15-2.1,3.41c0.8,3.71,1.57,7.42,1.57,7.42s0.59,2.55-1.07,4.03
		c-1.66,1.48-3.08,2.66-3.08,2.66s-1.13,0.65-2.08,0.29C84.22,120.61,84.04,119.13,84.04,119.13"/>
</g>
</svg>
