<?xml version="1.0" encoding="utf-8"?>
<!-- Generator: Adobe Illustrator 28.0.0, SVG Export Plug-In . SVG Version: 6.00 Build 0)  -->
<svg version="1.1" id="Layer_1" xmlns="http://www.w3.org/2000/svg" xmlns:xlink="http://www.w3.org/1999/xlink" x="0px" y="0px"
	 viewBox="0 0 198.43 198.43" style="enable-background:new 0 0 198.43 198.43;" xml:space="preserve">
<style type="text/css">
	.st0{fill-rule:evenodd;clip-rule:evenodd;fill:#234290;}
	.st1{fill-rule:evenodd;clip-rule:evenodd;fill:#ED1D24;}
	.st2{fill-rule:evenodd;clip-rule:evenodd;fill:#FFFFFF;}
</style>
<polygon class="st0" points="47.82,78.81 38.04,100.64 46.97,100.64 54.28,84.74 59.66,94.6 49.76,94.59 49.41,95.5 52.3,100.63 
	70.19,100.58 60.36,78.81 "/>
<polygon class="st0" points="70.16,78.77 70.16,100.58 92.8,100.63 92.8,94.65 78.45,94.7 78.45,92.25 91.2,92.26 91.2,86.68 
	78.45,86.68 78.45,84.29 92.45,84.29 98.82,100.63 105.95,100.63 109.93,91.86 114.02,100.63 121.04,100.63 129.86,78.81 
	121.64,78.81 116.71,91.17 113.22,84.14 115.81,78.77 103.95,78.77 106.46,84.07 103.16,91.23 98.43,78.7 "/>
<path class="st0" d="M32.65,78.37l5.38,1.26l2.27,2.86l1.06,2.56l0.82,1.99l0.02,1.94l-0.36,2.83l-0.57,2.18l-1.14,1.67l-3.16,4.64
	l-5.19,0.73H14.69V78.37H32.65z M23.46,84.34v10.71l10.41,1.49l0.4-6.92l0.7-6.42L23.46,84.34z"/>
<path class="st0" d="M126.4,89.37v-6.69l6.49-5.43h8.01h8.01l6.49,5.43v6.69v6.69l-6.49,5.43h-8.01h-8.01l-6.49-5.43V89.37z
	 M140.82,96.16h3.48l2.82-3.02v-3.72V85.7l-2.82-3.02h-3.48h-3.48l-2.82,3.02v3.72v3.72l2.82,3.02H140.82z"/>
<path class="st0" d="M155.26,89.37v-6.69l6.49-5.43h8.01h8.01l6.49,5.43v6.69v6.69l-6.49,5.43h-8.01h-8.01l-6.49-5.43V89.37z
	 M169.67,96.16h3.48l2.82-3.02v-3.72V85.7l-2.82-3.02h-3.48h-3.48l-2.82,3.02v3.72v3.72l2.82,3.02H169.67z"/>
<rect x="14.17" y="105.8" class="st1" width="169.07" height="15.37"/>
<polygon class="st2" points="75.29,109.22 78.57,109.22 80.04,114.91 80.06,114.91 81.53,109.22 84.8,109.22 84.8,117.75 
	82.71,117.75 82.71,111.28 82.69,111.28 80.9,117.75 79.2,117.75 77.41,111.28 77.38,111.28 77.38,117.75 75.29,117.75 "/>
<path class="st2" d="M90.23,109.04h2.69l1.52,1.97v2.47v2.47l-1.52,1.97h-2.69h-2.69l-1.52-1.97v-2.47v-2.47l1.52-1.97H90.23z
	 M90.23,116.02h1.43l0.55-1.27v-1.27v-1.27l-0.55-1.27h-1.43H88.8l-0.55,1.27v1.27v1.27l0.55,1.27H90.23z"/>
<polygon class="st2" points="102.41,111.13 99.86,111.13 99.86,117.75 97.64,117.75 97.64,111.13 95.1,111.13 95.1,109.22 
	102.41,109.22 "/>
<path class="st2" d="M107.28,109.04h2.69l1.52,1.97v2.47v2.47l-1.52,1.97h-2.69h-2.69l-1.52-1.97v-2.47v-2.47l1.52-1.97H107.28z
	 M107.28,116.02h1.43l0.55-1.27v-1.27v-1.27l-0.55-1.27h-1.43h-1.43l-0.55,1.27v1.27v1.27l0.55,1.27H107.28z"/>
<path class="st2" d="M112.69,109.22h4.35h1.51l1.48,0.68v1.72v0.92l-0.44,0.87l-0.9,0.35v0.02l0.91,0.22l0.26,1.02l0.07,0.81
	l0.02,0.36l0.04,1.25l0.3,0.31h-2.2l-0.19-0.29l-0.04-0.84l-0.02-0.24l-0.06-0.86l-0.14-0.88h-1.04h-1.68v3.11h-2.22V109.22z
	 M114.91,112.93h1.86h0.67l0.36-0.36v-0.65v-0.63l-0.5-0.29h-0.62h-1.77V112.93z"/>
</svg>
