<?xml version="1.0" encoding="utf-8"?>
<!-- Generator: Adobe Illustrator 28.0.0, SVG Export Plug-In . SVG Version: 6.00 Build 0)  -->
<svg version="1.1" id="Layer_1" xmlns="http://www.w3.org/2000/svg" xmlns:xlink="http://www.w3.org/1999/xlink" x="0px" y="0px"
	 viewBox="0 0 198.43 198.43" style="enable-background:new 0 0 198.43 198.43;" xml:space="preserve">
<style type="text/css">
	.st0{fill:#F6303E;}
	
		.st1{clip-path:url(#SVGID_00000059277103683995146780000012748766663700219278_);fill-rule:evenodd;clip-rule:evenodd;fill:#FFFFFF;}
</style>
<g>
	<rect x="14.17" y="62.01" class="st0" width="170.08" height="74.41"/>
	<g>
		<defs>
			<rect id="SVGID_1_" x="14.17" y="62.01" width="170.08" height="74.41"/>
		</defs>
		<clipPath id="SVGID_00000017496561578883770510000006748382875035301018_">
			<use xlink:href="#SVGID_1_"  style="overflow:visible;"/>
		</clipPath>
		
			<path style="clip-path:url(#SVGID_00000017496561578883770510000006748382875035301018_);fill-rule:evenodd;clip-rule:evenodd;fill:#FFFFFF;" d="
			M74.8,104.92c-0.44,0.15-1.22,0.38-2.05,0.51c-0.75,0.11-1.3,0.16-1.89-0.15c-0.02-0.01-0.04-0.03-0.11-0.07
			c1.3-0.53,2.33-1.83,2.33-3.31c0-0.39-0.1-0.78-0.33-1.12c-0.32-0.47-0.88-0.69-1.49-0.68c-1.03,0.02-1.96,0.64-2.62,1.5
			c-0.58,0.75-0.95,1.68-0.99,2.54c-0.3,0.41-0.83,0.79-1.49,1.03c-0.61,0.22-1.31,0.32-2.06,0.2c-0.56-0.09-1.22-0.4-1.5-0.05
			c-0.21,0.28,0.05,1.04,1.5,1.29c1.16,0.2,2.04,0.13,2.69-0.06c0.62-0.18,1.06-0.47,1.35-0.74c0.6,0.76,1.67,0.98,2.72,0.98
			c0.89-0.01,1.81-0.13,2.67-0.41c0.65-0.21,1.2-0.4,1.78-0.57c0.75-0.22,1.27-0.23,1.8-0.4c0.23-0.07,0.35-0.26,0.35-0.44
			c-0.01-0.21-0.24-0.36-0.49-0.38C76.19,104.48,75.51,104.66,74.8,104.92 M70.39,104.71c-0.33-0.73-0.08-2.14,0.47-2.76
			c0.32-0.36,0.74-0.48,1.06-0.38c0.27,0.09,0.45,0.35,0.43,0.78c-0.01,0.17-0.05,0.37-0.13,0.6
			C71.74,104.2,70.39,104.71,70.39,104.71"/>
		
			<path style="clip-path:url(#SVGID_00000017496561578883770510000006748382875035301018_);fill-rule:evenodd;clip-rule:evenodd;fill:#FFFFFF;" d="
			M47.14,91.38c-7.82,0.73-12.94,1.79-15.79,2.79c-0.71,0.25-1.28,0.5-1.71,0.73c-0.75,0.41-1.11,0.8-1.11,1.13
			c0,0.47,0.71,0.75,1.41,0.92c0.49,0.12,0.99,0.18,1.24,0.21c0.49,0.06,1.09,0.09,1.89,0.07c0.72-0.02,1.07-0.25,1.08-0.48
			c0.01-0.31-0.62-0.47-1.03-0.51c-0.6-0.04-1.65-0.1-1.65-0.41c0-0.13,0.38-0.28,0.97-0.4c2.42-0.52,9.39-1.91,15.81-2.31
			c17.96-1.03,18.53,2.69,18.54,3.58c0.07,4.26-10.32,7.94-18.23,8.8c-9.69,1.06-14.55,0.26-17.23-0.16
			c-1.56-0.25-2.25-0.6-2.26-0.94c-0.02-0.38,0.85-0.76,2.31-0.99c1.44-0.24,7.18-0.51,11.81-0.32c0.22,1.19,0.54,1.96,0.91,1.96
			c0.35,0,0.67-0.71,0.89-1.86c1.46,0.11,3.34,0.28,4.78,0.38c1.44,0.1,1.78,0.02,1.81-0.32c0.03-0.34-0.95-0.64-1.81-0.78
			c-1.99-0.31-3.11-0.46-4.59-0.58c0.07-0.69,0.1-1.47,0.1-2.27c0-3-0.52-5.43-1.17-5.43c-0.66,0-1.19,2.43-1.19,5.43
			c0,0.74,0.03,1.47,0.09,2.1c-2.69-0.17-7.81-0.34-12.11,0.3c-0.13,0.02-0.26,0.04-0.37,0.06c-4.43,0.8-4.08,3.05-0.22,4.21
			c0.16,0.05,0.31,0.09,0.42,0.12c3.4,0.99,8.41,1.33,15.35,0.95c9.48-0.53,17.1-3.68,20.07-5.82c2.5-1.8,3.44-3.67,2.93-5.34
			c-0.7-2.27-3.71-4.15-9.5-4.88C56.34,90.96,52.22,90.92,47.14,91.38"/>
		
			<path style="clip-path:url(#SVGID_00000017496561578883770510000006748382875035301018_);fill-rule:evenodd;clip-rule:evenodd;fill:#FFFFFF;" d="
			M112.44,97.63c0.01-3.83-3.91-6.67-8.95-8.31c-3.23-1.05-6.92-1.62-10.32-1.65c-4.19-0.03-7.62,0.22-10.39,0.64
			c-4.05,0.62-6.7,1.61-8.3,2.62c-1.82,1.14-2.94,2.8-0.72,3.87c0.23,0.11,0.44,0.18,0.63,0.24c0.95,0.29,1.34-0.62,0.68-1
			c-0.42-0.24-1.02-0.4-1.02-0.77c0-0.64,3.14-2.08,10.27-2.68c2.48-0.21,5.43-0.31,8.91-0.25c3.56,0.06,6.6,0.4,9.09,0.97
			c5.1,1.15,7.9,3.26,8.15,5.9c0.17,1.87-1.67,3.76-4.68,5.18c-2.65,1.25-6.22,2.13-10.11,2.27c0.01-0.52,0.01-1.06,0.01-1.62
			c0-1.8-0.11-3.46-0.29-4.77c-0.25-1.8-0.64-2.96-1.08-2.96c-0.45,0-0.84,1.22-1.09,3.11c-0.17,1.29-0.27,2.89-0.27,4.62
			c0,0.56,0,1.08,0.01,1.62c-1.92-0.06-3.54-0.18-4.86-0.33c-1.61-0.19-2.78-0.43-3.53-0.67c-0.18-0.06-1.06-0.33-1.03-0.66
			c0.02-0.18,0.4-0.23,0.73-0.27c0.4-0.05,0.6-0.27,0.6-0.51c0-0.23-0.19-0.47-0.57-0.54c-0.47-0.09-1.16-0.01-1.58,0.15
			c-0.5,0.19-0.75,0.51-0.75,0.87c0.03,2,4.12,2.94,5.45,3.25c1.47,0.35,3.31,0.63,5.6,0.75c0.14,2.42,0.47,4.06,1.29,4.06
			c0.78,0,1.12-1.6,1.28-3.99c3.71-0.04,8.12-0.9,11.49-2.57C110.2,102.69,112.43,100.47,112.44,97.63"/>
		
			<path style="clip-path:url(#SVGID_00000017496561578883770510000006748382875035301018_);fill-rule:evenodd;clip-rule:evenodd;fill:#FFFFFF;" d="
			M170.77,104.43c-1.42-1.02-3.31-0.82-4.84-0.19c-0.37,0.15-0.73,0.31-1.1,0.44c-0.39,0.14-0.8,0.24-1.24,0.26
			c-0.54,0.02-1.03-0.1-1.38-0.43c-0.33-0.32-0.54-0.82-0.54-1.58c0-1.58-0.02-2.35-0.02-2.35h-2.87c0,0-0.36,1.91-1.63,3.2
			c-0.91,0.93-2.01,1.43-3.43,1.27c-1.57-0.19-2.21-1.13-2.21-2.1v-3.23h0.87c6.64,0,12-0.18,12-0.87c0-0.72-5.36-0.87-12-0.87
			h-0.87v-1.37h-3.04v1.41c-4.7,0.09-8.08,0.35-8.08,0.83c0,0.46,3.38,0.73,8.08,0.84v3.63c0,0-1.23-0.17-2.32,0.52
			c-1.08,0.68-2.33,1.54-4.54,1.24c-2.09-0.26-2.77-1.47-3.23-2.49c-0.15-0.37-0.26-0.69-0.31-0.91c-0.14-0.52-0.64-0.36-0.62,0.2
			c0.03,0.66-0.07,1.28-0.45,1.84c-0.31,0.47-0.82,0.9-1.62,1.26c-0.83,0.38-1.86,0.39-2.39-0.02c-0.41-0.32-0.51-0.89,0.03-1.72
			c0.28-0.43,0.76-0.91,1.31-1.29c0.65-0.44,1.4-0.74,2.03-0.64c0.28,0.05,0.44-0.03,0.47-0.15c0.03-0.13-0.06-0.31-0.29-0.49
			c-0.24-0.19-0.63-0.37-1.19-0.47c-0.35-0.06-0.7-0.11-1.05-0.11c-1.64-0.01-3.53,0.49-4.22,2.12c-0.88,0.51-2.21,1.06-3.94,1.08
			c-3.26,0.04-4.06-2.61-6.34-2.74c-1.63-0.07-3.2,1.21-3.9,1.85v-1.64h-2.97v6.06h2.97v-2.64c0.57-0.6,1.63-1.5,2.71-1.4
			c1.05,0.09,1.51,0.83,2.87,1.42c1.64,0.73,3.78,0.77,5.18,0.45c1.32-0.31,2.39-0.89,3.15-1.4c-0.05,0.74,0.15,1.55,0.65,2.22
			c1.36,1.82,3.96,1.95,5.89,0.93c0.73-0.38,1.36-0.92,1.79-1.59c0,0,1.34,2.28,4.48,2.01c2.35-0.19,3.55-1.84,4.54-2.24
			c0.96-0.37,1.49-0.27,1.49-0.27s0.54,2.26,4.28,2.24c3.09-0.02,4.64-1.56,5.04-2.04c0.21-0.25,0.51-0.33,0.64,0.14
			c0.45,1.57,2.07,2.05,3.67,2.03c0.83-0.01,1.66-0.14,2.43-0.42c0.48-0.17,0.9-0.43,1.33-0.68c0.7-0.41,1.36-0.76,2.18-0.81
			c0.49-0.03,0.98,0.03,1.39,0.12c0.42,0.1,0.77,0.22,0.99,0.32C171.11,105.44,171.34,104.85,170.77,104.43"/>
		
			<path style="clip-path:url(#SVGID_00000017496561578883770510000006748382875035301018_);fill-rule:evenodd;clip-rule:evenodd;fill:#FFFFFF;" d="
			M160.18,97.54c1.11,0,2-0.78,2-1.75c0-0.96-0.9-1.72-2-1.72c-1.11,0-1.99,0.76-1.99,1.72C158.19,96.76,159.07,97.54,160.18,97.54"
			/>
	</g>
</g>
</svg>
