<?xml version="1.0" encoding="utf-8"?>
<!-- Generator: Adobe Illustrator 28.0.0, SVG Export Plug-In . SVG Version: 6.00 Build 0)  -->
<svg version="1.1" id="Layer_1" xmlns="http://www.w3.org/2000/svg" xmlns:xlink="http://www.w3.org/1999/xlink" x="0px" y="0px"
	 viewBox="0 0 198.43 198.43" style="enable-background:new 0 0 198.43 198.43;" xml:space="preserve">
<style type="text/css">
	.st0{fill-rule:evenodd;clip-rule:evenodd;fill:#D9DADB;}
	.st1{fill-rule:evenodd;clip-rule:evenodd;fill:#00448A;}
	.st2{fill:#00448A;}
</style>
<g>
	<path class="st0" d="M14.6,99.21c0-11.36,9.2-20.56,20.56-20.56c11.35,0,20.56,9.2,20.56,20.56c0,11.35-9.21,20.56-20.56,20.56
		C23.81,119.77,14.6,110.57,14.6,99.21"/>
	<path class="st1" d="M14.96,99.21L14.96,99.21c0-11.16,9.04-20.2,20.2-20.2c11.16,0,20.2,9.04,20.2,20.2s-9.05,20.2-20.2,20.2
		C24.01,119.42,14.96,110.37,14.96,99.21 M14.17,99.21L14.17,99.21c0-11.6,9.4-20.99,20.99-20.99h24.66
		c11.59,0,20.99,9.4,20.99,20.99s-9.4,20.99-20.99,20.99H35.24C23.57,120.21,14.17,110.81,14.17,99.21 M38.8,87L38.8,87
		c5.26,1.57,9.1,6.44,9.1,12.21c0,5.77-3.84,10.64-9.1,12.21V87z M22.43,99.21c0-5.7,3.75-10.54,8.92-12.16v24.31
		C26.18,109.75,22.43,104.92,22.43,99.21"/>
	<path class="st2" d="M88.78,104.63c0,1.62,1.16,1.81,2.2,1.81c4.56,0,6.06-3.44,6.06-6.59c0-3.95-2.53-6.8-6.61-6.8
		c-0.87,0-1.27,0.06-1.65,0.08V104.63z M86.71,94.72c0-1.9-0.99-1.77-1.94-1.79v-0.55c0.82,0.04,1.67,0.04,2.49,0.04
		c0.89,0,2.09-0.04,3.65-0.04c5.47,0,8.44,3.65,8.44,7.39c0,2.09-1.22,7.35-8.7,7.35c-1.08,0-2.07-0.04-3.06-0.04
		c-0.95,0-1.88,0.02-2.83,0.04v-0.55c1.27-0.13,1.88-0.17,1.94-1.6V94.72z"/>
	<path class="st2" d="M102.35,94.22c-0.55,0-1.04-0.51-1.04-1.06c0-0.53,0.51-1.02,1.04-1.02c0.55,0,1.03,0.45,1.03,1.02
		C103.39,93.73,102.92,94.22,102.35,94.22 M100.1,106.57h0.4c0.59,0,1.01,0,1.01-0.7v-5.72c0-0.93-0.32-1.06-1.1-1.48v-0.34
		c0.99-0.3,2.18-0.7,2.26-0.76c0.15-0.08,0.27-0.11,0.38-0.11c0.1,0,0.15,0.13,0.15,0.3v8.11c0,0.7,0.46,0.7,1.06,0.7h0.36v0.55
		c-0.72,0-1.46-0.04-2.22-0.04c-0.76,0-1.52,0.02-2.3,0.04V106.57z"/>
	<path class="st2" d="M106.62,100.28c0-0.78-0.23-0.99-1.22-1.39v-0.4c0.91-0.3,1.77-0.57,2.79-1.01c0.06,0,0.12,0.04,0.12,0.21
		v1.37c1.2-0.86,2.24-1.58,3.66-1.58c1.79,0,2.43,1.31,2.43,2.96v5.45c0,0.7,0.46,0.7,1.06,0.7h0.38v0.55
		c-0.74,0-1.48-0.04-2.24-0.04c-0.76,0-1.52,0.02-2.28,0.04v-0.55h0.38c0.59,0,1.01,0,1.01-0.7v-5.47c0-1.2-0.74-1.79-1.94-1.79
		c-0.68,0-1.75,0.55-2.45,1.01v6.25c0,0.7,0.47,0.7,1.06,0.7h0.38v0.55c-0.74,0-1.48-0.04-2.24-0.04c-0.76,0-1.52,0.02-2.28,0.04
		v-0.55h0.38c0.59,0,1.01,0,1.01-0.7V100.28z"/>
	<path class="st2" d="M121.17,100.61c0.53,0,0.59-0.27,0.59-0.53c0-1.08-0.65-1.94-1.84-1.94c-1.29,0-2.17,0.95-2.43,2.47H121.17z
		 M117.43,101.29c-0.04,0.19-0.04,0.51,0,1.22c0.12,2,1.41,3.65,3.1,3.65c1.16,0,2.07-0.63,2.85-1.41l0.29,0.3
		c-0.97,1.29-2.17,2.39-3.9,2.39c-3.36,0-4.03-3.25-4.03-4.6c0-4.14,2.79-5.36,4.26-5.36c1.71,0,3.55,1.08,3.57,3.31
		c0,0.13,0,0.25-0.02,0.38l-0.19,0.13H117.43z"/>
	<path class="st2" d="M124.06,106.57h0.57c0.59,0,1.01,0,1.01-0.7v-5.93c0-0.65-0.78-0.78-1.1-0.95v-0.32
		c1.54-0.66,2.39-1.2,2.58-1.2c0.12,0,0.19,0.06,0.19,0.28v1.9h0.05c0.53-0.82,1.41-2.18,2.7-2.18c0.53,0,1.2,0.36,1.2,1.12
		c0,0.57-0.4,1.08-0.99,1.08c-0.66,0-0.66-0.51-1.39-0.51c-0.36,0-1.54,0.49-1.54,1.75v4.96c0,0.7,0.42,0.7,1.01,0.7h1.18v0.55
		c-1.16-0.02-2.04-0.04-2.95-0.04c-0.87,0-1.75,0.02-2.51,0.04V106.57z"/>
	<path class="st2" d="M132.19,104.18c0.28,1.39,1.12,2.58,2.66,2.58c1.24,0,1.71-0.76,1.71-1.5c0-2.49-4.6-1.69-4.6-5.09
		c0-1.18,0.95-2.7,3.27-2.7c0.67,0,1.58,0.19,2.41,0.61l0.15,2.15h-0.49c-0.21-1.33-0.95-2.09-2.3-2.09c-0.85,0-1.65,0.49-1.65,1.39
		c0,2.47,4.9,1.71,4.9,5.02c0,1.39-1.12,2.87-3.63,2.87c-0.84,0-1.84-0.3-2.58-0.72l-0.23-2.43L132.19,104.18z"/>
	<path class="st2" d="M157.31,96.2h-0.53c-0.4-2.47-2.16-3.46-4.52-3.46c-2.43,0-5.96,1.63-5.96,6.69c0,4.27,3.04,7.33,6.29,7.33
		c2.09,0,3.82-1.44,4.25-3.65l0.49,0.13l-0.49,3.08c-0.89,0.55-3.27,1.12-4.67,1.12c-4.94,0-8.06-3.19-8.06-7.94
		c0-4.33,3.86-7.43,8-7.43c1.71,0,3.36,0.55,4.98,1.12L157.31,96.2z"/>
	<path class="st2" d="M158.07,106.57h0.4c0.59,0,1.02,0,1.02-0.7V94.11c0-1.37-0.32-1.42-1.12-1.65v-0.34
		c0.84-0.27,1.73-0.65,2.17-0.91c0.23-0.13,0.4-0.23,0.46-0.23c0.13,0,0.17,0.13,0.17,0.3v14.59c0,0.7,0.46,0.7,1.05,0.7h0.36v0.55
		c-0.72,0-1.46-0.04-2.22-0.04c-0.76,0-1.52,0.02-2.3,0.04V106.57z"/>
	<path class="st2" d="M171.63,105.95c0,0.38,0.23,0.4,0.59,0.4c0.25,0,0.57-0.02,0.85-0.02v0.44c-0.91,0.08-2.64,0.53-3.04,0.65
		l-0.11-0.06v-1.71c-1.26,1.03-2.24,1.77-3.74,1.77c-1.14,0-2.32-0.74-2.32-2.51v-5.41c0-0.55-0.08-1.08-1.26-1.18v-0.4
		c0.76-0.02,2.45-0.15,2.72-0.15c0.23,0,0.23,0.15,0.23,0.61v5.45c0,0.63,0,2.45,1.84,2.45c0.72,0,1.67-0.55,2.55-1.29v-5.68
		c0-0.42-1.01-0.65-1.77-0.86v-0.38c1.9-0.13,3.08-0.3,3.29-0.3c0.17,0,0.17,0.15,0.17,0.38V105.95z"/>
	<path class="st2" d="M175.83,104.73c0,0.8,0.76,2.16,2.18,2.16c2.26,0,3.21-2.22,3.21-4.1c0-2.28-1.73-4.18-3.38-4.18
		c-0.78,0-1.44,0.51-2.01,0.99V104.73z M175.83,98.99c0.84-0.72,1.99-1.52,3.15-1.52c2.45,0,3.93,2.13,3.93,4.43
		c0,2.76-2.03,5.53-5.05,5.53c-1.56,0-2.38-0.51-2.93-0.74l-0.63,0.48l-0.44-0.23c0.19-1.25,0.3-2.47,0.3-3.76v-9.08
		c0-1.37-0.32-1.42-1.12-1.65v-0.34c0.85-0.27,1.73-0.65,2.18-0.91c0.23-0.13,0.4-0.23,0.47-0.23c0.13,0,0.17,0.13,0.17,0.3V98.99z"
		/>
	<path class="st2" d="M182.67,96.35h0.16c0.18,0,0.26-0.13,0.26-0.35c0-0.22-0.13-0.29-0.27-0.29h-0.15V96.35z M182.21,97.07V97
		c0.17-0.02,0.2-0.02,0.2-0.12v-1.01c0-0.14-0.02-0.19-0.19-0.18v-0.07h0.7c0.24,0,0.46,0.11,0.46,0.36c0,0.2-0.13,0.35-0.32,0.41
		l0.22,0.31c0.1,0.14,0.22,0.27,0.3,0.32v0.04h-0.27c-0.13,0-0.24-0.27-0.49-0.63h-0.15v0.45c0,0.09,0.03,0.08,0.2,0.11v0.07H182.21
		z M182.89,97.45c0.61,0,1.08-0.52,1.08-1.1c0-0.59-0.46-1.11-1.08-1.11c-0.61,0-1.08,0.52-1.08,1.11
		C181.81,96.93,182.28,97.45,182.89,97.45 M182.89,94.98c0.78,0,1.36,0.6,1.36,1.37c0,0.76-0.58,1.36-1.36,1.36
		c-0.78,0-1.36-0.59-1.36-1.36C181.53,95.58,182.11,94.98,182.89,94.98"/>
</g>
</svg>
