<?xml version="1.0" encoding="utf-8"?>
<!-- Generator: Adobe Illustrator 28.0.0, SVG Export Plug-In . SVG Version: 6.00 Build 0)  -->
<svg version="1.1" id="Layer_1" xmlns="http://www.w3.org/2000/svg" xmlns:xlink="http://www.w3.org/1999/xlink" x="0px" y="0px"
	 viewBox="0 0 198.43 198.43" style="enable-background:new 0 0 198.43 198.43;" xml:space="preserve">
<style type="text/css">
	
		.st0{clip-path:url(#SVGID_00000095310065768889349950000002019575790231701377_);fill:url(#SVGID_00000118382095268244891550000013407024798243066785_);}
	.st1{fill-rule:evenodd;clip-rule:evenodd;fill:#231F20;}
	.st2{fill-rule:evenodd;clip-rule:evenodd;}
	.st3{fill:none;stroke:#000000;stroke-width:0.093;stroke-miterlimit:2.414;}
	.st4{fill-rule:evenodd;clip-rule:evenodd;fill:#FFFFFF;}
	
		.st5{clip-path:url(#SVGID_00000110456464181528838710000000436874164258176698_);fill:url(#SVGID_00000123443195171859385510000009482657800200868484_);}
</style>
<g>
	<defs>
		<path id="SVGID_1_" d="M31.01,73.61c0,7.46,6.12,13.51,13.66,13.51s13.66-6.05,13.66-13.51c0-7.46-6.12-13.51-13.66-13.51
			S31.01,66.15,31.01,73.61"/>
	</defs>
	<clipPath id="SVGID_00000168078386421825806410000006664901398062295452_">
		<use xlink:href="#SVGID_1_"  style="overflow:visible;"/>
	</clipPath>
	
		<linearGradient id="SVGID_00000008125769183390990320000003595154677219373752_" gradientUnits="userSpaceOnUse" x1="-139.9267" y1="233.5852" x2="-139.5962" y2="233.5852" gradientTransform="matrix(82.6725 0 0 -82.6725 11599.1006 19384.6875)">
		<stop  offset="0" style="stop-color:#ED1C24"/>
		<stop  offset="1" style="stop-color:#FFF200"/>
	</linearGradient>
	
		<rect x="31.01" y="60.1" style="clip-path:url(#SVGID_00000168078386421825806410000006664901398062295452_);fill:url(#SVGID_00000008125769183390990320000003595154677219373752_);" width="27.32" height="27.01"/>
</g>
<g>
	<path class="st1" d="M37.21,80.07l0.5-1.29l0.5-0.11c0,0-0.19-0.38-0.15-1.36c0.04-0.98,0.38-1.74,0.38-1.74s-3.29-0.45-3.98-0.83
		c-0.69-0.38-0.73-0.68-0.73-0.68l4.74-0.15l1.15-5.25c0,0-0.15-1.14,1.42-1.17c1.57-0.04,2.1,1.7,2.1,1.7l0.84,4.69l1.57,0.04
		c0,0,4.17,0.57,4.24,1.78h-5.62l0.04,3.37l-0.19,0.68l2.49,1.63l2.64,1.97c0,0,1.49,1.25,1.65,2.42C50.94,86.92,52.29,96,52.29,96
		s-0.12,0.53-0.88,0.87c-0.77,0.34-1.34,0.72-1.34,1.33c0,0.6,0.65,5.26,0.65,5.26s0.27,0.95,0.92,0.83
		c0.65-0.11,0.96,0.34,1.3,1.29c0.35,0.94,1.38,5.45,1.42,5.56c0.04,0.11,0.46,3.4,0.5,4.69c0.03,1.29,0.76,4.27-1.23,4.54
		c-1.99,0.26-2.3-0.79-2.3-0.79l-0.3,0.04l-0.27,2.12l-2.6,0.04l-0.23,4.35c0,0-0.27,1.02-1.11,1.25c0,0-0.38,0.64-0.38,1.36
		c0,0.72,0.27,4.35,0.27,4.35l2.87,2.08c0,0,1.84,1.13,0.54,2.27c-1.3,1.13-3.02,0.11-3.02,0.11l-2.83-1.93l-0.42,0.34l-1.49-0.72
		c0,0-0.5-0.23-0.5-3.1c0-2.87-0.04-4.05-0.04-4.05s-0.23-0.87-1.38-0.94c0,0-0.27-0.98-0.19-1.89c0.08-0.91,0.23-4.39,0.23-4.39
		s0.12-0.42-0.23-0.42s-0.27,0.53-0.27,0.53l-0.49,6.47c0,0-0.12,1.66-1.53,1.74l-0.23,2.31c0,0,0.46,0.79,0.5,1.44
		c0.04,0.64-0.31,1.25-0.5,2.35c-0.19,1.1-0.5,2.91-2.68,3.06c-2.18,0.15-1.95-1.47-2.14-2.27c-0.19-0.8,0.92-2.5,0.92-2.5
		s0.19-1.21,0.19-1.47c0-0.27,0.15-1.4,0.19-1.63c0.04-0.23-0.27-1.51-0.27-1.51s-0.84-0.9-0.88-1.47
		c-0.04-0.57,0.19-2.57,0.57-3.44c0,0-0.57-2-0.38-4.69l-3.02-0.27c0,0,0.8-7.64,0.99-7.98c0.19-0.34,0.39-3.44,0.42-4.08
		c0.04-0.64,0.54-3.56,0.57-4.73c0.02-0.56-0.36-3.25-1.19-5.56c-0.89-2.5-2.22-4.61-2.22-4.61l-0.46,43.08c0,0-0.12,0.6-0.77,0.64
		c-0.65,0.04-0.73-0.61-0.73-0.61l0.38-50.49c0,0-0.92-1.1-0.88-1.29c0.04-0.19,0.19-0.72,0.19-0.72s-0.23-0.11-0.27-0.34
		c-0.04-0.23,0.34-0.53,0.34-0.53s-0.34-0.49-0.3-0.68c0.04-0.19,0.5-0.38,0.5-0.38s-0.27-0.38-0.15-0.72
		c0.11-0.34,0.76-0.49,0.76-0.49l0.5-8.13c0,0,0.54-0.68,0.77-0.27c0.23,0.42,0.08,2.23,0.08,2.23l-0.12,6.73
		c0,0,1.45,1.78,1.45,3.71l2.3,4.95l0.46-6.05c0,0,0.5-1.29,1.88-1.82C36.1,80.41,37.21,80.07,37.21,80.07"/>
	<rect x="71.63" y="68.44" class="st2" width="92.01" height="8.32"/>
	<rect x="71.63" y="68.44" class="st3" width="92.01" height="8.32"/>
	<polygon class="st4" points="78.8,71.42 78.8,71.94 77.52,71.94 77.52,72.55 78.69,72.55 78.69,73.07 77.52,73.07 77.52,73.82 
		78.86,73.82 78.86,74.34 77.02,74.34 77.02,71.42 	"/>
	<polygon class="st4" points="87.78,71.42 88.22,73.72 88.22,73.72 88.65,71.42 89.38,71.42 89.38,74.34 88.91,74.34 88.91,71.9 
		88.91,71.9 88.45,74.34 87.96,74.34 87.52,71.91 87.51,71.91 87.51,74.34 87.04,74.34 87.04,71.42 	"/>
	<path class="st4" d="M97.66,71.42h1.18c0.59,0,0.74,0.44,0.74,0.76c0,0.4-0.2,0.53-0.3,0.59c0.3,0.13,0.37,0.42,0.37,0.71
		c0,0.23-0.08,0.45-0.21,0.6c-0.14,0.16-0.27,0.27-0.77,0.27h-1.02V71.42z M98.15,73.84h0.62c0.22,0,0.38-0.11,0.38-0.43
		c0-0.25-0.18-0.35-0.36-0.35h-0.64V73.84z M98.15,72.57h0.59c0.2,0,0.36-0.09,0.36-0.33c0-0.23-0.14-0.31-0.37-0.31h-0.58V72.57z"
		/>
	<path class="st4" d="M108.39,71.42v1.89c0,0.39,0.17,0.59,0.44,0.59c0.32,0,0.48-0.18,0.48-0.57v-1.91h0.52v1.89
		c0,0.74-0.36,1.1-0.98,1.1c-0.52,0-0.97-0.29-0.97-1.05v-1.94H108.39z"/>
	<polygon class="st4" points="119.87,71.42 119.87,71.94 119.14,71.94 119.14,74.34 118.64,74.34 118.64,71.94 117.9,71.94 
		117.9,71.42 	"/>
	<rect x="127.93" y="71.42" class="st4" width="0.5" height="2.91"/>
	<path class="st4" d="M137.77,71.42c0.71,0.01,0.98,0.65,0.98,1.39c0,0.72-0.25,1.53-1,1.53h-1.05v-2.92H137.77z M137.19,73.84h0.5
		c0.43,0,0.54-0.58,0.54-0.99c0-0.42-0.08-0.91-0.53-0.91h-0.51V73.84z"/>
	<path class="st4" d="M149.14,72.88c0,1.17-0.63,1.54-1.17,1.54c-0.55,0-1.16-0.39-1.16-1.53c0-1.17,0.63-1.53,1.16-1.53
		C148.5,71.35,149.14,71.71,149.14,72.88 M147.32,72.88c0,0.62,0.24,1.02,0.65,1.02c0.39,0,0.66-0.35,0.66-1.02
		c0-0.62-0.24-1.01-0.66-1.01C147.6,71.86,147.32,72.2,147.32,72.88"/>
	<path class="st4" d="M159.12,72.29h-0.48c-0.01-0.13-0.05-0.44-0.49-0.44c-0.19,0-0.42,0.09-0.42,0.35c0,0.24,0.15,0.28,0.26,0.31
		l0.57,0.17c0.29,0.08,0.65,0.22,0.65,0.79c0,0.7-0.48,0.95-0.96,0.95c-0.64,0-1.02-0.36-1.02-0.97h0.49
		c0.01,0.35,0.23,0.47,0.51,0.47c0.2,0,0.5-0.05,0.5-0.37c0-0.23-0.18-0.29-0.43-0.37l-0.26-0.07c-0.39-0.09-0.77-0.22-0.77-0.85
		c0-0.33,0.15-0.9,0.93-0.9C158.92,71.35,159.12,71.93,159.12,72.29"/>
	<path class="st1" d="M88.56,81.83c0-1.11-0.31-1.65-0.96-1.65c-0.48,0-0.9,0.25-1.35,0.25c-0.2,0-0.34-0.14-0.34-0.34
		c0-1.03,6.8-1.28,7.7-1.28c3.81,0,6.09,0.53,8.12,1.93c2.48,1.67,4.01,4.55,4.01,7.5c0,5.47-4.37,9.37-9.93,9.37
		c-1.89,0-3.75-0.14-5.64-0.14c-1.21,0-2.42,0.14-3.64,0.14c-0.4,0-0.57-0.14-0.57-0.45c0-0.34,0.23-0.42,1.07-0.48
		c1.5-0.14,1.52-0.92,1.52-2.15V81.83z M94.6,96.89c4.17,0,7.59-3.82,7.59-8.54c0-4.88-3.35-8.75-8.41-8.75
		c-1.64,0-2.03,0.47-2.03,2.48v11.85C91.74,96.08,92.51,96.89,94.6,96.89"/>
	<path class="st1" d="M118.37,97.78c-5.7,0-10.29-4.3-10.29-9.62c0-5.35,4.54-9.54,10.38-9.54c5.7,0,10.21,4.13,10.21,9.37
		C128.67,93.32,123.98,97.78,118.37,97.78 M118.09,79.37c-3.81,0-6.43,3.32-6.43,8.2c0,5.21,3.13,9.45,6.97,9.45
		c4.48,0,6.43-5.18,6.43-8.89C125.06,84.12,122.69,79.37,118.09,79.37"/>
	<path class="st1" d="M147.49,83.47c-0.03-0.86-0.09-2.09-0.17-2.54c-0.31-1.9-2.79-0.67-2.79-1.62c0-0.3,0.23-0.42,0.76-0.42
		c0.9,0,1.84,0.08,2.73,0.08c0.96,0,1.95-0.11,2.91-0.11c0.37,0,0.56,0.14,0.56,0.44c0,0.34-0.28,0.45-1.21,0.53
		c-1.33,0.11-1.55,0.36-1.55,1.84v15.62v0.14c0,0.53-0.16,0.73-0.5,0.73c-0.28,0-0.54-0.2-0.99-0.73l-12.67-15.92V91.9
		c0.03,1.28,0.12,2.9,0.23,3.43c0.14,0.86,0.56,1.23,1.55,1.31c0.82,0.06,1.36,0.03,1.36,0.48c0,0.3-0.23,0.42-0.74,0.42
		c-0.88,0-1.72-0.08-2.6-0.08c-1.1,0-2.17,0.19-3.27,0.19c-0.34,0-0.54-0.14-0.54-0.39c0-0.92,2.76,0.14,2.76-2.12
		c0.06-1.06,0.08-2.01,0.08-2.9v-9.96c0-1.23-0.11-1.98-0.34-2.23c-0.17-0.23-0.62-0.34-1.24-0.36c-0.87,0-1.13-0.11-1.13-0.45
		c0-0.28,0.22-0.42,0.79-0.42c0.9,0,1.78,0.06,2.68,0.09l2-0.09c0.59,0.06,0.82,0.42,1.13,0.87l10.18,13.02V83.47z"/>
	<path class="st1" d="M75.71,103.12c0-1.11-0.31-1.64-0.95-1.64c-0.48,0-0.91,0.25-1.36,0.25c-0.2,0-0.34-0.14-0.34-0.34
		c0-1.03,6.8-1.28,7.7-1.28c3.81,0,6.09,0.53,8.12,1.92c2.48,1.67,4.01,4.55,4.01,7.5c0,5.47-4.37,9.37-9.93,9.37
		c-1.89,0-3.75-0.14-5.64-0.14c-1.21,0-2.42,0.14-3.64,0.14c-0.4,0-0.56-0.14-0.56-0.45c0-0.33,0.22-0.42,1.07-0.47
		c1.49-0.14,1.52-0.92,1.52-2.15V103.12z M81.75,118.19c4.18,0,7.59-3.82,7.59-8.53c0-4.88-3.36-8.76-8.41-8.76
		c-1.64,0-2.03,0.47-2.03,2.48v11.85C78.9,117.37,79.66,118.19,81.75,118.19"/>
	<path class="st1" d="M100.59,115.84c0,1.2,0.05,2.06,1.52,2.12c0.85,0.05,1.08,0.17,1.08,0.5c0,0.3-0.17,0.42-0.62,0.42
		c-1.21,0-2.39-0.14-3.61-0.14c-1.18,0-2.4,0.14-3.58,0.14c-0.43,0-0.6-0.14-0.6-0.42c0-0.33,0.23-0.45,1.07-0.5
		c1.5-0.08,1.53-0.95,1.53-2.12v-12.66c0-1.23-0.06-2.06-1.53-2.12c-0.84-0.05-1.07-0.16-1.07-0.53c0-0.28,0.17-0.42,0.62-0.42
		c0.03,0,0.06,0,0.11,0.03c1.15,0,2.31,0.11,3.47,0.11c1.21,0,2.4-0.14,3.61-0.14c0.42,0,0.59,0.14,0.59,0.45
		c0,0.34-0.23,0.45-1.08,0.5c-0.59,0.03-1.07,0.25-1.29,0.56c-0.2,0.31-0.23,0.45-0.23,1.56V115.84z"/>
	<path class="st1" d="M110.54,115.48c0,2.01,0.54,2.45,2.99,2.45c2.82,0,3.78-1.03,4.97-3.4c0.11-0.22,0.28-0.36,0.45-0.36
		c0.22,0,0.37,0.17,0.37,0.42c0,0.22-0.06,0.67-0.17,1.12c-0.45,2.2,0.31,3.09-1.38,3.09h-0.28h-10.32c-0.65,0-1.33,0.09-1.98,0.09
		c-0.42,0-0.59-0.14-0.59-0.42c0-0.33,0.23-0.45,1.07-0.5c1.5-0.08,1.52-0.95,1.52-2.12v-12.69c0-1.15-0.02-1.29-0.23-1.56
		c-0.73-0.98-2.37-0.23-2.37-1.06c0-0.31,0.17-0.42,0.62-0.42c0.65,0,1.3,0.08,1.95,0.08h8.57c0.84,0,1.66-0.08,2.51-0.08
		c0.34,0,0.39,0.11,0.39,0.89v2.73c0,0.36-0.11,0.53-0.34,0.53c-0.45,0-0.73-0.89-0.9-1.23c-0.67-1.42-2.23-2.03-5.22-2.03
		c-1.47,0-1.64,0.2-1.64,1.84v4.46c0,1.08,0.14,1.2,1.61,1.2c2.85,0,3.5-0.36,4.18-2.29c0.11-0.34,0.22-0.44,0.45-0.44
		c0.2,0,0.31,0.13,0.31,0.42c0,1.39-0.2,2.76-0.2,4.15c0,0.5,0.09,1.03,0.09,1.53c0,0.36-0.14,0.56-0.37,0.56
		c-0.28,0-0.45-0.22-0.59-0.7c-0.62-2.34-1.69-2.4-3.98-2.4c-1.35,0-1.49,0.05-1.49,0.89V115.48z"/>
	<path class="st1" d="M135.54,112.33c0-2.82-3.08-1.14-3.08-2.26c0-0.28,0.14-0.39,0.65-0.39c1.52,0,3.02,0.11,4.54,0.11
		c1.13,0,2.26-0.14,3.39-0.14c0.28,0,0.45,0.14,0.45,0.36c0,0.31-0.22,0.39-1.13,0.48c-1.16,0.08-1.5,0.39-1.5,1.39
		c0,1.25,0.11,2.54,0.11,3.79c0,1.25-0.03,1.34-0.45,1.65c-1.94,1.28-4.51,1.75-6.82,1.75c-3.16,0-5.72-0.92-7.59-2.73
		c-1.69-1.65-2.82-4.29-2.82-6.69c0-2.93,1.58-5.8,4.15-7.59c2.03-1.39,4.62-2.15,7.59-2.15c1.6,0,2.96,0.22,4.26,0.67
		c0.53,0.17,0.73,0.36,0.79,0.78c0.14,0.84,0.36,1.73,0.36,2.6c0,0.25-0.17,0.45-0.36,0.45c-0.73,0-1.49-3.71-5.67-3.71
		c-4.66,0-7.34,5.02-7.34,9.12c0,4.85,3.16,8.5,7.36,8.5c2.71,0,3.1-1.03,3.1-3.43V112.33z"/>
	<path class="st1" d="M153.16,119.08c-5.7,0-10.29-4.29-10.29-9.62c0-5.35,4.54-9.53,10.38-9.53c5.7,0,10.21,4.13,10.21,9.37
		C163.46,114.62,158.78,119.08,153.16,119.08 M152.88,100.67c-3.81,0-6.43,3.32-6.43,8.2c0,5.21,3.13,9.45,6.97,9.45
		c4.48,0,6.43-5.19,6.43-8.9C159.85,105.41,157.48,100.67,152.88,100.67"/>
</g>
<g>
	<defs>
		<path id="SVGID_00000085949348649301892000000010156956115436781239_" d="M97.87,120.93c-4.7,0.01-23.57,0.45-23.57,0.45
			l-0.59,1.2c0,0-0.81-0.49-2.04-0.49c-1.22,0-2.63,0.54-2.63,0.54v1.88c0,0,1.72,0.18,1.72,0.67c0,0.49-1.13,1.12-1.13,1.12
			l0.22,0.94l-1.44,0.58l0.86,1.79c0,0-0.5,1.7-0.23,1.97c0.27,0.27,1.54-0.14,1.54-0.14s-0.86,2.51-0.36,2.86
			c0.5,0.36,1.9-0.63,2.31-0.67c0.41-0.04,3.12-0.89,3.98-0.89h4.03c0,0,4.48-0.18,6.53-0.72c2.05-0.54,6.33-0.54,6.7-0.59
			c0.36-0.06,9.23-0.48,10.37-0.42c0.57,0.03,5.63-0.21,10.9-0.45c5.27-0.24,10.76-0.48,12.14-0.45c2.78,0.06,13.51,0.24,13.51,0.24
			l21.66,0.48l0.36-0.9c0,0,0.85,0.42,1.15,0.36c0.3-0.06,0.73-0.84,0.97-0.9c0.24-0.06,5.18,0.71,5.18,0.71l-0.3-0.83
			c0,0,1.51,0.3,1.75,0.18c0.24-0.12,0.48-0.47,0.24-0.65c-0.24-0.18-2.53-0.3-2.53-0.3s-0.54-0.3-0.48-0.54
			c0.04-0.14,1.22-0.07,2.26-0.01c0.73,0.05,1.39,0.09,1.55,0.07c0.36-0.06,0.48-0.72,1.14-0.72c0.66,0,0.18,0.48,1.21,0.6
			c1.02,0.12,1.33-0.36,1.33-0.6c0-0.24-0.6-0.84-1.69-0.9c-1.09-0.06-4.82,0.06-4.82-0.24c0-0.3,2.65-0.65,2.96-0.54
			c0.3,0.12,1.09-0.29,1.09-0.53c0-0.24-0.73-0.9-1.75-0.95c-1.03-0.06-44.03-2.6-44.03-2.6s-24.88-0.63-29.91-0.63
			C97.96,120.93,97.91,120.93,97.87,120.93"/>
	</defs>
	<clipPath id="SVGID_00000010280268216428449540000017307813054270093704_">
		<use xlink:href="#SVGID_00000085949348649301892000000010156956115436781239_"  style="overflow:visible;"/>
	</clipPath>
	
		<linearGradient id="SVGID_00000110457637995656645530000007025203875015393183_" gradientUnits="userSpaceOnUse" x1="-141.4431" y1="234.3889" x2="-141.1126" y2="234.3889" gradientTransform="matrix(325.9924 0 0 -325.9926 46177.8086 76536.8516)">
		<stop  offset="0" style="stop-color:#ED1C24"/>
		<stop  offset="1" style="stop-color:#FFF200"/>
	</linearGradient>
	
		<rect x="68.42" y="120.93" style="clip-path:url(#SVGID_00000010280268216428449540000017307813054270093704_);fill:url(#SVGID_00000110457637995656645530000007025203875015393183_);" width="107.74" height="13.73"/>
</g>
<g>
	<path class="st1" d="M82.45,123.73c0-0.1-0.07-0.18-0.18-0.18c-0.31,0-0.89,0.33-1.61,0.92c-0.89,0.73-2.35,2.22-2.35,3.45
		c0,0.54,0.32,0.88,0.81,0.88c1.21,0,2.75-1.25,3.65-1.98c0.01,0.06,0.01,0.1,0.01,0.15c0,0.24-0.2,0.49-0.75,0.95
		c-1.4,1.16-2.45,1.69-3.36,1.69c-0.92,0-1.54-0.57-1.54-1.48c0-0.95,0.82-2.31,2.04-3.4c0.69-0.61,2.24-1.73,3.18-1.73
		c0.51,0,0.82,0.29,0.82,0.75c0,1.18-2.22,3.29-3.1,3.29c-0.26,0-0.43-0.15-0.43-0.39c0-0.15,0.13-0.37,0.3-0.52l0.71-0.63
		l0.26-0.23c0.05-0.05,0.11-0.07,0.14-0.07c0.06,0,0.11,0.06,0.11,0.11c0,0.02,0,0.05-0.02,0.09
		C81.89,124.76,82.45,124.06,82.45,123.73"/>
	<path class="st1" d="M85.35,128.03c-0.06,0-0.14-0.01-0.24-0.02c-0.45,0.42-0.82,0.6-1.21,0.6c-0.47,0-0.8-0.37-0.87-0.96
		c0-0.51,0.12-0.97,0.49-1.33c0.51-0.48,1.19-0.78,1.76-0.78c0.26,0,0.45,0.12,0.45,0.28c0,0.1-0.05,0.15-0.19,0.22
		c0.22,0.07,0.28,0.18,0.28,0.45c0,0.27-0.12,0.61-0.39,1.07c0.06,0.01,0.12,0.01,0.16,0.01c0.2,0,0.4-0.07,0.71-0.28
		c-0.02,0.12-0.02,0.23-0.02,0.36C85.89,127.93,85.64,128.03,85.35,128.03 M83.64,127.74c0,0.17,0.08,0.24,0.3,0.24
		c0.26,0,0.42-0.06,0.67-0.28c-0.08-0.17-0.09-0.24-0.09-0.37c0-0.23,0.08-0.45,0.37-0.93C84.33,126.7,83.64,127.03,83.64,127.74"/>
	<path class="st1" d="M90.31,128.66c-0.22,0-0.42-0.22-0.42-0.45c0-0.29,0.07-0.44,0.63-1.32c-0.39,0.31-0.55,0.44-0.72,0.59
		c-0.33,0.29-0.93,1.08-1.38,1.08c-0.18,0-0.32-0.15-0.32-0.35c0-0.39,0.45-0.95,0.66-1.28c0.05-0.06,0.11-0.12,0.11-0.19
		c0-0.03-0.02-0.06-0.05-0.06c-0.19,0-1.03,0.96-1.21,1.18c-0.44,0.56-0.57,0.67-0.75,0.67c-0.26,0-0.44-0.32-0.47-0.88
		c0-0.67,0.62-1.82,1.4-1.82c0.22,0,0.33,0.06,0.33,0.19c0,0.31-1,0.92-1,1.38c0,0.05,0.03,0.1,0.05,0.1c0.18,0,1.76-1.95,2.52-1.95
		c0.21,0,0.34,0.13,0.34,0.37c0,0.35-0.55,1-0.76,1.33c0.45-0.34,0.9-0.68,1.34-1.03c0.46-0.37,0.78-0.58,0.85-0.58
		c0.05,0,0.16,0.14,0.27,0.37c0.04,0.08,0.05,0.12,0.05,0.17c0,0.37-0.95,0.9-0.95,1.44c0,0.13,0.1,0.21,0.29,0.21
		c0.23,0,0.54-0.15,1.11-0.51c-0.02,0.11-0.02,0.23-0.02,0.35C91.82,127.92,90.77,128.66,90.31,128.66"/>
	<path class="st1" d="M94.15,128.59c-0.2,0-0.33-0.04-0.58-0.16c-0.16,0.03-0.28,0.05-0.37,0.05c-0.08,0-0.18-0.02-0.34-0.05
		c-0.14,0.28-0.29,0.56-0.43,0.83c-0.42,0.83-0.53,0.96-0.69,0.96c-0.14,0-0.24-0.13-0.24-0.33c0-0.92,1.26-2.08,1.74-2.99
		c-0.31,0.26-0.63,0.49-0.95,0.73c-0.01-0.05-0.01-0.08-0.01-0.11c0-0.07,0.01-0.13,0.01-0.24c1.28-0.9,1.24-1.58,2.16-2.47
		c0.11-0.13,0.22-0.17,0.36-0.17c0.2,0,0.37,0.08,0.37,0.19c0,0.12-0.04,0.18-0.56,0.7c-0.33,0.34-0.4,0.43-0.69,0.96
		c0.36-0.24,1.16-0.77,1.58-0.77c0.21,0,0.38,0.16,0.38,0.38c0,0.63-0.91,1.41-1.35,1.8c0.09,0.01,0.16,0.02,0.22,0.02
		c0.38,0,0.79-0.18,1.48-0.63c-0.01,0.11-0.01,0.23-0.01,0.35C95.62,128.06,94.94,128.59,94.15,128.59 M94.9,126.7
		c0-0.08-0.03-0.13-0.1-0.13c-0.02,0-0.07,0.02-0.11,0.04c-0.6,0.29-0.85,0.53-1.26,1.05c0.24,0,0.45,0.02,0.68,0.08
		C94.59,127.24,94.9,126.84,94.9,126.7"/>
	<path class="st1" d="M97.92,128.62c-0.3,0-0.54-0.27-0.54-0.6c0-0.54,0.43-1,0.77-1.39l-0.92,0.2c-0.34,0.36-0.45,0.46-0.91,0.82
		c0-0.12,0-0.24,0.02-0.36c0.24-0.19,0.29-0.23,0.46-0.42c-0.16-0.02-0.21-0.07-0.21-0.22c0-0.48,0.72-1.17,1.02-1.17
		c0.08,0,0.16,0.09,0.16,0.17c0,0.05-0.03,0.11-0.06,0.19l1-0.13c0.06,0,0.1-0.01,0.12-0.01c0.18,0,0.35,0.24,0.35,0.49
		c0,0.42-0.96,0.8-0.96,1.41c0,0.15,0.06,0.23,0.23,0.23c0.34,0,0.81-0.36,1.07-0.53c-0.01,0.12-0.01,0.23-0.01,0.36
		C99.12,127.94,98.43,128.62,97.92,128.62"/>
	<path class="st1" d="M101.92,128.03c-0.06,0-0.14-0.01-0.24-0.02c-0.45,0.42-0.81,0.6-1.21,0.6c-0.47,0-0.79-0.37-0.87-0.96
		c0-0.51,0.12-0.97,0.49-1.33c0.52-0.48,1.19-0.78,1.77-0.78c0.25,0,0.44,0.12,0.44,0.28c0,0.1-0.05,0.15-0.19,0.22
		c0.22,0.07,0.29,0.18,0.29,0.45c0,0.27-0.12,0.61-0.39,1.07c0.06,0.01,0.12,0.01,0.17,0.01c0.21,0,0.39-0.07,0.71-0.28
		c-0.02,0.12-0.02,0.23-0.02,0.36C102.46,127.93,102.21,128.03,101.92,128.03 M100.21,127.74c0,0.17,0.08,0.24,0.3,0.24
		c0.26,0,0.42-0.06,0.66-0.28c-0.07-0.17-0.08-0.24-0.08-0.37c0-0.23,0.08-0.45,0.37-0.93C100.9,126.7,100.21,127.03,100.21,127.74"
		/>
	<path class="st1" d="M106.88,128.66c-0.22,0-0.42-0.22-0.42-0.45c0-0.29,0.07-0.44,0.63-1.32c-0.39,0.31-0.55,0.44-0.72,0.59
		c-0.33,0.29-0.94,1.08-1.38,1.08c-0.18,0-0.32-0.15-0.32-0.35c0-0.39,0.45-0.95,0.67-1.28c0.04-0.06,0.11-0.12,0.11-0.19
		c0-0.03-0.03-0.06-0.05-0.06c-0.19,0-1.03,0.96-1.22,1.18c-0.44,0.56-0.57,0.67-0.74,0.67c-0.26,0-0.44-0.32-0.47-0.88
		c0-0.67,0.62-1.82,1.4-1.82c0.22,0,0.33,0.06,0.33,0.19c0,0.31-1,0.92-1,1.38c0,0.05,0.02,0.1,0.05,0.1c0.18,0,1.76-1.95,2.52-1.95
		c0.22,0,0.34,0.13,0.34,0.37c0,0.35-0.55,1-0.76,1.33c0.45-0.34,0.9-0.68,1.33-1.03c0.46-0.37,0.78-0.58,0.86-0.58
		c0.05,0,0.16,0.14,0.27,0.37c0.04,0.08,0.06,0.12,0.06,0.17c0,0.37-0.95,0.9-0.95,1.44c0,0.13,0.11,0.21,0.29,0.21
		c0.23,0,0.53-0.15,1.1-0.51c-0.02,0.11-0.02,0.23-0.02,0.35C108.38,127.92,107.34,128.66,106.88,128.66"/>
	<path class="st1" d="M109.59,128.62c-0.43,0-0.69-0.33-0.73-0.97c0-0.81,0.75-1.9,1.58-1.9c0.17,0,0.31,0.1,0.31,0.23
		c0,0.34-0.88,1.06-1.16,1.34c-0.04,0.09-0.06,0.15-0.06,0.2c0,0.23,0.18,0.38,0.48,0.38c0.29,0,0.6-0.16,1.23-0.61
		c-0.01,0.12-0.01,0.23-0.01,0.36C110.86,127.93,110.09,128.62,109.59,128.62 M110.86,125.6c-0.21,0-0.35-0.14-0.35-0.36
		c0-0.32,0.4-0.62,0.71-0.62c0.15,0,0.27,0.12,0.27,0.27C111.49,125.19,111.2,125.6,110.86,125.6"/>
	<path class="st1" d="M112.53,128.68c-0.57,0-1.11-0.35-1.11-0.74c0-0.22,0.19-0.4,0.43-0.4c0.22,0,0.43,0.16,0.6,0.29
		c0.42-0.24,0.58-0.5,0.58-0.92c0-0.19-0.01-0.23-0.06-0.63c-0.76,0.69-0.98,0.86-1.65,1.36c0-0.12,0-0.24,0.02-0.36
		c0.56-0.42,1.1-0.85,1.6-1.35c0.12-0.47,0.24-0.61,0.54-0.61c0.19,0,0.24,0.06,0.27,0.29c0,0.31,0.18,0.6,0.18,0.92
		c0,0.69-0.58,1.11-1.09,1.47c0.11,0.01,0.16,0.01,0.22,0.01c0.56,0,1.05-0.43,1.48-0.73c-0.01,0.12-0.02,0.19-0.02,0.24
		c0,0.02,0,0.07,0.01,0.12C113.91,128.06,113.33,128.68,112.53,128.68"/>
	<path class="st1" d="M116.91,128.03c-0.06,0-0.14-0.01-0.24-0.02c-0.45,0.42-0.81,0.6-1.21,0.6c-0.47,0-0.79-0.37-0.87-0.96
		c0-0.51,0.12-0.97,0.49-1.33c0.52-0.48,1.19-0.78,1.76-0.78c0.25,0,0.44,0.12,0.44,0.28c0,0.1-0.05,0.15-0.19,0.22
		c0.23,0.07,0.29,0.18,0.29,0.45c0,0.27-0.12,0.61-0.39,1.07c0.06,0.01,0.12,0.01,0.16,0.01c0.21,0,0.39-0.07,0.71-0.28
		c-0.01,0.12-0.01,0.23-0.01,0.36C117.45,127.93,117.2,128.03,116.91,128.03 M115.2,127.74c0,0.17,0.08,0.24,0.29,0.24
		c0.26,0,0.42-0.06,0.66-0.28c-0.07-0.17-0.09-0.24-0.09-0.37c0-0.23,0.08-0.45,0.37-0.93C115.89,126.7,115.2,127.03,115.2,127.74"
		/>
	<path class="st1" d="M122.65,128.64c-0.28,0-0.43-0.22-0.43-0.61c0-0.19,0.03-0.39,0.07-0.57c-0.26,0.23-1.01,1.01-1.4,1.01
		c-0.25,0-0.53-0.4-0.58-0.84c0-0.97,0.77-1.48,1.61-1.8c0.31-0.13,0.58-0.2,0.69-0.2c0.12,0,0.2,0.05,0.36,0.23
		c0.26-0.49,1.05-2.12,1.56-2.12c0.17,0,0.29,0.13,0.29,0.32c0,0.65-1.88,2.48-1.88,3.45c0,0.31,0.09,0.45,0.27,0.45
		c0.16,0,0.48-0.17,1.22-0.67c-0.02,0.11-0.02,0.23-0.02,0.35C123.95,127.99,123.26,128.64,122.65,128.64 M120.97,127.58
		c0,0.1,0.06,0.17,0.13,0.17c0.05,0,0.18-0.07,0.45-0.26c0.44-0.31,0.86-0.67,1.12-1.15C122.1,126.54,120.97,126.82,120.97,127.58"
		/>
	<path class="st1" d="M125.42,128.66c-0.59,0-0.9-0.33-0.94-1.02c0-1.17,1.13-2.14,2.25-2.14c0.32,0,0.51,0.14,0.51,0.37
		c0,0.85-1.29,1.28-1.95,1.5c-0.01,0.09-0.02,0.12-0.02,0.18c0,0.26,0.2,0.42,0.52,0.42c0.62,0,1.17-0.36,1.66-0.68
		c-0.01,0.11-0.02,0.23-0.02,0.35C126.88,128.05,126.13,128.66,125.42,128.66 M126.56,126.07c0-0.07-0.03-0.1-0.1-0.1
		c-0.33,0-0.86,0.48-1.09,1.01C126.03,126.72,126.56,126.3,126.56,126.07"/>
	<path class="st1" d="M134.98,123.73c0-0.1-0.07-0.18-0.18-0.18c-0.31,0-0.89,0.33-1.61,0.92c-0.89,0.73-2.36,2.22-2.36,3.45
		c0,0.54,0.32,0.88,0.81,0.88c1.21,0,2.75-1.25,3.65-1.98c0.01,0.06,0.01,0.1,0.01,0.15c0,0.24-0.2,0.49-0.76,0.95
		c-1.4,1.16-2.44,1.69-3.35,1.69c-0.92,0-1.54-0.57-1.54-1.48c0-0.95,0.82-2.31,2.04-3.4c0.69-0.61,2.24-1.73,3.18-1.73
		c0.51,0,0.82,0.29,0.82,0.75c0,1.18-2.23,3.29-3.1,3.29c-0.26,0-0.43-0.15-0.43-0.39c0-0.15,0.13-0.37,0.3-0.52l0.72-0.63
		l0.26-0.23c0.05-0.05,0.11-0.07,0.14-0.07c0.06,0,0.12,0.06,0.12,0.11c0,0.02-0.01,0.05-0.03,0.09
		C134.42,124.76,134.98,124.06,134.98,123.73"/>
	<path class="st1" d="M137.93,128.77c-0.2,0-0.34-0.22-0.34-0.4c0-0.23,0.08-0.46,0.31-0.94c-0.31,0.24-1.3,1.14-1.63,1.14
		c-0.37,0-0.65-0.65-0.69-0.93c0-0.11,0-0.23,0.02-0.35c0.24-0.81,2.23-1.72,3.03-1.72c0.21,0,0.37,0.09,0.47,0.28
		c0.02,0.04,0.03,0.07,0.03,0.09c0,0.14-0.21,0.18-0.29,0.21c0.17,0.07,0.23,0.15,0.23,0.31c0,0.32-0.73,0.8-0.73,1.22
		c0,0.14,0.11,0.24,0.27,0.24c0.21,0,0.31-0.07,1.09-0.63c-0.01,0.12-0.02,0.18-0.02,0.24c0,0.02,0,0.06,0.01,0.11
		C139.29,127.95,138.43,128.77,137.93,128.77 M136.64,127.06c-0.36,0.22-0.45,0.37-0.45,0.71c0,0.14,0.04,0.18,0.13,0.18
		c0.43,0,1.72-1.24,2.03-1.6C137.74,126.52,137.17,126.73,136.64,127.06"/>
	<path class="st1" d="M140.5,128.62c-0.47,0-0.69-0.29-0.74-0.97c0-0.93,0.42-1.77,0.96-2.51c0.34-0.47,1.4-1.56,1.72-1.56
		c0.1,0,0.18,0.1,0.18,0.24c0,0.01,0,0.02-0.01,0.02c-0.02,0.32-0.11,0.67-0.23,0.99c-0.35,0.82-1.2,1.57-1.82,2.19
		c-0.03,0.17-0.04,0.3-0.04,0.4c0,0.36,0.15,0.52,0.46,0.52c0.31,0,0.66-0.17,1.3-0.63c-0.01,0.12-0.02,0.19-0.02,0.24
		c0,0.02,0,0.07,0.01,0.12C141.84,127.97,141.03,128.62,140.5,128.62 M140.73,126.27c0.54-0.55,0.97-1.03,1.27-1.74
		C141.35,125.07,141.11,125.52,140.73,126.27"/>
	<path class="st1" d="M143.07,128.62c-0.44,0-0.69-0.33-0.73-0.97c0-0.81,0.75-1.9,1.59-1.9c0.17,0,0.31,0.1,0.31,0.23
		c0,0.34-0.88,1.06-1.16,1.34c-0.04,0.09-0.06,0.15-0.06,0.2c0,0.23,0.18,0.38,0.48,0.38c0.29,0,0.6-0.16,1.23-0.61
		c-0.01,0.12-0.01,0.23-0.01,0.36C144.34,127.93,143.57,128.62,143.07,128.62 M144.34,125.6c-0.2,0-0.34-0.14-0.34-0.36
		c0-0.32,0.4-0.62,0.71-0.62c0.16,0,0.27,0.12,0.27,0.27C144.97,125.19,144.68,125.6,144.34,125.6"/>
	<path class="st1" d="M147.14,128.64c-0.28,0-0.44-0.22-0.44-0.61c0-0.19,0.02-0.39,0.07-0.57c-0.26,0.23-1.01,1.01-1.4,1.01
		c-0.25,0-0.53-0.4-0.58-0.84c0-0.97,0.77-1.48,1.61-1.8c0.31-0.13,0.57-0.2,0.68-0.2c0.12,0,0.2,0.05,0.36,0.23
		c0.26-0.49,1.04-2.12,1.56-2.12c0.17,0,0.29,0.13,0.29,0.32c0,0.65-1.88,2.48-1.88,3.45c0,0.31,0.09,0.45,0.27,0.45
		c0.17,0,0.48-0.17,1.22-0.67c-0.01,0.11-0.01,0.23-0.01,0.35C148.44,127.99,147.75,128.64,147.14,128.64 M145.46,127.58
		c0,0.1,0.05,0.17,0.13,0.17c0.05,0,0.18-0.07,0.45-0.26c0.44-0.31,0.86-0.67,1.11-1.15C146.6,126.54,145.46,126.82,145.46,127.58"
		/>
	<path class="st1" d="M151.33,128.77c-0.2,0-0.34-0.22-0.34-0.4c0-0.23,0.08-0.46,0.31-0.94c-0.3,0.24-1.3,1.14-1.64,1.14
		c-0.37,0-0.65-0.65-0.7-0.93c0-0.11,0-0.23,0.02-0.35c0.24-0.81,2.23-1.72,3.03-1.72c0.22,0,0.37,0.09,0.48,0.28
		c0.02,0.04,0.03,0.07,0.03,0.09c0,0.14-0.21,0.18-0.29,0.21c0.18,0.07,0.23,0.15,0.23,0.31c0,0.32-0.73,0.8-0.73,1.22
		c0,0.14,0.12,0.24,0.27,0.24c0.2,0,0.31-0.07,1.08-0.63c-0.01,0.12-0.02,0.18-0.02,0.24c0,0.02,0,0.06,0.01,0.11
		C152.7,127.95,151.84,128.77,151.33,128.77 M150.05,127.06c-0.36,0.22-0.45,0.37-0.45,0.71c0,0.14,0.03,0.18,0.13,0.18
		c0.43,0,1.72-1.24,2.03-1.6C151.15,126.52,150.58,126.73,150.05,127.06"/>
	<path class="st1" d="M155.51,128.64c-0.28,0-0.44-0.22-0.44-0.61c0-0.19,0.03-0.39,0.07-0.57c-0.26,0.23-1.02,1.01-1.4,1.01
		c-0.25,0-0.54-0.4-0.58-0.84c0-0.97,0.77-1.48,1.61-1.8c0.31-0.13,0.58-0.2,0.68-0.2c0.12,0,0.2,0.05,0.36,0.23
		c0.26-0.49,1.04-2.12,1.56-2.12c0.16,0,0.29,0.13,0.29,0.32c0,0.65-1.88,2.48-1.88,3.45c0,0.31,0.09,0.45,0.27,0.45
		c0.17,0,0.48-0.17,1.22-0.67c-0.02,0.11-0.02,0.23-0.02,0.35C156.81,127.99,156.12,128.64,155.51,128.64 M153.83,127.58
		c0,0.1,0.06,0.17,0.13,0.17c0.05,0,0.18-0.07,0.45-0.26c0.44-0.31,0.86-0.67,1.11-1.15C154.96,126.54,153.83,126.82,153.83,127.58"
		/>
</g>
</svg>
