<?xml version="1.0" encoding="utf-8"?>
<!-- Generator: Adobe Illustrator 28.0.0, SVG Export Plug-In . SVG Version: 6.00 Build 0)  -->
<svg version="1.1" id="Layer_1" xmlns="http://www.w3.org/2000/svg" xmlns:xlink="http://www.w3.org/1999/xlink" x="0px" y="0px"
	 viewBox="0 0 198.43 198.43" style="enable-background:new 0 0 198.43 198.43;" xml:space="preserve">
<style type="text/css">
	.st0{fill-rule:evenodd;clip-rule:evenodd;fill:#ED1651;}
	.st1{fill-rule:evenodd;clip-rule:evenodd;fill:#ED5922;}
</style>
<g>
	<g>
		<path class="st0" d="M121.06,89.7L121.06,89.7c-4.24,0-7.36,3.12-7.36,7.86c0,4.47,3.46,7.62,7.29,7.62c4,0,7.19-3.09,7.19-7.72
			C128.18,92.93,125.16,89.7,121.06,89.7 M128.99,102.33L128.99,102.33c0,1.28,1.01,2.79,2.55,2.79c1.51,0,2.35-1.41,2.35-2.79
			v-2.35c0-0.17,0.13-0.27,0.24-0.27c0.1,0,0.3,0.07,0.44,0.3l2.96,3.9c0.71,0.91,1.58,1.21,2.25,1.21c1.45,0,2.39-1.21,2.39-2.79
			v-9.71c0-1.71-1.01-2.85-2.55-2.85c-1.65,0-2.35,1.18-2.35,2.85v1.85c0,0.27-0.1,0.4-0.24,0.4c-0.1,0-0.27-0.13-0.37-0.2
			l-2.82-3.53c-0.67-0.84-1.34-1.38-2.39-1.38c-1.45,0-2.45,1.21-2.45,2.85V102.33z M148.15,92.86L148.15,92.86
			c0-1.58-0.81-2.82-2.49-2.82c-1.58,0-2.49,1.24-2.49,2.82v5.68c0,3.8,3.09,6.65,6.55,6.65c3.5,0,6.52-2.85,6.52-6.65v-5.68
			c0-1.58-0.77-2.82-2.42-2.82c-1.61,0-2.52,1.24-2.52,2.82v4.77c0,1.18-0.3,2.25-1.55,2.25s-1.61-1.11-1.61-2.15V92.86z
			 M100.18,101.36L100.18,101.36c0,1.85,0.97,3.76,3.26,3.76h2.45c4.17,0,7.03-3.36,7.03-7.69c0-4.8-2.96-7.69-7.03-7.69h-2.45
			c-2.22,0-3.26,1.14-3.26,3.32V101.36z M164.65,95.72L164.65,95.72c0-1.54,2.96-0.3,2.96-3.36c0-1.65-1.28-2.42-2.66-2.42h-5.45
			c-1.45,0-2.62,0.84-2.62,2.55c0,2.79,2.96,1.78,2.96,3.02v6.88c0,1.41,0.84,2.72,2.45,2.72c1.55,0,2.35-1.28,2.35-2.72V95.72z
			 M173.02,89.97L173.02,89.97c-2.92,0-5.01,1.85-5.01,4.77c0,4.8,5.38,4.23,5.38,5.37c0,0.23-0.17,0.47-0.47,0.47
			c-0.57,0-1.95-1.01-3.06-1.01c-1.14,0-2.05,1.04-2.05,2.25c0,1.88,1.92,3.36,5.08,3.36c2.66,0,5.34-1.51,5.34-5.17
			c0-4.47-5.51-4.74-5.51-5.61c0-0.13,0.13-0.3,0.3-0.3c0.71,0,1.92,0.91,2.79,0.91c1.08,0,1.92-1.04,1.92-2.05
			C177.73,91.42,175.95,89.97,173.02,89.97 M181.36,87.96L181.36,87.96c-1.65,0-2.92,1.28-2.92,2.92c0,1.61,1.28,2.92,2.92,2.92
			c1.65,0,2.89-1.31,2.89-2.92C184.25,89.23,183.01,87.96,181.36,87.96 M123.51,97.56L123.51,97.56c0,1.41-1.14,2.55-2.52,2.55
			c-1.31,0-2.45-1.14-2.45-2.55c0-1.41,1.14-2.52,2.45-2.52C122.37,95.04,123.51,96.15,123.51,97.56 M183.68,90.88L183.68,90.88
			c0,1.28-1.04,2.32-2.32,2.32c-1.31,0-2.32-1.04-2.32-2.32c0-1.28,1.01-2.32,2.32-2.32C182.64,88.56,183.68,89.6,183.68,90.88
			 M105.02,95.95L105.02,95.95c0-0.94,0.07-1.14,0.67-1.14c1.61,0,2.72,1.18,2.72,2.69c0,1.61-1.14,2.65-2.59,2.65
			c-0.67,0-0.81-0.27-0.81-0.97V95.95z M181.9,91.01L181.9,91.01c0.34-0.17,0.5-0.3,0.5-0.57c0-0.44-0.34-0.77-0.84-0.77h-1.14v2.38
			h0.54v-0.91h0.54l0.47,0.91h0.5L181.9,91.01z M180.96,90.07L180.96,90.07h0.57c0.24,0,0.37,0.17,0.37,0.34s-0.13,0.3-0.37,0.3
			h-0.57V90.07z"/>
		<path class="st1" d="M42.81,102.4L42.81,102.4c0,1.28,0.97,2.75,2.55,2.75c1.58,0,2.42-1.41,2.42-2.75v-2.42
			c0-0.13,0.1-0.24,0.24-0.24c0.1,0,0.24,0.1,0.37,0.3l2.99,3.93c0.67,0.91,1.48,1.18,2.25,1.18c1.24,0,2.35-1.01,2.35-2.75v-9.74
			c0-1.71-0.94-2.85-2.49-2.85c-1.65,0-2.35,1.18-2.35,2.85v1.85c0,0.3-0.17,0.44-0.3,0.44c-0.1,0-0.24-0.13-0.37-0.23l-2.76-3.49
			c-0.67-0.84-1.61-1.41-2.49-1.41c-1.45,0-2.42,1.28-2.42,2.85V102.4z M77.74,102.4L77.74,102.4c0,1.28,0.97,2.75,2.55,2.75
			c1.55,0,2.39-1.41,2.39-2.75v-2.42c0-0.13,0.1-0.24,0.24-0.24c0.1,0,0.24,0.1,0.4,0.3l2.96,3.93c0.67,0.91,1.48,1.18,2.25,1.18
			c1.28,0,2.35-1.04,2.35-2.75v-9.74c0-1.71-0.94-2.85-2.49-2.85c-1.65,0-2.35,1.18-2.35,2.85v1.85c0,0.3-0.13,0.44-0.3,0.44
			c-0.1,0-0.2-0.13-0.34-0.23l-2.79-3.49c-0.74-0.91-1.55-1.41-2.42-1.41c-1.45,0-2.45,1.31-2.45,2.85V102.4z M33.27,92.63
			L33.27,92.63c0-1.54-0.74-2.82-2.45-2.82c-1.58,0-2.49,1.21-2.49,2.82v5.88c0,3.76,3.03,6.65,6.52,6.65
			c3.56,0,6.59-2.89,6.59-6.65v-5.88c0-1.54-0.81-2.82-2.45-2.82c-1.61,0-2.49,1.21-2.49,2.82v4.94c0,1.21-0.34,2.28-1.58,2.28
			c-1.24,0-1.65-1.07-1.65-2.15V92.63z M14.17,101.19L14.17,101.19c0,1.91,0.97,3.83,3.26,3.83h2.62c4.13,0,7.23-3.39,7.23-7.79
			c0-4.47-3.23-7.36-7.23-7.36h-2.62c-2.25,0-3.26,1.11-3.26,3.29V101.19z M57.47,102.3L57.47,102.3c0,1.55,0.81,2.89,2.52,2.89
			c1.61,0,2.25-1.21,2.25-2.89v-1.88c0-0.47,0.13-0.57,0.27-0.57c0.03,0,0.4,0.27,0.81,0.84l2.66,3.39c0.5,0.71,1.11,1.11,1.88,1.11
			c1.61,0,2.49-1.41,2.49-2.59c0-0.64-0.2-1.24-0.57-1.75l-2.35-3.12c-0.13-0.2-0.2-0.37-0.2-0.47c0-0.1,0-0.2,0.27-0.54l2.29-3.02
			c0.27-0.4,0.47-1.01,0.47-1.48c0-1.58-1.24-2.38-2.35-2.38c-0.67,0-1.24,0.27-1.85,0.94l-3.13,3.63c-0.13,0.1-0.27,0.27-0.4,0.27
			c-0.2,0-0.27-0.13-0.27-0.54v-1.54c0-1.61-0.84-2.75-2.39-2.75c-1.58,0-2.39,1.14-2.39,2.75V102.3z M76.16,92.56L76.16,92.56
			c0-1.31-0.67-2.75-2.45-2.75c-1.55,0-2.42,1.31-2.42,2.75v9.71c0,1.55,0.61,2.89,2.39,2.89c1.81,0,2.49-1.48,2.49-2.89V92.56z
			 M96.33,92.16L96.33,92.16c0-1.24-0.91-2.15-2.18-2.15c-1.75,0-2.32,1.65-2.32,3.36c0,2.12,0.67,3.06,1.95,3.06
			C94.95,96.42,96.33,95.48,96.33,92.16 M19.01,95.82L19.01,95.82c0-0.97,0.03-1.21,0.67-1.21c1.61,0,2.72,1.24,2.72,2.72
			c0,1.65-1.14,2.65-2.59,2.65c-0.74,0-0.81-0.27-0.81-0.97V95.82z"/>
	</g>
</g>
</svg>
