<?xml version="1.0" encoding="utf-8"?>
<!-- Generator: Adobe Illustrator 28.0.0, SVG Export Plug-In . SVG Version: 6.00 Build 0)  -->
<svg version="1.1" id="Layer_1" xmlns="http://www.w3.org/2000/svg" xmlns:xlink="http://www.w3.org/1999/xlink" x="0px" y="0px"
	 viewBox="0 0 198.43 198.43" style="enable-background:new 0 0 198.43 198.43;" xml:space="preserve">
<style type="text/css">
	.st0{fill-rule:evenodd;clip-rule:evenodd;fill:#0076BE;}
	.st1{fill-rule:evenodd;clip-rule:evenodd;fill:#1B1918;}
</style>
<g>
	<g>
		<path class="st0" d="M99.71,101.58h1.77c0.16,0,0.34-0.05,0.49-0.13c0.15-0.08,0.3-0.21,0.4-0.34c0.1-0.14,0.17-0.3,0.2-0.47
			l0-0.01c0.03-0.16,0-0.33-0.05-0.47c-0.06-0.14-0.17-0.26-0.29-0.34c-0.13-0.08-0.29-0.12-0.45-0.13h-1.77L99.71,101.58z
			 M155.98,88.76l0.48,3.02l-1.91,0.01L155.98,88.76z M136.37,90.67h1.76c0.16,0,0.34-0.05,0.48-0.13c0.15-0.08,0.3-0.21,0.4-0.35
			c0.1-0.14,0.17-0.3,0.2-0.47l0-0.01c0.03-0.16,0.01-0.33-0.05-0.47c-0.06-0.14-0.16-0.26-0.29-0.35
			c-0.12-0.08-0.28-0.12-0.45-0.13h-1.76L136.37,90.67z M111.12,92.46h1.35c0.41,0,0.88-0.18,1.21-0.47
			c0.33-0.28,0.58-0.72,0.66-1.13l0.01-0.09c0.06-0.41-0.05-0.84-0.29-1.13c-0.24-0.28-0.66-0.47-1.07-0.48h-1.35L111.12,92.46z
			 M100.65,88.76l0.49,3.02l-1.93,0.01L100.65,88.76z M99.48,103.33l1.91,2.71h5.22l-2.59-3.48l2.39-1.32
			c0.4-0.45,0.66-1.05,0.68-1.69c0-0.24-0.03-0.48-0.11-0.72c-0.17-0.48-0.71-1.38-2.04-1.39l-9.08-0.02l-1.35,8.63l4.53,0
			L99.48,103.33z M78.62,100.68c-0.24-0.45-0.74-0.64-1.19-0.62c-0.18,0-0.37,0.04-0.55,0.1c-0.38,0.13-0.71,0.45-0.9,0.81
			c-0.14,0.25-0.24,0.52-0.28,0.78c-0.13,0.66-0.05,1.17,0.09,1.49c0.16,0.32,0.48,0.52,0.82,0.6c0.38,0.06,0.81-0.03,1.18-0.28
			c0.19-0.13,0.36-0.29,0.49-0.49c0.25-0.36,0.47-0.97,0.47-1.73C78.74,101.12,78.72,100.9,78.62,100.68 M72.15,99.24
			c-0.33,0.42-0.57,0.82-0.71,1.23c-0.29,0.81-0.39,1.62-0.38,2.43c0,0.37,0.07,0.74,0.22,1.11c0.26,0.6,0.7,1.12,1.27,1.47
			c0.93,0.54,2.95,1.06,6,0.59c1.24-0.19,2.19-0.66,2.76-1.05c0.58-0.39,1.05-0.97,1.36-1.59c0.32-0.64,0.48-1.26,0.55-1.89
			c0.07-0.55,0.08-1.1-0.02-1.65c-0.1-0.56-0.48-1.12-1-1.6c-0.3-0.27-0.61-0.45-0.93-0.57c-0.85-0.32-1.74-0.47-2.65-0.5
			c-1.19-0.03-2.46,0.06-3.72,0.4c-0.44,0.11-0.9,0.28-1.36,0.55C72.87,98.52,72.41,98.95,72.15,99.24 M161.13,95.15l-1.49-8.63
			l-6.98,0.02l-3.98,8.61l4.49,0l0.51-1.1l2.84,0.01l0.26,1.09H161.13z M88.76,97.42h-4.37l-0.96,6.15
			c-0.04,0.56,0.18,1.17,0.55,1.56c0.37,0.41,1.04,0.82,1.96,0.99c1.16,0.22,2.34,0.28,3.55,0.14c1.4-0.16,2.88-0.55,3.8-1.49
			c0.38-0.39,0.72-1.01,0.84-1.77l0.9-5.6h-4.37l-0.86,5.47c-0.05,0.31-0.22,0.64-0.53,0.83c-0.27,0.16-0.58,0.2-0.86,0.14
			c-0.27-0.06-0.48-0.28-0.52-0.55c-0.03-0.16-0.02-0.34,0-0.51L88.76,97.42z M71.38,97.44l-9.75,0.02l-0.54,3.42l2.83,0l-0.81,5.16
			h4.31l0.79-5.25h2.61L71.38,97.44z M136.13,92.43l1.91,2.72h5.08l-2.5-3.5l2.37-1.32c0.4-0.45,0.66-1.05,0.67-1.69
			c0-0.24-0.02-0.48-0.1-0.72c-0.18-0.48-0.72-1.37-2.03-1.38l-9,0.06l-1.31,8.55l4.46,0.01L136.13,92.43z M88.49,86.53h-4.36
			l-0.95,6.1c-0.04,0.56,0.18,1.17,0.54,1.55c0.38,0.41,1.05,0.81,1.96,0.99c1.15,0.22,2.34,0.27,3.54,0.14
			c1.4-0.16,2.88-0.54,3.8-1.48c0.37-0.39,0.72-1,0.84-1.76l0.85-5.53h-4.31l-0.86,5.41c-0.05,0.31-0.22,0.64-0.53,0.82
			c-0.27,0.17-0.59,0.2-0.86,0.14c-0.27-0.07-0.48-0.28-0.52-0.55c-0.03-0.16-0.01-0.33,0-0.5L88.49,86.53z M112.88,103.52
			c-0.05,0.31-0.56,0.37-0.85,0.38c-1.27,0.04-2.52-0.05-3.76-0.21c-0.09-0.01-0.72-0.07-0.72-0.07l-0.32,2.32l0.67,0.08
			c1.77,0.25,3.58,0.29,5.41,0.19c1.22-0.07,2.22-0.46,2.91-0.94c0.54-0.37,0.9-0.82,1.15-1.33c0.33-0.67,0.35-1.3,0.19-1.81
			c-0.07-0.22-0.16-0.43-0.31-0.61c-0.15-0.2-0.33-0.36-0.54-0.47c-0.25-0.12-0.51-0.19-0.78-0.23c-0.93-0.14-1.88-0.12-2.82-0.21
			c-0.13-0.01-0.26-0.02-0.36-0.05c-0.22-0.08-0.31-0.54,0.22-0.67c0.15-0.03,0.29-0.04,0.43-0.04c1.22-0.02,2.44,0,3.64,0.09
			c0.26,0.02,0.69,0.02,0.69,0.02l0.37-2.45l-1.05-0.12c-1.25-0.14-2.51-0.18-3.82-0.17c-0.94,0.01-1.87,0.09-2.84,0.37
			c-0.34,0.1-0.68,0.25-1.05,0.46c-0.96,0.58-1.52,1.52-1.65,2.35c-0.04,0.33-0.04,0.64,0.03,0.97c0.04,0.22,0.13,0.44,0.27,0.67
			c0.28,0.44,0.73,0.78,1.28,0.9c0.97,0.2,1.97,0.23,2.99,0.22C112.54,103.15,112.92,103.26,112.88,103.52 M126.87,89.79
			c-0.25-0.45-0.74-0.64-1.19-0.62c-0.18,0.01-0.37,0.04-0.55,0.11c-0.38,0.13-0.72,0.45-0.91,0.8c-0.14,0.26-0.23,0.52-0.28,0.78
			c-0.13,0.66-0.05,1.17,0.09,1.49c0.16,0.32,0.48,0.53,0.82,0.6c0.38,0.07,0.81-0.02,1.18-0.28c0.19-0.13,0.36-0.29,0.49-0.48
			c0.25-0.36,0.47-0.97,0.47-1.73C126.99,90.23,126.98,90.01,126.87,89.79 M166.54,91.3l2.61,3.86h3.7l1.32-8.63h-3.98l-0.62,3.77
			l-2.08-3.77h-4.26l-1.41,8.64l4.13-0.01L166.54,91.3z M120.41,88.35c-0.33,0.42-0.57,0.82-0.71,1.24
			c-0.28,0.81-0.39,1.62-0.38,2.44c0,0.37,0.07,0.74,0.22,1.11c0.26,0.61,0.7,1.13,1.26,1.47c0.93,0.54,2.95,1.07,6,0.59
			c1.24-0.19,2.19-0.66,2.76-1.05c0.58-0.39,1.05-0.97,1.36-1.59c0.32-0.64,0.48-1.26,0.55-1.9c0.07-0.55,0.08-1.1-0.02-1.65
			c-0.1-0.56-0.48-1.13-1-1.6c-0.3-0.27-0.61-0.45-0.93-0.57c-0.86-0.32-1.74-0.48-2.65-0.5c-1.19-0.03-2.46,0.07-3.72,0.4
			c-0.44,0.12-0.89,0.27-1.36,0.55C121.12,87.63,120.66,88.07,120.41,88.35 M105.92,95.16l-1.5-8.59l-7.13-0.02l-4.01,8.61l4.54,0
			l0.52-1.1l2.87,0.01l0.26,1.09L105.92,95.16z M144.96,86.53l-1.37,8.64h4.5l1.35-8.61L144.96,86.53z M65.86,91.98h5.44l0.3-1.89
			h-5.41l0.13-0.94l5.58-0.01l0.41-2.62l-10.04,0.03l-1.33,8.6h10.02l0.36-2.3l-5.59,0.03L65.86,91.98z M107.67,86.56l-1.38,8.61
			l6.76,0.01c1.92,0,4.29-1.01,5.04-2.78c0.35-0.6,0.58-1.2,0.7-1.8c0.1-0.51,0.11-1.03,0.01-1.55c-0.12-0.6-0.42-1.2-0.91-1.62
			c-0.27-0.24-0.55-0.4-0.84-0.52c-0.58-0.24-1.18-0.36-1.8-0.35L107.67,86.56z M82.42,92l-0.66,0.09
			c-1.12,0.22-2.24,0.39-3.33,0.32c-0.42-0.04-0.82-0.12-1.08-0.35c-0.26-0.23-0.36-0.6-0.31-0.95c0.05-0.35,0.27-0.72,0.61-0.97
			c0.17-0.12,0.36-0.21,0.54-0.27c0.35-0.11,0.68-0.14,1-0.18c0.99-0.11,1.93-0.03,2.88,0.07l0.62,0.06l0.56-3.21l-0.63-0.09
			c-1.24-0.11-2.49-0.18-3.78-0.19c-1.81-0.02-3.19,0.39-4.02,0.83c-0.65,0.35-1.32,0.93-1.74,1.6c-0.27,0.43-0.44,0.88-0.58,1.32
			c-0.21,0.69-0.28,1.38-0.22,2.06c0.03,0.4,0.13,0.8,0.32,1.2c0.14,0.33,0.33,0.61,0.58,0.87c1.94,1.7,5.3,1.34,7.9,0.85
			c0.29-0.05,0.8-0.17,0.8-0.17L82.42,92z"/>
		<path class="st1" d="M174.08,112.87c0-0.06,0-0.11,0-0.17c-0.01-0.14-0.03-0.28-0.06-0.41c-0.04-0.17-0.09-0.34-0.16-0.5
			c-0.1-0.24-0.23-0.46-0.4-0.66c-0.2-0.24-0.45-0.43-0.73-0.57c-0.31-0.15-0.65-0.22-1-0.23c-0.44-0.01-0.88,0.08-1.26,0.3
			c-0.3,0.17-0.56,0.42-0.75,0.7c-0.23,0.34-0.38,0.73-0.45,1.13c-0.06,0.33-0.06,0.67-0.01,1c0.05,0.32,0.14,0.63,0.29,0.91
			c0.18,0.35,0.43,0.66,0.75,0.88c0.29,0.2,0.64,0.32,1,0.36c0.19,0.03,0.39,0.03,0.59,0.02c0.29-0.02,0.57-0.09,0.83-0.21
			c0.22-0.1,0.41-0.24,0.58-0.41c0.17-0.16,0.3-0.36,0.42-0.56c0.09-0.16,0.16-0.32,0.22-0.49c0.05-0.14,0.08-0.28,0.11-0.42
			c0.03-0.16,0.04-0.33,0.05-0.5C174.08,112.98,174.08,112.92,174.08,112.87 M173.03,112.87c0,0.05,0,0.11,0,0.16
			c0,0.11-0.01,0.23-0.03,0.34c-0.03,0.2-0.09,0.39-0.17,0.58c-0.08,0.18-0.19,0.36-0.33,0.5c-0.21,0.2-0.5,0.31-0.79,0.33
			c-0.17,0.01-0.34-0.01-0.5-0.08c-0.22-0.09-0.41-0.24-0.55-0.43c-0.13-0.17-0.23-0.37-0.29-0.58c-0.06-0.19-0.09-0.39-0.1-0.59
			c-0.01-0.19,0-0.38,0.03-0.58c0.03-0.18,0.08-0.36,0.15-0.53c0.08-0.18,0.19-0.36,0.34-0.5c0.22-0.21,0.53-0.34,0.83-0.35
			c0.24-0.01,0.47,0.07,0.67,0.19c0.17,0.11,0.31,0.26,0.42,0.43c0.05,0.08,0.1,0.17,0.13,0.26c0.02,0.05,0.05,0.11,0.07,0.17
			c0.02,0.05,0.04,0.11,0.05,0.17c0.01,0.05,0.03,0.11,0.03,0.16c0,0.03,0.01,0.06,0.01,0.08
			C173.02,112.7,173.02,112.79,173.03,112.87 M163.7,115.44h0.95v-3.59l1.06,3.59h1l1.06-3.59v3.58h0.98v-4.99h-1.49l-1.04,3.63
			l-1.03-3.63h-1.49L163.7,115.44z M159.95,113.89l-1.02-0.01c0,0.02,0,0.05,0,0.07c0.01,0.32,0.12,0.65,0.32,0.92
			c0.29,0.38,0.76,0.61,1.23,0.7c0.2,0.04,0.4,0.05,0.61,0.05c0.36,0,0.72-0.04,1.06-0.18c0.39-0.16,0.74-0.47,0.92-0.86
			c0.13-0.3,0.17-0.64,0.08-0.95c-0.08-0.3-0.28-0.57-0.53-0.75c-0.23-0.16-0.5-0.25-0.77-0.31c-0.43-0.11-0.87-0.16-1.28-0.33
			c-0.11-0.04-0.21-0.09-0.29-0.18c-0.1-0.11-0.14-0.28-0.11-0.42c0.05-0.21,0.25-0.37,0.46-0.45c0.16-0.06,0.32-0.08,0.49-0.07
			c0.28,0.01,0.59,0.08,0.78,0.28c0.12,0.12,0.19,0.29,0.21,0.46c0,0.02,0,0.04,0.01,0.06l0.99,0.01c0-0.02,0-0.05,0-0.07
			c-0.01-0.18-0.05-0.36-0.12-0.53c-0.16-0.37-0.5-0.66-0.86-0.83c-0.34-0.15-0.71-0.2-1.08-0.2c-0.41,0-0.83,0.07-1.18,0.28
			c-0.33,0.2-0.59,0.54-0.69,0.93c-0.08,0.32-0.06,0.68,0.1,0.97c0.15,0.27,0.4,0.49,0.69,0.62c0.25,0.12,0.51,0.17,0.78,0.23
			c0.3,0.06,0.59,0.12,0.88,0.22c0.11,0.04,0.23,0.09,0.32,0.16c0.11,0.09,0.18,0.24,0.19,0.38c0.01,0.15-0.05,0.31-0.15,0.42
			c-0.1,0.11-0.24,0.17-0.39,0.21c-0.2,0.06-0.4,0.08-0.6,0.07c-0.13-0.01-0.27-0.02-0.4-0.06c-0.13-0.04-0.25-0.1-0.35-0.18
			c-0.09-0.08-0.17-0.19-0.22-0.3c-0.03-0.08-0.05-0.16-0.05-0.23C159.95,113.98,159.95,113.93,159.95,113.89 M157.44,110.46v4.98
			h1.05v-4.97L157.44,110.46z M152.75,110.45v4.99h1.03v-1.98l0.72,0c0.06,0,0.11,0,0.17,0c0.06,0,0.11,0,0.17,0
			c0.09,0.01,0.17,0.04,0.25,0.08c0.09,0.04,0.17,0.1,0.24,0.17c0.05,0.05,0.1,0.12,0.14,0.18c0.04,0.08,0.07,0.17,0.09,0.26
			c0.03,0.13,0.03,0.27,0.05,0.41c0.01,0.09,0.02,0.17,0.02,0.26c0.01,0.09,0.01,0.18,0.02,0.27c0.01,0.08,0.02,0.16,0.05,0.23
			c0.01,0.04,0.03,0.08,0.05,0.11h1.05c-0.01-0.02-0.02-0.03-0.02-0.05c-0.03-0.07-0.06-0.14-0.08-0.21
			c-0.03-0.11-0.05-0.22-0.06-0.33c-0.02-0.14-0.03-0.27-0.04-0.41c-0.01-0.17-0.02-0.34-0.05-0.51c-0.02-0.14-0.06-0.29-0.13-0.41
			c-0.06-0.11-0.15-0.2-0.25-0.27c-0.08-0.05-0.16-0.1-0.25-0.13c-0.07-0.03-0.14-0.05-0.22-0.06c-0.02,0-0.04-0.01-0.05-0.01
			c0.02,0,0.04,0,0.05-0.01c0.07-0.01,0.15-0.03,0.22-0.05c0.09-0.03,0.18-0.07,0.26-0.12c0.12-0.07,0.23-0.17,0.31-0.28
			c0.1-0.13,0.17-0.28,0.21-0.44c0.04-0.16,0.05-0.32,0.04-0.48c-0.02-0.18-0.07-0.36-0.16-0.51c-0.13-0.23-0.33-0.42-0.56-0.54
			c-0.17-0.09-0.36-0.15-0.54-0.17c-0.18-0.02-0.36-0.02-0.54-0.02c-0.17,0-0.33,0-0.5,0L152.75,110.45z M153.78,111.28l1.19,0
			c0.02,0,0.05,0,0.07,0c0.07,0,0.15,0.01,0.22,0.04c0.09,0.03,0.16,0.09,0.23,0.15c0.05,0.05,0.1,0.11,0.14,0.17
			c0.05,0.1,0.08,0.21,0.08,0.32c0,0.15-0.04,0.29-0.12,0.41c-0.08,0.12-0.2,0.21-0.33,0.25c-0.08,0.03-0.17,0.04-0.25,0.05
			c-0.08,0-0.17,0-0.25,0l-0.98-0.01L153.78,111.28z M148.03,110.46l0,2.91c0,0.08,0,0.16,0,0.23c0,0.12,0,0.23,0,0.35
			c0,0.18,0.02,0.37,0.07,0.55c0.06,0.21,0.19,0.41,0.35,0.57c0.23,0.23,0.54,0.37,0.85,0.45c0.27,0.07,0.54,0.08,0.82,0.08
			c0.42-0.01,0.86-0.06,1.22-0.28c0.3-0.18,0.56-0.48,0.66-0.81c0.05-0.17,0.07-0.35,0.08-0.53c0-0.13,0-0.25,0-0.38
			c0-0.08,0-0.15,0-0.23l-0.01-2.91h-1.03l0,3.07c0,0.07,0,0.14,0,0.21c0,0.12,0,0.25-0.02,0.37c-0.03,0.17-0.11,0.34-0.23,0.46
			c-0.18,0.18-0.45,0.25-0.72,0.25c-0.26,0-0.53-0.06-0.71-0.22c-0.13-0.11-0.22-0.27-0.26-0.44c-0.03-0.14-0.03-0.29-0.03-0.43
			c0-0.06,0-0.13,0-0.19l-0.01-3.07H148.03z M143.57,110.46v0.83h1.52v4.15h1.04v-4.15h1.5v-0.83L143.57,110.46z M135.15,110.45
			l1.64,3.09l0,1.89h1.03v-1.9l1.68-3.08h-1.07l-1.09,2.2l-1.07-2.2H135.15z M127.71,113.89l-1.02-0.01c0,0.02,0,0.05,0,0.07
			c0.01,0.32,0.12,0.65,0.32,0.92c0.29,0.38,0.76,0.61,1.23,0.7c0.2,0.04,0.4,0.05,0.61,0.05c0.36,0,0.72-0.04,1.06-0.18
			c0.39-0.16,0.74-0.47,0.92-0.86c0.13-0.3,0.17-0.64,0.08-0.95c-0.08-0.3-0.28-0.57-0.53-0.75c-0.23-0.16-0.5-0.25-0.77-0.31
			c-0.43-0.11-0.87-0.16-1.28-0.33c-0.11-0.04-0.21-0.09-0.29-0.18c-0.1-0.11-0.14-0.28-0.11-0.42c0.05-0.21,0.25-0.37,0.46-0.45
			c0.16-0.06,0.32-0.08,0.49-0.07c0.28,0.01,0.59,0.08,0.78,0.28c0.12,0.12,0.19,0.29,0.21,0.46c0,0.02,0.01,0.04,0.01,0.06
			l0.99,0.01c0-0.02,0-0.05,0-0.07c-0.01-0.18-0.05-0.36-0.12-0.53c-0.16-0.37-0.5-0.66-0.86-0.83c-0.34-0.15-0.71-0.2-1.08-0.2
			c-0.41,0-0.83,0.07-1.18,0.28c-0.33,0.2-0.59,0.54-0.69,0.93c-0.08,0.32-0.06,0.68,0.1,0.97c0.15,0.27,0.4,0.49,0.68,0.62
			c0.25,0.12,0.51,0.17,0.78,0.23c0.3,0.06,0.59,0.12,0.88,0.22c0.11,0.04,0.23,0.09,0.32,0.16c0.11,0.09,0.18,0.24,0.19,0.38
			c0.01,0.15-0.05,0.31-0.15,0.42c-0.1,0.11-0.24,0.17-0.39,0.21c-0.2,0.06-0.4,0.08-0.6,0.07c-0.13-0.01-0.27-0.02-0.4-0.06
			c-0.13-0.04-0.25-0.1-0.35-0.18c-0.1-0.08-0.17-0.19-0.22-0.3c-0.03-0.08-0.04-0.16-0.05-0.23
			C127.71,113.98,127.71,113.93,127.71,113.89 M122.59,110.46v4.99h3.74v-0.86h-2.69v-1.36h2.35v-0.83h-2.35v-1.1h2.64v-0.84
			L122.59,110.46z M118.6,113.62v0.56c0,0.05,0,0.11,0.01,0.16c0.01,0.08,0.02,0.17,0.04,0.25c0.04,0.14,0.11,0.27,0.19,0.39
			c0.13,0.18,0.3,0.33,0.5,0.43c0.26,0.13,0.55,0.17,0.84,0.18c0.2,0,0.39-0.01,0.58-0.06c0.26-0.06,0.51-0.19,0.7-0.37
			c0.16-0.15,0.28-0.35,0.34-0.56c0.03-0.11,0.04-0.23,0.05-0.35c0-0.05,0.01-0.1,0.01-0.16v-3.65h-1.02l0,3.07
			c0,0.18,0,0.35,0,0.53c0,0.1,0,0.19-0.02,0.28c-0.02,0.1-0.08,0.2-0.15,0.27c-0.1,0.1-0.24,0.15-0.38,0.16
			c-0.09,0.01-0.17,0.01-0.26-0.02c-0.16-0.04-0.31-0.16-0.39-0.31c-0.05-0.11-0.06-0.23-0.07-0.34c0-0.09-0.01-0.18-0.01-0.27
			c0-0.04,0-0.08,0-0.12c0-0.03,0-0.07,0-0.1H118.6z M115.57,110.45l-1.76,4.99h1.04l0.34-1.05H117l0.32,1.05h1.06l-1.71-4.98
			L115.57,110.45z M116.12,111.45l0.65,2.15h-1.33L116.12,111.45z M112.37,110.46v4.98h1.05v-4.97L112.37,110.46z M107.59,110.45
			l1.68,4.99h0.99l1.72-4.99h-1.1l-1.09,3.7l-1.09-3.7L107.59,110.45z M99.78,110.46v4.99h3.74v-0.86h-2.69v-1.36h2.35v-0.83h-2.35
			v-1.1h2.64v-0.84L99.78,110.46z M94.93,115.44l2.17,0c0.08,0,0.17-0.01,0.25-0.02c0.14-0.02,0.28-0.06,0.42-0.11
			c0.19-0.07,0.37-0.17,0.53-0.29c0.21-0.16,0.38-0.36,0.52-0.58c0.15-0.26,0.25-0.54,0.31-0.83c0.05-0.24,0.07-0.49,0.06-0.74
			c-0.01-0.34-0.06-0.68-0.18-1c-0.11-0.3-0.27-0.59-0.5-0.82c-0.2-0.21-0.46-0.38-0.74-0.48c-0.19-0.07-0.38-0.1-0.58-0.11l-0.25,0
			h-2.01L94.93,115.44z M95.96,111.27l0.64,0c0.09,0,0.18,0,0.27,0.01c0.15,0.01,0.3,0.03,0.44,0.09c0.15,0.06,0.29,0.17,0.41,0.29
			c0.09,0.09,0.16,0.2,0.21,0.31c0.1,0.2,0.16,0.43,0.19,0.66c0.03,0.19,0.04,0.39,0.03,0.58c-0.01,0.14-0.02,0.28-0.06,0.42
			c-0.05,0.2-0.13,0.4-0.26,0.56c-0.11,0.13-0.25,0.24-0.41,0.31c-0.13,0.05-0.28,0.08-0.42,0.09c-0.11,0.01-0.22,0-0.33,0h-0.72
			L95.96,111.27z M87.63,110.45l-1.76,4.99h1.04l0.34-1.05h1.82l0.32,1.05h1.06l-1.71-4.98L87.63,110.45z M88.19,111.45l0.65,2.15
			H87.5L88.19,111.45z M84.44,110.46v4.98h1.05v-4.97L84.44,110.46z M83.02,113.79c0,0.01,0,0.02,0,0.04
			c-0.01,0.08-0.03,0.16-0.06,0.23c-0.08,0.19-0.21,0.36-0.39,0.48c-0.27,0.18-0.62,0.24-0.94,0.16c-0.36-0.08-0.68-0.33-0.87-0.65
			c-0.18-0.3-0.24-0.66-0.26-1.01c-0.02-0.34,0-0.68,0.12-1c0.11-0.3,0.31-0.58,0.58-0.74c0.28-0.17,0.63-0.23,0.95-0.16
			c0.26,0.06,0.51,0.21,0.65,0.42c0.08,0.12,0.14,0.27,0.18,0.41c0,0.01,0.01,0.02,0.01,0.03l0.98-0.05
			c-0.05-0.22-0.1-0.45-0.2-0.65c-0.14-0.28-0.38-0.53-0.65-0.69c-0.38-0.23-0.82-0.31-1.27-0.31c-0.43,0-0.87,0.09-1.23,0.3
			c-0.33,0.19-0.61,0.49-0.81,0.82c-0.28,0.48-0.39,1.05-0.37,1.61c0.02,0.48,0.12,0.95,0.35,1.36c0.24,0.44,0.62,0.81,1.07,1.02
			c0.31,0.14,0.65,0.21,0.99,0.21c0.37,0,0.73-0.08,1.07-0.23c0.36-0.17,0.69-0.44,0.88-0.78c0.13-0.23,0.2-0.49,0.24-0.75
			c0-0.02,0-0.03,0.01-0.05L83.02,113.79z M74.9,115.44h1v-3.37l2.05,3.37h1.06v-4.98h-1.01v3.38l-2.09-3.38H74.9L74.9,115.44z
			 M70.76,110.46v4.99h3.74v-0.86h-2.69v-1.36h2.35v-0.83H71.8v-1.1h2.64v-0.84L70.76,110.46z M69.09,112.04l1.01,0
			c0-0.02-0.01-0.04-0.01-0.05c-0.03-0.21-0.11-0.42-0.21-0.61c-0.14-0.26-0.35-0.49-0.6-0.66c-0.25-0.17-0.54-0.29-0.83-0.36
			c-0.25-0.06-0.5-0.08-0.75-0.06c-0.38,0.03-0.76,0.15-1.08,0.35c-0.34,0.22-0.62,0.54-0.81,0.89c-0.14,0.26-0.24,0.54-0.29,0.83
			c-0.05,0.27-0.07,0.55-0.05,0.83c0.02,0.28,0.06,0.56,0.16,0.82c0.11,0.3,0.28,0.59,0.49,0.83c0.19,0.21,0.42,0.4,0.67,0.53
			c0.31,0.15,0.65,0.22,1,0.22c0.26,0,0.52-0.04,0.75-0.14c0.19-0.08,0.36-0.2,0.51-0.34c0.09-0.09,0.16-0.18,0.22-0.28
			c0.01-0.02,0.02-0.04,0.03-0.06l0.05,0.66h0.78v-2.64H68v0.77h1.23c0,0.01,0,0.03,0,0.04c0,0.09-0.03,0.17-0.06,0.25
			c-0.08,0.22-0.21,0.42-0.38,0.57c-0.14,0.12-0.32,0.21-0.5,0.26c-0.19,0.05-0.39,0.06-0.58,0.03c-0.21-0.03-0.42-0.12-0.59-0.24
			c-0.2-0.16-0.35-0.38-0.45-0.62c-0.12-0.29-0.16-0.6-0.16-0.91c0-0.31,0.06-0.62,0.18-0.91c0.08-0.2,0.2-0.39,0.35-0.54
			c0.1-0.1,0.21-0.18,0.33-0.24c0.16-0.08,0.33-0.12,0.5-0.13c0.14-0.01,0.28,0.01,0.42,0.05c0.12,0.03,0.23,0.09,0.33,0.16
			c0.11,0.08,0.21,0.18,0.29,0.29c0.07,0.1,0.12,0.21,0.16,0.33C69.08,111.98,69.08,112.01,69.09,112.04 M62.72,110.45l-1.76,4.99
			H62l0.34-1.05h1.82l0.32,1.05h1.07l-1.71-4.98L62.72,110.45z M63.27,111.45l0.65,2.15h-1.33L63.27,111.45z"/>
		<path class="st0" d="M56.26,92.23c-2.08-5.67-7.2-9.43-13.75-9.43c-6.46,0-11.51,3.69-13.66,9.25h27.34L56.26,92.23z M52.71,92.6
			H24.98c-0.51,1.58-0.72,2.67-0.72,4.41c0,1.74,0.21,2.88,0.72,4.46h29.37V92.6H52.71z M56.21,101.98
			c-1.94,5.06-6.25,8.53-11.86,9.18v-9.18H56.21z M28.85,101.98h5.33v6.81C31.67,107.12,29.96,104.96,28.85,101.98 M34.71,102.05
			h9.11v12.71c-0.51,0.02-0.78,0.02-1.31,0.02c-3.14,0-5.4-0.63-7.77-2.09L34.71,102.05z"/>
	</g>
</g>
</svg>
