<?xml version="1.0" encoding="utf-8"?>
<!-- Generator: Adobe Illustrator 28.0.0, SVG Export Plug-In . SVG Version: 6.00 Build 0)  -->
<svg version="1.1" id="Layer_1" xmlns="http://www.w3.org/2000/svg" xmlns:xlink="http://www.w3.org/1999/xlink" x="0px" y="0px"
	 viewBox="0 0 198.43 198.43" style="enable-background:new 0 0 198.43 198.43;" xml:space="preserve">
<style type="text/css">
	.st0{fill:#F28700;}
	
		.st1{clip-path:url(#SVGID_00000149344508002293510860000012308867384624569500_);fill-rule:evenodd;clip-rule:evenodd;fill:#FFFFFF;}
	
		.st2{clip-path:url(#SVGID_00000149344508002293510860000012308867384624569500_);fill-rule:evenodd;clip-rule:evenodd;fill:#81B917;}
	
		.st3{clip-path:url(#SVGID_00000149344508002293510860000012308867384624569500_);fill:none;stroke:#804A06;stroke-width:0.1;stroke-miterlimit:3.864;}
	
		.st4{clip-path:url(#SVGID_00000149344508002293510860000012308867384624569500_);fill-rule:evenodd;clip-rule:evenodd;fill:#008A55;}
	
		.st5{clip-path:url(#SVGID_00000149344508002293510860000012308867384624569500_);fill-rule:evenodd;clip-rule:evenodd;fill:#804A06;}
</style>
<rect x="32.81" y="24.26" class="st0" width="132.81" height="149.9"/>
<g>
	<defs>
		<rect id="SVGID_1_" x="32.81" y="24.26" width="132.81" height="149.9"/>
	</defs>
	<clipPath id="SVGID_00000030453920007184219150000005949292338918910874_">
		<use xlink:href="#SVGID_1_"  style="overflow:visible;"/>
	</clipPath>
	
		<path style="clip-path:url(#SVGID_00000030453920007184219150000005949292338918910874_);fill-rule:evenodd;clip-rule:evenodd;fill:#FFFFFF;" d="
		M61.29,140.63c0-2.67-0.71-4.73-2.13-6.15c-1.41-1.43-3.54-2.14-6.37-2.14c-3.05,0-5.47,0.84-7.22,2.51
		c-1.76,1.68-2.63,3.94-2.63,6.81c0,2.89,0.92,5.12,2.78,6.68c1.85,1.57,4.52,2.35,8,2.35c1.35,0,2.58-0.11,3.69-0.34
		c1.12-0.23,2.31-0.6,3.55-1.1v-4.46h-0.62c-0.65,0.49-1.51,0.95-2.62,1.38c-1.11,0.43-2.25,0.64-3.43,0.64
		c-1.86,0-3.27-0.36-4.22-1.09c-0.95-0.73-1.48-1.78-1.55-3.15h12.77V140.63z M48.51,139.3c0.08-1.22,0.47-2.11,1.16-2.67
		c0.69-0.55,1.57-0.83,2.64-0.83c1.16,0,2,0.29,2.55,0.88c0.54,0.58,0.83,1.46,0.87,2.62H48.51z"/>
	
		<path style="clip-path:url(#SVGID_00000030453920007184219150000005949292338918910874_);fill-rule:evenodd;clip-rule:evenodd;fill:#FFFFFF;" d="
		M74.18,125.94v8.38c-0.66-0.7-1.42-1.23-2.28-1.58c-0.86-0.35-1.81-0.53-2.86-0.53c-2.14,0-3.91,0.77-5.32,2.32
		c-1.39,1.55-2.09,3.79-2.09,6.72c0,2.62,0.63,4.83,1.89,6.66c1.27,1.83,3.09,2.74,5.49,2.74c1.19,0,2.27-0.26,3.24-0.77
		c0.73-0.39,1.53-1.13,2.42-2.24v2.59h6.31v-24.3H74.18z M73.36,144.7c-0.57,0.68-1.29,1.01-2.15,1.01c-0.81,0-1.49-0.33-2.03-1
		c-0.55-0.67-0.81-1.74-0.81-3.18c0-1.55,0.26-2.65,0.79-3.31c0.53-0.66,1.19-0.99,1.97-0.99c0.89,0,1.64,0.34,2.22,1.03
		c0.58,0.68,0.88,1.73,0.88,3.11C74.23,142.91,73.94,144.01,73.36,144.7"/>
	
		<path style="clip-path:url(#SVGID_00000030453920007184219150000005949292338918910874_);fill-rule:evenodd;clip-rule:evenodd;fill:#FFFFFF;" d="
		M109.03,137.94v12.3h-5.58v-8.66c0-0.85-0.02-1.57-0.06-2.16c-0.04-0.59-0.15-1.08-0.34-1.45c-0.19-0.37-0.47-0.64-0.85-0.81
		c-0.37-0.17-0.9-0.26-1.58-0.26c-0.54,0-1.07,0.11-1.59,0.34c-0.52,0.22-0.98,0.46-1.39,0.7v12.3h-5.58v-17.34h5.58v1.93
		c0.96-0.75,1.88-1.34,2.75-1.76c0.87-0.42,1.84-0.63,2.9-0.63c1.15,0,2.15,0.25,3.03,0.76c0.88,0.51,1.55,1.25,2.05,2.24
		c1.12-0.94,2.19-1.67,3.25-2.2c1.04-0.54,2.08-0.8,3.09-0.8c1.87,0,3.29,0.56,4.27,1.68c0.97,1.12,1.45,2.74,1.45,4.84v11.28h-5.58
		v-8.66c0-0.86-0.01-1.58-0.05-2.17c-0.04-0.59-0.15-1.06-0.33-1.43c-0.18-0.37-0.45-0.64-0.84-0.81c-0.39-0.17-0.92-0.26-1.61-0.26
		c-0.46,0-0.92,0.08-1.36,0.24C110.22,137.3,109.67,137.56,109.03,137.94"/>
	
		<path style="clip-path:url(#SVGID_00000030453920007184219150000005949292338918910874_);fill-rule:evenodd;clip-rule:evenodd;fill:#FFFFFF;" d="
		M132.32,150.69c-1.51,0-2.9-0.18-4.15-0.54c-1.24-0.36-2.33-0.92-3.26-1.67c-0.92-0.75-1.63-1.7-2.13-2.84
		c-0.5-1.14-0.75-2.47-0.75-4.01c0-1.62,0.27-3.01,0.81-4.18c0.54-1.17,1.29-2.14,2.26-2.91c0.93-0.73,2.01-1.27,3.24-1.61
		c1.23-0.34,2.5-0.5,3.82-0.5c1.18,0,2.27,0.12,3.27,0.39c1,0.26,1.93,0.58,2.79,1v4.75h-0.79c-0.21-0.19-0.47-0.4-0.77-0.65
		c-0.31-0.25-0.67-0.49-1.12-0.73c-0.42-0.23-0.88-0.43-1.39-0.57c-0.51-0.15-1.08-0.23-1.76-0.23c-1.47,0-2.61,0.47-3.4,1.41
		c-0.8,0.94-1.2,2.22-1.2,3.83c0,1.66,0.42,2.93,1.23,3.79c0.81,0.87,1.97,1.3,3.47,1.3c0.7,0,1.32-0.08,1.89-0.24
		c0.56-0.16,1.02-0.35,1.39-0.57c0.35-0.2,0.66-0.42,0.92-0.65c0.27-0.23,0.51-0.45,0.74-0.67h0.79v4.75
		c-0.87,0.41-1.78,0.74-2.74,0.98C134.52,150.58,133.47,150.69,132.32,150.69"/>
	
		<path style="clip-path:url(#SVGID_00000030453920007184219150000005949292338918910874_);fill-rule:evenodd;clip-rule:evenodd;fill:#FFFFFF;" d="
		M150.27,150.24h5.49v-11.78c0-2.08-0.71-3.6-2.1-4.57c-1.4-0.97-3.68-1.45-6.84-1.45c-1.32,0-2.64,0.1-3.97,0.31
		c-1.33,0.21-2.28,0.39-2.86,0.54v4.17h0.5c0.46-0.18,1.21-0.42,2.24-0.76c1.04-0.33,2.02-0.49,2.94-0.49
		c1.52,0,2.67,0.18,3.46,0.55c0.78,0.37,1.17,1.04,1.17,1.99v0.09c-1.64,0.09-3.23,0.24-4.74,0.43c-1.53,0.19-2.81,0.52-3.83,0.99
		c-1.04,0.46-1.85,1.09-2.41,1.89c-0.57,0.8-0.85,1.84-0.85,3.1c0,1.59,0.55,2.89,1.66,3.91c1.12,1.02,2.5,1.53,4.14,1.53
		c0.71,0,1.35-0.06,1.93-0.18c0.59-0.12,1.16-0.3,1.7-0.54c0.4-0.19,0.81-0.44,1.25-0.76c0.45-0.31,0.82-0.59,1.11-0.81V150.24z
		 M148.77,146.58c-0.58,0.23-1.14,0.34-1.7,0.34c-0.7,0-1.22-0.04-1.56-0.15c-0.32-0.09-0.61-0.24-0.84-0.45
		c-0.25-0.21-0.41-0.42-0.47-0.65c-0.07-0.23-0.09-0.52-0.09-0.87c0-0.54,0.15-0.97,0.44-1.31c0.29-0.33,0.72-0.58,1.28-0.76
		c0.45-0.14,1.12-0.26,2-0.37c0.88-0.11,1.7-0.19,2.45-0.25v3.57C149.84,146.06,149.33,146.35,148.77,146.58"/>
	
		<rect x="83.39" y="132.89" style="clip-path:url(#SVGID_00000030453920007184219150000005949292338918910874_);fill-rule:evenodd;clip-rule:evenodd;fill:#FFFFFF;" width="5.58" height="17.34"/>
	
		<path style="clip-path:url(#SVGID_00000030453920007184219150000005949292338918910874_);fill-rule:evenodd;clip-rule:evenodd;fill:#81B917;" d="
		M83.43,131.63c0,0,0.37-7.2,7.48-7.56C90.91,124.07,91.37,130.89,83.43,131.63"/>
	
		<path style="clip-path:url(#SVGID_00000030453920007184219150000005949292338918910874_);fill:none;stroke:#804A06;stroke-width:0.1;stroke-miterlimit:3.864;" d="
		M83.43,131.63c0,0,0.37-7.2,7.48-7.56C90.91,124.07,91.37,130.89,83.43,131.63z"/>
	
		<path style="clip-path:url(#SVGID_00000030453920007184219150000005949292338918910874_);fill-rule:evenodd;clip-rule:evenodd;fill:#008A55;" d="
		M99.21,111.9c-15.38,0-27.84-12.47-27.84-27.84c0-15.38,12.46-27.85,27.84-27.85c15.37,0,27.85,12.47,27.85,27.85
		C127.06,99.43,114.59,111.9,99.21,111.9 M99.21,52.17c-17.61,0-31.89,14.27-31.89,31.89c0,17.61,14.27,31.89,31.89,31.89
		c17.61,0,31.9-14.28,31.9-31.89C131.11,66.44,116.82,52.17,99.21,52.17"/>
	
		<path style="clip-path:url(#SVGID_00000030453920007184219150000005949292338918910874_);fill-rule:evenodd;clip-rule:evenodd;fill:#FFFFFF;" d="
		M67.95,84.05c0-17.55,13.99-31.78,31.26-31.78c17.27,0,31.27,14.23,31.27,31.78s-13.99,31.78-31.27,31.78
		C81.94,115.83,67.95,101.6,67.95,84.05"/>
	
		<path style="clip-path:url(#SVGID_00000030453920007184219150000005949292338918910874_);fill-rule:evenodd;clip-rule:evenodd;fill:#804A06;" d="
		M94.89,79.48c0,0,3.34,6.83,4.56,6.67l2.89-7.45l1.82,0.46c0,0-5.17,13.81,0.92,34.6H93.52c0,0,5.6-20.26,0.79-29.26L94.89,79.48z"
		/>
	
		<path style="clip-path:url(#SVGID_00000030453920007184219150000005949292338918910874_);fill-rule:evenodd;clip-rule:evenodd;fill:#81B917;" d="
		M85.07,87.4c0,0,2.25-6.95,9.21-5.41C94.28,81.99,92.92,88.8,85.07,87.4"/>
	
		<path style="clip-path:url(#SVGID_00000030453920007184219150000005949292338918910874_);fill-rule:evenodd;clip-rule:evenodd;fill:#804A06;" d="
		M94.15,82.09c-0.17,0.74-1.73,6.42-8.92,5.22C85.5,86.56,87.86,80.79,94.15,82.09 M84.96,87.37l-0.04,0.12l0.12,0.02
		c7.87,1.4,9.33-5.43,9.35-5.5l0.02-0.11l-0.11-0.02C87.33,80.34,84.99,87.3,84.96,87.37"/>
	
		<path style="clip-path:url(#SVGID_00000030453920007184219150000005949292338918910874_);fill-rule:evenodd;clip-rule:evenodd;fill:#008A55;" d="
		M80.24,84.14c0,0,3.96-6.12,10.27-2.78C90.51,81.35,87.45,87.58,80.24,84.14"/>
	
		<path style="clip-path:url(#SVGID_00000030453920007184219150000005949292338918910874_);fill-rule:evenodd;clip-rule:evenodd;fill:#804A06;" d="
		M90.36,81.41c-0.38,0.71-3.35,5.72-9.94,2.66C80.92,83.36,84.67,78.5,90.36,81.41 M80.14,84.07l-0.07,0.11l0.11,0.05
		c7.23,3.45,10.4-2.77,10.43-2.83l0.05-0.1l-0.09-0.05C84.24,77.91,80.18,84,80.14,84.07"/>
	
		<path style="clip-path:url(#SVGID_00000030453920007184219150000005949292338918910874_);fill-rule:evenodd;clip-rule:evenodd;fill:#81B917;" d="
		M83.34,79.44c0,0,5.12-5.15,10.62-0.58C93.96,78.86,89.7,84.3,83.34,79.44"/>
	
		<path style="clip-path:url(#SVGID_00000030453920007184219150000005949292338918910874_);fill-rule:evenodd;clip-rule:evenodd;fill:#804A06;" d="
		M93.78,78.89c-0.42,0.51-4.34,4.97-10.26,0.54C83.95,79.02,88.68,74.75,93.78,78.89 M83.26,79.36l-0.09,0.09l0.1,0.08
		c6.38,4.88,10.74-0.54,10.78-0.59l0.07-0.09l-0.08-0.07C88.52,74.18,83.31,79.3,83.26,79.36"/>
	
		<path style="clip-path:url(#SVGID_00000030453920007184219150000005949292338918910874_);fill-rule:evenodd;clip-rule:evenodd;fill:#81B917;" d="
		M80.5,74.23c0,0,6.28-3.56,10.37,2.35C90.87,76.58,85.34,80.67,80.5,74.23"/>
	
		<path style="clip-path:url(#SVGID_00000030453920007184219150000005949292338918910874_);fill-rule:evenodd;clip-rule:evenodd;fill:#804A06;" d="
		M90.71,76.56c-0.58,0.41-5.52,3.57-10.03-2.29C81.3,73.94,86.92,71.23,90.71,76.56 M80.45,74.14l-0.11,0.06l0.08,0.11
		c4.85,6.45,10.47,2.41,10.53,2.37l0.08-0.06l-0.06-0.09C86.86,70.59,80.51,74.1,80.45,74.14"/>
	
		<path style="clip-path:url(#SVGID_00000030453920007184219150000005949292338918910874_);fill-rule:evenodd;clip-rule:evenodd;fill:#008A55;" d="
		M85.71,65.77c0,0,7.19,0.46,7.48,7.68C93.19,73.45,86.36,73.84,85.71,65.77"/>
	
		<path style="clip-path:url(#SVGID_00000030453920007184219150000005949292338918910874_);fill-rule:evenodd;clip-rule:evenodd;fill:#804A06;" d="
		M85.85,65.89c0.74,0.08,6.87,0.91,7.21,7.45C92.21,73.36,86.51,73.19,85.85,65.89 M85.6,65.78c0.65,8.09,7.53,7.79,7.6,7.78l0.11,0
		l0-0.11c-0.29-7.24-7.51-7.79-7.59-7.79l-0.12,0L85.6,65.78z"/>
	
		<path style="clip-path:url(#SVGID_00000030453920007184219150000005949292338918910874_);fill-rule:evenodd;clip-rule:evenodd;fill:#81B917;" d="
		M94.28,60.4c0,0,5.89,4.23,2.4,10.52C96.67,70.92,90.66,67.61,94.28,60.4"/>
	
		<path style="clip-path:url(#SVGID_00000030453920007184219150000005949292338918910874_);fill-rule:evenodd;clip-rule:evenodd;fill:#804A06;" d="
		M93.22,64.81c0-1.21,0.32-2.63,1.11-4.24c0.54,0.43,3.33,2.81,3.33,6.41c0,1.14-0.3,2.42-1.04,3.78
		C96.09,70.44,93.22,68.56,93.22,64.81 M94.18,60.34c-3.63,7.22,2.38,10.64,2.44,10.68l0.1,0.05l0.05-0.1
		c3.5-6.31-2.36-10.63-2.43-10.67l-0.11-0.08L94.18,60.34z"/>
	
		<path style="clip-path:url(#SVGID_00000030453920007184219150000005949292338918910874_);fill-rule:evenodd;clip-rule:evenodd;fill:#81B917;" d="
		M92.5,69.88c0,0,5.88,4.23,2.39,10.53C94.89,80.41,88.87,77.09,92.5,69.88"/>
	
		<path style="clip-path:url(#SVGID_00000030453920007184219150000005949292338918910874_);fill-rule:evenodd;clip-rule:evenodd;fill:#804A06;" d="
		M91.44,74.3c0-1.21,0.32-2.63,1.12-4.25c0.54,0.43,3.32,2.81,3.32,6.41c0,1.14-0.3,2.42-1.04,3.78
		C94.31,79.93,91.44,78.05,91.44,74.3 M92.4,69.83c-3.63,7.22,2.38,10.65,2.44,10.68l0.11,0.05l0.05-0.1
		c3.49-6.31-2.37-10.63-2.43-10.67l-0.11-0.08L92.4,69.83z"/>
	
		<path style="clip-path:url(#SVGID_00000030453920007184219150000005949292338918910874_);fill-rule:evenodd;clip-rule:evenodd;fill:#008A55;" d="
		M104.5,60.8c0,0,2.89,6.71-3.31,10.27C101.19,71.07,97.73,65.08,104.5,60.8"/>
	
		<path style="clip-path:url(#SVGID_00000030453920007184219150000005949292338918910874_);fill-rule:evenodd;clip-rule:evenodd;fill:#804A06;" d="
		M100.4,67.47c0-1.96,0.84-4.4,4.05-6.48c0.13,0.33,0.6,1.65,0.6,3.37c0,2.12-0.76,4.74-3.81,6.54
		C101.06,70.58,100.4,69.25,100.4,67.47 M104.44,60.71c-6.78,4.29-3.38,10.36-3.35,10.42l0.06,0.1l0.1-0.06
		c6.2-3.56,3.38-10.34,3.35-10.41l-0.05-0.12L104.44,60.71z"/>
	
		<path style="clip-path:url(#SVGID_00000030453920007184219150000005949292338918910874_);fill-rule:evenodd;clip-rule:evenodd;fill:#81B917;" d="
		M112.93,65.67c0,0-0.27,7.32-7.37,7.79C105.56,73.46,105.01,66.53,112.93,65.67"/>
	
		<path style="clip-path:url(#SVGID_00000030453920007184219150000005949292338918910874_);fill-rule:evenodd;clip-rule:evenodd;fill:#804A06;" d="
		M105.66,73.11c0-1.39,0.47-6.5,7.14-7.3c-0.05,0.75-0.72,7.01-7.14,7.52C105.67,73.26,105.66,73.23,105.66,73.11 M112.92,65.56
		c-7.94,0.87-7.47,7.84-7.47,7.91l0.01,0.11l0.11-0.01c7.11-0.47,7.47-7.82,7.47-7.9v-0.13L112.92,65.56z"/>
	
		<path style="clip-path:url(#SVGID_00000030453920007184219150000005949292338918910874_);fill-rule:evenodd;clip-rule:evenodd;fill:#008A55;" d="
		M109.37,69.39c0,0-0.27,7.32-7.36,7.79C102.01,77.18,101.45,70.25,109.37,69.39"/>
	
		<path style="clip-path:url(#SVGID_00000030453920007184219150000005949292338918910874_);fill-rule:evenodd;clip-rule:evenodd;fill:#804A06;" d="
		M102.11,76.82c0-1.4,0.48-6.49,7.14-7.3c-0.06,0.75-0.72,7-7.13,7.51C102.11,76.98,102.11,76.94,102.11,76.82 M109.36,69.28
		c-7.94,0.86-7.46,7.84-7.46,7.91l0.01,0.11l0.11-0.01c7.11-0.47,7.46-7.82,7.46-7.89l0-0.13L109.36,69.28z"/>
	
		<path style="clip-path:url(#SVGID_00000030453920007184219150000005949292338918910874_);fill-rule:evenodd;clip-rule:evenodd;fill:#008A55;" d="
		M118.04,74.37c0,0-3.83,6.2-10.2,3C107.84,77.36,110.77,71.07,118.04,74.37"/>
	
		<path style="clip-path:url(#SVGID_00000030453920007184219150000005949292338918910874_);fill-rule:evenodd;clip-rule:evenodd;fill:#804A06;" d="
		M117.87,74.42c-0.49,0.71-4.13,5.67-9.88,2.87C108.36,76.58,111.22,71.5,117.87,74.42 M107.74,77.31l-0.04,0.1l0.09,0.05
		c6.39,3.21,10.31-2.97,10.35-3.03l0.07-0.11l-0.12-0.05C110.8,70.97,107.77,77.24,107.74,77.31"/>
	
		<path style="clip-path:url(#SVGID_00000030453920007184219150000005949292338918910874_);fill-rule:evenodd;clip-rule:evenodd;fill:#81B917;" d="
		M115.35,80.09c0,0-6.06,3.98-10.5-1.67C104.85,78.42,110.11,73.99,115.35,80.09"/>
	
		<path style="clip-path:url(#SVGID_00000030453920007184219150000005949292338918910874_);fill-rule:evenodd;clip-rule:evenodd;fill:#804A06;" d="
		M115.17,80.07c-0.57,0.35-6.03,3.46-10.15-1.63C105.55,78.01,110.28,74.51,115.17,80.07 M104.77,78.34l-0.08,0.07l0.06,0.08
		c4.46,5.66,10.6,1.74,10.66,1.7l0.11-0.07l-0.08-0.1C110.18,73.91,104.82,78.29,104.77,78.34"/>
	
		<path style="clip-path:url(#SVGID_00000030453920007184219150000005949292338918910874_);fill-rule:evenodd;clip-rule:evenodd;fill:#008A55;" d="
		M112.86,71.9c0,0-2.27,6.95-9.21,5.4C103.65,77.3,105.01,70.49,112.86,71.9"/>
	
		<path style="clip-path:url(#SVGID_00000030453920007184219150000005949292338918910874_);fill-rule:evenodd;clip-rule:evenodd;fill:#804A06;" d="
		M112.71,72c-0.27,0.74-2.64,6.53-8.92,5.21C103.96,76.46,105.51,70.79,112.71,72 M103.54,77.28l-0.02,0.11l0.1,0.02
		c6.97,1.56,9.32-5.4,9.35-5.47l0.04-0.12l-0.13-0.02C105.02,70.38,103.55,77.21,103.54,77.28"/>
	
		<path style="clip-path:url(#SVGID_00000030453920007184219150000005949292338918910874_);fill-rule:evenodd;clip-rule:evenodd;fill:#81B917;" d="
		M107.64,65.79c0,0,1.36,7.19-5.44,9.27C102.19,75.06,100.11,68.44,107.64,65.79"/>
	
		<path style="clip-path:url(#SVGID_00000030453920007184219150000005949292338918910874_);fill-rule:evenodd;clip-rule:evenodd;fill:#804A06;" d="
		M102.02,72.97c0-2.11,0.86-5.32,5.52-7.02c0.03,0.16,0.08,0.58,0.08,1.26c0,2.16-0.67,6.19-5.36,7.69
		C102.2,74.7,102.02,74,102.02,72.97 M107.6,65.68c-7.55,2.66-5.54,9.35-5.52,9.41l0.03,0.11l0.11-0.03
		c6.83-2.09,5.54-9.33,5.53-9.4l-0.02-0.12L107.6,65.68z"/>
	
		<path style="clip-path:url(#SVGID_00000030453920007184219150000005949292338918910874_);fill-rule:evenodd;clip-rule:evenodd;fill:#81B917;" d="
		M99.4,63.14c0,0,4.65,5.59-0.27,10.79C99.12,73.94,94.11,69.2,99.4,63.14"/>
	
		<path style="clip-path:url(#SVGID_00000030453920007184219150000005949292338918910874_);fill-rule:evenodd;clip-rule:evenodd;fill:#804A06;" d="
		M97.07,68.83c0-1.59,0.59-3.46,2.33-5.5c0.25,0.31,1.86,2.48,1.86,5.32c0,1.59-0.54,3.38-2.14,5.12
		C98.81,73.47,97.07,71.63,97.07,68.83 M99.31,63.07c-5.29,6.06-0.32,10.9-0.27,10.95l0.08,0.08l0.08-0.08
		c4.93-5.22,0.33-10.89,0.28-10.95l-0.08-0.1L99.31,63.07z"/>
	
		<path style="clip-path:url(#SVGID_00000030453920007184219150000005949292338918910874_);fill-rule:evenodd;clip-rule:evenodd;fill:#81B917;" d="
		M91.44,65.54c0,0,6.61,2.94,4.43,9.82C95.87,75.37,89.31,73.34,91.44,65.54"/>
	
		<path style="clip-path:url(#SVGID_00000030453920007184219150000005949292338918910874_);fill-rule:evenodd;clip-rule:evenodd;fill:#804A06;" d="
		M91.11,68.51c0-0.83,0.14-1.77,0.41-2.8c0.65,0.32,4.66,2.5,4.66,6.99c0,0.77-0.14,1.61-0.41,2.51
		C95.13,74.99,91.11,73.41,91.11,68.51 M91.32,65.51c-2.12,7.81,4.44,9.94,4.5,9.96l0.11,0.03l0.04-0.11
		c2.18-6.9-4.42-9.93-4.49-9.96l-0.12-0.05L91.32,65.51z"/>
	
		<path style="clip-path:url(#SVGID_00000030453920007184219150000005949292338918910874_);fill-rule:evenodd;clip-rule:evenodd;fill:#008A55;" d="
		M106.25,81.94c0,0,7.4-4.41,12.12,2.11C118.37,84.05,111.85,89.01,106.25,81.94"/>
	
		<path style="clip-path:url(#SVGID_00000030453920007184219150000005949292338918910874_);fill-rule:evenodd;clip-rule:evenodd;fill:#804A06;" d="
		M118.19,84.02c-0.5,0.36-6.53,4.42-11.76-2.05C107.04,81.62,113.78,78.07,118.19,84.02 M106.19,81.84l-0.11,0.07l0.08,0.1
		c5.6,7.08,12.21,2.18,12.28,2.13l0.09-0.07l-0.07-0.09C113.74,77.45,106.26,81.79,106.19,81.84"/>
	
		<path style="clip-path:url(#SVGID_00000030453920007184219150000005949292338918910874_);fill-rule:evenodd;clip-rule:evenodd;fill:#81B917;" d="
		M102.65,81.31c0,0,8.42-1.69,10.77,6.05C113.42,87.36,105.65,89.86,102.65,81.31"/>
	
		<path style="clip-path:url(#SVGID_00000030453920007184219150000005949292338918910874_);fill-rule:evenodd;clip-rule:evenodd;fill:#804A06;" d="
		M113.27,87.28c-0.8,0.22-7.65,1.85-10.46-5.89C103.48,81.28,111.02,80.16,113.27,87.28 M102.63,81.2l-0.12,0.03l0.04,0.12
		c3,8.55,10.83,6.15,10.91,6.12l0.11-0.04l-0.04-0.1C111.18,79.58,102.71,81.18,102.63,81.2"/>
	
		<path style="clip-path:url(#SVGID_00000030453920007184219150000005949292338918910874_);fill-rule:evenodd;clip-rule:evenodd;fill:#81B917;" d="
		M109.12,72.17c0,0-0.27,8.03-7.52,8.55C101.61,80.71,101.04,73.1,109.12,72.17"/>
	
		<path style="clip-path:url(#SVGID_00000030453920007184219150000005949292338918910874_);fill-rule:evenodd;clip-rule:evenodd;fill:#804A06;" d="
		M101.7,80.33c0-1.53,0.48-7.14,7.29-8.02c-0.05,0.77-0.69,7.71-7.28,8.27C101.71,80.51,101.7,80.46,101.7,80.33 M109.1,72.05
		c-8.09,0.94-7.62,8.59-7.61,8.67l0.01,0.11l0.11-0.01c7.27-0.52,7.61-8.57,7.62-8.65l0-0.13L109.1,72.05z"/>
	
		<path style="clip-path:url(#SVGID_00000030453920007184219150000005949292338918910874_);fill-rule:evenodd;clip-rule:evenodd;fill:#008A55;" d="
		M101.92,81.41c0,0,6.84-5.28,12.28,0.63C114.21,82.04,108.31,87.75,101.92,81.41"/>
	
		<path style="clip-path:url(#SVGID_00000030453920007184219150000005949292338918910874_);fill-rule:evenodd;clip-rule:evenodd;fill:#804A06;" d="
		M114.04,82.03c-0.42,0.38-5.94,5.21-11.93-0.61C102.63,81.04,108.93,76.62,114.04,82.03 M101.85,81.32l-0.1,0.08l0.09,0.09
		c6.39,6.35,12.38,0.68,12.44,0.62l0.08-0.08l-0.08-0.08C108.84,76.04,101.92,81.27,101.85,81.32"/>
	
		<path style="clip-path:url(#SVGID_00000030453920007184219150000005949292338918910874_);fill-rule:evenodd;clip-rule:evenodd;fill:#008A55;" d="
		M85.56,71.31c0,0,7.14-0.91,8.75,6.12C94.31,77.43,87.67,79.11,85.56,71.31"/>
	
		<path style="clip-path:url(#SVGID_00000030453920007184219150000005949292338918910874_);fill-rule:evenodd;clip-rule:evenodd;fill:#804A06;" d="
		M94.16,77.35c-0.66,0.15-6.42,1.23-8.45-5.94C86.57,71.34,92.65,71.08,94.16,77.35 M85.54,71.2l-0.12,0.02l0.03,0.12
		c2.13,7.82,8.82,6.22,8.89,6.2l0.11-0.03l-0.03-0.11C92.81,70.36,85.62,71.19,85.54,71.2"/>
	
		<path style="clip-path:url(#SVGID_00000030453920007184219150000005949292338918910874_);fill-rule:evenodd;clip-rule:evenodd;fill:#81B917;" d="
		M104.2,67.48c0,0,1.86,7.07-4.79,9.64C99.41,77.12,96.88,70.67,104.2,67.48"/>
	
		<path style="clip-path:url(#SVGID_00000030453920007184219150000005949292338918910874_);fill-rule:evenodd;clip-rule:evenodd;fill:#804A06;" d="
		M99.08,74.52c0-2.09,0.89-4.99,5.04-6.86c0.05,0.19,0.2,0.89,0.2,1.97c0,2.25-0.74,5.7-4.84,7.34
		C99.37,76.69,99.08,75.77,99.08,74.52 M104.15,67.38c-7.34,3.2-4.87,9.73-4.85,9.79l0.04,0.1l0.11-0.04
		c6.66-2.58,4.87-9.71,4.86-9.78l-0.04-0.12L104.15,67.38z"/>
	
		<path style="clip-path:url(#SVGID_00000030453920007184219150000005949292338918910874_);fill-rule:evenodd;clip-rule:evenodd;fill:#008A55;" d="
		M98.21,68.98c0,0,3.68,6.29-2.04,10.6C96.17,79.58,92.01,74.07,98.21,68.98"/>
	
		<path style="clip-path:url(#SVGID_00000030453920007184219150000005949292338918910874_);fill-rule:evenodd;clip-rule:evenodd;fill:#804A06;" d="
		M94.89,75.27c0-1.81,0.75-3.98,3.28-6.11c0.19,0.34,1.07,2.08,1.07,4.32c0,1.9-0.69,4.1-3.05,5.93
		C95.96,79.09,94.89,77.49,94.89,75.27 M98.14,68.89c-6.22,5.1-2.1,10.71-2.05,10.76l0.07,0.09l0.09-0.07
		c5.73-4.32,2.11-10.69,2.07-10.75l-0.07-0.11L98.14,68.89z"/>
	
		<path style="clip-path:url(#SVGID_00000030453920007184219150000005949292338918910874_);fill-rule:evenodd;clip-rule:evenodd;fill:#008A55;" d="
		M102.16,75.1c0,0,0.19,7.32-6.87,8.25C95.29,83.34,94.31,76.47,102.16,75.1"/>
	
		<path style="clip-path:url(#SVGID_00000030453920007184219150000005949292338918910874_);fill-rule:evenodd;clip-rule:evenodd;fill:#804A06;" d="
		M95.36,82.54c0-1.81,0.65-6.18,6.68-7.3c-0.01,0.85-0.34,7.05-6.64,7.96C95.37,83.07,95.36,82.87,95.36,82.54 M102.13,74.98
		c-7.86,1.37-6.96,8.3-6.95,8.37l0.01,0.11l0.11-0.02c7.07-0.93,6.96-8.28,6.96-8.36l0-0.13L102.13,74.98z"/>
	
		<path style="clip-path:url(#SVGID_00000030453920007184219150000005949292338918910874_);fill-rule:evenodd;clip-rule:evenodd;fill:#81B917;" d="
		M93.39,79.9c0,0,6.84,2.31,5.29,9.37C98.68,89.26,91.99,87.86,93.39,79.9"/>
	
		<path style="clip-path:url(#SVGID_00000030453920007184219150000005949292338918910874_);fill-rule:evenodd;clip-rule:evenodd;fill:#804A06;" d="
		M93.31,82.01c0-0.6,0.07-1.26,0.18-1.96c0.67,0.26,5.31,2.22,5.31,7.23c0,0.57-0.07,1.19-0.21,1.84
		C97.92,88.96,93.31,87.65,93.31,82.01 M93.28,79.87c-1.4,7.98,5.31,9.48,5.38,9.5l0.11,0.02l0.03-0.11c1.54-7.07-5.3-9.48-5.37-9.5
		l-0.12-0.04L93.28,79.87z"/>
	
		<path style="clip-path:url(#SVGID_00000030453920007184219150000005949292338918910874_);fill-rule:evenodd;clip-rule:evenodd;fill:#81B917;" d="
		M96.66,78.2c0,0-3.86,7.48-11.72,4.29C84.94,82.49,87.71,74.99,96.66,78.2"/>
	
		<path style="clip-path:url(#SVGID_00000030453920007184219150000005949292338918910874_);fill-rule:evenodd;clip-rule:evenodd;fill:#804A06;" d="
		M96.49,78.27c-0.42,0.75-4.21,6.98-11.4,4.15C85.39,81.64,88.2,75.38,96.49,78.27 M84.83,82.45l-0.04,0.1l0.1,0.04
		c7.87,3.19,11.83-4.26,11.86-4.34l0.06-0.11l-0.12-0.04C87.75,74.89,84.85,82.37,84.83,82.45"/>
	
		<path style="clip-path:url(#SVGID_00000030453920007184219150000005949292338918910874_);fill-rule:evenodd;clip-rule:evenodd;fill:#008A55;" d="
		M99.21,112.34c-15.37,0-27.84-12.67-27.84-28.29c0-15.62,12.47-28.29,27.84-28.29c15.37,0,27.83,12.67,27.83,28.29
		C127.04,99.68,114.58,112.34,99.21,112.34 M99.21,51.66c-17.61,0-31.87,14.49-31.87,32.39c0,17.89,14.27,32.4,31.87,32.4
		s31.88-14.5,31.88-32.4C131.09,66.15,116.82,51.66,99.21,51.66"/>
</g>
</svg>
