<?xml version="1.0" encoding="utf-8"?>
<!-- Generator: Adobe Illustrator 28.0.0, SVG Export Plug-In . SVG Version: 6.00 Build 0)  -->
<svg version="1.1" id="Layer_1" xmlns="http://www.w3.org/2000/svg" xmlns:xlink="http://www.w3.org/1999/xlink" x="0px" y="0px"
	 viewBox="0 0 198.43 198.43" style="enable-background:new 0 0 198.43 198.43;" xml:space="preserve">
<style type="text/css">
	.st0{fill:#496E6E;}
	
		.st1{clip-path:url(#SVGID_00000107566211173653813610000000826450161330397341_);fill-rule:evenodd;clip-rule:evenodd;fill:#FFF200;}
</style>
<rect x="14.17" y="63.64" class="st0" width="170.08" height="71.14"/>
<g>
	<defs>
		<rect id="SVGID_1_" x="14.17" y="63.64" width="170.08" height="71.14"/>
	</defs>
	<clipPath id="SVGID_00000058573637263034232120000009100165366114165153_">
		<use xlink:href="#SVGID_1_"  style="overflow:visible;"/>
	</clipPath>
	
		<path style="clip-path:url(#SVGID_00000058573637263034232120000009100165366114165153_);fill-rule:evenodd;clip-rule:evenodd;fill:#FFF200;" d="
		M169.26,104.61c2.39,0,4.37,0.77,5.94,2.31c1.62,1.58,2.43,3.61,2.43,6.09c0,2.48-0.81,4.52-2.43,6.09
		c-1.58,1.54-3.56,2.31-5.94,2.31c-2.52,0-4.58-0.84-6.17-2.52c-1.48-1.59-2.23-3.5-2.23-5.74c0-2.48,0.78-4.51,2.33-6.1
		C164.76,105.42,166.78,104.61,169.26,104.61 M169.26,120.61c1.77,0,2.98-1.05,3.65-3.15c0.35-1.14,0.53-2.62,0.53-4.45
		c0-2.51-0.37-4.41-1.13-5.69c-0.75-1.28-1.77-1.91-3.05-1.91c-1.78,0-3,1.06-3.67,3.19c-0.35,1.13-0.52,2.6-0.52,4.41
		c0,1.84,0.18,3.32,0.53,4.45C166.26,119.56,167.48,120.61,169.26,120.61 M149.33,112.79c1.54-0.02,2.65-0.24,3.31-0.65
		c0.67-0.41,1-1.36,1-2.85c0-0.91-0.13-1.64-0.38-2.17c-0.44-0.9-1.24-1.35-2.4-1.35c-0.63,0-1.04,0.08-1.24,0.24
		c-0.19,0.16-0.29,0.41-0.29,0.78V112.79z M143.43,120.33c0.8-0.04,1.34-0.19,1.64-0.45c0.29-0.26,0.44-0.83,0.44-1.7v-10.44
		c0-0.91-0.17-1.51-0.52-1.79c-0.23-0.19-0.75-0.31-1.56-0.38v-0.6h7.6c1.58,0,2.85,0.17,3.83,0.5c1.89,0.67,2.84,1.87,2.84,3.61
		c0,1.28-0.47,2.3-1.42,3.04c-0.72,0.55-1.49,0.91-2.3,1.06l4.75,6.72c0.13,0.19,0.27,0.31,0.42,0.37c0.15,0.06,0.33,0.09,0.54,0.11
		v0.57h-4.84l-4.9-7.38h-0.62v4.63c0,0.83,0.14,1.39,0.41,1.68c0.28,0.29,0.83,0.45,1.66,0.48v0.6h-7.98V120.33z M127.69,120.93
		v-0.6c0.68-0.02,1.16-0.12,1.44-0.28c0.44-0.24,0.66-0.7,0.66-1.38v-11.43c0-0.69-0.23-1.15-0.68-1.39
		c-0.26-0.15-0.73-0.24-1.42-0.28v-0.6h13.61v4.76h-0.58c-0.3-1.52-0.81-2.56-1.53-3.13c-0.72-0.56-2.03-0.84-3.93-0.84
		c-0.72,0-1.18,0.08-1.38,0.23c-0.19,0.15-0.29,0.44-0.29,0.89v5.47c1.34,0.02,2.26-0.23,2.73-0.73c0.48-0.5,0.84-1.43,1.09-2.76
		h0.6v7.98h-0.6c-0.17-1.35-0.51-2.3-1.03-2.84c-0.52-0.55-1.45-0.83-2.8-0.83v5.72c0,0.5,0.13,0.84,0.39,1.02
		c0.26,0.18,0.79,0.27,1.59,0.27c1.5,0,2.74-0.3,3.69-0.88c0.95-0.59,1.8-1.68,2.54-3.29h0.66l-0.96,4.91H127.69z M110.64,120.33
		c0.87-0.02,1.44-0.19,1.69-0.5c0.26-0.31,0.38-0.77,0.38-1.38v-11.19c-0.72-0.81-1.17-1.28-1.34-1.42
		c-0.17-0.15-0.4-0.24-0.69-0.27v-0.6h5.01l8.12,9.96h0.12v-7.03c0-0.8-0.15-1.37-0.44-1.71c-0.29-0.34-0.87-0.55-1.75-0.61v-0.6
		h5.09v0.6c-0.74,0.12-1.23,0.29-1.48,0.5c-0.25,0.2-0.38,0.67-0.38,1.39v13.91h-0.66l-10.39-12.63h-0.16v9.28
		c0,0.72,0.1,1.23,0.3,1.53c0.31,0.48,0.96,0.75,1.94,0.79v0.6h-5.35V120.33z M99.49,112.79c1.54-0.02,2.65-0.24,3.32-0.65
		c0.67-0.41,1-1.36,1-2.85c0-0.91-0.13-1.64-0.38-2.17c-0.44-0.9-1.24-1.35-2.4-1.35c-0.63,0-1.04,0.08-1.24,0.24
		c-0.19,0.16-0.29,0.41-0.29,0.78V112.79z M93.58,120.33c0.8-0.04,1.34-0.19,1.64-0.45c0.29-0.26,0.44-0.83,0.44-1.7v-10.44
		c0-0.91-0.17-1.51-0.52-1.79c-0.23-0.19-0.75-0.31-1.56-0.38v-0.6h7.6c1.58,0,2.85,0.17,3.83,0.5c1.89,0.67,2.84,1.87,2.84,3.61
		c0,1.28-0.47,2.3-1.42,3.04c-0.72,0.55-1.49,0.91-2.3,1.06l4.75,6.72c0.13,0.19,0.27,0.31,0.42,0.37c0.15,0.06,0.33,0.09,0.54,0.11
		v0.57h-4.84l-4.9-7.38h-0.62v4.63c0,0.83,0.14,1.39,0.41,1.68c0.28,0.29,0.83,0.45,1.66,0.48v0.6h-7.98V120.33z M84,104.61
		c2.39,0,4.37,0.77,5.94,2.31c1.62,1.58,2.43,3.61,2.43,6.09c0,2.48-0.81,4.52-2.43,6.09c-1.58,1.54-3.56,2.31-5.94,2.31
		c-2.52,0-4.58-0.84-6.17-2.52c-1.48-1.59-2.23-3.5-2.23-5.74c0-2.48,0.78-4.51,2.33-6.1C79.5,105.42,81.52,104.61,84,104.61
		 M84,120.61c1.77,0,2.98-1.05,3.65-3.15c0.35-1.14,0.53-2.62,0.53-4.45c0-2.51-0.37-4.41-1.13-5.69c-0.75-1.28-1.77-1.91-3.05-1.91
		c-1.78,0-3,1.06-3.67,3.19c-0.35,1.13-0.52,2.6-0.52,4.41c0,1.84,0.18,3.32,0.53,4.45C81,119.56,82.22,120.61,84,120.61
		 M56.91,120.33c0.63-0.03,1.08-0.12,1.34-0.27c0.44-0.24,0.66-0.71,0.66-1.39v-11.43c0-0.67-0.2-1.12-0.59-1.36
		c-0.24-0.14-0.71-0.24-1.41-0.31v-0.6h8v0.6c-0.69,0.04-1.17,0.13-1.45,0.28c-0.44,0.24-0.67,0.71-0.67,1.39v4.89h5.63v-4.89
		c0-0.68-0.21-1.15-0.63-1.38c-0.26-0.15-0.75-0.24-1.46-0.29v-0.6h8.04v0.6c-0.69,0.05-1.17,0.15-1.42,0.3
		c-0.43,0.24-0.63,0.7-0.63,1.37v11.43c0,0.69,0.23,1.16,0.7,1.41c0.27,0.15,0.72,0.23,1.35,0.26v0.6h-8.04v-0.6
		c0.68-0.02,1.16-0.12,1.44-0.28c0.44-0.24,0.66-0.7,0.66-1.38v-5.45H62.8v5.45c0,0.7,0.24,1.17,0.71,1.42
		c0.28,0.14,0.74,0.22,1.4,0.24v0.6h-8V120.33z M36.57,120.33c0.65-0.02,1.11-0.11,1.39-0.26c0.47-0.24,0.7-0.71,0.7-1.41v-11.43
		c0-0.69-0.22-1.15-0.67-1.39c-0.26-0.15-0.74-0.24-1.42-0.28v-0.6h8.26v0.6c-0.96,0.03-1.6,0.17-1.92,0.4
		c-0.32,0.24-0.48,0.83-0.48,1.76v11.15c0,0.52,0.13,0.87,0.41,1.04c0.27,0.17,0.8,0.26,1.59,0.26c1.42,0,2.62-0.31,3.58-0.94
		c0.96-0.63,1.8-1.85,2.5-3.66h0.69l-0.96,5.35H36.57V120.33z M20.79,120.93v-0.6c0.68-0.02,1.16-0.12,1.44-0.28
		c0.44-0.24,0.66-0.7,0.66-1.38v-11.43c0-0.69-0.23-1.15-0.68-1.39c-0.26-0.15-0.73-0.24-1.42-0.28v-0.6H34.4v4.76h-0.58
		c-0.3-1.52-0.81-2.56-1.53-3.13c-0.72-0.56-2.03-0.84-3.93-0.84c-0.72,0-1.18,0.08-1.38,0.23c-0.19,0.15-0.29,0.44-0.29,0.89v5.47
		c1.34,0.02,2.26-0.23,2.73-0.73c0.48-0.5,0.84-1.43,1.09-2.76h0.6v7.98h-0.6c-0.17-1.35-0.51-2.3-1.03-2.84
		c-0.52-0.55-1.45-0.83-2.8-0.83v5.72c0,0.5,0.13,0.84,0.39,1.02c0.26,0.18,0.79,0.27,1.59,0.27c1.5,0,2.74-0.3,3.69-0.88
		c0.95-0.59,1.8-1.68,2.54-3.29h0.66l-0.96,4.91H20.79z"/>
	
		<path style="clip-path:url(#SVGID_00000058573637263034232120000009100165366114165153_);fill-rule:evenodd;clip-rule:evenodd;fill:#FFF200;" d="
		M139.72,90.83c0.57-0.04,1.03-0.3,1.37-0.78c0.22-0.3,0.54-0.96,0.96-1.98l5.25-12.93h0.66l5.27,12.41
		c0.59,1.39,1.04,2.29,1.33,2.69c0.29,0.4,0.71,0.6,1.24,0.58v0.6h-7.65v-0.6c0.77-0.03,1.28-0.1,1.52-0.2
		c0.24-0.1,0.37-0.35,0.37-0.76c0-0.18-0.06-0.46-0.18-0.84c-0.08-0.22-0.18-0.49-0.31-0.81l-0.6-1.43h-5.3
		c-0.35,0.94-0.57,1.55-0.67,1.83c-0.21,0.61-0.31,1.05-0.31,1.33c0,0.34,0.22,0.58,0.68,0.74c0.27,0.09,0.67,0.13,1.21,0.14v0.6
		h-4.82V90.83z M148.58,85.86l-2.26-5.47h-0.2l-2.13,5.47H148.58z M130.49,90.83c0.67-0.02,1.15-0.1,1.44-0.24
		c0.48-0.24,0.72-0.72,0.72-1.42V77.73c0-0.7-0.23-1.17-0.68-1.41c-0.28-0.15-0.77-0.24-1.48-0.26v-0.6h8.26v0.6
		c-0.74,0.03-1.24,0.11-1.52,0.25c-0.46,0.24-0.69,0.71-0.69,1.42v11.43c0,0.66,0.19,1.1,0.55,1.33c0.37,0.22,0.93,0.33,1.66,0.33
		v0.6h-8.26V90.83z M119.33,83.29c1.54-0.02,2.65-0.24,3.32-0.65c0.67-0.41,1-1.36,1-2.85c0-0.91-0.13-1.64-0.38-2.17
		c-0.44-0.9-1.24-1.35-2.4-1.35c-0.63,0-1.04,0.08-1.24,0.24c-0.19,0.16-0.29,0.41-0.29,0.78V83.29z M113.43,90.83
		c0.8-0.04,1.34-0.19,1.64-0.45c0.29-0.26,0.44-0.83,0.44-1.7V78.23c0-0.91-0.17-1.51-0.52-1.79c-0.23-0.19-0.75-0.31-1.56-0.38
		v-0.6h7.6c1.58,0,2.85,0.17,3.83,0.5c1.89,0.67,2.84,1.87,2.84,3.61c0,1.28-0.47,2.3-1.42,3.04c-0.72,0.55-1.49,0.91-2.3,1.06
		l4.75,6.72c0.13,0.19,0.27,0.31,0.42,0.37c0.15,0.06,0.33,0.09,0.54,0.11v0.57h-4.84l-4.9-7.38h-0.62v4.63
		c0,0.83,0.14,1.39,0.41,1.68c0.28,0.29,0.83,0.45,1.66,0.48v0.6h-7.98V90.83z M97.69,91.43v-0.6c0.68-0.02,1.16-0.12,1.44-0.28
		c0.44-0.24,0.66-0.7,0.66-1.38V77.73c0-0.69-0.23-1.15-0.68-1.39c-0.26-0.15-0.73-0.24-1.42-0.28v-0.6h13.61v4.76h-0.58
		c-0.3-1.52-0.81-2.56-1.53-3.13c-0.72-0.56-2.03-0.84-3.93-0.84c-0.72,0-1.18,0.08-1.38,0.23c-0.19,0.15-0.29,0.44-0.29,0.89v5.47
		c1.34,0.02,2.26-0.23,2.73-0.73c0.48-0.5,0.84-1.43,1.09-2.76h0.6v7.98h-0.6c-0.17-1.35-0.51-2.3-1.03-2.84
		c-0.52-0.55-1.45-0.83-2.8-0.83v5.72c0,0.5,0.13,0.84,0.39,1.02c0.26,0.18,0.79,0.27,1.59,0.27c1.5,0,2.74-0.3,3.69-0.88
		c0.95-0.59,1.8-1.68,2.54-3.29h0.66l-0.96,4.91H97.69z M82.22,91.05l9.03-14.77c-1.78,0-2.85,0.02-3.19,0.06
		c-0.34,0.03-0.66,0.08-0.94,0.14c-1,0.2-1.78,0.68-2.35,1.43c-0.34,0.46-0.72,1.26-1.15,2.43h-0.66l0.5-4.87h12.39v0.38
		l-8.97,14.77c3.2,0,5.37-0.25,6.49-0.74c1.12-0.49,1.97-1.87,2.57-4.13h0.62l-0.62,5.69H82.22V91.05z M66.49,91.05l9.03-14.77
		c-1.78,0-2.85,0.02-3.19,0.06c-0.34,0.03-0.66,0.08-0.94,0.14c-1,0.2-1.78,0.68-2.35,1.43c-0.34,0.46-0.72,1.26-1.15,2.43h-0.66
		l0.5-4.87h12.39v0.38l-8.97,14.77c3.2,0,5.37-0.25,6.49-0.74c1.12-0.49,1.97-1.87,2.57-4.13h0.62l-0.62,5.69H66.49V91.05z
		 M57.04,90.83c0.67-0.02,1.15-0.1,1.44-0.24c0.48-0.24,0.72-0.72,0.72-1.42V77.73c0-0.7-0.23-1.17-0.68-1.41
		c-0.28-0.15-0.77-0.24-1.48-0.26v-0.6h8.26v0.6c-0.74,0.03-1.24,0.11-1.52,0.25c-0.46,0.24-0.69,0.71-0.69,1.42v11.43
		c0,0.66,0.19,1.1,0.55,1.33c0.37,0.22,0.93,0.33,1.66,0.33v0.6h-8.26V90.83z M42.63,90.83c0.78-0.06,1.3-0.22,1.56-0.49
		c0.26-0.27,0.4-0.83,0.4-1.67V78.23c0-0.89-0.13-1.45-0.41-1.69c-0.27-0.23-0.79-0.39-1.56-0.48v-0.6h7.6
		c2.02,0,3.55,0.33,4.6,0.98c1.05,0.65,1.57,1.78,1.57,3.37c0,0.78-0.21,1.5-0.62,2.19c-0.41,0.68-1.09,1.23-2.04,1.64
		c-0.72,0.3-1.43,0.47-2.15,0.53c-0.72,0.06-1.78,0.09-3.19,0.09v4.41c0,0.87,0.15,1.44,0.44,1.7c0.29,0.27,0.84,0.42,1.64,0.45v0.6
		h-7.87V90.83z M48.41,83.45c1.41-0.02,2.35-0.19,2.82-0.48c0.75-0.48,1.12-1.5,1.12-3.08c0-1.07-0.18-1.95-0.54-2.61
		c-0.36-0.66-1.06-0.99-2.08-0.99c-0.47,0-0.8,0.06-1.01,0.17c-0.2,0.11-0.31,0.33-0.31,0.65V83.45z"/>
</g>
</svg>
