<?xml version="1.0" encoding="utf-8"?>
<!-- Generator: Adobe Illustrator 28.0.0, SVG Export Plug-In . SVG Version: 6.00 Build 0)  -->
<svg version="1.1" id="Layer_1" xmlns="http://www.w3.org/2000/svg" xmlns:xlink="http://www.w3.org/1999/xlink" x="0px" y="0px"
	 viewBox="0 0 198.43 198.43" style="enable-background:new 0 0 198.43 198.43;" xml:space="preserve">
<style type="text/css">
	.st0{fill-rule:evenodd;clip-rule:evenodd;fill:#010101;}
</style>
<g>
	<polygon class="st0" points="28.63,108.16 14.17,108.16 18.33,84.62 32.96,84.62 32.28,88.35 21.89,88.35 20.95,93.66 28.41,93.66 
		27.78,97.26 20.32,97.26 19.06,104.42 29.29,104.42 	"/>
	<g>
		<path class="st0" d="M38.61,108.46H38.2c-4.5,0-5.44-2.26-5.44-4.15c0-0.78,0.25-2.42,0.78-5.04l3.04-15.35h4.05l-2.95,14.64
			c-0.57,2.87-0.86,4.68-0.86,5.39c0,0.69,0.2,1.39,1.71,1.39h0.58L38.61,108.46z"/>
		<path class="st0" d="M86.1,108.17H82l1.83-10.18c0.15-0.82,0.23-1.51,0.23-2.04c0-1.48-0.7-2.14-2.25-2.14
			c-0.61,0-1.29,0.19-2.02,0.56c-0.69,0.35-1.25,0.78-1.68,1.25l-2.19,12.54h-3.93l2.32-13.09c0.05-0.26,0.07-0.57,0.07-0.94
			c0-1.01-0.11-1.88-0.31-2.59l-0.14-0.51l3.83-0.75l0.1,0.48c0.11,0.62,0.2,1.09,0.26,1.44c1.28-1.22,3.01-1.84,5.09-1.84
			c3.25,0,4.96,1.75,4.96,5.05c0,0.64-0.08,1.35-0.21,2.13L86.1,108.17z"/>
		<polygon class="st0" points="94.75,108.16 90.78,108.16 93.28,94.12 91.06,94.12 91.82,90.73 97.84,90.73 		"/>
		<path class="st0" d="M96.09,89.28c-0.7,0-1.29-0.24-1.79-0.73c-0.49-0.49-0.74-1.1-0.74-1.8c0-0.71,0.25-1.32,0.74-1.81
			c0.5-0.49,1.09-0.73,1.79-0.73c0.71,0,1.31,0.24,1.8,0.73c0.5,0.49,0.75,1.1,0.75,1.81c0,0.7-0.25,1.31-0.75,1.8
			C97.4,89.04,96.8,89.28,96.09,89.28"/>
		<path class="st0" d="M97.31,114.51l-0.39-2.73l0.45-0.09c0.51-0.11,1.05-0.48,1.63-1.1c0.58-0.64,0.94-1.28,1.05-1.91l2.64-15
			h-2.34l0.51-3h2.29c1-4.49,3.42-6.76,7.2-6.76c0.94,0,1.74,0.17,2.41,0.52l0.34,0.17l-0.78,3.18l-0.51-0.19
			c-0.73-0.27-1.28-0.4-1.66-0.4c-1.49,0-2.47,1.14-2.98,3.48h3.79l-0.36,3h-3.9l-2.54,15.16c-0.27,1.57-1,2.86-2.17,3.84
			c-1.17,0.97-2.58,1.56-4.22,1.77L97.31,114.51z"/>
		<path class="st0" d="M118.99,93.73L118.99,93.73c-1.06,0-1.97,0.37-2.79,1.14c-0.83,0.78-1.45,1.79-1.82,3.02
			c-0.38,1.26-0.58,2.46-0.58,3.53c0,3.31,1.72,3.69,3.02,3.69c1.57,0,2.79-0.76,3.72-2.3c0.97-1.6,1.47-3.48,1.47-5.59
			C122.02,94.84,121.05,93.73,118.99,93.73 M116.39,108.47c-2.11,0-3.77-0.61-4.92-1.83c-1.14-1.2-1.71-2.89-1.71-5.04
			c0-3.05,0.9-5.71,2.69-7.9c1.83-2.21,4.16-3.33,6.97-3.33c2.13,0,3.79,0.59,4.94,1.77c1.15,1.17,1.72,2.83,1.72,4.95
			c0,1.64-0.33,3.36-0.98,5.1c-0.65,1.78-1.75,3.28-3.25,4.47C120.34,107.86,118.5,108.47,116.39,108.47"/>
		<path class="st0" d="M131.76,108.17h-3.92l3.07-17.48h3.92l-0.26,1.49c1.28-1.2,2.8-1.8,4.52-1.8c0.38,0,0.96,0.07,1.76,0.22
			l0.52,0.1l-1.17,4.21l-0.57-0.46c-0.53-0.43-1.14-0.64-1.86-0.64c-0.91,0-1.77,0.43-2.63,1.31c-0.87,0.88-1.42,1.95-1.64,3.19
			L131.76,108.17z"/>
		<path class="st0" d="M163.41,108.16h-3.98l1.94-11.02c0.07-0.38,0.11-0.75,0.11-1.11c0-1.53-0.69-2.22-2.25-2.22
			c-0.57,0-1.18,0.18-1.78,0.56c-0.57,0.35-1.02,0.79-1.33,1.27l-2.22,12.52h-3.98l2.18-12.3c0.02-0.14,0.03-0.28,0.03-0.39
			c0-0.78-0.27-1.66-2.42-1.66c-0.49,0-1.06,0.2-1.69,0.6c-0.62,0.39-1.1,0.81-1.45,1.27l-2.21,12.47h-3.96l2.22-12.61
			c0.06-0.33,0.09-0.78,0.09-1.37c0-1.09-0.1-1.97-0.29-2.63l-0.15-0.52l3.83-0.72l0.11,0.45c0.1,0.38,0.16,0.76,0.22,1.11
			c0.42-0.34,0.91-0.64,1.5-0.88c1.01-0.41,2.07-0.62,3.15-0.62c2.2,0,3.75,0.62,4.63,1.86c0.48-0.47,1.1-0.86,1.86-1.2
			c1.02-0.44,2.06-0.66,3.06-0.66c3.25,0,4.97,1.65,4.97,4.77c0,0.5-0.05,1.02-0.14,1.58L163.41,108.16z"/>
		<path class="st0" d="M173.28,97.48L173.28,97.48c0.62,0.21,1.33,0.32,2.13,0.32c1.52,0,2.77-0.25,3.7-0.73
			c0.86-0.44,1.27-1.02,1.27-1.84c0-0.66-0.25-1.42-2.14-1.42C175.92,93.81,174.3,95.02,173.28,97.48 M175.33,108.47
			c-4.56,0-6.86-2.57-6.86-7.64c0-2.92,0.94-5.42,2.8-7.42c1.89-2.02,4.28-3.03,7.11-3.03c1.72,0,3.15,0.38,4.2,1.13
			c1.11,0.79,1.67,1.93,1.67,3.39c0,1.95-0.83,3.52-2.49,4.66c-1.61,1.09-3.58,1.64-5.88,1.64c-1.27,0-2.39-0.2-3.36-0.59
			c-0.02,0.24-0.04,0.47-0.04,0.7c0,1.23,0.33,2.13,1,2.78c0.67,0.64,1.61,0.96,2.85,0.96c1.1,0,2.24-0.42,3.38-1.24l0.89-0.64
			l-0.46,4.37l-0.3,0.11C178.16,108.19,176.64,108.47,175.33,108.47"/>
		<path class="st0" d="M59.08,108.52c-2.11,0-3.78-0.55-5-1.64c-1.24-1.11-1.85-2.59-1.81-4.41c0.01-0.56,0.08-1.18,0.19-1.81
			l3.1-16.08h4.07l-3.12,16.02c-0.07,0.32-0.1,0.61-0.11,0.88c-0.02,1.02,0.24,1.82,0.8,2.39c0.57,0.58,1.36,0.87,2.39,0.87
			c1.33,0,2.41-0.38,3.28-1.16c0.87-0.77,1.45-1.87,1.71-3.24l3.07-15.78h4.02l-3.13,16.27c-0.46,2.4-1.55,4.3-3.25,5.65
			C63.63,107.84,61.52,108.52,59.08,108.52"/>
	</g>
</g>
</svg>
