<?xml version="1.0" encoding="utf-8"?>
<!-- Generator: Adobe Illustrator 28.0.0, SVG Export Plug-In . SVG Version: 6.00 Build 0)  -->
<svg version="1.1" id="Layer_1" xmlns="http://www.w3.org/2000/svg" xmlns:xlink="http://www.w3.org/1999/xlink" x="0px" y="0px"
	 viewBox="0 0 198.43 198.43" style="enable-background:new 0 0 198.43 198.43;" xml:space="preserve">
<style type="text/css">
	.st0{fill:#003A65;}
</style>
<g>
	<g>
		<path class="st0" d="M105.47,63.6c-0.28-1.96-1.02-3.87-2.13-5.5c0.15-0.1,0.27-0.27,0.31-0.51c-0.24-0.03-0.43,0.04-0.57,0.15
			c-0.08-0.1-0.15-0.2-0.23-0.3c-1.39-1.75-3.15-2.98-5.03-3.52c-0.03-0.3-0.3-0.44-0.46-0.38c-0.09,0.03-0.17,0.1-0.19,0.22
			c-0.03-0.01-0.06-0.02-0.09-0.02c-0.11-0.1-0.24-0.17-0.44-0.19c-0.02,0.21,0.05,0.38,0.14,0.5v0.04c-0.14,0-0.22,0.06-0.27,0.15
			c-0.08,0.14,0.01,0.42,0.27,0.51v4.03c-0.16,0.01-0.33,0.07-0.48,0.22c0.15,0.15,0.32,0.21,0.48,0.22v4.36
			c-0.26,0.07-0.36,0.33-0.29,0.47c0.05,0.1,0.13,0.17,0.29,0.18v0.09c-0.07,0.11-0.12,0.25-0.12,0.41c0.16,0,0.29-0.04,0.39-0.11
			h0.12c0.01,0.15,0.08,0.23,0.18,0.27c0.14,0.08,0.4-0.02,0.47-0.27h2.91c0.01,0.17,0.07,0.34,0.23,0.51
			c0.15-0.16,0.22-0.34,0.22-0.51h3.32c0.06,0.29,0.34,0.39,0.49,0.31c0.1-0.05,0.17-0.14,0.17-0.31h0.07
			c0.11,0.08,0.26,0.13,0.44,0.13c-0.01-0.16-0.06-0.28-0.12-0.39c0-0.04-0.01-0.07-0.01-0.11c0.16-0.01,0.24-0.09,0.28-0.18
			C105.89,63.92,105.77,63.64,105.47,63.6 M102.64,57.61c1.52,1.92,2.45,4.31,2.64,6.76h-8.22V54.02
			C99.14,54.42,101.12,55.69,102.64,57.61"/>
		<path class="st0" d="M105.08,64.05c-0.24-2.3-1.15-4.55-2.57-6.34c-0.69-0.88-1.49-1.63-2.37-2.21c-0.87-0.59-1.8-1.01-2.75-1.23
			l-0.17-0.04v9.98h7.88L105.08,64.05z M102.19,57.74c-0.06,0.08-0.08,0.18-0.06,0.26c0.03,0.12,0.13,0.21,0.33,0.23
			c-0.13,0.1-0.23,0.26-0.26,0.47c0.22,0.03,0.4-0.03,0.53-0.12c-0.05,0.2,0.02,0.32,0.12,0.39c0.06,0.04,0.14,0.05,0.22,0.03
			c0.85,1.38,1.42,2.97,1.67,4.58c-0.1-0.06-0.23-0.09-0.37-0.09c0.01,0.18,0.07,0.32,0.15,0.44h-2.78
			c-0.01-0.15-0.09-0.26-0.19-0.29c-0.12-0.04-0.25-0.02-0.38,0.14c-0.01-0.16-0.07-0.34-0.22-0.5c-0.15,0.16-0.21,0.33-0.23,0.5
			c-0.13-0.16-0.26-0.18-0.38-0.14c-0.1,0.03-0.18,0.15-0.19,0.29H97.8c0.07-0.11,0.13-0.25,0.13-0.42c-0.18,0-0.32,0.06-0.43,0.13
			V59.8c0.16,0,0.3-0.08,0.34-0.19c0.04-0.12,0.02-0.25-0.14-0.38c0.17-0.01,0.34-0.07,0.5-0.22c-0.16-0.15-0.33-0.22-0.5-0.22
			c0.16-0.14,0.18-0.27,0.14-0.39c-0.04-0.11-0.18-0.19-0.34-0.19v-3.26c0.1,0.07,0.22,0.12,0.36,0.13
			c0.01-0.17-0.02-0.31-0.08-0.43C99.41,55.16,100.96,56.24,102.19,57.74"/>
		<path class="st0" d="M103.53,62.47v-0.01c0.15-0.08,0.28-0.18,0.32-0.3c-0.17,0.06-0.3-0.02-0.34-0.04
			c0.12-0.07,0.27,0.01,0.13-0.21c-0.14-0.22-0.23-0.23-0.38-0.07c-0.14,0.15-1.08-0.04-1.08-0.75c0,0,0.01,0.01,0.01,0.01
			c0.07,0.12,0.18,0.21,0.3,0.26c0.46,0.28,0.9,0.1,0.94-0.27c0.04-0.4-0.33-0.57-0.74-0.91c-0.18-0.15-0.31-0.28-0.41-0.38
			c-0.13-0.28-0.01-0.53-0.37-1.03c-0.02-0.12-0.05-0.27-0.12-0.44c-0.19,0.33-0.27,0.97,0.22,1.5c0.39,0.43,1.24,0.85,1.2,1.22
			c-0.01,0.09-0.09,0.19-0.23,0.2c-0.19-0.01-0.38-0.12-0.56-0.28c-0.03-0.02-0.06-0.05-0.08-0.08l0,0
			c-0.35-0.33-0.67-0.81-0.88-1.07c-0.39-0.51-0.21-0.99-0.15-1.4c0.28-0.38-0.17-1.16-0.43-1.35c0,0,0.06-0.18-0.02-0.41
			c-0.05,0.05-0.17,0.04-0.24,0.03c-0.07-0.14-0.1-0.18-0.2-0.19c-0.17-0.03-0.16-0.12-0.18-0.19c-0.1,0.08-0.14,0.18-0.24,0.18
			c-0.14,0.01-0.19,0-0.25,0.05c-0.1,0.08-0.15,0.11-0.29,0.11c-0.16-0.01-0.16,0.09-0.15,0.21c0.01,0.07,0.02,0.18,0.12,0.23
			c0.02,0.01,0.03,0.01,0.05,0.02l0.12,0.14l0.09-0.16c0,0,0,0,0,0c0.06-0.06,0.27-0.08,0.31,0.07c0.03,0.1,0.04,0.13-0.09,0.14
			c-0.13,0.02-0.21,0.02-0.34,0.02c-0.09,0-0.09,0.12-0.09,0.2c0,0.1,0.11,0.14,0.3,0.09c0.19-0.05,0.52-0.08,0.52,0.08
			c0,0.43-0.51,0.39-0.61,0.9c-0.12-0.08-0.22-0.17-0.28-0.27c-0.07-0.14-0.19-0.29-0.36-0.45c-0.1-0.1-0.23-0.22-0.36-0.3
			c-0.17-0.1-0.17-0.18-0.17-0.35c0-0.15,0.07-0.29,0.06-0.42c0-0.01-0.02-0.1-0.04-0.13c-0.03-0.09-0.16-0.16-0.23-0.15
			c0.03,0.03,0.08,0.06,0.09,0.15c-0.03,0.03-0.06,0.07-0.07,0.08c-0.03,0.04-0.05,0.1,0,0.15c0.01,0.01,0.01,0.02,0.01,0.03
			c0,0.02-0.01,0.04-0.01,0.07c0,0.03-0.02,0.02-0.02,0c-0.04-0.1-0.09-0.26-0.19-0.26c-0.01,0-0.05-0.01-0.07-0.01
			c0,0,0-0.01,0-0.02c0-0.1-0.12-0.2-0.25-0.06c0.03,0.01,0.08,0.01,0.1,0.04c-0.01,0.04-0.03,0.1-0.03,0.12
			c-0.01,0.11,0.07,0.15,0.19,0.16c0.02,0,0.03,0.01,0.04,0.02c0.01,0.02,0.01,0.03,0.02,0.05c0.01,0.02,0,0.02-0.02,0.02
			c-0.19-0.09-0.28,0-0.28,0.09c0,0,0,0.05,0,0.08c-0.07,0.05-0.09,0.15,0.04,0.23c0-0.03-0.01-0.1,0.04-0.12
			c0.01,0,0.02-0.01,0.03-0.02c0.02,0.02,0.05,0.05,0.05,0.05c0.01,0.01,0.05,0,0.11-0.04c0.01-0.02,0.02-0.02,0.04-0.01
			c0.02,0.02,0.04,0.03,0.06,0.04c0.01,0.01,0.01,0.02,0,0.03c-0.13,0.13-0.11,0.25,0.06,0.28c-0.07,0.14-0.3,0.07-0.3-0.13
			C97.83,57.8,98.1,58,98.33,57.9c0.01,0.1,0,0.27,0.04,0.28c0-0.02,0.01-0.05,0.05-0.05c0.01,0,0.02,0.01,0.02,0.02
			c0,0.06,0.03,0.15,0.12,0.16c-0.02-0.04-0.01-0.08,0.02-0.09c0.04,0.07,0.08,0.14,0.12,0.2c0.1,0.19,0.33,0.7,0.83,0.91
			c-0.26,0.15-0.44,0.38-0.6,0.57c-0.14,0.14-0.34,0.28-0.47,0.2c-0.06-0.04-0.07-0.09-0.15-0.14c-0.06-0.04-0.12-0.06-0.16-0.04
			c-0.01,0-0.05,0.01-0.09,0.03c-0.09-0.04-0.22,0.01-0.26,0.08c0.05-0.01,0.1-0.03,0.18,0.03c0,0.04,0,0.08,0,0.09
			c-0.01,0.06,0.04,0.13,0.3,0.11c0.02,0,0.05,0.01,0.03,0.03c-0.03,0.03-0.07,0.06-0.13,0.04c-0.12-0.03-0.17-0.13-0.25-0.02
			c0,0-0.03,0.04-0.06,0.07c-0.01,0-0.02,0-0.03,0c-0.1,0.03-0.2,0.23-0.08,0.32c0-0.04,0.01-0.11,0.08-0.16
			c0.02,0.03,0.05,0.06,0.05,0.06c0.08,0.11,0.16,0.18,0.33-0.08c0.02-0.03,0.03,0,0.03,0.01c-0.01,0.12-0.13,0.29,0.03,0.32
			c0.01,0,0.04,0.01,0.07,0.02c0,0.01,0,0.02,0,0.03c0.03,0.14,0.22,0.18,0.3,0.14c-0.05-0.02-0.13-0.07-0.16-0.17
			c0.04,0,0.07-0.01,0.08-0.01c0.1-0.09-0.02-0.21,0.02-0.28c0.01-0.02,0.03-0.02,0.04,0c0.04,0.05,0.12,0.17,0.25,0.09
			c0.07-0.04,0.11-0.11,0.11-0.17c0.17-0.07,0.33-0.13,0.46-0.08c-0.03-0.09,0.08-0.22,0.27-0.27c0.19-0.05,0.27,0,0.33,0.07
			c0.02-0.08,0.1-0.22,0.19-0.33c-0.02,0.74,0.97,0.73,1.21,1.16c-0.3-0.12-0.63-0.18-0.82-0.15c-0.24,0.04-0.67,0.27-0.72,0.55
			c-0.04,0.22,0.19,0.63,0.44,0.79c-0.3,0.05-0.39-0.05-0.66,0.03c-0.01-0.01-0.02-0.01-0.02-0.01c-0.23,0.02-0.26-0.38-0.53-0.27
			c-0.01,0.01-0.06,0.04-0.08,0.06c-0.11,0-0.25,0.12-0.23,0.23c0.03-0.03,0.09-0.08,0.17-0.1c0,0.03,0,0.06,0,0.06
			c0,0.04,0.02,0.08,0.1,0.08c0.06,0,0.07-0.03,0.11-0.03c0.02,0,0.03,0.01,0.03,0.03c0,0.1-0.33-0.06-0.27,0.23
			c0,0,0.03,0.06,0.05,0.08c-0.01,0.09,0.06,0.17,0.21,0.13c-0.03-0.02-0.09-0.06-0.07-0.11c0.02,0.01,0.06,0.01,0.07,0.01
			c0.01,0,0.03-0.01,0.04-0.05c0,0,0.01-0.01,0.02-0.01c0.01,0.01,0.03,0.01,0.03,0.03c0,0.02-0.02,0.03-0.02,0.06
			c0,0.01,0.01,0.08,0.03,0.09c-0.01,0.1,0.14,0.21,0.28,0.11c-0.04-0.01-0.13-0.02-0.14-0.08c0.03-0.01,0.06-0.02,0.06-0.03
			c0.03-0.02,0.04-0.06,0.04-0.1c0-0.03,0.01-0.03,0.03-0.03c0.02,0,0.05,0,0.07,0c0.04,0,0.04,0.01,0.05,0.02
			c0.03,0.06,0.11,0.12,0.21,0.09c0.06-0.02,0.08-0.05,0.09-0.08c0.04,0.02,0.08,0.05,0.12,0.08c-0.03-0.11,0.05-0.2,0.28-0.04
			l0.17-0.13c0,0,0.23,0.09,0.31-0.01c0.14-0.13,0.06-0.13,0.06-0.25c-0.1-0.23-0.15-0.2-0.2-0.42c-0.08-0.37,0.43-0.58,0.73-0.52
			c0.06,0.24,0.39,0.86,0.94,1.04c0.34,0.12,0.48-0.26,0.59-0.2c0.02,0.01,0.05,0.04,0.06,0.08c-0.03,0.19,0.01,0.34-0.03,0.43
			c-0.04,0.08-0.23,0.01-0.35,0.01c-0.07-0.01-0.13,0.04-0.13,0.06c-0.11,0.02-0.23,0.11-0.22,0.23c0.03-0.03,0.1-0.08,0.19-0.1
			c0,0.02,0.01,0.04,0.01,0.05c0.01,0.15,0.18,0.19,0.27,0.1c0.01-0.02,0.05,0,0.03,0.02c-0.08,0.06-0.24,0.2-0.11,0.25
			c0.01,0,0.04,0.02,0.08,0.04c-0.01,0.09,0.06,0.18,0.14,0.19c-0.03-0.04-0.04-0.07,0.01-0.17h0.07c0.09,0.01,0.05-0.18,0.16-0.24
			c0.01-0.01,0.02,0,0.02,0.01c-0.03,0.1-0.06,0.24,0.04,0.26c0.01,0,0.04,0.01,0.08,0.02c0.03,0.08,0.13,0.14,0.26,0.07
			c-0.03-0.01-0.1-0.04-0.12-0.08c0.03-0.03,0.07-0.09,0.07-0.1c0.06-0.22-0.13-0.22-0.13-0.32c0-0.1,0.21-0.03,0.21-0.25v-0.03
			c0.1-0.06,0.21-0.13,0.22-0.21C103.68,62.53,103.57,62.49,103.53,62.47"/>
		<path class="st0" d="M94.2,68.2l-0.2-0.01L94.01,68c0.03-0.68-0.38-1.2-1.12-1.2c-0.66,0-1.94,0.86-3.72,0.86
			c-0.76,0-1.66-0.37-2.23-0.7l-0.23,0.53c0.01-0.02,0.01-0.03,0.01-0.05c0-0.25-0.2-0.44-0.44-0.44c-0.24,0-0.44,0.19-0.44,0.44
			c0,0.25,0.19,0.44,0.44,0.44c0.14,0,0.27-0.07,0.34-0.17l-0.22,0.54c0.07,0.03,0.15,0.07,0.23,0.1c-0.26,2.7,1.68,6.13,5.21,7.18
			c0.52-0.14,1.12-0.05,1.12,0.53c0,0.35-0.18,0.51-0.49,0.51c-0.21,0-0.35-0.12-0.35-0.26c0-0.24,0.42-0.1,0.46-0.26
			c0.05-0.22-0.09-0.32-0.33-0.32c-0.25,0-0.62,0.16-0.62,0.57c0,0.48,0.39,0.77,0.8,0.77c0.4,0,1.22-0.22,1.11-1.18
			c0.19,0.01,0.41-0.02,0.45-0.21l0.04-0.55l-0.19-0.02l0.15-6.19l0.14,0.01c0.23,0.02,0.42-0.09,0.44-0.33
			C94.59,68.34,94.39,68.22,94.2,68.2 M87.82,68.69l4.29,6.18C89.81,74.03,87.53,71.9,87.82,68.69 M92.24,74.27l-3.92-5.63
			c0.13,0.01,0.25,0.01,0.36,0.01c0.2,0,0.4-0.02,0.6-0.04l3.14,4.51C92.36,73.55,92.29,73.95,92.24,74.27 M89.77,68.53
			c0.31-0.07,0.6-0.16,0.88-0.27l2.08,2.98c-0.07,0.41-0.13,0.84-0.2,1.25L89.77,68.53z M93.19,68.13l-0.15-0.01
			c-0.19-0.01-0.42,0.08-0.44,0.32c-0.02,0.25,0.16,0.38,0.38,0.4l0.11,0.01l-0.27,1.77l-1.74-2.51c0.81-0.33,1.48-0.68,1.83-0.68
			C93.19,67.42,93.25,67.55,93.19,68.13"/>
		<path class="st0" d="M93.7,56.76c0.87,0.01,1.3-0.28,1.3-0.55c0-0.97-2.39-0.37-2.39-0.96c0-0.09,0.07-0.18,0.18-0.26
			c0,0-0.01,0,0,0c1.2-0.09,1.25-0.95,2.11-1.11c-1.04-0.14-1.19,0.67-1.63,0.71c0.24-0.11,0.32-0.39,0.31-0.5
			c-0.22,0.28-0.68,0.31-0.93,0.63c-0.04,0.05-0.06,0.12-0.05,0.17c-0.15,0.1-0.25,0.21-0.25,0.35c0,0.91,2.43,0.29,2.43,0.95
			c0,0.23-0.42,0.39-1.09,0.39c-0.5,0-0.86-0.36-1.78-0.12c0-0.16,0.31-0.45,0.19-0.59c0.09-0.04,0.15-0.11,0.15-0.19
			c-0.06-0.05-0.12-0.07-0.18-0.08c0.03-0.04-0.01-0.09-0.04-0.13c-0.01-0.02-0.03-0.11-0.05-0.13c-0.03-0.03-0.1-0.09-0.21-0.14
			c-0.11-0.05-0.18-0.05-0.22-0.06c-0.03-0.01-0.12,0.02-0.14,0.02c-0.05,0-0.12,0-0.12,0.06c-0.05-0.05-0.11-0.07-0.17-0.08
			c-0.04,0.08-0.05,0.15-0.02,0.26c-0.09,0.01-0.18,0.23-0.26,0.2c0.03,0.06,0.06,0.09,0.08,0.09c-0.07,0.13-0.1,0.29-0.18,0.29
			c0.01,0.04,0.04,0.07,0.06,0.07c-0.08,0.19-0.11,0.44-0.13,0.55c-0.05-0.05-0.12-0.11-0.19-0.15c-0.14-0.08-0.13-0.15-0.11-0.29
			c0.02-0.12,0.1-0.23,0.11-0.35c0-0.01-0.01-0.07-0.02-0.1c-0.01-0.08-0.12-0.14-0.18-0.13c0.04,0.03,0.07,0.05,0.06,0.13
			c-0.03,0.02-0.07,0.05-0.07,0.06c-0.03,0.03-0.05,0.08-0.01,0.12c0.01,0.01,0.01,0.02,0.01,0.03c0,0.01-0.01,0.03-0.02,0.05
			c-0.01,0.02-0.01,0.01-0.02,0c-0.02-0.09-0.05-0.21-0.13-0.22c-0.01,0-0.05,0-0.06,0c0,0,0-0.01,0-0.01
			c0.02-0.09-0.08-0.16-0.22-0.06c0.02,0.01,0.07,0.01,0.09,0.04c-0.02,0.03-0.04,0.08-0.04,0.09c-0.02,0.09,0.05,0.13,0.15,0.13
			c0.02,0,0.03,0.01,0.04,0.02c0,0.01,0,0.03,0,0.03c0.01,0.02,0,0.02-0.01,0.01c-0.16-0.07-0.25,0-0.27,0.07
			c0,0.01-0.01,0.05-0.01,0.07c-0.07,0.04-0.09,0.12,0.01,0.19c0-0.03,0.01-0.09,0.06-0.1c0,0,0.01-0.01,0.02-0.01
			c0.01,0.02,0.04,0.04,0.04,0.04c0.02,0.01,0.05,0,0.11-0.03c0.01-0.01,0.03-0.01,0.04,0c0.01,0.01,0.03,0.02,0.05,0.03
			c0.01,0.01,0.01,0.02,0,0.03c-0.13,0.1-0.13,0.2,0.02,0.23c0.02,0.01,0.02,0.02,0.02,0.03c-0.04,0.2-0.33,0.15-0.28-0.04
			c-0.19,0.22,0.06,0.39,0.29,0.29c0.01-0.01,0.02,0,0.02,0.01c0.01,0.04,0.02,0.07,0.06,0.07c0-0.01,0.02-0.04,0.05-0.04
			c0.01,0,0.01,0.01,0.01,0.02c-0.01,0.05,0,0.12,0.08,0.13c0-0.04,0.01-0.08,0.04-0.08c0.03,0,0.09,0.17,0.22,0.3
			c-0.19,0.09-0.52,0.16-0.54,0.16c-0.05,0-0.33-0.03-0.42,0.02c-0.14,0.07-0.47,0.2-0.57,0.06c-0.03-0.05-0.02-0.1-0.06-0.17
			c-0.03-0.05-0.08-0.08-0.11-0.09h-0.08c-0.06-0.06-0.18-0.06-0.23-0.02c0.04,0.01,0.09,0.01,0.13,0.08
			c-0.02,0.02-0.03,0.06-0.04,0.07c-0.03,0.04-0.01,0.11,0.2,0.19c0,0.01,0.03,0.02,0.01,0.03c-0.03,0.01-0.08,0.02-0.12-0.01
			c-0.08-0.06-0.09-0.16-0.19-0.1c0,0-0.04,0.01-0.07,0.03c0,0-0.02-0.01-0.02-0.01c-0.09-0.01-0.24,0.11-0.17,0.22
			c0.01-0.03,0.04-0.08,0.12-0.1c0.01,0.03,0.02,0.06,0.02,0.07c0.02,0.11,0.07,0.19,0.3,0.05c0.02-0.02,0.02,0,0.01,0.02
			c-0.05,0.09-0.2,0.19-0.08,0.26c0,0,0.03,0.02,0.05,0.04c-0.01,0.01-0.01,0.01-0.01,0.02c-0.02,0.13,0.11,0.22,0.19,0.21
			c-0.03-0.03-0.08-0.09-0.07-0.18c0.02,0.01,0.05,0.01,0.06,0.01c0.11-0.04,0.06-0.17,0.12-0.21c0.02-0.02,0.03,0,0.03,0.02
			c0.01,0.05,0.03,0.17,0.16,0.16c0.12-0.01,0.18-0.11,0.17-0.18c-0.01-0.01,0-0.01,0.01-0.01c0.04,0.03,0.08,0.07,0.06,0.14
			c0.02-0.01,0.07-0.05,0.09-0.09c0.03,0.06,0.03,0.14-0.05,0.22c0.05-0.01,0.18-0.08,0.21-0.22c0.02,0.02,0.04,0.04,0.05,0.07
			c0,0,0.01-0.01,0.01-0.01c0.04,0.02,0.13,0.03,0.26-0.01c0.01,0,0.02,0.01,0.01,0.01c-0.01,0.05-0.01,0.1,0.02,0.13
			c0-0.02,0.03-0.07,0.05-0.07c0.04,0,0,0.13,0.07,0.2c0.03-0.32,0.21-0.19,0.41-0.32c0.02-0.02,0.02-0.01,0.02,0.01
			c-0.01,0.04-0.04,0.08-0.09,0.1c0.08,0,0.25-0.07,0.25-0.19c0-0.02,0.06-0.07,0.13-0.11c0.07,0.01,0.18-0.02,0.23-0.1
			c0.01,0.03,0.04,0.13-0.01,0.15c0.22,0.01,0.44-0.23,0.52-0.25c0.46-0.1-0.28-0.42,0.65-0.37c0.07,0.01,0.21-0.04,0.27-0.1
			c-0.07,0.14-0.08,0.42,0.07,0.44c0.06,0.01,0.19,0.05,0.24,0.1c0.01,0.01,0,0.02-0.01,0.02c-0.08,0.01-0.17,0.03-0.19,0.05
			c-0.22,0.15-0.23-0.33-0.46-0.24c-0.01,0.01-0.05,0.03-0.06,0.04c-0.09,0-0.22,0.11-0.19,0.21c0.02-0.02,0.07-0.08,0.15-0.09
			c0,0.02,0,0.04,0,0.05c0,0.04,0.01,0.07,0.08,0.07c0.05,0,0.06-0.02,0.09-0.02c0.01,0,0.03,0.01,0.03,0.03
			c0,0.09-0.29-0.05-0.23,0.19c0,0.01,0.03,0.06,0.04,0.08c-0.01,0.07,0.05,0.15,0.18,0.1c-0.02-0.02-0.07-0.05-0.06-0.08
			c0.02,0,0.05,0,0.06,0.01c0.01,0,0.02-0.01,0.03-0.04c0.01-0.01,0.01-0.01,0.02-0.01c0.01,0,0.02,0.01,0.02,0.03
			c0,0.01-0.02,0.03-0.02,0.05c0,0.01,0.01,0.07,0.02,0.08c-0.01,0.09,0.12,0.18,0.25,0.09c-0.03,0-0.12-0.02-0.13-0.06
			c0.03-0.01,0.06-0.03,0.06-0.03c0.02-0.01,0.03-0.05,0.03-0.09c0-0.02,0.02-0.02,0.02-0.02c0.02,0,0.04,0,0.06-0.01
			c0.03-0.01,0.04,0.01,0.04,0.02c0.03,0.05,0.09,0.1,0.18,0.07c0.15-0.06,0.02-0.19,0.15-0.22c0.02,0,0.06-0.01,0.09,0
			c0.12,0.03,0.31,0.03,0.33-0.04c0.03-0.05,0.02-0.28-0.12-0.35c-0.08-0.03,0.01-0.13-0.07-0.24c0.14,0.06,0.28,0.12,0.46,0.12
			c0.34,0,0.02-0.05,0.17-0.14c0.16-0.11,0.35-0.05,0.41-0.04c0.04,0,0.08,0.02,0.07,0.08c-0.04,0.17,0.02,0.19-0.02,0.26
			c-0.03,0.07-0.17,0.02-0.27,0.01c-0.05,0-0.1,0.04-0.1,0.04c-0.08,0.02-0.18,0.09-0.18,0.19c0.03-0.02,0.08-0.07,0.15-0.08
			c0,0.01,0,0.03,0,0.04c0.01,0.11,0.14,0.16,0.22,0.08c0.01-0.01,0.04,0,0.02,0.01c-0.06,0.05-0.19,0.17-0.08,0.21
			c0,0,0.03,0.02,0.06,0.03c-0.01,0.08,0.05,0.14,0.11,0.16c-0.02-0.04-0.03-0.06,0.01-0.14c0.02,0,0.05,0,0.06,0
			c0.07,0,0.04-0.15,0.12-0.19c0.01-0.01,0.02,0,0.01,0.01c-0.03,0.09-0.04,0.19,0.04,0.21c0,0,0.03,0.01,0.06,0.01
			c0.02,0.07,0.1,0.11,0.2,0.06c-0.02-0.01-0.08-0.04-0.09-0.07c0.02-0.03,0.05-0.07,0.05-0.08c0.05-0.18-0.1-0.18-0.1-0.25
			c0-0.09,0.18-0.03,0.18-0.21c0-0.03-0.01-0.09-0.08-0.11c0-0.01,0-0.01,0-0.01h0c0.05,0,0.1,0.01,0.13-0.06
			c-0.13,0.01-0.09-0.1-0.11-0.18c0-0.01-0.01-0.02,0.01-0.03c0.04-0.03,0.08-0.08,0.06-0.19c-0.04,0.06-0.19,0.13-0.2,0.01
			c0-0.01-0.01-0.09-0.14-0.07c-0.22,0.02-0.33-0.09-0.75-0.13C93.68,56.78,93.65,56.76,93.7,56.76 M91.49,55.54
			c-0.04,0.06-0.12,0.11-0.18,0.06c-0.06-0.06,0.01-0.08-0.07-0.2C91.31,55.45,91.45,55.53,91.49,55.54 M91.64,55.98
			c-0.02,0.01-0.02-0.07-0.07-0.08c-0.03-0.01-0.03,0.03-0.01,0.08c-0.06-0.02-0.11-0.05-0.14,0.01c-0.03,0.04-0.02,0.08,0.02,0.11
			c0.01,0.02,0,0.07-0.02,0.12c-0.02,0.05-0.09,0.13-0.17,0.08c-0.08-0.04-0.07-0.13-0.04-0.19c0.02-0.05,0.04-0.09,0.07-0.09
			c0.05,0,0.08-0.01,0.1-0.05c0.02-0.06-0.03-0.08-0.08-0.12c0.05-0.01,0.08-0.04,0.05-0.06c-0.03-0.03-0.08,0.02-0.09,0
			c-0.01-0.03,0.03-0.05,0.04-0.06c0.02-0.02,0.05-0.02,0.07,0l0.23,0.11c0.03,0.01,0.05,0.02,0.05,0.06
			C91.65,55.93,91.66,55.97,91.64,55.98 M91.77,55.82c-0.08,0-0.12-0.11-0.1-0.19c0.04,0.02,0.2,0.09,0.29,0.11
			C91.82,55.77,91.85,55.82,91.77,55.82"/>
		<path class="st0" d="M88.47,59.64c-0.09-0.07-0.2-0.21-0.35-0.31c-0.16-0.09-0.16-0.17-0.15-0.33c0.01-0.14,0.08-0.27,0.08-0.41
			c0-0.01-0.02-0.08-0.03-0.12c-0.02-0.09-0.14-0.16-0.21-0.14c0.03,0.03,0.07,0.06,0.08,0.15c-0.03,0.03-0.06,0.07-0.07,0.07
			c-0.03,0.04-0.05,0.09,0,0.14c0.01,0.01,0.02,0.02,0.01,0.03c0,0.02-0.01,0.04-0.02,0.07c-0.01,0.02-0.01,0.01-0.02,0
			c-0.03-0.1-0.07-0.24-0.16-0.25c-0.01,0-0.05-0.01-0.07,0c0-0.01,0.01-0.02,0.01-0.02c0-0.1-0.1-0.19-0.24-0.06
			c0.03,0,0.08,0.01,0.09,0.04c-0.01,0.03-0.03,0.1-0.03,0.1c-0.01,0.11,0.06,0.15,0.18,0.15c0.02,0,0.03,0.01,0.04,0.02
			c0,0.02,0.01,0.03,0.01,0.05c0.01,0.02-0.01,0.02-0.02,0.01c-0.18-0.08-0.26,0.01-0.27,0.09c0,0.01,0,0.05,0,0.08
			c-0.07,0.04-0.09,0.14,0.03,0.22c0-0.04,0-0.1,0.05-0.11c0.01,0,0.02-0.01,0.02-0.01c0.02,0.02,0.04,0.04,0.05,0.04
			c0.01,0.01,0.04,0,0.11-0.03c0.01-0.01,0.03-0.01,0.04,0c0.02,0.02,0.04,0.03,0.05,0.04c0.01,0.01,0.01,0.02,0,0.03
			c-0.13,0.12-0.12,0.24,0.04,0.27c0.02,0,0.03,0.02,0.03,0.04c-0.03,0.23-0.33,0.18-0.3-0.04c-0.18,0.26,0.11,0.46,0.33,0.33
			c0.01-0.01,0.02-0.01,0.03,0.01c0.01,0.04,0.03,0.08,0.07,0.08c0-0.01,0.02-0.05,0.05-0.05c0.02,0,0.02,0.01,0.02,0.02
			c0,0.06,0.02,0.13,0.1,0.14c-0.01-0.04,0.01-0.09,0.03-0.09c0.04,0,0.14,0.17,0.32,0.28c0.15,0.07,0.26,0.23,0.36,0.13
			c-0.02,0.16,0.13,0.34,0.09,0.34c-0.05,0-0.46-0.03-0.57,0.03c-0.15,0.08-0.53,0.22-0.64,0.06c-0.04-0.05-0.03-0.1-0.07-0.18
			c-0.03-0.06-0.08-0.1-0.12-0.1c-0.01,0-0.05,0-0.08,0c-0.06-0.06-0.2-0.07-0.26-0.03c0.05,0.01,0.1,0.02,0.14,0.09
			c-0.02,0.03-0.04,0.07-0.04,0.07c-0.03,0.05-0.01,0.13,0.23,0.21c0.01,0,0.03,0.02,0.01,0.04c-0.04,0.02-0.08,0.02-0.13-0.02
			c-0.09-0.07-0.11-0.17-0.22-0.11c-0.01,0-0.04,0.02-0.07,0.04c-0.01-0.01-0.02-0.01-0.03-0.01c-0.1-0.01-0.26,0.12-0.19,0.24
			c0.01-0.03,0.05-0.09,0.13-0.11c0.01,0.03,0.02,0.06,0.02,0.08c0.03,0.12,0.08,0.21,0.32,0.05c0.03-0.01,0.03,0.01,0.02,0.01
			c-0.06,0.11-0.22,0.21-0.09,0.29c0,0,0.03,0.03,0.06,0.05c-0.01,0.01-0.01,0.01-0.01,0.02c-0.02,0.14,0.13,0.24,0.21,0.24
			c-0.03-0.04-0.09-0.11-0.08-0.22c0.03,0.02,0.06,0.03,0.07,0.02c0.12-0.05,0.07-0.19,0.13-0.24c0.02-0.01,0.04,0,0.04,0.01
			c0.01,0.06,0.03,0.2,0.17,0.18c0.13-0.01,0.2-0.12,0.19-0.2c0-0.01,0-0.01,0.01-0.01c0.05,0.03,0.09,0.08,0.07,0.15
			c0.02-0.01,0.08-0.05,0.1-0.1c0.03,0.06,0.04,0.15-0.05,0.24c0.05-0.02,0.19-0.09,0.23-0.24c0.02,0.02,0.04,0.05,0.05,0.08
			c0.01-0.01,0.01-0.01,0.02-0.01c0.05,0.02,0.14,0.03,0.28-0.01c0.01,0,0.01,0.01,0.01,0.02c-0.01,0.05-0.01,0.11,0.02,0.14
			c0-0.02,0.03-0.08,0.06-0.08c0.04,0-0.01,0.14,0.08,0.23c0.03-0.36,0.22-0.21,0.45-0.36c0.02-0.02,0.02-0.01,0.02,0.01
			c-0.01,0.04-0.04,0.09-0.1,0.12c0.25,0.06,0.64-0.32,0.69-0.48c0.1-0.01,0.19-0.03,0.24-0.02c0.71,0.06,0.21-0.64,1.36-0.44
			c0.07,0.01,0.21-0.07,0.28-0.13c-0.08,0.15-0.08,0.46,0.07,0.49c0.07,0.01,0.21,0.06,0.27,0.11c0.01,0.02,0.01,0.02-0.01,0.02
			c-0.09,0.01-0.19,0.04-0.22,0.05c-0.24,0.17-0.25-0.36-0.5-0.26c-0.02,0.01-0.06,0.04-0.07,0.06c-0.1,0-0.24,0.12-0.22,0.23
			c0.03-0.03,0.09-0.08,0.17-0.1c0,0.02,0,0.05,0,0.06c-0.01,0.04,0,0.08,0.1,0.08c0.05,0,0.06-0.03,0.1-0.03
			c0.01,0,0.03,0.01,0.03,0.03c0,0.09-0.32-0.06-0.26,0.21c0,0.01,0.04,0.07,0.05,0.08c-0.01,0.08,0.06,0.16,0.2,0.11
			c-0.03-0.01-0.08-0.05-0.07-0.09c0.02,0,0.06,0.01,0.06,0.01c0.02,0,0.03-0.01,0.04-0.04c0-0.01,0-0.01,0.02-0.01
			c0.02,0,0.03,0.01,0.03,0.03c0,0.02-0.02,0.03-0.02,0.06c0,0.01,0.01,0.08,0.02,0.08c-0.01,0.1,0.13,0.2,0.27,0.1
			c-0.04-0.01-0.13-0.03-0.14-0.07c0.03-0.01,0.06-0.02,0.07-0.02c0.02-0.02,0.03-0.06,0.03-0.1c0-0.02,0.01-0.03,0.03-0.03h0.07
			c0.03,0,0.05,0.01,0.05,0.02c0.03,0.06,0.1,0.12,0.2,0.08c0.17-0.06,0.03-0.21,0.16-0.24c0.03-0.01,0.07-0.01,0.1,0
			c0.14,0.03,0.34,0.03,0.37-0.03c0.04-0.07,0.02-0.31-0.13-0.4c-0.09-0.04,0.01-0.15-0.08-0.27c0.15,0.06,0.3,0.12,0.51,0.12
			c0.37,0,0.46-0.05,0.63-0.16c0.18-0.11,0.39-0.05,0.44-0.04c0.05,0.01,0.09,0.03,0.07,0.09c-0.04,0.19,0.02,0.21-0.02,0.3
			c-0.03,0.07-0.19,0.01-0.3,0c-0.06,0-0.11,0.04-0.11,0.05c-0.1,0.02-0.2,0.1-0.2,0.21c0.03-0.02,0.09-0.08,0.17-0.09V61
			c0.01,0.13,0.16,0.18,0.24,0.09c0.01-0.01,0.05,0,0.03,0.02c-0.07,0.06-0.21,0.19-0.1,0.23c0.01,0,0.04,0.02,0.07,0.04
			c-0.01,0.08,0.05,0.16,0.12,0.17c-0.02-0.04-0.03-0.07,0.01-0.16c0.02,0,0.06,0,0.06,0c0.08,0.01,0.04-0.16,0.13-0.21
			c0.01-0.01,0.02,0,0.01,0.01c-0.03,0.1-0.05,0.21,0.04,0.24c0.01,0,0.04,0.01,0.07,0.02c0.02,0.07,0.12,0.13,0.23,0.07
			c-0.02-0.01-0.09-0.04-0.1-0.08c0.02-0.03,0.05-0.08,0.06-0.09c0.06-0.2-0.11-0.2-0.11-0.29c0-0.1,0.19-0.03,0.19-0.23
			c0-0.03-0.02-0.09-0.09-0.12c-0.01,0-0.01-0.01,0-0.01v0c0.06,0,0.12,0.01,0.14-0.07c-0.15,0.01-0.1-0.11-0.12-0.19
			c0-0.01,0-0.02,0.01-0.03c0.05-0.03,0.08-0.1,0.07-0.21c-0.05,0.06-0.21,0.14-0.23,0.01c0-0.01-0.01-0.11-0.16-0.08
			c-0.24,0.02-0.41-0.03-0.88-0.07c0.53,0,1.31-0.14,1.31-0.44c0-0.25-0.27-0.41-1.08-0.41c-0.81,0-2.64,0.3-2.64-0.15
			c0-0.23,0.35-0.21,0.79-0.19c0.03,0.04,0.08,0.07,0.18,0.1c1.04,0.3,2.27-0.25,2.9-0.07c-0.74-0.56-1.36,0.02-2.15-0.15
			c0.46,0,0.62-0.14,0.64-0.26c-0.36,0.24-1.04-0.12-1.47,0.14c-0.03,0.02-0.05,0.04-0.07,0.05c-0.58-0.02-1.04-0.02-1.04,0.37
			c0,0.8,2.17,0.33,2.85,0.33c0.68,0,0.83,0.07,0.83,0.2c0,0.19-0.67,0.24-1.06,0.24c-0.59,0-2.36-0.31-3.44-0.09
			c0.09-0.18,0.28-0.4,0.17-0.53c0.1-0.04,0.16-0.12,0.17-0.2c-0.06-0.06-0.13-0.08-0.2-0.09c0.03-0.05-0.01-0.1-0.05-0.14
			c-0.01-0.01-0.03-0.12-0.06-0.14c-0.04-0.03-0.12-0.1-0.24-0.16c-0.12-0.06-0.2-0.06-0.24-0.07c-0.03,0-0.14,0.03-0.15,0.03
			c-0.06-0.01-0.13-0.01-0.14,0.06c-0.05-0.04-0.12-0.07-0.19-0.08c-0.04,0.09-0.06,0.17-0.02,0.29c-0.1,0-0.2,0.25-0.29,0.22
			c0.04,0.07,0.06,0.1,0.09,0.1c-0.08,0.14-0.11,0.32-0.21,0.32c0.06,0.08,0.1,0.11,0.13,0.12c-0.02,0.11-0.02,0.22-0.02,0.31
			l-0.17-0.07L88.47,59.64z M89.74,58.91c0.04,0.03,0.22,0.1,0.31,0.12c-0.14,0.03-0.11,0.09-0.2,0.08
			C89.76,59.12,89.73,59,89.74,58.91 M89.54,58.81c-0.04,0.08-0.13,0.13-0.2,0.07c-0.06-0.07,0.01-0.09-0.08-0.22
			C89.34,58.71,89.5,58.81,89.54,58.81 M89.24,59.46c0.03-0.05,0.06-0.1,0.08-0.1c0.05,0,0.08-0.02,0.1-0.07
			c0.03-0.06-0.03-0.09-0.09-0.13c0.06-0.01,0.09-0.04,0.06-0.07c-0.04-0.04-0.09,0.02-0.11-0.01c-0.01-0.03,0.03-0.05,0.05-0.07
			c0.02-0.02,0.04-0.01,0.08,0l0.25,0.12c0.04,0.01,0.05,0.03,0.05,0.07c0,0.03,0.01,0.08-0.02,0.08c-0.03,0.01-0.02-0.07-0.07-0.08
			c-0.04-0.01-0.04,0.03-0.01,0.09c-0.06-0.01-0.12-0.05-0.15,0.01c-0.03,0.05-0.02,0.08,0.02,0.13c0.02,0.03,0,0.07-0.02,0.13
			c-0.02,0.06-0.1,0.14-0.18,0.09C89.2,59.62,89.22,59.52,89.24,59.46"/>
		<path class="st0" d="M88.99,64.35c0.04-0.01,0.09-0.02,0.13-0.03c-0.01,0-0.01,0.04-0.02,0.04c0.24,0.02,0.21-0.21,0.3-0.2
			c1.32,0.18,0.56-0.57,2.13-0.42c0.07,0.01,0.1-0.04,0.17-0.09c-0.08,0.15-0.09,0.4,0.07,0.43c0.07,0.01,0.22,0.06,0.27,0.11
			c0.02,0.02,0,0.03-0.01,0.03c-0.09,0.01-0.19,0.03-0.22,0.05c-0.24,0.16-0.25-0.36-0.51-0.25c-0.01,0-0.05,0.03-0.07,0.04
			c-0.1,0-0.24,0.12-0.22,0.23c0.03-0.04,0.08-0.09,0.16-0.09c0,0.02,0,0.05,0,0.05c-0.01,0.04,0.01,0.08,0.09,0.08
			c0.05,0,0.06-0.03,0.1-0.03c0.01,0,0.03,0.01,0.03,0.03c0,0.1-0.32-0.06-0.26,0.22c0.01,0.01,0.03,0.06,0.05,0.08
			c-0.01,0.08,0.05,0.16,0.2,0.12c-0.03-0.02-0.08-0.05-0.06-0.1c0.02,0,0.05,0,0.06,0c0.02,0,0.03-0.01,0.03-0.04
			c0-0.01,0.01-0.01,0.02-0.01c0.02,0.01,0.03,0.01,0.03,0.03c0,0.01-0.02,0.03-0.02,0.06c0,0.01,0.01,0.07,0.02,0.08
			c-0.01,0.1,0.13,0.2,0.28,0.1c-0.04,0-0.13-0.02-0.14-0.07c0.03-0.01,0.06-0.02,0.06-0.02c0.02-0.02,0.03-0.06,0.03-0.1
			c0-0.02,0.01-0.02,0.02-0.02c0.02,0,0.04,0,0.07-0.01c0.03-0.01,0.04,0.01,0.05,0.02c0.03,0.06,0.11,0.12,0.2,0.08
			c0.17-0.06,0.02-0.21,0.17-0.24c0.03-0.01,0.07-0.01,0.1,0c0.14,0.03,0.34,0.03,0.37-0.04c0.04-0.07,0.02-0.31-0.13-0.39
			c-0.08-0.04,0-0.15-0.08-0.27c0.15,0.07,0.3,0.13,0.51,0.13c0.37,0,0.46-0.05,0.63-0.16c0.19-0.11,0.39-0.05,0.45-0.04
			c0.05,0,0.09,0.03,0.07,0.09c-0.04,0.2,0.02,0.22-0.02,0.3c-0.04,0.07-0.2,0.02-0.31,0c-0.06,0-0.11,0.04-0.11,0.05
			c-0.09,0.02-0.2,0.1-0.2,0.21c0.03-0.02,0.09-0.08,0.16-0.09c0,0.02,0.01,0.04,0.01,0.04c0.01,0.13,0.16,0.18,0.24,0.08
			c0.01-0.01,0.05,0,0.03,0.02c-0.07,0.06-0.21,0.19-0.1,0.23c0.01,0,0.04,0.02,0.07,0.03c-0.01,0.08,0.06,0.16,0.12,0.18
			c-0.02-0.04-0.03-0.07,0.01-0.16c0.03,0,0.06,0,0.07,0c0.08,0,0.04-0.16,0.13-0.22c0.01-0.01,0.02,0,0.02,0.01
			c-0.03,0.09-0.05,0.21,0.04,0.24c0,0,0.04,0.01,0.07,0.02c0.03,0.07,0.12,0.13,0.23,0.06c-0.03-0.01-0.09-0.04-0.1-0.08
			c0.02-0.03,0.06-0.07,0.06-0.09c0.05-0.2-0.11-0.2-0.11-0.28c0-0.1,0.19-0.04,0.19-0.24c0-0.03-0.02-0.1-0.08-0.12
			c-0.01-0.01-0.01-0.01-0.01-0.02v0c0.06,0,0.11,0.01,0.14-0.07c-0.15,0.01-0.1-0.12-0.12-0.19c0-0.02,0-0.02,0.01-0.04
			c0.04-0.03,0.08-0.1,0.06-0.21c-0.04,0.07-0.21,0.14-0.23,0.01c0-0.01-0.01-0.1-0.16-0.07c-0.24,0.02-0.42-0.03-0.88-0.07
			c0.47-0.04,1.31-0.13,1.31-0.44c0-0.25-0.28-0.4-1.08-0.4c-0.81,0-3.31,0.3-3.31-0.16c0-0.29,0.85-0.18,1.46-0.16
			c0.03,0.04,0.09,0.09,0.18,0.12c1.04,0.29,2.14-0.41,2.89-0.16c-0.59-0.53-1.36,0.06-2.15-0.1c0.46-0.01,0.94-0.09,0.97-0.22
			c-0.36,0.23-1.38-0.16-1.8,0.11c-0.03,0.02-0.06,0.04-0.07,0.06c-0.76-0.01-1.71-0.11-1.71,0.36c0,0.81,2.84,0.33,3.52,0.33
			c0.68,0,0.82,0.07,0.82,0.2c0,0.2-0.68,0.24-1.06,0.24c-0.63,0-3.28-0.35-4.34-0.03c0.06-0.18,0.32-0.45,0.2-0.59
			c0.1-0.04,0.17-0.12,0.17-0.21c-0.06-0.06-0.14-0.08-0.2-0.09c0.03-0.04-0.01-0.1-0.05-0.14c-0.01-0.01-0.03-0.12-0.06-0.14
			c-0.04-0.03-0.12-0.11-0.24-0.16c-0.12-0.06-0.2-0.06-0.24-0.07c-0.03-0.01-0.14,0.03-0.15,0.02c-0.06-0.01-0.12-0.01-0.13,0.06
			c-0.05-0.05-0.12-0.07-0.19-0.08c-0.04,0.09-0.06,0.16-0.03,0.29c-0.09,0.01-0.2,0.25-0.29,0.22c0.04,0.07,0.06,0.1,0.09,0.11
			c-0.08,0.14-0.11,0.31-0.2,0.32c0.03,0.05,0.06,0.08,0.08,0.1c-0.01,0.08-0.02,0.17-0.03,0.24L87.67,63
			c-0.06,0-0.11-0.01-0.13-0.01c-0.04-0.01-0.08-0.02-0.13-0.02c-0.13-0.01-0.22-0.21-0.44-0.34c-0.16-0.09-0.16-0.17-0.16-0.34
			c0-0.14,0.07-0.27,0.06-0.4c0-0.01-0.02-0.08-0.04-0.12c-0.03-0.09-0.15-0.16-0.22-0.14c0.04,0.03,0.08,0.06,0.09,0.14
			c-0.03,0.03-0.06,0.06-0.07,0.08c-0.03,0.03-0.04,0.09,0.01,0.14c0.01,0.01,0.01,0.02,0.01,0.03c0,0.02,0,0.04-0.01,0.06
			c-0.01,0.03-0.01,0.01-0.02,0c-0.03-0.1-0.08-0.24-0.17-0.25c-0.01,0-0.05-0.01-0.06-0.01c0-0.01,0-0.01,0-0.02
			c0-0.1-0.11-0.18-0.24-0.06c0.03,0.01,0.08,0.01,0.1,0.04c-0.01,0.04-0.03,0.1-0.03,0.11c-0.01,0.11,0.07,0.15,0.19,0.15
			c0.02,0,0.03,0.01,0.03,0.02c0,0.02,0.01,0.03,0.01,0.05c0.01,0.02,0,0.02-0.01,0.01c-0.19-0.08-0.27,0.01-0.27,0.09
			c0,0.01,0,0.05,0,0.07c-0.06,0.05-0.08,0.15,0.04,0.22c0-0.03,0-0.1,0.04-0.11c0.01,0,0.02-0.01,0.03-0.01
			c0.02,0.02,0.05,0.04,0.05,0.05c0.02,0.01,0.05,0,0.11-0.04c0.01-0.01,0.03-0.01,0.04,0c0.02,0.01,0.03,0.02,0.05,0.03
			c0.01,0.01,0.01,0.02,0,0.03c-0.13,0.12-0.11,0.24,0.06,0.27c0.02,0.01,0.03,0.02,0.03,0.04c-0.01,0.23-0.31,0.19-0.3-0.04
			c-0.16,0.26,0.13,0.46,0.35,0.33c0.01-0.01,0.02,0,0.02,0.01c0.01,0.04,0.04,0.08,0.08,0.08c0-0.01,0.01-0.05,0.05-0.05
			c0.01,0,0.01,0.01,0.02,0.02c0,0.06,0.03,0.14,0.11,0.15c-0.02-0.05,0-0.09,0.03-0.09c0.05,0,0.21,0.32,0.54,0.49
			c0.06-0.02,0.15-0.02,0.19-0.09c0,0.03,0.03,0.06,0.07,0.08c0.01,0.15,0.11,0.34,0.08,0.34c-0.05,0-0.57-0.02-0.67,0.04
			c-0.15,0.08-0.52,0.22-0.63,0.06c-0.04-0.06-0.03-0.11-0.07-0.19c-0.04-0.06-0.09-0.09-0.12-0.1c-0.01,0-0.05,0-0.09,0
			c-0.06-0.07-0.2-0.08-0.25-0.03c0.05,0.01,0.1,0.02,0.14,0.09c-0.02,0.03-0.04,0.07-0.04,0.08c-0.03,0.05-0.01,0.13,0.22,0.21
			c0.02,0,0.04,0.03,0.02,0.03c-0.04,0.02-0.08,0.02-0.13-0.01c-0.09-0.07-0.11-0.18-0.22-0.11c-0.01,0-0.04,0.02-0.07,0.04
			c-0.01-0.01-0.02-0.01-0.03-0.01c-0.1-0.01-0.26,0.12-0.19,0.24c0.01-0.04,0.05-0.1,0.13-0.11c0.01,0.03,0.02,0.06,0.02,0.07
			c0.02,0.12,0.07,0.22,0.32,0.05c0.02-0.01,0.02,0.01,0.02,0.02c-0.05,0.1-0.22,0.21-0.09,0.29c0,0,0.03,0.02,0.05,0.04
			c0,0-0.01,0.02-0.01,0.02c-0.02,0.14,0.12,0.25,0.2,0.24c-0.03-0.04-0.09-0.11-0.07-0.21c0.03,0.01,0.06,0.03,0.07,0.02
			c0.12-0.05,0.06-0.19,0.13-0.24c0.02-0.01,0.03,0,0.03,0.02c0.01,0.06,0.03,0.19,0.18,0.17c0.13-0.01,0.2-0.12,0.18-0.2
			c0-0.01,0-0.01,0.02-0.01c0.04,0.03,0.08,0.08,0.07,0.15c0.02-0.01,0.07-0.05,0.1-0.1c0.03,0.07,0.03,0.16-0.06,0.24
			c0.06-0.02,0.2-0.09,0.23-0.24c0.03,0.03,0.04,0.06,0.05,0.08c0.01,0,0.01-0.01,0.01-0.01c0.05,0.02,0.14,0.02,0.28-0.01
			c0.01,0,0.02,0.01,0.02,0.01c-0.01,0.06-0.01,0.11,0.02,0.14c0-0.02,0.04-0.07,0.06-0.07c0.04,0,0,0.14,0.08,0.22
			c0.03-0.36,0.46-0.18,0.68-0.32c0.03-0.02,0.03-0.01,0.02,0.01c-0.02,0.04-0.05,0.09-0.1,0.12c0.06,0,0.17-0.04,0.25-0.09
			C88.74,64.56,89.01,64.45,88.99,64.35 M88.55,62.2c-0.04,0.07-0.13,0.13-0.2,0.06c-0.07-0.07,0.01-0.08-0.08-0.22
			C88.36,62.09,88.51,62.19,88.55,62.2 M88.71,62.69c-0.02,0.01-0.02-0.08-0.07-0.08c-0.04-0.01-0.04,0.03-0.01,0.09
			c-0.06-0.02-0.12-0.05-0.15,0c-0.03,0.05-0.02,0.09,0.02,0.13c0.02,0.02,0,0.07-0.02,0.13c-0.02,0.06-0.1,0.14-0.18,0.09
			c-0.1-0.05-0.08-0.15-0.06-0.21c0.03-0.05,0.05-0.09,0.08-0.09c0.05,0,0.09-0.01,0.1-0.07c0.02-0.07-0.04-0.09-0.09-0.13
			c0.06-0.02,0.09-0.04,0.06-0.08c-0.04-0.03-0.1,0.02-0.1,0c-0.01-0.03,0.03-0.05,0.05-0.07c0.02-0.03,0.05-0.01,0.08,0l0.25,0.12
			c0.03,0.02,0.05,0.03,0.05,0.07C88.73,62.63,88.74,62.68,88.71,62.69 M88.86,62.51c-0.09,0-0.13-0.13-0.11-0.21
			c0.04,0.03,0.22,0.1,0.31,0.12C88.92,62.45,88.95,62.51,88.86,62.51"/>
		<path class="st0" d="M105.06,68.68c0-0.01,0-0.03,0.01-0.04c0.05-0.03,0.09-0.1,0.08-0.21c-0.05,0.07-0.22,0.15-0.23,0.01
			c0-0.01,0-0.11-0.15-0.08c-0.24,0.02-0.48-0.03-0.94-0.07c-0.03,0-0.05-0.02,0-0.03c0.56-0.03,1.31-0.1,1.31-0.41
			c0-0.25-0.28-0.41-1.08-0.41c-0.81,0-3.3,0.29-3.3-0.16c0-0.29,0.84-0.17,1.46-0.15c0.03,0.04,0.09,0.08,0.18,0.11
			c1.05,0.3,2.23-0.48,2.86-0.3c-0.82-0.29-1.34,0.21-2.13,0.04c0.47,0,0.95-0.09,0.98-0.22c-0.37,0.23-1.37-0.16-1.8,0.1
			c-0.03,0.02-0.05,0.04-0.07,0.07c-0.77-0.01-1.71-0.11-1.71,0.35c0,0.81,2.84,0.34,3.52,0.34c0.68,0,0.83,0.07,0.83,0.2
			c0,0.19-0.68,0.24-1.06,0.24c-0.64,0-3.29-0.35-4.34-0.03c0.06-0.18,0.32-0.45,0.2-0.59c0.1-0.04,0.16-0.12,0.17-0.21
			c-0.06-0.06-0.13-0.08-0.2-0.09c0.03-0.05-0.01-0.1-0.05-0.14c-0.01-0.02-0.04-0.12-0.06-0.14c-0.04-0.03-0.12-0.1-0.24-0.16
			c-0.12-0.06-0.19-0.06-0.24-0.07c-0.03-0.01-0.14,0.03-0.15,0.02c-0.06-0.01-0.13-0.01-0.14,0.07c-0.05-0.05-0.12-0.08-0.19-0.09
			c-0.04,0.09-0.06,0.17-0.03,0.3c-0.1,0-0.2,0.25-0.29,0.22c0.03,0.07,0.06,0.09,0.09,0.1c-0.08,0.14-0.11,0.32-0.2,0.32
			c0.05,0.08,0.1,0.11,0.13,0.12c-0.01,0.08-0.02,0.16-0.02,0.24l-0.14-0.05c-0.05,0-0.11,0-0.13-0.01
			c-0.03-0.01-0.08-0.02-0.13-0.02c-0.13-0.01-0.23-0.22-0.44-0.34c-0.16-0.1-0.16-0.17-0.16-0.34c0-0.14,0.06-0.27,0.06-0.39
			c0-0.02-0.03-0.09-0.04-0.13c-0.02-0.08-0.14-0.15-0.21-0.14c0.04,0.03,0.08,0.06,0.09,0.14c-0.03,0.03-0.06,0.07-0.06,0.07
			c-0.03,0.04-0.04,0.09,0.01,0.14c0.01,0.01,0.01,0.02,0.01,0.03c0,0.02,0,0.04-0.01,0.07c-0.01,0.02-0.02,0.01-0.02,0
			c-0.03-0.1-0.08-0.24-0.17-0.25c-0.01,0-0.05-0.01-0.07,0c0-0.01,0-0.02,0-0.02c0-0.1-0.11-0.19-0.24-0.06
			c0.03,0,0.08,0.01,0.1,0.04c-0.01,0.04-0.03,0.1-0.03,0.11c-0.01,0.1,0.07,0.15,0.18,0.15c0.02,0,0.03,0.01,0.04,0.03
			c0,0.01,0.01,0.03,0.01,0.04c0.01,0.02,0,0.02-0.01,0.02c-0.19-0.08-0.27,0-0.27,0.09c0,0,0,0.05,0,0.08
			c-0.06,0.04-0.08,0.14,0.04,0.21c0-0.03-0.01-0.1,0.04-0.11c0.01,0,0.02,0,0.03-0.01c0.02,0.02,0.05,0.04,0.05,0.04
			c0.02,0.01,0.04,0,0.11-0.04c0.01,0,0.02-0.01,0.04,0c0.02,0.01,0.04,0.02,0.06,0.04c0.01,0.01,0.01,0.02,0,0.03
			c-0.12,0.12-0.1,0.24,0.06,0.27c0.02,0,0.02,0.02,0.02,0.04c-0.01,0.23-0.32,0.18-0.3-0.04c-0.17,0.26,0.13,0.46,0.35,0.32
			c0.02-0.01,0.03,0,0.03,0.01c0.01,0.04,0.04,0.08,0.07,0.08c0-0.01,0.01-0.05,0.05-0.05c0.02,0,0.02,0.01,0.02,0.02
			c0,0.06,0.03,0.14,0.11,0.15c-0.01-0.05,0-0.09,0.03-0.09c0.04,0,0.19,0.33,0.52,0.52c-0.01-0.03,0.13-0.08,0.2-0.12
			c0.01,0.06,0.05,0.12,0.11,0.15l0.06-0.03c-0.02,0.15,0.16,0.31,0.12,0.31c-0.05,0-0.36-0.04-0.46,0.02
			c-0.16,0.08-0.52,0.22-0.64,0.06c-0.04-0.06-0.03-0.11-0.07-0.19c-0.03-0.06-0.08-0.1-0.12-0.1c0,0-0.05,0-0.09,0
			c-0.07-0.06-0.2-0.08-0.26-0.03c0.05,0.01,0.1,0.02,0.15,0.1c-0.02,0.03-0.04,0.07-0.04,0.08c-0.03,0.05-0.01,0.13,0.22,0.21
			c0.01,0,0.03,0.03,0.02,0.03c-0.04,0.01-0.09,0.02-0.14-0.01c-0.09-0.07-0.1-0.18-0.21-0.11c-0.01,0-0.04,0.01-0.07,0.03
			c-0.01,0-0.02-0.01-0.03-0.01c-0.1-0.01-0.26,0.12-0.19,0.24c0.01-0.03,0.05-0.1,0.13-0.1c0.01,0.03,0.02,0.06,0.02,0.07
			c0.03,0.13,0.08,0.22,0.32,0.05c0.03-0.02,0.03,0.01,0.02,0.01c-0.06,0.1-0.22,0.21-0.09,0.28c0,0,0.03,0.03,0.05,0.04
			c0,0.01-0.01,0.02-0.01,0.03c-0.02,0.14,0.13,0.24,0.2,0.24c-0.03-0.04-0.09-0.11-0.07-0.21c0.03,0.01,0.06,0.03,0.07,0.02
			c0.11-0.05,0.06-0.19,0.13-0.24c0.02-0.01,0.03,0,0.03,0.02c0.01,0.06,0.04,0.19,0.18,0.18c0.13-0.02,0.2-0.12,0.18-0.2
			c-0.01-0.01,0-0.02,0.02-0.01c0.05,0.03,0.08,0.08,0.07,0.15c0.02-0.02,0.08-0.05,0.1-0.1c0.03,0.06,0.04,0.15-0.06,0.24
			c0.05-0.02,0.19-0.09,0.23-0.24c0.02,0.03,0.04,0.06,0.05,0.08c0,0,0.01-0.01,0.01-0.01c0.05,0.02,0.14,0.03,0.28-0.01
			c0.02,0,0.02,0,0.02,0.01c-0.01,0.05-0.01,0.12,0.02,0.15c0-0.02,0.04-0.08,0.06-0.08c0.04,0-0.01,0.14,0.08,0.23
			c0.03-0.36,0.22-0.22,0.45-0.36c0.03-0.02,0.03-0.01,0.02,0.01c-0.02,0.04-0.05,0.09-0.1,0.12c0.08,0.07,0.41-0.14,0.41-0.27
			c0-0.03,0.12-0.05,0.23-0.07c0.23,0.01,0.2-0.17,0.3-0.16c1.32,0.18,0.56-0.57,2.12-0.42c0.08,0.01,0.11-0.08,0.18-0.14
			c-0.08,0.14-0.08,0.46,0.07,0.49c0.07,0.01,0.22,0.06,0.27,0.11c0.01,0.02,0,0.03-0.01,0.03c-0.09,0.01-0.19,0.04-0.22,0.06
			c-0.24,0.16-0.25-0.37-0.5-0.27c-0.02,0.01-0.06,0.04-0.07,0.05c-0.11,0-0.24,0.12-0.22,0.22c0.03-0.03,0.08-0.08,0.17-0.09
			c0,0.03,0,0.05,0,0.05c0,0.04,0.01,0.08,0.1,0.08c0.05,0,0.06-0.03,0.1-0.03c0.01,0,0.03,0.01,0.03,0.03
			c0,0.1-0.32-0.05-0.26,0.21c0,0.01,0.03,0.06,0.05,0.09c-0.01,0.08,0.06,0.16,0.2,0.12c-0.03-0.02-0.08-0.06-0.07-0.1
			c0.03,0,0.06,0,0.07,0.01c0.01,0,0.02-0.01,0.03-0.05c0-0.01,0.01-0.01,0.02-0.01c0.01,0,0.02,0.01,0.02,0.02
			c0,0.02-0.02,0.03-0.02,0.06c0,0.01,0.01,0.07,0.03,0.08c-0.01,0.1,0.13,0.2,0.27,0.1c-0.04-0.01-0.12-0.02-0.14-0.07
			c0.03-0.01,0.07-0.02,0.07-0.03c0.02-0.02,0.03-0.06,0.03-0.1c0-0.03,0.01-0.03,0.03-0.03h0.07c0.03,0,0.04,0.01,0.05,0.02
			c0.03,0.06,0.1,0.12,0.2,0.08c0.17-0.06,0.02-0.21,0.16-0.24c0.03,0,0.07-0.01,0.1,0c0.14,0.03,0.34,0.03,0.37-0.03
			c0.04-0.07,0.02-0.31-0.13-0.4c-0.08-0.04,0.01-0.15-0.07-0.27c0.15,0.06,0.3,0.13,0.51,0.13c0.37,0,0.48-0.06,0.66-0.16
			c0.19-0.11,0.4-0.06,0.45-0.05c0.05,0.01,0.08,0.03,0.06,0.09c-0.05,0.19,0,0.21-0.04,0.3c-0.05,0.07-0.2,0.01-0.31,0.01
			c-0.06-0.01-0.11,0.04-0.12,0.05c-0.1,0.02-0.21,0.1-0.21,0.21c0.03-0.02,0.1-0.08,0.17-0.08v0.04c0.01,0.13,0.14,0.18,0.23,0.09
			c0.02-0.01,0.05,0,0.03,0.02c-0.09,0.06-0.23,0.18-0.12,0.23c0,0,0.03,0.02,0.07,0.04c-0.02,0.08,0.04,0.16,0.1,0.17
			c-0.02-0.04-0.02-0.07,0.02-0.15h0.07c0.08,0.01,0.05-0.16,0.15-0.21c0.01-0.01,0.02-0.01,0.02,0.01
			c-0.04,0.09-0.07,0.21,0.01,0.24c0,0,0.04,0.01,0.07,0.02c0.02,0.07,0.11,0.12,0.22,0.07c-0.03-0.01-0.09-0.04-0.09-0.08
			c0.03-0.03,0.06-0.08,0.06-0.09c0.08-0.2-0.09-0.2-0.08-0.28c0.01-0.1,0.19-0.03,0.21-0.23c0-0.03-0.01-0.09-0.07-0.12
			c0-0.01,0-0.01,0-0.01h0c0.06,0,0.11,0.01,0.14-0.07C105.02,68.89,105.08,68.77,105.06,68.68 M99.22,67.17
			c0.04,0.03,0.23,0.1,0.32,0.12c-0.14,0.03-0.11,0.09-0.2,0.09C99.23,67.37,99.2,67.25,99.22,67.17 M99.02,67.07
			c-0.04,0.08-0.12,0.13-0.2,0.06c-0.07-0.07,0-0.08-0.08-0.22C98.82,66.97,98.97,67.07,99.02,67.07 M98.72,67.72
			c0.02-0.06,0.05-0.1,0.08-0.1c0.06,0,0.09-0.01,0.1-0.07c0.03-0.06-0.03-0.08-0.09-0.12c0.06-0.02,0.09-0.05,0.06-0.07
			c-0.04-0.03-0.1,0.02-0.11,0c-0.01-0.03,0.04-0.05,0.06-0.06c0.02-0.02,0.04-0.02,0.08,0l0.25,0.12c0.04,0.02,0.06,0.03,0.06,0.07
			c0,0.03,0.01,0.07-0.02,0.08c-0.03,0.01-0.03-0.07-0.07-0.09c-0.04,0-0.04,0.04-0.01,0.1c-0.07-0.02-0.12-0.05-0.15,0.01
			c-0.02,0.05-0.02,0.08,0.02,0.13c0.02,0.02,0,0.07-0.02,0.13c-0.02,0.06-0.1,0.14-0.18,0.09C98.68,67.87,98.7,67.77,98.72,67.72"
			/>
		<path class="st0" d="M101.48,70.37c0.02,0.05,0.08,0.1,0.18,0.12c1,0.29,2.13-0.46,2.73-0.28c-0.78-0.28-1.27,0.2-2.03,0.04
			c0.44-0.01,0.9-0.09,0.93-0.21c-0.34,0.22-1.31-0.15-1.72,0.1c-0.02,0.01-0.05,0.03-0.06,0.05c-0.41-0.01-0.99-0.02-0.99,0.35
			c0,0.77,2.07,0.32,2.71,0.32c0.5,0,0.57,0.06,0.57,0.19c0,0.18-0.74,0.23-1.1,0.23c-0.56,0-2.25-0.29-3.27-0.09
			c0.08-0.17,0.26-0.38,0.17-0.5c0.09-0.04,0.16-0.12,0.16-0.2c-0.06-0.05-0.13-0.08-0.19-0.08c0.03-0.04-0.01-0.1-0.05-0.14
			c-0.01-0.01-0.04-0.12-0.06-0.14c-0.04-0.03-0.11-0.09-0.23-0.15c-0.11-0.06-0.18-0.06-0.23-0.07c-0.03,0-0.13,0.03-0.14,0.02
			c-0.05,0-0.12,0-0.13,0.06c-0.05-0.04-0.12-0.07-0.18-0.08c-0.04,0.09-0.05,0.15-0.02,0.28c-0.1,0.01-0.19,0.24-0.28,0.21
			c0.03,0.06,0.06,0.09,0.09,0.1c-0.07,0.14-0.11,0.3-0.19,0.31c0.03,0.04,0.06,0.07,0.08,0.09c-0.03,0.09-0.05,0.2-0.05,0.29
			l-0.09-0.03c-0.02,0-0.03-0.01-0.04-0.01c-0.12-0.01-0.19,0.01-0.4-0.12c-0.15-0.08-0.16-0.16-0.16-0.32
			c0-0.13,0.06-0.26,0.05-0.38c0-0.01-0.02-0.09-0.04-0.12c-0.03-0.09-0.14-0.15-0.2-0.13c0.03,0.02,0.07,0.06,0.08,0.14
			c-0.03,0.02-0.06,0.06-0.06,0.06c-0.03,0.04-0.04,0.09,0,0.14c0.01,0.01,0.01,0.02,0.01,0.03c0,0.01-0.01,0.03-0.01,0.06
			c0,0.03-0.01,0.01-0.01,0c-0.03-0.1-0.08-0.24-0.17-0.24c-0.01,0-0.04-0.01-0.06,0c0,0,0-0.01,0-0.02c0-0.1-0.11-0.17-0.23-0.05
			c0.03,0,0.07,0.01,0.09,0.04c-0.01,0.03-0.02,0.09-0.02,0.1c-0.01,0.1,0.07,0.14,0.18,0.14c0.02,0,0.02,0.01,0.03,0.02
			c0,0.02,0.01,0.03,0.02,0.05c0,0.02-0.01,0.01-0.02,0.01c-0.17-0.08-0.25,0-0.25,0.08c0,0,0,0.05,0,0.07
			c-0.06,0.05-0.07,0.13,0.04,0.21c0-0.03-0.01-0.1,0.04-0.11c0,0,0.02-0.01,0.02-0.01c0.02,0.02,0.04,0.04,0.04,0.04
			c0.02,0.01,0.05,0,0.1-0.04c0.02-0.01,0.03-0.01,0.05,0c0.01,0.01,0.03,0.02,0.05,0.03c0.01,0.01,0.01,0.02,0,0.03
			c-0.12,0.12-0.1,0.23,0.06,0.26c0.01,0.01,0.02,0.02,0.02,0.04c-0.01,0.22-0.3,0.18-0.29-0.04c-0.16,0.25,0.12,0.44,0.34,0.31
			c0.01-0.01,0.01,0,0.02,0.01c0.01,0.04,0.04,0.08,0.07,0.08c0-0.01,0.02-0.04,0.05-0.04c0.01,0,0.02,0.01,0.02,0.02
			c0,0.06,0.02,0.13,0.1,0.14c-0.01-0.04,0-0.08,0.03-0.08c0.04,0,0.03-0.1,0.3,0.05c0.02,0.04,0.05,0.08,0.1,0.1l0.19-0.03
			c-0.02,0.15,0.02,0.38-0.01,0.38c-0.05,0-0.34-0.04-0.44,0.02c-0.14,0.08-0.5,0.2-0.6,0.06c-0.04-0.05-0.03-0.1-0.07-0.18
			c-0.03-0.05-0.08-0.09-0.11-0.09h-0.08c-0.06-0.06-0.19-0.07-0.24-0.03c0.04,0.01,0.09,0.02,0.14,0.09
			c-0.02,0.03-0.03,0.07-0.04,0.07c-0.03,0.05-0.01,0.12,0.21,0.2c0.01,0,0.03,0.03,0.01,0.04c-0.03,0.01-0.08,0.02-0.12-0.02
			c-0.08-0.07-0.1-0.16-0.2-0.11c-0.01,0.01-0.04,0.02-0.07,0.04c0,0-0.02-0.01-0.03-0.01c-0.1-0.01-0.25,0.12-0.19,0.23
			c0.02-0.03,0.06-0.09,0.13-0.1c0.01,0.03,0.02,0.06,0.02,0.07c0.02,0.12,0.07,0.21,0.3,0.05c0.03-0.02,0.03,0,0.02,0.01
			c-0.05,0.1-0.21,0.2-0.09,0.27c0,0,0.03,0.03,0.06,0.04c-0.01,0.01-0.01,0.01-0.01,0.03c-0.02,0.12,0.12,0.23,0.2,0.22
			c-0.04-0.03-0.09-0.1-0.07-0.2c0.03,0.01,0.06,0.02,0.07,0.02c0.11-0.04,0.06-0.18,0.12-0.22c0.02-0.01,0.03-0.01,0.03,0.01
			c0,0.06,0.03,0.18,0.17,0.17c0.13-0.02,0.19-0.12,0.17-0.19c0-0.01,0-0.02,0.02-0.01c0.05,0.03,0.08,0.08,0.06,0.14
			c0.03-0.01,0.08-0.05,0.1-0.1c0.03,0.06,0.03,0.15-0.06,0.24c0.06-0.02,0.19-0.08,0.22-0.23c0.02,0.02,0.04,0.05,0.05,0.07
			c0.01-0.01,0.01-0.01,0.01-0.01c0.05,0.02,0.13,0.03,0.27,0c0.01,0,0.02,0,0.02,0.01c-0.01,0.06-0.01,0.11,0.02,0.14
			c0-0.02,0.03-0.08,0.05-0.08c0.04,0,0,0.14,0.08,0.22c0.03-0.34,0.31-0.26,0.52-0.4c0.03-0.02,0.03-0.01,0.02,0.01
			c-0.01,0.04-0.04,0.08-0.09,0.11c0.23,0.14,0.47-0.17,0.53-0.35c0.03-0.02,0.05-0.04,0.06-0.07c0.01,0.03,0.02,0.07-0.04,0.1
			c0.23,0.02,0.19-0.16,0.29-0.15c0.67,0.07,0.15-0.56,1.24-0.38c0.07,0.01,0.2-0.06,0.26-0.12c-0.08,0.14-0.08,0.44,0.07,0.47
			c0.07,0.01,0.2,0.06,0.26,0.11c0.02,0.02,0,0.02-0.01,0.02c-0.08,0.01-0.18,0.04-0.21,0.06c-0.23,0.16-0.24-0.34-0.48-0.25
			c-0.01,0.01-0.05,0.03-0.07,0.05c-0.1,0-0.23,0.12-0.21,0.21c0.03-0.03,0.08-0.08,0.16-0.09c0,0.02,0,0.05,0,0.06
			c0,0.04,0.01,0.08,0.09,0.08c0.05,0,0.06-0.02,0.09-0.02c0.02,0,0.03,0.01,0.03,0.03c0,0.1-0.3-0.05-0.25,0.2
			c0.01,0.01,0.03,0.06,0.05,0.08c-0.01,0.08,0.05,0.16,0.19,0.11c-0.02-0.02-0.07-0.05-0.06-0.09c0.02,0.01,0.06,0.01,0.06,0.01
			c0.01,0,0.03-0.01,0.03-0.04c0-0.01,0-0.01,0.01-0.01c0.01,0,0.03,0.01,0.03,0.02c0,0.02-0.02,0.03-0.02,0.05
			c0,0.01,0.01,0.08,0.02,0.08c-0.01,0.09,0.13,0.19,0.26,0.1c-0.04-0.01-0.12-0.02-0.13-0.07c0.03-0.01,0.06-0.03,0.07-0.03
			c0.02-0.01,0.02-0.05,0.02-0.09c0-0.02,0.01-0.03,0.03-0.03c0.02,0,0.04,0,0.07,0c0.03-0.01,0.04,0.01,0.04,0.02
			c0.03,0.06,0.1,0.11,0.19,0.08c0.17-0.06,0.02-0.2,0.16-0.22c0.02-0.01,0.07-0.01,0.1-0.01c0.13,0.03,0.32,0.03,0.36-0.03
			c0.04-0.07,0.02-0.3-0.13-0.38c-0.08-0.04,0.01-0.14-0.07-0.26c0.15,0.06,0.29,0.12,0.49,0.12c0.35,0,0.52-0.05,0.7-0.15
			c0.2-0.11,0.39-0.06,0.44-0.04c0.04,0.01,0.07,0.03,0.04,0.09c-0.08,0.18-0.03,0.2-0.09,0.29c-0.05,0.07-0.19,0.01-0.29,0
			c-0.06,0-0.12,0.04-0.12,0.05c-0.1,0.01-0.22,0.09-0.24,0.2c0.03-0.02,0.11-0.07,0.18-0.08c-0.01,0.02-0.01,0.04-0.01,0.04
			c-0.02,0.13,0.11,0.17,0.21,0.08c0.01-0.02,0.05,0,0.02,0.02c-0.08,0.06-0.24,0.17-0.15,0.23c0.01,0,0.03,0.01,0.06,0.03
			c-0.03,0.07,0.01,0.16,0.07,0.17c-0.01-0.04-0.01-0.07,0.05-0.15c0.02,0,0.06,0,0.06,0c0.07,0,0.08-0.16,0.18-0.2
			c0.01-0.01,0.02,0,0.01,0.01c-0.05,0.09-0.1,0.2-0.02,0.23c0,0,0.03,0.01,0.06,0.01c0.01,0.07,0.08,0.12,0.2,0.07
			c-0.02-0.01-0.07-0.04-0.08-0.07c0.03-0.03,0.07-0.07,0.08-0.08c0.11-0.19-0.05-0.19-0.03-0.28c0.02-0.09,0.19-0.03,0.24-0.22
			c0.01-0.03,0.01-0.09-0.05-0.12c0,0,0,0,0-0.01h0c0.05,0,0.1,0.01,0.15-0.06c-0.14,0.01-0.07-0.11-0.07-0.18
			c0-0.01,0-0.03,0.02-0.04c0.05-0.03,0.1-0.1,0.11-0.2c-0.06,0.06-0.23,0.13-0.21,0c0,0,0.01-0.1-0.13-0.07
			c-0.24,0.02-0.58-0.03-1.01-0.07c-0.03,0-0.05-0.02,0-0.03c0.44-0.04,1.36-0.07,1.36-0.43c0-0.16-0.11-0.39-0.82-0.35
			c-0.77,0.04-2.51,0.29-2.51-0.14C100.73,70.32,101.21,70.35,101.48,70.37 M99.15,70.41c0.03,0.03,0.22,0.1,0.3,0.12
			c-0.15,0.03-0.11,0.08-0.2,0.08C99.16,70.61,99.13,70.49,99.15,70.41 M98.96,70.31c-0.04,0.07-0.12,0.13-0.19,0.06
			c-0.07-0.07,0-0.09-0.07-0.21C98.77,70.22,98.92,70.31,98.96,70.31 M98.67,70.94c0.03-0.05,0.05-0.09,0.08-0.09
			c0.05,0,0.08-0.01,0.1-0.06c0.02-0.06-0.04-0.09-0.09-0.12c0.06-0.02,0.09-0.04,0.06-0.07c-0.04-0.03-0.09,0.02-0.1-0.01
			c-0.01-0.03,0.03-0.04,0.04-0.06c0.02-0.03,0.05-0.02,0.08,0l0.25,0.12c0.03,0.02,0.05,0.03,0.04,0.06c0,0.02,0.01,0.07-0.02,0.08
			c-0.02,0.01-0.02-0.07-0.07-0.08c-0.04-0.01-0.03,0.03-0.01,0.09c-0.06-0.02-0.11-0.05-0.14,0c-0.03,0.05-0.01,0.08,0.02,0.13
			c0.02,0.02,0,0.07-0.02,0.12c-0.02,0.06-0.09,0.14-0.17,0.09C98.63,71.08,98.65,70.99,98.67,70.94"/>
		<path class="st0" d="M100.71,73.57c0.02,0.05,0.08,0.1,0.18,0.13c0.99,0.29,2.13-0.47,2.73-0.29c-0.78-0.27-1.28,0.2-2.03,0.04
			c0.44,0,0.9-0.09,0.93-0.21c-0.34,0.22-1.31-0.15-1.72,0.11c-0.03,0.02-0.06,0.04-0.08,0.07c-0.31,0.07-0.57,0.24-0.57,0.46
			c0,0.29,0.37,0.37,1.07,0.34c0.69-0.03,1.47-0.11,1.47,0.01c0,0.18-0.5,0.34-1.16,0.34c-0.51,0-1.39-0.34-2.49-0.06v-0.01
			c0.08-0.19,0.31-0.47,0.21-0.59c0.09-0.03,0.15-0.11,0.15-0.18c-0.05-0.05-0.12-0.07-0.18-0.08c0.03-0.05,0-0.1-0.04-0.13
			c-0.01-0.01-0.03-0.11-0.05-0.13c-0.03-0.03-0.1-0.09-0.21-0.15c-0.11-0.05-0.18-0.05-0.22-0.06c-0.03,0-0.12,0.02-0.13,0.02
			c-0.05,0-0.11,0-0.12,0.06c-0.04-0.05-0.1-0.07-0.17-0.08c-0.04,0.08-0.05,0.15-0.02,0.26c-0.09,0.01-0.17,0.23-0.26,0.21
			c0.03,0.06,0.06,0.09,0.08,0.09c-0.07,0.13-0.1,0.29-0.19,0.29c0.04,0.05,0.07,0.08,0.09,0.1c-0.05,0.19-0.07,0.44-0.05,0.62
			c-0.15-0.16-0.39-0.53-0.54-0.62c-0.14-0.08-0.15-0.15-0.15-0.3c0-0.13,0.06-0.25,0.05-0.37c0-0.01-0.02-0.08-0.04-0.11
			c-0.02-0.08-0.13-0.14-0.19-0.13c0.03,0.02,0.07,0.06,0.08,0.13c-0.03,0.02-0.06,0.06-0.06,0.07c-0.03,0.04-0.04,0.08,0,0.13
			c0.01,0.01,0.01,0.01,0.01,0.03c0,0.01,0,0.03-0.01,0.06c0,0.03-0.01,0.01-0.02,0c-0.03-0.09-0.08-0.22-0.15-0.23
			c-0.01,0-0.05-0.01-0.06,0c0-0.01,0-0.01,0-0.02c0-0.09-0.1-0.17-0.22-0.05c0.03,0,0.07,0.01,0.09,0.03
			c-0.01,0.03-0.02,0.09-0.02,0.1c-0.01,0.09,0.06,0.13,0.16,0.13c0.02,0,0.03,0.01,0.03,0.02c0,0.02,0,0.02,0.01,0.04
			c0,0.02-0.01,0.02-0.01,0.01c-0.17-0.07-0.24,0.01-0.24,0.08c0,0,0,0.05,0,0.07c-0.06,0.04-0.07,0.13,0.04,0.2
			c0-0.03,0-0.09,0.03-0.1c0.01,0,0.02-0.01,0.02-0.01c0.01,0.02,0.04,0.04,0.04,0.04c0.02,0.01,0.04,0,0.1-0.03
			c0.01,0,0.02-0.01,0.04,0c0.01,0.01,0.03,0.02,0.05,0.03c0.01,0.01,0.01,0.02,0,0.03c-0.11,0.11-0.09,0.21,0.06,0.24
			c0.02,0,0.02,0.02,0.02,0.03c-0.02,0.21-0.29,0.17-0.27-0.04c-0.15,0.24,0.12,0.42,0.32,0.3c0.01-0.01,0.02,0,0.02,0.01
			c0.01,0.04,0.03,0.06,0.07,0.07c0-0.01,0.01-0.05,0.05-0.05c0.01,0,0.02,0.01,0.02,0.02c0,0.06,0.02,0.13,0.1,0.13
			c-0.01-0.04,0-0.08,0.02-0.08c0.04,0,0,0.32,0.29,0.49c0.05,0.18,0.2,0.27,0.36,0.26c0.05,0.12,0.12,0.24,0.1,0.24
			c-0.04,0-0.39-0.03-0.49,0.01c-0.05,0.03-0.14,0.06-0.27,0.1c0,0-0.06,0.02-0.06,0.02c-0.1,0.02-0.19,0.01-0.24-0.06
			c-0.03-0.05-0.02-0.1-0.07-0.17c-0.03-0.06-0.08-0.09-0.11-0.09c-0.01,0-0.05,0-0.08,0c-0.06-0.06-0.18-0.06-0.23-0.02
			c0.04,0,0.09,0.01,0.13,0.08c-0.01,0.02-0.03,0.06-0.04,0.07c-0.03,0.04-0.01,0.12,0.21,0.2c0.01,0,0.03,0.02,0.01,0.03
			c-0.03,0.01-0.08,0.02-0.12-0.01c-0.08-0.07-0.09-0.16-0.19-0.1c0,0-0.04,0.02-0.06,0.03c-0.01,0-0.02-0.01-0.03-0.01
			c-0.09-0.01-0.24,0.11-0.17,0.22c0.01-0.03,0.05-0.08,0.12-0.1c0,0.03,0.02,0.06,0.02,0.07c0.02,0.11,0.07,0.2,0.29,0.05
			c0.02-0.01,0.02,0.01,0.02,0.02c-0.05,0.09-0.2,0.19-0.08,0.26c0,0,0.03,0.02,0.04,0.04c0,0.01,0,0.02,0,0.02
			c-0.02,0.13,0.11,0.22,0.18,0.21c-0.03-0.03-0.09-0.1-0.07-0.19c0.03,0.01,0.06,0.02,0.07,0.02c0.1-0.04,0.06-0.17,0.11-0.21
			c0.02-0.01,0.03-0.01,0.03,0.01c0.01,0.05,0.03,0.17,0.16,0.16c0.12-0.01,0.18-0.11,0.17-0.18c-0.01-0.01,0-0.02,0.01-0.01
			c0.04,0.02,0.07,0.07,0.07,0.14c0.02-0.01,0.07-0.05,0.09-0.09c0.02,0.06,0.03,0.14-0.06,0.22c0.05-0.01,0.18-0.08,0.21-0.21
			c0.02,0.02,0.04,0.04,0.05,0.07c0,0,0-0.01,0.01-0.01c0.04,0.02,0.13,0.03,0.25-0.01c0.02,0,0.02,0.01,0.02,0.02
			c-0.01,0.05-0.01,0.1,0.01,0.13c0-0.01,0.04-0.07,0.06-0.07c0.04,0,0,0.12,0.07,0.2c0.03-0.32,0.21-0.19,0.41-0.33
			c0.02-0.01,0.03-0.01,0.02,0.01c-0.02,0.04-0.04,0.08-0.09,0.11c0.08,0,0.31-0.1,0.31-0.22c0-0.04,0.15-0.17,0.19-0.55
			c0.03,0,0.05,0,0.08,0c0.27-0.02,0.39-0.22,0.67-0.23c-0.07,0.08-0.09,0.26-0.09,0.39c0.01,0.16,0.19,0.31,0.25,0.36
			c0.01,0.02,0,0.02-0.01,0.03c-0.08,0.01-0.17,0.03-0.2,0.05c-0.22,0.15-0.22-0.32-0.45-0.24c-0.01,0-0.05,0.03-0.07,0.05
			c-0.09,0-0.22,0.11-0.19,0.2c0.03-0.03,0.08-0.08,0.15-0.09c0,0.02,0,0.05,0,0.05c0,0.04,0.01,0.08,0.09,0.08
			c0.05,0,0.06-0.02,0.09-0.02c0.01,0,0.03,0.01,0.03,0.03c0,0.09-0.29-0.05-0.24,0.19c0,0.01,0.02,0.05,0.04,0.07
			c-0.01,0.07,0.06,0.15,0.18,0.11c-0.03-0.02-0.07-0.05-0.06-0.09c0.02,0,0.05,0,0.06,0c0.01,0,0.02-0.01,0.04-0.04
			c0-0.01,0-0.01,0.01-0.01c0.01,0.01,0.02,0.01,0.02,0.02c0,0.02-0.02,0.03-0.01,0.05c0,0.01,0.01,0.07,0.02,0.08
			c-0.01,0.09,0.12,0.18,0.25,0.09c-0.04,0-0.12-0.02-0.13-0.06c0.03-0.01,0.06-0.02,0.06-0.02c0.02-0.01,0.03-0.05,0.03-0.09
			c0-0.02,0.02-0.02,0.02-0.02c0.02-0.01,0.04-0.01,0.06-0.01c0.03,0,0.04,0.01,0.05,0.02c0.02,0.06,0.09,0.1,0.18,0.08
			c0.16-0.05,0.03-0.19,0.15-0.22c0.02-0.01,0.06-0.01,0.09,0c0.12,0.02,0.22,0.05,0.25-0.01c0.04-0.06,0.02-0.28-0.12-0.35
			c-0.07-0.04,0.12-0.53-0.26-0.76c0.17,0.05,0.74,0.12,0.83-0.01c0.17,0.04,0.36,0.16,0.39,0.19c0.02,0.03,0.03,0.07-0.02,0.1
			c-0.15,0.1-0.13,0.14-0.21,0.17l-0.01,0.01c-0.05-0.05-0.1-0.12-0.15-0.15c-0.05-0.03-0.11-0.01-0.11,0
			c-0.08-0.02-0.2,0.01-0.24,0.1c0.04-0.01,0.11-0.03,0.17-0.01c-0.01,0.01-0.02,0.03-0.02,0.04c-0.01,0.03,0,0.05,0.04,0.08h0h0
			c0,0,0.01,0,0.01,0.01c0.01,0.01,0.01,0.02-0.01,0.02c-0.08-0.01-0.25-0.02-0.21,0.08c0,0.01,0.01,0.04,0.02,0.06
			c-0.06,0.05-0.08,0.13-0.04,0.19c0.02-0.04,0.03-0.06,0.11-0.09c0.01,0.02,0.03,0.04,0.04,0.04c0.05,0.05,0.13-0.07,0.22-0.04
			c0,0,0.02,0.02,0,0.02c-0.08,0.04-0.16,0.1-0.13,0.17c0,0.01,0.01,0.03,0.03,0.05c-0.03,0.06-0.01,0.16,0.1,0.19
			c0-0.02-0.02-0.08-0.01-0.12c0.04,0,0.09-0.01,0.1-0.01c0.16-0.09,0.06-0.2,0.12-0.25c0.06-0.05,0.14,0.11,0.27-0.01
			c0.02-0.02,0.06-0.07,0.03-0.13c0-0.01,0-0.01,0-0.01v0c0.04,0.04,0.06,0.08,0.13,0.05c-0.1-0.09,0.01-0.13,0.06-0.2
			c0-0.01,0.01-0.02,0.02-0.01c0.05,0.01,0.12-0.01,0.18-0.09c-0.07,0.01-0.26-0.1-0.15-0.15c0.17-0.06,0.2-0.15,0.13-0.24
			c-0.13-0.18-0.41-0.19-0.42-0.38c0.12,0,0.23,0,0.25-0.01c0.86,0.01,1.41-0.24,1.39-0.51c-0.01-0.22-0.24-0.3-0.86-0.26
			c-0.76,0.05-1.74,0.15-1.74-0.11C100.34,73.74,100.51,73.64,100.71,73.57 M98.66,73.57c-0.03,0.06-0.11,0.12-0.17,0.05
			c-0.06-0.06,0-0.08-0.07-0.2C98.49,73.48,98.62,73.56,98.66,73.57 M98.81,74.02c-0.02,0-0.02-0.07-0.06-0.08
			c-0.04,0-0.04,0.03-0.01,0.08c-0.06-0.02-0.11-0.04-0.14,0.01c-0.02,0.05-0.02,0.08,0.02,0.11c0.02,0.02,0,0.07-0.02,0.12
			c-0.02,0.05-0.08,0.13-0.17,0.08c-0.08-0.05-0.07-0.14-0.05-0.19c0.03-0.04,0.05-0.08,0.07-0.08c0.05,0,0.08-0.01,0.09-0.06
			c0.02-0.06-0.03-0.08-0.08-0.12c0.06-0.02,0.08-0.04,0.05-0.06c-0.03-0.04-0.09,0.02-0.09,0c-0.01-0.03,0.03-0.05,0.04-0.06
			c0.02-0.02,0.04-0.02,0.08,0l0.23,0.11c0.03,0.02,0.05,0.03,0.05,0.06C98.83,73.96,98.84,74.01,98.81,74.02 M98.94,73.85
			c-0.08,0-0.12-0.11-0.1-0.19c0.03,0.03,0.2,0.09,0.28,0.12C98.99,73.8,99.03,73.86,98.94,73.85"/>
		<path class="st0" d="M82.53,64.11c-0.12-0.85-0.02-1.66-1-2.8c-0.95-1.11-4.13-4.62-5.13-5.75c0.25-0.03,0.55,0.03,1.17,0.61
			c0.39,0.36,1.34,1.3,2.02,1.96c0.85-2.22,2.08-4.26,3.64-6.02c0.28-0.31,0.57-0.61,0.85-0.89c-0.69,0.17-1.41,0.46-2.03,0.88
			c-0.04-0.97-0.26-1.89-0.93-2.51c0.25-1.36,0.03-3.01-3.03-5.04c1.56,0.38,2.49,1.79,3.68,0.71c-1.08-0.03-1.1-2.38-4.97-4.32
			c1.48-0.03,2.64,2.36,4.35,1.01c-1.61-0.19-2.15-3.06-5.06-3.95c1.01,0.12,2.05,0.61,2.92-0.57c-1.01,0.24-1.61-0.69-2.69-0.78
			c0.41-1.26,0.31-2.03-0.13-2.97c-0.76,0.05-1.54,0.29-2.09,0.75c-0.09-0.7-0.81-0.73-1.45-0.68c0.03,0.3,0.17,0.73-0.15,0.79
			c-0.52,0.1-2.25,0.57-3.59,1.09c-1.34,0.52-2.86,1.47-3.31,1.77c-0.27,0.19-0.5-0.25-0.67-0.45c-0.47,0.4-0.93,0.92-0.59,1.45
			c-0.74,0.07-1.56,0.26-2.26,0.81c0,0.86,0.71,1.7,1.78,2.17c-1.8,1.79-0.17,3.44-1.75,5c2.22,0.08,1.84-3.02,2.96-3.45
			c-0.12,2.18-1.33,2.57-1.33,4.92c0,1.26,0.75,2.62,0.08,3.45c1.86-0.51,1.37-4.63,2.53-5.88c0.2,0.71,0.09,1.4-0.15,2.1
			c-0.65,1.92,0.07,4.55-0.94,5.4c1.66-0.16,2.05-2.52,3.16-3.86c-1.18,3.12-2.47,8.5-4.2,11.02c-3.24,4.37-5.14,9.7-8.12,9.7
			c-1.31,0-2.3-0.8-2.3-2.46c0-4.97,8.52-8.39,8.52-13.68c0-2.35-1.92-3.26-3.12-3.26c-0.81,0-1.79,0.41-2.61,1.08
			c-0.36-0.14-0.7-0.22-1.01-0.22c-3.01,0-2.21,5.41-4.83,5.36c1.04,0.58,2.84-0.55,3.89-2.07c-0.44,3.51-5.49,2.58-5.1,6.79
			c0.71-3.3,8.76-2.82,8.76-7.83c0-0.56-0.29-1.04-0.69-1.41c0.61-0.38,1.18-0.53,1.7-0.53c0.97,0,1.85,0.72,1.85,2.14
			c0,4.44-8.47,8.18-8.47,13.63c0,0.92,0.27,1.69,0.7,2.29c-0.6,0.25-1.21,0.13-1.72-0.46c-0.04,1.4,1.96,2.29,3.22,1.59
			c0.28,0.09,0.57,0.15,0.88,0.17c-0.38,1.04-1.68,1.36-2.35,1.31c2.08,1.64,5.7-0.51,5.5-2.36c1.65-1.33,2.69-3.61,3.89-5.1
			c-0.07,0.35-0.14,0.69-0.19,1.03c-1.21,2.21-2.35,4.19-2.67,7.1c-0.27,2.43-1.5,4.63-3.21,4.63c-0.38,0-0.99-0.49-1.28-0.25
			c-0.54,0.46-0.03,0.94-0.03,1.39c0,0.69-1.33,1.39-1.33,3.52c0,0.96,0.56,2.12,0.35,2.76c0.55-0.28,1.27-1.19,1.57-2.37
			c0.59,2.82-1.21,2.7,0.08,5.21c0.16-0.83,0.99-1.18,1.49-0.83c0.51,0.35,0.27,0.59-0.11,0.96c-0.37,0.37-0.72,2.25,0.99,2.14
			c-0.32-0.21-0.34-0.71,0.51-0.88c1.18-0.24,1.52,0.31,2.78,0.31c0.77,0,0.99-1.02,1.6-1.02c0.62,0,0.62,0.48,0.4,0.83
			c0.99-0.27,1.17-0.81,1.17-1.36c0-0.56-0.46-0.91-0.11-1.12c0.35-0.21,1.5,0.02,1.04,0.96c0.59-0.11,0.91-0.53,0.91-1.26
			c0-0.72-0.83-1.15-1.6-1.01c-0.13-0.45-0.8-0.7-1.41-0.7c-1.39,0-1.18,1.1-2.13,1.1c-1.52,0-3-1.98-3-5.33
			c0-1.79,1.93-2.24,3.29-2.83c1.36-0.59,3.75-2.06,5.18-4.46c1.12-1.88,1.16-3.94,1.01-6.38c1.92,1.1,2.15,2.69,2.15,3.84
			c0,1.5-0.78,2.1-1.38,2.38c-0.52,0.24-0.69,0.14-0.75,0.45c-0.07,0.38,0.19,0.6,0.41,0.72c0.69,0.36,0.55,1.02,0.74,1.74
			c0.19,0.72,0.83,1.85,1.91,2.68c0.11-0.45,0.08-1.16,0.02-2.09c1.48,0.73,0.29,3.69,3.16,3.69c-0.53-0.3-0.39-1.08-0.08-1.19
			c0.3-0.11,0.69,0.2,1.24,0.97c0.55,0.78,0.41,0.71,1.76,0.71c1.35,0,0.75-0.47,1.46-0.47c0.72,0,0.66,0.83,0.28,1.44
			c1.21-0.36,1.58-1.28,1.17-2.23c1.06-0.57,1.62,0.24,1.78,0.82c1.05-1.05,0-2.32-0.82-2.41c0.02-0.39-0.33-0.8-0.78-0.83
			c-0.44-0.03-0.87-0.06-1.35-0.03c-0.5,0.03-0.78,0.75-1.36,0.75c-1.79,0-5.35-3.25-5.35-4.66c0-1.41,3.4-2.27,3.4-4.45
			c0-2.86-2.81-3.83-5.17-5.67c0.84-0.94,3.3-1.16,4.69-0.49c0.16-0.79,0.67-0.6,0.86-1.97c0.5,1.21-0.16,2.2,0.35,2.71
			c0.4-0.58,1.41-0.5,1.35-1.99c0.31,0.94-0.39,2.37,0.31,2.99c0.13-0.77,0.58-0.91,0.87-0.91c0.29,0,0.54,0.2,0.54,0.66
			c0,1.14-1.37,0.83-1.37,2.12c0,0.54,0.68,0.73,0.68,1.08c0,0.35-0.56,0.89-1.24,0.43c0.23,0.5,0.68,0.93,1.27,0.93
			c0.62,0,1.29-0.5,1.55-1.14c0.33,0.82,0.08,1.73-0.51,1.85c0.62,0.31,2.09,0.02,1.92-1.87c0.83,0.14,1.27,0.7,0.78,1.71
			c0.68-0.17,1.31-0.5,1.31-1.23c0-0.56-0.55-0.94-0.46-1.72C83.53,65.56,82.66,64.96,82.53,64.11 M67.58,40.52
			c-0.78,0.07-0.76-0.67-2.13-1.01c0.96-0.19,2.19-0.68,3.27-1.09C68.93,39.32,68.56,40.43,67.58,40.52 M73.08,46.36
			c-1,0.43-1.77-0.44-1.97-1.04c-0.19-0.6-0.35-1.1-0.12-1.33c0.43-0.42,0.57-0.75,0.31-1.29c-0.3-0.62-0.95-0.32-1.65-0.15
			c0.32-0.59,0.35-1.01-0.09-0.95c-0.53,0.06-0.54,0.92-0.83,0.82c-0.3-0.1-0.13-0.6-0.13-0.86c0-0.36,0.24-0.49,0.61-0.66l2.89-1.1
			c0.38-0.14,0.63-0.21,0.89,0.06c0.18,0.19,0.65,0.43,0.5,0.7c-0.14,0.28-0.74-0.33-1.17-0.01c-0.36,0.27-0.04,0.55,0.6,0.75
			c-0.62,0.36-1.29,0.61-1.08,1.26c0.18,0.56,0.5,0.7,1.11,0.71c0.33,0,0.56,0.47,0.83,1.03C74.07,44.87,74.15,45.9,73.08,46.36
			 M73.26,38.29c-0.78,0.61-1.81,0.05-2.27-0.74c1.07-0.44,2.3-0.93,3.13-1.45C73.35,37.28,73.88,37.81,73.26,38.29"/>
		<path class="st0" d="M63.56,33.73c0-0.31-0.25-0.56-0.56-0.56c-0.3,0-0.55,0.25-0.55,0.56c0,0.31,0.25,0.55,0.55,0.55
			C63.31,34.29,63.56,34.04,63.56,33.73"/>
		<path class="st0" d="M63.37,32.25c0-0.3-0.25-0.56-0.56-0.56c-0.3,0-0.55,0.25-0.55,0.56c0,0.3,0.24,0.55,0.55,0.55
			C63.12,32.81,63.37,32.56,63.37,32.25"/>
		<path class="st0" d="M63.69,31.6c0.31,0,0.56-0.25,0.56-0.55c0-0.31-0.25-0.56-0.56-0.56c-0.3,0-0.55,0.25-0.55,0.56
			C63.14,31.35,63.38,31.6,63.69,31.6"/>
		<path class="st0" d="M65.16,31.5c0.31,0,0.56-0.25,0.56-0.55c0-0.31-0.25-0.56-0.56-0.56c-0.3,0-0.55,0.25-0.55,0.56
			C64.61,31.25,64.86,31.5,65.16,31.5"/>
		<path class="st0" d="M71.47,30.47c0.22,0.22,0.57,0.22,0.79,0c0.21-0.22,0.21-0.57,0-0.78c-0.22-0.22-0.57-0.22-0.79,0
			C71.25,29.9,71.25,30.26,71.47,30.47"/>
		<path class="st0" d="M71.34,29.29c0.22-0.21,0.22-0.57,0-0.78c-0.22-0.22-0.57-0.22-0.78,0c-0.22,0.21-0.21,0.57,0,0.78
			C70.78,29.51,71.13,29.51,71.34,29.29"/>
		<path class="st0" d="M69.87,29.05c0.21-0.21,0.21-0.56,0-0.78c-0.22-0.22-0.57-0.22-0.79,0c-0.22,0.22-0.22,0.57,0,0.78
			C69.3,29.27,69.66,29.27,69.87,29.05"/>
		<path class="st0" d="M68.61,29.98c0.22-0.22,0.22-0.57,0-0.78c-0.22-0.22-0.57-0.22-0.79,0c-0.21,0.22-0.21,0.57,0.01,0.79
			C68.05,30.2,68.4,30.2,68.61,29.98"/>
		<path class="st0" d="M65.08,29.22l0.44,0.97l0.56-0.67c0.02,0.01,0.04,0.02,0.07,0.02c0.05,0.33,0.07,0.89,0.07,1.21
			c0,0.39,0.31,0.71,0.7,0.71c0.39,0,0.71-0.32,0.71-0.71c0-0.27-0.15-0.51-0.38-0.62c-0.27-0.21-0.58-0.5-0.78-0.73
			c0.01-0.03,0.03-0.06,0.03-0.08l0.94,0.08l-0.37-1l-0.7,0.6c-0.01-0.01-0.03-0.01-0.04-0.02l-0.05-1.03l-0.97,0.37l0.65,0.77
			c-0.02,0.02-0.03,0.05-0.04,0.08L65.08,29.22z"/>
		<path class="st0" d="M71.51,30.95c0.22,0.33,0.29,0.5,0.31,0.77c-0.17-0.07-0.36-0.24-0.58-0.53l0.12,1.29
			c0.15-0.23,0.28-0.39,0.46-0.47c-0.05,0.84-0.39,1.19-0.67,1.25c-0.35,0.07-0.62-0.16-0.66-0.43c-0.07-0.37,0.26-0.61,0.58-0.27
			c0.06-0.78-0.57-0.76-0.84-0.43c0.32-0.75,0.19-1.25-0.47-1.65c-0.41,0.7-0.24,1.16,0.29,1.69c-0.51-0.26-0.97,0.18-0.51,0.75
			c0.1-0.5,0.53-0.39,0.63,0.01c0.09,0.34-0.24,0.78-0.79,0.94c-0.8,0.24-1.05-0.27-1.25-0.7c0.17-0.11,0.58-0.07,1.04,0.22
			l-0.38-1.27c-0.19,0.45-0.45,0.63-0.76,0.77c-0.02-0.37,0.24-1.11,0.24-1.11l-1.52,0.62c0,0,0.7,0.34,0.94,0.63
			c-0.32,0.12-0.63,0.17-1.08-0.02l0.61,1.17c0.12-0.53,0.39-0.84,0.59-0.88c0.16,0.45,0.33,0.99-0.4,1.37
			c-0.52,0.27-1.05,0.18-1.23-0.12c-0.21-0.35,0.03-0.74,0.44-0.45c-0.07-0.73-0.71-0.72-0.89-0.17c0-0.75-0.19-1.2-0.98-1.42
			c-0.2,0.75,0.06,1.2,0.82,1.51c-0.43-0.05-0.88,0.38-0.3,0.9c0-0.47,0.4-0.53,0.61-0.21c0.15,0.22,0.12,0.58-0.18,0.77
			c-0.24,0.16-0.73,0.14-1.35-0.43c0.18-0.07,0.39-0.04,0.65,0.01l-0.82-1.01c0.04,0.36,0.02,0.62-0.05,0.78
			c-0.18-0.2-0.23-0.37-0.31-0.76l-0.63,0.56c0.59,0.36,1.27,0.93,2.1,2.06c0.87-0.54,2.42-1.29,3.39-1.68
			c0.96-0.39,2.6-0.94,3.6-1.16c-0.21-1.4-0.11-2.27,0.06-2.94L71.51,30.95z"/>
		<path class="st0" d="M137.7,79.79c0,1.32,1.08,2.4,2.4,2.4c1.32,0,2.39-1.08,2.39-2.4c0-1.32-1.07-2.4-2.39-2.4
			C138.78,77.4,137.7,78.47,137.7,79.79 M138.31,79.79c0-0.98,0.8-1.78,1.79-1.78c0.98,0,1.78,0.79,1.78,1.78
			c0,0.98-0.8,1.78-1.78,1.78C139.12,81.57,138.31,80.77,138.31,79.79"/>
		<path class="st0" d="M128.77,82c-0.32,0.22-0.53,0.54-0.6,0.89c-0.08,0.42,0.06,0.84,0.37,1.2c0.29,0.33,0.72,0.56,1.2,0.65
			c0.48,0.08,0.96,0.02,1.35-0.19c0.42-0.22,0.69-0.57,0.76-0.99h0c0.15-0.83-0.55-1.66-1.57-1.85
			C129.74,81.61,129.18,81.71,128.77,82 M129.85,84.13c-0.68-0.13-1.16-0.64-1.08-1.14c0.04-0.25,0.21-0.4,0.34-0.49
			c0.29-0.19,0.67-0.27,1.07-0.19c0.62,0.11,1.08,0.56,1.08,1.01c0,0.04,0,0.08-0.01,0.12C131.16,83.94,130.53,84.25,129.85,84.13"
			/>
		<path class="st0" d="M115.58,48.39c-0.75,0.58-0.96,1.55-0.48,2.17c0.48,0.61,1.47,0.64,2.21,0.07c0.41-0.32,0.67-0.76,0.73-1.22
			c0.05-0.36-0.04-0.69-0.24-0.95c-0.2-0.26-0.51-0.42-0.86-0.47C116.48,47.93,115.99,48.07,115.58,48.39 M115.45,49.79
			c0-0.31,0.18-0.66,0.5-0.91c0.28-0.21,0.61-0.32,0.91-0.28c0.13,0.02,0.32,0.07,0.45,0.24c0.13,0.17,0.13,0.36,0.12,0.5
			c-0.04,0.29-0.22,0.6-0.49,0.81c-0.47,0.37-1.09,0.38-1.36,0.04C115.49,50.07,115.45,49.93,115.45,49.79"/>
		<path class="st0" d="M125.96,78.02c-0.36,0.35-0.58,0.87-0.58,1.43v0.05c0,0.55,0.19,1.06,0.53,1.41
			c0.26,0.28,0.61,0.43,0.97,0.44c0.36,0.01,0.7-0.14,0.98-0.4c0.36-0.35,0.58-0.87,0.59-1.44c0.01-0.48-0.13-0.95-0.4-1.3
			c-0.28-0.38-0.67-0.59-1.1-0.6C126.59,77.61,126.24,77.75,125.96,78.02 M126.88,80.74L126.88,80.74c-0.25,0-0.43-0.14-0.54-0.26
			c-0.24-0.24-0.37-0.62-0.36-1.02c0.01-0.4,0.15-0.76,0.4-1c0.11-0.11,0.3-0.24,0.55-0.23c0.5,0.01,0.91,0.58,0.9,1.28
			c-0.01,0.4-0.16,0.78-0.4,1.01C127.32,80.62,127.13,80.75,126.88,80.74"/>
		<path class="st0" d="M114.24,58.67c-0.37,0.13-0.65,0.38-0.81,0.7c-0.36,0.77,0.09,1.75,1.02,2.2c0.51,0.25,1.08,0.29,1.55,0.12
			c0.36-0.13,0.65-0.37,0.8-0.7c0.15-0.32,0.17-0.7,0.04-1.06c-0.17-0.47-0.55-0.88-1.06-1.13
			C115.28,58.54,114.71,58.5,114.24,58.67 M114.72,61c-0.62-0.29-0.95-0.91-0.73-1.38c0.1-0.22,0.3-0.33,0.45-0.38
			c0.32-0.11,0.72-0.08,1.08,0.1c0.36,0.17,0.64,0.46,0.75,0.78c0.06,0.15,0.1,0.37-0.01,0.6c-0.11,0.22-0.31,0.33-0.45,0.38
			C115.47,61.22,115.08,61.18,114.72,61"/>
		<path class="st0" d="M139.4,56.2c0.78,2.14,2.33,2.91,3.51,2.36c-2.64-0.31-0.5-4.83-3.9-4.83c-0.19,0-0.38,0.02-0.55,0.05
			c-0.57-0.61-1.24-0.86-2.21-0.86c-1.44,0-3.92,1.39-3.92,4.26c0,6.18,7.17,6.73,7.17,12.19c0,1.6-1.2,2.59-2.55,2.59
			c-1.2,0-2.18-1.36-3.19-3.47c-0.49-1.01-1.53-2.4-2.63-3.84c0.33,0.23,0.7,0.37,1.06,0.37c0.38,0.01,0.74-0.12,1-0.36
			c0.26-0.24,0.41-0.59,0.42-0.97c0-0.02,0-0.03,0-0.05c0-0.49-0.21-0.99-0.58-1.39c-0.39-0.41-0.9-0.65-1.41-0.67
			c-0.38-0.01-0.74,0.12-1,0.36c-0.26,0.24-0.41,0.59-0.42,0.97c0,0.02,0,0.04,0,0.05c0,0.21,0.04,0.42,0.11,0.63
			c-1.54-2.02-2.98-4-2.98-5.08c0-0.96,0.66-1.8,1.48-2.81c0.03,0.02,0.28,0.16,0.28,0.16l0.22-0.24c0.29-0.32,0.88-0.97,2.13-2.3
			l0.07-0.08l0,0l0.3-0.32l-0.77-0.62c0.2-0.46,0.38-0.97,0.51-1.52c0.24,1,0.75,1.63,1.45,1.43c-0.47-1.02,0.48-2.4-0.14-4.92
			c0.59,0.97,1.43,1.49,2.04,1.31c-1.59-1.41,0.48-3.38-1.6-6.43c0.68,0.23,1.13,0.1,1.42-0.24c-1.88-0.27-1.02-2.68-4.34-3.54
			c0.83-0.15,1.31-0.63,1.18-1.06c-0.87,0.63-1.64-1.18-4.51-1.13c-0.17-1.08-1.17-2.2-2.3-2.75c0.21,0.83,0.02,1.58-0.2,2.21
			l-9.36-9.19c-0.27-0.26-0.43-0.32-0.5-0.22c-0.08,0.09-0.07,0.26,0.11,0.45l8.04,10.08c-0.61,0.21-1.2,0.46-1.83,0.69
			c-0.4,0.14-0.7,0.54-0.7,1.04c-1.49,0.75-2.8,1.66-3.45,2.25c-0.49,0.45-0.89,0.55-0.45,1.57c0.16,0.38-0.35,1.34,0.81,0.64
			c0.76-0.46,2.5-1.41,2.75-0.81c0.14,0.32-0.72,0.72-1.31,0.94c-0.59,0.23-1.22,0.68-1.13,0.91c0.09,0.22,0.56-0.02,0.59,0.22
			c0.03,0.27,0.22,0.51,0.45,0.51c0.24,0,0.54-0.49,0.73-0.33c0.18,0.17-0.09,1.26-0.28,1.54c0.91-0.11,1.49-0.98,1.52-1.66
			c0.02-0.68,0.21-0.84,0.35-0.93c0.14-0.1,0.31,0.73,0.12,1.22c0.48-0.1,0.98-0.74,0.91-1.91c0.25-0.19,0.49-0.33,0.67-0.33
			c0.31,0,0.91,0.84,1.78,0.84c1.59,0,2.47-1.29,2.57-1.89c0.08-0.49,0.04-0.96-0.22-1.32c0.57,0.45,0.75,1.18,0.75,1.71
			c0,2.25-3.98,3.31-5.62,4.88c-0.06,0.06-0.12,0.11-0.18,0.17L119.8,46l-0.12,0.41c-0.01,0.03-0.03,0.1-0.11,0.35
			c-0.2,0.64-0.61,1.98-0.86,2.74c0,0-0.1,0.31-0.1,0.31l0.17,0.09c-1.11,1.48-2,3.13-2.2,4.82c-0.45-0.46-0.87-0.84-1.36-1.24
			c0.05-0.16,0.09-0.34,0.1-0.52c0.03-0.5-0.12-0.98-0.42-1.32c-0.23-0.26-0.54-0.41-0.86-0.43c-0.33-0.02-0.65,0.1-0.91,0.33
			c-0.06,0.05-0.11,0.11-0.16,0.18c-0.07-0.05-0.14-0.1-0.2-0.16c-0.61-0.48-1.38-1.04-1.84-1.55c-0.2-0.22-0.4-0.34-0.81-0.34
			c-0.16,0-0.55-0.02-0.83-0.02c-0.27,0-0.43,0.21-0.75,0.5c-0.18,0.15-0.77,0.61-1.37,1.07c0.29,0.28,0.56,0.57,0.83,0.87
			c0.08,0.08,0.15,0.17,0.23,0.26c0.26-0.21,0.47-0.36,0.61-0.47c0.2-0.16,0.45-0.2,0.69-0.2c0.24,0,0.58,0.18,0.81,0.54
			c0.17,0.25,1.69,2.24,2.94,3.63c-0.14,0.04-0.28,0.09-0.4,0.14c-0.54,0.23-1.75,0.18-2.29,0.13c-0.54-0.04-0.64-0.18-1.01,0.4
			c-0.14,0.22-0.32,0.48-0.49,0.7c-0.18,0.22-0.32,0.47,0.06,1.11c0.55,0.93,1.92,3.39,2.38,4.5c0.46,1.11,0.99,1.29,1.86,1.65
			c0.88,0.36,2.36,1.21,2.54,1.41l0.06-0.85c-0.26-0.26-1.09-0.57-1.41-0.68c-0.31-0.12-0.4-0.25-0.02-0.25
			c0.37,0,1.42,0.37,2.16,0.67c-0.22-0.83-1.01-1.75-1.49-2.26c-0.63-0.18-1.27-0.18-1.53,0.02c0.03,0.18-0.1,0.4-0.36,0.4
			c-0.24,0-0.41-0.21-0.33-0.44c0.08-0.25,0.46-0.34,0.37-0.81c-0.08-0.47-0.67-0.56-1.05-0.6c-0.53-0.77-1.15-1.9-1.42-2.36
			c-0.28-0.46-0.11-0.71,0.08-0.87c0.46-0.38,1.41,0.2,3.31,0.32c0.66,0.04,1.51,0.08,2.36,0.12c0.25,2.21,1.14,4.3,4.22,5.08
			c1.5,0.37,3.05,1.47,3.58,2.92c-6.14-0.11-7.1,2.29-7.1,4.54c0,2.57,2.16,2.42,2.16,4.35c0,1.68-5.16,2.37-6.72,2.6
			c-1.33,0.2-2.08,0.49-2.72,1.13c-0.63,0.63-1.28,1.25-2.43,2.4c0,0,0.49,0.11,0.98,0.08l0.88-1.13c0.26-0.37,0.43-0.69,0.6-0.66
			c0.17,0.03,0.06,0.32-0.14,0.72l-0.72,1.21c3.02,0.2,3.23-0.92,3.23-1.38c0-0.46-0.75-0.78-0.31-1.07
			c0.43-0.29,0.8-0.08,1.15,0.32c0.35,0.41,0.46,0.75,1.3,0.44c0,0,6.6-2.74,7.44-3.12c0.75-0.34,0.54-0.67,0.09-1.04
			c-0.49-0.4-0.58-1.07-0.58-1.76c0-2,1.2-2.62,3.35-2.57c-0.04,0.34-0.07,0.66-0.07,0.96c0,3.12,4.72,6.17,5.99,6.17
			c0.57,0,1.34-0.42,1.39,1.46c0.03,1.38,0.31,2.36,0.06,3.96c-0.24,1.6-0.71,1.84-1.67,2.52c-0.96,0.67-1.86,2.79-2.27,3.23
			c0.43,0.28,0.89,0.32,1.24-0.71c0.3-0.85,0.63-1.46,1.01-1.66c-0.37,0.94-0.65,2.32-0.83,2.73c1.2,0.21,3.16-0.88,3.16-1.73
			c0-0.85-0.68-0.78-0.68-1.35c0-0.25,0.31-0.53,0.68-0.53c0.48,0,0.85,0.39,0.89,0.56c0.53-0.28,0.87-0.81,0.85-2.06
			c0-0.48-0.02-0.99-0.05-1.51c0.03,0.07,0.07,0.14,0.11,0.2c0.23,0.35,0.62,0.57,1.09,0.61c0.44,0.04,0.91-0.09,1.31-0.36
			c0.48-0.31,0.81-0.78,0.91-1.27c0.02-0.1,0.03-0.2,0.03-0.31c0-0.27-0.08-0.52-0.22-0.74c-0.19-0.3-0.51-0.5-0.88-0.58
			c-0.49-0.1-1.05,0.02-1.52,0.32c-0.44,0.29-0.75,0.71-0.88,1.16c-0.1-1.69-0.22-3.3-0.18-3.94c0.07-0.95,0.11-1.38-0.21-1.52
			c-0.32-0.14-0.67,0.39-1.13,0.39c-0.46,0-1.85-1.28-1.85-2.62c0-1.35,1.46-3.09,1.39-4.94c-0.03-0.57,0.33-0.87,0.56-0.35
			c0.28,0.63,0.7,1.49,1.32,2.18c-0.38,2.32,2.17,4.59,4.27,2.9c-1.04,0.16-1.75-0.77-2.21-1.69c0.18,0.03,0.36,0.05,0.56,0.05
			c0.11,0,0.21,0,0.31-0.01c0.73,0.91,3.08,0.84,3.69-1.43c-0.41,0.48-1.26,0.83-1.86,0.76c0.88-0.68,1.34-1.8,1.34-3
			c0-5.89-7.14-6.58-7.14-11.94c0-1.99,1.74-3.26,2.95-3.26c0.46,0,0.82,0.14,1.11,0.35c-0.46,0.47-0.71,1.18-0.67,2.05
			c0.19,4.23,7.1,4.02,7.18,6.06C144.74,59.39,139.59,60.34,139.4,56.2 M121.01,39.96c0.33-0.64,0-1.62,1.17-1.62
			c0.57,0,1.09,0.58,1.78,0.8C122.84,39.24,121.82,39.5,121.01,39.96 M114.7,52.94c-0.02,0.34-0.16,0.65-0.37,0.85
			c-0.1,0.09-0.26,0.19-0.45,0.18c-0.4-0.03-0.71-0.49-0.71-1.02c0-0.03,0-0.06,0-0.08c0.02-0.34,0.15-0.65,0.36-0.84
			c0.1-0.09,0.26-0.19,0.47-0.18c0.21,0.01,0.35,0.13,0.44,0.23C114.62,52.27,114.72,52.6,114.7,52.94 M135.11,82.67
			c0.07-0.33,0.31-0.66,0.64-0.88c0.33-0.22,0.72-0.31,1.06-0.24c0.15,0.03,0.36,0.11,0.5,0.32h0c0.13,0.2,0.12,0.43,0.09,0.58
			c-0.07,0.33-0.31,0.66-0.64,0.88c-0.58,0.38-1.28,0.34-1.55-0.08C135.07,83.05,135.08,82.82,135.11,82.67 M130.82,62.93
			c0.01-0.16,0.05-0.38,0.23-0.54l0-0.01c0.18-0.17,0.4-0.2,0.56-0.19c0.34,0.01,0.7,0.18,0.98,0.48c0.27,0.29,0.43,0.66,0.41,1
			c-0.01,0.16-0.05,0.38-0.23,0.54v0c-0.18,0.17-0.41,0.2-0.56,0.19c-0.34-0.01-0.7-0.19-0.97-0.48
			C130.96,63.65,130.8,63.27,130.82,62.93 M119,49.63l0.02-0.05c0.33-1.02,0.96-3.08,0.96-3.1l0.02-0.07l1.34,0.51l-0.17,0.07
			c-0.25,0.1-0.57,0.32-0.93,0.65c0.24,0.06,0.58,0.04,0.8-0.11l0.2-0.13l-0.58,1.45l-0.07-0.14c-0.08-0.15-0.34-0.48-0.59-0.58
			c-0.03,0.1-0.04,0.2-0.04,0.28c0,0.53,0.37,0.78,0.74,0.97c0.64,0.33,1.03,0.37,1.19,0.12c0.03-0.05,0.04-0.11,0.04-0.17
			c0-0.1-0.04-0.2-0.12-0.28c-0.12-0.13-0.34-0.23-0.63-0.11l-0.09,0.04l-0.01-0.1c-0.04-0.39,0.09-0.61,0.2-0.73
			c0.13-0.15,0.31-0.23,0.51-0.23c0.22,0,0.42,0.14,0.55,0.36c0.08-0.81,0.53-1.39,1.28-1.62l0.07-0.02l0.02,0.07
			c0.09,0.26,0.14,0.5,0.14,0.73c0,0.46-0.19,0.88-0.58,1.32c0.32-0.06,0.61,0.02,0.74,0.23c0.11,0.17,0.15,0.36,0.1,0.55
			c-0.04,0.16-0.16,0.39-0.5,0.57l-0.09,0.05l-0.02-0.1c-0.05-0.25-0.21-0.41-0.43-0.45c-0.18-0.03-0.36,0.06-0.44,0.2
			c-0.16,0.32,0.07,0.65,0.68,0.99c0.74,0.42,1.22,0.06,1.5-0.34c-0.22-0.03-0.54,0.02-0.86,0.22l-0.23,0.15l0.95-1.78l0.04,0.21
			c0.02,0.1,0.09,0.41,0.36,0.68c0.05-0.14,0.11-0.38,0.11-0.65c0-0.16-0.03-0.34-0.11-0.51l-0.1-0.21l1.96,1.13l-0.23,0.02
			c-0.34,0.03-0.67,0.23-0.99,0.59c0.36,0.09,0.67,0,0.77-0.03l0.19-0.07l-1.07,1.72l0.01-0.27v-0.06c0-0.35-0.11-0.63-0.23-0.8
			c-0.08,0.17-0.14,0.37-0.14,0.56c0,0.31,0.14,0.64,0.59,0.91c0.6,0.36,1.01,0.39,1.2,0.1c0.09-0.14,0.07-0.33-0.04-0.48
			c-0.14-0.17-0.36-0.23-0.6-0.15l-0.09,0.03l0-0.1c-0.02-0.38,0.12-0.6,0.24-0.71c0.14-0.14,0.33-0.2,0.53-0.2
			c0.28,0.02,0.47,0.26,0.57,0.54c0.26-0.84,0.72-1.26,1.54-1.41l0.07-0.02l0.02,0.07c0.03,0.15,0.05,0.29,0.05,0.44
			c0,0.59-0.28,1.1-0.81,1.48c0.26,0.01,0.47,0.11,0.58,0.31c0.06,0.11,0.1,0.24,0.1,0.36c0,0.06-0.01,0.14-0.04,0.2
			c-0.05,0.16-0.18,0.38-0.53,0.53l-0.09,0.04l-0.01-0.09c-0.04-0.3-0.24-0.45-0.41-0.49c-0.18-0.03-0.34,0.03-0.43,0.16
			c-0.14,0.26,0.08,0.57,0.69,0.96c0.4,0.26,0.88,0.49,1.44-0.01c-0.21-0.17-0.62-0.23-0.8-0.23h-0.15l0.96-1.22l-0.01,0.24
			c0,0.01,0,0.03,0,0.04c0,0.26,0.15,0.54,0.32,0.71c0.07-0.33,0.11-0.63,0.11-0.87c0-0.1-0.01-0.18-0.02-0.25l-0.03-0.19l1.12,0.9
			l-0.05,0.06c-0.01,0.01-1.48,1.58-2.2,2.38l-0.04,0.04L119,49.63z M128.77,74.03c-0.39,0.55-1.07,0.75-1.5,0.44
			c-0.44-0.31-0.47-1.01-0.08-1.56c0.39-0.55,1.06-0.76,1.5-0.44C129.12,72.77,129.16,73.47,128.77,74.03 M131.59,69.57
			c-0.39,0.56-1.06,0.75-1.5,0.44c-0.44-0.31-0.47-1.01-0.08-1.56c0.39-0.55,1.06-0.75,1.5-0.44
			C131.95,68.32,131.98,69.02,131.59,69.57"/>
		<path class="st0" d="M98.23,88.5c-0.17,0-0.34,0.02-0.49,0.07v-2.83c-1.27-0.05-2.76-0.29-4.25-0.68v3.51
			c-0.16-0.05-0.33-0.08-0.51-0.08c-1.02,0-1.65,0.86-1.65,1.66c0,0.74,0.44,1.44,0.83,1.87c0.19-0.45,0.36-0.82,0.62-0.82
			c0.51,0,0.28,2.52,1.75,2.59c-0.05,0.12-0.07,0.26-0.07,0.4c0,0.64,0.52,1.16,1.16,1.16c0.64,0,1.16-0.52,1.16-1.16
			c0-0.14-0.03-0.28-0.08-0.4c1.48-0.07,1.23-2.59,1.74-2.59c0.25,0,0.41,0.35,0.64,0.82c0.38-0.43,0.82-1.13,0.82-1.87
			C99.88,89.36,99.25,88.5,98.23,88.5 M95.61,94.85c-0.36,0-0.65-0.29-0.65-0.65c0-0.36,0.29-0.65,0.65-0.65
			c0.35,0,0.64,0.29,0.64,0.65C96.25,94.56,95.96,94.85,95.61,94.85 M99.07,91.18c-0.17-0.33-0.43-0.51-0.65-0.51
			c-0.99,0-0.61,2.62-1.79,2.62c-0.52,0-0.79-0.33-0.79-0.7c0-0.37,0.26-0.48,0.26-0.77c0-0.29-0.23-0.4-0.49-0.4
			c-0.26,0-0.49,0.11-0.49,0.4c0,0.3,0.26,0.41,0.26,0.77c0,0.37-0.28,0.7-0.79,0.7c-1.18,0-0.79-2.62-1.79-2.62
			c-0.22,0-0.48,0.18-0.65,0.51c-0.2-0.37-0.31-0.75-0.31-1.02c0-0.48,0.37-1.15,1.14-1.15c1.32,0,1.01,1.81,1.64,1.81
			c0.29,0,0.49-0.17,0.49-0.44c0-0.51-0.92-1-0.92-1.74c0-0.74,0.67-1.36,1.41-1.95c0.73,0.59,1.41,1.21,1.41,1.95
			c0,0.74-0.92,1.22-0.92,1.74c0,0.27,0.21,0.44,0.49,0.44c0.63,0,0.32-1.81,1.65-1.81c0.78,0,1.14,0.66,1.14,1.15
			C99.38,90.43,99.26,90.81,99.07,91.18"/>
		<path class="st0" d="M89.88,36.98c-0.44,0.85-0.83,1.35-0.77,2c0.06,0.66,0.75,1.12,1.07,1.78c0.3-0.77,0.79-1.34,0.73-1.95
			C90.86,38.22,90.03,37.42,89.88,36.98"/>
		<path class="st0" d="M101.3,36.98c0.45,0.85,0.83,1.35,0.77,2c-0.06,0.66-0.75,1.12-1.08,1.78c-0.3-0.77-0.79-1.34-0.73-1.95
			C100.32,38.22,101.15,37.42,101.3,36.98"/>
		<path class="st0" d="M83.31,36.49c0.43,0,0.77-0.34,0.77-0.77c0-0.43-0.35-0.77-0.77-0.77c-0.42,0-0.77,0.34-0.77,0.77
			C82.54,36.15,82.89,36.49,83.31,36.49"/>
		<path class="st0" d="M83.82,37.59c0-0.43-0.35-0.77-0.77-0.77c-0.43,0-0.77,0.34-0.77,0.77c0,0.43,0.34,0.77,0.77,0.77
			C83.48,38.36,83.82,38.02,83.82,37.59"/>
		<path class="st0" d="M84.2,39.46c0-0.43-0.35-0.77-0.77-0.77c-0.42,0-0.77,0.35-0.77,0.77c0,0.43,0.34,0.77,0.77,0.77
			C83.85,40.24,84.2,39.89,84.2,39.46"/>
		<path class="st0" d="M87.58,32.81c0.43,0,0.77-0.34,0.77-0.77c0-0.42-0.34-0.77-0.77-0.77c-0.43,0-0.77,0.35-0.77,0.77
			C86.81,32.47,87.15,32.81,87.58,32.81"/>
		<path class="st0" d="M85.67,33.4c0.42,0,0.77-0.34,0.77-0.77c0-0.43-0.35-0.77-0.77-0.77c-0.43,0-0.77,0.34-0.77,0.77
			C84.89,33.06,85.24,33.4,85.67,33.4"/>
		<path class="st0" d="M84.16,34.73c0.42,0,0.77-0.35,0.77-0.77c0-0.43-0.35-0.77-0.77-0.77c-0.43,0-0.77,0.34-0.77,0.77
			C83.39,34.38,83.73,34.73,84.16,34.73"/>
		<path class="st0" d="M89.6,33c0.42,0,0.77-0.35,0.77-0.77c0-0.43-0.35-0.77-0.77-0.77c-0.43,0-0.77,0.34-0.77,0.77
			C88.82,32.65,89.17,33,89.6,33"/>
		<path class="st0" d="M91.51,33.55c0.43,0,0.77-0.35,0.77-0.77c0-0.42-0.35-0.77-0.77-0.77c-0.42,0-0.77,0.34-0.77,0.77
			C90.74,33.2,91.08,33.55,91.51,33.55"/>
		<path class="st0" d="M93.31,34.4c0.43,0,0.77-0.35,0.77-0.77c0-0.43-0.35-0.77-0.77-0.77s-0.77,0.35-0.77,0.77
			C92.54,34.05,92.88,34.4,93.31,34.4"/>
		<path class="st0" d="M107.07,35.72c0,0.43,0.35,0.77,0.77,0.77c0.43,0,0.77-0.34,0.77-0.77c0-0.43-0.34-0.77-0.77-0.77
			C107.43,34.95,107.07,35.29,107.07,35.72"/>
		<path class="st0" d="M108.1,36.82c-0.43,0-0.77,0.34-0.77,0.77c0,0.43,0.35,0.77,0.77,0.77c0.43,0,0.78-0.34,0.78-0.77
			C108.88,37.17,108.53,36.82,108.1,36.82"/>
		<path class="st0" d="M107.72,38.69c-0.42,0-0.77,0.35-0.77,0.77c0,0.43,0.35,0.77,0.77,0.77c0.43,0,0.77-0.34,0.77-0.77
			C108.5,39.04,108.15,38.69,107.72,38.69"/>
		<path class="st0" d="M103.58,32.81c0.43,0,0.77-0.34,0.77-0.77c0-0.42-0.35-0.77-0.77-0.77c-0.43,0-0.77,0.35-0.77,0.77
			C102.81,32.47,103.15,32.81,103.58,32.81"/>
		<path class="st0" d="M105.5,33.4c0.42,0,0.77-0.34,0.77-0.77c0-0.43-0.35-0.77-0.77-0.77c-0.43,0-0.77,0.34-0.77,0.77
			C104.73,33.06,105.07,33.4,105.5,33.4"/>
		<path class="st0" d="M107,34.73c0.43,0,0.77-0.35,0.77-0.77c0-0.43-0.35-0.77-0.77-0.77c-0.42,0-0.77,0.34-0.77,0.77
			C106.23,34.38,106.58,34.73,107,34.73"/>
		<path class="st0" d="M101.56,33c0.43,0,0.77-0.35,0.77-0.77c0-0.43-0.34-0.77-0.77-0.77c-0.42,0-0.77,0.34-0.77,0.77
			C100.79,32.65,101.14,33,101.56,33"/>
		<path class="st0" d="M99.65,33.55c0.43,0,0.77-0.35,0.77-0.77c0-0.42-0.34-0.77-0.77-0.77c-0.42,0-0.77,0.34-0.77,0.77
			C98.88,33.2,99.23,33.55,99.65,33.55"/>
		<path class="st0" d="M97.08,33.62c0,0.43,0.34,0.77,0.77,0.77c0.43,0,0.77-0.35,0.77-0.77c0-0.43-0.34-0.78-0.77-0.78
			C97.42,32.85,97.08,33.2,97.08,33.62"/>
		<path class="st0" d="M94.26,37.8h0.86v-3.31c-0.31-0.05-0.6-0.14-0.86-0.27V37.8z"/>
		<path class="st0" d="M96.9,34.23c-0.27,0.13-0.57,0.22-0.87,0.27v3.31h0.87V34.23z"/>
		<path class="st0" d="M95.08,30.58v-1.96c-0.97,0.2-1.72,0.98-1.89,1.96H95.08z"/>
		<path class="st0" d="M96.08,30.58h1.88c-0.17-0.98-0.92-1.75-1.88-1.96V30.58z"/>
		<path class="st0" d="M93.21,31.52c0.24,1.08,1.21,1.89,2.37,1.89c1.16,0,2.13-0.81,2.37-1.89H93.21z"/>
		<path class="st0" d="M96.91,28.31c-0.55-0.43-0.97-1.06-1.05-1.71c0.63,0.11,1.33,0.57,1.76,1.12v-2.66
			c-0.42,0.55-1.13,1-1.76,1.11c0.07-0.64,0.47-1.23,1.01-1.9H94.3c0.54,0.67,0.94,1.26,1.01,1.9c-0.63-0.11-1.34-0.56-1.75-1.11
			v2.66c0.41-0.55,1.12-1,1.75-1.12c-0.08,0.65-0.5,1.28-1.05,1.71H96.91z"/>
		<path class="st0" d="M99.75,81.33c-2.43-0.61-5.32-1.65-8.02-2.87l0-0.04c0.07-0.54-0.13-1.15-0.55-1.64
			c-0.42-0.48-0.98-0.75-1.53-0.75c-0.25,0-0.5,0.06-0.74,0.14c-0.39-0.35-0.77-0.73-1.12-1.14c-1.02-1.19-1.82-2.59-2.39-4.14
			c-0.32-0.89-0.55-1.81-0.7-2.75c-0.13,0.78-1.07,1.7-2.58,1.72c0.02-0.16-0.02-0.4-0.16-0.44c-0.4,0.45-0.93,0.89-2.3,0.4
			c0.21,1.08,0.51,2.13,0.89,3.15c0.82,2.2,2,4.17,3.49,5.86c0.49,0.56,1.01,1.08,1.55,1.55c-0.01,0.1-0.02,0.21-0.02,0.31
			c0,0.57,0.55,1.48,1.34,1.86c0.65,0.31,1.35,0.23,1.98-0.22c1.18,0.63,2.69,1.22,4.3,1.67c1.82,0.51,3.58,0.79,4.95,0.79
			c1.18,0,2.75-0.56,4.29-1.53c0.62-0.39,1.2-0.82,1.62-1.22c0.07-0.06,0.12-0.11,0.17-0.16C103.04,82.04,101.23,81.7,99.75,81.33
			 M81.39,72.74c-0.2-0.51-0.2-1.01,0-1.47c0.19-0.43,0.54-0.77,1-0.95c0.46-0.18,0.94-0.17,1.38,0.03c0.46,0.2,0.8,0.58,1,1.09
			c0.09,0.24,0.14,0.49,0.14,0.73c0,0.25-0.05,0.5-0.15,0.72c-0.19,0.44-0.55,0.77-1,0.95c-0.46,0.18-0.94,0.17-1.37-0.02
			C81.93,73.62,81.58,73.23,81.39,72.74 M84.3,77.83l-0.6-0.85c0,0,0.94-0.66,1.04-0.73c-0.07-0.1-0.52-0.74-0.59-0.83
			c-0.1,0.07-1.04,0.73-1.04,0.73l-0.6-0.85l2.9-2.04l0.6,0.85c0,0-0.93,0.66-1.04,0.74c0.07,0.09,0.52,0.73,0.59,0.83
			c0.11-0.08,1.05-0.74,1.05-0.74l0.59,0.86L84.3,77.83z M90.86,77.68l-0.25-0.19c-0.47-0.36-0.87-0.35-1.3,0.01
			c-0.2,0.17-0.38,0.39-0.56,0.59l-0.26,0.3l0.18,0.14c0.5,0.4,0.57,0.83,0.43,1.09c-0.06,0.1-0.14,0.16-0.26,0.19
			c-0.25,0.07-0.6-0.02-0.95-0.23l-0.19-0.11l-0.12,0.18c-0.03,0.05-0.06,0.09-0.09,0.14c-0.04,0.06-0.09,0.13-0.13,0.2
			c-0.21,0.38-0.31,0.66-0.31,0.89c0,0.06,0.01,0.13,0.02,0.19c0.08,0.27,0.29,0.39,0.49,0.5l0.12,0.07
			c0.22,0.14,0.54,0.33,0.77,0.46c-0.44,0.25-0.89,0.27-1.33,0.05c-0.66-0.32-1.09-1.08-1.09-1.46c0-0.57,0.26-1.3,0.73-2.05
			l0.07-0.12l-0.07-0.11c-0.14-0.24-0.26-0.45-0.34-0.67c0.25,0.03,0.5,0.08,0.75,0.14l0.13,0.03l0.09-0.1
			c0.29-0.32,1.31-1.35,2.26-1.35c0.43,0,0.87,0.22,1.2,0.6c0.24,0.28,0.4,0.61,0.44,0.93C91.16,77.9,91.01,77.79,90.86,77.68
			 M92.42,82.3c-0.57,0-1.03-0.46-1.03-1.04c0-0.58,0.46-1.03,1.03-1.03c0.57,0,1.04,0.46,1.04,1.03C93.46,81.83,93,82.3,92.42,82.3
			 M96.98,83.7c-0.52,0-0.95-0.43-0.95-0.95c0-0.52,0.43-0.95,0.95-0.95c0.53,0,0.95,0.42,0.95,0.95
			C97.93,83.28,97.5,83.7,96.98,83.7"/>
		<path class="st0" d="M83.89,72.14v-0.01c0-0.1-0.02-0.23-0.06-0.34c-0.18-0.45-0.62-0.65-1.06-0.48
			c-0.44,0.17-0.62,0.61-0.45,1.07c0.08,0.22,0.24,0.39,0.43,0.48c0.19,0.08,0.41,0.08,0.62,0C83.69,72.73,83.89,72.47,83.89,72.14"
			/>
		<path class="st0" d="M84.41,56.67c-0.4-0.2-0.82-0.06-1.03,0.34c-0.11,0.2-0.13,0.41-0.07,0.61c0.06,0.19,0.19,0.34,0.38,0.44
			c0.19,0.1,0.39,0.12,0.57,0.07c0.2-0.06,0.37-0.2,0.46-0.4c0.07-0.13,0.09-0.26,0.09-0.38C84.8,57.04,84.63,56.79,84.41,56.67"/>
		<polygon class="st0" points="105.64,54.77 105.26,54.88 105.45,55.14 		"/>
		<path class="st0" d="M110.23,61.96l-0.33-0.66l0,0.01c-0.06,0.07-0.13,0.17-0.2,0.27c-0.04,0.05-0.07,0.11-0.11,0.16
			c0.07,0.02,0.14,0.04,0.22,0.08C109.95,61.87,110.1,61.92,110.23,61.96"/>
		<path class="st0" d="M109.93,66.52c0.06,0,0.13,0,0.14-0.17c0,0,0-0.12,0-0.2c-0.08,0-0.21-0.01-0.29-0.01v0.17
			c0,0.09,0.02,0.15,0.05,0.17C109.84,66.51,109.86,66.52,109.93,66.52"/>
		<path class="st0" d="M92.02,49.82c-0.19-0.09-0.41-0.1-0.63-0.01c-0.25,0.09-0.42,0.23-0.5,0.42c-0.1,0.22-0.08,0.47-0.02,0.63
			c0.06,0.18,0.33,0.73,1.09,0.46c0.21-0.08,0.37-0.22,0.46-0.42c0.05-0.1,0.07-0.22,0.07-0.33c0-0.09-0.02-0.18-0.05-0.28
			C92.36,50.08,92.21,49.91,92.02,49.82"/>
		<path class="st0" d="M111.89,64.45c-0.34-0.25-0.74-0.63-1.02-1.19c-0.39-0.13-1.43-0.5-1.88-0.66c0,0-0.21-0.08-0.24-0.09
			l-1.45,0.39l-0.27-1.01l1.46-0.39c0.02-0.03,0.07-0.09,0.13-0.17c0.21-0.28,0.61-0.79,0.78-1c-0.36-0.67-0.71-1.28-0.95-1.68
			c-0.22-0.37-0.33-0.72-0.33-1.02l-1.34,0.7c0.05,0.11,0.58,1.19,0.58,1.19l-0.9,0.44l-1.04-2.13l3.18-1.56l0.14,0.27
			c0.08-0.11,0.16-0.23,0.25-0.36c0.1-0.17,0.2-0.3,0.3-0.4c-0.62-1.06-1.33-2.05-2.15-2.96c-0.99-1.11-2.09-2.07-3.29-2.85
			c0.64-0.42,1.3-1.03,1.3-2.04c0-0.59-0.24-1.07-0.67-1.45c0.68-2.18,1.89-4.81,2.94-5.96l-2.19-0.92c0.57,0.86,0.6,1.87,0.48,2.46
			c-0.58-0.4-1.06-0.94-1.22-1.65c-0.11,0.66-0.47,1.74-0.8,2.38c0.63-0.3,1.14-0.43,1.78-0.16c-0.37,0.49-1.31,1.26-2.74,0.91
			c-0.78-0.18-1.55-0.6-1.52-1.2c0.02-0.35,0.29-0.79,0.77-0.74c0.47,0.05,0.5,0.77,0.36,1.1c0.62-0.35,1.27-2.19,0.3-2.46
			c-0.77-0.21-1.48,0.84-1.73,1.66c-0.15-0.98-0.55-1.91-1.33-1.86c-1.01,0.07-0.68,1.93-0.33,2.4c0.06-0.65,0.42-1,0.71-0.98
			c0.27,0.02,0.62,0.21,0.56,0.8c-0.06,0.59-0.9,0.96-1.87,0.96c-0.92,0-2.55-0.29-2.7-2.07c0.6,0.1,1.54,0.56,1.94,1.16
			c-0.12-1.08-0.13-1.85,0-2.97c-0.49,0.7-1.33,1.07-1.91,1.16c0.17-0.76,0.82-1.57,1.59-2.05h-3.97c0.76,0.47,1.42,1.28,1.59,2.04
			c-0.58-0.1-1.4-0.47-1.88-1.16c0.13,1.12,0.13,1.89,0,2.97c0.39-0.6,1.31-1.04,1.91-1.16c-0.16,1.78-1.78,2.07-2.7,2.07
			c-0.97,0-1.81-0.37-1.87-0.96c-0.06-0.59,0.3-0.78,0.57-0.8c0.29-0.02,0.65,0.33,0.71,0.98c0.35-0.47,0.68-2.33-0.32-2.4
			c-0.78-0.06-1.18,0.88-1.33,1.86c-0.25-0.81-0.96-1.86-1.73-1.66c-0.98,0.27-0.33,2.11,0.3,2.46c-0.15-0.32-0.12-1.05,0.35-1.1
			c0.49-0.05,0.75,0.39,0.77,0.74c0.04,0.6-0.74,1.02-1.52,1.2c-1.43,0.34-2.36-0.41-2.74-0.91c0.65-0.28,1.16-0.14,1.8,0.16
			c-0.33-0.64-0.69-1.72-0.8-2.38c-0.16,0.73-0.66,1.27-1.24,1.67c-0.13-0.59-0.09-1.6,0.48-2.48l-2.18,0.92
			c1.04,1.15,2.26,3.79,2.94,5.97c-0.42,0.38-0.65,0.85-0.65,1.43c0,1.01,0.65,1.62,1.3,2.04c-1.19,0.78-2.3,1.74-3.29,2.85
			c-1.5,1.68-2.67,3.64-3.49,5.82c-0.04,0.1-0.07,0.21-0.11,0.31c0.24,0.26,0.49,0.51,0.72,0.77c0.01-0.03,0.02-0.07,0.03-0.1
			c0.11-0.28,0.44-0.61,0.68-0.77l1.1,0.43c-0.45,0.32-1,0.77-0.89,0.88c0.05,0.05,0.29-0.15,0.39-0.23
			c0.33-0.25,0.81-0.65,1.46-0.39c0.28,0.11,0.5,0.32,0.61,0.58c0.12,0.27,0.12,0.58,0,0.87c-0.14,0.33-0.45,0.68-0.81,0.9l-1-0.39
			c0.41-0.24,0.8-0.7,0.86-0.83c0.03-0.08,0.04-0.16,0-0.17c-0.09-0.05-0.3,0.11-0.5,0.27c-0.22,0.16-0.47,0.35-0.75,0.42
			c0.47,0.66,0.78,1.29,0.8,1.79c0.03,0.99,0.24,1.38,0.77,2.04c0.79,1-0.02,0.92,0.67,2.16c-0.03-0.35-0.05-0.71-0.06-1.06h10.87
			v11.87c-0.44,0.01-0.93,0.06-1.3,0.51c1.26,0.51,2.52,0.96,3.72,1.34c0.11-0.78,0.32-1.16,0.71-1.64c0,0-1.64-0.16-2.49-0.21
			V66.14h10.61c-0.04,1.64-0.33,3.24-0.87,4.74c-0.56,1.55-1.36,2.95-2.39,4.14c-1.02,1.2-2.21,2.11-3.52,2.78
			c-0.31,0.16-0.54,0.65-0.74,1.1c-0.15,0.34-0.27,0.69-0.33,1.17c0.5,0.15,0.6,0.25,1.07,0.37c3.73,0.94,4.7,0.75,4.91,0.59
			c0.84-0.65,1.62-1.38,2.34-2.21c1.5-1.69,2.67-3.67,3.49-5.86c0.85-2.27,1.28-4.68,1.28-7.16
			C111.92,65.35,111.91,64.9,111.89,64.45 M106.78,53.41l0.43,0.55l-1.88,3.65l-0.68-0.94l0.34-0.64l-0.68-0.88l-0.6,0.19
			l-0.84-0.79L106.78,53.41z M104.34,51.1l0.62,0.48l-2.14,2.9l-0.86-0.6l1.09-1.42l-1.06,0.27l-0.17-1.12l-1,1.45l-0.92-0.49
			l2.06-2.98l0.7,0.37l0.23,1.49L104.34,51.1z M86.83,47.94c0-2.06,5.82-2.24,8.77-2.24h0h0c2.95,0,8.77,0.18,8.77,2.24
			c0,0.57-0.36,1.06-1.2,1.56c-1.45-0.97-3.94-2.03-7.56-2.03c-3.62,0-6.11,1.06-7.56,2.03C87.2,49,86.83,48.52,86.83,47.94
			 M99.26,48.75l-0.7,3.58l-1.02-0.21l0.7-3.58L99.26,48.75z M94.03,51.48l-0.45,0.97c-0.76,0.18-1.6-0.01-1.78-0.06
			c-0.85,0.1-1.63-0.37-1.92-1.16c-0.17-0.47-0.16-0.94,0.04-1.36c0.21-0.45,0.61-0.81,1.14-1c0.99-0.36,2.01,0.1,2.37,1.08
			c0.07,0.19,0.11,0.4,0.11,0.6c0,0.35-0.11,0.69-0.3,0.98C93.4,51.51,93.71,51.57,94.03,51.48 M87.18,51l0.66,0.71l-0.71,0.66
			c0.09,0.1,1.65,1.79,1.65,1.79l-0.75,0.68l-1.65-1.78l-0.71,0.65L85.02,53L87.18,51z M84.57,53.53l2.68,2.1l-0.63,0.8l-2.67-2.1
			L84.57,53.53z M84.51,59.09c-0.43,0.13-0.9,0.09-1.31-0.13c-0.41-0.22-0.71-0.58-0.85-1.01c-0.14-0.45-0.09-0.95,0.15-1.39
			c0.23-0.46,0.61-0.78,1.06-0.92c0.43-0.13,0.9-0.08,1.31,0.13c0.42,0.22,0.72,0.58,0.85,1.01c0.05,0.16,0.08,0.33,0.08,0.5
			c0,0.3-0.08,0.61-0.24,0.9C85.34,58.63,84.97,58.95,84.51,59.09 M84.54,65.5c0.03-1.66,0.32-3.27,0.87-4.79
			c0.56-1.56,1.36-2.95,2.39-4.15c1.02-1.19,2.2-2.13,3.52-2.78c1.3-0.65,2.68-0.98,4.1-1.01V65.5H84.54z M95.61,52.01
			c-0.76,0.02-1.54-0.42-1.56-1.43l-0.01-2.12l1.04-0.03v2.05c0.01,0.29,0.05,0.33,0.09,0.38c0.12,0.11,0.24,0.16,0.42,0.15
			c0.21,0,0.37-0.06,0.46-0.16c0.05-0.05,0.09-0.13,0.09-0.43l-0.01-2.01l1.04,0.01v2.1c0,0.42-0.13,0.77-0.38,1.04
			C96.54,51.85,96.13,52,95.61,52.01 M96.05,65.5V52.78c1.33,0.06,2.62,0.4,3.85,1c1.32,0.65,2.5,1.59,3.52,2.78
			c1.02,1.2,1.82,2.59,2.39,4.15c0.55,1.52,0.84,3.13,0.87,4.79H96.05z M104.97,79.81l-0.71-0.7l0.87-0.89l-0.18-0.18l-0.84,0.85
			l-0.71-0.7l0.84-0.85l-0.21-0.21L103.1,78l-0.71-0.7l1.65-1.61l2.53,2.49L104.97,79.81z M107.85,76.58
			c-0.16,0.24-0.56,0.51-0.83,0.61v0l-0.99-0.67c1.04-0.33,1.11-0.62,1.05-0.67c-0.04-0.04-0.21,0.05-0.41,0.15
			c-0.37,0.19-0.93,0.47-1.52,0.07c-0.24-0.17-0.41-0.42-0.47-0.7c-0.06-0.29,0.01-0.6,0.18-0.86c0.2-0.3,0.59-0.56,0.99-0.7
			l0.99,0.67l-0.17,0.03c-0.48,0.11-0.86,0.39-0.96,0.52c-0.05,0.05-0.07,0.11-0.06,0.14c0,0.01,0,0.02,0.02,0.03
			c0.09,0.06,0.35-0.06,0.55-0.15c0.39-0.18,0.89-0.4,1.38-0.07c0.25,0.17,0.41,0.4,0.46,0.67c0.01,0.06,0.02,0.13,0.02,0.2
			C108.09,76.09,108.01,76.34,107.85,76.58 M109.96,72.31l-2.21,0.76l1.63,0.66L109,74.68l-3.29-1.33l0.3-0.75l2.18-0.75l-1.61-0.65
			l0.38-0.94l3.29,1.33L109.96,72.31z M110.51,70.61l-0.98-0.18l0.22-1.22l-0.26-0.05l-0.22,1.18l-0.98-0.18l0.22-1.17l-0.29-0.06
			L108,70.19l-0.98-0.17l0.42-2.29l3.49,0.64L110.51,70.61z M111.06,66.36c-0.01,0.39-0.13,0.7-0.35,0.92
			c-0.21,0.2-0.5,0.31-0.82,0.3c-0.31-0.01-0.58-0.12-0.77-0.32c-0.22-0.22-0.33-0.55-0.33-0.95v-0.18c-0.13,0-1.26-0.02-1.26-0.02
			l0.01-1.04l3.55,0.06L111.06,66.36z"/>
		<path class="st0" d="M67.46,91.07c0,0-0.11,0.06-0.21,0.11c0.08,0.13,0.79,1.33,0.9,1.5c0.06-0.04,0.23-0.13,0.23-0.13
			c0.78-0.42,0.69-0.95,0.48-1.27C68.44,90.64,67.94,90.83,67.46,91.07"/>
		<path class="st0" d="M115.92,86.47c0.06-0.01,0.11-0.05,0.13-0.11c0.02-0.04,0.03-0.07,0.03-0.11c0-0.08-0.05-0.15-0.15-0.22
			c-0.01-0.01-0.29-0.18-0.3-0.18c0,0.01-0.16,0.28-0.24,0.41c0.11,0.06,0.26,0.15,0.26,0.15
			C115.74,86.47,115.83,86.49,115.92,86.47"/>
		<path class="st0" d="M111.25,85.94c0.7,0.18,1.15,0.06,1.42-0.61c0.2-0.5,0.04-0.89-0.77-1.12h0c-0.01,0-0.05-0.01-0.27-0.06
			c-0.07,0.18-0.6,1.68-0.62,1.74C111.12,85.91,111.25,85.94,111.25,85.94"/>
		<path class="st0" d="M118.3,89.84c0.25,0.14,0.5,0.18,0.75,0.12c0.26-0.06,0.45-0.21,0.6-0.44c0.13-0.23,0.17-0.44,0.11-0.68
			c-0.07-0.25-0.21-0.43-0.45-0.57c-0.26-0.15-0.5-0.19-0.76-0.13c-0.25,0.06-0.44,0.21-0.59,0.45c-0.14,0.22-0.18,0.45-0.11,0.69
			C117.9,89.51,118.06,89.69,118.3,89.84"/>
		<path class="st0" d="M100.72,97.93c-0.19-0.18-0.43-0.27-0.73-0.26c-0.31,0.02-0.55,0.11-0.76,0.3c-0.19,0.19-0.28,0.41-0.28,0.71
			c0,0.28,0.09,0.49,0.28,0.67c0.2,0.18,0.43,0.26,0.73,0.25c0.31-0.01,0.55-0.11,0.75-0.3c0.19-0.2,0.29-0.43,0.29-0.71
			C101.01,98.31,100.92,98.11,100.72,97.93"/>
		<path class="st0" d="M125.7,95.08c2.03,0,3.83-2.56,6.36-3.69c-6.4,1.86-15.24-8.99-21.26-8.99c-1.69,0-3.65,0.64-4.61,2.97
			c-1.01,2.47-2.15,3.29-2.15,4.38c0,0.95,0.87,1.69,2.33,2.47c0.95,0.5,1.93,0.77,1.87,1.67C105.51,95.14,100.98,96,95.6,96
			c-5.37,0-9.9-0.87-12.65-2.12c-0.05-0.89,0.94-1.17,1.87-1.67c1.46-0.77,2.33-1.51,2.33-2.47c0-1.1-1.13-1.91-2.14-4.38
			c-0.96-2.33-2.92-2.96-4.61-2.96c-6.02,0-14.86,10.86-21.26,8.99c2.53,1.13,4.34,3.69,6.37,3.69c5.19,0,11.2-7.8,16.83-7.8
			c0.08,0,0.16,0,0.25,0.01c-1.32,1.63-3.15,1.97-3.15,3.61c0,1.15,0.99,1.85,1.69,3.39c0.43,0.97,0.51,1.65,0.88,3.01
			c0.32,1.2,1.16,4.27,13.6,4.27c12.44,0,13.28-3.07,13.6-4.27c0.36-1.36,0.45-2.05,0.88-3.01c0.69-1.54,1.69-2.24,1.69-3.39
			c0-1.65-1.84-1.99-3.15-3.62c0.09-0.01,0.17-0.01,0.24-0.01C114.51,87.28,120.51,95.08,125.7,95.08 M126.57,91.34l-0.51,0.91
			c-0.28-0.13-0.81-0.36-1.19-0.56c-0.33,0.53-1.29,2.04-1.46,2.32l-1.01-0.44c0.02-0.02,1.14-1.78,1.51-2.39
			c-0.32-0.17-0.78-0.44-1.01-0.59l0.51-0.91C124.22,90.19,125.87,91.03,126.57,91.34 M123.04,89.4l-2.05,3.37l-0.96-0.59l2.06-3.35
			L123.04,89.4z M118.26,87.1c0.54-0.12,1.07-0.04,1.57,0.25c0.51,0.3,0.84,0.71,0.99,1.23c0.05,0.17,0.07,0.34,0.07,0.51
			c0,0.34-0.1,0.68-0.3,1c-0.3,0.49-0.73,0.79-1.28,0.91c-0.53,0.11-1.07,0.02-1.58-0.27c-0.5-0.29-0.82-0.69-0.97-1.21
			c-0.14-0.52-0.07-1.02,0.23-1.5C117.3,87.53,117.73,87.22,118.26,87.1 M116.48,85.18L116.48,85.18c0.18,0.12,0.43,0.31,0.59,0.58
			c0.2,0.34,0.19,0.73-0.03,1.11c-0.15,0.26-0.36,0.42-0.6,0.49c-0.1,0.02-0.19,0.03-0.3,0.02c0.03,0.17,0.05,0.35,0.07,0.57
			c0.05,0.82,0.17,1.71,0.17,1.73c-0.18-0.12-1.12-0.71-1.2-0.76l-0.1-1.14c-0.03-0.41-0.05-0.57-0.18-0.66
			c-0.1,0.17-0.71,1.22-0.71,1.22l-0.97-0.51l1.96-3.41C115.46,84.59,116.19,85,116.48,85.18 M110.91,82.88l1.5,0.37
			c0.95,0.24,1.82,1.11,1.31,2.39c-0.6,1.47-1.71,1.56-2.81,1.3l-1.32-0.32L110.91,82.88z M68.87,93.48l-1.14,0.62l-1.97-3.31
			l1.21-0.66c0.42-0.23,0.79-0.35,1.13-0.35c0.34-0.01,0.67,0.08,0.98,0.26c0.3,0.18,0.57,0.41,0.74,0.73
			C70.26,91.6,70.31,92.72,68.87,93.48 M71.87,91.69L69.8,88.4l0.91-0.6l2.07,3.31L71.87,91.69z M74.04,90.25l-2.06-3.31l2.16-1.41
			l0.55,0.89l-1.24,0.83c0.06,0.1,0.13,0.21,0.19,0.31l1.2-0.81l0.55,0.89l-1.2,0.81c0.07,0.11,0.15,0.24,0.22,0.34l1.28-0.86
			l0.55,0.89L74.04,90.25z M78.5,87.73c-1.16,0.5-1.87,0.01-2.25-0.82l-0.93-2.09l0.99-0.52c0,0,0.93,2.11,0.94,2.11
			c0.2,0.44,0.42,0.58,0.84,0.38c0.49-0.23,0.49-0.44,0.3-0.85l-0.97-2.21l1.1-0.37l0.91,2.15C79.79,86.38,79.72,87.2,78.5,87.73
			 M82.46,93.64c-1.5-0.78-2.35-1.69-2.35-2.63c0-1.54,2.41-2.42,3.36-3.61c1.42,0.24,3.32,0.91,3.32,2.17
			C86.78,91.03,82.04,91.65,82.46,93.64 M84.92,99.36l-0.21-3.99c0.62,0.18,1.95,0.53,2.64,0.65l0.02,1.09
			c-0.34-0.06-1-0.21-1.48-0.33c0,0.05,0.01,0.24,0.02,0.35c0.15,0.04,1.37,0.34,1.37,0.34l0.04,1.1c0,0-1.11-0.28-1.36-0.34
			c0,0.03,0.02,0.31,0.02,0.42c0.38,0.13,0.96,0.27,1.44,0.37l0.06,1.11C86.54,99.96,85.55,99.64,84.92,99.36 M91.13,97.65
			c-0.33-0.04-0.86-0.1-1.16-0.14v3.03l-1.13-0.16v-3.03c-0.32-0.05-0.81-0.13-1.14-0.18v-1.08c0.99,0.17,2.34,0.36,3.43,0.49V97.65
			z M97.45,100.79l-1.13,0.02v-2.15c-0.27,0.32-0.95,1.12-0.95,1.12s-0.67-0.8-0.94-1.12v2.15l-1.13-0.03v-4.05l0.94,0.03
			c0,0,0.97,1.18,1.13,1.37c0.16-0.2,1.1-1.36,1.1-1.36l0.97-0.02V100.79z M101.54,100.08c-0.42,0.39-0.95,0.6-1.58,0.63
			c-0.61,0.01-1.13-0.17-1.54-0.54c-0.42-0.38-0.63-0.87-0.63-1.45c0-0.6,0.21-1.11,0.63-1.51c0.41-0.4,0.94-0.62,1.56-0.64
			c0.62-0.02,1.15,0.16,1.57,0.54c0.43,0.38,0.64,0.88,0.64,1.47C102.18,99.16,101.96,99.67,101.54,100.08 M106.23,99.4l-0.84,0.29
			c0,0-1.37-1.38-1.67-1.69c-0.03,0.43-0.13,2.17-0.13,2.17l-1.11,0.22l0.24-4.16l0.8-0.14l1.71,1.72c0.02-0.42,0.12-2.12,0.12-2.12
			l1.11-0.3L106.23,99.4z M111.11,91.01c0,0.94-0.85,1.85-2.36,2.63c0.42-1.99-4.33-2.61-4.33-4.07c0-1.27,1.89-1.93,3.32-2.17
			C108.69,88.59,111.11,89.47,111.11,91.01"/>
		<path class="st0" d="M50.44,108.9h2.1c1.61,0,2.73,0.52,2.73,1.96c0,1.07-0.62,1.6-1.6,1.85v0.02c1.06,0.09,1.8,0.78,1.8,1.87
			c0,1.67-1.38,2.07-2.96,2.07h-2.07V108.9z M51.56,112.22h0.61c1.08,0,1.99-0.1,1.99-1.25c0-0.92-0.79-1.16-1.44-1.16h-1.17V112.22
			z M51.56,115.76h0.83c1,0,1.9-0.21,1.9-1.26c0-1.2-1.06-1.37-2.02-1.37h-0.72V115.76z"/>
		<path class="st0" d="M57.21,110.99h0.98v0.88h0.02c0.28-0.59,0.88-1.01,1.48-1.01c0.31,0,0.47,0.03,0.69,0.08v0.94
			c-0.19-0.08-0.4-0.1-0.58-0.1c-0.93,0-1.55,0.89-1.55,2.32v2.58h-1.05V110.99z"/>
		<path class="st0" d="M62.79,109.72h-1.18v-1.18h1.18V109.72z M61.68,110.99h1.05v5.68h-1.05V110.99z"/>
		<path class="st0" d="M67.65,111.84h-1.5v3.11c0,0.66,0.4,1.01,0.88,1.01c0.32,0,0.56-0.1,0.71-0.2v0.89
			c-0.23,0.07-0.56,0.16-0.89,0.16c-1.08,0-1.75-0.51-1.75-1.65v-3.32h-1.28v-0.85h1.28v-1.31l1.05-0.33v1.65h1.5V111.84z"/>
		<path class="st0" d="M70.21,109.72h-1.18v-1.18h1.18V109.72z M69.1,110.99h1.05v5.68H69.1V110.99z"/>
		<path class="st0" d="M71.64,115.56c0.41,0.27,1,0.4,1.3,0.4c0.48,0,1.07-0.2,1.07-0.81c0-1.04-2.46-0.95-2.46-2.54
			c0-1.18,0.88-1.75,2-1.75c0.49,0,0.89,0.1,1.3,0.22L74.77,112c-0.23-0.14-0.86-0.29-1.1-0.29c-0.53,0-1,0.22-1,0.69
			c0,1.16,2.46,0.82,2.46,2.64c0,1.21-0.97,1.77-1.98,1.77c-0.53,0-1.08-0.06-1.56-0.31L71.64,115.56z"/>
		<path class="st0" d="M76.39,108.32h1.05v3.49h0.02c0.38-0.6,1.04-0.95,1.83-0.95c1.47,0,2.13,0.91,2.13,2.44v3.38h-1.05v-2.94
			c0-1.33-0.29-1.97-1.2-2.03c-1.19,0-1.73,0.96-1.73,2.34v2.63h-1.05V108.32z"/>
		<polygon class="st0" points="86.44,108.9 90.8,108.9 90.8,109.88 87.56,109.88 87.56,112.15 90.51,112.15 90.51,113.13 
			87.56,113.13 87.56,115.69 90.8,115.69 90.8,116.67 86.44,116.67 		"/>
		<path class="st0" d="M92.47,110.99h0.98v0.82h0.02c0.4-0.66,0.97-0.96,1.8-0.96c0.66,0,1.31,0.33,1.61,1.1
			c0.39-0.81,1.25-1.1,1.76-1.1c1.45,0,1.97,0.94,1.97,2.17v3.64h-1.05v-3.39c0-0.7-0.17-1.58-1.01-1.58
			c-1.07,0-1.49,1.05-1.49,2.11v2.86h-1.05v-3.39c0-0.7-0.17-1.58-1.01-1.58c-1.07,0-1.49,1.05-1.49,2.11v2.86h-1.05V110.99z"/>
		<path class="st0" d="M102.37,108.32h1.05v3.45h0.02c0.32-0.52,0.89-0.91,1.88-0.91c1.65,0,2.45,1.35,2.45,2.87
			c0,1.56-0.72,3.07-2.44,3.07c-1.01,0-1.66-0.51-1.94-0.94h-0.02v0.8h-1V108.32z M105.1,111.71c-1.14,0-1.68,1.08-1.68,2.14
			c0,0.95,0.49,2.12,1.67,2.12c1.12,0,1.59-1.26,1.57-2.15C106.68,112.79,106.24,111.71,105.1,111.71"/>
		<path class="st0" d="M109.44,111.39c0.52-0.31,1.15-0.53,1.87-0.53c1.62,0,2.28,0.8,2.28,2.35v2.35c0,0.65,0.02,0.95,0.04,1.11
			h-0.98v-0.74h-0.02c-0.25,0.35-0.8,0.87-1.76,0.87c-1.22,0-2.08-0.53-2.08-1.77c0-1.43,1.56-1.87,2.64-1.87
			c0.41,0,0.7,0,1.11,0.02c0-0.98-0.36-1.48-1.4-1.48c-0.59,0-1.23,0.22-1.65,0.58L109.44,111.39z M112.55,113.97
			c-0.22,0-0.45-0.02-0.67-0.02c-0.57,0-1.97,0.09-1.97,1.09c0,0.6,0.58,0.92,1.06,0.92c1.04,0,1.58-0.65,1.58-1.49V113.97z"/>
		<path class="st0" d="M114.94,115.56c0.41,0.27,1,0.4,1.3,0.4c0.48,0,1.07-0.2,1.07-0.81c0-1.04-2.46-0.95-2.46-2.54
			c0-1.18,0.88-1.75,2-1.75c0.49,0,0.89,0.1,1.3,0.22l-0.09,0.91c-0.23-0.14-0.86-0.29-1.1-0.29c-0.53,0-1,0.22-1,0.69
			c0,1.16,2.46,0.82,2.46,2.64c0,1.21-0.97,1.77-1.98,1.77c-0.53,0-1.08-0.06-1.56-0.31L114.94,115.56z"/>
		<path class="st0" d="M119.27,115.56c0.41,0.27,1,0.4,1.3,0.4c0.48,0,1.07-0.2,1.07-0.81c0-1.04-2.46-0.95-2.46-2.54
			c0-1.18,0.88-1.75,2-1.75c0.49,0,0.89,0.1,1.3,0.22L122.4,112c-0.23-0.14-0.86-0.29-1.1-0.29c-0.53,0-1,0.22-1,0.69
			c0,1.16,2.46,0.82,2.46,2.64c0,1.21-0.97,1.77-1.98,1.77c-0.53,0-1.08-0.06-1.56-0.31L119.27,115.56z"/>
		<path class="st0" d="M123.6,118.21c0.13,0.04,0.31,0.09,0.49,0.09c0.94,0,1.25-1.29,1.25-1.4c0-0.12-0.13-0.41-0.2-0.6l-1.93-5.3
			h1.15l1.52,4.7h0.02l1.56-4.7h1.06l-2.09,5.8c-0.39,1.09-0.8,2.35-2.18,2.35c-0.33,0-0.52-0.04-0.71-0.08L123.6,118.21z"/>
		<path class="st0" d="M54.48,132.11c-0.2,0.03-0.4,0.04-0.62,0.04c-2.37,0-3.74-1.66-3.74-4.02c0-2.31,1.38-4.02,3.74-4.02
			c2.36,0,3.74,1.72,3.74,4.02c0,1.74-0.75,3.1-2.09,3.69l1.8,1.64h-1.38L54.48,132.11z M53.85,131.17c1.79,0,2.56-1.49,2.56-3.04
			c0-1.58-0.85-3.05-2.56-3.04c-1.71-0.01-2.56,1.46-2.56,3.04C51.29,129.68,52.06,131.17,53.85,131.17"/>
		<path class="st0" d="M64.09,132.02h-1.01v-0.9h-0.02c-0.31,0.65-1.07,1.04-1.86,1.04c-1.47,0-2.13-0.91-2.13-2.44v-3.38h1.05v2.94
			c0,1.33,0.29,1.97,1.2,2.03c1.19,0,1.73-0.96,1.73-2.34v-2.63h1.05V132.02z"/>
		<path class="st0" d="M67.12,125.07h-1.18v-1.18h1.18V125.07z M66.01,126.34h1.05v5.68h-1.05V126.34z"/>
		<path class="st0" d="M71.99,127.19h-1.5v3.11c0,0.66,0.4,1.01,0.88,1.01c0.32,0,0.56-0.1,0.71-0.2V132
			c-0.23,0.07-0.56,0.16-0.89,0.16c-1.08,0-1.75-0.51-1.75-1.65v-3.32h-1.28v-0.85h1.28v-1.31l1.05-0.33v1.65h1.5V127.19z"/>
		<path class="st0" d="M75.81,126.21c1.73,0,2.88,1.25,2.88,2.97c0,1.63-1.18,2.97-2.88,2.97c-1.71,0-2.89-1.35-2.89-2.97
			C72.92,127.45,74.08,126.21,75.81,126.21 M75.81,131.31c1.22,0,1.77-1.11,1.77-2.13c0-1.08-0.66-2.13-1.77-2.13
			c-1.12,0-1.78,1.05-1.78,2.13C74.03,130.19,74.58,131.31,75.81,131.31"/>
		<polygon class="st0" points="50.57,149.6 54.92,149.6 54.92,150.58 51.68,150.58 51.68,152.86 54.63,152.86 54.63,153.84 
			51.68,153.84 51.68,156.4 54.92,156.4 54.92,157.38 50.57,157.38 		"/>
		<path class="st0" d="M56.59,151.7h0.98v0.82h0.02c0.4-0.66,0.97-0.96,1.8-0.96c0.66,0,1.31,0.33,1.61,1.1
			c0.39-0.81,1.25-1.1,1.76-1.1c1.45,0,1.97,0.93,1.97,2.17v3.64h-1.05v-3.39c0-0.7-0.17-1.58-1.01-1.58
			c-1.07,0-1.49,1.05-1.49,2.11v2.86h-1.05v-3.39c0-0.7-0.17-1.58-1.01-1.58c-1.07,0-1.49,1.05-1.49,2.11v2.86h-1.05V151.7z"/>
		<path class="st0" d="M66.5,149.02h1.05v3.45h0.02c0.32-0.52,0.89-0.91,1.88-0.91c1.65,0,2.45,1.35,2.45,2.87
			c0,1.56-0.72,3.07-2.44,3.07c-1.01,0-1.66-0.51-1.94-0.94H67.5v0.8h-1V149.02z M69.22,152.41c-1.14,0-1.68,1.08-1.68,2.14
			c0,0.95,0.49,2.12,1.67,2.12c1.12,0,1.59-1.26,1.57-2.15C70.81,153.49,70.36,152.41,69.22,152.41"/>
		<path class="st0" d="M73.57,152.1c0.52-0.31,1.15-0.53,1.87-0.53c1.63,0,2.28,0.8,2.28,2.35v2.35c0,0.65,0.02,0.95,0.04,1.11
			h-0.98v-0.73h-0.02c-0.24,0.34-0.8,0.87-1.76,0.87c-1.22,0-2.08-0.53-2.08-1.77c0-1.43,1.56-1.87,2.64-1.87
			c0.41,0,0.7,0,1.11,0.02c0-0.98-0.36-1.48-1.4-1.48c-0.59,0-1.22,0.22-1.65,0.58L73.57,152.1z M76.67,154.67
			c-0.22,0-0.44-0.02-0.67-0.02c-0.57,0-1.97,0.09-1.97,1.09c0,0.6,0.58,0.92,1.06,0.92c1.04,0,1.58-0.65,1.58-1.49V154.67z"/>
		<path class="st0" d="M78.45,158.9c0.13,0.02,0.22,0.03,0.42,0.03c0.49,0,0.75-0.47,0.75-1.2v-6.04h1.05v5.88
			c0,0.82-0.03,2.27-1.6,2.27c-0.22,0-0.5-0.01-0.65-0.04L78.45,158.9z M80.73,150.43h-1.18v-1.18h1.18V150.43z"/>
		<path class="st0" d="M82.85,152.1c0.52-0.31,1.15-0.53,1.87-0.53c1.63,0,2.28,0.8,2.28,2.35v2.35c0,0.65,0.02,0.95,0.04,1.11
			h-0.98v-0.73h-0.02c-0.24,0.34-0.8,0.87-1.76,0.87c-1.22,0-2.08-0.53-2.08-1.77c0-1.43,1.56-1.87,2.64-1.87
			c0.41,0,0.7,0,1.11,0.02c0-0.98-0.36-1.48-1.4-1.48c-0.59,0-1.22,0.22-1.65,0.58L82.85,152.1z M85.95,154.67
			c-0.22,0-0.44-0.02-0.67-0.02c-0.57,0-1.97,0.09-1.97,1.09c0,0.6,0.58,0.92,1.06,0.92c1.04,0,1.58-0.65,1.58-1.49V154.67z"/>
		<path class="st0" d="M92.79,156.58h-0.02c-0.28,0.42-0.92,0.94-1.94,0.94c-1.71,0-2.44-1.53-2.44-3.07c0-1.53,0.8-2.87,2.45-2.87
			c0.99,0,1.56,0.39,1.88,0.91h0.02v-3.45h1.05v8.35h-1V156.58z M91.08,156.67c1.18,0,1.67-1.17,1.67-2.12
			c0-1.06-0.55-2.14-1.68-2.14c-1.14,0-1.58,1.07-1.56,2.11C89.48,155.41,89.95,156.67,91.08,156.67"/>
		<path class="st0" d="M95.84,152.1c0.52-0.31,1.15-0.53,1.87-0.53c1.62,0,2.28,0.8,2.28,2.35v2.35c0,0.65,0.02,0.95,0.04,1.11
			h-0.98v-0.73h-0.02c-0.25,0.34-0.8,0.87-1.76,0.87c-1.22,0-2.08-0.53-2.08-1.77c0-1.43,1.56-1.87,2.64-1.87
			c0.41,0,0.7,0,1.11,0.02c0-0.98-0.36-1.48-1.4-1.48c-0.59,0-1.22,0.22-1.65,0.58L95.84,152.1z M98.95,154.67
			c-0.22,0-0.45-0.02-0.67-0.02c-0.57,0-1.97,0.09-1.97,1.09c0,0.6,0.58,0.92,1.06,0.92c1.04,0,1.58-0.65,1.58-1.49V154.67z"/>
		<path class="st0" d="M104.89,149.6h2.11c1.61,0,2.73,0.52,2.73,1.96c0,1.07-0.62,1.6-1.6,1.85v0.02c1.06,0.09,1.8,0.78,1.8,1.87
			c0,1.67-1.38,2.07-2.96,2.07h-2.07V149.6z M106,152.92h0.61c1.08,0,1.99-0.1,1.99-1.25c0-0.92-0.79-1.16-1.44-1.16H106V152.92z
			 M106,156.47h0.84c1,0,1.9-0.21,1.9-1.26c0-1.2-1.06-1.37-2.02-1.37H106V156.47z"/>
		<path class="st0" d="M111.66,151.7h0.98v0.88h0.02c0.28-0.59,0.88-1.01,1.48-1.01c0.31,0,0.47,0.03,0.69,0.08v0.94
			c-0.19-0.08-0.4-0.1-0.58-0.1c-0.93,0-1.55,0.89-1.55,2.32v2.58h-1.05V151.7z"/>
		<path class="st0" d="M117.23,150.43h-1.18v-1.18h1.18V150.43z M116.12,151.7h1.05v5.68h-1.05V151.7z"/>
		<path class="st0" d="M122.1,152.54h-1.5v3.11c0,0.66,0.4,1.01,0.88,1.01c0.32,0,0.56-0.1,0.71-0.2v0.89
			c-0.23,0.07-0.56,0.16-0.89,0.16c-1.08,0-1.75-0.51-1.75-1.65v-3.32h-1.28v-0.85h1.28v-1.31l1.05-0.33v1.65h1.5V152.54z"/>
		<path class="st0" d="M123.68,152.1c0.52-0.31,1.15-0.53,1.87-0.53c1.63,0,2.28,0.8,2.28,2.35v2.35c0,0.65,0.02,0.95,0.04,1.11
			h-0.98v-0.74h-0.02c-0.25,0.35-0.8,0.87-1.76,0.87c-1.23,0-2.08-0.53-2.08-1.77c0-1.43,1.56-1.87,2.64-1.87
			c0.41,0,0.7,0,1.11,0.02c0-0.98-0.36-1.48-1.4-1.48c-0.59,0-1.22,0.22-1.65,0.58L123.68,152.1z M126.78,154.67
			c-0.22,0-0.45-0.02-0.67-0.02c-0.57,0-1.97,0.09-1.97,1.09c0,0.6,0.58,0.92,1.06,0.92c1.04,0,1.58-0.65,1.58-1.49V154.67z
			 M125.87,149.3h1.21l-1.46,1.6h-0.75L125.87,149.3z"/>
		<path class="st0" d="M129.6,151.7h1.01v0.9h0.02c0.31-0.65,1.07-1.04,1.86-1.04c1.47,0,2.13,0.91,2.13,2.44v3.38h-1.05v-2.94
			c0-1.33-0.29-1.97-1.2-2.03c-1.19,0-1.73,0.96-1.73,2.34v2.63h-1.05V151.7z"/>
		<path class="st0" d="M137.65,150.43h-1.18v-1.18h1.18V150.43z M136.54,151.7h1.05v5.68h-1.05V151.7z"/>
		<path class="st0" d="M143.1,152.66c-0.4-0.17-0.8-0.24-1.13-0.24c-1.17,0-1.83,1.05-1.83,2.13c0,1.01,0.55,2.13,1.89,2.13
			c0.36,0,0.8-0.11,1.12-0.32l0.08,0.94c-0.43,0.2-0.93,0.23-1.31,0.23c-1.71,0-2.89-1.35-2.89-2.97c0-1.73,1.16-2.97,2.89-2.97
			c0.42,0,0.97,0.1,1.27,0.22L143.1,152.66z"/>
		<path class="st0" d="M144.71,152.1c0.52-0.31,1.15-0.53,1.87-0.53c1.63,0,2.28,0.8,2.28,2.35v2.35c0,0.65,0.02,0.95,0.04,1.11
			h-0.98v-0.73h-0.02c-0.25,0.34-0.8,0.87-1.76,0.87c-1.22,0-2.08-0.53-2.08-1.77c0-1.43,1.56-1.87,2.64-1.87
			c0.41,0,0.7,0,1.11,0.02c0-0.98-0.36-1.48-1.4-1.48c-0.59,0-1.23,0.22-1.65,0.58L144.71,152.1z M147.81,154.67
			c-0.22,0-0.45-0.02-0.67-0.02c-0.57,0-1.97,0.09-1.97,1.09c0,0.6,0.58,0.92,1.06,0.92c1.04,0,1.58-0.65,1.58-1.49V154.67z"/>
		<path class="st0" d="M54.48,172.81c-0.2,0.03-0.4,0.04-0.62,0.04c-2.37,0-3.74-1.66-3.74-4.02c0-2.31,1.38-4.02,3.74-4.02
			c2.36,0,3.74,1.72,3.74,4.02c0,1.74-0.75,3.1-2.09,3.69l1.8,1.64h-1.38L54.48,172.81z M53.85,171.88c1.79,0,2.56-1.49,2.56-3.04
			c0-1.58-0.85-3.05-2.56-3.04c-1.71-0.01-2.56,1.46-2.56,3.04C51.29,170.39,52.06,171.88,53.85,171.88"/>
		<path class="st0" d="M64.09,172.73h-1.01v-0.9h-0.02c-0.31,0.65-1.07,1.04-1.86,1.04c-1.47,0-2.13-0.91-2.13-2.44v-3.38h1.05v2.94
			c0,1.33,0.29,1.97,1.2,2.03c1.19,0,1.73-0.96,1.73-2.34v-2.63h1.05V172.73z"/>
		<path class="st0" d="M67.12,165.77h-1.18v-1.18h1.18V165.77z M66.01,167.04h1.05v5.68h-1.05V167.04z"/>
		<path class="st0" d="M71.99,167.89h-1.5V171c0,0.66,0.4,1.01,0.88,1.01c0.32,0,0.56-0.1,0.71-0.2v0.89
			c-0.23,0.07-0.56,0.16-0.89,0.16c-1.08,0-1.75-0.51-1.75-1.65v-3.32h-1.28v-0.85h1.28v-1.31l1.05-0.33v1.65h1.5V167.89z"/>
		<path class="st0" d="M75.81,166.91c1.73,0,2.88,1.25,2.88,2.97c0,1.63-1.18,2.97-2.88,2.97c-1.71,0-2.89-1.35-2.89-2.97
			C72.92,168.16,74.08,166.91,75.81,166.91 M75.81,172.01c1.22,0,1.77-1.11,1.77-2.13c0-1.08-0.66-2.13-1.77-2.13
			c-1.12,0-1.78,1.05-1.78,2.13C74.03,170.9,74.58,172.01,75.81,172.01"/>
	</g>
</g>
</svg>
