<?xml version="1.0" encoding="utf-8"?>
<!-- Generator: Adobe Illustrator 28.0.0, SVG Export Plug-In . SVG Version: 6.00 Build 0)  -->
<svg version="1.1" id="Layer_1" xmlns="http://www.w3.org/2000/svg" xmlns:xlink="http://www.w3.org/1999/xlink" x="0px" y="0px"
	 viewBox="0 0 198.43 198.43" style="enable-background:new 0 0 198.43 198.43;" xml:space="preserve">
<style type="text/css">
	.st0{fill-rule:evenodd;clip-rule:evenodd;fill:#1B1918;}
	
		.st1{clip-path:url(#SVGID_00000016056183001213695170000014737115446542923436_);fill:url(#SVGID_00000044861048877833089150000018396563066946616486_);}
	.st2{fill:none;stroke:#999933;stroke-width:0.091;}
	
		.st3{clip-path:url(#SVGID_00000168826360992171198660000007884106969283605138_);fill:url(#SVGID_00000059989565312074083000000014615093211823306168_);}
	
		.st4{clip-path:url(#SVGID_00000009573027418295137130000016449475965259678876_);fill:url(#SVGID_00000150077957036954177630000002062951471895771571_);}
	
		.st5{clip-path:url(#SVGID_00000147937462292875800870000014584031348935364010_);fill:url(#SVGID_00000003797470672190114180000018090609504536572059_);}
	
		.st6{clip-path:url(#SVGID_00000065041261716388384020000018171721335576235961_);fill:url(#SVGID_00000149356547962465342200000012878586032613177774_);}
	.st7{fill-rule:evenodd;clip-rule:evenodd;}
</style>
<g>
	<g>
		<path class="st0" d="M19.6,104.56h-0.16c-0.04,0.16-0.13,0.29-0.4,0.29h-2.49v-1.03h4.29c0.15,0,0.2,0.06,0.24,0.35h0.16V102
			h-0.16c-0.04,0.29-0.09,0.35-0.24,0.35h-6.67v0.15c0.33,0.03,0.37,0.11,0.37,0.22v5.79c0,0.11-0.04,0.2-0.37,0.22v0.15h6.67
			c0.15,0,0.2,0.06,0.24,0.28h0.16V107h-0.16c-0.04,0.31-0.09,0.37-0.24,0.37h-4.29v-1.16h2.49c0.27,0,0.36,0.12,0.4,0.29h0.16
			V104.56z M28.75,106.05c0,0.96-0.61,1.34-1.69,1.34s-1.69-0.39-1.69-1.34v-3.33c0-0.11,0.04-0.2,0.37-0.22v-0.15H23v0.15
			c0.33,0.03,0.37,0.11,0.37,0.22v3.33c0,2.19,1.65,2.91,3.69,2.91c2.05,0,3.69-0.72,3.69-2.91v-3.33c0-0.11,0.04-0.2,0.37-0.22
			v-0.15h-2.76v0.15c0.33,0.03,0.37,0.11,0.37,0.22V106.05z M35.59,106.42h1.31c0.17,0.26,1.59,1.98,1.59,2.09
			c0,0.15-0.11,0.21-0.29,0.22v0.15h2.78v-0.15c-0.15,0-0.27-0.06-0.39-0.22l-1.58-2.06c1.11-0.29,1.91-0.9,1.91-2.04
			c0-1.42-0.84-2.06-2.82-2.06h-4.9v0.15c0.33,0.03,0.37,0.11,0.37,0.22v5.79c0,0.11-0.04,0.2-0.37,0.22v0.15h2.76v-0.15
			c-0.33-0.02-0.38-0.11-0.38-0.22V106.42z M35.59,103.74h2.25c0.79,0,1.03,0.32,1.03,0.68c0,0.36-0.24,0.68-1.03,0.68h-2.25V103.74
			z M46.46,103.79c1.16,0,2.19,0.66,2.19,1.83c0,1.17-1.03,1.83-2.19,1.83c-1.16,0-2.19-0.66-2.19-1.83
			C44.27,104.45,45.3,103.79,46.46,103.79 M46.46,102.27c-2.27,0-4.17,1.17-4.17,3.34c0,2.18,1.9,3.35,4.17,3.35
			c2.27,0,4.17-1.17,4.17-3.35C50.63,103.44,48.73,102.27,46.46,102.27"/>
		<path class="st0" d="M99.24,103.46h2.97c0.71,0,1.28,0.25,1.28,0.81c0,0.56-0.57,0.81-1.28,0.81h-2.97V103.46z M99.21,106.13h2.02
			l1.79,2.32c0.1,0.12,0.13,0.17,0.13,0.24c0,0.04-0.02,0.07-0.14,0.07v0.13h2.18v-0.13c-0.21,0-0.28-0.09-0.42-0.27l-1.81-2.33
			c1.21-0.17,1.92-0.84,1.92-1.9c0-1.04-0.9-1.86-2.61-1.86h-4.73v0.13c0.24,0,0.27,0.07,0.27,0.27v5.7c0,0.2-0.04,0.27-0.27,0.27
			v0.13h1.94v-0.13c-0.24,0-0.27-0.07-0.27-0.27V106.13z M88.74,108.89h6.45c0.24,0,0.33,0.07,0.33,0.2h0.14v-1.46h-0.14
			c0,0.14-0.1,0.21-0.33,0.21h-4.81v-1.75h3.08c0.12,0,0.21,0.02,0.26,0.05c0.06,0.04,0.08,0.09,0.08,0.16h0.14v-1.5H93.8
			c0,0.16-0.1,0.23-0.33,0.23h-3.08v-1.59h4.72c0.24,0,0.33,0.07,0.33,0.23h0.14v-1.48h-0.14c0,0.12-0.1,0.2-0.33,0.2h-6.37v0.13
			c0.22,0,0.26,0.07,0.26,0.27v5.7c0,0.2-0.04,0.27-0.26,0.27V108.89z M84.24,103.46h2.36c0.24,0,0.33,0.07,0.33,0.22h0.14v-1.49
			h-0.14c0,0.14-0.1,0.21-0.33,0.21h-6.12c-0.24,0-0.33-0.07-0.33-0.21h-0.14v1.49h0.14c0-0.15,0.1-0.22,0.33-0.22h2.36v5.04
			c0,0.2-0.04,0.27-0.29,0.27v0.13h1.99v-0.13c-0.26,0-0.3-0.07-0.3-0.27V103.46z M78.04,102.8c0-0.2,0.07-0.27,0.26-0.27v-0.13
			h-1.76v0.13c0.24,0,0.25,0.07,0.25,0.27v4.09l-4.26-4.11c-0.07-0.06-0.11-0.11-0.11-0.13c0-0.08,0.08-0.12,0.26-0.12v-0.13h-2.09
			v0.13c0.22,0,0.24,0.07,0.24,0.27v5.7c0,0.2-0.02,0.27-0.24,0.27v0.13h1.74v-0.13c-0.22,0-0.26-0.07-0.26-0.27v-4.35l4.41,4.3
			c0.13,0.12,0.19,0.16,0.19,0.24c0,0.05-0.1,0.07-0.2,0.07v0.13h1.81v-0.13c-0.2,0-0.26-0.07-0.26-0.27V102.8z M61.77,108.89h6.45
			c0.24,0,0.33,0.07,0.33,0.2h0.14v-1.46h-0.14c0,0.14-0.1,0.21-0.33,0.21h-4.81v-1.75h3.08c0.12,0,0.21,0.02,0.26,0.05
			c0.06,0.04,0.08,0.09,0.08,0.16h0.14v-1.5h-0.14c0,0.16-0.1,0.23-0.33,0.23h-3.08v-1.59h4.72c0.24,0,0.33,0.07,0.33,0.23h0.14
			v-1.48h-0.14c0,0.12-0.1,0.2-0.33,0.2h-6.37v0.13c0.22,0,0.25,0.07,0.25,0.27v5.7c0,0.2-0.04,0.27-0.25,0.27V108.89z M59.6,102.95
			l-0.14-0.04c-0.07,0.1-0.13,0.11-0.23,0.11c-0.21,0-1.36-0.69-3.09-0.69c-2.4,0-4.42,1.25-4.42,3.33c0,2.34,2.17,3.33,4.36,3.33
			c2.47,0,3.23-1.05,3.52-1.05c0.03,0,0.09,0.01,0.12,0.03l0.08-0.04l-1.01-1.31l-0.1,0.06c0.02,0.04,0.04,0.12,0.04,0.16
			c0,0.4-1.17,1.1-2.53,1.1c-1.68,0-3.08-0.64-3.08-2.28s1.4-2.28,2.96-2.28c1.23,0,2.41,0.57,2.41,0.78c0,0.04,0,0.09-0.01,0.14
			l0.15,0.07L59.6,102.95z"/>
	</g>
	<g>
		<defs>
			<polygon id="SVGID_1_" points="90.64,87.46 86.94,86.73 89.51,89.48 87.68,92.77 91.1,91.17 93.66,93.93 93.2,90.19 96.62,88.61 
				92.91,87.9 92.46,84.16 			"/>
		</defs>
		<clipPath id="SVGID_00000139288733382122991050000007080133070934372001_">
			<use xlink:href="#SVGID_1_"  style="overflow:visible;"/>
		</clipPath>
		
			<linearGradient id="SVGID_00000118396859030446795780000001990685371683352746_" gradientUnits="userSpaceOnUse" x1="-195.0232" y1="173.5818" x2="-194.7232" y2="173.5818" gradientTransform="matrix(32.1242 -5.6644 5.6644 32.1242 5231.6831 -6566.7974)">
			<stop  offset="0" style="stop-color:#E1BF5D"/>
			<stop  offset="0.53" style="stop-color:#F5E0A1"/>
			<stop  offset="1" style="stop-color:#D1A51F"/>
		</linearGradient>
		
			<polygon style="clip-path:url(#SVGID_00000139288733382122991050000007080133070934372001_);fill:url(#SVGID_00000118396859030446795780000001990685371683352746_);" points="
			87.23,95.59 98.29,93.64 96.32,82.5 85.27,84.45 		"/>
	</g>
	<g>
		<polygon class="st2" points="92.46,84.16 92.91,87.9 96.62,88.61 93.2,90.19 93.66,93.93 91.1,91.17 87.68,92.77 89.51,89.48 
			86.94,86.73 90.64,87.46 		"/>
	</g>
	<g>
		<defs>
			<polygon id="SVGID_00000026847919231340594450000004329523668877495180_" points="103.63,94.68 101.08,93.22 102.29,95.9 
				100.12,97.87 103.04,97.54 104.24,100.22 104.83,97.34 107.76,97.02 105.2,95.57 105.8,92.7 			"/>
		</defs>
		<clipPath id="SVGID_00000049191415887180136260000013907534533765181866_">
			<use xlink:href="#SVGID_00000026847919231340594450000004329523668877495180_"  style="overflow:visible;"/>
		</clipPath>
		
			<linearGradient id="SVGID_00000024714558463740068580000003570726960036816779_" gradientUnits="userSpaceOnUse" x1="-195.7638" y1="172.8585" x2="-195.4638" y2="172.8585" gradientTransform="matrix(21.9386 -12.1608 12.1608 21.9386 2198.2229 -6021.9004)">
			<stop  offset="0" style="stop-color:#E1BF5D"/>
			<stop  offset="0.53" style="stop-color:#F5E0A1"/>
			<stop  offset="1" style="stop-color:#D1A51F"/>
		</linearGradient>
		
			<polygon style="clip-path:url(#SVGID_00000049191415887180136260000013907534533765181866_);fill:url(#SVGID_00000024714558463740068580000003570726960036816779_);" points="
			101.91,103.46 110.94,98.45 105.96,89.46 96.93,94.47 		"/>
	</g>
	<g>
		<polygon class="st2" points="105.8,92.7 105.2,95.57 107.76,97.02 104.83,97.34 104.24,100.22 103.04,97.54 100.12,97.87 
			102.29,95.9 101.08,93.22 103.63,94.68 		"/>
	</g>
	<g>
		<defs>
			<polygon id="SVGID_00000132073133130349122440000005691454782575932580_" points="108.77,104.04 106.94,104.86 108.91,105.26 
				109.13,107.25 110.12,105.51 112.08,105.92 110.73,104.44 111.72,102.71 109.9,103.53 108.55,102.05 			"/>
		</defs>
		<clipPath id="SVGID_00000088112804882595217780000005645348565403268775_">
			<use xlink:href="#SVGID_00000132073133130349122440000005691454782575932580_"  style="overflow:visible;"/>
		</clipPath>
		
			<linearGradient id="SVGID_00000090994487556544944910000008015752298991016892_" gradientUnits="userSpaceOnUse" x1="-198.8545" y1="171.2581" x2="-198.5545" y2="171.2581" gradientTransform="matrix(11.8328 -12.6892 12.6892 11.8328 252.511 -4405.5479)">
			<stop  offset="0" style="stop-color:#E1BF5D"/>
			<stop  offset="0.53" style="stop-color:#F5E0A1"/>
			<stop  offset="1" style="stop-color:#D1A51F"/>
		</linearGradient>
		
			<polygon style="clip-path:url(#SVGID_00000088112804882595217780000005645348565403268775_);fill:url(#SVGID_00000090994487556544944910000008015752298991016892_);" points="
			109.69,109.82 114.67,104.47 109.33,99.49 104.35,104.84 		"/>
	</g>
	<g>
		<polygon class="st2" points="111.72,102.71 110.73,104.44 112.08,105.92 110.12,105.51 109.13,107.25 108.91,105.26 
			106.94,104.86 108.77,104.04 108.55,102.05 109.9,103.53 		"/>
	</g>
	<g>
		<defs>
			<polygon id="SVGID_00000103259815162225281780000001722370256137153954_" points="112.37,112.91 111,113.53 112.47,113.83 
				112.63,115.32 113.37,114.01 114.84,114.32 113.83,113.21 114.57,111.91 113.21,112.53 112.2,111.42 			"/>
		</defs>
		<clipPath id="SVGID_00000008869893228160765510000001813046185977640584_">
			<use xlink:href="#SVGID_00000103259815162225281780000001722370256137153954_"  style="overflow:visible;"/>
		</clipPath>
		
			<linearGradient id="SVGID_00000054243009896484962990000000479146081448638136_" gradientUnits="userSpaceOnUse" x1="-198.2371" y1="169.2358" x2="-197.9371" y2="169.2358" gradientTransform="matrix(8.8628 -9.5042 9.5042 8.8628 233.6735 -3240.866)">
			<stop  offset="0" style="stop-color:#E1BF5D"/>
			<stop  offset="0.53" style="stop-color:#F5E0A1"/>
			<stop  offset="1" style="stop-color:#D1A51F"/>
		</linearGradient>
		
			<polygon style="clip-path:url(#SVGID_00000008869893228160765510000001813046185977640584_);fill:url(#SVGID_00000054243009896484962990000000479146081448638136_);" points="
			113.05,117.23 116.79,113.23 112.79,109.5 109.05,113.5 		"/>
	</g>
	<g>
		<polygon class="st2" points="114.57,111.91 113.83,113.21 114.84,114.32 113.37,114.01 112.63,115.32 112.47,113.83 111,113.53 
			112.37,112.91 112.2,111.42 113.21,112.53 		"/>
		<path class="st0" d="M122.61,115.83l0.26-0.32l-0.44-0.37c0.41-0.34,0.58-0.85,0.58-1.35c0-0.86-0.52-1.76-1.87-1.76
			c-1.35,0-1.87,0.9-1.87,1.76c0,0.86,0.52,1.76,1.87,1.76c0.37,0,0.67-0.07,0.92-0.18L122.61,115.83z M121.68,115.04
			c-0.16,0.06-0.34,0.08-0.53,0.08c-0.77,0-1.37-0.44-1.37-1.33c0-0.89,0.6-1.33,1.37-1.33c0.77,0,1.37,0.44,1.37,1.33
			c0,0.47-0.17,0.82-0.45,1.04l-0.47-0.39l-0.26,0.32L121.68,115.04z M124.52,114.2c0,0.9,0.5,1.35,1.52,1.35s1.52-0.46,1.52-1.35
			v-2.09h-0.5v2.15c0,0.61-0.4,0.86-1.02,0.86c-0.62,0-1.02-0.25-1.02-0.86v-2.15h-0.5V114.2z M129.29,115.46h0.5v-3.35h-0.5V115.46
			z M132.43,115.46h0.5v-2.92h1.27v-0.43h-3.04v0.43h1.27V115.46z M135.36,113.79c0,0.86,0.52,1.76,1.87,1.76
			c1.35,0,1.87-0.9,1.87-1.76c0-0.86-0.52-1.76-1.87-1.76C135.87,112.03,135.36,112.93,135.36,113.79 M138.59,113.79
			c0,0.89-0.6,1.33-1.37,1.33c-0.77,0-1.37-0.44-1.37-1.33c0-0.89,0.6-1.33,1.37-1.33C137.99,112.46,138.59,112.9,138.59,113.79"/>
		<path class="st0" d="M34.61,113.32c-0.08-1-1.01-1.29-1.68-1.29c-1.15,0-1.76,0.77-1.76,1.75c0,1.31,0.92,1.77,1.76,1.77
			c0.96,0,1.6-0.63,1.68-1.37h-0.5c-0.14,0.65-0.59,0.94-1.18,0.94c-0.93,0-1.27-0.65-1.27-1.29c0-0.92,0.5-1.37,1.3-1.37
			c0.71,0,1.07,0.39,1.15,0.86H34.61z M36.16,115.46h2.75v-0.43h-2.25v-1.09h2.14v-0.43h-2.14v-0.97h2.2v-0.43h-2.7V115.46z
			 M43.13,115.46h0.58v-3.35h-0.5v2.67H43.2l-2.16-2.67h-0.58v3.35h0.5v-2.67h0.01L43.13,115.46z M46.33,115.46h0.5v-2.92h1.27
			v-0.43h-3.04v0.43h1.27V115.46z M49.45,115.46h0.5v-1.42h1.3c0.41,0,0.62,0.18,0.65,0.78c0.02,0.4,0.02,0.55,0.1,0.64h0.53
			c-0.11-0.13-0.13-0.29-0.16-0.91c-0.02-0.39-0.19-0.67-0.49-0.71v-0.01c0.37-0.12,0.56-0.42,0.56-0.83c0-0.43-0.24-0.89-0.92-0.89
			h-2.08V115.46z M49.95,113.61v-1.07h1.41c0.4,0,0.59,0.22,0.59,0.54c0,0.23-0.12,0.53-0.61,0.53H49.95z M53.79,113.79
			c0,0.86,0.52,1.76,1.87,1.76c1.35,0,1.87-0.9,1.87-1.76c0-0.86-0.52-1.76-1.87-1.76C54.31,112.03,53.79,112.93,53.79,113.79
			 M57.03,113.79c0,0.89-0.6,1.33-1.37,1.33c-0.77,0-1.37-0.44-1.37-1.33c0-0.89,0.6-1.33,1.37-1.33
			C56.43,112.46,57.03,112.9,57.03,113.79 M60.61,115.46h1.73c1.03,0,1.44-0.79,1.44-1.72c0-0.97-0.46-1.63-1.47-1.63h-1.7V115.46z
			 M61.11,115.03v-2.49h1.11c0.87,0,1.06,0.62,1.06,1.21c0,0.6-0.15,1.28-0.96,1.28H61.11z M65.33,115.46h2.75v-0.43h-2.25v-1.09
			h2.14v-0.43h-2.14v-0.97h2.2v-0.43h-2.7V115.46z M73.87,115.46h0.58v-3.35h-0.5v2.67h-0.01l-2.16-2.67H71.2v3.35h0.5v-2.67h0.01
			L73.87,115.46z M76.16,115.46h2.75v-0.43h-2.25v-1.09h2.14v-0.43h-2.14v-0.97h2.2v-0.43h-2.7V115.46z M82.28,114.09h1.1
			c-0.05,0.6-0.53,1.03-1.26,1.03c-0.7,0-1.31-0.37-1.31-1.32c0-0.71,0.4-1.34,1.28-1.34c0.64,0,0.98,0.24,1.14,0.71h0.53
			c-0.21-0.93-1-1.14-1.69-1.14c-0.87,0-1.76,0.52-1.76,1.82c0,0.74,0.43,1.71,1.77,1.71c0.71,0,1.07-0.31,1.29-0.56l0.08,0.48h0.36
			v-1.81h-1.54V114.09z M85.32,113.79c0,0.86,0.52,1.76,1.87,1.76c1.35,0,1.87-0.9,1.87-1.76c0-0.86-0.52-1.76-1.87-1.76
			C85.84,112.03,85.32,112.93,85.32,113.79 M88.56,113.79c0,0.89-0.6,1.33-1.37,1.33c-0.77,0-1.37-0.44-1.37-1.33
			c0-0.89,0.6-1.33,1.37-1.33C87.95,112.46,88.56,112.9,88.56,113.79 M93.83,113.32c-0.08-1-1.01-1.29-1.68-1.29
			c-1.15,0-1.76,0.77-1.76,1.75c0,1.31,0.92,1.77,1.76,1.77c0.96,0,1.6-0.63,1.68-1.37h-0.5c-0.14,0.65-0.59,0.94-1.18,0.94
			c-0.93,0-1.27-0.65-1.27-1.29c0-0.92,0.5-1.37,1.3-1.37c0.71,0,1.07,0.39,1.15,0.86H93.83z M95.41,115.46h0.5v-3.35h-0.5V115.46z
			 M97.46,113.79c0,0.86,0.52,1.76,1.87,1.76c1.35,0,1.87-0.9,1.87-1.76c0-0.86-0.52-1.76-1.87-1.76
			C97.98,112.03,97.46,112.93,97.46,113.79 M100.7,113.79c0,0.89-0.6,1.33-1.37,1.33c-0.77,0-1.37-0.44-1.37-1.33
			c0-0.89,0.6-1.33,1.37-1.33C100.1,112.46,100.7,112.9,100.7,113.79 M102.42,114.36c0,0.93,0.79,1.19,1.54,1.19
			c0.68,0,1.44-0.24,1.44-1.1c0-0.69-0.75-0.81-1.01-0.86l-0.82-0.14c-0.41-0.07-0.55-0.23-0.55-0.44c0-0.39,0.41-0.55,0.78-0.55
			c0.8,0,0.95,0.36,1,0.62h0.5c-0.05-0.81-0.76-1.05-1.43-1.05c-0.86,0-1.35,0.41-1.35,1.02c0,0.65,0.6,0.81,1,0.88l0.76,0.13
			c0.39,0.07,0.63,0.19,0.63,0.5c0,0.37-0.38,0.57-0.91,0.57c-0.51,0-1.07-0.16-1.08-0.76H102.42z"/>
	</g>
	<g>
		<defs>
			<polygon id="SVGID_00000023255320940999947280000013620068026252032900_" points="74.68,86.42 70.39,85.58 73.38,88.77 
				71.25,92.58 75.21,90.73 78.19,93.93 77.65,89.6 81.62,87.76 77.32,86.93 76.8,82.6 			"/>
		</defs>
		<clipPath id="SVGID_00000044881410698467136260000002380752617035219128_">
			<use xlink:href="#SVGID_00000023255320940999947280000013620068026252032900_"  style="overflow:visible;"/>
		</clipPath>
		
			<linearGradient id="SVGID_00000143610907967076519360000014649599836641853316_" gradientUnits="userSpaceOnUse" x1="-196.4018" y1="173.6869" x2="-196.1018" y2="173.6869" gradientTransform="matrix(37.2622 -6.5703 6.5703 37.2622 6124.9922 -7651.5181)">
			<stop  offset="0" style="stop-color:#E1BF5D"/>
			<stop  offset="0.53" style="stop-color:#F5E0A1"/>
			<stop  offset="1" style="stop-color:#D1A51F"/>
		</linearGradient>
		
			<polygon style="clip-path:url(#SVGID_00000044881410698467136260000002380752617035219128_);fill:url(#SVGID_00000143610907967076519360000014649599836641853316_);" points="
			70.73,95.85 83.56,93.59 81.28,80.68 68.45,82.94 		"/>
	</g>
	<g>
		<polygon class="st2" points="76.8,82.6 77.32,86.93 81.62,87.76 77.65,89.6 78.19,93.93 75.21,90.73 71.25,92.58 73.38,88.77 
			70.39,85.58 74.68,86.42 		"/>
		<path class="st7" d="M178.85,103.74h2.25c0.26,0,0.47,0.03,0.62,0.1c0.15,0.06,0.26,0.15,0.32,0.25c0.06,0.1,0.09,0.22,0.09,0.34
			c0,0.12-0.03,0.23-0.09,0.34c-0.06,0.1-0.17,0.19-0.32,0.25c-0.15,0.06-0.36,0.1-0.62,0.1h-2.25V103.74z M178.85,106.42h1.31
			c0.03,0.05,0.09,0.12,0.18,0.24c0.09,0.11,0.19,0.24,0.31,0.39c0.12,0.15,0.24,0.31,0.37,0.47c0.13,0.16,0.25,0.31,0.36,0.46
			c0.11,0.14,0.2,0.26,0.27,0.36c0.07,0.1,0.1,0.16,0.1,0.18c0,0.07-0.03,0.13-0.08,0.16c-0.05,0.04-0.13,0.05-0.22,0.06v0.15h2.79
			v-0.15c-0.07,0-0.14-0.02-0.2-0.05c-0.06-0.04-0.13-0.09-0.19-0.17l-1.58-2.06c0.37-0.09,0.7-0.23,0.99-0.4
			c0.29-0.17,0.51-0.39,0.67-0.66c0.16-0.27,0.25-0.59,0.25-0.97c0-0.47-0.1-0.86-0.29-1.16c-0.2-0.3-0.5-0.53-0.92-0.68
			c-0.42-0.15-0.96-0.22-1.62-0.22h-4.91v0.15c0.11,0.01,0.19,0.02,0.25,0.04c0.05,0.02,0.09,0.05,0.11,0.08
			c0.02,0.03,0.02,0.06,0.02,0.1v5.79c0,0.04-0.01,0.07-0.02,0.1c-0.02,0.03-0.05,0.06-0.11,0.08c-0.05,0.02-0.14,0.04-0.25,0.04
			v0.15h2.76v-0.15c-0.11-0.01-0.19-0.02-0.25-0.04c-0.05-0.02-0.09-0.05-0.11-0.08c-0.02-0.03-0.02-0.06-0.02-0.1V106.42z
			 M170.54,102.27c-0.46,0-0.89,0.05-1.31,0.14c-0.42,0.09-0.8,0.23-1.15,0.41c-0.35,0.18-0.65,0.41-0.91,0.68
			c-0.26,0.27-0.46,0.58-0.6,0.93c-0.14,0.35-0.21,0.75-0.22,1.18c0,0.43,0.07,0.83,0.22,1.18c0.14,0.35,0.34,0.67,0.6,0.93
			c0.26,0.27,0.56,0.49,0.91,0.68c0.35,0.18,0.73,0.32,1.15,0.41c0.42,0.09,0.85,0.14,1.31,0.14c0.46,0,0.89-0.05,1.31-0.14
			c0.42-0.09,0.8-0.23,1.15-0.41c0.35-0.18,0.65-0.41,0.91-0.68c0.26-0.27,0.46-0.58,0.6-0.93c0.14-0.35,0.21-0.75,0.22-1.18
			c0-0.44-0.07-0.83-0.22-1.18c-0.14-0.35-0.34-0.66-0.6-0.93c-0.26-0.27-0.56-0.49-0.91-0.68c-0.35-0.18-0.73-0.32-1.15-0.41
			C171.43,102.31,171,102.27,170.54,102.27 M170.54,103.79c0.29,0,0.57,0.04,0.84,0.12c0.26,0.08,0.5,0.2,0.7,0.35
			c0.2,0.16,0.36,0.35,0.48,0.57c0.12,0.23,0.18,0.49,0.18,0.78c0,0.29-0.06,0.55-0.18,0.78c-0.12,0.23-0.28,0.42-0.48,0.57
			c-0.21,0.16-0.44,0.27-0.7,0.35c-0.26,0.08-0.54,0.12-0.84,0.12c-0.29,0-0.57-0.04-0.84-0.12c-0.26-0.08-0.5-0.2-0.7-0.35
			c-0.2-0.16-0.36-0.35-0.48-0.57c-0.12-0.23-0.18-0.49-0.18-0.78c0-0.29,0.06-0.55,0.18-0.78c0.12-0.23,0.28-0.42,0.48-0.57
			c0.21-0.16,0.44-0.27,0.7-0.35C169.97,103.83,170.25,103.79,170.54,103.79 M159.5,103.81h1.7c0.47,0,0.86,0.08,1.15,0.23
			c0.29,0.15,0.51,0.36,0.65,0.63c0.14,0.27,0.2,0.58,0.2,0.94c0,0.35-0.06,0.67-0.2,0.94c-0.14,0.27-0.35,0.48-0.65,0.63
			c-0.3,0.15-0.68,0.23-1.15,0.23h-1.7V103.81z M157.49,108.51c0,0.04-0.01,0.07-0.02,0.1c-0.02,0.03-0.05,0.06-0.11,0.08
			c-0.05,0.02-0.14,0.04-0.25,0.04v0.15h4.3c0.5,0,0.95-0.06,1.35-0.18c0.4-0.12,0.75-0.28,1.05-0.48c0.3-0.21,0.55-0.45,0.76-0.72
			c0.2-0.28,0.35-0.57,0.46-0.89c0.1-0.32,0.15-0.65,0.15-0.99c0-0.47-0.07-0.9-0.22-1.29c-0.14-0.4-0.37-0.74-0.67-1.04
			c-0.3-0.3-0.67-0.53-1.13-0.69c-0.45-0.17-0.99-0.25-1.61-0.25h-4.45v0.15c0.11,0.01,0.19,0.02,0.25,0.04
			c0.05,0.02,0.09,0.05,0.11,0.08c0.02,0.03,0.02,0.06,0.02,0.1V108.51z M152.63,107.47c0.01,0.03,0.03,0.09,0.07,0.17
			c0.03,0.08,0.07,0.17,0.11,0.28c0.04,0.1,0.09,0.2,0.13,0.3c0.04,0.1,0.08,0.18,0.1,0.25c0.03,0.07,0.04,0.11,0.04,0.12
			c0,0.04-0.02,0.07-0.06,0.1c-0.04,0.03-0.1,0.05-0.2,0.05v0.15h2.64v-0.15c-0.08,0-0.14-0.02-0.2-0.07
			c-0.06-0.05-0.11-0.15-0.18-0.3c-0.12-0.27-0.25-0.57-0.4-0.91c-0.14-0.33-0.3-0.68-0.46-1.03c-0.16-0.36-0.31-0.72-0.47-1.07
			c-0.16-0.35-0.3-0.69-0.44-1.01c-0.14-0.32-0.26-0.6-0.37-0.85c-0.11-0.25-0.19-0.45-0.25-0.59c-0.06-0.15-0.09-0.23-0.09-0.25
			c0-0.06,0.02-0.1,0.06-0.12c0.04-0.02,0.1-0.04,0.18-0.04v-0.15h-3.5v0.15c0.06,0,0.12,0.02,0.18,0.03
			c0.06,0.02,0.09,0.05,0.09,0.09c0,0.01-0.03,0.1-0.1,0.26c-0.06,0.16-0.15,0.38-0.26,0.64c-0.11,0.27-0.23,0.57-0.37,0.9
			c-0.14,0.33-0.28,0.68-0.42,1.03c-0.15,0.36-0.29,0.71-0.43,1.04c-0.14,0.34-0.27,0.65-0.38,0.93c-0.12,0.28-0.21,0.51-0.29,0.69
			c-0.07,0.18-0.12,0.29-0.14,0.33c-0.04,0.1-0.08,0.16-0.13,0.2c-0.05,0.04-0.12,0.07-0.21,0.08v0.15h2.37v-0.15
			c-0.09,0-0.16-0.01-0.19-0.03c-0.04-0.02-0.05-0.05-0.05-0.09c0-0.02,0.01-0.04,0.02-0.08c0.01-0.04,0.04-0.1,0.07-0.18
			c0.03-0.08,0.07-0.19,0.13-0.33c0.06-0.14,0.13-0.33,0.21-0.55H152.63z M150.99,103.51l1.3,2.96h-2.49L150.99,103.51z
			 M142.82,106.05c0,0.32-0.07,0.58-0.2,0.77c-0.13,0.2-0.32,0.34-0.58,0.44c-0.25,0.09-0.55,0.14-0.91,0.13
			c-0.36,0-0.66-0.04-0.91-0.13c-0.25-0.09-0.44-0.24-0.58-0.44c-0.13-0.2-0.2-0.46-0.2-0.77v-3.33c0-0.04,0.01-0.07,0.02-0.1
			c0.02-0.03,0.05-0.06,0.11-0.08c0.05-0.02,0.14-0.04,0.25-0.04v-0.15h-2.76v0.15c0.11,0.01,0.19,0.02,0.25,0.04
			c0.05,0.02,0.09,0.05,0.11,0.08c0.02,0.03,0.02,0.06,0.02,0.1v3.33c0,0.55,0.1,1,0.29,1.38s0.45,0.67,0.79,0.9
			c0.34,0.23,0.73,0.39,1.18,0.49c0.45,0.1,0.93,0.15,1.44,0.15c0.52,0,1-0.05,1.44-0.15c0.45-0.1,0.84-0.26,1.18-0.49
			c0.34-0.23,0.6-0.52,0.79-0.9c0.19-0.37,0.29-0.83,0.29-1.38v-3.33c0-0.04,0.01-0.07,0.02-0.1c0.02-0.03,0.05-0.06,0.11-0.08
			c0.05-0.02,0.14-0.04,0.25-0.04v-0.15h-2.76v0.15c0.11,0.01,0.19,0.02,0.25,0.04c0.06,0.02,0.09,0.05,0.11,0.08
			c0.02,0.03,0.02,0.06,0.02,0.1V106.05z M135.09,102.7l-0.15-0.04c-0.03,0.03-0.06,0.06-0.09,0.07c-0.03,0.02-0.07,0.03-0.11,0.03
			c-0.06,0-0.17-0.02-0.32-0.07c-0.15-0.04-0.35-0.1-0.61-0.17c-0.27-0.07-0.59-0.13-0.98-0.18c-0.39-0.05-0.85-0.08-1.39-0.08
			c-0.43,0-0.86,0.05-1.28,0.13c-0.42,0.09-0.82,0.22-1.2,0.4c-0.38,0.18-0.71,0.4-1,0.67c-0.29,0.27-0.52,0.58-0.69,0.94
			c-0.17,0.36-0.25,0.76-0.25,1.2c0,0.45,0.09,0.84,0.25,1.2c0.17,0.36,0.39,0.67,0.69,0.94c0.29,0.27,0.62,0.49,1,0.67
			c0.38,0.18,0.78,0.31,1.2,0.4c0.42,0.09,0.85,0.13,1.28,0.13c0.4,0,0.77-0.02,1.11-0.07c0.34-0.04,0.64-0.1,0.92-0.17
			c0.27-0.07,0.51-0.13,0.71-0.2c0.2-0.07,0.37-0.12,0.5-0.17c0.13-0.05,0.22-0.07,0.28-0.07c0.05,0,0.08,0,0.11,0.02
			c0.03,0.01,0.05,0.04,0.07,0.08l0.16-0.09l-1.38-1.95l-0.15,0.09c0.02,0.03,0.03,0.06,0.05,0.09c0.02,0.03,0.03,0.06,0.03,0.1
			c0,0.06-0.05,0.12-0.13,0.18c-0.09,0.06-0.2,0.11-0.35,0.16c-0.14,0.05-0.3,0.1-0.47,0.14c-0.17,0.04-0.34,0.08-0.51,0.11
			c-0.17,0.03-0.32,0.06-0.46,0.07c-0.14,0.02-0.25,0.03-0.33,0.03c-0.22,0-0.44-0.02-0.68-0.06c-0.23-0.04-0.45-0.1-0.67-0.18
			c-0.21-0.08-0.41-0.19-0.58-0.32c-0.17-0.13-0.31-0.29-0.41-0.48c-0.1-0.19-0.15-0.41-0.15-0.66c0-0.25,0.05-0.47,0.15-0.67
			c0.1-0.19,0.24-0.35,0.41-0.48c0.17-0.13,0.37-0.24,0.58-0.32c0.22-0.08,0.44-0.14,0.67-0.18c0.23-0.04,0.46-0.06,0.68-0.06
			c0.29,0,0.56,0.02,0.82,0.05c0.26,0.04,0.49,0.08,0.69,0.14c0.2,0.06,0.36,0.12,0.48,0.18c0.12,0.07,0.18,0.13,0.18,0.19
			c0,0.04,0,0.08-0.01,0.11c0,0.03-0.01,0.05-0.02,0.08l0.13,0.09L135.09,102.7z M123.83,104.56h-0.16
			c-0.02,0.08-0.06,0.15-0.12,0.2c-0.06,0.05-0.15,0.08-0.29,0.08h-2.49v-1.03h4.3c0.07,0,0.13,0.02,0.16,0.07
			c0.04,0.05,0.06,0.14,0.08,0.28h0.16v-2.16h-0.16c-0.02,0.14-0.04,0.23-0.08,0.28c-0.04,0.05-0.09,0.07-0.16,0.07h-6.69v0.15
			c0.11,0.01,0.19,0.02,0.25,0.04c0.05,0.02,0.09,0.05,0.11,0.08c0.02,0.03,0.02,0.06,0.02,0.1v5.79c0,0.04-0.01,0.07-0.02,0.1
			c-0.02,0.03-0.05,0.06-0.11,0.08c-0.05,0.02-0.14,0.04-0.25,0.04v0.15h6.69c0.07,0,0.13,0.02,0.16,0.06
			c0.04,0.04,0.06,0.11,0.08,0.22h0.16v-2.16h-0.16c-0.01,0.1-0.03,0.18-0.05,0.23c-0.02,0.05-0.04,0.09-0.08,0.11
			c-0.03,0.02-0.07,0.03-0.12,0.03h-4.3v-1.16h2.49c0.13,0,0.23,0.03,0.29,0.08c0.06,0.05,0.1,0.12,0.12,0.2h0.16V104.56z"/>
	</g>
</g>
</svg>
