<?xml version="1.0" encoding="utf-8"?>
<!-- Generator: Adobe Illustrator 28.0.0, SVG Export Plug-In . SVG Version: 6.00 Build 0)  -->
<svg version="1.1" id="Layer_1" xmlns="http://www.w3.org/2000/svg" xmlns:xlink="http://www.w3.org/1999/xlink" x="0px" y="0px"
	 viewBox="0 0 198.43 198.43" style="enable-background:new 0 0 198.43 198.43;" xml:space="preserve">
<style type="text/css">
	.st0{fill-rule:evenodd;clip-rule:evenodd;fill:#1B1918;}
	.st1{fill-rule:evenodd;clip-rule:evenodd;fill:#004B96;}
	.st2{fill:none;stroke:#FFFFFF;stroke-width:0.827;}
</style>
<g>
	<polygon class="st0" points="47.44,115.51 49.37,115.51 50.81,120.32 50.83,120.32 52.27,115.51 54.2,115.51 54.2,121.86 
		53.05,121.86 53.05,116.62 53.03,116.62 51.4,121.86 50.24,121.86 48.61,116.62 48.59,116.63 48.6,121.86 47.44,121.86 	"/>
	<g>
		<path class="st0" d="M55.55,118.47c0.39-0.31,0.88-0.51,1.37-0.51c0.68,0,1,0.26,1,1.01h-0.64c-0.49,0-1.06,0.05-1.49,0.27
			c-0.44,0.23-0.75,0.65-0.75,1.35c0,0.89,0.76,1.39,1.55,1.39c0.53,0,1.1-0.29,1.37-0.81h0.02c0.01,0.15,0.01,0.46,0.05,0.7h1.03
			c-0.03-0.36-0.05-0.69-0.05-1.04c-0.01-0.35-0.02-0.71-0.02-1.18v-0.6c0-1.38-0.56-1.97-1.92-1.97c-0.49,0-1.1,0.13-1.54,0.35
			L55.55,118.47z M56.48,116.55h0.71l1.18-1.33H57.2L56.48,116.55z M56.14,120.51c0-0.72,0.76-0.82,1.29-0.82h0.5
			c0,0.37-0.05,0.71-0.24,0.97c-0.18,0.25-0.46,0.42-0.82,0.42C56.46,121.08,56.14,120.91,56.14,120.51"/>
		<path class="st0" d="M62.59,118.16c-0.35-0.12-0.61-0.2-1.02-0.2c-0.32,0-0.7,0.12-0.7,0.52c0,0.75,2.02,0.27,2.02,1.97
			c0,1.09-0.92,1.53-1.87,1.53c-0.44,0-0.88-0.08-1.3-0.2l0.07-1c0.36,0.19,0.73,0.31,1.13,0.31c0.29,0,0.77-0.12,0.77-0.57
			c0-0.92-2.02-0.29-2.02-1.99c0-1.01,0.83-1.45,1.75-1.45c0.54,0,0.9,0.09,1.25,0.18L62.59,118.16z"/>
		<polygon class="st0" points="65.35,117.18 66.6,117.18 67.7,120.6 67.72,120.6 68.78,117.18 69.94,117.18 68.3,121.86 
			66.99,121.86 		"/>
		<path class="st0" d="M70.71,118.47c0.38-0.31,0.88-0.51,1.37-0.51c0.68,0,1,0.26,1,1.01h-0.64c-0.49,0-1.05,0.05-1.5,0.27
			c-0.44,0.23-0.75,0.65-0.75,1.35c0,0.89,0.77,1.39,1.55,1.39c0.52,0,1.1-0.29,1.37-0.81h0.02c0.01,0.15,0.01,0.45,0.05,0.7h1.03
			c-0.02-0.36-0.04-0.69-0.05-1.04c-0.01-0.35-0.02-0.71-0.02-1.18v-0.6c0-1.38-0.55-1.97-1.92-1.97c-0.49,0-1.09,0.13-1.54,0.35
			L70.71,118.47z M71.29,120.51c0-0.72,0.77-0.82,1.29-0.82h0.5c0,0.37-0.05,0.71-0.25,0.97c-0.17,0.25-0.45,0.42-0.81,0.42
			C71.61,121.08,71.29,120.91,71.29,120.51"/>
		<path class="st0" d="M75.12,117.18h1.03v1.06h0.02c0.05-0.43,0.53-1.17,1.22-1.17c0.11,0,0.24,0,0.36,0.03v1.23
			c-0.1-0.06-0.31-0.1-0.52-0.1c-0.94,0-0.94,1.24-0.94,1.91v1.72h-1.15V117.18z"/>
		<path class="st0" d="M78.31,115.16h1.16v1.17h-1.16V115.16z M78.31,117.18h1.16v4.68h-1.16V117.18z"/>
		<path class="st0" d="M84.08,120.6c-0.44,0.26-0.92,0.48-1.47,0.48c-0.72,0-1.22-0.44-1.27-1.18h3.07c0-1.63-0.46-2.82-2.11-2.82
			c-1.38,0-2.07,1.12-2.07,2.47c0,1.54,0.85,2.43,2.33,2.43c0.62,0,1.1-0.13,1.53-0.37V120.6z M81.34,119.07
			c0.05-0.63,0.38-1.11,1.02-1.11c0.65,0,0.91,0.51,0.94,1.11H81.34z"/>
		<path class="st0" d="M88.11,121.86h1.12v-6.81h-1.15v2.68h-0.02c-0.35-0.44-0.76-0.65-1.34-0.65c-1.36,0-1.87,1.14-1.87,2.44
			c0,1.28,0.5,2.46,1.87,2.46c0.55,0,1.02-0.18,1.37-0.63h0.02V121.86z M86.06,119.51c0-0.63,0.21-1.5,0.97-1.5
			c0.74,0,1.04,0.84,1.04,1.5c0,0.67-0.25,1.52-1.02,1.52C86.28,121.03,86.06,120.15,86.06,119.51"/>
		<path class="st0" d="M90.49,118.47c0.38-0.31,0.88-0.51,1.36-0.51c0.69,0,1.01,0.26,1.01,1.01h-0.64c-0.48,0-1.06,0.05-1.49,0.27
			c-0.44,0.23-0.76,0.65-0.76,1.35c0,0.89,0.77,1.39,1.56,1.39c0.53,0,1.1-0.29,1.37-0.81h0.02c0.01,0.15,0.01,0.45,0.05,0.69h1.03
			c-0.03-0.36-0.05-0.68-0.05-1.03c0-0.35-0.02-0.71-0.02-1.18v-0.6c0-1.38-0.56-1.97-1.92-1.97c-0.5,0-1.1,0.13-1.55,0.35
			L90.49,118.47z M91.07,120.51c0-0.72,0.77-0.81,1.29-0.81h0.5c0,0.37-0.05,0.71-0.24,0.97c-0.19,0.25-0.46,0.42-0.81,0.42
			C91.39,121.08,91.07,120.91,91.07,120.51"/>
		<path class="st0" d="M97.85,121.86h1.13v-6.81h-1.16v2.68H97.8c-0.35-0.44-0.76-0.65-1.34-0.65c-1.36,0-1.86,1.14-1.86,2.44
			c0,1.28,0.5,2.46,1.86,2.46c0.55,0,1.02-0.18,1.37-0.63h0.02V121.86z M95.8,119.51c0-0.63,0.21-1.5,0.96-1.5
			c0.75,0,1.04,0.84,1.04,1.5c0,0.67-0.26,1.52-1.02,1.52C96.02,121.03,95.8,120.15,95.8,119.51"/>
		<path class="st0" d="M104.07,120.6h0.02l1.07-3.42h1.17l-1.67,4.66c-0.37,1.03-0.64,2.05-1.85,2.05c-0.27,0-0.55-0.05-0.82-0.13
			l0.08-0.9c0.15,0.05,0.31,0.09,0.6,0.09c0.47,0,0.76-0.34,0.76-0.85l-1.7-4.92h1.28L104.07,120.6z"/>
		<path class="st0" d="M109.31,118.47c0.39-0.31,0.88-0.51,1.37-0.51c0.68,0,1,0.26,1,1.01h-0.64c-0.48,0-1.05,0.05-1.5,0.27
			c-0.44,0.23-0.75,0.65-0.75,1.35c0,0.89,0.77,1.39,1.55,1.39c0.53,0,1.1-0.29,1.37-0.81h0.02c0.01,0.15,0.01,0.45,0.05,0.69h1.02
			c-0.02-0.36-0.04-0.68-0.05-1.03c-0.01-0.35-0.02-0.71-0.02-1.18v-0.6c0-1.39-0.57-1.97-1.92-1.97c-0.49,0-1.1,0.13-1.55,0.35
			L109.31,118.47z M109.89,120.51c0-0.72,0.77-0.81,1.29-0.81h0.5c0,0.37-0.05,0.71-0.24,0.97c-0.18,0.25-0.46,0.42-0.81,0.42
			C110.21,121.08,109.89,120.91,109.89,120.51"/>
		<path class="st0" d="M115.93,117.18H117v0.65h0.01c0.37-0.57,0.89-0.76,1.32-0.76c0.62,0,1.06,0.25,1.31,0.83
			c0.26-0.56,0.84-0.83,1.39-0.83c1.1,0,1.41,0.79,1.41,1.83v2.95h-1.15v-2.79c0-0.44,0-1.05-0.67-1.05c-0.77,0-0.86,0.96-0.86,1.57
			v2.27h-1.15v-2.79c0-0.44,0-1.05-0.67-1.05c-0.77,0-0.86,0.96-0.86,1.57v2.27h-1.15V117.18z"/>
		<path class="st0" d="M127.01,120.6c-0.44,0.26-0.92,0.48-1.48,0.48c-0.72,0-1.22-0.44-1.28-1.18h3.08c0-1.64-0.47-2.82-2.12-2.82
			c-1.37,0-2.06,1.12-2.06,2.47c0,1.54,0.86,2.43,2.32,2.43c0.63,0,1.1-0.13,1.53-0.37V120.6z M124.25,119.07
			c0.06-0.63,0.39-1.11,1.03-1.11c0.65,0,0.9,0.51,0.94,1.11H124.25z"/>
		<path class="st0" d="M128.08,117.18h1.09v0.63h0.02c0.36-0.53,0.85-0.74,1.46-0.74c1.05,0,1.51,0.78,1.51,1.83v2.95h-1.15v-2.5
			c0-0.57-0.01-1.35-0.75-1.35c-0.84,0-1.02,0.96-1.02,1.56v2.28h-1.16V117.18z"/>
		<path class="st0" d="M132.89,119.55c0,1.35,0.85,2.42,2.32,2.42c1.47,0,2.32-1.07,2.32-2.42c0-1.55-1-2.48-2.32-2.48
			C133.9,117.07,132.89,118,132.89,119.55 M134.09,119.41c0-0.71,0.36-1.4,1.12-1.4c0.76,0,1.12,0.67,1.12,1.4
			c0,0.78-0.23,1.62-1.12,1.62C134.33,121.03,134.09,120.18,134.09,119.41"/>
		<path class="st0" d="M138.31,117.18h1.02v1.06h0.02c0.05-0.43,0.53-1.17,1.21-1.17c0.12,0,0.23,0,0.36,0.03v1.23
			c-0.11-0.06-0.32-0.1-0.52-0.1c-0.94,0-0.94,1.24-0.94,1.9v1.72h-1.15V117.18z"/>
		<path class="st0" d="M143.71,123.78h1.15v-2.45h0.01c0.41,0.52,0.81,0.65,1.3,0.65c1.38,0,1.89-1.18,1.89-2.46
			c0-1.3-0.5-2.44-1.86-2.44c-0.69,0-1.12,0.32-1.38,0.77h-0.02v-0.66h-1.1V123.78z M145.9,118.01c0.75,0,0.95,0.87,0.95,1.5
			c0,0.64-0.21,1.52-0.97,1.52c-0.76,0-1.02-0.85-1.02-1.52C144.86,118.85,145.16,118.01,145.9,118.01"/>
		<path class="st0" d="M148.82,117.18h1.03v1.06h0.02c0.05-0.43,0.52-1.17,1.22-1.17c0.11,0,0.23,0,0.35,0.03v1.23
			c-0.11-0.06-0.31-0.1-0.51-0.1c-0.95,0-0.95,1.24-0.95,1.9v1.72h-1.16V117.18z"/>
		<path class="st0" d="M155.4,120.6c-0.44,0.26-0.91,0.48-1.47,0.48c-0.72,0-1.21-0.44-1.27-1.18h3.07c0-1.64-0.47-2.82-2.11-2.82
			c-1.38,0-2.07,1.12-2.07,2.47c0,1.54,0.85,2.43,2.32,2.43c0.62,0,1.1-0.13,1.53-0.37V120.6z M152.65,119.07
			c0.06-0.63,0.38-1.11,1.03-1.11c0.65,0,0.9,0.51,0.94,1.11H152.65z"/>
		<path class="st0" d="M159.34,118.18c-0.21-0.1-0.43-0.17-0.78-0.17c-0.72,0-1.18,0.6-1.18,1.49c0,0.86,0.39,1.53,1.2,1.53
			c0.33,0,0.69-0.13,0.89-0.21l0.05,1c-0.34,0.11-0.68,0.15-1.16,0.15c-1.46,0-2.19-1.04-2.19-2.48c0-1.36,0.76-2.43,2.15-2.43
			c0.47,0,0.8,0.05,1.12,0.16L159.34,118.18z"/>
		<path class="st0" d="M160.16,115.16h1.15v1.17h-1.15V115.16z M160.16,117.18h1.15v4.67h-1.15V117.18z"/>
		<path class="st0" d="M162.07,119.55c0,1.35,0.85,2.42,2.32,2.42c1.48,0,2.33-1.07,2.33-2.42c0-1.55-1.01-2.48-2.33-2.48
			C163.08,117.07,162.07,118,162.07,119.55 M163.27,119.41c0-0.71,0.36-1.4,1.12-1.4c0.77,0,1.13,0.67,1.13,1.4
			c0,0.78-0.24,1.62-1.13,1.62C163.51,121.03,163.27,120.18,163.27,119.41"/>
		<path class="st1" d="M171.31,90.1h0.32c0.35,0,0.65-0.13,0.65-0.46c0-0.24-0.17-0.47-0.65-0.47c-0.15,0-0.24,0.01-0.32,0.02V90.1z
			 M171.31,91.6h-0.44v-2.71c0.23-0.03,0.44-0.06,0.77-0.06c0.41,0,0.68,0.08,0.84,0.21c0.16,0.12,0.25,0.3,0.25,0.56
			c0,0.35-0.24,0.57-0.53,0.66v0.02c0.24,0.04,0.4,0.26,0.45,0.66c0.06,0.42,0.13,0.58,0.17,0.67h-0.45
			c-0.07-0.09-0.13-0.33-0.18-0.69c-0.07-0.35-0.24-0.48-0.58-0.48h-0.3V91.6z M171.76,88.13c-1.07,0-1.94,0.92-1.94,2.05
			c0,1.16,0.87,2.06,1.96,2.06c1.08,0.01,1.94-0.9,1.94-2.05c0-1.14-0.86-2.06-1.94-2.06H171.76z M171.78,87.76
			c1.32,0,2.38,1.08,2.38,2.43c0,1.37-1.07,2.44-2.4,2.44c-1.32,0-2.41-1.07-2.41-2.44c0-1.35,1.08-2.43,2.41-2.43H171.78z"/>
		<path class="st2" d="M171.31,90.1h0.32c0.35,0,0.65-0.13,0.65-0.46c0-0.24-0.17-0.47-0.65-0.47c-0.15,0-0.24,0.01-0.32,0.02V90.1z
			 M171.31,91.6h-0.44v-2.71c0.23-0.03,0.44-0.06,0.77-0.06c0.41,0,0.68,0.08,0.84,0.21c0.16,0.12,0.25,0.3,0.25,0.56
			c0,0.35-0.24,0.57-0.53,0.66v0.02c0.24,0.04,0.4,0.26,0.45,0.66c0.06,0.42,0.13,0.58,0.17,0.67h-0.45
			c-0.07-0.09-0.13-0.33-0.18-0.69c-0.07-0.35-0.24-0.48-0.58-0.48h-0.3V91.6z M171.76,88.13c-1.07,0-1.94,0.92-1.94,2.05
			c0,1.16,0.87,2.06,1.96,2.06c1.08,0.01,1.94-0.9,1.94-2.05c0-1.14-0.86-2.06-1.94-2.06H171.76z M171.78,87.76
			c1.32,0,2.38,1.08,2.38,2.43c0,1.37-1.07,2.44-2.4,2.44c-1.32,0-2.41-1.07-2.41-2.44c0-1.35,1.08-2.43,2.41-2.43H171.78z"/>
		<path class="st1" d="M171.31,90.1h0.32c0.35,0,0.65-0.13,0.65-0.46c0-0.24-0.17-0.47-0.65-0.47c-0.15,0-0.24,0.01-0.32,0.02V90.1z
			 M171.31,91.6h-0.44v-2.71c0.23-0.03,0.44-0.06,0.77-0.06c0.41,0,0.68,0.08,0.84,0.21c0.16,0.12,0.25,0.3,0.25,0.56
			c0,0.35-0.24,0.57-0.53,0.66v0.02c0.24,0.04,0.4,0.26,0.45,0.66c0.06,0.42,0.13,0.58,0.17,0.67h-0.45
			c-0.07-0.09-0.13-0.33-0.18-0.69c-0.07-0.35-0.24-0.48-0.58-0.48h-0.3V91.6z M171.76,88.13c-1.07,0-1.94,0.92-1.94,2.05
			c0,1.16,0.87,2.06,1.96,2.06c1.08,0.01,1.94-0.9,1.94-2.05c0-1.14-0.86-2.06-1.94-2.06H171.76z M171.78,87.76
			c1.32,0,2.38,1.08,2.38,2.43c0,1.37-1.07,2.44-2.4,2.44c-1.32,0-2.41-1.07-2.41-2.44c0-1.35,1.08-2.43,2.41-2.43H171.78z"/>
		<rect x="78.66" y="92.82" class="st1" width="5.92" height="14.95"/>
		<path class="st1" d="M110.91,92.82v14.95h-5.62l-0.02-8.37c0,0,0.08-1.68-0.73-1.94c-1.23-0.39-2.36,0.5-2.32,2.7
			c0.06,3.32,3.02,2.92,3.02,2.92l0.05,4.7c0,0-8.17,0.36-8.13-7.74c0-7.68,7.82-7.21,7.82-7.21L110.91,92.82z"/>
		<path class="st1" d="M143.46,92.82v14.95h-5.61l-0.02-8.37c0,0,0.05-1.6-0.74-1.94c-1.13-0.48-2.33,0.5-2.31,2.7
			c0.02,3.32,3.05,2.6,3.05,2.6l0.02,5.02c0,0-8.17,0.36-8.13-7.74c0-7.68,7.83-7.21,7.83-7.21H143.46z"/>
		<rect x="78.66" y="87.37" class="st1" width="5.92" height="3.52"/>
		<rect x="122.86" y="92.82" class="st1" width="5.91" height="14.95"/>
		<path class="st1" d="M150.69,87.37v5.45h3.34v4.75h-3.34v3.07c0,0,0,0.88,0.29,1.37c0.31,0.51,0.55,0.3,0.55,0.3h2.51v5.45h-3.34
			c0,0-3.38,0.44-4.76-1c-1.26-1.32-1.16-4.18-1.16-4.18V87.37H150.69z"/>
		<rect x="122.86" y="87.37" class="st1" width="5.91" height="3.52"/>
		<path class="st1" d="M74.01,92.82v2.16c0,0,0.32-1.14,1.09-1.67c0.77-0.53,2.73-0.49,2.73-0.49v5.73c0,0-1.21-0.35-2.56,0.39
			c-1.35,0.75-1.25,3.29-1.25,3.29v5.54h-5.92V92.82H74.01z"/>
		<path class="st1" d="M63.03,92.82v2.16c0,0,0.32-1.14,1.09-1.67c0.78-0.53,2.74-0.49,2.74-0.49v5.73c0,0-1.22-0.35-2.57,0.39
			c-1.35,0.75-1.26,3.29-1.26,3.29v5.54h-5.92V92.82H63.03z"/>
		<path class="st1" d="M48.62,102.46l4.41-0.07l3.16-4.81l-0.03-4.75h-7.91c0,0-6.94,0.06-6.94,7.45c0,7.39,6.47,7.5,6.47,7.5h7.37
			l1.24-5.46h-7.94c0,0-1.13,0.06-1.11-2.11c0.05-2.81,1.45-2.64,3.68-2.64L48.62,102.46z"/>
		<path class="st1" d="M93.02,92.82h-6.26c0,0-0.89,1.82-0.68,3.81c0.22,1.99,2.92,4.92,2.92,4.92s1.41,1.57,1.37,2.92
			c-0.03,1-0.3,1.29-1.11,1.29h-3.61v6.81h5.1c0,0,4.89-0.18,5.44-5.34c0.55-5.16-0.86-7.56-1.24-8.09
			c-0.38-0.53-1.76-2.81-1.76-2.81s-0.64-0.76-0.43-2.05C92.98,93,93.02,92.82,93.02,92.82"/>
		<path class="st1" d="M164.52,102.54h-2.64l-1.32-2.27l1.32-2.28h2.64l1.31,2.28L164.52,102.54z M167.54,92.77h-8.66l-4.33,7.5
			l4.33,7.5h8.66l4.33-7.5L167.54,92.77z"/>
		<path class="st1" d="M118.14,92.81v2.16c0,0,0.32-1.15,1.09-1.68c0.77-0.53,2.73-0.48,2.73-0.48v5.73c0,0-1.21-0.35-2.57,0.4
			c-1.35,0.75-1.26,3.28-1.26,3.28v5.54h-5.91V92.81H118.14z"/>
		<path class="st1" d="M36.75,116.96c0,0.77-0.62,1.39-1.39,1.39c-0.77,0-1.39-0.62-1.39-1.39v-2.77c0-0.77,0.62-1.38,1.39-1.38
			c0.77,0,1.39,0.62,1.39,1.38V116.96z M42.6,78.96h4.36c0-4.47-4.36-4.43-4.36-4.43l-8.23,0c0,0-3.72,0.25-6.39,4.06
			c-2.04,2.92-1.62,6.89-1.62,6.89s-1.95-0.31-2.09,2.38c-0.16,3.03,2.1,3.14,2.1,3.14v4.56c0,0,0.28,1.58,1.94,1.64
			c1.52,0.05,1.95-1.83,1.95-1.83v-2.24c0,0,0.57,0.54,0.93,0.99c0.59,0.72,0.96,1.75,0.96,2.78V117c0,0,0.33,3.15,3.23,3.15
			c2.9,0,3.04-3.38,3.04-3.38l0-25.74l4.17-0.02c0,0,4.4,0.54,4.36-4.78l-2.12,0h-6.62v-7.25L42.6,78.96z"/>
	</g>
</g>
</svg>
