<?xml version="1.0" encoding="utf-8"?>
<!-- Generator: Adobe Illustrator 28.0.0, SVG Export Plug-In . SVG Version: 6.00 Build 0)  -->
<svg version="1.1" id="Layer_1" xmlns="http://www.w3.org/2000/svg" xmlns:xlink="http://www.w3.org/1999/xlink" x="0px" y="0px"
	 viewBox="0 0 198.43 198.43" style="enable-background:new 0 0 198.43 198.43;" xml:space="preserve">
<style type="text/css">
	.st0{fill:#FFEC00;}
	.st1{clip-path:url(#SVGID_00000091009162133229359390000012590175768296245918_);fill:none;stroke:#1B1918;stroke-width:0.085;}
	
		.st2{clip-path:url(#SVGID_00000091009162133229359390000012590175768296245918_);fill-rule:evenodd;clip-rule:evenodd;fill:#005A8D;}
	
		.st3{clip-path:url(#SVGID_00000091009162133229359390000012590175768296245918_);fill-rule:evenodd;clip-rule:evenodd;fill:#FFFFFF;}
</style>
<g>
	<rect x="24.26" y="80.13" class="st0" width="149.9" height="38.16"/>
	<g>
		<defs>
			<rect id="SVGID_1_" x="24.26" y="80.13" width="149.9" height="38.16"/>
		</defs>
		<clipPath id="SVGID_00000013888783516563399840000001183811737631652515_">
			<use xlink:href="#SVGID_1_"  style="overflow:visible;"/>
		</clipPath>
		
			<rect x="24.26" y="80.13" style="clip-path:url(#SVGID_00000013888783516563399840000001183811737631652515_);fill:none;stroke:#1B1918;stroke-width:0.085;" width="149.9" height="38.16"/>
		
			<path style="clip-path:url(#SVGID_00000013888783516563399840000001183811737631652515_);fill-rule:evenodd;clip-rule:evenodd;fill:#005A8D;" d="
			M31.28,113.89h27.45c0.43,0,0.91-0.45,1.07-0.99l8.03-27.37c0.16-0.54-0.06-0.99-0.49-0.99H39.9c-0.43,0-0.91,0.45-1.07,0.99
			l-8.03,27.37C30.63,113.44,30.86,113.89,31.28,113.89"/>
		
			<path style="clip-path:url(#SVGID_00000013888783516563399840000001183811737631652515_);fill-rule:evenodd;clip-rule:evenodd;fill:#005A8D;" d="
			M64.69,113.89h27.45c0.43,0,0.91-0.45,1.07-0.99l8.03-27.37c0.16-0.54-0.06-0.99-0.49-0.99H73.31c-0.43,0-0.91,0.45-1.07,0.99
			L64.2,112.9C64.04,113.44,64.27,113.89,64.69,113.89"/>
		
			<path style="clip-path:url(#SVGID_00000013888783516563399840000001183811737631652515_);fill-rule:evenodd;clip-rule:evenodd;fill:#005A8D;" d="
			M97.92,113.89h27.45c0.43,0,0.91-0.45,1.07-0.99l8.03-27.37c0.16-0.54-0.06-0.99-0.49-0.99h-27.45c-0.43,0-0.91,0.45-1.07,0.99
			l-8.03,27.37C97.27,113.44,97.49,113.89,97.92,113.89"/>
		
			<path style="clip-path:url(#SVGID_00000013888783516563399840000001183811737631652515_);fill-rule:evenodd;clip-rule:evenodd;fill:#005A8D;" d="
			M131.08,113.89h27.45c0.43,0,0.91-0.45,1.07-0.99l8.03-27.37c0.16-0.54-0.06-0.99-0.49-0.99h-27.45c-0.43,0-0.91,0.45-1.07,0.99
			l-8.03,27.37C130.43,113.44,130.65,113.89,131.08,113.89"/>
		
			<polygon style="clip-path:url(#SVGID_00000013888783516563399840000001183811737631652515_);fill-rule:evenodd;clip-rule:evenodd;fill:#FFFFFF;" points="
			46.32,100.21 54.44,100.21 55.44,96.95 47.32,96.95 48.6,92.79 57.88,92.79 58.88,89.53 45.75,89.53 40.08,107.96 43.94,107.96 		
			"/>
		
			<polygon style="clip-path:url(#SVGID_00000013888783516563399840000001183811737631652515_);fill-rule:evenodd;clip-rule:evenodd;fill:#FFFFFF;" points="
			87.48,89.53 83.63,89.53 77.96,107.96 81.82,107.96 		"/>
		
			<path style="clip-path:url(#SVGID_00000013888783516563399840000001183811737631652515_);fill-rule:evenodd;clip-rule:evenodd;fill:#FFFFFF;" d="
			M117.45,93.69h0.05l0.05,7.29h-4.7L117.45,93.69z M110.83,104.16h6.81l0.01,3.8h4.19l-0.83-18.43h-4.45l-12.24,18.43h4.06
			L110.83,104.16z"/>
		
			<polygon style="clip-path:url(#SVGID_00000013888783516563399840000001183811737631652515_);fill-rule:evenodd;clip-rule:evenodd;fill:#FFFFFF;" points="
			153.6,92.79 159.18,92.79 160.18,89.53 145.18,89.53 144.18,92.79 149.75,92.79 145.09,107.96 148.94,107.96 		"/>
	</g>
</g>
</svg>
