<?xml version="1.0" encoding="utf-8"?>
<!-- Generator: Adobe Illustrator 28.0.0, SVG Export Plug-In . SVG Version: 6.00 Build 0)  -->
<svg version="1.1" id="Layer_1" xmlns="http://www.w3.org/2000/svg" xmlns:xlink="http://www.w3.org/1999/xlink" x="0px" y="0px"
	 viewBox="0 0 198.43 198.43" style="enable-background:new 0 0 198.43 198.43;" xml:space="preserve">
<style type="text/css">
	.st0{fill-rule:evenodd;clip-rule:evenodd;fill:#2F5E9C;}
	.st1{fill-rule:evenodd;clip-rule:evenodd;fill:#FFFFFF;}
</style>
<g>
	<path class="st0" d="M99.24,127.56c41.38,0,74.93-12.67,74.93-28.33s-33.55-28.38-74.93-28.38c-41.43,0-74.97,12.71-74.97,28.38
		S57.81,127.56,99.24,127.56"/>
	<path class="st1" d="M99.24,124.66c-39.73,0-72.02-11.31-72.02-25.43c0-14.07,32.29-25.52,72.02-25.52
		c39.83,0,72.07,11.46,72.07,25.52C171.31,113.35,139.07,124.66,99.24,124.66"/>
	<path class="st0" d="M99.24,122.68c38.53,0,69.8-10.49,69.8-23.44c0-12.91-31.28-23.4-69.8-23.4c-38.57,0-69.75,10.49-69.75,23.4
		C29.48,112.19,60.66,122.68,99.24,122.68"/>
	<path class="st1" d="M117.51,103.93c3.29-3.09,5.12-6.33,9.86-6.28c2.85,0.05,3.58,2.32,4.06,3.29l6.24-10.54h3.82l-10.34,18.32
		c-0.19,0.39-0.68,1.11-0.63,1.69c0.1,0.92,1.26,0.68,0.82,0.68c2.08-0.1,5.9-4.06,6.82-5.03c0.19-0.24,0.53-0.68,0.72-0.68
		c0.19,0,0.58,0.19,0.58,0.48c0,0.19-0.44,0.92-0.77,1.35c-1.93,2.42-5.12,6.14-8.75,6.24c-1.79,0-2.46-0.73-2.71-2.13
		c-0.82,0.72-3.63,1.98-6.48,1.98c-2.37-0.05-3.34-1.45-3.82-2.56c-0.44-0.92-0.63-2.27-0.29-3.62c-1.31,0.68-2.51,0.77-4.25,0.72
		c-2.03-0.05-3.29-0.97-3.92-3.33c-2.32,4.25-2.42,4.4-4.79,8.85h-4.11l5.27-8.94c0.68-1.21,1.02-2.18,1.26-3.19
		c0.15-0.58-0.29-1.11-0.92-1.16c-0.68,0-1.79,0.68-2.85,1.69c0,0-2.71,2.9-4.69,5.85c-1.89,2.8-5.12,5.99-8.65,5.99
		c-2.56,0-4.88-1.4-5.37-4.11c0,0-0.24,0.63-2.51,1.93c-0.19,0.1-0.68,0.39-0.82,0.29c-0.44-0.39-0.68-0.87-0.73-1.21
		c0.15,0.05,0.44-0.19,1.35-0.92c1.79-1.35,2.18-2.42,2.18-2.42c0.44-0.92,1.21-2.37,1.74-3.38c1.45-2.9,3.96-5.85,8.07-5.99
		c0.68,0,0.87,0.29,1.02,0.53c0.39,0.29,0.24,0.87,0.24,0.87c-2.9,0.43-4.88,2.13-6.09,3.77c-0.72,1.06-1.5,2.8-1.64,4.06
		c-0.29,2.18,0.73,3.63,2.22,3.96c2.8,0.44,5.12-1.6,6.96-4.74c0.48-0.82,0.82-2.95,0.82-4.11c0-1.16-0.63-2.37-1.11-2.85
		c0-0.82,0.53-1.35,1.16-1.35c0.19,0,0.39,0,0.58,0.19c0.97,0.97,1.5,2.8,1.5,4.21c0,0.48,0,0.97-0.1,1.45
		c2.03-2.47,4.59-5.66,6.57-6.28c0.39-0.19,0.77-0.19,1.16-0.19c3.63-0.1,3.14,3.19,3.14,3.19c1.93-2.22,3.29-3.05,5.08-2.95
		c1.93,0.1,2.61,1.45,2.61,2.51c-0.05,1.26-0.97,2.71-2.56,2.75c-1.4,0-2.23-0.68-2.66-1.93c-0.92,0.34-1.35,0.97-1.55,2.22
		c-0.29,1.6,0.92,2.85,2.46,2.85C115.38,105.96,116.54,104.8,117.51,103.93"/>
	<path class="st1" d="M120.41,83.09c0,1.55-5.41,4.5-10.01,4.5c-7.15,0-14.6-3.43-18.03-4.21c-3.72-0.87-7.11-1.6-9.77-1.6
		c-9.33,0-13.49,4.01-13.29,7.69c0.1,1.5,1.3,2.47,3.09,2.13c1.93-0.34,4.64-2.18,5.32-3.77c0.15-0.34,0.53-0.39,0.68-0.29
		c0.29,0.24,0.19,0.58,0.19,0.58c-0.24,1.89-3.14,7.11-8.17,7.11c-2.8,0-4.69-2.61-4.64-5.17c0.05-4.79,4.93-9.62,16.97-9.62
		c2.27,0,4.83,0.19,7.64,0.68c3.24,0.58,11.31,1.93,17.88,2.03c2.42,0,5.51,0.1,8.02-0.29c2.66-0.44,2.08-0.53,3.14-0.53
		C120.41,82.32,120.41,82.7,120.41,83.09"/>
	<path class="st0" d="M127.56,99.91c-1.69-0.19-3.82,1.26-5.56,3.38c-0.87,1.06-1.79,3.09-1.93,4.3c-0.19,1.21,0.15,2.42,0.58,2.76
		c0.44,0.34,2.37,1.35,5.37-1.69c1.69-1.69,3.33-4.45,3.33-4.45l-0.53-0.15C129.84,102.19,129.64,100.16,127.56,99.91"/>
	<path class="st1" d="M92.23,94.21c0,0.53,0.72,0.97,1.35,1.02c-0.15,0.53-0.1,0.77-0.34,0.73c-1.45,0-2.03-1.4-2.03-1.4
		c-1.93,0.34-3.82,0.58-7.64,0.97c-9.62,15.57-12.62,18.13-18.51,18.13c-4.21,0-7.93-2.76-8.02-7.69c-0.05-3,2.37-6.67,6.86-7.78
		c0.53,0,0.73,0.19,0.73,0.48c0,0.19-0.19,0.44-0.63,0.63c-1.31,0.48-3.58,3.05-3.58,5.41c0,1.79,1.11,3.77,3,4.21
		c0.53,0.15,1.02,0.1,1.5,0.1c4.69,0,9.96-5.27,15.66-13.29c-0.92,0.05-4.83,0.48-5.8,1.6c-0.44,0.34-0.72,0.14-0.82-0.24
		c0-0.1,0.15-0.44,0.29-0.63c1.55-1.74,6.19-2.13,7.3-2.27c4.35-6.67,9.96-10.83,11.12-10.78c0.19,0,0.63,0.29,0.44,0.77
		c-0.05,0.1-0.53,0.63-0.72,0.77c-0.97,0.87-4.25,3-7.83,9.04c2.9-0.14,6.28-0.73,6.28-0.73s-0.19-0.63-0.19-1.16
		c0.14-2.08,1.35-3.34,2.9-3.09c0.87,0.14,1.45,0.87,1.45,1.64c0,0.82-0.63,2.03-1.26,2.61C93.29,93.58,92.81,93.92,92.23,94.21"/>
	<path class="st0" d="M91.99,93.15c0,0,0.48,0.05,1.21-0.77c0.29-0.29,0.77-1.16,0.68-1.74c-0.05-0.29-0.19-0.63-0.53-0.58
		c-0.73,0.15-1.16,0.48-1.35,1.21C91.74,92.03,91.84,92.57,91.99,93.15"/>
</g>
</svg>
