<?xml version="1.0" encoding="utf-8"?>
<!-- Generator: Adobe Illustrator 28.0.0, SVG Export Plug-In . SVG Version: 6.00 Build 0)  -->
<svg version="1.1" id="Layer_1" xmlns="http://www.w3.org/2000/svg" xmlns:xlink="http://www.w3.org/1999/xlink" x="0px" y="0px"
	 viewBox="0 0 198.43 198.43" style="enable-background:new 0 0 198.43 198.43;" xml:space="preserve">
<style type="text/css">
	.st0{fill-rule:evenodd;clip-rule:evenodd;fill:#231F20;}
</style>
<g>
	<path class="st0" d="M52.54,82.1c-1.21-3.02-4.15-3.77-7.02-3.81h-6.27v-5.44c0-4.65,2.91-6.98,5.81-6.96
		c2.9,0.03,5.81,2.41,5.81,7.19v3.65h13.44v-5.86c0-12.51-9.7-18.79-19.39-18.92c-9.69-0.13-19.37,5.88-19.32,17.93l0.02,4.2
		l0.01,4.2H14.17v13.85h11.46v27.24h13.61V92.07l2.57,0c0,0,10.04,27.32,10.22,27.32h13.94l11.69-41.06H64.15l-5.7,19.98L52.54,82.1
		z"/>
	<polygon class="st0" points="77.06,94.51 77.06,98.61 80.41,98.61 80.41,99.28 77.07,99.28 77.07,105.12 76.39,105.12 76.39,93.83 
		80.5,93.83 80.5,94.51 	"/>
	<path class="st0" d="M87.82,105.12h-0.74l-3.32-5.35h-0.32v5.35H82.8V93.83h1.26c0.82,0,1.63,0.01,2.32,0.57
		c0.73,0.57,1.03,1.47,1.03,2.42c0,1.96-1.23,2.98-2.91,2.95L87.82,105.12z M84.26,99.1c0.63,0,1.27-0.03,1.78-0.53
		c0.49-0.43,0.69-1.1,0.69-1.77c0-0.84-0.32-1.69-1.05-2.04c-0.53-0.28-1.23-0.25-1.82-0.25h-0.39v4.6H84.26z"/>
	<path class="st0" d="M90.78,101.4l-1.36,3.71h-0.66l4.26-11.66l4.24,11.66h-0.66l-1.36-3.71H90.78z M93,95.46l-1.93,5.28l3.9-0.01
		L93,95.46z"/>
	<polygon class="st0" points="108.02,105.49 99.49,95.5 99.49,105.12 98.82,105.12 98.82,93.68 107.34,103.68 107.34,93.83 
		108.02,93.83 	"/>
	<polygon class="st0" points="116.81,104.44 116.81,105.12 109.61,105.12 115.8,94.51 110.24,94.51 110.24,93.83 116.98,93.83 
		110.78,104.44 	"/>
	<polygon class="st0" points="125.56,103.18 125.59,103.18 128.55,93.9 129.25,93.9 125.55,105.55 121.9,93.9 122.6,93.9 	"/>
	<rect x="130.79" y="93.9" class="st0" width="0.67" height="11.28"/>
	<polygon class="st0" points="134.72,94.57 134.72,98.67 138.79,98.67 138.79,99.35 134.73,99.35 134.73,104.51 138.89,104.51 
		138.89,105.18 134.05,105.18 134.05,93.9 138.89,93.9 138.89,94.57 	"/>
	<path class="st0" d="M150.81,99.74c0.03,1.43-0.16,2.68-1.07,3.77c-0.97,1.17-2.42,1.83-3.85,1.83c-2.81,0-5.21-2.63-5.21-5.75
		c0-3.23,2.39-5.84,5.29-5.84c1.85,0,3.34,1.02,4.41,2.64l-0.53,0.46c-0.9-1.5-2.27-2.43-3.92-2.43c-2.48,0-4.58,2.41-4.58,5.12
		c0,2.78,2.04,5.12,4.58,5.12c1.09,0,2.16-0.5,2.99-1.24c0.87-0.82,1.2-1.77,1.24-2.99h-3.64v-0.69H150.81z"/>
	<polygon class="st0" points="153.47,94.57 153.47,98.67 157.53,98.67 157.53,99.35 153.47,99.35 153.47,104.51 157.64,104.51 
		157.64,105.18 152.79,105.18 152.79,93.9 157.64,93.9 157.64,94.57 	"/>
	<polygon class="st0" points="169.2,105.55 160.71,95.58 160.7,105.18 160.03,105.18 160.03,93.75 168.52,103.69 168.53,93.9 
		169.2,93.9 	"/>
	<polygon class="st0" points="172.45,94.57 172.45,98.67 176.53,98.67 176.53,99.35 172.45,99.35 172.45,104.51 176.64,104.51 
		176.64,105.18 171.79,105.18 171.79,93.9 176.64,93.9 176.64,94.57 	"/>
	<path class="st0" d="M184.05,105.18h-0.79l-3.31-5.34h-0.28v5.34h-0.65V93.9h1.26c0.82,0,1.63,0.01,2.32,0.57
		c0.73,0.57,1.02,1.46,1.02,2.42c0,1.96-1.23,2.98-2.91,2.95L184.05,105.18z M180.5,99.17c0.63,0,1.26-0.03,1.78-0.52
		c0.48-0.43,0.69-1.09,0.69-1.77c0-0.84-0.32-1.69-1.05-2.05c-0.53-0.29-1.22-0.25-1.82-0.25h-0.42v4.59H180.5z"/>
	<rect x="76" y="108.47" class="st0" width="108.26" height="0.67"/>
	<path class="st0" d="M80.4,114.34c-0.25-0.44-0.56-0.69-1.1-0.69c-0.56,0-1.05,0.4-1.05,0.99c0,0.55,0.56,0.8,0.99,0.99l0.42,0.19
		c0.83,0.36,1.53,0.78,1.53,1.79c0,1.12-0.9,1.97-2,1.97c-1.02,0-1.78-0.66-1.98-1.65l0.69-0.2c0.09,0.65,0.59,1.18,1.27,1.18
		c0.68,0,1.31-0.53,1.31-1.24c0-0.74-0.59-0.99-1.18-1.26l-0.39-0.17c-0.74-0.34-1.38-0.72-1.38-1.63c0-0.99,0.84-1.62,1.78-1.62
		c0.71,0,1.31,0.36,1.65,0.98L80.4,114.34z"/>
	<path class="st0" d="M84.19,117.69l-0.76,1.77h-0.77l2.93-6.67l2.86,6.67h-0.79l-0.74-1.77H84.19z M85.58,114.45l-1.09,2.55h2.15
		L85.58,114.45z"/>
	<polygon class="st0" points="90.86,118.78 92.62,118.78 92.62,119.46 90.16,119.46 90.16,113.1 90.86,113.1 	"/>
	<path class="st0" d="M95.28,117.67l-0.76,1.79h-0.78l2.94-6.67l2.86,6.67h-0.78l-0.74-1.79H95.28z M96.66,114.45l-1.09,2.55h2.15
		L96.66,114.45z"/>
	<rect x="104.87" y="113.1" class="st0" width="0.71" height="6.36"/>
	<polygon class="st0" points="107.93,112.83 112.89,118.02 112.89,113.1 113.6,113.1 113.6,119.74 108.64,114.56 108.64,119.46 
		107.93,119.46 	"/>
	<polygon class="st0" points="117.62,119.46 116.92,119.46 116.92,113.75 115.38,113.75 115.38,113.1 119.18,113.1 119.18,113.75 
		117.62,113.75 	"/>
	<polygon class="st0" points="120.91,113.1 124.22,113.1 124.22,113.77 121.62,113.77 121.62,115.63 124.14,115.63 124.14,116.3 
		121.62,116.3 121.62,118.78 124.22,118.78 124.22,119.46 120.91,119.46 	"/>
	<path class="st0" d="M127.14,119.46h-0.71v-6.36h0.92c1.21,0,2.33,0.32,2.33,1.75c0,0.98-0.62,1.67-1.6,1.76l2.02,2.85h-0.87
		l-1.93-2.79h-0.17V119.46z M127.14,116h0.22c0.8,0,1.61-0.11,1.61-1.09c0-1.04-0.77-1.15-1.62-1.15h-0.21V116z"/>
	<polygon class="st0" points="132.06,112.83 137.03,118.02 137.03,113.1 137.73,113.1 137.73,119.74 132.77,114.56 132.77,119.46 
		132.06,119.46 	"/>
	<path class="st0" d="M141.02,117.67l-0.76,1.79h-0.78l2.94-6.67l2.86,6.67h-0.79l-0.75-1.79H141.02z M142.4,114.45l-1.09,2.55h2.15
		L142.4,114.45z"/>
	<path class="st0" d="M151.84,114.49c-0.51-0.53-1.21-0.84-1.94-0.84c-1.42,0-2.56,1.23-2.56,2.63s1.15,2.64,2.58,2.64
		c0.72,0,1.42-0.34,1.93-0.84v0.88c-0.55,0.39-1.23,0.62-1.9,0.62c-1.8,0-3.31-1.46-3.31-3.27c0-1.82,1.49-3.31,3.31-3.31
		c0.71,0,1.34,0.2,1.9,0.62V114.49z"/>
	<rect x="154.07" y="113.1" class="st0" width="0.71" height="6.36"/>
	<path class="st0" d="M163.39,116.28c0,1.83-1.5,3.29-3.32,3.29c-1.81,0-3.31-1.45-3.31-3.29c0-1.82,1.5-3.3,3.31-3.3
		C161.89,112.99,163.39,114.46,163.39,116.28 M157.47,116.28c0,1.43,1.16,2.64,2.61,2.64c1.44,0,2.61-1.2,2.61-2.64
		c0-1.44-1.15-2.63-2.61-2.63S157.47,114.83,157.47,116.28"/>
	<polygon class="st0" points="165.41,112.83 170.37,118.02 170.37,113.1 171.08,113.1 171.08,119.74 166.12,114.56 166.12,119.46 
		165.41,119.46 	"/>
	<path class="st0" d="M174.37,117.67l-0.77,1.79h-0.78l2.94-6.67l2.86,6.67h-0.79l-0.75-1.79H174.37z M175.75,114.45l-1.09,2.55
		h2.15L175.75,114.45z"/>
	<polygon class="st0" points="181.04,118.78 182.79,118.78 182.79,119.46 180.33,119.46 180.33,113.1 181.04,113.1 	"/>
	<path class="st0" d="M51.63,146.08v-6.27h1.32c0.63,0,1.13,0.06,1.5,0.19c0.39,0.12,0.75,0.33,1.07,0.62
		c0.65,0.59,0.97,1.37,0.97,2.33c0,0.96-0.34,1.74-1.01,2.34c-0.34,0.3-0.69,0.5-1.07,0.62c-0.35,0.11-0.84,0.17-1.47,0.17H51.63z
		 M52.58,145.19H53c0.42,0,0.78-0.05,1.06-0.14c0.28-0.09,0.53-0.25,0.76-0.45c0.47-0.42,0.7-0.98,0.7-1.66
		c0-0.69-0.23-1.24-0.69-1.67c-0.41-0.38-1.02-0.57-1.83-0.57h-0.43V145.19z"/>
	<polygon class="st0" points="64.04,140.71 61.53,140.71 61.53,142.21 63.97,142.21 63.97,143.1 61.53,143.1 61.53,145.19 
		64.04,145.19 64.04,146.08 60.58,146.08 60.58,139.81 64.04,139.81 	"/>
	<path class="st0" d="M71.74,140.75l-0.77,0.45c-0.14-0.25-0.28-0.41-0.41-0.49c-0.14-0.08-0.31-0.13-0.53-0.13
		c-0.26,0-0.48,0.07-0.65,0.22c-0.17,0.15-0.26,0.33-0.26,0.55c0,0.31,0.23,0.55,0.68,0.74l0.62,0.25c0.51,0.21,0.88,0.46,1.11,0.76
		c0.24,0.3,0.35,0.66,0.35,1.09c0,0.57-0.19,1.05-0.58,1.43c-0.39,0.38-0.87,0.57-1.44,0.57c-0.54,0-0.99-0.16-1.35-0.49
		c-0.35-0.32-0.56-0.78-0.65-1.36l0.96-0.21c0.04,0.37,0.12,0.62,0.23,0.76c0.2,0.27,0.48,0.41,0.85,0.41c0.29,0,0.54-0.1,0.73-0.3
		c0.2-0.2,0.29-0.45,0.29-0.75c0-0.12-0.02-0.23-0.05-0.33c-0.03-0.1-0.09-0.2-0.16-0.28c-0.07-0.08-0.16-0.17-0.28-0.24
		c-0.11-0.07-0.25-0.14-0.41-0.21l-0.6-0.25c-0.86-0.36-1.29-0.89-1.29-1.59c0-0.47,0.18-0.86,0.54-1.18
		c0.36-0.32,0.81-0.48,1.35-0.48C70.78,139.69,71.34,140.04,71.74,140.75"/>
	<rect x="75.95" y="139.81" class="st0" width="0.95" height="6.27"/>
	<path class="st0" d="M84.54,142.82h2.59v0.21c0,0.47-0.06,0.89-0.17,1.25c-0.11,0.34-0.29,0.65-0.55,0.94
		c-0.58,0.66-1.32,0.98-2.22,0.98c-0.88,0-1.63-0.31-2.25-0.95c-0.62-0.64-0.94-1.4-0.94-2.29c0-0.91,0.32-1.68,0.95-2.32
		c0.64-0.64,1.41-0.95,2.33-0.95c0.49,0,0.95,0.1,1.37,0.3c0.41,0.2,0.81,0.53,1.2,0.97l-0.67,0.65c-0.52-0.69-1.14-1.03-1.88-1.03
		c-0.67,0-1.22,0.22-1.67,0.68c-0.45,0.45-0.67,1.01-0.67,1.69c0,0.7,0.25,1.27,0.75,1.73c0.47,0.42,0.97,0.63,1.52,0.63
		c0.47,0,0.89-0.16,1.26-0.47c0.37-0.31,0.58-0.69,0.62-1.13h-1.56V142.82z"/>
	<polygon class="st0" points="91.23,146.08 91.23,139.39 95.8,144.17 95.8,139.81 96.76,139.81 96.76,146.46 92.18,141.69 
		92.18,146.08 	"/>
	<path class="st0" d="M111.27,140.15v1.12c-0.55-0.46-1.12-0.68-1.7-0.68c-0.65,0-1.19,0.23-1.63,0.69
		c-0.45,0.46-0.67,1.02-0.67,1.69c0,0.65,0.22,1.21,0.67,1.66c0.44,0.45,0.99,0.68,1.63,0.68c0.33,0,0.62-0.06,0.84-0.17
		c0.13-0.05,0.27-0.13,0.41-0.22c0.14-0.09,0.28-0.2,0.44-0.34v1.15c-0.54,0.31-1.11,0.46-1.71,0.46c-0.9,0-1.66-0.31-2.3-0.94
		s-0.95-1.39-0.95-2.28c0-0.8,0.27-1.51,0.8-2.13c0.65-0.77,1.49-1.15,2.52-1.15C110.2,139.69,110.74,139.84,111.27,140.15"/>
	<polygon class="st0" points="118.83,140.71 116.32,140.71 116.32,142.21 118.76,142.21 118.76,143.1 116.32,143.1 116.32,145.19 
		118.83,145.19 118.83,146.08 115.37,146.08 115.37,139.81 118.83,139.81 	"/>
	<polygon class="st0" points="122.98,146.08 122.98,139.39 127.56,144.17 127.56,139.81 128.51,139.81 128.51,146.46 123.93,141.69 
		123.93,146.08 	"/>
	<polygon class="st0" points="134.65,140.71 134.65,146.08 133.7,146.08 133.7,140.71 132.26,140.71 132.26,139.81 136.09,139.81 
		136.09,140.71 	"/>
	<polygon class="st0" points="143.3,140.71 140.79,140.71 140.79,142.21 143.23,142.21 143.23,143.1 140.79,143.1 140.79,145.19 
		143.3,145.19 143.3,146.08 139.83,146.08 139.83,139.81 143.3,139.81 	"/>
	<path class="st0" d="M149.58,143.41l1.94,2.67h-1.16l-1.79-2.57h-0.17v2.57h-0.95v-6.27h1.11c0.83,0,1.43,0.16,1.8,0.47
		c0.41,0.35,0.61,0.81,0.61,1.38c0,0.45-0.13,0.83-0.38,1.15C150.33,143.12,150,143.32,149.58,143.41 M148.4,142.7h0.3
		c0.89,0,1.34-0.34,1.34-1.03c0-0.65-0.44-0.96-1.3-0.96h-0.34V142.7z"/>
	<rect x="76.4" y="101.96" class="st0" width="0.67" height="0.67"/>
	<rect x="77.51" y="98.62" class="st0" width="0.67" height="0.66"/>
</g>
</svg>
