<?xml version="1.0" encoding="utf-8"?>
<!-- Generator: Adobe Illustrator 28.0.0, SVG Export Plug-In . SVG Version: 6.00 Build 0)  -->
<svg version="1.1" id="Layer_1" xmlns="http://www.w3.org/2000/svg" xmlns:xlink="http://www.w3.org/1999/xlink" x="0px" y="0px"
	 viewBox="0 0 198.43 198.43" style="enable-background:new 0 0 198.43 198.43;" xml:space="preserve">
<style type="text/css">
	.st0{fill:none;stroke:#1B1918;stroke-width:0.017;}
	.st1{fill-rule:evenodd;clip-rule:evenodd;fill:#1B1918;}
	.st2{fill-rule:evenodd;clip-rule:evenodd;fill:#E30016;}
</style>
<g>
	<line class="st0" x1="116.04" y1="135.61" x2="116.04" y2="135.62"/>
	<line class="st0" x1="116.04" y1="135.62" x2="116.04" y2="135.61"/>
	<line class="st0" x1="116.04" y1="135.61" x2="116.04" y2="135.61"/>
	<line class="st0" x1="116.04" y1="135.61" x2="116.04" y2="135.61"/>
	<line class="st0" x1="116.05" y1="135.61" x2="116.04" y2="135.61"/>
	<line class="st0" x1="116.04" y1="135.61" x2="116.05" y2="135.61"/>
	<g>
		<path class="st0" d="M114.83,135.2c0,0.02-0.02,0.06-0.02,0.07"/>
		<line class="st0" x1="114.81" y1="135.27" x2="114.81" y2="135.27"/>
		<path class="st0" d="M114.81,135.27c0,0,0-0.01,0-0.01"/>
		<line class="st0" x1="114.82" y1="135.26" x2="114.83" y2="135.2"/>
		<path class="st1" d="M137.78,91.21v2.09h0.74l-0.95,1.93h1.09l1.19-2.2v-1.82H137.78z M140.44,109.78
			c0.8,1.83,1.65,3.11,3.76,3.11c1.26,0,2.26-0.79,2.26-1.84c0-4.43-9.67-1.99-9.67-10.4c0-3.28,3.27-6.19,7.04-6.19
			c3.67,0,6.43,2.08,7.38,4.8l-4.37,1.84c-0.59-1.29-1.41-2.41-3.01-2.41c-0.95,0-1.9,0.58-1.9,1.84c0,3.09,9.85,2.38,9.86,9.2
			c0,4.47-3.67,7.38-7.95,7.38c-3.7,0-6.67-1.96-7.96-5.51L140.44,109.78z M124.86,108.22l0,8.48h5.51l0-8.79l6.02-13.01h-4.9
			l-3.45,8.58l-2.88-8.57h-5.76L124.86,108.22z M104.11,116.71l5.1-21.79h7.22l4.66,21.79h-5.57l-0.86-4.41h-5.05l-0.95,4.41H104.11
			z M112.24,99.57h0.06l1.59,8.88h-3.52L112.24,99.57z M88.22,116.72h6.64c6.67-0.01,9.27-5.02,9.27-11.24
			c0-6.4-3.19-10.55-9.95-10.55h-5.97L88.22,116.72z M93.72,98.79h0.46c3.64,0,4.01,3.98,4.02,6.48c0,2.88,0,7.59-3.86,7.59h-0.61
			L93.72,98.79z M80.65,94.93h4.96l0,4.41h-4.96L80.65,94.93z M80.66,101.36l4.96-0.01l0.01,15.37h-4.96L80.66,101.36z
			 M63.24,116.73h5.51l0-9.42h1.84l2.73,9.42l5.45,0l-3.65-10.59c2.14-0.79,3.64-2.73,3.64-5.02c0-4.28-3.18-6.18-7.31-6.18
			l-8.2,0.01L63.24,116.73z M68.75,98.98h0.92c1.84,0,3.58,0.19,3.58,2.44c0,1.75-1.35,2.39-3.43,2.39h-1.07L68.75,98.98z
			 M48.52,94.94l13.13,0l0,4.22l-7.62,0l0.01,4.41h5.42l0,4.22l-5.42,0.01l0,8.93l-5.51,0L48.52,94.94z"/>
		<path class="st1" d="M112.05,86.57v2.19h-2.19v-2.19L112.05,86.57z M108.64,79.8l0.01,8.97h-2.27l0-8.97H108.64z M105.17,88.77
			h-2.19v-2.19h2.19V88.77z M96.4,88.13c-0.74-0.74-1.12-1.96-1.12-3.61c0-1.82,0.45-4.89,3.48-4.89c2.08,0,3.23,1.2,3.23,3.38H99.8
			c-0.07-1.06-0.14-1.71-0.98-1.71c-0.23,0-0.42,0.07-0.57,0.22c-0.46,0.47-0.53,1.62-0.53,2.79c0,1.28,0.04,2.3,0.48,2.73
			c0.16,0.17,0.39,0.25,0.67,0.25c0.25,0,0.47-0.09,0.65-0.27c0.31-0.31,0.45-0.82,0.45-1.19h-1.14l0-1.51l3.1-0.01v4.6
			c-0.01,0-0.95,0-0.95,0l-0.44-0.83c-0.47,0.54-1.22,0.87-1.96,0.87C97.68,88.95,96.95,88.67,96.4,88.13z M94.56,88.77h-2.19v-2.19
			h2.19V88.77z M86.73,79.8v1.74h2.03l0,7.23h2.26v-7.23h2.03V79.8H86.73z"/>
		<path class="st2" d="M24.86,110.57v13.36c3.04,0.14,5.79,1.44,7.81,3.47c2.02,2.02,3.32,4.76,3.48,7.79H53.6L24.86,110.57z"/>
		<path class="st2" d="M72.95,135.18h9.33l0.13,0.43c1.43,4.86,4.93,8.85,9.47,10.96c0.88,0.41,1.8,0.75,2.76,1.01
			c1.46,0.4,3.01,0.61,4.6,0.61c2.58,0,5.02-0.56,7.23-1.56L78.8,122.96H58.66L72.95,135.18z M32.82,83.55
			c-0.05,0.05-0.1,0.1-0.14,0.15c-2.02,2.02-4.77,3.32-7.81,3.47v6.82l13,11.12v-8.33c0.19-0.05,0.38-0.1,0.57-0.16
			c0.3-0.09,0.58-0.2,0.87-0.31c1.46-0.59,2.77-1.48,3.86-2.57h0c0.22-0.22,0.42-0.45,0.61-0.66c0.02-0.03,0.04-0.06,0.07-0.08
			L32.82,83.55z"/>
		<path class="st2" d="M63.34,75.89H43.21l14.63,12.54h20.13L63.34,75.89z M116.05,135.6v0.01l0.12-0.42h16.4l-14.29-12.23h-14.57
			v4.76l11.59,9.93c0.28-0.66,0.53-1.33,0.73-2.03c0,0,0,0,0,0L116.05,135.6z"/>
		<path class="st2" d="M116.45,87.56l1.01,0.87h-1.01V87.56z M82.84,58.77c-0.05,0.08-0.11,0.16-0.16,0.23
			c-0.71,1.03-1.31,2.13-1.82,3.29c-0.5,1.15-0.9,2.36-1.18,3.61v0l-0.1,0.46h-8.01l13.33,11.42h8.49v-9.18
			c0-0.26,0.02-0.51,0.04-0.76L82.84,58.77z M151.91,135.18h10.38c0.12-2.38,0.95-4.59,2.28-6.4l-10.7-9.17
			c-0.65,1.02-1.14,2.14-1.44,3.35h-14.8L151.91,135.18z"/>
		<path class="st2" d="M173.57,119.92v-17.25L142.3,75.89h-12.7v-9.53h-10.74l-0.1-0.46c-1.41-6.33-5.84-11.56-11.7-14.06
			c-1.14-0.49-2.33-0.87-3.57-1.14c-1.38-0.3-2.81-0.46-4.28-0.46c-2.07,0-4.07,0.32-5.95,0.91l43.53,37.29h15.62
			c0.05,0.19,0.1,0.38,0.15,0.55c0.09,0.3,0.19,0.58,0.3,0.86c0.57,1.44,1.42,2.73,2.48,3.83c0,0,0,0,0,0h0
			c0.01,0,0.02,0.02,0.02,0.03h0h0c0.01,0.01,0-0.01-0.02-0.02l0.02,0.02h0c0.2,0.21,0.42,0.42,0.65,0.61
			c0.23,0.21,0.46,0.39,0.69,0.57c1.15,0.85,2.45,1.5,3.86,1.88v12.06L173.57,119.92z"/>
		<path class="st1" d="M116.61,135.78c-2.21,7.51-9.18,13.01-17.39,13.01c-8.21,0-15.18-5.51-17.39-13.01H35.56v0
			c0-6.21-5.07-11.27-11.29-11.27h-0.01V86.59h0.01c6.22,0,11.29-5.06,11.29-11.28V75.3h32.68v-9.53H79.1
			c2.06-9.21,10.31-16.13,20.12-16.13s18.06,6.92,20.12,16.13h10.86v9.53h32.67v0.02c0,6.21,5.07,11.28,11.29,11.28v37.91
			c-6.22,0-11.29,5.06-11.29,11.27v0H116.61z M114.81,135.27C114.81,135.27,114.81,135.27,114.81,135.27l0.39-1.36h45.93
			c0.34-2.32,1.29-4.46,2.67-6.22c0.5-0.65,1.08-1.24,1.7-1.8c0.63-0.54,1.3-1.03,2.02-1.45c1.44-0.85,3.05-1.43,4.76-1.67V88.33
			c-1.19-0.17-2.32-0.5-3.39-0.97c-0.46-0.2-0.92-0.45-1.37-0.71c-1.95-1.14-3.58-2.77-4.72-4.71c-0.85-1.45-1.43-3.06-1.68-4.78
			h-32.8v-9.52h-10.48l-0.33-1.48c-1.32-5.92-5.47-10.81-10.95-13.15c-1.06-0.45-2.18-0.81-3.33-1.07
			c-1.29-0.29-2.63-0.43-4.01-0.43c-6.43,0-12.11,3.26-15.49,8.21c-0.66,0.98-1.23,2-1.71,3.07c-0.47,1.09-0.84,2.22-1.1,3.38h0
			l-0.33,1.48H70.12v9.52H37.31c-0.41,2.88-1.76,5.47-3.74,7.44c-1.97,1.96-4.55,3.31-7.43,3.72v34.43
			c2.88,0.41,5.47,1.75,7.43,3.72c1.97,1.97,3.32,4.55,3.74,7.42h45.92l0.4,1.35c1.33,4.5,4.58,8.21,8.78,10.16
			c0.81,0.37,1.67,0.68,2.56,0.93c1.36,0.36,2.79,0.57,4.26,0.57c5.31,0,10.03-2.56,13-6.5c0.57-0.77,1.08-1.59,1.52-2.46
			C114.18,137.1,114.54,136.2,114.81,135.27L114.81,135.27z"/>
		<path class="st1" d="M45.84,88h35.81V77.36h11.32V68.6c0-4.14,3.13-6.29,6.26-6.29c3.13,0,6.26,2.15,6.26,6.29v8.76h11.39V88
			h35.89c0.46,2.07,1.49,3.92,2.94,5.38c1.43,1.47,3.27,2.53,5.32,3.04v18.53c-2.05,0.5-3.89,1.57-5.32,3.03
			c-1.44,1.47-2.48,3.32-2.94,5.39h-48.62v7.52c0,3.24-2.45,4.91-4.91,4.91c-2.45,0-4.91-1.67-4.91-4.91v-7.52H45.84
			c-0.46-2.09-1.52-3.97-2.99-5.44c-1.46-1.47-3.33-2.53-5.43-3.01V96.45c2.09-0.47,3.96-1.54,5.43-3.01
			C44.32,91.97,45.37,90.09,45.84,88 M81.65,88.95H46.57c-0.4,1.36-1.02,2.61-1.82,3.72c-0.19,0.27-0.39,0.51-0.59,0.75
			c-0.19,0.22-0.4,0.45-0.64,0.69v0l0,0c-1.14,1.16-2.52,2.08-4.04,2.7c-0.29,0.12-0.59,0.23-0.91,0.32
			c-0.06,0.02-0.13,0.04-0.2,0.06v17c1.36,0.39,2.61,1.03,3.71,1.84c0.25,0.18,0.5,0.38,0.74,0.59c0.24,0.2,0.47,0.42,0.69,0.64h0
			v0.01c0.01,0,0.02,0.02,0.03,0.02c-0.01-0.02-0.03-0.03-0.03-0.03h0h0v0.01l0.04,0.04c0-0.01-0.01-0.01-0.02-0.02
			c1.13,1.14,2.04,2.5,2.64,4.02c0.12,0.3,0.23,0.61,0.32,0.92c0.02,0.06,0.04,0.12,0.06,0.19h48.69v8.48c0,1.32,0.49,2.3,1.22,2.95
			c0.74,0.67,1.74,1,2.74,1c1,0,2-0.34,2.74-1c0.73-0.65,1.22-1.64,1.22-2.95v-8.48h48.84c0.39-1.33,1-2.57,1.79-3.67
			c0.2-0.28,0.39-0.52,0.57-0.73c0.18-0.22,0.39-0.45,0.63-0.69v-0.01l0,0c1.13-1.14,2.47-2.06,3.96-2.69
			c0.29-0.12,0.58-0.23,0.89-0.33c0.06-0.02,0.13-0.04,0.19-0.06V97.15c-1.33-0.41-2.56-1.05-3.64-1.86
			c-0.23-0.18-0.47-0.37-0.72-0.6c-0.24-0.2-0.46-0.41-0.68-0.63h0c0,0,0,0,0,0h0l0-0.01v-0.01c-0.02-0.01-0.04-0.04-0.06-0.05
			c0,0,0.01,0.01,0.02,0.01L154.95,94c0,0,0,0,0,0c-1.1-1.13-1.98-2.48-2.57-3.96c-0.11-0.27-0.21-0.58-0.31-0.9
			c-0.02-0.05-0.04-0.12-0.05-0.18h-36.11V78.31h-11.39v-9.71c0-1.76-0.66-3.09-1.64-3.98c-0.99-0.89-2.33-1.35-3.67-1.35
			c-1.34,0-2.67,0.45-3.67,1.35c-0.98,0.89-1.64,2.22-1.64,3.98v9.71H82.6v10.65H81.65z"/>
		<line class="st0" x1="108.9" y1="122.96" x2="118.28" y2="122.96"/>
	</g>
</g>
</svg>
