<?xml version="1.0" encoding="utf-8"?>
<!-- Generator: Adobe Illustrator 28.0.0, SVG Export Plug-In . SVG Version: 6.00 Build 0)  -->
<svg version="1.1" id="Layer_1" xmlns="http://www.w3.org/2000/svg" xmlns:xlink="http://www.w3.org/1999/xlink" x="0px" y="0px"
	 viewBox="0 0 198.43 198.43" style="enable-background:new 0 0 198.43 198.43;" xml:space="preserve">
<style type="text/css">
	.st0{fill-rule:evenodd;clip-rule:evenodd;fill:#E30016;}
	.st1{fill-rule:evenodd;clip-rule:evenodd;fill:#003776;}
	.st2{fill:#003776;}
</style>
<g>
	<rect x="60.81" y="113.15" class="st0" width="113.35" height="4.7"/>
	<g>
		<path class="st1" d="M83.73,84.96c7.39,0,13.42,6.03,13.42,13.42c0,7.39-6.03,13.42-13.42,13.42c-7.39,0-13.41-6.02-13.42-13.41h0
			V77.26h7.76v8.96C79.8,85.42,81.71,84.96,83.73,84.96 M83.73,92.77c3.09,0,5.62,2.52,5.62,5.61c0,3.09-2.52,5.61-5.62,5.61
			c-3.09,0-5.61-2.52-5.61-5.61C78.12,95.29,80.64,92.77,83.73,92.77 M24.26,87.84v24.01h8.61V99.5h9.75v-8h-9.75v-3.26
			c0-1.78,0.74-2.67,3.02-2.67h6.73v-8.3h-8.11C28.22,77.26,24.26,81.81,24.26,87.84 M139.76,92.8v-0.02h5.74v-7.4h-5.74v0
			c-3.6,0.09-6.66,1.36-9.18,3.83c-2.61,2.57-3.91,5.7-3.91,9.39c0,3.67,1.3,6.79,3.89,9.38c2.54,2.54,5.6,3.82,9.17,3.87v0h5.78
			v-7.43h-5.76c-1.45-0.05-2.7-0.61-3.75-1.69c-1.09-1.14-1.64-2.51-1.64-4.12c0-1.6,0.54-2.98,1.63-4.11
			C137.03,93.4,138.29,92.84,139.76,92.8 M125.17,94.41c-0.62-1.88-1.67-3.59-3.17-5.12c-2.56-2.6-5.63-3.9-9.21-3.9
			c-3.78,0-6.97,1.29-9.58,3.85c-2.61,2.56-3.91,5.7-3.91,9.39c0,3.67,1.29,6.79,3.89,9.38c2.59,2.59,5.72,3.88,9.38,3.88
			c3.69,0,6.82-1.29,9.4-3.87c1.05-1.05,1.87-2.19,2.5-3.42l-7.29-2.65c-0.19,0.29-0.41,0.56-0.66,0.82
			c-1.08,1.13-2.4,1.69-3.95,1.69c-1.23,0-2.32-0.37-3.27-1.11L125.17,94.41z M112.56,92.82c0.94,0,1.78,0.21,2.54,0.62l-8.08,4.56
			c0.13-1.33,0.66-2.49,1.6-3.47C109.71,93.39,111.02,92.82,112.56,92.82 M160.84,85.38c7.28,0,13.23,5.86,13.32,13.08l0,0v13.39
			h-7.76v-1.21c-1.69,0.78-3.58,1.21-5.56,1.21c-7.34,0-13.32-5.95-13.32-13.23C147.53,91.33,153.51,85.38,160.84,85.38
			 M160.83,92.85c3.06,0,5.56,2.59,5.56,5.77c0,3.18-2.5,5.77-5.56,5.77s-5.56-2.59-5.56-5.77
			C155.27,95.44,157.77,92.85,160.83,92.85 M58.94,100.58c0,2.17-0.39,3.7-2.67,3.7c-2.38,0-2.87-1.78-2.87-3.36V87h-7.62v15.4
			c0,4.25,1.93,7.4,6.53,8.79v10.17h7.91v-10.17c3.71-1.19,6.33-4.09,6.33-8.79V87h-7.62V100.58z"/>
		<path class="st1" d="M169.26,82.72h1.61c0.6,0,1.1-0.01,1.54-0.33c0.38-0.27,0.6-0.72,0.6-1.22c0-0.58-0.32-1.09-0.91-1.45
			l-1.04-0.62c-0.25-0.15-0.37-0.29-0.37-0.44c0-0.18,0.18-0.21,0.53-0.21h1.45v-1.27h-1.27c-0.73,0-1.25,0.02-1.64,0.37
			c-0.32,0.28-0.49,0.68-0.49,1.17c0,0.49,0.3,1.01,0.8,1.31l1.06,0.64c0.25,0.16,0.38,0.31,0.38,0.47c0,0.17-0.12,0.27-0.35,0.27
			h-1.91V82.72z"/>
		<path class="st2" d="M169.26,82.72h1.61c0.6,0,1.1-0.01,1.54-0.33c0.38-0.27,0.6-0.72,0.6-1.22c0-0.58-0.32-1.09-0.91-1.45
			l-1.04-0.62c-0.25-0.15-0.37-0.29-0.37-0.44c0-0.18,0.18-0.21,0.53-0.21h1.45v-1.27h-1.27c-0.73,0-1.25,0.02-1.64,0.37
			c-0.32,0.28-0.49,0.68-0.49,1.17c0,0.49,0.3,1.01,0.8,1.31l1.06,0.64c0.25,0.16,0.38,0.31,0.38,0.47c0,0.17-0.12,0.27-0.35,0.27
			h-1.91V82.72z"/>
		<rect x="149.98" y="77.17" class="st1" width="1.38" height="5.55"/>
		<rect x="149.98" y="77.17" class="st2" width="1.38" height="5.55"/>
		<path class="st1" d="M143.16,78.47v-1.3h-0.14c-0.96,0-1.68,0.15-2.19,0.47c-0.82,0.52-1.27,1.35-1.27,2.3
			c0,0.95,0.45,1.79,1.27,2.31c0.5,0.32,1.22,0.47,2.19,0.47h0.14v-1.3c-0.1,0.01-0.21,0.01-0.31,0.01c-1.23,0-1.88-0.54-1.88-1.49
			c0-0.94,0.64-1.48,1.88-1.48C142.95,78.46,143.05,78.46,143.16,78.47"/>
		<path class="st2" d="M143.16,78.47v-1.3h-0.14c-0.96,0-1.68,0.15-2.19,0.47c-0.82,0.52-1.27,1.35-1.27,2.3
			c0,0.95,0.45,1.79,1.27,2.31c0.5,0.32,1.22,0.47,2.19,0.47h0.14v-1.3c-0.1,0.01-0.21,0.01-0.31,0.01c-1.23,0-1.88-0.54-1.88-1.49
			c0-0.94,0.64-1.48,1.88-1.48C142.95,78.46,143.05,78.46,143.16,78.47"/>
		<path class="st1" d="M115.71,82.72h1.33l0.31-3.47c0.02-0.25,0.06-0.59,0.06-1.02c0.08,0.41,0.14,0.73,0.2,0.99l0.58,2.7
			c0.13,0.58,0.33,0.86,0.74,0.86c0.41,0,0.61-0.28,0.74-0.86l0.58-2.7c0.06-0.28,0.13-0.6,0.2-0.99c0.02,0.32,0.04,0.66,0.07,1.02
			l0.31,3.47h1.33l-0.6-4.5c-0.1-0.74-0.48-1.14-1.03-1.14c-0.53,0-0.91,0.36-1.06,1.03l-0.37,1.54c-0.08,0.32-0.13,0.68-0.16,1.1
			c-0.03-0.42-0.08-0.79-0.16-1.1l-0.37-1.54c-0.16-0.68-0.53-1.03-1.06-1.03c-0.56,0-0.94,0.41-1.03,1.14L115.71,82.72z"/>
		<path class="st2" d="M115.71,82.72h1.33l0.31-3.47c0.02-0.25,0.06-0.59,0.06-1.02c0.08,0.41,0.14,0.73,0.2,0.99l0.58,2.7
			c0.13,0.58,0.33,0.86,0.74,0.86c0.41,0,0.61-0.28,0.74-0.86l0.58-2.7c0.06-0.28,0.13-0.6,0.2-0.99c0.02,0.32,0.04,0.66,0.07,1.02
			l0.31,3.47h1.33l-0.6-4.5c-0.1-0.74-0.48-1.14-1.03-1.14c-0.53,0-0.91,0.36-1.06,1.03l-0.37,1.54c-0.08,0.32-0.13,0.68-0.16,1.1
			c-0.03-0.42-0.08-0.79-0.16-1.1l-0.37-1.54c-0.16-0.68-0.53-1.03-1.06-1.03c-0.56,0-0.94,0.41-1.03,1.14L115.71,82.72z"/>
		<path class="st1" d="M106.55,79.37V79.1c0-0.5,0.22-0.77,0.6-0.77c0.29,0,0.51,0.21,0.51,0.52c0,0.34-0.22,0.52-0.67,0.52h-0.21v0
			H106.55z M105.17,82.71h1.38v-2.1h0.35c0.67,0,0.91,0.14,0.91,0.76v1.34h1.38v-1.68c0-0.73-0.27-1.07-0.99-1.15
			c0.58-0.19,0.91-0.65,0.91-1.21c0-0.86-0.83-1.61-1.95-1.61c-1.18,0-1.99,0.8-1.99,2.02V82.71z"/>
		<path class="st2" d="M106.55,79.37V79.1c0-0.5,0.22-0.77,0.6-0.77c0.29,0,0.51,0.21,0.51,0.52c0,0.34-0.22,0.52-0.67,0.52h-0.21v0
			H106.55z M105.17,82.71h1.38v-2.1h0.35c0.67,0,0.91,0.14,0.91,0.76v1.34h1.38v-1.68c0-0.73-0.27-1.07-0.99-1.15
			c0.58-0.19,0.91-0.65,0.91-1.21c0-0.86-0.83-1.61-1.95-1.61c-1.18,0-1.99,0.8-1.99,2.02V82.71z"/>
		<path class="st1" d="M84.51,82.72h1.38V80.7h1.54V79.4h-1.54v-0.37c0-0.38,0.2-0.57,0.58-0.57h0.96v-1.29h-0.99
			c-1.31,0-1.94,0.6-1.94,1.86V82.72z"/>
		<path class="st2" d="M84.51,82.72h1.38V80.7h1.54V79.4h-1.54v-0.37c0-0.38,0.2-0.57,0.58-0.57h0.96v-1.29h-0.99
			c-1.31,0-1.94,0.6-1.94,1.86V82.72z"/>
		<path class="st1" d="M96.91,79.36h-1.49c0-0.61,0.26-0.94,0.74-0.94c0.45,0,0.75,0.33,0.75,0.87V79.36z M95.42,80.66h0.25v0h1.24
			v2.06h1.37v-3.28c0-1.49-0.88-2.37-2.12-2.37c-1.24,0-2.11,0.88-2.11,2.37v3.28h1.37V80.66z"/>
		<path class="st2" d="M96.91,79.36h-1.49c0-0.61,0.26-0.94,0.74-0.94c0.45,0,0.75,0.33,0.75,0.87V79.36z M95.42,80.66h0.25v0h1.24
			v2.06h1.37v-3.28c0-1.49-0.88-2.37-2.12-2.37c-1.24,0-2.11,0.88-2.11,2.37v3.28h1.37V80.66z"/>
		<path class="st1" d="M131.59,79.36h-1.49c0-0.61,0.26-0.94,0.74-0.94c0.45,0,0.75,0.33,0.75,0.87V79.36z M130.1,80.66h0.25v0h1.24
			v2.06h1.37v-3.28c0-1.49-0.88-2.37-2.12-2.37c-1.24,0-2.11,0.88-2.11,2.37v3.28h1.38V80.66z"/>
		<path class="st2" d="M131.59,79.36h-1.49c0-0.61,0.26-0.94,0.74-0.94c0.45,0,0.75,0.33,0.75,0.87V79.36z M130.1,80.66h0.25v0h1.24
			v2.06h1.37v-3.28c0-1.49-0.88-2.37-2.12-2.37c-1.24,0-2.11,0.88-2.11,2.37v3.28h1.38V80.66z"/>
		<path class="st1" d="M161.27,79.36h-1.49c0-0.61,0.26-0.94,0.74-0.94c0.45,0,0.75,0.33,0.75,0.87V79.36z M159.78,80.66h0.25v0
			h1.24v2.06h1.37v-3.28c0-1.49-0.88-2.37-2.12-2.37c-1.24,0-2.11,0.88-2.11,2.37v3.28h1.37V80.66z"/>
		<path class="st2" d="M161.27,79.36h-1.49c0-0.61,0.26-0.94,0.74-0.94c0.45,0,0.75,0.33,0.75,0.87V79.36z M159.78,80.66h0.25v0
			h1.24v2.06h1.37v-3.28c0-1.49-0.88-2.37-2.12-2.37c-1.24,0-2.11,0.88-2.11,2.37v3.28h1.37V80.66z"/>
		<rect x="24.26" y="113.15" class="st0" width="27.48" height="4.7"/>
	</g>
</g>
</svg>
