<?xml version="1.0" encoding="utf-8"?>
<!-- Generator: Adobe Illustrator 28.0.0, SVG Export Plug-In . SVG Version: 6.00 Build 0)  -->
<svg version="1.1" id="Layer_1" xmlns="http://www.w3.org/2000/svg" xmlns:xlink="http://www.w3.org/1999/xlink" x="0px" y="0px"
	 viewBox="0 0 198.43 198.43" style="enable-background:new 0 0 198.43 198.43;" xml:space="preserve">
<style type="text/css">
	.st0{fill:#FFFFFF;}
</style>
<g>
	<path class="st0" d="M134.89,106.51c-0.01-0.03-0.02-0.05-0.03-0.06c-0.68-0.73-0.94-1.62-0.95-2.58
		c-0.02-3.44-0.01-6.89-0.01-10.33c0-0.31,0.08-0.57,0.3-0.77c0.24-0.22,0.5-0.43,0.78-0.66c-0.17-0.16-0.35-0.34-0.54-0.51
		c-0.04-0.04-0.12-0.06-0.18-0.06c-1.26,0.04-2.53,0.08-3.79,0.11c-0.18,0-0.26,0.06-0.32,0.24c-1.16,3.41-2.33,6.82-3.5,10.24
		c-0.02,0.06-0.05,0.13-0.09,0.24c-0.05-0.12-0.07-0.17-0.09-0.24c-1.21-3.4-2.42-6.81-3.63-10.21c-0.05-0.15-0.12-0.22-0.29-0.22
		c-1.31-0.02-2.62-0.05-3.93-0.08c-0.04,0-0.08,0.01-0.13,0.02c0.01,0.04,0.02,0.06,0.03,0.07c0.54,0.6,0.75,1.28,0.73,2.1
		c-0.06,2.02-0.06,4.05-0.09,6.07c-0.02,1.41-0.03,2.82-0.09,4.23c-0.03,0.87-0.3,1.67-0.85,2.37c-0.03,0.04-0.06,0.09-0.09,0.14
		h3.98c-0.04-0.06-0.06-0.1-0.09-0.14c-0.62-0.93-0.89-1.97-0.89-3.08c0-2.7,0-5.39,0-8.09c0-0.07,0-0.14,0-0.21
		c0.02,0,0.03-0.01,0.05-0.01c0.03,0.07,0.06,0.14,0.08,0.21c1.18,3.64,2.35,7.28,3.53,10.92c0.05,0.16,0.12,0.22,0.29,0.21
		c0.65-0.01,1.3-0.01,1.96,0c0.17,0,0.24-0.06,0.29-0.21c1.18-3.52,2.37-7.04,3.55-10.55c0.03-0.08,0.06-0.17,0.09-0.25
		c0.04,0.07,0.05,0.13,0.05,0.2c0,2.85,0,5.7,0,8.55c0,0.79-0.18,1.54-0.63,2.21c-0.02,0.04-0.04,0.08-0.06,0.13H134.89z"/>
	<path class="st0" d="M51.81,98.16h-6.6c0,0.53,0.01,1.05-0.01,1.57c-0.01,0.21,0.06,0.26,0.26,0.26c0.99-0.01,1.97,0,2.96-0.01
		c0.16,0,0.24,0.04,0.23,0.22c-0.01,0.81,0,1.63,0,2.44c0,0.12-0.02,0.25-0.06,0.37c-0.28,0.8-0.78,1.41-1.56,1.78
		c-0.63,0.3-1.29,0.35-1.97,0.3c-1.23-0.09-2.1-0.69-2.51-1.89c-0.27-0.79-0.37-1.61-0.39-2.43c-0.02-1.05-0.02-2.1,0-3.16
		c0.02-0.8,0.06-1.61,0.27-2.39c0.24-0.91,0.73-1.62,1.65-1.97c0.57-0.22,1.17-0.27,1.78-0.26c1.17,0.02,2.02,0.67,2.35,1.8
		c0.15,0.54,0.18,1.1,0.13,1.67h3.32c0-0.1,0.01-0.18,0-0.26c-0.08-0.83-0.31-1.62-0.76-2.33c-0.92-1.42-2.31-2.04-3.93-2.2
		c-0.74-0.07-1.5-0.04-2.25-0.01c-0.83,0.03-1.65,0.2-2.43,0.48c-1.28,0.46-2.22,1.29-2.69,2.6c-0.3,0.82-0.42,1.68-0.45,2.54
		c-0.04,1.1-0.04,2.2-0.04,3.3c0,0.75,0.05,1.49,0.23,2.22c0.46,1.89,1.61,3.13,3.49,3.65c1.11,0.31,2.24,0.4,3.38,0.25
		c1.25-0.16,2.34-0.65,3.2-1.59c0.04-0.04,0.08-0.07,0.16-0.15v1.67h2.24V98.16z"/>
	<path class="st0" d="M69.3,106.63c-0.16-0.28-0.36-0.54-0.45-0.83c-0.13-0.45-0.23-0.92-0.24-1.39c-0.02-2.33-0.01-4.66-0.02-6.99
		c0-0.32,0.09-0.59,0.28-0.83c0.5-0.65,1.18-0.91,1.97-0.9c0.88,0.01,1.51,0.5,1.71,1.36c0.06,0.26,0.08,0.53,0.08,0.79
		c0.01,2.26,0.01,4.53,0,6.79c0,0.28-0.04,0.57-0.08,0.85c-0.06,0.41-0.27,0.74-0.63,1.03h4.25c-0.02-0.04-0.02-0.07-0.04-0.09
		c-0.45-0.62-0.61-1.32-0.61-2.07c0-2.22,0.01-4.45-0.01-6.67c0-0.35-0.04-0.71-0.13-1.04c-0.39-1.34-1.19-2.3-2.59-2.68
		c-0.66-0.18-1.33-0.15-2-0.08c-0.37,0.04-0.73,0.12-1.09,0.23c-0.41,0.12-0.74,0.38-1,0.73c-0.14,0.19-0.25,0.17-0.34-0.05
		c-0.02-0.05-0.03-0.1-0.04-0.15c-0.03-0.19-0.06-0.38-0.09-0.57h-3.39c0.14,0.25,0.27,0.48,0.4,0.71c0.24,0.44,0.41,0.89,0.4,1.4
		c-0.01,2.74,0,5.49-0.01,8.23c0,0.81-0.21,1.55-0.77,2.16c-0.01,0.01-0.01,0.03-0.02,0.05H69.3z"/>
	<path class="st0" d="M184.01,98.51c0.16-1.72-0.58-3.58-2.72-4.28c-1.35-0.44-2.73-0.44-4.12-0.18c-0.78,0.15-1.48,0.45-2.09,0.97
		c-1.71,1.45-1.34,4.66,0.94,5.58c0.84,0.34,1.71,0.53,2.57,0.77c0.61,0.17,1.22,0.37,1.81,0.6c0.35,0.13,0.61,0.4,0.77,0.75
		c0.26,0.58,0.13,1.27-0.36,1.77c-0.64,0.66-1.43,0.82-2.31,0.62c-0.68-0.16-1.18-0.53-1.41-1.22c-0.13-0.38-0.16-0.77-0.1-1.16
		c0.04-0.27,0.08-0.53,0.12-0.8c-0.04-0.01-0.07-0.02-0.09-0.02c-1.09,0-2.17,0-3.26,0c-0.12,0-0.17,0.05-0.16,0.17
		c0.02,0.25,0.03,0.51,0.06,0.76c0.23,1.82,1.4,3.16,3.18,3.61c1.48,0.37,2.96,0.26,4.42-0.11c0.71-0.18,1.37-0.48,1.92-0.98
		c0.98-0.89,1.24-2.02,1-3.29c-0.2-1.08-0.79-1.84-1.84-2.21c-0.55-0.19-1.1-0.38-1.66-0.55c-0.85-0.25-1.7-0.46-2.54-0.73
		c-0.28-0.09-0.59-0.24-0.78-0.46c-0.62-0.72-0.58-2.07,0.54-2.58c0.55-0.25,1.12-0.26,1.7-0.16c0.69,0.11,1.14,0.51,1.28,1.2
		c0.07,0.35,0.06,0.71,0.04,1.07c-0.02,0.29-0.1,0.58-0.16,0.88H184.01z"/>
	<path class="st0" d="M154.57,104.81c-0.22,0.02-0.42,0.05-0.61,0.07c-0.47,0.04-0.93,0.06-1.38-0.1c-0.44-0.16-0.63-0.43-0.63-0.89
		c0-2.63,0-5.26,0-7.89c0-0.18,0.05-0.23,0.23-0.23c0.67,0.01,1.33,0,2,0c0.08,0,0.16-0.01,0.24-0.01V94.1h-2.51v-2.53h-2.81v2.51
		c-0.1,0-0.18,0-0.26,0c-0.49,0.01-0.99,0.02-1.48,0.02c-0.13,0-0.19,0.04-0.19,0.18c0.01,0.45,0.01,0.91,0,1.36
		c0,0.13,0.05,0.17,0.18,0.17c0.46-0.01,0.92,0,1.38,0c0.29,0,0.29,0,0.29,0.3c-0.01,2.08-0.02,4.17-0.01,6.25
		c0,0.82,0.02,1.64,0.12,2.45c0.11,0.99,0.96,1.67,1.95,1.67c1.1,0,2.2,0,3.3,0h0.23V104.81z"/>
	<path class="st0" d="M170.92,106.61c-0.12-0.16-0.23-0.32-0.35-0.48c-0.43-0.57-0.7-1.22-0.71-1.92c-0.03-2,0-3.99,0.02-5.99
		c0.01-0.67,0.32-1.23,0.83-1.66c0.34-0.29,0.75-0.41,1.17-0.27c0.34,0.11,0.67,0.29,1,0.44c0.06,0.03,0.11,0.06,0.19,0.11
		c0-0.89,0-1.74,0-2.59c0-0.05-0.05-0.11-0.09-0.13c-0.61-0.3-1.45-0.34-2.02,0.14c-0.29,0.25-0.55,0.54-0.83,0.81
		c-0.09,0.08-0.2,0.14-0.3,0.21c-0.04-0.13-0.11-0.25-0.12-0.38c-0.02-0.24-0.01-0.47-0.01-0.71h-3.48
		c0.08,0.13,0.15,0.22,0.21,0.32c0.22,0.36,0.48,0.71,0.53,1.15c0.04,0.36,0.08,0.71,0.08,1.07c0.01,2.55,0.01,5.1,0,7.65
		c0,0.8-0.09,1.58-0.76,2.22H170.92z"/>
	<path class="st0" d="M93.77,106.69c0-0.01,0-0.02,0-0.02c-0.03-0.04-0.06-0.07-0.09-0.11c-0.64-0.75-0.92-1.67-0.96-2.59
		c-0.08-1.63,0-3.27,0.02-4.91c0.01-0.42,0.02-0.86,0.12-1.27c0.16-0.62,0.52-1.12,1.14-1.38c0.49-0.21,0.95-0.03,1.39,0.19
		c0.19,0.09,0.36,0.21,0.56,0.32c0-0.07,0.01-0.13,0.01-0.18c0-0.77,0-1.53,0-2.3c0-0.15-0.05-0.23-0.19-0.28
		c-0.8-0.31-1.54-0.24-2.17,0.38c-0.25,0.24-0.48,0.5-0.72,0.74c-0.14,0.13-0.21,0.11-0.26-0.08c-0.01-0.05-0.02-0.11-0.02-0.16
		c0-0.26,0-0.51,0-0.78h-3.48c0.07,0.1,0.12,0.18,0.17,0.26c0.23,0.37,0.5,0.73,0.56,1.18c0.05,0.37,0.09,0.74,0.09,1.11
		c0.01,2.48,0.01,4.95,0,7.43c0,0.31-0.01,0.61-0.04,0.92c-0.06,0.55-0.23,1.05-0.64,1.44c-0.01,0.01-0.01,0.03-0.03,0.07H93.77z"/>
	<path class="st0" d="M112.32,106.58c-0.68-0.75-0.87-1.65-0.87-2.59c-0.01-4,0.01-8,0.02-12.01c0-0.08,0-0.17,0-0.26h-3.56
		c0.08,0.11,0.14,0.2,0.2,0.28c0.3,0.44,0.54,0.91,0.54,1.45c-0.01,3.54-0.01,7.09-0.03,10.63c-0.01,0.87-0.14,1.71-0.68,2.44
		c0,0.01,0.01,0.02,0.01,0.05H112.32z"/>
	<path d="M25.56,99.33c-0.03-0.03-0.04-0.03-0.04-0.04c-0.2-1.22-0.4-2.44-0.6-3.66c-0.2-1.21-0.41-2.42-0.61-3.63
		c-0.03-0.17-0.1-0.23-0.27-0.22c-0.65,0.01-1.31,0-1.96,0c-0.26,0-0.26,0-0.26,0.26c0,3.44,0,6.87,0,10.31c0,0.07,0,0.14,0,0.22
		c0.04,0.01,0.07,0.03,0.09,0.03c0.5,0,1,0,1.5,0.01c0.14,0,0.14-0.09,0.14-0.19c-0.01-0.33-0.02-0.67-0.02-1
		c-0.02-2.04-0.04-4.08-0.05-6.11c0-0.04,0-0.08,0-0.11c0.27,1.3,0.51,2.6,0.75,3.9c0.21,1.12,0.42,2.25,0.62,3.37
		c0.02,0.13,0.07,0.18,0.2,0.17c0.32-0.01,0.64-0.01,0.96,0c0.12,0,0.17-0.04,0.19-0.15c0.35-1.86,0.69-3.72,1.04-5.58
		c0.11-0.57,0.21-1.14,0.32-1.7c0.02,2.39,0.02,4.79,0.02,7.18c0,0.18,0.04,0.25,0.23,0.24c0.41-0.01,0.83-0.01,1.24,0
		c0.15,0,0.21-0.04,0.21-0.2c0.01-3.47,0.02-6.94,0.04-10.41c0-0.18-0.06-0.22-0.23-0.22c-0.68,0-1.36-0.01-2.04-0.02
		c-0.28,0-0.27-0.01-0.32,0.28c-0.11,0.74-0.23,1.48-0.34,2.22c-0.18,1.16-0.36,2.31-0.53,3.47C25.73,98.25,25.64,98.79,25.56,99.33
		"/>
	<path d="M17.31,98.15c0.24,0,0.46,0.01,0.68,0c0.15-0.01,0.22,0.04,0.22,0.2c0.01,0.62,0.04,1.24,0.04,1.86
		c0,0.48-0.24,0.79-0.69,0.93c-0.16,0.05-0.32,0.07-0.49,0.09c-0.41,0.05-0.76-0.15-0.9-0.54c-0.06-0.17-0.09-0.36-0.09-0.55
		c0-1.96,0.03-3.92,0.01-5.87c-0.01-0.66,0.55-1.12,1.17-1.03c0.51,0.07,0.9,0.45,0.92,0.96c0.02,0.32,0.02,0.64,0.02,0.96
		c0,0.11,0.02,0.17,0.15,0.17c0.49,0,0.99,0,1.48,0.01c0.11,0,0.18-0.03,0.17-0.16c-0.02-0.51,0-1.03-0.07-1.53
		c-0.14-0.93-0.66-1.58-1.58-1.87c-0.46-0.15-0.93-0.2-1.42-0.19c-1.5,0.02-2.6,1.1-2.61,2.6c-0.01,1.95-0.01,3.9,0,5.85
		c0,0.32,0.03,0.64,0.09,0.95c0.13,0.72,0.44,1.34,1.11,1.72c0.47,0.27,0.98,0.26,1.49,0.17c0.53-0.1,0.98-0.32,1.27-0.87
		c0,0.24,0.01,0.41,0,0.59c-0.01,0.15,0.04,0.2,0.19,0.2c0.45-0.01,0.91-0.01,1.36,0c0.15,0,0.19-0.05,0.19-0.2
		c-0.01-1.87-0.01-3.74-0.02-5.61c0-0.16-0.05-0.22-0.22-0.22c-0.77,0.01-1.54,0.01-2.32,0.01c-0.06,0-0.12,0.01-0.18,0.01V98.15z"
		/>
	<path d="M29.26,104.31c-0.1-0.01-0.2-0.01-0.3-0.01c-3.54,0-7.08,0-10.62,0c-1.3,0-2.61,0-3.91,0c-0.19,0-0.25,0.06-0.24,0.25
		c0.01,0.68,0,1.36,0,2.04c0,0.08,0.01,0.15,0.01,0.23h15.07V104.31z"/>
	<path d="M134.89,106.51h-4.59c0.02-0.05,0.04-0.09,0.06-0.13c0.45-0.67,0.63-1.42,0.63-2.21c0-2.85,0-5.7,0-8.55
		c0-0.06-0.01-0.13-0.05-0.2c-0.03,0.08-0.06,0.17-0.09,0.25c-1.19,3.52-2.37,7.04-3.55,10.55c-0.05,0.16-0.12,0.22-0.29,0.21
		c-0.65-0.01-1.3-0.01-1.96,0c-0.17,0-0.24-0.05-0.29-0.21c-1.17-3.64-2.35-7.28-3.53-10.92c-0.02-0.07-0.05-0.14-0.08-0.21
		c-0.02,0-0.03,0.01-0.05,0.01c0,0.07,0,0.14,0,0.21c0,2.7,0,5.39,0,8.09c0,1.11,0.27,2.14,0.89,3.08c0.03,0.04,0.05,0.08,0.09,0.14
		h-3.98c0.03-0.05,0.06-0.1,0.09-0.14c0.54-0.69,0.81-1.5,0.85-2.37c0.06-1.41,0.07-2.82,0.09-4.23c0.03-2.02,0.03-4.05,0.09-6.07
		c0.03-0.82-0.19-1.5-0.73-2.1c-0.01-0.01-0.02-0.03-0.03-0.07c0.05-0.01,0.09-0.02,0.13-0.02c1.31,0.03,2.62,0.06,3.93,0.08
		c0.17,0,0.24,0.07,0.29,0.22c1.21,3.41,2.42,6.81,3.63,10.21c0.02,0.06,0.05,0.12,0.09,0.24c0.04-0.11,0.07-0.17,0.09-0.24
		c1.17-3.41,2.34-6.82,3.5-10.24c0.06-0.18,0.14-0.23,0.32-0.24c1.26-0.03,2.53-0.08,3.79-0.11c0.06,0,0.14,0.02,0.18,0.06
		c0.19,0.17,0.38,0.35,0.54,0.51c-0.28,0.23-0.53,0.44-0.78,0.66c-0.23,0.2-0.3,0.46-0.3,0.77c0.01,3.44-0.01,6.89,0.01,10.33
		c0.01,0.96,0.27,1.85,0.95,2.58C134.87,106.46,134.87,106.48,134.89,106.51"/>
	<path d="M51.81,98.16v8.49h-2.24v-1.67c-0.08,0.08-0.13,0.11-0.16,0.15c-0.86,0.94-1.95,1.43-3.2,1.59
		c-1.14,0.14-2.27,0.06-3.38-0.25c-1.88-0.53-3.03-1.76-3.49-3.65c-0.18-0.73-0.23-1.47-0.23-2.22c0-1.1,0-2.2,0.04-3.3
		c0.03-0.86,0.15-1.72,0.45-2.54c0.47-1.31,1.41-2.13,2.69-2.6c0.79-0.28,1.6-0.45,2.43-0.48c0.75-0.03,1.51-0.06,2.25,0.01
		c1.62,0.16,3.01,0.78,3.93,2.2c0.46,0.71,0.69,1.49,0.76,2.33c0.01,0.08,0,0.17,0,0.26h-3.32c0.05-0.57,0.02-1.13-0.13-1.67
		c-0.32-1.13-1.17-1.78-2.35-1.8c-0.61-0.01-1.21,0.04-1.78,0.26c-0.92,0.35-1.4,1.05-1.65,1.97c-0.21,0.78-0.26,1.59-0.27,2.39
		c-0.02,1.05-0.02,2.1,0,3.16c0.02,0.83,0.12,1.64,0.39,2.43c0.41,1.19,1.27,1.79,2.51,1.89c0.68,0.05,1.34,0,1.97-0.3
		c0.77-0.37,1.28-0.98,1.56-1.78c0.04-0.12,0.06-0.25,0.06-0.37c0-0.81,0-1.63,0-2.44c0-0.19-0.07-0.22-0.23-0.22
		c-0.99,0.01-1.97,0-2.96,0.01c-0.2,0-0.26-0.05-0.26-0.26c0.02-0.52,0.01-1.04,0.01-1.57H51.81z"/>
	<path d="M99.5,98.67h-3.17c-0.28-1.67,0.3-3.68,2.44-4.43c1.05-0.37,2.13-0.42,3.23-0.34c0.77,0.06,1.51,0.21,2.2,0.57
		c1.08,0.56,1.69,1.47,1.82,2.66c0.08,0.73,0.08,1.47,0.08,2.21c0.01,1.54,0,3.08,0.01,4.61c0.01,0.87,0.18,1.71,0.51,2.52
		c0.02,0.04,0.03,0.08,0.05,0.15c-0.09,0-0.15,0.01-0.21,0.01c-0.83,0-1.65-0.01-2.48,0.01c-0.19,0-0.24-0.06-0.24-0.24
		c0.01-0.43,0-0.85,0-1.31c-0.05,0.04-0.08,0.05-0.09,0.07c-0.35,0.67-0.93,1.05-1.63,1.26c-1.14,0.35-2.28,0.35-3.42,0
		c-1.26-0.39-2.04-1.24-2.35-2.53c-0.17-0.71-0.28-1.41-0.1-2.13c0.24-0.97,0.9-1.59,1.77-2.02c0.85-0.42,1.76-0.62,2.67-0.85
		c0.77-0.19,1.53-0.42,2.3-0.63c0.21-0.06,0.31-0.2,0.36-0.4c0.08-0.36,0.11-0.72,0.02-1.09c-0.19-0.79-0.77-1.28-1.61-1.32
		c-0.32-0.02-0.66-0.01-0.97,0.05c-0.72,0.15-1.18,0.68-1.29,1.42c-0.08,0.51-0.04,1.02,0.06,1.53
		C99.48,98.52,99.49,98.59,99.5,98.67 M103.38,101.26c-0.03,0-0.06,0-0.08-0.01c0-0.35,0-0.7,0-1.06c0-0.15-0.07-0.2-0.21-0.19
		c-0.2,0.01-0.4,0.02-0.6,0.03c-0.75,0.07-1.47,0.2-2.14,0.56c-0.46,0.25-0.85,0.58-1.05,1.08c-0.21,0.52-0.31,1.06-0.27,1.64
		c0.1,1.21,1.24,2.03,2.4,1.69c0.89-0.26,1.56-0.79,1.71-1.77C103.24,102.58,103.3,101.92,103.38,101.26"/>
	<path d="M69.3,106.63h-4.47c0.01-0.02,0-0.04,0.02-0.05c0.56-0.61,0.77-1.35,0.77-2.16c0-2.74,0-5.49,0.01-8.23
		c0-0.51-0.17-0.96-0.4-1.4c-0.13-0.23-0.26-0.46-0.4-0.71h3.39c0.03,0.2,0.06,0.38,0.09,0.57c0.01,0.05,0.02,0.1,0.04,0.15
		c0.09,0.22,0.2,0.24,0.34,0.05c0.26-0.35,0.59-0.61,1-0.73c0.35-0.1,0.72-0.19,1.09-0.23c0.67-0.07,1.34-0.1,2,0.08
		c1.39,0.37,2.2,1.33,2.59,2.68c0.1,0.33,0.13,0.69,0.13,1.04c0.01,2.22,0.01,4.45,0.01,6.67c0,0.75,0.17,1.45,0.61,2.07
		c0.01,0.02,0.02,0.05,0.04,0.09h-4.25c0.36-0.29,0.57-0.62,0.63-1.03c0.04-0.28,0.08-0.57,0.08-0.85c0.01-2.26,0.01-4.53,0-6.79
		c0-0.26-0.02-0.53-0.08-0.79c-0.19-0.86-0.82-1.35-1.71-1.36c-0.8-0.01-1.47,0.25-1.97,0.9c-0.19,0.24-0.28,0.51-0.28,0.83
		c0.01,2.33-0.01,4.66,0.02,6.99c0,0.46,0.11,0.94,0.24,1.39C68.94,106.09,69.15,106.35,69.3,106.63"/>
	<path d="M60.71,102.15c0.08-0.01,0.13-0.01,0.18-0.01c0.97,0,1.94,0,2.92,0c0.11,0,0.2-0.01,0.2,0.15
		c-0.04,1.4-0.42,2.65-1.57,3.56c-0.64,0.51-1.4,0.77-2.2,0.86c-1.2,0.13-2.39,0.07-3.56-0.28c-1.74-0.53-2.75-1.71-3.08-3.49
		c-0.18-0.98-0.17-1.97-0.14-2.96c0.03-0.77,0.08-1.53,0.26-2.27c0.27-1.15,0.77-2.15,1.74-2.87c0.66-0.48,1.41-0.74,2.21-0.86
		c0.87-0.13,1.74-0.16,2.6,0.04c1.4,0.32,2.38,1.16,3.02,2.43c0.47,0.92,0.71,1.9,0.8,2.92c0.03,0.37,0.04,0.74,0.06,1.12
		c0.01,0.19-0.04,0.26-0.26,0.26c-2.31-0.01-4.62-0.01-6.93-0.01c-0.27,0-0.27,0-0.27,0.27c0,0.95,0.01,1.89-0.01,2.84
		c-0.01,0.5,0.22,0.84,0.61,1.09c0.54,0.33,1.14,0.37,1.75,0.32c0.28-0.03,0.57-0.07,0.84-0.17c0.21-0.07,0.4-0.2,0.58-0.34
		c0.18-0.14,0.25-0.35,0.25-0.58C60.71,103.49,60.71,102.83,60.71,102.15 M56.57,98.89c0.07,0.01,0.11,0.01,0.16,0.01
		c1.34,0.01,2.67,0.02,4.01,0.04c0.18,0,0.23-0.07,0.24-0.22c0.03-0.58-0.01-1.16-0.18-1.72c-0.27-0.89-0.81-1.48-1.79-1.58
		c-0.89-0.09-1.71,0.23-2.1,1.11c-0.17,0.39-0.27,0.82-0.33,1.24C56.53,98.14,56.57,98.52,56.57,98.89"/>
	<path d="M84.63,102.15h3.3c-0.04,0.41-0.05,0.81-0.12,1.19c-0.26,1.36-0.95,2.4-2.24,2.99c-0.75,0.34-1.54,0.45-2.35,0.45
		c-0.89,0-1.78-0.08-2.64-0.34c-1.7-0.53-2.7-1.67-3.05-3.41c-0.22-1.1-0.17-2.21-0.14-3.32c0.02-0.77,0.11-1.54,0.32-2.29
		c0.55-1.98,1.84-3.13,3.87-3.44c0.96-0.15,1.91-0.17,2.85,0.1c1.4,0.4,2.33,1.34,2.91,2.65c0.4,0.89,0.61,1.83,0.68,2.79
		c0.02,0.32,0.02,0.65,0.04,0.98c0.02,0.2-0.06,0.24-0.25,0.24c-2.27-0.01-4.54,0-6.81,0c-0.47,0-0.4-0.04-0.41,0.4
		c0,0.89,0.01,1.79-0.01,2.68c-0.01,0.53,0.23,0.9,0.67,1.13c0.28,0.15,0.61,0.25,0.92,0.29c0.54,0.07,1.09,0.05,1.62-0.15
		c0.18-0.07,0.36-0.17,0.52-0.29c0.22-0.16,0.32-0.4,0.32-0.68c0-0.57,0-1.15,0-1.72V102.15z M82.71,98.93v0.02c0.67,0,1.33,0,2,0
		c0.09,0,0.16,0,0.17-0.13c0.06-0.73,0-1.44-0.28-2.11c-0.35-0.86-1.01-1.28-1.95-1.27c-0.93,0.01-1.57,0.44-1.91,1.3
		c-0.25,0.62-0.3,1.26-0.28,1.92c0.01,0.26,0.01,0.27,0.27,0.27C81.4,98.93,82.05,98.93,82.71,98.93"/>
	<path d="M184.01,98.51h-3.27c0.06-0.3,0.14-0.59,0.16-0.88c0.02-0.36,0.03-0.72-0.04-1.07c-0.14-0.69-0.59-1.09-1.28-1.2
		c-0.58-0.09-1.15-0.09-1.7,0.16c-1.12,0.51-1.16,1.86-0.54,2.58c0.19,0.22,0.49,0.37,0.78,0.46c0.84,0.27,1.7,0.48,2.54,0.73
		c0.56,0.17,1.11,0.35,1.66,0.55c1.05,0.37,1.64,1.13,1.84,2.21c0.24,1.27-0.02,2.4-1,3.29c-0.55,0.5-1.21,0.8-1.92,0.98
		c-1.46,0.37-2.94,0.48-4.42,0.11c-1.78-0.45-2.95-1.78-3.18-3.61c-0.03-0.25-0.04-0.5-0.06-0.76c-0.01-0.11,0.04-0.17,0.16-0.17
		c1.09,0,2.17,0,3.26,0c0.03,0,0.05,0.01,0.09,0.02c-0.04,0.27-0.09,0.54-0.12,0.8c-0.06,0.4-0.02,0.79,0.1,1.16
		c0.23,0.68,0.73,1.06,1.41,1.22c0.88,0.2,1.67,0.04,2.31-0.62c0.49-0.5,0.62-1.18,0.36-1.77c-0.16-0.35-0.42-0.62-0.77-0.75
		c-0.59-0.23-1.2-0.43-1.81-0.6c-0.86-0.24-1.74-0.43-2.57-0.77c-2.28-0.91-2.64-4.12-0.94-5.58c0.61-0.52,1.32-0.82,2.09-0.97
		c1.38-0.26,2.77-0.26,4.12,0.18C183.43,94.93,184.17,96.79,184.01,98.51"/>
	<path d="M154.75,100.16c-0.01-0.98,0.04-1.95,0.31-2.89c0.51-1.81,1.72-2.9,3.53-3.31c1.1-0.25,2.21-0.32,3.32-0.07
		c1.49,0.34,2.5,1.28,3.14,2.64c0.43,0.91,0.65,1.87,0.72,2.86c0.07,0.96,0.09,1.93-0.08,2.88c-0.24,1.32-0.75,2.5-1.81,3.37
		c-0.71,0.59-1.55,0.9-2.45,1.03c-1.06,0.15-2.11,0.13-3.14-0.17c-1.67-0.47-2.67-1.6-3.16-3.23
		C154.81,102.25,154.74,101.21,154.75,100.16 M162.72,100.44c-0.05-1.01-0.07-1.8-0.13-2.59c-0.04-0.56-0.14-1.12-0.38-1.64
		c-0.18-0.4-0.46-0.7-0.88-0.85c-0.55-0.19-1.11-0.22-1.67-0.08c-0.73,0.18-1.13,0.72-1.39,1.37c-0.31,0.77-0.4,1.58-0.44,2.4
		c-0.05,1.18-0.05,2.37,0.11,3.55c0.08,0.55,0.2,1.09,0.48,1.57c0.33,0.57,0.82,0.88,1.48,0.89c0.28,0,0.56-0.02,0.84-0.05
		c0.8-0.09,1.37-0.48,1.61-1.27c0.07-0.22,0.14-0.45,0.16-0.68C162.59,102.12,162.66,101.17,162.72,100.44"/>
	<path d="M135.83,100.26c0.02-0.98,0.05-1.95,0.33-2.9c0.52-1.76,1.68-2.84,3.46-3.25c1.11-0.26,2.24-0.34,3.36-0.1
		c1.51,0.33,2.52,1.28,3.17,2.65c0.45,0.95,0.68,1.96,0.72,3c0.03,0.68,0.04,1.37-0.01,2.05c-0.08,1.09-0.37,2.13-0.99,3.06
		c-0.81,1.21-1.99,1.83-3.4,2.03c-1.04,0.15-2.08,0.12-3.1-0.17c-1.65-0.47-2.64-1.58-3.14-3.19
		C135.9,102.4,135.84,101.33,135.83,100.26 M143.8,100.34c-0.04-0.76-0.06-1.52-0.11-2.27c-0.05-0.59-0.14-1.17-0.39-1.72
		c-0.16-0.36-0.4-0.66-0.76-0.81c-0.65-0.26-1.32-0.31-1.99-0.06c-0.65,0.24-0.99,0.78-1.22,1.39c-0.35,0.94-0.42,1.94-0.43,2.93
		c-0.01,0.91,0.04,1.82,0.11,2.73c0.04,0.6,0.18,1.2,0.47,1.74c0.27,0.5,0.67,0.84,1.24,0.9c0.39,0.04,0.78,0.01,1.17-0.03
		c0.81-0.09,1.34-0.53,1.56-1.33c0.04-0.15,0.09-0.31,0.12-0.46C143.76,102.35,143.77,101.34,143.8,100.34"/>
	<path d="M154.57,104.81v1.67h-0.23c-1.1,0-2.2,0-3.3,0c-0.99,0-1.84-0.69-1.95-1.67c-0.09-0.81-0.11-1.63-0.12-2.45
		c-0.01-2.08,0.01-4.17,0.01-6.25c0-0.3,0-0.3-0.29-0.3c-0.46,0-0.92,0-1.38,0c-0.13,0-0.18-0.04-0.18-0.17
		c0.01-0.45,0.01-0.91,0-1.36c0-0.14,0.06-0.18,0.19-0.18c0.49,0,0.99-0.02,1.48-0.02c0.08,0,0.16,0,0.26,0v-2.51h2.81v2.53h2.51
		v1.66c-0.08,0-0.16,0.01-0.24,0.01c-0.67,0-1.33,0.01-2,0c-0.17,0-0.23,0.05-0.23,0.23c0.01,2.63,0,5.26,0,7.89
		c0,0.46,0.19,0.73,0.63,0.89c0.45,0.16,0.92,0.14,1.38,0.1C154.15,104.86,154.35,104.84,154.57,104.81"/>
	<path d="M170.92,106.61h-4.61c0.67-0.64,0.76-1.42,0.76-2.22c0-2.55,0-5.1,0-7.65c0-0.36-0.04-0.72-0.08-1.07
		c-0.05-0.44-0.31-0.79-0.53-1.15c-0.06-0.1-0.13-0.2-0.21-0.32h3.48c0,0.24-0.01,0.48,0.01,0.71c0.01,0.13,0.08,0.25,0.12,0.38
		c0.1-0.07,0.21-0.13,0.3-0.21c0.28-0.27,0.54-0.56,0.83-0.81c0.56-0.48,1.41-0.43,2.02-0.14c0.04,0.02,0.09,0.09,0.09,0.13
		c0.01,0.85,0,1.7,0,2.59c-0.08-0.05-0.13-0.09-0.19-0.11c-0.33-0.15-0.65-0.33-1-0.44c-0.43-0.14-0.83-0.02-1.17,0.27
		c-0.51,0.43-0.82,0.99-0.83,1.66c-0.02,2-0.05,4-0.02,5.99c0.01,0.7,0.28,1.35,0.71,1.92C170.69,106.29,170.8,106.45,170.92,106.61
		"/>
	<path d="M93.77,106.69h-4.53c0.02-0.04,0.02-0.06,0.03-0.07c0.42-0.39,0.58-0.9,0.64-1.44c0.03-0.3,0.04-0.61,0.04-0.92
		c0-2.48,0.01-4.95,0-7.43c0-0.37-0.04-0.74-0.09-1.11c-0.06-0.45-0.34-0.8-0.56-1.18c-0.05-0.08-0.1-0.16-0.17-0.26h3.48
		c0,0.26,0,0.52,0,0.78c0,0.05,0.01,0.11,0.02,0.16c0.05,0.18,0.12,0.21,0.26,0.08c0.25-0.24,0.48-0.5,0.72-0.74
		c0.63-0.63,1.37-0.69,2.17-0.38c0.14,0.05,0.19,0.13,0.19,0.28c-0.01,0.77,0,1.53,0,2.3c0,0.05-0.01,0.1-0.01,0.18
		c-0.2-0.11-0.37-0.23-0.56-0.32c-0.44-0.22-0.9-0.4-1.39-0.19c-0.62,0.26-0.98,0.76-1.14,1.38c-0.1,0.41-0.11,0.84-0.12,1.27
		c-0.03,1.64-0.1,3.28-0.02,4.91c0.04,0.93,0.32,1.85,0.96,2.59c0.03,0.04,0.06,0.07,0.09,0.11
		C93.77,106.68,93.77,106.68,93.77,106.69"/>
	<path d="M112.32,106.58h-4.37c-0.01-0.03-0.02-0.05-0.01-0.05c0.54-0.72,0.67-1.57,0.68-2.44c0.02-3.54,0.03-7.09,0.03-10.63
		c0-0.55-0.25-1.01-0.54-1.45c-0.06-0.09-0.12-0.17-0.2-0.28h3.56c0,0.09,0,0.18,0,0.26c-0.01,4-0.03,8.01-0.02,12.01
		C111.45,104.93,111.64,105.83,112.32,106.58"/>
	<path d="M25.56,99.33c0.09-0.55,0.17-1.08,0.25-1.62c0.18-1.16,0.36-2.31,0.53-3.47c0.11-0.74,0.23-1.48,0.34-2.22
		c0.04-0.28,0.04-0.28,0.32-0.28c0.68,0.01,1.36,0.02,2.04,0.02c0.17,0,0.23,0.04,0.23,0.22c-0.02,3.47-0.03,6.94-0.04,10.41
		c0,0.16-0.05,0.21-0.21,0.2c-0.41-0.01-0.83-0.01-1.24,0c-0.19,0.01-0.23-0.06-0.23-0.24c0.01-2.39,0-4.78-0.02-7.18
		c-0.11,0.57-0.21,1.14-0.32,1.7c-0.35,1.86-0.7,3.72-1.04,5.58c-0.02,0.11-0.07,0.15-0.19,0.15c-0.32-0.01-0.64-0.01-0.96,0
		c-0.14,0-0.18-0.05-0.2-0.17c-0.2-1.12-0.41-2.25-0.62-3.37c-0.24-1.3-0.48-2.6-0.75-3.9c0,0.04,0,0.08,0,0.11
		c0.02,2.04,0.03,4.08,0.05,6.11c0,0.33,0.01,0.67,0.02,1c0,0.1,0,0.19-0.14,0.19c-0.5,0-1,0-1.5-0.01c-0.02,0-0.05-0.02-0.09-0.03
		c0-0.07,0-0.14,0-0.22c0-3.44,0-6.87,0-10.31c0-0.26,0-0.26,0.26-0.26c0.65,0,1.31,0.01,1.96,0c0.17,0,0.24,0.05,0.27,0.22
		c0.2,1.21,0.41,2.42,0.61,3.63c0.2,1.22,0.4,2.44,0.6,3.66C25.52,99.3,25.53,99.31,25.56,99.33"/>
	<path d="M17.31,98.15v-1.37c0.07-0.01,0.13-0.01,0.18-0.01c0.77,0,1.54,0,2.32-0.01c0.17,0,0.22,0.05,0.22,0.22
		c0,1.87,0.01,3.74,0.02,5.61c0,0.15-0.04,0.2-0.19,0.2c-0.45-0.01-0.91-0.01-1.36,0c-0.15,0-0.2-0.05-0.19-0.2
		c0.01-0.18,0-0.36,0-0.59c-0.29,0.55-0.74,0.77-1.27,0.87c-0.51,0.1-1.02,0.1-1.49-0.17c-0.67-0.38-0.98-1-1.11-1.72
		c-0.06-0.31-0.08-0.63-0.09-0.95c-0.01-1.95-0.01-3.9,0-5.85c0.01-1.5,1.1-2.59,2.61-2.6c0.48,0,0.96,0.04,1.42,0.19
		c0.92,0.29,1.44,0.94,1.58,1.87c0.08,0.5,0.05,1.02,0.07,1.53c0.01,0.13-0.06,0.16-0.17,0.16c-0.49-0.01-0.99-0.01-1.48-0.01
		c-0.13,0-0.15-0.06-0.15-0.17c0-0.32-0.01-0.64-0.02-0.96c-0.03-0.51-0.41-0.89-0.92-0.96c-0.63-0.09-1.18,0.37-1.17,1.03
		c0.02,1.96-0.01,3.92-0.01,5.87c0,0.18,0.03,0.38,0.09,0.55c0.14,0.39,0.49,0.59,0.9,0.54c0.16-0.02,0.33-0.04,0.49-0.09
		c0.46-0.14,0.7-0.45,0.69-0.93c0-0.62-0.03-1.24-0.04-1.86c0-0.15-0.07-0.2-0.22-0.2C17.77,98.16,17.55,98.15,17.31,98.15"/>
	<path d="M29.26,104.31v2.5H14.19c0-0.08-0.01-0.16-0.01-0.23c0-0.68,0.01-1.36,0-2.04c0-0.19,0.05-0.25,0.24-0.25
		c1.3,0.01,2.61,0,3.91,0c3.54,0,7.08,0,10.62,0C29.05,104.29,29.15,104.3,29.26,104.31"/>
</g>
</svg>
