<?xml version="1.0" encoding="utf-8"?>
<!-- Generator: Adobe Illustrator 28.0.0, SVG Export Plug-In . SVG Version: 6.00 Build 0)  -->
<svg version="1.1" id="Layer_1" xmlns="http://www.w3.org/2000/svg" xmlns:xlink="http://www.w3.org/1999/xlink" x="0px" y="0px"
	 viewBox="0 0 198.43 198.43" style="enable-background:new 0 0 198.43 198.43;" xml:space="preserve">
<style type="text/css">
	.st0{fill-rule:evenodd;clip-rule:evenodd;fill:#1B1918;}
</style>
<g>
	<path class="st0" d="M99.31,93.1l5.1-3.33c0,0-0.26-1.63-0.28-2.29c-0.02-0.66,0.34-2.15,0.34-2.15l-6.8,4.44L99.31,93.1z
		 M101.08,93.35l3.85,0.39l0.04-0.54c0,0-0.14-0.79-0.12-1.22c0.02-0.43,0.23-0.87,0.23-0.87l0.04-0.5
		C105.13,90.62,101.06,93.35,101.08,93.35 M100.03,94.17c0,0,0.08,1.18,0.04,1.59c-0.04,0.41-0.32,1.65-0.32,1.65l4.44-2.67
		L100.03,94.17z M93.34,114.67c0.67-0.21,2.75-1.28,4.76-3.11c1.17-1.06,2.43-2.5,3.69-3.96c1.18-1.36,2.36-2.72,3.49-3.8
		c0.87-0.82,1.79-1.61,2.64-2.29l2.68-2.04l-1.35-2.75l-1.57,1.95c0,0-0.35,0.44-0.59,0.44c-0.23,0-0.58-0.54-0.58-0.54
		s-0.49-1.03-0.72-1.71c-0.23-0.68-0.55-1.54-0.55-1.54l-4.89,2.97l-0.87,0.48c0,0-0.83,1.38-1.18,2.57
		c-0.34,1.19-1.23,3.95-1.74,5.68c-0.52,1.72-0.69,2.16-1.22,2.96c-0.54,0.8-2.24,2.54-2.42,3.15c-0.13,0.45-0.01,0.78,0.21,1.14
		L93.34,114.67z M93.42,115.57c0.01,0,2.7-1.16,4.89-3.14c1.17-1.05,2.43-2.5,3.69-3.96c1.18-1.36,2.36-2.72,3.49-3.8
		c0.87-0.82,1.79-1.61,2.64-2.29c1.45-1.17,2.66-2.03,2.92-2.2l0.69,1.06c-0.26,0.17-1.42,0.99-2.82,2.13
		c-0.82,0.66-1.72,1.43-2.56,2.23c-1.09,1.03-2.24,2.37-3.4,3.7c-1.3,1.5-2.59,2.99-3.8,4.08c-2.34,2.11-5.23,3.35-5.24,3.35
		L93.42,115.57z"/>
	<path class="st0" d="M108.44,85.55c0,0,0.6-0.03,0.99-0.33c0.38-0.31,0.52-0.79,0.52-0.79s0.41,0.19,0.71,0.06
		c0.29-0.13,0.72-0.91,1.22-0.88c0.5,0.03,0.7,0.31,1.31,0.3c0.6-0.01,0.75-0.23,0.75-0.23s0.34,0.52-0.42,1.09
		c-0.16,0.12-0.34,0.2-0.52,0.24c-0.23,0.05-0.47,0.03-0.67-0.03c-0.14,0.33-0.29,0.57-0.71,0.69c-0.41,0.13-0.61,0.03-1,0.22
		c-0.39,0.18-0.32,0.28-0.61,0.4c-0.29,0.12-1.09,0.18-1.52-0.02C108.07,86.04,108.43,85.66,108.44,85.55 M106.75,88.14
		c0,0.01-0.05,0.55,0.2,0.81c0.25,0.26,0.6,0.51,0.6,0.51s0.07,0.55,0.27,0.78c0.21,0.23,0.67,0.29,0.67,0.29s0-0.35-0.04-0.67
		c-0.04-0.32-0.14-0.38-0.18-0.52c-0.04-0.13,0.03-0.68,0.03-0.68s-0.2-0.2-0.41-0.24c-0.21-0.05-0.5-0.01-0.63-0.12
		c-0.13-0.11-0.25-0.24-0.25-0.24s-0.05-0.09-0.15-0.05C106.76,88.04,106.75,88.13,106.75,88.14 M128.27,81.78
		c0.03,0-0.7,0.28-1.82,0.54c-0.93,0.21-2.14,0.4-3.42,0.4c-2.83-0.01-8.08-0.64-10.48-0.65c-2.41-0.01-4.86,0.67-5.99,1.79
		c-1.13,1.12-1.68,2.87-1.23,4.63c0.45,1.76,0.79,1.99,0.76,2.52c-0.04,0.53-0.23,1.78-0.17,2.16c0.06,0.38,0.46,3.04,0.86,3.68
		c0.4,0.64,1.05,0.28,1.26-0.1c0.21-0.38,0.62-1.47,0.75-1.84c0.13-0.36,0.26-1.11,0.58-1.13c0.32-0.02,0.36,0.28,0.51,0.51
		c0.15,0.24,0.13,0.41,0.34,0.36c0.21-0.04,0.47-0.98,0.47-0.98s-0.04-1.24,0.37-1.34c0.41-0.11,0.58,0.47,0.64,0.62
		c0.06,0.15,0.38,0.13,0.62-0.79c0.24-0.92,0.1-1.56,0.08-1.84c-0.02-0.28-0.13-1.02,0.1-1.13c0.23-0.11,1.51,0.43,2,0.35
		c0.49-0.08,0.98-0.17,1.42-0.47c0.45-0.29,0.45-0.57,0.45-0.57s-0.41,0.02-0.42-0.27c-0.01-0.29,0.4-0.21,0.99-0.25
		c0.59-0.04,1.41-0.73,1.54-1.06c0.13-0.33-0.55-0.08-1-0.32c-0.46-0.24-0.44-0.55-0.14-0.58c0.31-0.03,3.33,0.34,4.54,0.29
		c1.22-0.05,4.14-0.41,5.2-1.4c1.06-0.99,1.35-2.01,1.51-2.46c0.15-0.45,0.09-0.77,0.09-0.77L128.27,81.78z"/>
	<path class="st0" d="M84.24,106.34h-1.61l2.96-13.57h1.42c1.19,0,1.14,1.11,1.02,1.67l-2.3,10.51
		C85.57,105.7,85.24,106.34,84.24,106.34 M74.74,108.85l4.06-18.69h9c0,0,3.9-0.36,5.7,2.36c1.8,2.72,1.03,6.52,0.26,8.99
		c-0.77,2.47-2.31,4.89-4.47,6.11c-2.16,1.23-5.03,1.23-5.03,1.23H74.74z"/>
	<polygon class="st0" points="114.66,108.85 116.6,100.32 114.02,90.17 121.63,90.17 123.29,96.35 128.01,90.17 131.94,90.17 
		124.54,100.35 122.51,108.85 	"/>
	<path class="st0" d="M174.25,99.92h-1.61l1.66-7.58h1.42c1.19,0,1.14,1.11,1.02,1.67l-1,4.51
		C175.57,99.28,175.24,99.92,174.25,99.92 M163.51,108.85l3.59-18.69h13.22c0,0,4.68,0.29,3.83,6.18c-0.8,3.87-3.58,5.07-3.58,5.07
		l1.91,7.43h-8.14l-1.34-5.91h-0.6l-1.09,5.91H163.51z"/>
	<path class="st0" d="M33.06,99.21l-2.34,9.64H19.28c0,0-1.97,0.04-3.62-1.93c-1.65-1.97-1.86-5.53-0.96-8.57
		c0.9-3.03,2.98-5.48,4.84-6.65c1.86-1.17,5.22-1.52,6.28-1.54c1.62-0.04,3.45,0.07,4.77,1.44l-1.41,2.48
		c-0.78-0.75-2.12-1.31-3.2-1.32c-1.32,0-2.24,0.66-2.52,1.91l-2.19,10c-0.12,0.56-0.17,1.67,1.02,1.67h1.67l1.55-7.12L33.06,99.21z
		"/>
	<path class="st0" d="M33.06,98.99l-2.34,9.86H19.28c0,0-1.97,0.04-3.62-1.97c-1.65-2.01-1.86-5.66-0.96-8.76
		c0.9-3.1,2.98-5.61,4.84-6.8c1.86-1.2,5.22-1.55,6.28-1.58c1.62-0.04,3.45,0.07,4.77,1.47l-1.41,2.54
		c-0.78-0.76-2.12-1.34-3.2-1.35c-1.32,0-2.24,0.67-2.52,1.95l-2.19,10.22c-0.12,0.57-0.17,1.7,1.02,1.7h1.67l1.55-7.28L33.06,98.99
		z"/>
	<path class="st0" d="M46.08,92.49c0.85,0,1.39,0.69,1.21,1.54l-2.43,11.36c-0.18,0.85-1.02,1.54-1.87,1.54
		c-0.85,0-1.39-0.69-1.21-1.54l2.43-11.36C44.39,93.18,45.23,92.49,46.08,92.49 M45.84,89.74c5.12,0,8.7,4.39,7.98,9.78
		c-0.72,5.38-5.48,9.77-10.6,9.77c-5.12,0-8.7-4.39-7.98-9.77C35.97,94.13,40.73,89.74,45.84,89.74"/>
	<path class="st0" d="M66.54,92.49c0.85,0,1.39,0.69,1.21,1.54l-2.43,11.36c-0.18,0.85-1.02,1.54-1.87,1.54
		c-0.85,0-1.39-0.69-1.21-1.54l2.43-11.36C64.85,93.18,65.69,92.49,66.54,92.49 M66.31,89.74c5.11,0,8.7,4.39,7.97,9.78
		c-0.72,5.38-5.48,9.77-10.6,9.77c-5.12,0-8.7-4.39-7.98-9.77C56.43,94.13,61.19,89.74,66.31,89.74"/>
	<polygon class="st0" points="129.51,108.85 133.08,90.17 146.5,90.17 145.78,93.3 139.92,93.3 139.1,97.5 143.08,97.5 
		142.61,100.54 138.49,100.54 137.59,105.11 143.39,105.11 142.72,108.85 	"/>
	<path class="st0" d="M154.13,102.23l-0.71-6.27l-3.17,6.27H154.13z M143.61,108.85l9.67-18.69h7.18l1.81,18.69h-7.38l-0.41-3.62
		h-5.73l-1.83,3.62H143.61z"/>
</g>
</svg>
