<?xml version="1.0" encoding="utf-8"?>
<!-- Generator: Adobe Illustrator 28.0.0, SVG Export Plug-In . SVG Version: 6.00 Build 0)  -->
<svg version="1.1" id="Layer_1" xmlns="http://www.w3.org/2000/svg" xmlns:xlink="http://www.w3.org/1999/xlink" x="0px" y="0px"
	 viewBox="0 0 198.43 198.43" style="enable-background:new 0 0 198.43 198.43;" xml:space="preserve">
<style type="text/css">
	.st0{fill:#1283C6;}
	.st1{clip-path:url(#SVGID_00000020388035392548466910000011351352243001893530_);fill:#FFFFFF;}
</style>
<g>
	<rect x="24.26" y="72.43" class="st0" width="149.9" height="53.56"/>
	<g>
		<defs>
			<rect id="SVGID_1_" x="24.26" y="72.43" width="149.9" height="53.56"/>
		</defs>
		<clipPath id="SVGID_00000096752538231979570480000012226433583915706021_">
			<use xlink:href="#SVGID_1_"  style="overflow:visible;"/>
		</clipPath>
		<path style="clip-path:url(#SVGID_00000096752538231979570480000012226433583915706021_);fill:#FFFFFF;" d="M52.21,98.31
			c2.58,0.19,2.79,0.4,2.79,2.35v2.19c0,1.09-0.35,1.39-0.91,1.71c-0.54,0.27-1.37,0.45-2.28,0.45c-5.21,0-7.41-4.21-7.41-8.45
			c0-4.88,2.66-7.68,6.76-7.68c0.78,0,1.88,0.13,2.5,0.35c1.69,0.56,2.47,1.52,3.11,3.79l0.81-0.16c-0.21-1.68-0.35-3.31-0.4-4.29
			c-0.83-0.13-2.84-0.67-5.58-0.67c-5.37,0-9.98,3.36-9.98,8.99c0,5.36,3.7,9.12,9.79,9.12c2.26,0,4.43-0.59,6.09-0.96
			c-0.13-0.72-0.16-1.6-0.16-2.53v-2.24c0-1.57,0.11-1.73,1.77-1.95v-0.77h-6.89V98.31z"/>
		<path style="clip-path:url(#SVGID_00000096752538231979570480000012226433583915706021_);fill:#FFFFFF;" d="M97.29,102.29v-4.16
			l1.85,0.48c0.16,0.03,0.43,0.05,0.73,0.05c2.55,0,5.9-1.58,5.9-5.47c0-1.76-0.73-3.01-1.77-3.79c-1.1-0.8-2.63-1.15-4.53-1.15
			h-6.92V89c2.12,0.21,2.41,0.27,2.41,2.64v10.59c0,2.21-0.11,2.37-2.41,2.61v0.75h7.41v-0.75
			C97.48,104.58,97.29,104.53,97.29,102.29 M97.29,90.71c0-0.72,0.08-1.04,0.29-1.23c0.16-0.19,0.73-0.32,1.5-0.32
			c2.25,0,4.19,1.17,4.19,4.11c0,3.36-2.23,4.27-4.03,4.27c-0.91,0-1.63-0.19-1.96-0.35V90.71z"/>
		<path style="clip-path:url(#SVGID_00000096752538231979570480000012226433583915706021_);fill:#FFFFFF;" d="M113.74,104.85
			c-2.07-0.16-2.2-0.29-2.2-2.05v-5.01c0.59-1.36,1.58-2.19,2.15-2.19c0.49,0,0.81,0.27,1.21,0.67c0.21,0.19,0.43,0.21,0.7,0.05
			c0.48-0.27,0.91-0.85,0.91-1.47c0-0.67-0.56-1.28-1.56-1.28c-1.34,0-2.47,1.47-3.41,2.85v-2.93c-1.26,0.56-2.47,0.88-3.78,1.09
			v0.67c1.56,0.19,1.66,0.27,1.66,2.03v5.55c0,1.73-0.16,1.87-1.85,2.03v0.75h6.17V104.85z"/>
		<path style="clip-path:url(#SVGID_00000096752538231979570480000012226433583915706021_);fill:#FFFFFF;" d="M120.52,90.9
			c0.78,0,1.39-0.67,1.39-1.41c0-0.85-0.61-1.47-1.37-1.47c-0.78,0-1.45,0.61-1.45,1.47C119.1,90.23,119.77,90.9,120.52,90.9"/>
		<path style="clip-path:url(#SVGID_00000096752538231979570480000012226433583915706021_);fill:#FFFFFF;" d="M123.66,104.85
			c-1.75-0.16-1.93-0.29-1.93-2.11v-5.87v-3.36c-1.15,0.48-2.42,0.83-3.81,1.07v0.64c1.61,0.27,1.69,0.37,1.69,2.03v5.5
			c0,1.81-0.19,1.95-1.88,2.11v0.75h5.93V104.85z"/>
		<path style="clip-path:url(#SVGID_00000096752538231979570480000012226433583915706021_);fill:#FFFFFF;" d="M136.32,102.87V97.7
			c0-0.51-0.05-0.83-0.08-1.15c1.02-0.83,1.96-1.39,2.98-1.39c1.66,0,2.31,1.2,2.31,3.09v4.45c0,1.87-0.19,1.97-1.77,2.13v0.75h5.58
			v-0.75c-1.53-0.16-1.69-0.24-1.69-2.03v-5.15c0-2.62-1.29-4.11-3.38-4.11c-0.78,0-1.53,0.32-2.12,0.69
			c-0.67,0.45-1.37,0.91-2.12,1.49c-0.54-1.39-1.64-2.19-2.92-2.19c-0.86,0-1.45,0.27-2.12,0.69c-0.86,0.51-1.42,0.96-1.99,1.39
			v-2.16c-1.21,0.53-2.47,0.88-3.73,1.07v0.67c1.5,0.27,1.61,0.37,1.61,2.08v5.52c0,1.76-0.16,1.87-1.93,2.03v0.75h5.77v-0.75
			c-1.53-0.16-1.72-0.27-1.72-2.03v-6.27c0.83-0.67,1.88-1.39,2.95-1.39c1.64,0,2.25,1.09,2.25,3.07v4.59
			c0,1.76-0.24,1.87-1.91,2.03v0.75h5.74v-0.75C136.56,104.69,136.32,104.55,136.32,102.87"/>
		<path style="clip-path:url(#SVGID_00000096752538231979570480000012226433583915706021_);fill:#FFFFFF;" d="M153.13,104.07
			c-1.91,0-4.11-1.47-4.02-5.04c3.19-0.11,6.63-0.35,7.16-0.45c0.43-0.11,0.51-0.35,0.54-0.88c0-2.13-1.77-4.13-4.11-4.13
			c-1.39,0-2.87,0.69-4,1.95c-1.1,1.17-1.75,2.85-1.75,4.67c0,3.07,1.99,5.74,5.26,5.74c0.86,0,2.74-0.45,4.45-2.59l-0.43-0.61
			C155.25,103.62,154.23,104.07,153.13,104.07 M152.06,94.58c1.5,0,2.44,1.28,2.42,2.7c0,0.4-0.16,0.53-0.65,0.53
			c-1.58,0.08-3.08,0.08-4.59,0.08C149.62,95.73,150.83,94.58,152.06,94.58"/>
		<polygon style="clip-path:url(#SVGID_00000096752538231979570480000012226433583915706021_);fill:#FFFFFF;" points="94.29,110.71 
			94.48,111.03 94.48,110.71 		"/>
		<polygon style="clip-path:url(#SVGID_00000096752538231979570480000012226433583915706021_);fill:#FFFFFF;" points="98.71,110.71 
			98.71,111.01 98.89,110.71 		"/>
		<polygon style="clip-path:url(#SVGID_00000096752538231979570480000012226433583915706021_);fill:#FFFFFF;" points="96.78,113.61 
			96.61,113.32 96.44,113.61 		"/>
		<polygon style="clip-path:url(#SVGID_00000096752538231979570480000012226433583915706021_);fill:#FFFFFF;" points="98.82,109.56 
			96.61,113.32 96.78,113.61 96.44,113.61 96.61,113.32 94.38,109.56 93.75,109.56 93.75,114.91 94.48,114.91 94.48,111.03 
			94.29,110.71 94.48,110.71 94.48,111.03 96.42,114.26 96.77,114.26 98.71,111.01 98.71,110.71 98.88,110.71 98.71,111.01 
			98.72,114.91 99.45,114.91 99.44,109.56 		"/>
		<path style="clip-path:url(#SVGID_00000096752538231979570480000012226433583915706021_);fill:#FFFFFF;" d="M104.04,113.82v0.49
			c0.04-0.06,0.08-0.13,0.11-0.19L104.04,113.82z"/>
		<path style="clip-path:url(#SVGID_00000096752538231979570480000012226433583915706021_);fill:#FFFFFF;" d="M104,112.95
			c0,0.29-0.05,0.53-0.15,0.73c-0.1,0.2-0.25,0.35-0.44,0.46c-0.19,0.1-0.41,0.16-0.67,0.16c-0.35,0-0.62-0.1-0.81-0.3
			c-0.19-0.2-0.29-0.5-0.29-0.9v-2.25h-0.74v2.33c0,0.4,0.07,0.73,0.22,0.99c0.15,0.26,0.35,0.46,0.61,0.59
			c0.26,0.13,0.57,0.19,0.91,0.19c0.33,0,0.63-0.07,0.9-0.22c0.2-0.11,0.36-0.25,0.48-0.43v-0.49l0.11,0.29
			c-0.03,0.07-0.07,0.13-0.11,0.19v0.61h0.7v-4.06H104V112.95z"/>
		<path style="clip-path:url(#SVGID_00000096752538231979570480000012226433583915706021_);fill:#FFFFFF;" d="M106.48,112.8
			c0-0.07,0-0.13,0.01-0.2h-0.16v0.53h0.16c-0.01-0.07-0.01-0.14-0.01-0.21V112.8z"/>
		<path style="clip-path:url(#SVGID_00000096752538231979570480000012226433583915706021_);fill:#FFFFFF;" d="M108.84,111.08
			c-0.3-0.17-0.65-0.26-1.04-0.26c-0.39,0-0.74,0.09-1.04,0.26c-0.31,0.18-0.55,0.42-0.73,0.73c-0.18,0.31-0.26,0.67-0.26,1.07
			c0,0.4,0.09,0.76,0.27,1.07c0.18,0.31,0.44,0.56,0.77,0.73c0.33,0.18,0.71,0.27,1.14,0.27c0.34,0,0.64-0.06,0.91-0.17
			c0.27-0.11,0.5-0.28,0.69-0.49l-0.41-0.47c-0.15,0.16-0.32,0.29-0.52,0.37c-0.2,0.08-0.41,0.12-0.65,0.12
			c-0.29,0-0.55-0.06-0.77-0.18c-0.22-0.12-0.4-0.28-0.52-0.49c-0.09-0.16-0.15-0.33-0.17-0.52h-0.16v-0.53h0.16
			c0.02-0.19,0.07-0.36,0.16-0.51c0.11-0.21,0.27-0.37,0.47-0.48c0.2-0.11,0.43-0.17,0.68-0.17c0.26,0,0.49,0.06,0.69,0.17
			c0.2,0.11,0.35,0.27,0.46,0.48c0.09,0.15,0.14,0.33,0.15,0.51h0.31l-0.3,0.18c0-0.06,0-0.12-0.01-0.18h-2.61
			c-0.01,0.06-0.01,0.13-0.01,0.2v0.12c0,0.07,0,0.14,0.01,0.21h3.29c0.01-0.04,0.01-0.07,0.01-0.11c0-0.04,0-0.08,0-0.11
			c0-0.42-0.09-0.78-0.26-1.1C109.37,111.5,109.14,111.25,108.84,111.08"/>
		<polygon style="clip-path:url(#SVGID_00000096752538231979570480000012226433583915706021_);fill:#FFFFFF;" points="
			109.19,109.27 108.25,109.27 107.21,110.27 107.9,110.27 		"/>
		<path style="clip-path:url(#SVGID_00000096752538231979570480000012226433583915706021_);fill:#FFFFFF;" d="M109.4,112.6h-0.31
			c0.01,0.06,0.01,0.12,0.01,0.18L109.4,112.6z"/>
		<polygon style="clip-path:url(#SVGID_00000096752538231979570480000012226433583915706021_);fill:#FFFFFF;" points="
			112.37,114.53 112.19,114.11 112.01,114.53 		"/>
		<polygon style="clip-path:url(#SVGID_00000096752538231979570480000012226433583915706021_);fill:#FFFFFF;" points="
			112.19,114.11 112.37,114.53 112.01,114.53 112.19,114.11 110.8,110.86 110.03,110.86 111.81,114.91 112.56,114.91 114.33,110.86 
			113.61,110.86 		"/>
		<path style="clip-path:url(#SVGID_00000096752538231979570480000012226433583915706021_);fill:#FFFFFF;" d="M117.61,111.08
			c-0.3-0.17-0.65-0.26-1.04-0.26c-0.39,0-0.74,0.09-1.04,0.26c-0.31,0.18-0.55,0.42-0.73,0.73c-0.18,0.31-0.26,0.67-0.26,1.07
			c0,0.4,0.09,0.76,0.27,1.07c0.18,0.31,0.44,0.56,0.77,0.73c0.33,0.18,0.71,0.27,1.14,0.27c0.34,0,0.64-0.06,0.91-0.17
			c0.27-0.11,0.5-0.28,0.69-0.49l-0.41-0.47c-0.15,0.16-0.32,0.29-0.52,0.37c-0.2,0.08-0.41,0.12-0.65,0.12
			c-0.29,0-0.55-0.06-0.77-0.18c-0.22-0.12-0.4-0.28-0.52-0.49c-0.09-0.16-0.15-0.33-0.17-0.52h-0.16v-0.53h0.16
			c0.02-0.19,0.07-0.36,0.16-0.51c0.11-0.21,0.27-0.37,0.47-0.48c0.2-0.11,0.43-0.17,0.68-0.17c0.26,0,0.49,0.06,0.69,0.17
			c0.2,0.11,0.35,0.27,0.46,0.48c0.09,0.15,0.14,0.33,0.15,0.51h0.31l-0.3,0.18c0-0.06,0-0.12-0.01-0.18h-2.61
			c-0.01,0.06-0.01,0.13-0.01,0.2v0.12c0,0.07,0,0.14,0.01,0.21h3.29c0.01-0.04,0.01-0.07,0.01-0.11c0-0.04,0-0.08,0-0.11
			c0-0.42-0.09-0.78-0.26-1.1C118.15,111.5,117.91,111.25,117.61,111.08"/>
		<path style="clip-path:url(#SVGID_00000096752538231979570480000012226433583915706021_);fill:#FFFFFF;" d="M115.25,112.8
			c0-0.07,0-0.13,0.01-0.2h-0.16v0.53h0.16c-0.01-0.07-0.01-0.14-0.01-0.21V112.8z"/>
		<path style="clip-path:url(#SVGID_00000096752538231979570480000012226433583915706021_);fill:#FFFFFF;" d="M118.18,112.6h-0.31
			c0.01,0.06,0.01,0.12,0.01,0.18L118.18,112.6z"/>
		
			<rect x="119.7" y="110.86" style="clip-path:url(#SVGID_00000096752538231979570480000012226433583915706021_);fill:#FFFFFF;" width="0.73" height="0.6"/>
		<path style="clip-path:url(#SVGID_00000096752538231979570480000012226433583915706021_);fill:#FFFFFF;" d="M121.07,114.34
			c-0.2,0-0.36-0.06-0.47-0.18c-0.11-0.12-0.16-0.29-0.16-0.51v-2.2h-0.74v2.23c0,0.41,0.11,0.72,0.34,0.94
			c0.22,0.22,0.54,0.33,0.95,0.33c0.17,0,0.33-0.02,0.49-0.07c0.16-0.05,0.29-0.12,0.4-0.21l-0.23-0.53
			C121.49,114.28,121.3,114.34,121.07,114.34"/>
		
			<rect x="119.7" y="109.97" style="clip-path:url(#SVGID_00000096752538231979570480000012226433583915706021_);fill:#FFFFFF;" width="0.73" height="0.89"/>
		
			<rect x="120.43" y="110.86" style="clip-path:url(#SVGID_00000096752538231979570480000012226433583915706021_);fill:#FFFFFF;" width="1.16" height="0.6"/>
		
			<rect x="119.01" y="110.86" style="clip-path:url(#SVGID_00000096752538231979570480000012226433583915706021_);fill:#FFFFFF;" width="0.69" height="0.6"/>
		<path style="clip-path:url(#SVGID_00000096752538231979570480000012226433583915706021_);fill:#FFFFFF;" d="M125.32,111.08
			c-0.3-0.17-0.65-0.26-1.04-0.26c-0.39,0-0.74,0.09-1.04,0.26c-0.31,0.18-0.55,0.42-0.73,0.73c-0.18,0.31-0.26,0.67-0.26,1.07
			c0,0.4,0.09,0.76,0.27,1.07c0.18,0.31,0.44,0.56,0.77,0.73c0.33,0.18,0.71,0.27,1.14,0.27c0.34,0,0.64-0.06,0.91-0.17
			c0.27-0.11,0.5-0.28,0.69-0.49l-0.41-0.47c-0.15,0.16-0.32,0.29-0.52,0.37c-0.2,0.08-0.41,0.12-0.65,0.12
			c-0.29,0-0.55-0.06-0.77-0.18c-0.22-0.12-0.4-0.28-0.52-0.49c-0.09-0.16-0.15-0.33-0.17-0.52h-0.16v-0.53h0.16
			c0.02-0.19,0.07-0.36,0.16-0.51c0.11-0.21,0.27-0.37,0.47-0.48c0.2-0.11,0.43-0.17,0.68-0.17c0.26,0,0.49,0.06,0.69,0.17
			c0.2,0.11,0.35,0.27,0.46,0.48c0.09,0.15,0.14,0.33,0.15,0.51h0.31l-0.3,0.18c0-0.06,0-0.12-0.01-0.18h-2.61
			c-0.01,0.06-0.01,0.13-0.01,0.2v0.12c0,0.07,0,0.14,0.01,0.21h3.29c0.01-0.04,0.01-0.07,0.01-0.11c0-0.04,0-0.08,0-0.11
			c0-0.42-0.09-0.78-0.26-1.1C125.86,111.5,125.63,111.25,125.32,111.08"/>
		<path style="clip-path:url(#SVGID_00000096752538231979570480000012226433583915706021_);fill:#FFFFFF;" d="M122.97,112.8
			c0-0.07,0-0.13,0.01-0.2h-0.16v0.53h0.16c-0.01-0.07-0.01-0.14-0.01-0.21V112.8z"/>
		<path style="clip-path:url(#SVGID_00000096752538231979570480000012226433583915706021_);fill:#FFFFFF;" d="M125.89,112.6h-0.31
			c0.01,0.06,0.01,0.12,0.01,0.18L125.89,112.6z"/>
		<path style="clip-path:url(#SVGID_00000096752538231979570480000012226433583915706021_);fill:#FFFFFF;" d="M132.47,112.33
			c-0.19-0.11-0.4-0.19-0.64-0.26c-0.23-0.07-0.46-0.13-0.69-0.18c-0.23-0.05-0.44-0.11-0.63-0.18c-0.19-0.07-0.35-0.16-0.47-0.27
			c-0.12-0.11-0.18-0.26-0.18-0.45c0-0.16,0.04-0.3,0.13-0.43c0.09-0.13,0.23-0.23,0.43-0.31c0.19-0.08,0.44-0.11,0.74-0.11
			c0.24,0,0.49,0.03,0.74,0.1c0.26,0.07,0.5,0.18,0.73,0.33l0.25-0.61c-0.22-0.15-0.49-0.27-0.8-0.35s-0.62-0.12-0.93-0.12
			c-0.47,0-0.86,0.07-1.16,0.21c-0.3,0.14-0.53,0.33-0.67,0.56c-0.15,0.23-0.22,0.49-0.22,0.76c0,0.29,0.06,0.52,0.18,0.7
			c0.12,0.18,0.27,0.33,0.46,0.43c0.19,0.11,0.4,0.2,0.64,0.26s0.46,0.13,0.69,0.18c0.23,0.05,0.44,0.11,0.63,0.18
			c0.19,0.07,0.35,0.16,0.47,0.27c0.12,0.11,0.18,0.26,0.18,0.44c0,0.16-0.05,0.3-0.14,0.43c-0.09,0.12-0.23,0.22-0.43,0.29
			c-0.19,0.07-0.45,0.11-0.76,0.11c-0.34,0-0.67-0.06-0.99-0.18c-0.32-0.12-0.58-0.27-0.78-0.44l-0.28,0.6
			c0.21,0.2,0.51,0.36,0.88,0.49c0.37,0.13,0.76,0.19,1.17,0.19c0.47,0,0.86-0.07,1.17-0.21c0.31-0.14,0.54-0.33,0.69-0.56
			c0.15-0.23,0.22-0.48,0.22-0.75c0-0.28-0.06-0.51-0.18-0.69C132.82,112.59,132.66,112.44,132.47,112.33"/>
		<path style="clip-path:url(#SVGID_00000096752538231979570480000012226433583915706021_);fill:#FFFFFF;" d="M136.82,111.08
			c-0.3-0.17-0.65-0.26-1.04-0.26c-0.39,0-0.74,0.09-1.04,0.26c-0.31,0.18-0.55,0.42-0.73,0.73c-0.18,0.31-0.26,0.67-0.26,1.07
			c0,0.4,0.09,0.76,0.27,1.07c0.18,0.31,0.44,0.56,0.77,0.73c0.33,0.18,0.71,0.27,1.14,0.27c0.34,0,0.64-0.06,0.91-0.17
			c0.27-0.11,0.5-0.28,0.69-0.49l-0.41-0.47c-0.15,0.16-0.32,0.29-0.52,0.37c-0.2,0.08-0.41,0.12-0.65,0.12
			c-0.29,0-0.55-0.06-0.77-0.18c-0.22-0.12-0.4-0.28-0.52-0.49c-0.09-0.16-0.15-0.33-0.17-0.52h-0.16v-0.53h0.16
			c0.02-0.19,0.07-0.36,0.16-0.51c0.11-0.21,0.27-0.37,0.47-0.48c0.2-0.11,0.43-0.17,0.68-0.17c0.26,0,0.49,0.06,0.69,0.17
			c0.2,0.11,0.35,0.27,0.46,0.48c0.09,0.15,0.14,0.33,0.15,0.51h0.31l-0.3,0.18c0-0.06,0-0.12-0.01-0.18h-2.61
			c-0.01,0.06-0.01,0.13-0.01,0.2v0.12c0,0.07,0,0.14,0.01,0.21h3.29c0.01-0.04,0.01-0.07,0.01-0.11c0-0.04,0-0.08,0-0.11
			c0-0.42-0.09-0.78-0.26-1.1C137.36,111.5,137.12,111.25,136.82,111.08"/>
		<path style="clip-path:url(#SVGID_00000096752538231979570480000012226433583915706021_);fill:#FFFFFF;" d="M137.39,112.6h-0.31
			c0.01,0.06,0.01,0.12,0.01,0.18L137.39,112.6z"/>
		<path style="clip-path:url(#SVGID_00000096752538231979570480000012226433583915706021_);fill:#FFFFFF;" d="M134.46,112.8
			c0-0.07,0-0.13,0.01-0.2h-0.16v0.53h0.16c-0.01-0.07-0.01-0.14-0.01-0.21V112.8z"/>
		<path style="clip-path:url(#SVGID_00000096752538231979570480000012226433583915706021_);fill:#FFFFFF;" d="M142.38,112.78
			c0-0.44-0.09-0.81-0.26-1.1c-0.04-0.07-0.09-0.14-0.13-0.2v0.49l0.04,0.81l-0.08,0.8v0.53c0.06-0.07,0.12-0.15,0.17-0.24
			C142.29,113.58,142.38,113.22,142.38,112.78"/>
		<path style="clip-path:url(#SVGID_00000096752538231979570480000012226433583915706021_);fill:#FFFFFF;" d="M141.99,111.48
			c0.05,0.06,0.09,0.13,0.13,0.2c0.17,0.29,0.26,0.66,0.26,1.1c0,0.44-0.09,0.8-0.26,1.09c-0.05,0.09-0.11,0.17-0.17,0.24v0.33
			c0,0.46-0.11,0.8-0.34,1.03c-0.22,0.22-0.58,0.34-1.06,0.34c-0.3,0-0.59-0.05-0.86-0.14c-0.28-0.09-0.51-0.22-0.7-0.39l-0.35,0.57
			c0.22,0.19,0.5,0.34,0.85,0.45c0.35,0.1,0.71,0.16,1.08,0.16c0.69,0,1.21-0.17,1.57-0.51s0.54-0.86,0.54-1.58v-3.51h-0.7V111.48z"
			/>
		<path style="clip-path:url(#SVGID_00000096752538231979570480000012226433583915706021_);fill:#FFFFFF;" d="M142.03,112.78
			l-0.04-0.81v-0.49c-0.15-0.19-0.33-0.34-0.55-0.45c-0.29-0.14-0.6-0.21-0.95-0.21c-0.39,0-0.74,0.08-1.05,0.24
			c-0.31,0.16-0.55,0.39-0.74,0.69c-0.18,0.29-0.27,0.64-0.27,1.03c0,0.39,0.09,0.73,0.27,1.03c0.18,0.3,0.43,0.53,0.74,0.69
			c0.31,0.17,0.66,0.25,1.05,0.25c0.35,0,0.66-0.07,0.95-0.22c0.2-0.1,0.37-0.24,0.51-0.41v-0.53L142.03,112.78z M141.79,113.47
			c-0.12,0.2-0.28,0.35-0.49,0.47c-0.21,0.11-0.45,0.17-0.72,0.17c-0.27,0-0.51-0.06-0.72-0.17c-0.21-0.11-0.38-0.27-0.5-0.47
			c-0.12-0.2-0.18-0.43-0.18-0.69c0-0.26,0.06-0.49,0.18-0.69c0.12-0.2,0.29-0.35,0.5-0.46c0.21-0.11,0.45-0.16,0.72-0.16
			c0.27,0,0.51,0.05,0.72,0.16c0.21,0.11,0.37,0.26,0.49,0.46c0.12,0.2,0.18,0.43,0.18,0.69
			C141.97,113.04,141.91,113.27,141.79,113.47"/>
		<path style="clip-path:url(#SVGID_00000096752538231979570480000012226433583915706021_);fill:#FFFFFF;" d="M147.13,112.95
			c0,0.29-0.05,0.53-0.15,0.73c-0.1,0.2-0.25,0.35-0.44,0.46c-0.19,0.1-0.41,0.16-0.67,0.16c-0.35,0-0.62-0.1-0.81-0.3
			c-0.19-0.2-0.29-0.5-0.29-0.9v-2.25h-0.74v2.33c0,0.4,0.07,0.73,0.22,0.99c0.15,0.26,0.35,0.46,0.61,0.59
			c0.26,0.13,0.57,0.19,0.91,0.19c0.33,0,0.63-0.07,0.9-0.22c0.2-0.11,0.36-0.25,0.48-0.43v-0.49l0.11,0.29
			c-0.03,0.07-0.07,0.13-0.11,0.19v0.61h0.7v-4.06h-0.73V112.95z"/>
		<path style="clip-path:url(#SVGID_00000096752538231979570480000012226433583915706021_);fill:#FFFFFF;" d="M147.17,113.82v0.49
			c0.04-0.06,0.08-0.13,0.11-0.19L147.17,113.82z"/>
		<path style="clip-path:url(#SVGID_00000096752538231979570480000012226433583915706021_);fill:#FFFFFF;" d="M149.97,111.55v0.41
			l-0.07-0.28C149.92,111.64,149.95,111.59,149.97,111.55v-0.69h-0.7v4.06H150v-2.02c0-0.44,0.11-0.78,0.34-1.02
			c0.23-0.23,0.54-0.35,0.93-0.35h0.08c0.03,0,0.06,0,0.09,0.01v-0.71c-0.39,0-0.71,0.07-0.98,0.22
			C150.25,111.16,150.09,111.33,149.97,111.55"/>
		<path style="clip-path:url(#SVGID_00000096752538231979570480000012226433583915706021_);fill:#FFFFFF;" d="M149.97,111.96v-0.41
			c-0.02,0.05-0.05,0.09-0.07,0.14L149.97,111.96z"/>
		<path style="clip-path:url(#SVGID_00000096752538231979570480000012226433583915706021_);fill:#FFFFFF;" d="M155.14,111.08
			c-0.32-0.18-0.68-0.26-1.08-0.26c-0.41,0-0.77,0.09-1.09,0.26c-0.32,0.18-0.57,0.42-0.75,0.73s-0.28,0.67-0.28,1.07
			c0,0.4,0.09,0.75,0.28,1.07s0.43,0.56,0.75,0.74c0.32,0.18,0.68,0.27,1.09,0.27c0.4,0,0.76-0.09,1.08-0.27
			c0.32-0.18,0.57-0.42,0.75-0.73c0.18-0.31,0.27-0.67,0.27-1.07c0-0.41-0.09-0.77-0.27-1.08
			C155.71,111.5,155.46,111.26,155.14,111.08 M155.24,113.64c-0.12,0.22-0.28,0.38-0.49,0.5c-0.21,0.12-0.44,0.18-0.7,0.18
			c-0.26,0-0.49-0.06-0.7-0.18s-0.37-0.28-0.49-0.5c-0.12-0.22-0.18-0.47-0.18-0.75c0-0.29,0.06-0.54,0.18-0.75
			c0.12-0.21,0.29-0.38,0.49-0.49c0.2-0.12,0.44-0.18,0.7-0.18c0.26,0,0.49,0.06,0.7,0.18c0.21,0.12,0.37,0.28,0.49,0.49
			c0.12,0.21,0.18,0.46,0.18,0.75C155.42,113.17,155.36,113.42,155.24,113.64"/>
		<path style="clip-path:url(#SVGID_00000096752538231979570480000012226433583915706021_);fill:#FFFFFF;" d="M75.11,119.13
			c0,0,8.31-12.05,11.8-20.71C83.42,107.09,75.11,119.13,75.11,119.13"/>
		<path style="clip-path:url(#SVGID_00000096752538231979570480000012226433583915706021_);fill:#FFFFFF;" d="M75.97,110.08
			c3.97-4.23,7.69-7.57,10.21-12.79c0.91-1.89,1.65-3.86,2.18-5.89c-0.58-6.78-6.29-12.1-13.26-12.1c-7.35,0-13.31,5.93-13.31,13.24
			c0,7.3,13.28,26.56,13.31,26.6c-0.01-0.02-1.33-2.05-3.14-5.06C73.36,112.79,74.69,111.44,75.97,110.08 M65.61,99.42
			c-1.5-1.94-2.4-4.37-2.4-7.01c0-6.35,5.18-11.5,11.56-11.5c4.29,0,8.03,2.32,10.03,5.77c-2.11-2.73-5.43-4.49-9.17-4.49
			c-6.39,0-11.56,5.15-11.56,11.5C64.08,95.78,64.64,97.74,65.61,99.42 M68.85,91.95c0-3.44,2.8-6.22,6.26-6.22s6.26,2.79,6.26,6.22
			c0,3.44-2.8,6.22-6.26,6.22S68.85,95.38,68.85,91.95"/>
		<polyline style="clip-path:url(#SVGID_00000096752538231979570480000012226433583915706021_);fill:#FFFFFF;" points="
			75.11,119.13 75.11,119.13 75.11,119.13 75.11,119.13 		"/>
		<path style="clip-path:url(#SVGID_00000096752538231979570480000012226433583915706021_);fill:#FFFFFF;" d="M88.4,91.95
			c-0.01-0.19-0.02-0.37-0.04-0.55c-0.53,2.03-1.27,4.01-2.18,5.9c-2.52,5.22-6.24,8.56-10.21,12.79c-1.28,1.36-2.61,2.71-4,3.99
			c1.8,3.01,3.13,5.04,3.14,5.06c0,0,0,0,0,0c0,0,8.31-12.05,11.8-20.71c0.13-0.32,0.25-0.64,0.37-0.95
			c0.07-0.18,0.13-0.35,0.19-0.52c0.07-0.19,0.13-0.37,0.19-0.55c0.04-0.12,0.08-0.24,0.12-0.37c0.05-0.17,0.1-0.33,0.15-0.49
			c0.09-0.32,0.17-0.64,0.24-0.94c0.13-0.57,0.21-1.1,0.25-1.59c0.01-0.16,0.02-0.32,0.02-0.47C88.42,92.33,88.41,92.14,88.4,91.95"
			/>
		<path style="clip-path:url(#SVGID_00000096752538231979570480000012226433583915706021_);fill:#FFFFFF;" d="M88.36,91.39
			C88.36,91.39,88.36,91.39,88.36,91.39c0.02,0.18,0.03,0.37,0.04,0.55C88.39,91.76,88.38,91.57,88.36,91.39"/>
		<path style="clip-path:url(#SVGID_00000096752538231979570480000012226433583915706021_);fill:#FFFFFF;" d="M88.42,92.53
			c0-0.2-0.01-0.39-0.01-0.58C88.41,92.14,88.42,92.33,88.42,92.53"/>
		<path style="clip-path:url(#SVGID_00000096752538231979570480000012226433583915706021_);fill:#FFFFFF;" d="M88.42,92.53
			L88.42,92.53c0,0.15-0.01,0.31-0.02,0.47C88.41,92.84,88.42,92.68,88.42,92.53"/>
	</g>
</g>
</svg>
