<?xml version="1.0" encoding="utf-8"?>
<!-- Generator: Adobe Illustrator 28.0.0, SVG Export Plug-In . SVG Version: 6.00 Build 0)  -->
<svg version="1.1" id="Layer_1" xmlns="http://www.w3.org/2000/svg" xmlns:xlink="http://www.w3.org/1999/xlink" x="0px" y="0px"
	 viewBox="0 0 198.43 198.43" style="enable-background:new 0 0 198.43 198.43;" xml:space="preserve">
<style type="text/css">
	.st0{fill-rule:evenodd;clip-rule:evenodd;fill:#8FC743;}
	.st1{fill-rule:evenodd;clip-rule:evenodd;fill:#E2E54A;}
	.st2{fill-rule:evenodd;clip-rule:evenodd;fill:#2EB6D8;}
	.st3{fill-rule:evenodd;clip-rule:evenodd;fill:#E58436;}
	.st4{fill-rule:evenodd;clip-rule:evenodd;fill:#20AA52;}
	.st5{fill-rule:evenodd;clip-rule:evenodd;fill:#2FBBDC;}
	.st6{fill-rule:evenodd;clip-rule:evenodd;fill:#E63630;}
	.st7{fill-rule:evenodd;clip-rule:evenodd;fill:#FFFDFC;}
	.st8{fill-rule:evenodd;clip-rule:evenodd;fill:#4169B2;}
</style>
<g>
	<rect x="87.2" y="102.15" class="st0" width="72.02" height="72.02"/>
	<g>
		<path class="st1" d="M90.71,137.82c0-17.64,14.3-31.95,31.94-31.95c17.64,0,31.95,14.31,31.95,31.95
			c0,17.64-14.3,31.94-31.95,31.94C105.01,169.77,90.71,155.46,90.71,137.82"/>
		<path class="st2" d="M124.6,131.1c0,2.5,1.36,5.04,2.68,7.5c1.1,2.05,2.13,3.98,2.13,5.55c0,1.11-0.9,2.02-2.02,2.02
			c-0.75,0-1.58-0.41-2.39-1.2l-0.28-0.25v3.44l0.07,0.04c1,0.62,1.9,0.9,2.94,0.9c2.81,0,4.77-2.18,4.77-5.31
			c0-2.54-1.36-5.06-2.68-7.48c-1.1-2.04-2.14-3.96-2.14-5.56c0-1.32,0.67-1.99,2.02-1.99c0.64,0,1.09,0.2,1.92,0.68l0.24,0.14
			v-3.08l-0.1-0.05c-0.96-0.45-1.65-0.62-2.47-0.62C126.54,125.82,124.6,127.99,124.6,131.1"/>
		<polygon class="st2" points="99.19,126.24 102.25,136.43 102.3,136.43 105.54,126.24 107.82,126.24 108.8,148.7 105.54,148.7 
			105.35,135.09 105.3,135.09 102.71,143.32 101.97,143.32 99.41,135.27 99.36,135.27 99.19,148.7 95.93,148.7 96.97,126.24 		"/>
		<path class="st2" d="M122.13,143.57c0,3.2-2.25,5.51-5.28,5.51c-3.06,0-5.27-2.28-5.27-5.51v-17.33h3.23v17.33
			c0,1.47,0.75,2.32,2.04,2.32c1.23,0,2.01-0.92,2.01-2.32v-17.33h3.27V143.57z"/>
		<path class="st2" d="M138.39,148.7h-3.25v-17.15h3.25V148.7z M138.39,129.46h-3.25v-3.22h3.25V129.46z"/>
		<path class="st2" d="M147.37,143.24c-0.28,2.16-0.75,2.62-1.44,2.62c-1.08,0-1.67-1.21-1.67-9.26c0-6.22,0.59-7.54,1.67-7.54
			c0.72,0,1.22,0.56,1.48,2.62h3.16c-0.73-4.43-2.55-5.85-4.64-5.85c-2.68,0-4.94,2.39-4.94,10.64c0,10.34,2.26,12.63,4.94,12.63
			c1.97,0,3.71-1.22,4.51-5.85H147.37z"/>
		<rect x="87.03" y="29.63" class="st3" width="72.35" height="72.35"/>
		<path class="st4" d="M91.26,65.83c0-17.54,14.22-31.75,31.75-31.75s31.75,14.21,31.75,31.75c0,17.53-14.21,31.75-31.75,31.75
			S91.26,83.36,91.26,65.83"/>
		<path class="st5" d="M104.78,76.77v-8.65c0.04,0,1,0,1.04,0.01c3.53,0.16,5.37-1.01,5.34-4.67v-4.99c0.1-3.04-1.57-4.44-5.3-4.44
			h-4.47v22.73H104.78z M104.78,56.75c0.05,0,1.02,0,1.07-0.01c1.24-0.06,1.93,0.16,1.93,2.19v5.46c-0.09,1.01-1.01,1.02-1.96,1.02
			h-1.04V56.75z"/>
		<polygon class="st5" points="120.63,73.51 120.63,76.77 113.6,76.77 113.6,54.11 116.96,54.11 116.96,73.51 		"/>
		<path class="st5" d="M128.76,74.96v1.64h3.34V58.56c0-2.69-2.26-4.91-4.98-4.91c-2.74,0-4.94,2.12-4.97,4.91h3.3
			c0.13-0.98,0.8-1.64,1.67-1.64c1.08,0,1.64,0.73,1.64,2.12v3.77h-1.88c-2.92,0-4.73,1.63-4.73,4.31v5.69
			c0,2.47,1.35,3.97,3.48,3.97C126.95,76.78,127.99,76.19,128.76,74.96 M128.76,65.52v5.45c0,1.95-0.35,2.5-1.64,2.5
			c-1.01,0-1.67-0.66-1.67-1.77v-4.65c0-1.04,0.66-1.53,2.05-1.53H128.76z"/>
		<polygon class="st5" points="140.78,76.78 137.46,76.78 137.46,68.3 133.17,54.05 136.45,54.05 139.15,64.36 139.2,64.36 
			141.8,54.05 145.07,54.05 140.78,68.3 		"/>
		<path class="st6" d="M134.93,102.11c0-6.7-5.43-12.13-12.13-12.13c-6.7,0-12.13,5.43-12.13,12.13c0,6.71,5.44,12.14,12.13,12.14
			C129.5,114.25,134.93,108.82,134.93,102.11"/>
		<path class="st7" d="M123.42,100.65c1.98-1.87,2.58-2.88,2.58-4.43c0-1.77-1.41-3.06-3.34-3.06c-1.98,0-3.32,1.32-3.32,3.24
			c0,1.04,0.33,2.08,1.11,3.57c-2.23,1.82-3.06,3.34-3.06,5.67c0,2.92,1.79,4.86,4.4,4.86c1.12,0,1.9-0.31,2.89-1.19l0.43,0.96h2.71
			l-1.49-3.24c0.68-1.77,1.11-4.02,1.24-6.18h-2l-0.06,0.33c-0.12,1.42-0.25,2.18-0.51,2.94L123.42,100.65z M122.41,98.46
			c-0.46-0.74-0.73-1.55-0.73-2.18c0-0.67,0.43-1.12,1.04-1.12c0.6,0,1.09,0.48,1.09,1.09C123.79,96.96,123.28,97.77,122.41,98.46
			 M121.59,102.17l2.02,4.71c-0.45,0.84-0.98,1.2-1.72,1.2c-1.16,0-2.03-1.12-2.03-2.59C119.87,104.27,120.43,103.19,121.59,102.17"
			/>
		<path class="st8" d="M79.83,26.75c0.04-1.37-1.02-2.48-2.46-2.49c-1.41,0-2.54,1.1-2.57,2.48c-0.04,1.35,1.02,2.51,2.43,2.51
			C78.67,29.25,79.79,28.1,79.83,26.75 M75.76,143.45c-0.05,1.73-0.1,3.45-0.14,5.15c-4.42-0.02-8.85-0.04-13.25-0.07
			c-7.5,2.2-14.99,4.37-22.48,6.54c0.05-1.7,0.1-3.37,0.16-5.06c5.41-1.37,10.81-2.75,16.23-4.14c0-0.03,0-0.06,0-0.08
			c-5.34-1.35-10.66-2.69-15.98-4.1c0.05-1.67,0.1-3.34,0.16-5.06c7.34,2.27,14.69,4.51,22.06,6.76
			C66.92,143.4,71.34,143.43,75.76,143.45 M40.62,131.32c5.41-1.59,10.8-3.16,16.22-4.72c0-0.02,0-0.05,0-0.08
			c-5.32-1.72-10.61-3.44-15.92-5.16c0.04-1.16,0.07-2.34,0.11-3.53c5.89-0.22,11.81-0.46,17.72-0.68
			c5.91-0.22,11.84-0.49,17.76-0.73c-0.05,1.7-0.1,3.4-0.14,5.1c-7.18,0.08-14.35,0.15-21.5,0.2c0,0.03,0,0.05,0,0.08
			c4.29,1.37,8.58,2.73,12.88,4.12c-0.01,0.41-0.02,0.78-0.04,1.16c-4.28,1.33-8.56,2.63-12.83,3.93c0,0.03,0,0.06,0,0.08
			c7.06,0.14,14.13,0.25,21.21,0.39c-0.05,1.7-0.1,3.4-0.14,5.07c-5.91-0.3-11.84-0.6-17.74-0.9c-5.9-0.3-11.81-0.59-17.7-0.89
			C40.55,133.63,40.58,132.47,40.62,131.32 M70.47,162.4c-0.3,1.67-2.25,3.41-14.76,3.34c-9.69-0.06-11.68-1.39-11.64-3.06
			c0.04-1.4,1.42-2.66,6.96-2.9c0.05-1.59,0.1-3.15,0.14-4.74c-9.13,0.68-12.01,3.95-12.13,7.61c-0.13,4.15,3.46,8.07,16.27,8.15
			c16.11,0.1,19.78-3.79,19.9-7.94c0.07-2.64,0.14-5.28,0.22-7.92c-5.96-0.01-11.91-0.04-17.87-0.07c-0.07,2.32-0.14,4.61-0.21,6.92
			c1.48,0.01,2.99,0.02,4.49,0.03c0.02-0.78,0.05-1.59,0.07-2.43c2.88,0.02,5.75,0.03,8.64,0.05
			C70.52,160.43,70.49,161.4,70.47,162.4 M59.54,37.87c-9.32-0.04-11.28-0.94-11.23-2.53c0.05-1.67,2.07-2.55,11.38-2.56
			C59.64,34.47,59.59,36.17,59.54,37.87 M64.11,27.94c-1.29-0.08-2.7-0.11-4.2-0.12c-12.67-0.02-16.44,3.4-16.57,7.51
			c-0.12,4.01,3.44,7.44,16.13,7.46c15.92,0.03,19.55-3.38,19.67-7.4c0.08-3.02-1.74-5.67-8.92-6.86c-0.04,1.56-0.09,3.12-0.13,4.66
			c3.42,0.41,4.11,1.14,4.08,2.19c-0.04,1.43-1.53,2.29-10.34,2.46C63.91,34.53,64.01,31.25,64.11,27.94 M59.01,55.38
			c-9.33-0.05-11.3-0.92-11.25-2.53c0.05-1.67,2.07-2.55,11.4-2.56C59.11,51.99,59.07,53.71,59.01,55.38 M63.59,45.45
			c-1.29-0.08-2.7-0.12-4.21-0.12c-12.69-0.03-16.47,3.38-16.6,7.5c-0.13,4.07,3.44,7.5,16.15,7.53c15.95,0.04,19.59-3.37,19.7-7.44
			c0.08-3.02-1.74-5.66-8.93-6.86c-0.04,1.56-0.09,3.1-0.14,4.66c3.43,0.41,4.12,1.16,4.09,2.19c-0.04,1.45-1.53,2.31-10.36,2.45
			C63.39,52.05,63.49,48.76,63.59,45.45 M41.68,88.05c-0.13,4.06,3.45,7.52,16.19,7.57c15.99,0.06,19.64-3.38,19.76-7.45
			c0.12-4.15-3.34-7.61-19.31-7.66C45.6,80.47,41.81,83.9,41.68,88.05 M72.64,88.16c-0.05,1.61-1.96,2.5-14.39,2.46
			c-9.61-0.04-11.62-0.9-11.57-2.55c0.05-1.72,2.12-2.61,11.72-2.57C70.84,85.53,72.69,86.43,72.64,88.16 M55.1,68.3
			c1.72,0,1.79,1.89,1.79,3.91c-3.36-0.01-6.7-0.02-10.03-0.03c0.02-0.51,0.03-1.08,0.05-1.64c0.03-1.05,0.56-2.26,1.96-2.26
			C50.94,68.29,53.01,68.29,55.1,68.3 M63.68,62.82c-3.19,0.18-4.04,2.58-4.4,4.87H59.2c-0.16-2.18-0.9-4.47-5.77-4.49
			c-1.07,0-2.13-0.01-3.17-0.01c-4.46-0.01-7.58,2.06-7.72,6.61c-0.08,2.48-0.16,4.98-0.23,7.46c5.87,0.02,11.76,0.04,17.64,0.06
			c5.88,0.02,11.79,0.04,17.68,0.05c0.04-1.7,0.09-3.37,0.14-5.09c-5.51-0.02-11.01-0.04-16.5-0.05c0.02-0.43,0.03-0.89,0.04-1.35
			c-0.04-2.34,0.81-3.12,2.93-3.12c4.07,0.01,9.66,0.27,13.71-0.58c0.05-1.73,0.1-3.43,0.14-5.15
			C73.24,62.85,68.35,62.54,63.68,62.82 M60.08,105.79c0.04-1.4,1.35-2.15,2.65-2.15c2.39,0.01,4.76,0.02,7.16,0.03
			c1.46,0,2.56,0.6,2.51,2.16c-0.02,0.65-0.04,1.3-0.05,1.92c-4.13-0.02-8.23-0.03-12.34-0.05
			C60.05,107.08,60.07,106.43,60.08,105.79 M41.2,112.71c5.89,0.02,11.79,0.05,17.69,0.07c5.89,0.02,11.82,0.05,17.73,0.07
			c0.08-2.69,0.15-5.42,0.23-8.14c0.08-2.86-1.46-6.15-6.42-6.17c-2.44-0.01-4.85-0.02-7.28-0.03c-3.71-0.02-4.65,2.38-5.07,3.59
			h-0.09c-0.42-1.65-1.05-3.43-5.02-3.44c-1.18,0-2.36-0.01-3.53-0.01c-5.74-0.02-7.88,2.56-8.03,7.24
			C41.35,108.19,41.27,110.45,41.2,112.71 M45.81,105.97c0.06-1.8,1.53-2.39,2.66-2.39c1.65,0,3.32,0.01,4.99,0.02
			c1.57,0.01,2.34,0.9,2.31,2.03c-0.02,0.7-0.04,1.37-0.06,2.04c-3.33-0.01-6.65-0.02-9.96-0.04
			C45.77,107.1,45.79,106.54,45.81,105.97"/>
	</g>
</g>
</svg>
