<?xml version="1.0" encoding="utf-8"?>
<!-- Generator: Adobe Illustrator 28.0.0, SVG Export Plug-In . SVG Version: 6.00 Build 0)  -->
<svg version="1.1" id="Layer_1" xmlns="http://www.w3.org/2000/svg" xmlns:xlink="http://www.w3.org/1999/xlink" x="0px" y="0px"
	 viewBox="0 0 198.43 198.43" style="enable-background:new 0 0 198.43 198.43;" xml:space="preserve">
<style type="text/css">
	.st0{fill-rule:evenodd;clip-rule:evenodd;fill:#FDDFCA;}
	.st1{fill-rule:evenodd;clip-rule:evenodd;fill:#FFFDFC;}
	.st2{fill:none;stroke:#151515;stroke-width:0.216;stroke-miterlimit:10;}
	.st3{fill-rule:evenodd;clip-rule:evenodd;fill:#151515;}
	.st4{fill-rule:evenodd;clip-rule:evenodd;fill:#E6352F;}
</style>
<g>
	<polyline class="st0" points="43.42,24.26 43.42,174.16 155.01,174.16 155.01,24.26 43.42,24.26 	"/>
	<rect x="65.99" y="36.3" class="st1" width="64.45" height="56.78"/>
	<rect x="65.99" y="36.3" class="st2" width="64.45" height="56.78"/>
	<path class="st3" d="M65.91,35.31h66.61v58.51H65.91V35.31z M121.47,36.98c-1.39,1.13-2.68,2.27-4.3,3.41
		c-0.36,0.25-0.64,0.51-1.01,0.73c-0.14,0.08-0.28,0.14-0.45,0.17c-0.17,0.03-0.34,0-0.48-0.06c-0.53-0.2-1.03-0.42-1.54-0.59
		c-1.57-0.48-3.13-0.59-4.7-0.53c-0.62,0.05-1.14,0.16-1.73,0.22c-0.22,0-0.45-0.06-0.67-0.17c-0.22-0.11-0.43-0.27-0.64-0.48
		c-0.9-0.86-1.7-1.8-2.4-2.72H121.47z M103.73,40.03c0,0.08-0.03,0.11-0.08,0.17c-0.08,0.08-0.2,0.14-0.31,0.17
		c-0.11,0.06-0.22,0.08-0.34,0.11c-1.2,0.14-2.38,0.14-3.55,0.14c-0.14,0-0.25,0-0.36-0.03c-0.11-0.03-0.2-0.08-0.28-0.17
		c-0.06-0.06-0.11-0.17-0.11-0.25c0-0.11,0.03-0.22,0.03-0.34c-0.02-0.92,0.25-1.91,0.41-2.86c0.36,0,0.56,0,1.28,0
		c0.51,0.35,1.17,0.89,1.25,0.96c0.62,0.5,1.2,1.06,1.76,1.65C103.59,39.75,103.7,39.89,103.73,40.03z M92.95,36.98
		c-0.59,0.36-0.99,0.82-1.58,0.87c-3.33,0.28-6.65,0.5-9.95,1.15c-0.36,0.06-0.75,0-1.12,0.14c-3.77,1.37-7.63,2.88-11.52,5.12
		c-0.11,0.08-0.25,0.14-0.39,0.22c-0.11,0.08-0.22,0.17-0.25,0.25c-0.06,0.11-0.06,0.2-0.03,0.25c0.03,0.06,0.11,0.11,0.2,0.11
		c0.08,0.03,0.2,0.03,0.28,0c0.11-0.03,0.22-0.03,0.34-0.08c1.26-0.39,2.43-0.87,3.75-1.2c3.91-1.01,7.94-1.57,11.88-2.04
		c0.22-0.03,0.48-0.03,0.7-0.03c0.11,0,0.22,0.03,0.31,0.06c0.08,0.06,0.11,0.11,0.14,0.2c0.03,0.08,0,0.2-0.08,0.31
		c-0.06,0.11-0.11,0.22-0.17,0.31c-0.45,0.56-1.01,1.17-1.62,1.85c-0.5,0.53-0.95,0.98-1.37,1.37c-0.95,0.95-1.99,1.73-2.91,2.88
		c-1.59,2.01-2.91,4.31-4.25,6.29c-0.5,0.75-1.01,1.43-1.65,2.07c-0.08,0.08-0.17,0.17-0.25,0.25c-0.08,0.11-0.11,0.2-0.11,0.25
		c0,0.06,0.03,0.11,0.08,0.11c0.06,0.03,0.14,0,0.25-0.06c0.08-0.03,0.2-0.08,0.28-0.17c0.2-0.14,0.42-0.31,0.62-0.48
		c0.98-0.78,1.68-1.68,2.49-2.49c1.96-1.93,4.11-3.16,5.87-4.53c0.14-0.11,0.31-0.22,0.45-0.28c0.11-0.03,0.2-0.06,0.28-0.06
		c0.11,0,0.17,0.03,0.2,0.06c0.06,0.06,0.06,0.14,0.03,0.22s-0.08,0.14-0.17,0.22c-0.08,0.08-0.17,0.17-0.25,0.25
		c-0.64,0.67-1.15,1.45-1.59,2.26c-1.62,2.74-3.24,5.4-4.56,8.11C77.11,61,77.09,61.22,77,61.48c-0.11,0.45-0.14,0.87-0.08,1.31
		c0.03,0.25-0.06,0.5-0.2,0.7l-1.57,2.43c-0.2,0.28-0.34,0.56-0.36,0.84l-0.45,11.91c0,0.2,0,0.36,0.06,0.53
		c0.06,0.17,0.17,0.34,0.28,0.48c0.48,0.56,0.95,1.15,1.31,1.82c0.92,1.65,1.48,3.33,2.04,5c0.06,0.17,0.14,0.31,0.31,0.45
		c0.53,0.5,1.01,1.03,1.54,1.54c0.36,0.36,0.78,0.64,1.17,0.78c2.66,1.01,5.42,1.51,8.19,2.1c0.28,0.06,0.56,0.14,0.78,0.31
		c0.14,0.08,0.25,0.14,0.36,0.14c0.14,0,0.31-0.08,0.45-0.14l1.23-0.64c0.95-0.5,1.93-0.73,2.85-0.92c0.92-0.2,1.82-0.5,2.74-1.03
		c0.14-0.08,0.28-0.14,0.39-0.22c0.11-0.08,0.2-0.22,0.28-0.36c0.06-0.17,0.14-0.31,0.22-0.45c0.08-0.11,0.14-0.22,0.22-0.31
		c0.08-0.08,0.17-0.14,0.28-0.14c0.08-0.03,0.2,0,0.31,0.08c0.11,0.06,0.2,0.17,0.25,0.25c0.08,0.14,0.14,0.25,0.17,0.39
		c0,0.14,0,0.28,0,0.42c0,0.14,0.06,0.28,0.11,0.42c0.03,0.11,0.14,0.22,0.22,0.31c0.11,0.11,0.22,0.17,0.36,0.2
		c0.14,0.06,0.28,0.08,0.42,0.11c0.25,0.06,0.48,0.06,0.73-0.03c0.25-0.06,0.53-0.17,0.78-0.36c0.64-0.5,1.09-1.03,1.73-1.54
		c0.2-0.14,0.36-0.25,0.5-0.31c0.17-0.03,0.31-0.06,0.45-0.03c0.17,0.03,0.34,0.08,0.5,0.2c0.17,0.08,0.34,0.17,0.45,0.28
		c0.14,0.11,0.22,0.25,0.28,0.39c0.03,0.14,0.06,0.28,0.06,0.42c-0.03,0.2-0.08,0.39-0.08,0.56c0,0.17,0.03,0.31,0.11,0.45
		c0.11,0.17,0.22,0.31,0.36,0.45c0.22,0.2,0.48,0.39,0.7,0.59c0.39,0.28,0.75,0.48,1.12,0.59c0.39,0.11,0.75,0.14,1.12,0.14
		c0.64,0,1.26-0.06,1.9-0.2c0.31-0.08,0.59-0.28,0.87-0.48c0.81-0.59,1.65-1.43,2.43-2.21c0.2-0.2,0.39-0.48,0.62-0.64
		c1.43-1.01,2.85-1.98,4.19-2.88c0.22-0.17,0.42-0.34,0.64-0.56c0.78-0.89,1.45-1.93,2.21-2.96c0.14-0.17,0.22-0.34,0.39-0.45
		c0.89-0.48,1.76-0.98,2.63-1.68c0.14-0.14,0.28-0.22,0.45-0.25c0.17-0.06,0.31-0.03,0.48-0.03c0.14,0,0.28-0.03,0.39-0.14
		c0.11-0.08,0.2-0.22,0.28-0.36c0.36-0.56,0.75-1.2,1.06-1.76c0.78-1.45,0.98-2.91,1.37-4.33c0.08-0.36,0.31-0.67,0.39-1.03
		c0.06-0.25,0-0.5-0.03-0.75c-0.45-2.12-1.03-4.25-1.76-6.32c-0.53-1.54-1.43-3.05-2.26-4.45c-0.22-0.39-0.42-0.81-0.75-1.17
		c-0.87-0.98-1.79-1.85-2.71-2.57c-0.11-0.08-0.2-0.22-0.28-0.31c-0.08-0.14-0.11-0.28-0.14-0.42c-0.03-0.17,0.03-0.31,0.03-0.45
		c0.03-1.2,0.28-2.38,0.73-3.58c0.06-0.14,0.08-0.28,0.06-0.42c0-0.14-0.06-0.25-0.11-0.34c-0.08-0.11-0.2-0.2-0.34-0.25
		c-0.14-0.08-0.28-0.14-0.42-0.17c-0.22-0.08-0.48-0.06-0.7,0c-0.14,0-0.25,0.03-0.39,0.08c-0.11,0.06-0.22,0.17-0.31,0.28
		c-0.08,0.11-0.14,0.22-0.17,0.36c-0.25,0.81-0.42,1.62-0.7,2.4c-0.06,0.14-0.11,0.28-0.2,0.39c-0.08,0.14-0.2,0.22-0.34,0.28
		c-0.11,0.08-0.25,0.11-0.39,0.11c-0.25,0.03-0.5,0.06-0.75,0.08c-2.12,0.14-4.25,0.2-6.37-0.2c-0.75-0.14-1.51-0.36-2.29-0.78
		c-0.73-0.39-1.45-0.48-2.21-0.5c-0.87-0.06-1.73,0.03-2.54,0.25c-0.81,0.2-1.57,0.56-2.35,0.98c-0.14,0.06-0.22,0.11-0.34,0.11
		c-0.11,0-0.2-0.06-0.28-0.14c-0.08-0.08-0.17-0.2-0.25-0.31l-0.64-1.01c-0.17-0.25-0.36-0.45-0.59-0.59
		c-0.25-0.2-0.53-0.36-0.81-0.5c-0.11-0.06-0.25-0.11-0.36-0.22c-0.08-0.08-0.17-0.2-0.22-0.34c-0.03-0.11-0.03-0.25-0.03-0.36
		L99,47.36c0.06-1.03-0.45-2.07-0.75-3.1c-0.03-0.14-0.03-0.25-0.06-0.39c0-0.11,0.06-0.22,0.11-0.34c0.08-0.08,0.17-0.17,0.31-0.22
		c0.11-0.06,0.22-0.08,0.34-0.08l7.21-0.78c0.17-0.03,0.34-0.03,0.5-0.06c0.14,0,0.28,0.03,0.42,0.14c0.11,0.08,0.22,0.2,0.36,0.28
		c0.78,0.67,1.65,1.4,2.57,2.21c0.28,0.25,0.5,0.45,0.75,0.62c0.08,0.06,0.17,0.11,0.22,0.11c0.08,0.03,0.14,0,0.14-0.03
		c0.03-0.06,0.03-0.14-0.03-0.22c-0.03-0.11-0.08-0.2-0.17-0.28c-0.08-0.14-0.17-0.28-0.31-0.39c-0.22-0.25-0.5-0.45-0.67-0.67
		c-0.31-0.39-0.53-0.78-0.75-1.17c-0.06-0.08-0.11-0.17-0.14-0.28c0-0.08,0.03-0.17,0.08-0.22c0.08-0.08,0.17-0.14,0.28-0.14
		c0.11-0.03,0.22,0,0.31,0c1.2,0,2.38,0.08,3.58,0.28c0.11,0,0.22,0.03,0.34,0.08c0.11,0.06,0.2,0.11,0.25,0.2
		c0.06,0.08,0.08,0.17,0.06,0.28c-0.03,0.11-0.08,0.22-0.14,0.31c-0.11,0.17-0.2,0.31-0.31,0.42c-0.17,0.2-0.34,0.36-0.5,0.56
		c-0.08,0.08-0.14,0.17-0.17,0.25c0,0.08,0,0.14,0.06,0.14c0.03,0.03,0.11,0.03,0.2,0c0.11-0.06,0.2-0.11,0.28-0.2
		c0.64-0.45,1.17-0.81,1.76-1.15c0.2-0.11,0.36-0.25,0.56-0.36c0.17-0.08,0.36-0.11,0.56-0.08l5.31,0.73
		c0.14,0.03,0.28,0.11,0.42,0.17c0.14,0.06,0.22,0.17,0.31,0.25c0.06,0.11,0.14,0.22,0.14,0.36c0.03,0.14,0.03,0.28,0,0.42
		c-0.25,1.2-0.78,2.29-1.15,3.47c-0.03,0.14-0.08,0.28-0.11,0.42c-0.03,0.11,0.03,0.22,0.08,0.34c0.06,0.11,0.14,0.22,0.28,0.31
		c0.11,0.06,0.22,0.14,0.34,0.17c0.25,0.08,0.5,0.17,0.73,0.22c0.14,0.06,0.25,0.08,0.36,0.06c0.11,0,0.22-0.06,0.31-0.14
		c0.08-0.06,0.17-0.17,0.22-0.28c0.06-0.14,0.14-0.25,0.14-0.39c0.08-0.45,0.14-0.84,0.25-1.23c0.22-0.84,0.48-1.68,0.87-2.46
		c0.08-0.17,0.14-0.31,0.22-0.45c0.14-0.17,0.34-0.34,0.53-0.45c0.11-0.06,0.22-0.11,0.31-0.17c0.06-0.08,0.08-0.14,0.08-0.22
		c0-0.11-0.06-0.2-0.14-0.31c-0.08-0.11-0.2-0.2-0.28-0.28c-0.17-0.17-0.34-0.28-0.53-0.36c-0.28-0.14-0.56-0.25-0.84-0.28
		c-0.31-0.03-0.62,0-0.95,0.08c-0.22,0.08-0.48,0.14-0.73,0.08l-3.61-1.01c-0.11-0.03-0.22-0.06-0.34-0.11
		c-0.11-0.06-0.2-0.14-0.25-0.22c-0.06-0.11-0.08-0.22-0.06-0.34c0.03-0.14,0.08-0.22,0.17-0.34c0.11-0.11,0.25-0.22,0.36-0.34
		c0.42-0.28,0.84-0.56,1.31-0.84c1.45-0.87,2.94-1.73,4.39-2.12c0.17-0.06,0.28-0.11,0.42-0.11c0.11-0.03,0.22,0,0.31,0.03
		c0.08,0.06,0.14,0.14,0.17,0.22c0.03,0.08,0.03,0.2,0,0.31c0,0.11-0.06,0.22-0.08,0.34c-0.11,0.89-0.45,1.82-0.95,2.71
		c-0.06,0.11-0.08,0.25-0.11,0.36c0,0.14,0,0.25,0.08,0.34c0.08,0.11,0.2,0.2,0.31,0.25l0.42,0.22c0.2,0.08,0.36,0.17,0.53,0.17
		c0.17,0,0.34-0.03,0.5-0.11c0.11-0.06,0.22-0.11,0.34-0.17c0.11-0.03,0.22-0.03,0.34,0.03c0.11,0.03,0.2,0.14,0.28,0.22
		c0.06,0.11,0.14,0.2,0.2,0.31l1.98,5.12c0.08,0.17,0.17,0.34,0.25,0.53c0.08,0.11,0.14,0.2,0.22,0.25c0.06,0.06,0.14,0.06,0.2,0.03
		c0.06-0.03,0.08-0.08,0.08-0.2c0.03-0.08,0-0.17-0.03-0.28c-0.31-1.62-0.59-3.24-0.78-4.89c-0.14-1.34-0.39-2.68-0.84-4.05
		c-0.03-0.11-0.08-0.2-0.11-0.31c-0.03-0.11,0-0.2,0.06-0.28c0.03-0.06,0.11-0.11,0.22-0.14c0.11-0.03,0.2,0,0.28,0.06
		c0.11,0.08,0.2,0.17,0.28,0.28c0.42,0.48,0.97,0.87,1.48,1.51c0.23,0.28,0.24,0.22,0.36,0.54c0.04,0.11,0.03,0.22,0.03,0.36v50.72
		H67.58V36.98H92.95z M125.7,76.32c-0.11-0.03-0.22-0.11-0.31-0.22c-0.06-0.08-0.11-0.2-0.14-0.31c-0.03-0.11-0.08-0.25-0.08-0.36
		c-0.03-0.17-0.03-0.31-0.08-0.48c0-0.11-0.06-0.2-0.11-0.28c-0.08-0.06-0.17-0.11-0.28-0.11c-0.08,0-0.17,0.06-0.22,0.14
		c-0.06,0.08-0.11,0.17-0.17,0.25c-0.59,1.17-1.26,2.26-1.82,3.24c-1.15,2.01-2.68,3.86-4.36,5.65c-0.22,0.25-0.42,0.53-0.67,0.7
		c-0.22,0.17-0.5,0.34-0.78,0.48c-0.11,0.06-0.25,0.11-0.36,0.11c-0.11,0.03-0.2,0-0.28-0.06c-0.08-0.08-0.11-0.17-0.14-0.25
		c0-0.11,0.03-0.22,0.06-0.31c0.08-0.14,0.14-0.25,0.22-0.36c0.2-0.22,0.36-0.42,0.5-0.62c0.14-0.2,0.22-0.39,0.31-0.56
		c0.06-0.17,0.06-0.34,0-0.5c-0.06-0.17-0.14-0.34-0.2-0.53c-0.06-0.14-0.08-0.28-0.08-0.39c0.03-0.14,0.08-0.28,0.2-0.42
		c0.81-0.95,1.54-1.96,2.24-2.85c0.92-1.15,2.21-2.15,3.55-3.3c0.28-0.22,0.56-0.45,0.73-0.7c0.31-0.39,0.56-0.84,0.87-1.29
		c0.25-0.31,0.36-0.64,0.5-0.98c0.11-0.28,0.22-0.56,0.17-0.84l-0.31-2.43c-0.06-0.45-0.11-0.89-0.28-1.34
		c-0.06-0.14-0.14-0.28-0.22-0.39c-0.08-0.11-0.2-0.2-0.31-0.25c-0.14-0.06-0.28-0.06-0.42-0.03l-1.79,0.08
		c-0.14,0-0.28,0-0.42-0.03c-0.11-0.03-0.22-0.11-0.34-0.2c-0.11-0.11-0.17-0.22-0.22-0.36l-0.17-0.42c-0.11-0.25-0.28-0.5-0.48-0.7
		c-1.62-1.65-3.66-2.82-5.59-4.11c-0.25-0.17-0.48-0.34-0.7-0.53c-0.2-0.25-0.39-0.48-0.53-0.7c-0.11-0.17-0.2-0.31-0.34-0.42
		c-0.11-0.14-0.28-0.22-0.45-0.31c-0.64-0.34-1.31-0.7-1.98-0.92c-0.31-0.11-0.59-0.2-0.87-0.17c-0.34,0.03-0.67,0.11-1.01,0.25
		c-0.25,0.11-0.5,0.28-0.7,0.48c-0.42,0.39-0.78,0.87-1.2,1.29c-0.36,0.36-0.62,0.75-0.81,1.09c-0.08,0.2-0.14,0.39-0.25,0.59
		c-0.06,0.11-0.14,0.22-0.25,0.31c-0.08,0.08-0.17,0.11-0.25,0.11c-0.11,0-0.14-0.03-0.22-0.11c-0.06-0.06-0.11-0.17-0.14-0.28
		c0-0.08-0.03-0.2,0-0.31c0-0.45,0.08-0.87,0.11-1.31c0.03-0.39,0.14-0.78,0.28-1.12c0.06-0.14,0.11-0.28,0.22-0.42
		c0.08-0.14,0.2-0.25,0.36-0.31c0.42-0.25,0.87-0.53,1.34-0.84c0.22-0.14,0.48-0.22,0.7-0.25l5.95-0.31
		c0.67-0.03,1.31-0.06,1.98,0.08c1.29,0.25,2.54,0.73,3.83,1.43c0.36,0.2,0.75,0.28,1.12,0.5c0.31,0.2,0.56,0.42,0.78,0.64
		l3.19,3.02l1.54,1.43c0.14,0.14,0.22,0.28,0.28,0.42c0.08,0.45,0.25,0.87,0.5,1.31c0.2,0.31,0.31,0.62,0.39,0.92
		c0.31,1.17,0.56,2.35,0.45,3.49c-0.14,1.29-0.75,2.54-1.31,3.86c-0.22,0.56-0.31,1.17-0.34,1.73c0,0.14,0,0.25-0.06,0.36
		C125.98,76.18,125.87,76.29,125.7,76.32z M92.07,43.05c0.06,0.03,0.08,0.03,0.11,0.08c0.03,0.03,0.03,0.11,0,0.2
		c-0.03,0.11-0.08,0.2-0.14,0.28c-0.08,0.25-0.17,0.53-0.31,0.78c-0.14,0.2-0.28,0.39-0.5,0.56c-0.17,0.11-0.36,0.25-0.53,0.34
		c-0.48,0.25-0.95,0.36-1.43,0.56c-0.11,0.06-0.22,0.08-0.31,0.11c-0.11,0.03-0.17,0.03-0.22,0c-0.06-0.03-0.06-0.08-0.03-0.14
		c0.03-0.08,0.08-0.17,0.14-0.25c0.08-0.08,0.17-0.17,0.25-0.22c0.56-0.39,1.12-0.87,1.65-1.37c0.31-0.31,0.59-0.53,0.89-0.73
		C91.79,43.16,91.93,43.08,92.07,43.05z M95.59,46.35c0.06,0.03,0.11,0.08,0.11,0.17c0.03,0.11,0.03,0.22,0.03,0.31
		c0,0.22-0.03,0.45,0.06,0.64c0.36,1.2,0.59,2.4,1.09,3.61c0.06,0.17,0.06,0.36,0.03,0.56c-0.03,0.14-0.08,0.28-0.17,0.42
		c-0.08,0.11-0.22,0.25-0.36,0.34c-0.17,0.14-0.39,0.25-0.62,0.39c-0.22,0.14-0.48,0.25-0.73,0.25c-0.7-0.03-1.4,0.03-2.1-0.03
		c-0.11,0-0.22,0-0.34,0c-0.11-0.03-0.2-0.06-0.25-0.11c-0.06-0.08-0.08-0.2-0.06-0.28c0-0.11,0-0.22,0.06-0.34
		c0.98-1.73,1.99-3.49,2.71-5.23c0.06-0.17,0.14-0.31,0.2-0.45C95.37,46.43,95.48,46.35,95.59,46.35z M111.25,78.92
		c-0.03-0.11,0.06-0.25,0.22-0.36c0.08-0.06,0.2-0.11,0.31-0.17c0.22-0.11,0.45-0.22,0.67-0.34c0.31-0.11,0.62-0.28,0.92-0.56
		c0.2-0.17,0.39-0.34,0.56-0.53c0.11-0.14,0.22-0.28,0.25-0.42c0.03-0.14,0.06-0.28,0.06-0.42c0-0.78,0.03-1.57-0.17-2.35
		c-0.06-0.25-0.06-0.53-0.17-0.78c-0.17-0.31-0.36-0.62-0.5-0.92c-0.11-0.2-0.22-0.39-0.39-0.53c-0.14-0.17-0.34-0.31-0.5-0.45
		c-0.48-0.39-1.01-0.75-1.54-1.06c-0.14-0.08-0.34-0.14-0.48-0.17c-0.14-0.03-0.25-0.03-0.36,0.03c-0.11,0.03-0.2,0.14-0.31,0.22
		c-0.08,0.08-0.14,0.2-0.22,0.31c-0.17,0.34-0.39,0.7-0.59,1.09c-0.14,0.25-0.34,0.53-0.59,0.78c-0.2,0.22-0.42,0.42-0.67,0.56
		c-0.17,0.08-0.36,0.17-0.5,0.28c-0.14,0.06-0.22,0.17-0.31,0.25c-0.08,0.11-0.11,0.22-0.11,0.34c0,0.11,0.03,0.22,0.11,0.36
		c0.08,0.14,0.17,0.25,0.31,0.36c0.11,0.11,0.28,0.22,0.48,0.31c0.22,0.11,0.42,0.25,0.56,0.42c0.17,0.14,0.28,0.31,0.36,0.45
		c0.08,0.17,0.11,0.34,0.11,0.5v1.03c0,0.11,0,0.22-0.03,0.31c-0.03,0.11-0.08,0.2-0.17,0.22c-0.08,0.03-0.17,0.03-0.28,0
		c-0.11-0.06-0.2-0.11-0.31-0.17c-0.59-0.25-1.17-0.48-1.76-0.56c-0.67-0.08-1.31-0.14-1.98-0.03c-0.34,0.06-0.67-0.03-0.98-0.14
		c-0.25-0.08-0.48-0.25-0.67-0.42c-0.17-0.14-0.31-0.25-0.42-0.42c-0.11-0.14-0.17-0.28-0.2-0.45c-0.14-1.62-0.34-3.24-0.98-4.89
		c-0.08-0.2-0.11-0.45-0.08-0.64c0.03-0.14,0.06-0.28,0.11-0.39c0.03-0.11,0.11-0.2,0.2-0.25c0.06-0.08,0.14-0.11,0.25-0.08
		c0.08,0.03,0.17,0.08,0.22,0.17c0.06,0.08,0.11,0.2,0.14,0.31c0.17,0.5,0.39,0.98,0.62,1.51c0.11,0.25,0.28,0.48,0.5,0.73
		c0.11,0.11,0.2,0.2,0.31,0.28c0.11,0.06,0.25,0.06,0.36,0.06c0.17,0,0.28-0.06,0.42-0.14c0.17-0.08,0.36-0.2,0.56-0.31
		c0.28-0.17,0.53-0.42,0.75-0.7c0.67-0.75,1.15-1.51,1.62-2.24c0.14-0.25,0.28-0.48,0.36-0.7c0.06-0.17,0.08-0.34,0.08-0.53
		c0-0.14-0.06-0.28-0.14-0.42c-0.31-0.39-0.53-0.87-0.78-1.31c-0.06-0.14-0.14-0.25-0.28-0.34c-0.11-0.08-0.22-0.14-0.39-0.17
		c-0.14,0-0.28,0-0.45,0.03c-0.14,0.03-0.28,0.11-0.42,0.22c-0.17,0.17-0.39,0.34-0.64,0.48c-0.22,0.11-0.48,0.17-0.73,0.28
		c-0.11,0.03-0.22,0.08-0.34,0.08c-0.14,0-0.25-0.03-0.34-0.11c-0.08-0.08-0.17-0.2-0.2-0.31c0-0.11,0-0.22,0.06-0.34
		c0.06-0.14,0.14-0.25,0.22-0.39c0.17-0.31,0.36-0.59,0.59-0.81c0.5-0.48,1.03-0.89,1.59-1.26c0.5-0.31,1.06-0.48,1.59-0.64
		c1.06-0.34,2.12-0.48,3.24-0.48c1.26,0.03,2.52,0.36,3.77,0.75c0.25,0.08,0.53,0.11,0.78,0.25c0.34,0.2,0.73,0.39,1.01,0.7
		c1.26,1.37,2.26,2.88,3.61,4.45c0.17,0.17,0.31,0.39,0.34,0.64c0.11,0.75,0.2,1.51,0.17,2.26c-0.03,0.34-0.03,0.64,0.03,0.98
		c0.03,0.14,0.06,0.28,0.11,0.39c0.08,0.11,0.2,0.22,0.34,0.31c0.14,0.11,0.25,0.2,0.36,0.31c0.08,0.14,0.17,0.25,0.17,0.39
		c0,0.11-0.03,0.25-0.08,0.39l-0.28,0.84c-0.06,0.17-0.11,0.34-0.22,0.5c-0.11,0.17-0.25,0.31-0.42,0.42
		c-0.28,0.2-0.53,0.39-0.73,0.59c-0.31,0.34-0.64,0.73-0.89,1.15c-0.2,0.31-0.39,0.62-0.62,0.89c-0.08,0.11-0.17,0.2-0.28,0.25
		c-0.11,0.06-0.22,0.08-0.36,0.11c-0.7,0.06-1.4,0.14-2.1,0.28c-0.92,0.14-1.85,0.17-2.77,0.14c-0.14,0-0.25-0.03-0.39-0.06
		C111.39,79.12,111.28,79.03,111.25,78.92z M83.57,54.12c-0.06-0.06-0.08-0.17-0.03-0.31c0.03-0.11,0.08-0.2,0.14-0.28
		c0.28-0.53,0.53-1.09,0.92-1.68c0.39-0.53,0.75-0.98,1.03-1.4c0.11-0.17,0.22-0.36,0.42-0.56c0.31-0.31,0.59-0.62,0.87-0.87
		c0.78-0.78,1.68-1.43,2.49-1.96c0.22-0.17,0.48-0.31,0.73-0.45c0.11-0.06,0.22-0.11,0.34-0.11c0.11,0,0.2,0.03,0.25,0.08
		c0.06,0.08,0.11,0.17,0.11,0.28c0,0.08,0,0.2,0,0.31l-0.92,6.15c-0.03,0.11-0.06,0.22-0.11,0.34c-0.06,0.11-0.17,0.2-0.25,0.25
		c-0.11,0.06-0.22,0.08-0.36,0.08c-0.11,0-0.25,0-0.36,0c-0.48-0.06-0.92-0.03-1.37,0.14c-0.22,0.08-0.45,0.11-0.67,0.06
		c-0.31-0.08-0.62-0.17-0.95-0.17c-0.62-0.03-1.23,0-1.85,0.17C83.82,54.26,83.66,54.23,83.57,54.12z M105.77,79.4
		c0.08,0,0.2,0,0.31,0.06c0.11,0.06,0.2,0.14,0.28,0.2c0.48,0.34,0.92,0.64,1.31,0.95c0.22,0.17,0.42,0.42,0.59,0.64
		c0.08,0.08,0.17,0.2,0.25,0.31c0.06,0.08,0.11,0.17,0.11,0.22c0,0.08-0.03,0.11-0.08,0.14c-0.06,0.03-0.17,0.03-0.25,0
		c-0.08-0.06-0.2-0.08-0.28-0.14l-0.53-0.36c-0.34-0.22-0.59-0.5-0.81-0.75c-0.2-0.2-0.42-0.36-0.64-0.59
		c-0.11-0.11-0.2-0.22-0.25-0.31C105.69,79.56,105.69,79.45,105.77,79.4z M102.72,79.51c-0.06,0.08-0.17,0.14-0.28,0.14
		c-0.11,0.03-0.22,0.03-0.31,0c-0.87-0.2-1.71-0.31-2.54-0.39c-0.2-0.03-0.36-0.06-0.53-0.06c-0.17,0.03-0.31,0.08-0.45,0.2
		c-0.17,0.11-0.28,0.25-0.39,0.42c-0.08,0.17-0.17,0.34-0.22,0.5c-0.06,0.14-0.11,0.31-0.14,0.48c0,0.17,0.06,0.34,0.14,0.5
		c0.11,0.17,0.2,0.34,0.25,0.5c0.06,0.14,0.08,0.25,0.06,0.39c-0.03,0.11-0.06,0.25-0.17,0.34c-0.08,0.11-0.22,0.17-0.34,0.22
		c-0.14,0.06-0.28,0.11-0.42,0.14c-0.34,0.08-0.67,0.08-1.01,0.08c-0.28-0.03-0.53-0.06-0.78-0.17c-0.14-0.06-0.28-0.14-0.42-0.25
		c-0.14-0.14-0.25-0.31-0.34-0.48c-0.34-0.53-0.62-1.06-0.87-1.59c-0.22-0.48-0.39-0.95-0.62-1.48c-0.03-0.11-0.06-0.22-0.06-0.34
		c0-0.11,0.03-0.2,0.08-0.25c0.08-0.08,0.14-0.11,0.25-0.14c0.11,0,0.22,0,0.31,0l2.43,0.11c0.14,0.03,0.28,0.03,0.45,0
		c0.11,0,0.2-0.06,0.28-0.11c0.06-0.06,0.11-0.14,0.14-0.22c0-0.08-0.06-0.2-0.06-0.31c-0.03-0.08-0.03-0.2,0-0.28
		c0.03-0.06,0.11-0.14,0.22-0.2c0.11-0.03,0.2-0.06,0.31-0.08c0.2-0.03,0.36-0.03,0.53-0.03c0.92-0.06,1.85,0.17,2.77,0.36
		c0.31,0.06,0.62,0.17,0.92,0.31c0.14,0.03,0.25,0.11,0.34,0.2c0.11,0.08,0.17,0.17,0.2,0.28c0.06,0.14,0.06,0.25,0.03,0.36
		c0,0.17,0.06,0.31,0.14,0.45C102.72,79.28,102.75,79.42,102.72,79.51z M97.72,74.76c-0.06,0-0.06-0.08-0.06-0.25
		c0-0.11-0.03-0.2-0.08-0.25c-0.06-0.08-0.17-0.14-0.28-0.14c-0.08,0-0.17,0-0.28,0l-1.03,0.11c-0.11,0.03-0.22,0.03-0.31,0
		c-0.08-0.03-0.11-0.06-0.11-0.08c0.03-0.06,0.06-0.11,0.17-0.14c0.11-0.06,0.22-0.08,0.31-0.11c0.42-0.17,0.84-0.28,1.29-0.34
		c0.34-0.03,0.67-0.03,1.01-0.03c0.08,0,0.2,0.03,0.28,0.06c0.08,0.06,0.14,0.11,0.17,0.2c0.03,0.08,0,0.2-0.06,0.31
		c-0.06,0.11-0.11,0.2-0.2,0.28c-0.14,0.08-0.25,0.17-0.39,0.22C97.97,74.7,97.83,74.76,97.72,74.76z M78.18,61.42
		c-0.08,0.03-0.11,0-0.11-0.03c0-0.06,0-0.14,0.06-0.22c0.03-0.08,0.08-0.17,0.14-0.25c0.11-0.31,0.31-0.59,0.53-0.92
		c0.25-0.39,0.56-0.75,0.89-1.09c0.11-0.11,0.2-0.22,0.28-0.28c0.08-0.08,0.2-0.14,0.31-0.14c0.08,0,0.14,0.06,0.2,0.08
		c0.06,0.06,0.08,0.14,0.06,0.25c0,0.08-0.03,0.2-0.08,0.28c-0.08,0.08-0.14,0.2-0.22,0.28c-0.48,0.53-1.09,1.12-1.65,1.68
		C78.4,61.22,78.29,61.36,78.18,61.42z M93.55,74.7c0.08,0.03,0.08,0.06,0.06,0.11c-0.03,0.06-0.08,0.11-0.17,0.2
		c-0.11,0.06-0.2,0.08-0.28,0.14c-0.36,0.14-0.67,0.34-1.03,0.42c-0.42,0.11-0.87,0.08-1.31,0.08c-0.14,0-0.28-0.03-0.42-0.03
		c-0.11,0-0.22-0.03-0.28-0.08c-0.03-0.03-0.06-0.11,0-0.17c0.03-0.06,0.11-0.11,0.2-0.17c0.11-0.06,0.22-0.08,0.34-0.08
		c0.5-0.06,1.03-0.17,1.57-0.17c0.31,0,0.59-0.06,0.89-0.17C93.27,74.7,93.44,74.67,93.55,74.7z M89.69,70.53
		c0-0.11,0.08-0.25,0.2-0.34c0.08-0.08,0.2-0.11,0.28-0.14c0.11-0.06,0.2-0.08,0.28-0.17c0.11-0.08,0.2-0.22,0.39-0.31
		c0.45-0.2,0.89-0.45,1.37-0.78c0.17-0.11,0.34-0.25,0.48-0.42c0.14-0.14,0.22-0.31,0.28-0.48c0.22-1.01,0.39-2.04,0.73-3.05
		c0.08-0.28,0.08-0.59,0.08-0.89c0-0.14-0.03-0.28-0.11-0.39c-0.06-0.11-0.17-0.22-0.31-0.31c-0.14-0.08-0.28-0.14-0.42-0.22
		c-0.75-0.36-1.54-0.62-2.29-0.73c-0.22-0.03-0.42-0.03-0.64,0c-0.17,0.03-0.34,0.11-0.5,0.22c-0.28,0.2-0.5,0.42-0.78,0.67
		c-1.12,1.01-1.98,2.15-2.71,3.33c-0.14,0.2-0.28,0.39-0.36,0.64c-0.08,0.17-0.14,0.36-0.11,0.56c0,0.17,0.06,0.36,0.17,0.56
		c0.14,0.28,0.31,0.5,0.5,0.75c0.2,0.2,0.34,0.45,0.42,0.7c0.06,0.11,0.08,0.22,0.08,0.36c0,0.11-0.03,0.2-0.08,0.28
		c-0.06,0.08-0.11,0.14-0.22,0.17c-0.08,0.03-0.2,0-0.31,0c-0.11-0.03-0.25-0.06-0.39-0.06c-0.2-0.06-0.36-0.14-0.5-0.25
		c-0.59-0.39-1.23-0.87-1.85-1.37c-0.2-0.14-0.39-0.28-0.56-0.42c-0.14-0.14-0.22-0.28-0.34-0.45c-0.11-0.25-0.31-0.5-0.28-0.75
		c0.17-2.21,0.31-4.45,0.28-6.65c0-0.14,0.08-0.28,0.17-0.42c0.08-0.14,0.2-0.25,0.31-0.34c0.14-0.14,0.34-0.22,0.5-0.28l1.65-0.45
		c0.17-0.06,0.34-0.08,0.53-0.14c0.17-0.08,0.34-0.22,0.5-0.36c0.89-0.89,1.87-1.85,2.74-2.77c0.2-0.2,0.42-0.42,0.7-0.59
		c0.2-0.17,0.42-0.22,0.62-0.25c2.07-0.31,4.19-0.53,6.26-0.28c0.31,0.03,0.62,0.11,0.95,0.25c0.81,0.34,1.59,0.92,2.4,1.48
		c0.5,0.34,1.01,0.7,1.43,1.12c0.39,0.39,0.7,0.87,0.98,1.29c0.14,0.25,0.28,0.5,0.34,0.78c0.08,0.42,0.03,0.87,0.11,1.29
		c0.17,0.7,0.31,1.37,0.34,2.07c0,0.17-0.03,0.34-0.08,0.48c-0.06,0.14-0.14,0.25-0.25,0.36c-0.08,0.08-0.17,0.14-0.28,0.17
		c-0.08,0.03-0.2,0-0.25-0.06c-0.11-0.06-0.17-0.14-0.2-0.25c-0.06-0.11-0.08-0.22-0.08-0.31c-0.03-0.22-0.06-0.42-0.11-0.64
		c-0.08-0.28-0.22-0.53-0.42-0.78c-0.14-0.2-0.31-0.36-0.5-0.48c-0.17-0.11-0.36-0.22-0.56-0.34c-0.22-0.11-0.45-0.17-0.64-0.17
		c-0.48,0-0.92,0.06-1.37,0.14c-0.45,0.11-0.92,0.25-1.37,0.53c-0.14,0.06-0.25,0.14-0.36,0.22c-0.11,0.11-0.2,0.22-0.22,0.34
		c-0.06,0.14-0.06,0.28-0.03,0.39c0.06,0.14,0.08,0.28,0.2,0.42c0.5,0.7,0.95,1.4,1.34,1.98c0.17,0.22,0.39,0.45,0.64,0.67
		c0.25,0.22,0.48,0.42,0.7,0.5c0.14,0.06,0.28,0.14,0.39,0.22c0.08,0.08,0.17,0.17,0.2,0.28c0.03,0.14,0,0.28-0.03,0.39
		c-0.06,0.17-0.14,0.31-0.25,0.45c-0.22,0.34-0.5,0.7-0.84,1.03c-0.48,0.45-0.89,0.78-1.37,1.09c-0.34,0.22-0.64,0.45-0.95,0.48
		l-4.36,0.45c-0.25,0.03-0.5,0.17-0.75,0.28c-0.25,0.11-0.53,0.08-0.78,0.08c-0.14-0.03-0.25-0.03-0.36-0.08
		C89.83,70.81,89.72,70.7,89.69,70.53z M93.92,83.48c-0.03,0.06-0.06,0.11-0.11,0.17c-0.08,0.11-0.2,0.2-0.34,0.28l-0.81,0.53
		c-0.25,0.2-0.48,0.34-0.64,0.59c-0.11,0.14-0.25,0.34-0.39,0.48c-0.14,0.11-0.25,0.22-0.39,0.25s-0.28,0-0.42-0.03
		c-0.48-0.14-0.95-0.22-1.43-0.45c-0.14-0.06-0.31-0.11-0.42-0.2c-0.11-0.06-0.2-0.14-0.25-0.22c-0.03-0.11-0.03-0.22-0.03-0.34
		c0-0.11,0.06-0.22,0.08-0.36c0.28-1.06,0.64-2.12,1.2-3.16c0.11-0.22,0.2-0.45,0.31-0.59c0.11-0.11,0.22-0.22,0.34-0.31
		c0.08-0.06,0.17-0.11,0.28-0.14c0.14,0,0.25,0,0.36,0.06c0.11,0.06,0.22,0.17,0.36,0.28c0.2,0.2,0.42,0.36,0.64,0.53
		c0.36,0.31,0.73,0.75,1.12,1.23c0.22,0.31,0.39,0.59,0.5,0.89C93.94,83.14,93.97,83.31,93.92,83.48z M83.43,86.25
		c0.03,0.11,0.08,0.2,0.22,0.28c0.08,0.08,0.2,0.14,0.31,0.17l1.23,0.5l0.45,0.14c0.11,0.06,0.2,0.11,0.25,0.2
		c0.08,0.06,0.11,0.14,0.08,0.25c-0.03,0.11-0.08,0.22-0.17,0.31c-0.08,0.11-0.2,0.2-0.31,0.28c-0.14,0.08-0.28,0.17-0.42,0.22
		c-0.22,0.08-0.45,0.11-0.67,0.08c-0.28,0-0.56-0.08-0.84-0.2c-0.42-0.17-0.81-0.42-1.17-0.67c-0.25-0.2-0.5-0.45-0.67-0.73
		c-1.82-2.6-3.77-5.2-5.2-8.11c-0.11-0.17-0.22-0.34-0.31-0.48c-0.08-0.17-0.06-0.34-0.06-0.5c0.03-3.61-0.06-7.18,0.48-10.79
		c0.06-0.45,0.22-0.92,0.39-1.37c0.08-0.17,0.2-0.34,0.36-0.48c0.17-0.2,0.39-0.34,0.59-0.5c0.45-0.36,0.78-0.78,1.17-1.29
		c0.08-0.11,0.17-0.22,0.25-0.36c0.06-0.08,0.17-0.17,0.25-0.2c0.11-0.03,0.2-0.03,0.28,0.03c0.08,0.06,0.14,0.14,0.2,0.25
		c0.06,0.11,0.11,0.2,0.14,0.31c0.14,0.36,0.22,0.7,0.22,1.06c0.03,1.48,0.06,2.96-0.17,4.47c-0.03,0.28,0.06,0.59,0.17,0.87
		c0.62,1.34,1.23,2.71,1.96,3.94c0.08,0.11,0.11,0.22,0.17,0.36c0.03,0.08,0.03,0.2,0,0.28c-0.03,0.06-0.11,0.11-0.2,0.17
		c-0.11,0.03-0.22,0.08-0.31,0.08c-0.25,0.06-0.5,0.08-0.75,0.11c-0.14,0-0.28,0.03-0.39,0.11c-0.14,0.08-0.25,0.2-0.34,0.36
		c-0.25,0.56-0.64,1.15-1.15,1.73c-0.08,0.11-0.17,0.25-0.25,0.39c-0.06,0.11-0.06,0.2-0.06,0.28c0,0.11,0.06,0.17,0.14,0.22
		c0.08,0.03,0.2,0.06,0.31,0.03c0.11,0,0.2-0.03,0.31-0.08c0.42-0.2,0.84-0.39,1.26-0.5c0.59-0.2,1.15-0.17,1.71-0.22
		c0.64-0.08,1.23-0.08,1.87,0.03c0.28,0.06,0.53,0.17,0.84,0.34c0.17,0.08,0.34,0.17,0.5,0.28c0.14,0.08,0.25,0.2,0.34,0.34
		c0.11,0.11,0.14,0.25,0.14,0.39c0,0.11,0,0.25,0.03,0.36c0,0.11,0.06,0.22,0.14,0.31c0.11,0.08,0.2,0.11,0.31,0.14
		c0.11,0,0.22-0.03,0.36-0.08c0.22-0.06,0.42-0.11,0.64-0.17c0.11-0.03,0.22-0.06,0.34-0.06c0.08,0,0.17,0,0.22,0.06
		c0.03,0.06,0.03,0.14,0,0.22c-0.03,0.08-0.08,0.17-0.14,0.25c-0.11,0.22-0.22,0.45-0.31,0.7c-0.25,0.89-0.31,1.76-0.31,2.66
		c0,0.5,0.06,1.03-0.03,1.54c-0.03,0.17-0.08,0.31-0.17,0.45c-0.06,0.11-0.17,0.25-0.31,0.31c-0.11,0.06-0.22,0.08-0.34,0.08
		c-0.98,0.11-1.96,0.17-2.94,0.36c-0.14,0-0.25,0.08-0.36,0.11C83.57,85.99,83.46,86.11,83.43,86.25z"/>
	<path class="st3" d="M125.2,107.08c-0.12,0-0.27-0.15-0.38-0.42l-0.42-0.88c-0.38-0.8-0.73-1.53-1-2.22
		c-0.08-0.19-0.12-0.38-0.12-0.57c0-0.19,0.04-0.34,0.12-0.5c0.08-0.15,0.19-0.31,0.27-0.42c0.12-0.19,0.15-0.38,0.19-0.61
		c0-0.15,0-0.31,0-0.46c0-0.19,0-0.34-0.11-0.46c-0.08-0.11-0.15-0.19-0.31-0.23c-0.15-0.04-0.31-0.04-0.46-0.04h-3.79
		c-0.15,0-0.31,0-0.42,0c-0.15,0.04-0.27,0.12-0.34,0.23c-0.08,0.12-0.12,0.27-0.12,0.42l-0.04,0.69c0,0.19,0.04,0.42,0.15,0.57
		c0.11,0.19,0.27,0.38,0.46,0.58c0.27,0.27,0.31,0.57,0.46,0.84l3.83,7.51c0.27,0.57,0.23,1.23,0.19,1.84
		c-0.04,0.77-0.12,1.49-0.12,2.26c0,0.23-0.08,0.42-0.19,0.61c-0.12,0.19-0.27,0.31-0.38,0.42c-0.15,0.15-0.34,0.27-0.46,0.42
		c-0.11,0.15-0.19,0.34-0.23,0.54c-0.04,0.15-0.04,0.31,0.04,0.5c0.04,0.15,0.12,0.27,0.27,0.38c0.15,0.12,0.27,0.15,0.42,0.15
		c0.23,0.04,0.42,0.04,0.65,0.04h3.1c0.15,0,0.27,0,0.42-0.04c0.15-0.04,0.27-0.12,0.34-0.19c0.08-0.12,0.11-0.27,0.11-0.42
		c0.04-0.15,0.04-0.34,0.04-0.5c0-0.19-0.04-0.34-0.15-0.5c-0.08-0.15-0.23-0.23-0.38-0.34c-0.15-0.15-0.31-0.27-0.38-0.46
		c-0.12-0.19-0.19-0.42-0.19-0.61c-0.08-1.46-0.12-2.91,0-4.37c0.04-0.5,0.42-0.96,0.65-1.53c0.84-1.99,2.03-3.99,3.3-5.98
		c0.23-0.31,0.46-0.57,0.73-0.81c0.15-0.19,0.31-0.38,0.38-0.57c0.08-0.23,0.08-0.42,0.08-0.65c-0.04-0.12,0-0.27-0.04-0.42
		c-0.04-0.15-0.08-0.31-0.19-0.42c-0.08-0.08-0.23-0.15-0.38-0.19c-0.15,0-0.34,0-0.5,0h-2.45c-0.15,0-0.31,0-0.46,0.08
		c-0.15,0.04-0.31,0.12-0.38,0.27c-0.11,0.15-0.15,0.31-0.19,0.46c0,0.23,0.04,0.42,0.12,0.57c0.08,0.19,0.23,0.34,0.34,0.54
		c0.08,0.15,0.15,0.34,0.15,0.54c0,0.19-0.08,0.38-0.15,0.57l-1.49,3.14c-0.04,0.15-0.15,0.31-0.23,0.42
		C125.46,107,125.31,107.08,125.2,107.08z"/>
	<path class="st3" d="M111.28,107.51c-0.08-0.08-0.12-0.15-0.15-0.31c-0.04-0.12-0.04-0.27-0.04-0.42v-2.95c0-0.19,0-0.34,0.08-0.5
		c0.04-0.15,0.12-0.27,0.23-0.38c0.15-0.08,0.31-0.15,0.46-0.15c0.19,0,0.34,0,0.5,0c0.27,0,0.5,0.12,0.73,0.23
		c0.23,0.08,0.38,0.27,0.54,0.38c0.19,0.23,0.34,0.46,0.5,0.69c0.12,0.27,0.19,0.5,0.19,0.77c0.04,0.34,0,0.69-0.08,1
		c-0.08,0.31-0.19,0.57-0.38,0.84c-0.19,0.23-0.38,0.46-0.61,0.65c-0.19,0.11-0.42,0.19-0.61,0.27c-0.23,0.04-0.5,0.04-0.73,0.08
		C111.66,107.7,111.43,107.67,111.28,107.51z M107.07,118.09c0.11,0.11,0.36,0.17,0.59,0.17h3.67c0.15,0,0.31-0.02,0.5-0.09
		c0.11-0.04,0.23-0.12,0.34-0.23c0.08-0.15,0.11-0.31,0.15-0.46c0-0.23,0-0.42-0.08-0.65c-0.08-0.15-0.19-0.34-0.34-0.5
		c-0.19-0.15-0.34-0.27-0.5-0.42c-0.11-0.15-0.19-0.31-0.23-0.5c0-0.19,0.04-0.38,0-0.57c-0.12-1.15-0.12-2.26-0.04-3.41
		c0-0.15,0-0.27,0.04-0.42c0-0.15,0.04-0.27,0.15-0.34c0.08-0.08,0.19-0.15,0.34-0.15c0.15-0.04,0.34,0,0.54,0
		c0.84,0.04,1.72-0.04,2.61-0.27c0.31-0.08,0.61-0.15,0.88-0.34c0.23-0.15,0.46-0.38,0.69-0.58c0.34-0.27,0.65-0.61,0.88-0.96
		c0.15-0.19,0.27-0.38,0.34-0.61c0.19-0.57,0.34-1.19,0.34-1.76c0.04-0.69,0.08-1.38-0.08-2.07c-0.12-0.46-0.31-0.88-0.57-1.34
		c-0.15-0.31-0.34-0.61-0.61-0.84c-0.38-0.31-0.71-0.61-1.03-0.77c-1.42-0.7-2.58-0.7-5.26-0.7h-2.49c-0.11,0-0.27,0-0.42,0.04
		c-0.15,0.04-0.28,0.07-0.34,0.23c-0.05,0.11-0.03,0.11-0.06,0.23c-0.05,0.23-0.11,0.39-0.09,0.62c0.02,0.19,0.04,0.38,0.15,0.54
		c0.08,0.19,0.19,0.34,0.31,0.46c0.19,0.15,0.34,0.31,0.42,0.5c0.08,0.19,0.15,0.38,0.15,0.57l0.04,11.58c0,0.19,0,0.34-0.08,0.5
		c-0.04,0.19-0.15,0.31-0.27,0.42c-0.15,0.11-0.31,0.23-0.46,0.34c-0.15,0.11-0.23,0.27-0.31,0.46c-0.04,0.15-0.04,0.34-0.04,0.54
		v0.42C106.91,117.86,106.95,117.98,107.07,118.09z"/>
	<path class="st3" d="M71.38,131.88c-0.08-0.08-0.12-0.15-0.15-0.31c-0.04-0.12-0.04-0.27-0.04-0.42v-2.95c0-0.19,0-0.34,0.08-0.5
		c0.04-0.15,0.12-0.27,0.23-0.38c0.15-0.08,0.31-0.15,0.46-0.15c0.19,0,0.34,0,0.5,0c0.27,0,0.5,0.12,0.73,0.23
		c0.23,0.08,0.38,0.27,0.54,0.38c0.19,0.23,0.34,0.46,0.5,0.69c0.12,0.27,0.19,0.5,0.19,0.77c0.04,0.35,0,0.69-0.08,1
		c-0.08,0.31-0.19,0.57-0.38,0.84c-0.19,0.23-0.38,0.46-0.61,0.65c-0.19,0.11-0.42,0.19-0.61,0.27c-0.23,0.04-0.5,0.04-0.73,0.08
		C71.76,132.08,71.53,132.04,71.38,131.88z M67.16,142.46c0.11,0.11,0.36,0.17,0.59,0.17h3.67c0.15,0,0.31-0.02,0.5-0.09
		c0.11-0.04,0.23-0.12,0.34-0.23c0.08-0.15,0.11-0.31,0.15-0.46c0-0.23,0-0.42-0.08-0.65c-0.08-0.15-0.19-0.34-0.34-0.5
		c-0.19-0.15-0.34-0.27-0.5-0.42c-0.11-0.15-0.19-0.31-0.23-0.5c0-0.19,0.04-0.38,0-0.57c-0.12-1.15-0.12-2.26-0.04-3.41
		c0-0.15,0-0.27,0.04-0.42c0-0.15,0.04-0.27,0.15-0.34c0.08-0.08,0.19-0.15,0.34-0.15c0.15-0.04,0.34,0,0.54,0
		c0.84,0.04,1.72-0.04,2.61-0.27c0.31-0.08,0.61-0.15,0.88-0.34c0.23-0.15,0.46-0.38,0.69-0.58c0.34-0.27,0.65-0.61,0.88-0.96
		c0.15-0.19,0.27-0.38,0.34-0.61c0.19-0.57,0.34-1.19,0.34-1.76c0.04-0.69,0.08-1.38-0.08-2.07c-0.12-0.46-0.31-0.88-0.57-1.34
		c-0.15-0.31-0.35-0.61-0.61-0.84c-0.38-0.31-0.71-0.61-1.03-0.77c-1.42-0.7-2.58-0.7-5.26-0.7H68c-0.11,0-0.27,0-0.42,0.04
		c-0.15,0.04-0.28,0.07-0.34,0.23c-0.05,0.11-0.03,0.11-0.06,0.23c-0.05,0.23-0.11,0.39-0.09,0.62c0.02,0.19,0.04,0.38,0.15,0.54
		c0.08,0.19,0.19,0.34,0.31,0.46c0.19,0.15,0.35,0.31,0.42,0.5c0.08,0.19,0.15,0.38,0.15,0.57l0.04,11.58c0,0.19,0,0.34-0.08,0.5
		c-0.04,0.19-0.15,0.31-0.27,0.42c-0.15,0.11-0.31,0.23-0.46,0.34c-0.15,0.11-0.23,0.27-0.31,0.46c-0.04,0.15-0.04,0.34-0.04,0.54
		v0.42C67.01,142.23,67.05,142.35,67.16,142.46z"/>
	<path class="st3" d="M99.6,107.51c-0.08-0.08-0.12-0.15-0.15-0.31c-0.04-0.12-0.04-0.27-0.04-0.42v-2.95c0-0.19,0-0.34,0.08-0.5
		c0.04-0.15,0.12-0.27,0.23-0.38c0.15-0.08,0.31-0.15,0.46-0.15c0.19,0,0.34,0,0.5,0c0.27,0,0.5,0.12,0.73,0.23
		c0.23,0.08,0.38,0.27,0.54,0.38c0.19,0.23,0.34,0.46,0.5,0.69c0.12,0.27,0.19,0.5,0.19,0.77c0.04,0.34,0,0.69-0.08,1
		c-0.08,0.31-0.19,0.57-0.38,0.84c-0.19,0.23-0.38,0.46-0.61,0.65c-0.19,0.11-0.42,0.19-0.61,0.27c-0.23,0.04-0.5,0.04-0.73,0.08
		C99.98,107.7,99.75,107.67,99.6,107.51z M95.38,118.09c0.11,0.11,0.36,0.17,0.59,0.17h3.67c0.15,0,0.31-0.02,0.5-0.09
		c0.11-0.04,0.23-0.12,0.34-0.23c0.08-0.15,0.11-0.31,0.15-0.46c0-0.23,0-0.42-0.08-0.65c-0.08-0.15-0.19-0.34-0.34-0.5
		c-0.19-0.15-0.34-0.27-0.5-0.42c-0.11-0.15-0.19-0.31-0.23-0.5c0-0.19,0.04-0.38,0-0.57c-0.12-1.15-0.12-2.26-0.04-3.41
		c0-0.15,0-0.27,0.04-0.42c0-0.15,0.04-0.27,0.15-0.34c0.08-0.08,0.19-0.15,0.34-0.15c0.15-0.04,0.34,0,0.54,0
		c0.84,0.04,1.72-0.04,2.61-0.27c0.31-0.08,0.61-0.15,0.88-0.34c0.23-0.15,0.46-0.38,0.69-0.58c0.34-0.27,0.65-0.61,0.88-0.96
		c0.15-0.19,0.27-0.38,0.34-0.61c0.19-0.57,0.34-1.19,0.34-1.76c0.04-0.69,0.08-1.38-0.08-2.07c-0.12-0.46-0.31-0.88-0.57-1.34
		c-0.15-0.31-0.35-0.61-0.61-0.84c-0.38-0.31-0.71-0.61-1.03-0.77c-1.42-0.7-2.58-0.7-5.26-0.7h-2.49c-0.11,0-0.27,0-0.42,0.04
		c-0.15,0.04-0.28,0.07-0.34,0.23c-0.05,0.11-0.03,0.11-0.06,0.23c-0.05,0.23-0.11,0.39-0.09,0.62c0.02,0.19,0.04,0.38,0.15,0.54
		c0.08,0.19,0.19,0.34,0.31,0.46c0.19,0.15,0.35,0.31,0.42,0.5s0.15,0.38,0.15,0.57l0.04,11.58c0,0.19,0,0.34-0.08,0.5
		c-0.04,0.19-0.15,0.31-0.27,0.42c-0.15,0.11-0.31,0.23-0.46,0.34c-0.15,0.11-0.23,0.27-0.31,0.46c-0.04,0.15-0.04,0.34-0.04,0.54
		v0.42C95.23,117.86,95.27,117.98,95.38,118.09z"/>
	<path class="st3" d="M87.48,107.92c0.11,0,0.23,0.08,0.31,0.27c0.08,0.11,0.12,0.27,0.19,0.42c0.27,0.57,0.5,1.19,0.65,1.76
		c0.04,0.15,0.08,0.31,0.12,0.5c0,0.12,0,0.27-0.08,0.34c-0.08,0.12-0.15,0.19-0.27,0.23c-0.15,0.04-0.31,0.04-0.46,0.04h-0.61
		c-0.15,0-0.31,0-0.46-0.04c-0.15,0-0.27-0.08-0.38-0.15c-0.08-0.08-0.15-0.19-0.15-0.34c0-0.15,0.04-0.27,0.08-0.42
		c0.15-0.54,0.27-1.03,0.42-1.53c0.08-0.23,0.19-0.42,0.27-0.61C87.17,108.11,87.32,107.96,87.48,107.92z M87.86,99.8
		c-0.19,0-0.34,0.19-0.5,0.42c-0.27,0.42-0.54,0.69-0.77,0.92c-0.19,0.19-0.31,0.42-0.38,0.65c-0.12,0.31-0.23,0.65-0.23,1.03
		c0.04,0.34,0.15,0.69,0.23,1.03c0.08,0.27,0.08,0.5,0,0.77c-0.12,0.27-0.31,0.54-0.42,0.88c-0.89,2.54-2.31,5.91-3.68,10
		c-0.07,0.22-0.15,0.38-0.34,0.61c-0.12,0.15-0.23,0.31-0.38,0.42c-0.15,0.08-0.31,0.12-0.42,0.08c-0.19-0.04-0.31-0.15-0.5-0.23
		c-0.15-0.08-0.31-0.11-0.42-0.23c-0.15-0.08-0.31-0.19-0.38-0.34c-0.12-0.15-0.19-0.34-0.23-0.5c-0.12-0.38-0.15-0.77-0.15-1.15
		l0.15-11.61c0-0.15,0.04-0.31,0.08-0.46c0.08-0.15,0.15-0.31,0.27-0.38c0.11-0.11,0.27-0.15,0.42-0.19
		c0.15-0.04,0.31-0.08,0.46-0.19c0.12-0.08,0.19-0.23,0.23-0.38c0.04-0.15,0.04-0.31,0.04-0.5c0-0.15,0-0.31-0.04-0.42
		c-0.04-0.15-0.12-0.27-0.19-0.34c-0.12-0.08-0.27-0.12-0.42-0.15c-0.19-0.04-0.42,0-0.61,0.04c-0.34,0.08-0.77-0.04-1.19-0.04
		l-2.64-0.04c-0.15,0-0.31,0-0.46,0.04c-0.12,0.04-0.23,0.12-0.34,0.27c-0.12,0.11-0.15,0.27-0.19,0.42c-0.04,0.19,0,0.38,0.08,0.57
		c0.12,0.27,0.27,0.57,0.46,0.81c0.15,0.15,0.31,0.31,0.42,0.42c0.15,0.15,0.23,0.27,0.27,0.46c0.08,0.15,0.08,0.34,0.08,0.54
		c-0.08,1.26,0,2.53,0.15,3.83c0,0.15,0,0.31-0.04,0.42c-0.04,0.12-0.11,0.23-0.23,0.27c-0.15,0.08-0.31,0.12-0.46,0.15
		c-0.65,0.11-1.3,0.15-1.95,0.08c-0.38-0.04-0.77,0.04-1.15,0.08c-0.15,0-0.31-0.04-0.46-0.08c-0.11,0-0.23-0.08-0.34-0.19
		c-0.11-0.11-0.15-0.23-0.19-0.42c-0.04-0.19,0-0.38-0.04-0.57c0-1.3,0.08-2.61,0.15-3.91c0-0.23,0.08-0.46,0.19-0.65
		c0.12-0.19,0.19-0.34,0.31-0.46c0.15-0.11,0.31-0.15,0.46-0.23c0.15-0.04,0.27-0.08,0.34-0.19c0.08-0.08,0.08-0.23,0.08-0.38v-0.5
		c0-0.15-0.04-0.31-0.11-0.42c-0.04-0.15-0.15-0.23-0.31-0.27c-0.15-0.08-0.31-0.08-0.46-0.08h-4.14c-0.15,0-0.31,0-0.46,0.04
		c-0.12,0.04-0.23,0.12-0.31,0.27c-0.08,0.11-0.12,0.27-0.12,0.42c0,0.19,0,0.34,0.08,0.5c0.11,0.19,0.19,0.34,0.34,0.42
		c0.15,0.08,0.31,0.19,0.46,0.27c0.15,0.08,0.31,0.19,0.42,0.38c0.12,0.19,0.19,0.38,0.27,0.57c0.08,0.31,0.04,0.61,0.04,0.92v11.65
		c0,0.19-0.04,0.38-0.15,0.57c-0.08,0.19-0.23,0.38-0.38,0.54c-0.19,0.15-0.34,0.31-0.5,0.38c-0.19,0.08-0.31,0.23-0.42,0.34
		c-0.08,0.15-0.12,0.31-0.15,0.5c-0.05,0.2,0.03,0.98,0.28,0.98c0.72,0,4.15,0,5.22,0c0.33,0,0.46-0.8,0.48-0.94
		c0.02-0.16,0-0.31-0.08-0.46c-0.08-0.15-0.15-0.31-0.31-0.38c-0.12-0.12-0.27-0.15-0.38-0.23c-0.15-0.08-0.31-0.19-0.42-0.31
		c-0.11-0.15-0.15-0.34-0.19-0.54c-0.15-0.73-0.15-1.46-0.19-2.18c0-0.96,0-1.92,0.15-2.87c0.04-0.15,0-0.34,0.04-0.46
		c0.04-0.15,0.12-0.27,0.23-0.38c0.08-0.08,0.23-0.12,0.38-0.15c0.19-0.08,0.42-0.08,0.65-0.08h2.45c0.15,0,0.27,0,0.42,0.08
		c0.15,0.04,0.31,0.11,0.42,0.23c0.12,0.15,0.15,0.31,0.19,0.46c0.04,0.23,0,0.42,0,0.65v4.48c0,0.15,0,0.31-0.08,0.46
		c-0.08,0.19-0.15,0.34-0.31,0.42c-0.15,0.12-0.31,0.19-0.46,0.27c-0.15,0.11-0.34,0.19-0.46,0.35c-0.11,0.15-0.15,0.34-0.19,0.5
		c-0.04,0.19-0.04,0.38,0,0.54c0,0.15,0.07,0.28,0.15,0.38c0.07,0.08,0.23,0.18,0.38,0.18c2.89,0,6.18,0,8.93,0.01
		c0.11,0,0.27,0,0.42-0.04c0.15-0.04,0.27-0.11,0.34-0.23c0.12-0.12,0.15-0.23,0.15-0.38s-0.04-0.34-0.12-0.5
		c-0.11-0.23-0.27-0.5-0.34-0.77c-0.11-0.27-0.08-0.57,0-0.84c0.04-0.19,0.08-0.38,0.12-0.57c0.08-0.15,0.12-0.34,0.23-0.5
		c0.08-0.12,0.23-0.23,0.38-0.31c0.15-0.04,0.31-0.08,0.46-0.08h2.99c0.15,0,0.31,0,0.46,0.04c0.15,0.08,0.27,0.15,0.35,0.27
		c0.08,0.15,0.11,0.31,0.15,0.46c0.57,1.69,1.15,3.37,1.99,4.91c0.46,0.77,0.96,1.46,1.53,2.07c0.54,0.65,1.23,1.19,2.07,1.8
		c0.34,0.23,0.65,0.5,1,0.65c0.38,0.15,0.81,0.27,1.23,0.31c0.54,0.08,1.07-0.08,1.61-0.23c0.38-0.12,0.73-0.31,1.07-0.54
		c0.23-0.15,0.42-0.34,0.61-0.54c0.19-0.23,0.31-0.46,0.38-0.73c0.12-0.27,0.12-0.57,0.08-0.84c-0.04-0.23-0.08-0.42-0.12-0.61
		c-0.04-0.19-0.12-0.31-0.19-0.46c-0.12-0.15-0.19-0.27-0.34-0.31c-0.15-0.08-0.31-0.12-0.5-0.12c-0.15,0-0.34,0-0.5,0.04
		c-0.15,0.04-0.31,0.12-0.42,0.23c-0.15,0.12-0.23,0.27-0.31,0.46c-0.08,0.15-0.08,0.31-0.15,0.46c-0.04,0.19-0.12,0.31-0.23,0.42
		c-0.11,0.15-0.27,0.23-0.42,0.23c-0.19,0-0.34-0.04-0.5-0.08c-0.27-0.08-0.54-0.23-0.73-0.38c-0.27-0.23-0.5-0.5-0.73-0.77
		c-0.61-0.92-1.3-1.84-1.69-2.8c-2.38-5.79-4.29-11.69-6.29-17.59c-0.04-0.15-0.12-0.27-0.23-0.38
		C88.13,99.87,88.01,99.8,87.86,99.8z"/>
	<path class="st3" d="M83.07,132.19c0.08,0,0.19,0.04,0.27,0.19c0.08,0.12,0.12,0.27,0.15,0.42l0.8,1.99
		c0.04,0.15,0.08,0.31,0.12,0.46c0.04,0.11,0,0.27-0.08,0.34c-0.04,0.08-0.15,0.15-0.27,0.19c-0.15,0-0.31,0-0.42,0l-0.77-0.04
		c-0.19,0-0.34,0-0.5-0.04c-0.12-0.04-0.19-0.08-0.27-0.15c-0.08-0.11-0.11-0.23-0.08-0.34c0-0.15,0.04-0.27,0.08-0.38
		c0.19-0.69,0.42-1.46,0.65-2.22C82.84,132.38,82.96,132.19,83.07,132.19z M100.4,134.15c-0.12-0.04-0.27-0.23-0.38-0.46l-4.18-8.01
		c-0.08-0.19-0.19-0.34-0.31-0.5c-0.11-0.12-0.27-0.23-0.46-0.27c-0.15,0-0.34,0-0.5,0h-2.64c-0.15,0-0.31,0-0.42,0.04
		c-0.15,0.04-0.27,0.12-0.34,0.19c-0.08,0.12-0.12,0.23-0.15,0.38c0,0.19,0,0.34,0,0.54c0,0.15,0.04,0.34,0.08,0.5
		c0.08,0.15,0.19,0.27,0.38,0.38c0.15,0.12,0.34,0.23,0.42,0.38c0.11,0.15,0.19,0.31,0.19,0.5c-0.04,1.88-0.04,3.76,0.04,5.52
		c0,0.38,0.04,0.77,0.08,1.15c0.08,0.31-0.04,0.65-0.08,1c-0.12,0.8-0.08,1.57,0.08,2.38c0.08,0.34-0.08,0.69-0.11,1.03
		c-0.04,0.31,0,0.65,0,1c0,0.15-0.08,0.31-0.12,0.46c-0.08,0.19-0.15,0.34-0.27,0.46c-0.12,0.12-0.27,0.19-0.42,0.23
		c-0.15,0.04-0.34,0.08-0.5,0.04c-0.23-0.08-0.46-0.15-0.69-0.27c-0.15-0.12-0.31-0.19-0.42-0.35c-0.08-0.15-0.19-0.34-0.23-0.54
		L84.3,125.1c-0.04-0.15-0.08-0.34-0.19-0.46c-0.08-0.12-0.19-0.23-0.34-0.27c-0.15-0.08-0.31-0.04-0.46,0.04
		c-0.15,0.08-0.34,0.19-0.5,0.38c-0.15,0.23-0.31,0.42-0.42,0.61c-0.23,0.31-0.38,0.54-0.54,0.8c-0.15,0.31-0.23,0.61-0.23,0.96
		c0,0.38,0.11,0.77,0.19,1.19c0.08,0.31-0.04,0.57-0.15,0.92l-3.91,10.66c-0.08,0.23-0.19,0.46-0.34,0.61
		c-0.11,0.11-0.27,0.19-0.38,0.31c-0.15,0.08-0.23,0.19-0.31,0.34c-0.04,0.15-0.08,0.31-0.08,0.46c0,0.15,0.04,0.31,0.12,0.46
		c0.08,0.12,0.15,0.23,0.31,0.31c0.11,0.08,0.27,0.15,0.42,0.19c0.23,0.04,0.46,0,0.69,0h1.84c0.11,0,0.27,0,0.42-0.04
		c0.15-0.04,0.27-0.12,0.34-0.23c0.08-0.11,0.15-0.23,0.15-0.38c0.04-0.19,0-0.34-0.04-0.5c-0.08-0.19-0.19-0.35-0.31-0.54
		c-0.12-0.19-0.19-0.42-0.15-0.65c0-0.31,0.04-0.57,0.15-0.88c0.04-0.15,0.08-0.31,0.15-0.46c0.08-0.15,0.15-0.31,0.27-0.38
		c0.12-0.08,0.27-0.15,0.42-0.15H82h2.68c0.15,0,0.34,0,0.46,0.04c0.15,0.04,0.31,0.12,0.38,0.23c0.08,0.12,0.15,0.27,0.23,0.46
		c0.12,0.27,0.23,0.57,0.35,0.84c0.04,0.23,0.04,0.46,0,0.69c-0.04,0.23-0.17,0.41-0.31,0.61c-0.09,0.14-0.24-0.1-0.29,0.01
		c-0.07,0.16-0.08,0.35-0.04,0.5c0.04,0.15,0.12,0.22,0.27,0.34c0.16,0.14,0.34,0.25,0.54,0.34c0.26,0.13,0.58,0.17,0.84,0.15
		c2.49-0.14,4.98-0.15,7.47-0.15c0.15,0,0.31-0.02,0.46-0.08c0.16-0.06,0.28-0.15,0.34-0.27c0.08-0.15,0.15-0.27,0.15-0.46
		c0-0.15-0.03,0.07-0.1-0.09c-0.08-0.19-0.23-0.34-0.38-0.46c-0.15-0.15-0.34-0.31-0.46-0.46c-0.08-0.19-0.15-0.38-0.19-0.57
		c-0.08-0.69-0.08-1.34-0.08-2.03c-0.08-2.07-0.12-4.18,0.08-6.25c0-0.15,0-0.31,0-0.42c0.04-0.15,0.12-0.23,0.15-0.27
		c0.08-0.04,0.19-0.04,0.31,0.04c0.08,0.12,0.12,0.23,0.19,0.38c1.38,2.87,2.95,6.06,4.52,9.2c1.03,2.15,2.38,4.25,3.99,6.32
		c1.03,1.24,2.35,1.77,3.99,1.92c0.81,0.04,1.57-0.08,2.38-0.31c0.23-0.08,0.5-0.19,0.77-0.35c0.19-0.15,0.38-0.27,0.54-0.46
		c0.12-0.15,0.23-0.34,0.31-0.54c0.15-0.34,0.19-0.69,0.19-1.03c0-0.19-0.04-0.38-0.08-0.61c-0.08-0.19-0.19-0.38-0.34-0.58
		c-0.12-0.15-0.31-0.31-0.5-0.42c-0.15-0.11-0.34-0.15-0.5-0.11c-0.19,0-0.34,0.11-0.5,0.23c-0.19,0.15-0.38,0.34-0.5,0.57
		c-0.08,0.15-0.15,0.34-0.31,0.46c-0.08,0.12-0.23,0.19-0.38,0.23c-0.19,0.04-0.34,0.04-0.54,0c-0.31,0-0.61-0.15-0.92-0.34
		c-0.46-0.23-0.92-0.5-1.38-0.88c-0.31-0.27-0.61-0.54-0.84-0.88c-0.42-0.61-0.77-1.23-1.11-1.92c-0.34-0.69-0.61-1.38-0.81-2.11
		c-0.11-0.34,0-0.73,0-1.11l0.12-10.5c0.04-0.27,0.08-0.54,0.23-0.77c0.19-0.27,0.38-0.54,0.46-0.77c0.12-0.27,0.08-0.5,0.08-0.73
		c0-0.15,0-0.31-0.04-0.42c-0.04-0.15-0.12-0.27-0.23-0.34c-0.12-0.11-0.23-0.15-0.38-0.19c-0.19,0-0.38,0-0.57,0
		c-0.69,0-1.42,0-2.11,0.04c-0.15,0-0.31,0-0.46,0.08c-0.15,0.04-0.27,0.11-0.34,0.23c-0.08,0.15-0.12,0.31-0.12,0.46
		c-0.04,0.23,0,0.5,0.12,0.73c0.11,0.27,0.31,0.5,0.46,0.77c0.19,0.34,0.31,0.73,0.34,1.11c0.12,1.61,0.12,3.26,0.12,4.87
		c0,0.15,0,0.31-0.04,0.42C100.63,134.03,100.51,134.15,100.4,134.15z"/>
	<path class="st3" d="M109.81,139.87c-0.12-0.08-0.19-0.19-0.23-0.38c-0.04-0.15-0.08-0.31-0.08-0.46l0.12-10.58
		c0-0.23-0.04-0.46,0-0.69c0.04-0.15,0.08-0.31,0.19-0.46c0.12-0.12,0.27-0.19,0.42-0.23c0.15-0.08,0.31-0.04,0.46,0
		c0.19,0.04,0.34,0.04,0.54,0.08c0.27,0.08,0.5,0.15,0.73,0.34c0.23,0.15,0.46,0.38,0.65,0.61c0.34,0.46,0.65,0.96,0.84,1.46
		c0.34,0.88,0.46,1.72,0.5,2.61c0.11,1.65,0.08,3.26-0.27,4.91c-0.08,0.5-0.27,1-0.54,1.46c-0.19,0.38-0.46,0.73-0.77,1
		c-0.15,0.15-0.34,0.31-0.54,0.38c-0.19,0.11-0.38,0.15-0.61,0.15c-0.27,0-0.5-0.04-0.77-0.04
		C110.23,140.02,109.96,140.02,109.81,139.87z M105.05,142.51c0.12,0.08,0.34,0.12,0.57,0.12l6.32-0.08c0.38,0,0.77-0.23,1.07-0.38
		c0.31-0.15,0.65-0.27,0.96-0.38c0.34-0.15,0.65-0.34,0.92-0.61l0.96-0.84c0.27-0.23,0.42-0.54,0.57-0.84c0.5-0.84,0.81-1.72,1-2.57
		c0.35-1.53,0.46-3.07,0.35-4.6c-0.15-1.23-0.42-2.41-0.84-3.64c-0.19-0.5-0.5-0.96-0.8-1.42c-0.19-0.34-0.5-0.61-0.84-0.88
		c-0.46-0.38-0.84-0.77-1.34-1.07c-0.38-0.23-0.73-0.34-1.11-0.38c-2.26-0.38-4.52-0.31-6.82-0.42c-0.19-0.04-0.34-0.08-0.5-0.08
		c-0.15,0.04-0.31,0.08-0.42,0.19c-0.11,0.12-0.15,0.23-0.19,0.38c-0.04,0.19-0.04,0.38-0.04,0.57c0,0.19,0.04,0.38,0.15,0.54
		c0.12,0.19,0.27,0.34,0.42,0.5c0.15,0.15,0.27,0.31,0.31,0.5c0.08,0.23,0.15,0.42,0.15,0.65l-0.04,11.46
		c-0.04,0.23-0.08,0.46-0.19,0.69c-0.12,0.19-0.27,0.38-0.46,0.61c-0.19,0.19-0.34,0.38-0.42,0.61c-0.04,0.19-0.04,0.38,0,0.58
		c0,0.15,0.04,0.31,0.04,0.46C104.86,142.32,104.94,142.44,105.05,142.51z"/>
	<path class="st3" d="M123.7,132.23c0.15,0,0.31,0.08,0.38,0.19c0.08,0.15,0.12,0.27,0.15,0.42c0.04,0.46,0.27,1,0.5,1.53
		c0.08,0.15,0.08,0.34,0.11,0.5c0.04,0.15,0,0.27-0.08,0.34c-0.04,0.11-0.12,0.15-0.27,0.19c-0.11,0.04-0.27,0.04-0.42,0.04h-0.57
		c-0.15,0-0.31,0-0.46-0.04c-0.15,0-0.27-0.08-0.34-0.15c-0.08-0.08-0.12-0.19-0.08-0.35c0-0.15,0.04-0.31,0.12-0.42
		c0.15-0.46,0.27-0.88,0.38-1.3c0.08-0.19,0.12-0.35,0.15-0.54C123.39,132.42,123.51,132.27,123.7,132.23z M131.29,142.54
		c0.11-0.15,0.15-0.35,0.08-0.54c-0.08-0.27-0.12-0.5-0.23-0.77c-0.04-0.19-0.12-0.34-0.27-0.5c-0.11-0.12-0.27-0.19-0.42-0.35
		c-0.15-0.15-0.34-0.34-0.46-0.61c-0.34-0.73-0.57-1.49-0.84-2.22l-4.33-13.07c-0.04-0.15-0.11-0.27-0.15-0.38
		c-0.08-0.12-0.15-0.19-0.27-0.23c-0.08,0-0.19,0-0.31,0.04c-0.15,0.08-0.27,0.19-0.42,0.34c-0.23,0.19-0.38,0.42-0.5,0.65
		c-0.11,0.27-0.27,0.46-0.46,0.69c-0.19,0.27-0.31,0.57-0.38,0.88c-0.08,0.34-0.08,0.69,0.04,1.07c0.11,0.42,0.19,0.84,0.04,1.26
		l-3.95,10.58c-0.08,0.23-0.19,0.46-0.34,0.65c-0.23,0.19-0.46,0.42-0.61,0.65c-0.11,0.23-0.19,0.5-0.31,0.73
		c-0.08,0.15-0.15,0.27-0.15,0.42c-0.04,0.15,0,0.31,0.08,0.42c0.12,0.12,0.23,0.19,0.34,0.23c0.12,0.04,0.31,0.08,0.46,0.04
		c0.92-0.15,1.84-0.12,2.76-0.12c0.19,0,0.34,0,0.46-0.04c0.12-0.04,0.23-0.15,0.31-0.27c0.08-0.11,0.11-0.31,0.08-0.46
		c0-0.23-0.04-0.42-0.15-0.65c-0.11-0.27-0.19-0.54-0.23-0.84c-0.04-0.27,0.04-0.54,0.12-0.81c0.04-0.19,0.11-0.38,0.15-0.57
		c0.04-0.15,0.11-0.31,0.19-0.42c0.11-0.12,0.23-0.15,0.38-0.19c0.19-0.08,0.38-0.04,0.57-0.04l2.49-0.04c0.19,0,0.35,0.04,0.5,0.08
		c0.15,0.04,0.31,0.15,0.42,0.31c0.15,0.15,0.27,0.35,0.34,0.54c0.12,0.31,0.23,0.61,0.23,0.92c0.04,0.23,0.04,0.42-0.08,0.65
		c-0.08,0.19-0.19,0.42-0.31,0.65c-0.08,0.15-0.11,0.34-0.11,0.54c0,0.15,0.04,0.31,0.11,0.46c0.08,0.15,0.19,0.23,0.31,0.31
		c0.12,0.08,0.27,0.08,0.46,0.08c1.26-0.04,2.53-0.12,3.76-0.04c0.15,0,0.31,0.08,0.42,0.04
		C131.17,142.62,131.25,142.58,131.29,142.54z"/>
	<path class="st4" d="M128.88,156.54c-0.45,1.44-0.88,2.29-1.77,3.02c-0.11-0.13-0.17-0.27-0.17-0.46
		C126.94,158.51,127.56,157.84,128.88,156.54z M128.6,160.23c0.34,1.21,1.08,2.18,1.92,2.63c0.3-0.05,0.85-0.48,1.41-1.31l-0.1-0.22
		l-0.51,0.35c-0.3-0.39-0.51-1.26-0.51-2.56c0-1.2,0.18-2.44,0.44-3.83c0.31-1.72,0.57-2.84,0.57-3.37c0-0.11-0.03-0.16-0.11-0.16
		c-0.33,0-0.94,0.24-1.04,0.41c-0.13,0.22-0.59,0.97-1.24,2.74c-2.91,2.09-3.6,3.21-3.66,5.9c-0.01,0.71,0.17,1.02,0.57,1.02
		C126.88,161.82,127.68,161.3,128.6,160.23z M122.43,157.99c0.55,0.24,0.93,0.46,1.31,0.86c-0.33,0.53-0.75,0.8-1.11,0.8
		c-0.28,0-0.41-0.24-0.41-0.75C122.23,158.58,122.36,158.32,122.43,157.99z M121.54,157.65c-0.24,0.93-0.35,1.98-0.35,2.88
		c0,1.05,0.26,1.59,0.75,1.59c0.48,0,1.21-0.27,1.46-0.58c0.37-0.44,0.95-1.29,1.45-2.31c0.47-0.98,0.64-1.64,0.64-1.82
		c0-0.66-1.33-1.78-2.38-1.78c-0.33,0-0.54,0.17-0.82,0.42c-0.65,0.58-0.97,1.09-0.97,1.2
		C121.32,157.34,121.39,157.49,121.54,157.65z M117.43,158.01c0.55,0.24,0.97,0.44,1.35,0.84c-0.33,0.53-0.75,0.8-1.11,0.8
		c-0.28,0-0.41-0.24-0.41-0.75C117.26,158.58,117.36,158.34,117.43,158.01z M116.54,157.65c-0.24,0.93-0.32,1.98-0.32,2.88
		c0,1.05,0.26,1.59,0.75,1.59c0.48,0,1.21-0.27,1.46-0.58c0.37-0.44,0.95-1.29,1.45-2.31c0.47-0.98,0.64-1.64,0.64-1.82
		c0-0.66-1.33-1.78-2.38-1.78c-0.33,0-0.54,0.17-0.82,0.42c-0.65,0.58-0.97,1.09-0.97,1.2
		C116.35,157.34,116.38,157.49,116.54,157.65z M109.96,163.11c0.18-0.71,0.74-1.76,1.25-3.37c1.35-0.66,2.7-1.09,4.03-1.24
		c0.06-0.36,0.18-0.63,0.18-0.9c0-0.42-0.62-0.58-2.06-0.58c-0.48,0-0.98,0.03-1.49,0.11c0.24-0.85,0.44-1.7,0.64-2.53
		c0.74-0.31,1.42-0.42,1.87-0.42c0.14,0,0.3,0,0.48,0.02c0.06,0.28,0.06,0.53,0.06,0.72c0,0.25-0.03,0.52-0.06,0.75l0.2,0.08
		c0.67-1.01,0.98-1.98,0.98-2.78c0-0.88-0.57-1.31-2-1.31c-0.53,0-1.05,0.08-1.59,0.22l-0.07-0.27c-0.03-0.11-0.06-0.22-0.4-0.22
		c-0.16,0-0.92,0.47-1.12,1.04l-1.32,0.49l-0.11,0.74l0.38,0.63c-0.27,4.72-0.72,7.23-0.72,7.57c0,0.03,0.04,0.08,0.09,0.08
		l0.3,0.03l0.18-0.3h0.13l-0.07,1.37L109.96,163.11z M102.5,159.1c0.17-1.2,0.57-1.82,1.16-1.87
		C103.48,157.59,103.11,158.22,102.5,159.1z M100.45,160.43c0.8,1.24,2.22,1.87,2.91,1.87c0.37,0,0.78-0.33,1.36-0.9
		c0.04-0.22,0.06-0.42,0.06-0.6c0-0.19-0.01-0.28-0.09-0.28c-0.07,0-0.34,0.22-1.56,0.65l-0.51-0.7c0.18-0.14,1.08-1.3,2.47-3.16
		c-0.21-0.38-0.5-0.66-0.55-0.71c-0.1-0.08-0.49-0.21-1.17-0.42c-0.68-0.2-1.08-0.27-1.15-0.27c-0.13,0-0.57,0.44-1.04,1.26
		c-0.45,0.82-0.74,1.92-0.74,3.07V160.43z M97.07,162.4c2.03-1.09,2.9-2.42,2.9-3.07c0-0.41-0.55-0.96-1.67-1.53
		c0.44-0.66,1.08-1.21,1.93-1.75c-0.27-0.35-0.51-0.57-0.74-0.69c-1.35,0.42-2.41,1.12-3.22,2.12c0.03,1.2,0.21,2,0.34,2.28
		c0.14,0.33,0.62,0.39,1.42,0.66c-0.27,0.75-0.97,0.8-0.97,0.91L97.07,162.4z M93.4,159.1c0.17-1.2,0.57-1.82,1.16-1.87
		C94.38,157.59,94.01,158.22,93.4,159.1z M91.35,160.43c0.8,1.24,2.22,1.87,2.91,1.87c0.37,0,0.78-0.33,1.36-0.9
		c0.04-0.22,0.06-0.42,0.06-0.6c0-0.19-0.01-0.28-0.09-0.28c-0.07,0-0.32,0.17-1.54,0.59l-0.51-0.61c0.18-0.14,0.95-1.43,2.34-3.29
		c-0.21-0.38-0.4-0.52-0.46-0.56c-0.1-0.08-0.47-0.27-1.15-0.47s-1.08-0.27-1.15-0.27c-0.13,0-0.57,0.44-1.04,1.26
		c-0.45,0.82-0.74,1.92-0.74,3.07V160.43z M88.18,159.07c0.26,2.25,0.4,3.23,1.06,3.23c0.17,0,0.71-0.14,1.43-0.57l0.03-0.22
		c-0.16-0.06-0.17-0.13-0.17-0.31c0-1.04,0.14-2.04,0.14-3.02c0-0.68-0.18-0.94-1.06-0.94c-0.6,0-1.25,0.17-1.97,0.46
		c0.03-0.27,0.04-0.6,0.04-0.98c0-0.77-0.17-1.15-0.77-1.15c-0.34,0-0.62,0.08-0.95,0.24c-0.2,0.49-0.28,0.79-0.28,0.86
		c0,0.24,0.21,0.13,0.21,0.49c0,0.2-0.07,0.61-0.17,1.23l-0.41,2.55c0,0.03-0.01,0.06-0.01,0.09c0,0.08,0.04,0.11,0.13,0.11
		l1.15,0.05L88.18,159.07z M83.46,161.99l0.38-0.3c0.24-3.04,0.64-4.61,0.64-4.83c0-0.08-0.01-0.14-0.04-0.19l-0.24-0.35
		c-0.04-0.06-0.06-0.09-0.09-0.09c-0.09,0-1.05,0.36-1.67,1.02c-0.74,0.79-1.19,1.67-1.19,1.7c0,0.02-0.01,0.05-0.01,0.13l0.01,0.91
		l0.67,0.03c0.27,1.05,0.33,1.38,0.67,1.54L83.46,161.99z M84.41,153.17c-0.74,0.2-1.19,0.31-1.42,0.6l-0.98,1.24l1.02,0.72
		c0.58-0.52,1.15-1.1,1.73-1.7L84.41,153.17z M75.83,162.98l0.55-0.17c0.6-1.18,1.28-2.02,1.96-2.66c0.67,0.8,1.04,1.42,1.16,1.98
		l0.85-0.93l-0.11-0.24l0.37-0.53c0-0.09-0.01-0.14-0.01-0.16c0-0.2-0.07-1.42-0.45-3.41l-0.6-0.02l-0.13,0.22h-0.34l-2,2.9
		l1.01-2.83c0.48-0.47,0.89-1.2,1.28-2.2c0.48-1.26,0.62-2.2,0.62-2.45c0-0.16-0.16-0.2-0.64-0.2c-0.7,0-0.71,0.16-0.79,0.31
		c-1.59,2.99-2.75,5.22-3.18,6.94c-0.01,0.17-0.03,0.31-0.03,0.49C75.34,161,75.51,162.06,75.83,162.98z M68.72,153.89
		c0.43,0.02,0.94,0.03,1.53,0.05c-1.19,0.58-2.09,1.31-2.82,2.36c-0.13,0.19-0.17,0.52-0.17,1.07c0,2.06,0.67,3.68,1.02,3.96
		c0.14,0.11,0.68,0.2,1.6,0.2c1.59,0,2.85-0.27,3.78-0.75l0.03-1.13c0.61-0.24,1.05-0.52,1.33-0.91l0.11-0.86v-0.05
		c0-0.03-0.01-0.05-0.06-0.05c-0.21,0-1.59,0.46-3.95,0.46c-1.02,0-1.82-0.05-2.44-0.33c0.3-1.29,2.47-3,6-3.84
		c0.27-0.8,0.45-1.38,0.45-1.78c0-0.8-0.06-1.02-0.26-1.02C73.61,151.27,71.55,152.15,68.72,153.89z"/>
	<path class="st3" d="M65.9,144.76h34.12c0.52,0.77,1.07,1.54,1.67,2.3c0.04,0.05,0.08,0.09,0.12,0.14H65.9V144.76z M112.62,144.76
		h19.91v2.44h-19.24c0.11-0.3,0.14-0.6,0.14-0.91c0-0.19-0.04-0.38-0.08-0.61c-0.08-0.19-0.19-0.38-0.34-0.58
		C112.91,144.99,112.77,144.87,112.62,144.76z"/>
</g>
</svg>
