<?xml version="1.0" encoding="utf-8"?>
<!-- Generator: Adobe Illustrator 28.0.0, SVG Export Plug-In . SVG Version: 6.00 Build 0)  -->
<svg version="1.1" id="Layer_1" xmlns="http://www.w3.org/2000/svg" xmlns:xlink="http://www.w3.org/1999/xlink" x="0px" y="0px"
	 viewBox="0 0 198.43 198.43" style="enable-background:new 0 0 198.43 198.43;" xml:space="preserve">
<style type="text/css">
	.st0{fill-rule:evenodd;clip-rule:evenodd;fill:#010101;}
	.st1{fill:none;stroke:#FFFDFC;stroke-width:0.958;stroke-miterlimit:10;}
	.st2{fill-rule:evenodd;clip-rule:evenodd;fill:#E63630;}
	.st3{fill-rule:evenodd;clip-rule:evenodd;fill:#FFFFFF;}
</style>
<g>
	<path class="st0" d="M36.08,148.68c-0.18-0.15-0.44-0.24-0.71-0.24l-7.88-0.07c-0.18,0-0.33,0.02-0.53,0.07
		c-0.15,0.07-0.29,0.13-0.4,0.29c-0.11,0.11-0.13,0.29-0.15,0.46c-0.02,0.33-0.02,0.62-0.02,0.93l-0.02,17.42
		c0,0.18,0.02,0.33,0.09,0.53c0.04,0.15,0.15,0.31,0.29,0.42c0.13,0.09,0.29,0.2,0.49,0.22c0.24,0.02,0.49,0.04,0.73,0.07h7.14
		c0.18,0,0.33-0.02,0.53-0.07c0.15-0.07,0.29-0.15,0.4-0.33c0.11-0.13,0.15-0.29,0.18-0.46c0.04-0.33,0.04-0.62,0.04-0.95
		c-0.04-0.93-0.04-1.9,0.13-2.83c0.02-0.27,0.13-0.53,0.24-0.77c0.13-0.24,0.29-0.46,0.49-0.64c0.22-0.18,0.44-0.31,0.68-0.4
		c0.46-0.15,0.95-0.25,1.43-0.24c2.66,0.02,5.62,0.02,8.53,0.02c0.24,0,0.49,0.09,0.73,0.15c0.22,0.09,0.44,0.2,0.64,0.38
		c0.2,0.2,0.35,0.44,0.51,0.68c0.26,0.51,0.49,0.97,0.55,1.48c0.09,0.99,0.04,1.99,0.02,3c0,0.18,0,0.38,0.09,0.55
		c0.07,0.15,0.2,0.29,0.37,0.38c0.15,0.09,0.31,0.13,0.51,0.13h8.62c0.2,0,0.35-0.02,0.55-0.09c0.15-0.04,0.26-0.15,0.35-0.29
		c0.11-0.13,0.18-0.31,0.2-0.49c0.04-0.31,0.02-0.64,0.04-0.93L61,149.62c0-0.15-0.04-0.33-0.09-0.51
		c-0.04-0.18-0.15-0.31-0.33-0.42c-0.13-0.11-0.31-0.18-0.46-0.22c-0.26-0.02-0.53-0.02-0.77-0.02l-7.76,0.05
		c-0.15-0.04-0.33,0.04-0.51,0.09c-0.15,0.04-0.29,0.13-0.4,0.29c-0.09,0.13-0.18,0.29-0.22,0.46c-0.09,0.35-0.11,0.68-0.11,1.02
		c0,0.77,0.07,1.55-0.02,2.32c-0.02,0.24-0.09,0.49-0.2,0.73c-0.09,0.22-0.22,0.42-0.44,0.6c-0.15,0.18-0.4,0.31-0.62,0.42
		c-0.35,0.15-0.68,0.22-1.04,0.24l-9.33-0.09c-0.29,0-0.57-0.15-0.86-0.31c-0.26-0.13-0.51-0.31-0.68-0.53
		c-0.2-0.22-0.35-0.46-0.46-0.68c-0.18-0.42-0.29-0.84-0.31-1.3c-0.07-0.75-0.07-1.5-0.04-2.27c0-0.15-0.02-0.31-0.07-0.51
		C36.26,148.88,36.17,148.77,36.08,148.68"/>
	<path class="st1" d="M36.08,148.68c-0.18-0.15-0.44-0.24-0.71-0.24l-7.88-0.07c-0.18,0-0.33,0.02-0.53,0.07
		c-0.15,0.07-0.29,0.13-0.4,0.29c-0.11,0.11-0.13,0.29-0.15,0.46c-0.02,0.33-0.02,0.62-0.02,0.93l-0.02,17.42
		c0,0.18,0.02,0.33,0.09,0.53c0.04,0.15,0.15,0.31,0.29,0.42c0.13,0.09,0.29,0.2,0.49,0.22c0.24,0.02,0.49,0.04,0.73,0.07h7.14
		c0.18,0,0.33-0.02,0.53-0.07c0.15-0.07,0.29-0.15,0.4-0.33c0.11-0.13,0.15-0.29,0.18-0.46c0.04-0.33,0.04-0.62,0.04-0.95
		c-0.04-0.93-0.04-1.9,0.13-2.83c0.02-0.27,0.13-0.53,0.24-0.77c0.13-0.24,0.29-0.46,0.49-0.64c0.22-0.18,0.44-0.31,0.68-0.4
		c0.46-0.15,0.95-0.25,1.43-0.24c2.66,0.02,5.62,0.02,8.53,0.02c0.24,0,0.49,0.09,0.73,0.15c0.22,0.09,0.44,0.2,0.64,0.38
		c0.2,0.2,0.35,0.44,0.51,0.68c0.26,0.51,0.49,0.97,0.55,1.48c0.09,0.99,0.04,1.99,0.02,3c0,0.18,0,0.38,0.09,0.55
		c0.07,0.15,0.2,0.29,0.37,0.38c0.15,0.09,0.31,0.13,0.51,0.13h8.62c0.2,0,0.35-0.02,0.55-0.09c0.15-0.04,0.26-0.15,0.35-0.29
		c0.11-0.13,0.18-0.31,0.2-0.49c0.04-0.31,0.02-0.64,0.04-0.93L61,149.62c0-0.15-0.04-0.33-0.09-0.51
		c-0.04-0.18-0.15-0.31-0.33-0.42c-0.13-0.11-0.31-0.18-0.46-0.22c-0.26-0.02-0.53-0.02-0.77-0.02l-7.76,0.05
		c-0.15-0.04-0.33,0.04-0.51,0.09c-0.15,0.04-0.29,0.13-0.4,0.29c-0.09,0.13-0.18,0.29-0.22,0.46c-0.09,0.35-0.11,0.68-0.11,1.02
		c0,0.77,0.07,1.55-0.02,2.32c-0.02,0.24-0.09,0.49-0.2,0.73c-0.09,0.22-0.22,0.42-0.44,0.6c-0.15,0.18-0.4,0.31-0.62,0.42
		c-0.35,0.15-0.68,0.22-1.04,0.24l-9.33-0.09c-0.29,0-0.57-0.15-0.86-0.31c-0.26-0.13-0.51-0.31-0.68-0.53
		c-0.2-0.22-0.35-0.46-0.46-0.68c-0.18-0.42-0.29-0.84-0.31-1.3c-0.07-0.75-0.07-1.5-0.04-2.27c0-0.15-0.02-0.31-0.07-0.51
		C36.26,148.88,36.17,148.77,36.08,148.68z"/>
	<path class="st0" d="M70.67,168.19c0.22,0.18,0.46,0.22,0.73,0.22l8.55,0c0.15,0,0.35,0,0.51-0.07c0.15-0.04,0.29-0.15,0.4-0.29
		c0.09-0.13,0.13-0.29,0.15-0.49l-0.04-18.6c0-0.18-0.02-0.35-0.07-0.51c-0.07-0.2-0.18-0.33-0.31-0.46
		c-0.13-0.11-0.31-0.22-0.46-0.24c-0.24-0.02-8.65-0.02-8.65-0.02c-0.2,0-0.35,0.02-0.53,0.11c-0.18,0.04-0.31,0.15-0.37,0.29
		c-0.09,0.13-0.13,0.31-0.18,0.49c-0.09,0.91,0.03,18.77,0.03,18.77c0,0.15,0.02,0.29,0.07,0.46
		C70.51,167.99,70.58,168.12,70.67,168.19"/>
	<path class="st1" d="M70.67,168.19c0.22,0.18,0.46,0.22,0.73,0.22l8.55,0c0.15,0,0.35,0,0.51-0.07c0.15-0.04,0.29-0.15,0.4-0.29
		c0.09-0.13,0.13-0.29,0.15-0.49l-0.04-18.6c0-0.18-0.02-0.35-0.07-0.51c-0.07-0.2-0.18-0.33-0.31-0.46
		c-0.13-0.11-0.31-0.22-0.46-0.24c-0.24-0.02-8.65-0.02-8.65-0.02c-0.2,0-0.35,0.02-0.53,0.11c-0.18,0.04-0.31,0.15-0.37,0.29
		c-0.09,0.13-0.13,0.31-0.18,0.49c-0.09,0.91,0.03,18.77,0.03,18.77c0,0.15,0.02,0.29,0.07,0.46
		C70.51,167.99,70.58,168.12,70.67,168.19z"/>
	<path class="st0" d="M116.74,148.86c-0.2,0.18-0.29,0.4-0.29,0.71c-0.04,1.39-0.04,2.8-0.18,4.22c-0.02,0.2-0.07,0.4-0.18,0.62
		c-0.11,0.2-0.24,0.42-0.42,0.57c-0.2,0.13-0.37,0.24-0.57,0.31c-0.24,0.07-0.49,0.07-0.71,0.02c-0.42-0.09-0.82-0.24-1.19-0.46
		c-3.81-2.27-7.61-4.39-11.42-6.01c-0.9-0.4-1.9-0.35-2.78-0.35l-7.22,0.06c-0.2,0-0.37,0.02-0.53,0.07
		c-0.22,0.09-0.35,0.15-0.46,0.29c-0.13,0.15-0.22,0.31-0.24,0.49c-0.02,0.22-0.02,0.4-0.02,0.62l-0.05,17.48
		c0,0.15,0.02,0.35,0.09,0.51c0.07,0.15,0.15,0.31,0.31,0.42c0.13,0.09,0.29,0.2,0.49,0.22c0.26,0.04,0.53,0.09,0.82,0.09l7.45-0.06
		c0.15,0,0.33-0.02,0.51-0.07c0.15-0.09,0.31-0.15,0.42-0.33c0.09-0.13,0.15-0.29,0.18-0.46c0.04-0.24,0-0.49,0-0.73l0.2-6.71
		c0-0.2,0.11-0.4,0.22-0.6c0.09-0.22,0.26-0.38,0.44-0.55c0.2-0.13,0.4-0.18,0.6-0.2c0.31-0.07,0.64-0.07,0.93,0.04
		c1.04,0.29,2.12,0.79,3.15,1.39c2.6,1.41,5.23,3.09,7.81,5.19c0.35,0.26,0.66,0.57,0.93,0.93c0.26,0.31,0.4,0.64,0.51,0.95
		c0.09,0.22,0.13,0.42,0.24,0.6c0.11,0.2,0.24,0.33,0.4,0.46c0.18,0.09,0.37,0.18,0.57,0.18l8.45-0.03c0.15,0,0.33-0.02,0.51-0.11
		c0.15-0.04,0.31-0.15,0.42-0.29c0.13-0.13,0.22-0.29,0.24-0.49c0.07-0.2,0.07-0.44,0.07-0.66l-0.02-17.37
		c0-0.18-0.02-0.35-0.09-0.51c-0.04-0.18-0.15-0.31-0.29-0.4c-0.11-0.11-0.26-0.18-0.46-0.2c-0.22-0.02-0.46-0.03-0.71-0.02
		c-2.52,0.04-4.7,0.04-7.3,0c-0.18,0-0.35,0-0.51,0.02C116.9,148.73,116.83,148.8,116.74,148.86"/>
	<path class="st1" d="M116.74,148.86c-0.2,0.18-0.29,0.4-0.29,0.71c-0.04,1.39-0.04,2.8-0.18,4.22c-0.02,0.2-0.07,0.4-0.18,0.62
		c-0.11,0.2-0.24,0.42-0.42,0.57c-0.2,0.13-0.37,0.24-0.57,0.31c-0.24,0.07-0.49,0.07-0.71,0.02c-0.42-0.09-0.82-0.24-1.19-0.46
		c-3.81-2.27-7.61-4.39-11.42-6.01c-0.9-0.4-1.9-0.35-2.78-0.35l-7.22,0.06c-0.2,0-0.37,0.02-0.53,0.07
		c-0.22,0.09-0.35,0.15-0.46,0.29c-0.13,0.15-0.22,0.31-0.24,0.49c-0.02,0.22-0.02,0.4-0.02,0.62l-0.05,17.48
		c0,0.15,0.02,0.35,0.09,0.51c0.07,0.15,0.15,0.31,0.31,0.42c0.13,0.09,0.29,0.2,0.49,0.22c0.26,0.04,0.53,0.09,0.82,0.09l7.45-0.06
		c0.15,0,0.33-0.02,0.51-0.07c0.15-0.09,0.31-0.15,0.42-0.33c0.09-0.13,0.15-0.29,0.18-0.46c0.04-0.24,0-0.49,0-0.73l0.2-6.71
		c0-0.2,0.11-0.4,0.22-0.6c0.09-0.22,0.26-0.38,0.44-0.55c0.2-0.13,0.4-0.18,0.6-0.2c0.31-0.07,0.64-0.07,0.93,0.04
		c1.04,0.29,2.12,0.79,3.15,1.39c2.6,1.41,5.23,3.09,7.81,5.19c0.35,0.26,0.66,0.57,0.93,0.93c0.26,0.31,0.4,0.64,0.51,0.95
		c0.09,0.22,0.13,0.42,0.24,0.6c0.11,0.2,0.24,0.33,0.4,0.46c0.18,0.09,0.37,0.18,0.57,0.18l8.45-0.03c0.15,0,0.33-0.02,0.51-0.11
		c0.15-0.04,0.31-0.15,0.42-0.29c0.13-0.13,0.22-0.29,0.24-0.49c0.07-0.2,0.07-0.44,0.07-0.66l-0.02-17.37
		c0-0.18-0.02-0.35-0.09-0.51c-0.04-0.18-0.15-0.31-0.29-0.4c-0.11-0.11-0.26-0.18-0.46-0.2c-0.22-0.02-0.46-0.03-0.71-0.02
		c-2.52,0.04-4.7,0.04-7.3,0c-0.18,0-0.35,0-0.51,0.02C116.9,148.73,116.83,148.8,116.74,148.86z"/>
	<path class="st0" d="M161.62,160.74c-0.07,0.26-0.15,0.55-0.31,0.79c-0.15,0.24-0.33,0.49-0.57,0.66
		c-0.26,0.22-0.51,0.35-0.77,0.44c-0.38,0.13-0.75,0.22-1.15,0.29c-3.59,0.35-7.21,0.2-10.8-0.07c-0.44-0.04-0.9-0.18-1.32-0.4
		c-0.26-0.13-0.51-0.26-0.71-0.49c-0.2-0.18-0.38-0.42-0.46-0.68c-0.11-0.26-0.22-0.51-0.24-0.77c-0.31-1.57-0.22-3.11-0.13-4.7
		c0.02-0.55,0.07-1.13,0.29-1.7c0.13-0.35,0.31-0.71,0.57-0.99c0.22-0.22,0.49-0.4,0.79-0.51c0.44-0.18,0.9-0.4,1.37-0.42
		c3.48-0.31,6.86-0.33,10.25,0.13c0.55,0.07,1.1,0.2,1.7,0.49c0.24,0.09,0.49,0.27,0.73,0.46c0.2,0.22,0.4,0.44,0.53,0.71
		c0.13,0.26,0.22,0.53,0.29,0.82c0.13,0.66,0.13,1.37,0.2,2.05C161.92,158.14,161.86,159.42,161.62,160.74 M171.8,153.37
		c-0.11-0.88-0.46-1.74-0.9-2.58c-0.29-0.51-0.62-0.97-1.06-1.39c-0.46-0.49-1.01-0.97-1.54-1.28c-0.9-0.49-1.81-0.95-2.73-1.02
		c-7.76-0.75-15.52-0.86-23.35-0.33c-1.21,0.09-2.38,0.57-3.57,1.13c-0.44,0.22-0.86,0.49-1.28,0.79c-0.42,0.31-0.73,0.68-1.01,1.06
		c-0.49,0.64-0.86,1.21-1.06,1.85c-0.55,1.81-0.71,3.64-0.77,5.48c-0.07,2.21,0.04,4.46,0.64,6.69c0.13,0.55,0.37,1.1,0.73,1.63
		c0.24,0.4,0.51,0.75,0.88,1.08c0.4,0.33,0.82,0.66,1.26,0.88c1.08,0.55,2.16,0.91,3.24,1.08c6.61,1.15,13.21,1.28,19.82,0.99
		c2.12-0.13,4.23-0.49,6.33-1.13c0.57-0.15,1.1-0.53,1.65-0.93c0.18-0.11,0.31-0.24,0.46-0.38c0.49-0.49,0.82-0.95,1.08-1.46
		c0.57-1.08,0.95-2.19,1.1-3.27C172.18,159.33,172.11,156.33,171.8,153.37"/>
	<path class="st1" d="M161.62,160.74c-0.07,0.26-0.15,0.55-0.31,0.79c-0.15,0.24-0.33,0.49-0.57,0.66
		c-0.26,0.22-0.51,0.35-0.77,0.44c-0.38,0.13-0.75,0.22-1.15,0.29c-3.59,0.35-7.21,0.2-10.8-0.07c-0.44-0.04-0.9-0.18-1.32-0.4
		c-0.26-0.13-0.51-0.26-0.71-0.49c-0.2-0.18-0.38-0.42-0.46-0.68c-0.11-0.26-0.22-0.51-0.24-0.77c-0.31-1.57-0.22-3.11-0.13-4.7
		c0.02-0.55,0.07-1.13,0.29-1.7c0.13-0.35,0.31-0.71,0.57-0.99c0.22-0.22,0.49-0.4,0.79-0.51c0.44-0.18,0.9-0.4,1.37-0.42
		c3.48-0.31,6.86-0.33,10.25,0.13c0.55,0.07,1.1,0.2,1.7,0.49c0.24,0.09,0.49,0.27,0.73,0.46c0.2,0.22,0.4,0.44,0.53,0.71
		c0.13,0.26,0.22,0.53,0.29,0.82c0.13,0.66,0.13,1.37,0.2,2.05C161.92,158.14,161.86,159.42,161.62,160.74z M171.8,153.37
		c-0.11-0.88-0.46-1.74-0.9-2.58c-0.29-0.51-0.62-0.97-1.06-1.39c-0.46-0.49-1.01-0.97-1.54-1.28c-0.9-0.49-1.81-0.95-2.73-1.02
		c-7.76-0.75-15.52-0.86-23.35-0.33c-1.21,0.09-2.38,0.57-3.57,1.13c-0.44,0.22-0.86,0.49-1.28,0.79c-0.42,0.31-0.73,0.68-1.01,1.06
		c-0.49,0.64-0.86,1.21-1.06,1.85c-0.55,1.81-0.71,3.64-0.77,5.48c-0.07,2.21,0.04,4.46,0.64,6.69c0.13,0.55,0.37,1.1,0.73,1.63
		c0.24,0.4,0.51,0.75,0.88,1.08c0.4,0.33,0.82,0.66,1.26,0.88c1.08,0.55,2.16,0.91,3.24,1.08c6.61,1.15,13.21,1.28,19.82,0.99
		c2.12-0.13,4.23-0.49,6.33-1.13c0.57-0.15,1.1-0.53,1.65-0.93c0.18-0.11,0.31-0.24,0.46-0.38c0.49-0.49,0.82-0.95,1.08-1.46
		c0.57-1.08,0.95-2.19,1.1-3.27C172.18,159.33,172.11,156.33,171.8,153.37z"/>
	<path class="st2" d="M173.72,73.12c-0.04-0.13-0.04-0.24,0-0.38c0.02-0.15-0.07-0.31-0.09-0.46c-0.18-1.24-0.51-2.54-0.9-3.84
		c-1.04-3.36-2.56-6.6-4.72-9.91c-1.57-2.45-3.4-4.81-5.58-7.15c-2.91-3.16-6.06-5.92-9.22-8.19c-5.38-3.89-10.91-6.84-16.47-9.03
		c-7.85-3-15.68-4.77-23.48-5.25c-1.32-0.09-2.6-0.04-3.9,0.24c-0.6,0.13-1.15,0.38-1.7,0.71c-0.24,0.15-0.49,0.31-0.68,0.49
		c-0.15,0.2-0.31,0.4-0.44,0.64c-0.11,0.24-0.22,0.49-0.24,0.71c0,0.26,0,0.53,0.09,0.79c0.07,0.24,0.2,0.51,0.4,0.75
		c0.18,0.24,0.31,0.51,0.57,0.62c7.85,2.56,15.7,5.63,23.55,10.09c2.91,1.68,5.78,3.75,8.58,6.31c1.65,1.5,3.04,3.14,4.1,4.72
		c1.19,1.74,2.03,3.44,2.58,5.19c0.33,1.02,0.53,2.03,0.48,3.07c-0.02,0.68-0.18,1.35-0.44,2.05c-0.2,0.42-0.46,0.86-0.79,1.3
		c-0.31,0.38-0.62,0.64-0.97,0.93c-0.62,0.49-1.26,0.84-1.85,1.1c-1.85,0.77-3.73,1.19-5.56,1.3c-26.48,1.61-52.92,1.72-79.4-0.29
		c-1.04-0.09-2.03-0.62-3.04-1.19c-0.46-0.24-0.93-0.62-1.35-1.02c-0.37-0.33-0.73-0.75-0.97-1.15c-0.2-0.33-0.37-0.6-0.44-0.88
		c-0.13-0.44-0.24-0.88-0.31-1.37c-0.09-0.86-0.02-1.7,0.18-2.58c0.29-1.3,0.82-2.65,1.48-3.95c0.71-1.41,1.63-2.83,2.65-4.08
		c0.64-0.77,1.23-1.41,1.94-2.14c0.18-0.15,0.26-0.31,0.4-0.42c0.35-0.33,0.71-0.64,1.08-0.99c1.7-1.52,3.42-2.85,5.09-3.95
		c8.18-5.3,16.36-8.88,24.63-11.26c0.37-0.11,0.73-0.33,1.08-0.6c0.24-0.15,0.46-0.33,0.64-0.57c0.2-0.22,0.35-0.46,0.44-0.68
		c0.11-0.26,0.15-0.53,0.15-0.79c0-0.2-0.02-0.42-0.11-0.64c-0.07-0.2-0.2-0.4-0.33-0.57c-0.18-0.22-0.33-0.42-0.55-0.57
		C90,30,89.71,29.8,89.4,29.67c-0.71-0.31-1.43-0.55-2.18-0.6c-4.32-0.15-8.62,0.46-12.94,1.39c-6.64,1.39-13.32,3.69-19.91,7.13
		c-2.98,1.55-5.93,3.36-8.75,5.45c-0.22,0.15-0.49,0.31-0.77,0.53c-3.33,2.45-6.59,5.36-9.68,8.83c-0.64,0.73-1.28,1.5-1.81,2.16
		c-2.56,3.27-4.56,6.53-6.02,9.8c-1.61,3.6-2.62,7.22-2.93,10.84c-0.31,3.09-0.07,6.18,0.6,9.27c0.77,3.53,2.16,7.09,4.19,10.64
		c1.5,2.63,3.33,5.23,5.62,7.84c2.43,2.78,5.16,5.41,8.27,7.84c4.63,3.62,9.31,6.51,13.94,8.65c6.44,3,12.86,5.01,19.29,6.18
		c3.84,0.68,7.65,1.13,11.44,0.93c0.82-0.02,1.59-0.29,2.29-0.62c0.33-0.15,0.64-0.38,0.93-0.57c0.2-0.18,0.35-0.38,0.51-0.6
		c0.13-0.18,0.22-0.38,0.29-0.57c0.04-0.29,0.07-0.51,0.02-0.75c-0.02-0.22-0.09-0.44-0.22-0.64c-0.09-0.24-0.26-0.46-0.46-0.68
		c-0.22-0.2-0.44-0.51-0.73-0.57c-4.04-1.39-8.07-2.76-12.15-4.42c-5.23-2.16-10.25-4.83-15.41-8.46c-1.61-1.1-3.29-2.65-4.72-4.08
		c-0.31-0.31-0.64-0.66-0.99-1.02c-0.15-0.18-0.29-0.31-0.4-0.44c-0.11-0.11-0.22-0.22-0.33-0.35c-0.4-0.46-0.71-0.91-1.08-1.41
		c-0.13-0.18-0.26-0.33-0.35-0.46c-0.37-0.55-0.86-1.3-1.21-2.01c-0.86-1.48-1.46-2.96-1.79-4.46c-0.2-0.93-0.24-1.85-0.11-2.8
		c0.07-0.46,0.2-0.97,0.44-1.46c0.2-0.4,0.44-0.8,0.77-1.19c0.37-0.42,0.71-0.73,1.08-0.99c0.31-0.22,0.55-0.44,0.79-0.53
		c0.64-0.35,1.28-0.77,1.96-0.86c4.39-1.94,28.38-2.05,42.53-2.14c10.72-0.15,19.73,0.13,29.59,0.57c4.21,0.15,8.42,0.27,12.61,1.3
		c0.9,0.24,1.79,0.68,2.67,1.28c0.4,0.27,0.79,0.62,1.15,0.99c0.31,0.38,0.57,0.71,0.75,1.08c0.31,0.64,0.51,1.28,0.57,1.92
		c0.11,0.95,0.04,1.88-0.18,2.78c-0.42,1.81-1.26,3.66-2.4,5.48c-0.9,1.43-2.01,2.85-3.42,4.26c-2.49,2.52-5.18,4.59-7.92,6.34
		c-0.95,0.62-1.9,1.24-2.78,1.7c-6.31,3.55-12.68,6.31-19.05,8.26c-0.88,0.27-1.76,0.51-2.67,0.97c-0.24,0.13-0.44,0.31-0.66,0.53
		c-0.22,0.18-0.37,0.4-0.49,0.57c-0.13,0.24-0.26,0.49-0.29,0.73c-0.07,0.26-0.07,0.53,0,0.79c0.04,0.24,0.15,0.49,0.31,0.75
		c0.13,0.15,0.31,0.35,0.46,0.51c0.26,0.22,0.53,0.38,0.79,0.51c0.64,0.33,1.28,0.6,1.92,0.64c3.84,0.29,7.63-0.15,11.47-0.88
		c7.06-1.28,14.16-3.47,21.19-7c3.64-1.83,7.12-4.04,10.54-6.51c1.32-0.97,2.8-2.12,4.1-3.27l1.37-1.24
		c0.29-0.24,0.53-0.51,0.77-0.73c0.75-0.66,1.57-1.52,2.29-2.32c2.36-2.49,4.26-4.9,5.84-7.37c2.12-3.36,3.66-6.71,4.72-10.07
		c1.17-3.75,1.63-7.48,1.43-11.26C174.05,74.91,173.96,74,173.72,73.12"/>
	<path class="st3" d="M153.7,71.33c-0.04,0.04-0.07,0.09-0.09,0.13c-0.04,0.11-0.13,0.2-0.22,0.24c-0.07,0.09-0.18,0.13-0.26,0.18
		c-0.37,0.13-0.75,0.31-1.1,0.33c-25.4,2.43-50.78,2.43-76.03,2.14c-10.21-0.11-20.4-0.22-30.58-1.96c-0.15-0.04-0.31-0.11-0.46-0.2
		c-0.09-0.02-0.2-0.11-0.26-0.18c-0.07-0.09-0.11-0.2-0.13-0.29c-0.04-0.09,0-0.18,0.02-0.29c0.04-0.11,0.11-0.2,0.18-0.31
		c0.13-0.13,0.26-0.27,0.4-0.35c0.64-0.49,1.28-0.84,1.92-1.17c0.33-0.15,0.62-0.33,0.93-0.38c0.15-0.07,0.31-0.07,0.46-0.02
		c0.13,0.02,0.31,0.07,0.44,0.18c0.82,0.6,1.59,1.06,2.45,1.21c1.19,0.4,6.35,1.08,9.66,1.35c9.48,0.77,18.65,0.99,27.98,1.13
		c9.86,0.11,19.69-0.04,29.55-0.22c5.84-0.11,11.73-0.29,17.57-0.93c3.77-0.4,6.97-0.62,10.74-1.48c0.66-0.13,1.79-0.9,2.34-1.3
		c0.13-0.11,0.26-0.18,0.4-0.24c0.18-0.07,0.33-0.07,0.46-0.07c0.15,0.02,0.33,0.04,0.49,0.13c0.66,0.26,1.3,0.64,1.94,1.04
		c0.26,0.15,0.55,0.35,0.84,0.6c0.09,0.07,0.2,0.18,0.26,0.29C153.65,71.04,153.7,71.17,153.7,71.33"/>
	<path class="st3" d="M85.43,123.63c-0.02,0.11-0.07,0.15-0.18,0.2c-0.09,0.04-0.15,0.04-0.24,0.04c-0.11,0.02-0.24,0.04-0.37,0.02
		c-3.04-0.4-6.11-1.13-9.15-1.94c-6.26-1.77-12.55-4.28-18.79-7.86c-3.55-1.99-6.92-4.42-10.23-7.33c-0.13-0.13-0.31-0.27-0.4-0.46
		c-0.15-0.2-0.31-0.4-0.46-0.55c-0.4-0.4-0.86-0.82-1.26-1.24c-0.9-0.91-1.72-1.79-2.47-2.65c-0.68-0.77-1.28-1.57-1.9-2.36
		c-2.14-2.85-3.7-5.63-4.87-8.41c-1.74-4.08-2.65-8.17-2.84-12.27c-0.13-3.2,0.29-6.42,1.19-9.65c0.79-2.83,1.92-5.56,3.35-8.19
		c0.73-1.32,1.5-2.58,2.38-3.91c0.15-0.24,0.29-0.49,0.42-0.73c0.02-0.09,0.04-0.2,0.04-0.27c0-0.09,0-0.13-0.04-0.2
		c-0.07-0.04-0.11-0.11-0.15-0.11c-0.09-0.02-0.18,0-0.24,0c-0.09,0.04-0.15,0.09-0.24,0.15c-0.15,0.07-0.33,0.2-0.46,0.33
		c-0.82,0.86-1.65,1.79-2.36,2.78c-2.03,2.78-3.57,5.59-4.74,8.34c-1.57,3.62-2.54,7.22-2.8,10.82c-0.07,0.64-0.11,1.28-0.24,1.94
		c-0.04,0.11-0.07,0.2-0.13,0.31c-0.07,0.07-0.11,0.15-0.2,0.2c-0.07,0.07-0.15,0.07-0.24,0.07c-0.07-0.02-0.13-0.09-0.18-0.13
		c-0.09-0.09-0.11-0.18-0.13-0.24c-0.07-0.09-0.09-0.15-0.09-0.26c-0.18-1.15-0.15-2.3-0.07-3.42c0.26-3.33,0.97-6.71,2.29-10.05
		c1.28-3.2,3.02-6.31,5.31-9.47c1.76-2.34,3.81-4.72,6.31-7c3.64-3.36,7.41-6.07,11.16-8.32c6.81-4.02,13.52-6.82,20.33-8.59
		c3.66-0.99,7.37-1.63,11.09-1.9c0.26,0,0.55,0.04,0.82,0.13c0.09,0.02,0.18,0.09,0.24,0.13c0.11,0.04,0.13,0.11,0.15,0.2
		c0.02,0.07,0,0.18-0.02,0.22c-0.09,0.09-0.13,0.18-0.22,0.22c-0.11,0.07-0.18,0.13-0.29,0.15c-3.11,0.77-6.24,1.66-9.35,2.67
		c-6.24,2.05-12.48,4.95-18.65,8.9c-2.69,1.72-5.36,3.82-7.98,6.31c-2.36,2.25-4.23,4.53-5.84,6.87c-1.9,2.8-3.4,5.63-4.45,8.41
		c-0.49,1.32-0.86,2.61-0.9,3.93c-0.02,0.62,0.09,1.21,0.26,1.85c0.11,0.35,0.26,0.71,0.51,1.08c0.18,0.26,0.42,0.55,0.73,0.79
		c0.33,0.31,0.68,0.55,1.04,0.75c1.12,0.57,2.2,1.15,3.35,1.17c36.6,1.57,73.16,1.41,109.72,0c1.72-0.09,3.46-0.6,5.18-1.37
		c0.49-0.2,0.95-0.53,1.37-0.88c0.26-0.22,0.49-0.46,0.66-0.68c0.26-0.38,0.46-0.73,0.6-1.1c0.22-0.57,0.29-1.17,0.29-1.79
		c-0.02-0.77-0.13-1.5-0.29-2.14c-0.11-0.44-0.24-0.88-0.4-1.35c-1.04-2.85-2.56-5.74-4.41-8.52c-0.79-1.17-1.72-2.43-2.67-3.51
		c-1.59-1.92-3.24-3.53-5.03-5.06c-3.2-2.76-6.39-5.01-9.7-6.82c-8.14-4.55-16.34-7.53-24.5-9.34c-0.31-0.07-0.6-0.13-0.9-0.26
		c-0.11-0.07-0.22-0.15-0.31-0.22c-0.07-0.07-0.13-0.13-0.15-0.22c-0.02-0.07-0.02-0.15,0.02-0.24c0.02-0.07,0.11-0.13,0.2-0.18
		c0.07-0.07,0.15-0.09,0.24-0.09c0.2-0.04,0.4-0.11,0.57-0.11c4.45,0.24,8.93,1.1,13.38,2.36c6.37,1.81,12.75,4.5,19.14,8.28
		c3.64,2.14,7.25,4.79,10.74,7.93c0.6,0.53,1.15,1.08,1.79,1.72c0.2,0.22,0.35,0.4,0.51,0.57c0.18,0.18,0.38,0.4,0.62,0.66
		c2.65,2.85,4.83,5.78,6.5,8.7c1.85,3.2,3.15,6.4,3.93,9.6c0.6,2.52,0.93,5.03,0.93,7.53c0,0.33-0.13,0.62-0.18,0.95
		c-0.02,0.13-0.07,0.29-0.11,0.42c-0.02,0.11-0.09,0.18-0.13,0.24c-0.09,0.04-0.15,0.11-0.24,0.11s-0.15-0.04-0.24-0.09
		c-0.04-0.04-0.11-0.13-0.15-0.22c-0.07-0.07-0.09-0.18-0.11-0.27c-0.24-1.08-0.26-2.23-0.4-3.36c-0.46-3.27-1.54-6.49-3.02-9.74
		c-1.28-2.89-2.89-5.72-5.12-8.54c-0.64-0.82-1.32-1.55-2.07-2.27c-0.13-0.11-0.29-0.22-0.46-0.29c-0.07-0.07-0.18-0.09-0.26-0.09
		c-0.07,0-0.15,0-0.2,0.04c-0.07,0.04-0.11,0.09-0.15,0.13c-0.02,0.09,0,0.18,0,0.24c0.04,0.09,0.07,0.18,0.09,0.22
		c0.97,1.46,1.9,2.91,2.71,4.35c2.09,3.71,3.51,7.44,4.28,11.19c0.66,3.13,0.79,6.29,0.49,9.45c-0.35,3.47-1.28,6.91-2.76,10.38
		c-1.37,3.11-3.24,6.27-5.76,9.43c-1.83,2.27-3.84,4.26-6.06,6.14c-2.05,1.74-3.97,3.2-5.95,4.57c-5.23,3.44-10.54,6.05-15.81,8.04
		c-0.18,0.04-0.31,0.13-0.37,0.18c-0.11,0.07-0.22,0.07-0.37,0.11c-4.87,1.7-9.77,3.05-14.64,3.86c-0.24,0.07-0.49,0.04-0.68-0.02
		c-0.09,0-0.18-0.02-0.24-0.04s-0.11-0.09-0.13-0.13c-0.02-0.07,0-0.13,0.02-0.2c0.04-0.07,0.11-0.13,0.18-0.18
		c0.09-0.07,0.2-0.11,0.26-0.15c1.15-0.46,2.29-0.75,3.44-1.08c7.06-1.92,14.07-4.64,21.1-8.59c3.7-2.08,7.39-4.68,10.63-7.53
		c1.98-1.74,3.68-3.55,5.34-5.63c2.25-2.87,3.93-5.74,5.2-8.61c0.9-1.96,1.57-3.95,1.79-5.92c0.11-0.86,0.04-1.72-0.15-2.58
		c-0.13-0.51-0.42-1.02-0.71-1.57c-0.15-0.22-0.35-0.46-0.55-0.66c-0.46-0.42-0.88-0.77-1.35-1.02c-0.88-0.49-1.79-0.91-2.62-0.93
		L43.71,79.17c-1.17,0.02-2.32,0.44-3.48,1.02c-0.38,0.18-0.75,0.42-1.15,0.73c-0.33,0.31-0.64,0.62-0.86,0.97
		c-0.29,0.4-0.51,0.82-0.64,1.24c-0.24,0.71-0.35,1.41-0.31,2.1c0.04,1.55,0.4,3.09,0.99,4.68c1.12,2.89,2.67,5.76,4.72,8.7
		c0.95,1.35,2.07,2.69,3.26,4c0.15,0.18,0.31,0.26,0.4,0.42c0.13,0.15,0.26,0.33,0.46,0.49c1.61,1.74,3.62,3.53,5.62,5.06
		c2.16,1.68,4.32,3.18,6.37,4.35c8.6,4.86,17.24,8.08,25.89,10.29c0.07,0.02,0.18,0.07,0.26,0.15
		C85.36,123.41,85.43,123.52,85.43,123.63"/>
</g>
</svg>
