<?xml version="1.0" encoding="utf-8"?>
<!-- Generator: Adobe Illustrator 28.0.0, SVG Export Plug-In . SVG Version: 6.00 Build 0)  -->
<svg version="1.1" id="Layer_1" xmlns="http://www.w3.org/2000/svg" xmlns:xlink="http://www.w3.org/1999/xlink" x="0px" y="0px"
	 viewBox="0 0 198.43 198.43" style="enable-background:new 0 0 198.43 198.43;" xml:space="preserve">
<style type="text/css">
	.st0{fill-rule:evenodd;clip-rule:evenodd;fill:#EF3A23;}
	.st1{fill-rule:evenodd;clip-rule:evenodd;fill:#161217;}
	.st2{fill-rule:evenodd;clip-rule:evenodd;fill:#646668;}
</style>
<g>
	<path class="st0" d="M51.74,110.64c-8.79,0-15.94-7.07-15.94-15.86c0-8.86,7.15-15.94,15.94-15.94s15.94,7.07,15.94,15.94h4.69
		c0-11.47-9.23-20.7-20.63-20.7s-20.7,9.23-20.7,20.7c0,11.39,9.31,20.63,20.7,20.63V110.64z"/>
	
		<rect x="40.39" y="66.77" transform="matrix(0.7071 -0.7071 0.7071 0.7071 -41.8335 53.7142)" class="st1" width="7.06" height="21.17"/>
	<polygon class="st1" points="29.25,77.06 24.26,82.05 39.23,96.94 44.22,92.02 	"/>
	<polygon class="st2" points="77.65,130.67 77.65,119.35 66.93,119.35 66.93,130.67 62.09,130.67 62.09,104.68 66.93,104.68 
		66.93,115.11 77.65,115.11 77.65,104.68 82.5,104.68 82.5,130.67 	"/>
	<path class="st2" d="M105.36,120.69c0,3.05-0.89,5.51-2.61,7.45c-1.64,1.79-3.8,2.76-6.48,2.9v-4.17c1.19,0,2.23-0.52,2.98-1.49
		c0.74-1.04,1.12-2.46,1.19-4.39c0-3.8-1.34-5.73-4.1-5.73h-0.07v-4.17h0.45C102.38,111.09,105.21,114.29,105.36,120.69
		 M96.27,131.04H95.9c-5.66,0.15-8.56-3.13-8.71-9.61c0-3.13,0.89-5.58,2.68-7.45c1.64-1.79,3.72-2.76,6.4-2.9v4.17
		c-1.04,0-2.01,0.45-2.76,1.27c-0.89,0.97-1.34,2.38-1.41,4.39c0,3.95,1.41,5.96,4.17,5.96V131.04z"/>
	<rect x="109.82" y="102.52" class="st2" width="4.77" height="28.15"/>
	<path class="st2" d="M132.24,130.15c-1.34,0.52-3.05,0.82-5.06,0.82c-5.58,0.15-8.41-2.98-8.49-9.23c0-3.13,0.74-5.66,2.38-7.6
		c1.56-1.94,4.02-2.98,7.3-2.98c1.34,0,2.61,0.15,3.87,0.52l-0.52,4.24c-1.04-0.45-2.16-0.67-3.35-0.67
		c-3.05,0.07-4.54,2.01-4.54,5.96c0,1.64,0.3,2.98,1.04,4.02c0.67,1.04,1.79,1.56,3.35,1.56c1.34,0,2.53-0.3,3.65-0.82
		L132.24,130.15z"/>
	<path class="st2" d="M141.77,106.02c0,0.82-0.3,1.49-0.82,2.09c-0.6,0.6-1.27,0.89-2.16,0.89c-0.82,0-1.49-0.3-2.01-0.89
		c-0.6-0.6-0.89-1.27-0.89-2.09c0-0.82,0.3-1.56,0.89-2.09c0.52-0.6,1.19-0.89,2.01-0.89c0.89,0,1.56,0.3,2.16,0.89
		C141.47,104.46,141.77,105.13,141.77,106.02 M136.41,111.53h4.77v19.14h-4.77V111.53z"/>
	<path class="st2" d="M169.4,130.67v-12.21c0-1.04-0.15-1.86-0.45-2.46c-0.3-0.6-0.97-0.89-1.86-0.89c-1.19,0.07-2.16,0.6-3.05,1.71
		c-0.97,1.12-1.41,2.68-1.41,4.62v9.23h-4.77v-12.21c0-0.97-0.07-1.79-0.37-2.38c-0.3-0.6-0.97-0.89-1.94-0.97
		c-1.19,0.07-2.16,0.67-3.05,1.79c-0.97,1.19-1.41,2.68-1.41,4.54v9.23h-4.77v-19.21h4.62c0,1.04-0.07,2.16-0.22,3.43h0.07
		c1.19-2.53,3.28-3.8,6.26-3.8c1.71,0,2.9,0.37,3.72,1.19c0.82,0.74,1.34,1.64,1.49,2.61c0.45-0.97,1.27-1.86,2.31-2.68
		c0.97-0.74,2.31-1.12,3.95-1.12c3.72-0.07,5.66,2.09,5.66,6.4v13.18H169.4z"/>
</g>
</svg>
