<?xml version="1.0" encoding="utf-8"?>
<!-- Generator: Adobe Illustrator 28.0.0, SVG Export Plug-In . SVG Version: 6.00 Build 0)  -->
<svg version="1.1" id="Layer_1" xmlns="http://www.w3.org/2000/svg" xmlns:xlink="http://www.w3.org/1999/xlink" x="0px" y="0px"
	 viewBox="0 0 198.43 198.43" style="enable-background:new 0 0 198.43 198.43;" xml:space="preserve">
<style type="text/css">
	.st0{fill-rule:evenodd;clip-rule:evenodd;fill:#575164;}
	.st1{fill-rule:evenodd;clip-rule:evenodd;fill:#316990;}
</style>
<g>
	<path class="st0" d="M167.73,103.71c1.49,0,2.32,3.25,2.32,7.24c0,3.99-0.86,7.24-2.32,7.24s-2.32-3.25-2.32-7.24
		C165.41,106.96,166.25,103.71,167.73,103.71 M167.73,98.32c3.54,0,5.53,5.68,5.53,12.64c0,6.96-2.04,12.64-5.53,12.64
		c-3.49,0-5.53-5.68-5.53-12.64C162.2,103.99,164.19,98.32,167.73,98.32 M117.71,103.71c1.49,0,2.32,3.25,2.32,7.24
		c0,3.99-0.86,7.24-2.32,7.24c-1.47,0-2.32-3.25-2.32-7.24C115.38,106.96,116.22,103.71,117.71,103.71 M117.71,98.32
		c3.54,0,5.53,5.68,5.53,12.64c0,6.96-2.04,12.64-5.53,12.64c-3.49,0-5.53-5.68-5.53-12.64C112.17,103.99,114.17,98.32,117.71,98.32
		 M96.87,103.71c1.49,0,2.32,3.25,2.32,7.24c0,3.99-0.86,7.24-2.32,7.24c-1.47,0-2.32-3.25-2.32-7.24
		C94.55,106.96,95.39,103.71,96.87,103.71 M96.87,98.32c3.54,0,5.53,5.68,5.53,12.64c0,6.96-2.04,12.64-5.53,12.64
		c-3.49,0-5.53-5.68-5.53-12.64C91.34,103.99,93.33,98.32,96.87,98.32 M45.86,122.87l3.78,0l4.2-12.45v12.45h2.96l3.85-11.73
		l0.01,11.73l3.22,0v-24h-3.22l-3.61,12.38l-0.01-12.38l-3.14,0L45.86,122.87z M64.28,122.87h7.86v-5.05l-4.72-0.01v-4.99l4.72,0.01
		v-5.02h-4.72v-3.68h4.72v-5.25l-7.86,0L64.28,122.87z M81.85,122.87h3.14v-8.35l3.15,8.35h3.95l-3.59-9.16
		c0.77-0.8,1.37-1.81,1.77-3.09c0.41-1.29,0.62-2.86,0.63-4.79c0-2.03-0.52-3.8-1.34-5.04c-0.82-1.24-1.94-1.96-3.12-1.91l-4.59,0
		L81.85,122.87z M102.86,122.87h3.08l-0.03-8.47c3.07,0.04,5.92-1.94,5.92-8.03c0-6.13-2.67-7.5-5.9-7.5h-3.07V122.87z
		 M148.21,107.68v5.22h-1.77C147.04,111.17,147.62,109.43,148.21,107.68 M139.2,122.87h1.09h2.77l1.66-4.97h3.5l-0.01,4.97h3.07
		l0-24h-3.86l-7.14,20.81v-15.57h2.81v-5.24h-8.78v5.24h2.81v18.76H139.2z M84.99,109.28v-5.29l0.79,0.01c1,0,1.68,0.85,1.71,2.52
		c0.03,1.67-0.66,2.75-1.61,2.75L84.99,109.28z M105.92,103.97l0.77,0.01c0.4,0,0.73-0.02,1.07,0.37c0.15,0.19,0.29,0.42,0.4,0.7
		c0.1,0.26,0.17,0.51,0.2,0.77c0.04,0.37,0.07,0.75,0.04,1.12c-0.03,0.33-0.07,0.65-0.15,0.98c-0.08,0.3-0.18,0.54-0.32,0.72
		c-0.29,0.38-0.71,0.59-1.07,0.58l-0.95-0.01L105.92,103.97z M151.91,122.87h3.06l0.02-13.22l3.63,13.22h3.12l0-24h-3.07v13.36
		l-3.57-13.36h-3.17L151.91,122.87z M78.65,104.11v18.76h-3.16v-18.76h-2.81v-5.24h8.78v5.24H78.65z M123.74,122.87v-24h3.16v18.76
		h2.81v5.24H123.74z M130.4,98.87h3.1v24h-3.1V98.87z"/>
	<path class="st1" d="M167.11,93.63h5.29v-2.08h-3.05v-5.76h-2.24V93.63z M151.28,93.63h2.24v-5.78h1.97v-2.06h-6.22v2.06h2.01
		V93.63z M144.04,93.63h2.28v-7.84h-2.28V93.63z M137.05,89.31v-1.6h0.72c0.79,0,1.17,0.09,1.17,0.81c0,0.69-0.38,0.8-1.17,0.8
		H137.05z M134.81,93.63h2.24v-2.4h1.34c1.75,0,2.69-0.97,2.69-2.72c0-0.99-0.31-1.71-0.96-2.2c-0.57-0.43-1.36-0.52-2.44-0.52
		h-2.87V93.63z M125.53,91.19c0.14,1.67,1.24,2.66,3.11,2.66c2.04,0,3.12-0.99,3.12-2.7c0-0.81-0.28-1.37-0.89-1.83
		c-0.45-0.34-1.14-0.49-2-0.74c-0.68-0.2-1.04-0.27-1.04-0.69c0-0.36,0.23-0.53,0.71-0.53c0.54,0,0.83,0.22,0.9,0.69h2.13
		c-0.13-1.58-1.18-2.46-2.99-2.46c-1.86,0-2.93,0.98-2.93,2.5c0,0.77,0.26,1.37,0.81,1.81c0.29,0.23,0.92,0.47,1.89,0.75
		c0.82,0.24,1.23,0.28,1.23,0.77c0,0.34-0.3,0.57-0.84,0.57c-0.61,0-0.91-0.22-1.03-0.8H125.53z M117.85,89.72
		c0-1.47,0.42-2.16,1.37-2.16s1.36,0.69,1.36,2.16s-0.41,2.16-1.36,2.16S117.85,91.19,117.85,89.72 M115.58,89.72
		c0,2.55,1.39,4.13,3.63,4.13c2.24,0,3.62-1.58,3.62-4.13c0-2.55-1.38-4.13-3.62-4.13C116.97,85.58,115.58,87.16,115.58,89.72
		 M105.99,93.63h2.24v-3.04h2.09v3.04h2.24v-7.84h-2.24v2.66h-2.09v-2.66h-2.24V93.63z M156.38,93.63h2.2l0.59-1.04h2.22l-0.06,1.04
		h2.22l-0.01-7.84h-2.27L156.38,93.63z M160.1,90.95l1.55-2.72l-0.15,2.72H160.1z"/>
	<path class="st1" d="M87.11,93.51l11.01-0.14l7.86-17.12c1.23-2.5-0.33-6.39-2.13-6.39l-32.5-0.05L60.07,93.49h10.51l4.23-9.01
		l4.23-9.02c0.76,0.14,1.23,0.58,1.39,1.25c0.16,0.67,0.02,1.59-0.47,2.64l-6.68,14.14h11.05l8.78-18.18
		c1.07-0.04,1.68,1.53,0.8,3.57C92.48,82.01,87.11,93.51,87.11,93.51 M59.47,60.53L48.32,60.6l-15.78,33L34,93.62l4.38-9.19
		l8.25,0.02l-4.1,9l1.28,0.14l7.86-16.58c0.58-1.22,1.64-2.33,2.59-1.66c0.92,0.65,1.17,2.57,0.42,4.16l-10.84,23.15h-5.71
		l-4.55,9.72h-8.46l4.62-9.84l-6.38,0.12l0.03,9.79l1.58,0.16v9.33l8.86,0.02l4.4-9.47l5.69,0.09l4.4-9.26l0.03-9.85l10.9,0.01
		l8.01-17.12C68.42,73.88,67.08,70,65.1,70l-10.2-0.01L59.47,60.53z"/>
</g>
</svg>
