<?xml version="1.0" encoding="utf-8"?>
<!-- Generator: Adobe Illustrator 28.0.0, SVG Export Plug-In . SVG Version: 6.00 Build 0)  -->
<svg version="1.1" id="Layer_1" xmlns="http://www.w3.org/2000/svg" xmlns:xlink="http://www.w3.org/1999/xlink" x="0px" y="0px"
	 viewBox="0 0 198.43 198.43" style="enable-background:new 0 0 198.43 198.43;" xml:space="preserve">
<style type="text/css">
	.st0{fill-rule:evenodd;clip-rule:evenodd;fill:#002E6B;}
</style>
<polygon class="st0" points="24.36,141.2 24.36,120.07 30.11,120.07 30.11,128.15 39.27,128.15 39.27,120.07 45.02,120.07 
	45.02,141.2 39.27,141.2 39.27,132.65 30.11,132.65 30.11,141.2 "/>
<polygon class="st0" points="46.64,120.07 55.73,132.79 55.73,141.2 61.48,141.2 61.48,132.79 70.51,120.07 63.87,120.07 
	58.61,127.61 53.27,120.07 "/>
<g>
	<path class="st0" d="M72.13,120.07v21.13H86.9c2.26,0,5.81-0.87,5.74-5.38v-15.74H86.9v14.26c0,1.62-0.89,2.22-2.53,2.22h-6.5
		v-16.48H72.13z"/>
	<path class="st0" d="M96.18,141.2v-21.13h14.77c2.26,0,5.81,0.87,5.74,5.38v15.74h-5.74v-14.26c0-1.61-0.89-2.22-2.53-2.22h-6.5
		v16.48H96.18z"/>
	<rect x="168.52" y="120.07" class="st0" width="5.74" height="21.13"/>
	<path class="st0" d="M135.15,134.54L135.15,134.54c0,0.74-0.21,1.75-1.64,1.82h-7.52v-11.44h7.66c0.96,0,1.5,0.67,1.5,1.55V134.54z
		 M135.15,120.07h-14.91v21.13h14.91c2.8,0,5.74-1.55,5.74-5.38v-10.9C140.89,122.76,140.41,120.07,135.15,120.07"/>
	<path class="st0" d="M159.07,131.76L159.07,131.76h-9.03v-4.91c0-1.41,0.55-1.88,1.78-1.95h7.25V131.76z M149.77,120.07
		c-3.76,0-5.47,1.75-5.47,4.84v16.28h5.74v-5.11h9.03v5.11h5.74v-21.13H149.77z"/>
	<path class="st0" d="M136.81,65.04L136.81,65.04c6.93,3.84,14.78,10.59,13.96,19.59c-0.95,8.34-8.63,14.16-15.5,17.67
		c-20.04,9.7-48.19,9.99-68.88,1.52c-7-2.95-14.84-8.01-17.78-15.62c-2.26-6.25,0.49-12.77,5.1-17.11
		c9.64-8.87,21.94-11.91,34.59-13.67c13.73-1.69,28.18-0.2,40.47,4.07C131.51,62.53,134.23,63.65,136.81,65.04 M125.5,64.78
		L125.5,64.78c0.49,0.26,1.08,0.36,1.37,0.86c0.26,0.56-0.26,0.93-0.56,1.29c-6.77,5.36-14.52,8.34-22.43,10.95
		c-4.02,0.99-8.07,2.78-12.55,1.79c-1.05-0.27-1.99-0.96-2.58-1.99c-1.11-3.11,0.39-6.35,1.7-9.07c1.73-3.41,4.81-7.41,9.06-7.48
		C108.66,61.07,117.29,62.46,125.5,64.78 M82.83,63.19L82.83,63.19l-0.13,0.5c-8.6,9.89-14.25,21.38-19.61,32.79
		c-1.05,0.99-2.06-0.33-3.01-0.76c-4.77-3.18-9.09-8.31-7.85-14.39c1.99-7.94,10.07-12.18,16.8-15.06
		c3.99-1.52,8.14-2.75,12.52-3.44C82.02,62.82,82.61,62.76,82.83,63.19 M139.88,71.92L139.88,71.92c4.05,3.38,7.72,7.98,6.47,13.53
		c-2.03,8.21-10.85,12.57-17.88,15.35c-3.82,1.29-7.68,2.61-11.87,3.01c-0.26-0.03-0.69,0.03-0.75-0.36l0.1-0.46
		c5.95-6.78,10.46-14.39,14.42-22.1c1.83-3.47,3.53-7.05,5.1-10.56c0.23-0.26,0.46-0.4,0.72-0.5
		C137.66,69.97,138.71,71.13,139.88,71.92 M110.1,89.46c0.79,4.1-1.34,7.51-3.11,10.82c-1.96,3.08-5.2,5.72-9.09,5.33
		c-8.73-0.13-17.26-1.49-25.17-3.9c-0.36-0.1-0.72-0.33-0.92-0.66c-0.16-0.46,0.07-0.89,0.39-1.19c7.23-5.92,15.82-8.67,24.32-11.55
		c3.17-0.93,6.54-1.92,10.1-1.46C108.11,87.05,109.58,88.07,110.1,89.46"/>
</g>
</svg>
