<?xml version="1.0" encoding="utf-8"?>
<!-- Generator: Adobe Illustrator 28.0.0, SVG Export Plug-In . SVG Version: 6.00 Build 0)  -->
<svg version="1.1" id="Layer_1" xmlns="http://www.w3.org/2000/svg" xmlns:xlink="http://www.w3.org/1999/xlink" x="0px" y="0px"
	 viewBox="0 0 658.2 659.9" style="enable-background:new 0 0 658.2 659.9;" xml:space="preserve">
<style type="text/css">
	.st0{fill:#EC1C24;}
</style>
<g>
	<path class="st0" d="M331.2,330.5c31.3-8,77.1-9.1,117.7-6.9c50.6,1.2,92.8,22.1,135,44.3v172.3c-21.2-51.2-54.7-98.9-101.2-138
		C440.2,358.8,387.1,337,331.2,330.5"/>
	<path class="st0" d="M330.4,332c27.6,16.7,60.6,48.6,87.5,79.1c34.6,36.9,49.2,81.7,63,127.3L358.1,659.9
		c21.7-51.1,32.1-109.1,27.3-169.6C386.6,429.6,364.9,376.4,330.4,332"/>
	<path class="st0" d="M328,332.1c7.6,31.4,8.3,77.2,5.6,117.8c-1.9,50.6-23.3,92.5-46,134.4l-172.8-1.4
		c51.5-20.7,100-54.1,139.6-100.2C298.4,440.8,320.8,387.9,328,332.1"/>
	<path class="st0" d="M328,332.1c-16.7,27.6-48.6,60.5-79.2,87.4c-37,34.5-81.8,49.1-127.4,62.8L0,359.4
		c51,21.7,109,32.2,169.6,27.5C230.3,388.2,283.5,366.6,328,332.1"/>
	<path class="st0" d="M325.8,330c-31.3,8-77.1,9.2-117.7,7c-50.6-1.2-92.8-22.1-135-44.3V120c21.3,51.2,54.6,99.3,101.2,138.3
		C216.8,301.7,270,323.5,325.8,330"/>
	<path class="st0" d="M325.8,327.8c-27.7-16.6-60.8-48.3-87.8-78.7c-34.8-36.8-49.6-81.4-63.6-127L296.6,0
		c-21.4,51.2-31.6,109.2-26.5,169.8C269.2,230.5,291.1,283.6,325.8,327.8"/>
	<path class="st0" d="M328.1,327.7c-7-31.5-6.7-77.3-3.3-117.9c2.8-50.5,25.1-92,48.6-133.5l177,0.5
		c-51.9,19.6-105.3,56.4-145.8,101.8C359.9,219.7,336.4,272.1,328.1,327.7"/>
	<path class="st0" d="M330.4,328.9c16.5-27.7,48.2-60.9,78.5-88c36.7-34.8,81.4-49.7,126.9-63.8l122.4,122
		C607,277.7,549,267.7,488.4,272.8C427.6,272.1,374.6,294.1,330.4,328.9"/>
</g>
</svg>
