<?xml version="1.0" encoding="utf-8"?>
<!-- Generator: Adobe Illustrator 28.0.0, SVG Export Plug-In . SVG Version: 6.00 Build 0)  -->
<svg version="1.1" id="Layer_1" xmlns="http://www.w3.org/2000/svg" xmlns:xlink="http://www.w3.org/1999/xlink" x="0px" y="0px"
	 viewBox="0 0 570.5 312.8" style="enable-background:new 0 0 570.5 312.8;" xml:space="preserve">
<style type="text/css">
	.st0{fill:#FFFFFF;}
	.st1{fill:#ED1C24;}
</style>
<g>
	<path class="st0" d="M539.6,218c15.8,0,30.9,9.7,30.9,28.3c0,18.6-15.1,28.3-30.9,28.3c-15.8,0-30.9-9.7-30.9-28.3
		C508.7,227.7,523.8,218,539.6,218 M539.6,271.9c9,0,14.9-8,14.9-25.6c0-17.6-5.9-25.6-14.9-25.6c-9,0-14.9,8-14.9,25.6
		C524.7,263.9,530.6,271.9,539.6,271.9"/>
	<path class="st0" d="M5.1,255.3l1.3,0.6c0.2,5.4,1.8,15.7,7,15.7c2.3,0,5.8-2,5.8-19.3V230c0-5.5-1-8.5-5.3-9.3v-1.3
		c4.9,0,8.8,0.3,12.5,0.3c3.7,0,7.6-0.3,12.3-0.3v1.3c-4.1,0.8-5.1,3.8-5.1,9.3v21.3c0,14.8-6.7,23.3-20.5,23.3c-5,0-9-0.8-13.1-1.9
		L5.1,255.3z"/>
	<path class="st0" d="M70.7,218c15.8,0,30.9,9.7,30.9,28.3c0,18.6-15.1,28.3-30.9,28.3c-15.8,0-30.9-9.7-30.9-28.3
		C39.8,227.7,54.9,218,70.7,218 M70.7,271.9c9,0,14.9-8,14.9-25.6c0-17.6-5.9-25.6-14.9-25.6s-14.9,8-14.9,25.6
		C55.8,263.9,61.7,271.9,70.7,271.9"/>
	<path class="st0" d="M109.2,230c0-5.5-1-8.5-4.8-9.3v-1.3c3.3,0,6.5,0.1,9.7,0.2c3.3,0.1,6.5,0.2,9.4,0.2h14.9
		c13.2,0,19.8,5,19.8,12.5c0,10.4-12.2,12.7-20.2,12.7v0.2c9.6,1.5,13.5,3.7,17.2,13c4.3,11.1,6,12.7,10.5,13.9v1.3
		c-3.3,0-7.3-0.3-10.3-0.3c-3.1,0-6.6,0.3-10,0.3l-4.3-13.2c-2.3-6-5.6-14.1-13.2-14.1h-4.3v11.2c0,7.5,0.3,14.1,6.3,14.5v1.7
		c-4.5,0-9.1-0.3-13.5-0.3c-4.3,0-9,0.3-13.5,0.3v-1.7c6-0.3,6.3-7,6.3-14.5V230z M123.6,243.2h4.3c6.9,0,14.6-2.3,14.6-10.4
		c0-8.7-7.7-10.5-14.6-10.5h-4.3V243.2z"/>
	<path class="st0" d="M204.6,256.8c0-7.4-1.7-8.7-8.5-9.7v-1.3c4.7,0,9.6,0.3,13.9,0.3c4.3,0,9.7-0.3,14.5-0.3v1.3
		c-4.6,0.3-5.5,4.2-5.5,11.8c0,3,0,6,1,9c-8.3,4.3-15.5,6.7-26.2,6.7c-15.8,0-30.9-9.7-30.9-28.3s15.1-28.3,30.9-28.3
		c10.1,0,19,2,25.7,5.5l-5,16.1h-1.3c-1.3-9.9-6-19-17.1-19c-13.2,0-17.2,15.4-17.2,25.6c0,10.2,2.6,25.6,15.9,25.6
		c6.4,0,9.8-3.9,9.8-10.2V256.8z"/>
	<path class="st0" d="M230.6,230c0-5.5-1-8.5-4.8-9.3v-1.3c2.2,0,4.3,0.1,6.3,0.2c2,0.1,3.9,0.2,5.7,0.2c9.6,0,16.4-0.1,21.9-0.2
		c5.5-0.1,9.6-0.2,13.5-0.2l3.8,14.7h-1.8c-6-7.4-14.2-11.6-22.5-11.6H245v21.1h4.8c7,0,14.4-1.5,16.8-9.1h1.5V255h-1.3
		c-1.6-6.1-8.7-8.8-17.1-8.8H245v12.1c0,8.3,1.9,11.5,10,11.5c10.4,0,20-8.3,25.9-15.9l1.3,0.6l-6,18.7c-11.3,0-22.6-0.3-38.4-0.3
		c-2.1,0-4.4,0.1-6.7,0.2c-2.4,0.1-4.7,0.2-7.2,0.2v-1.7c6.4-0.3,6.7-7,6.7-14.5V230z"/>
	<path class="st0" d="M310.9,230c0-5.5-1-8.5-4.8-9.3v-1.3c3.3,0,6.5,0.1,9.7,0.2c3.3,0.1,6.5,0.2,9.4,0.2h14.9
		c13.2,0,19.8,5,19.8,12.5c0,10.4-12.2,12.7-20.2,12.7v0.2c9.6,1.5,13.5,3.7,17.2,13c4.3,11.1,6,12.7,10.5,13.9v1.3
		c-3.3,0-7.3-0.3-10.3-0.3c-3.1,0-6.6,0.3-10,0.3l-4.3-13.2c-2.3-6-5.6-14.1-13.2-14.1h-4.3v11.2c0,7.5,0.3,14.1,6.3,14.5v1.7
		c-4.5,0-9.1-0.3-13.5-0.3c-4.3,0-9,0.3-13.5,0.3v-1.7c6-0.3,6.3-7,6.3-14.5V230z M325.3,243.2h4.3c6.9,0,14.6-2.3,14.6-10.4
		c0-8.7-7.7-10.5-14.6-10.5h-4.3V243.2z"/>
	<path class="st0" d="M413.5,237.5c0-5.9-1.2-15-9-16.7v-1.4c4.2,0,8,0.3,11,0.3c3,0,6.5-0.3,9.4-0.3v1.3
		c-6.2,1.8-8.4,10.9-8.4,16.8v14.4c0,15.8-8,22.7-23.9,22.7c-11.5,0-24.6-4-24.6-16.2V230c0-7-0.9-8.8-4.2-9.3v-1.3
		c4.2,0,8.4,0.3,12.2,0.3c3.8,0,8.5-0.3,12.6-0.3v1.3c-3.7,0.5-6.2,3.2-6.2,9.3v24.5c0,9.5,3.8,16.3,13.3,16.3
		c13.6,0,17.8-6.8,17.8-19.6V237.5z"/>
	<path class="st0" d="M426.9,230c0-5.5-0.7-8.5-3.9-9.3v-1.3c1.9,0,3.8,0.1,5.7,0.2c1.9,0.1,3.8,0.2,5.6,0.2h17.6
		c7.7,0,23.1,0.7,23.1,11.6c0,10-9.7,11.8-17.5,12.7v0.2c8.7,0.3,21.8,3.2,21.8,14.5c0,13.5-18.4,14.3-27.5,14.3h-15.8
		c-2.4,0-4.9,0.1-7.5,0.2c-2.5,0.1-5.2,0.2-7.8,0.2v-1.7c5.7-0.3,6-7,6-14.5V230z M441.3,243h2.7c7.9,0,16-1.3,16-10.5
		c0.2-8.2-5.1-10-16-10.1h-2.7V243z M441.3,257.1c0.1,11.8,1.4,13.2,9.9,13.2c8.1,0,13.2-4.2,13.2-12.7c0-10.8-11-12-19.5-12h-3.5
		V257.1z"/>
	<path class="st0" d="M486.6,227.9c0-5.7-1.6-6.4-4.2-7.2v-1.3c3.8,0,7.7,0.3,11.4,0.3c3.7,0,7.6-0.3,11.4-0.3v1.3
		c-3.2,0.8-4.2,2.8-4.2,7.4v28.7c0,7.5,0.3,14.1,5.6,14.5v1.7h-26.3v-1.7c6-0.3,6.3-7,6.3-14.5V227.9z"/>
	<path class="st0" d="M38.6,288.8v1.8h-4.1v11.8c0,0.7,0.1,1.3,0.3,1.7c0.2,0.4,0.8,0.6,1.7,0.7c0.7,0,1.4,0,2.1-0.1v1.8
		c-0.4,0-0.7,0-1.1,0c-0.4,0-0.7,0-1.1,0c-1.6,0-2.8-0.3-3.4-0.8c-0.7-0.6-1-1.6-0.9-3.1v-12h-3.5v-1.8H32v-5.3h2.5v5.3H38.6z"/>
	<path class="st0" d="M53.2,291.5c0.4-0.7,1-1.4,1.7-1.8c0.7-0.5,1.6-0.8,2.5-1.1c1-0.2,2-0.3,3.2-0.3c0.9,0,1.8,0.1,2.7,0.2
		c0.9,0.1,1.7,0.4,2.4,0.8c0.7,0.4,1.3,1,1.7,1.7c0.4,0.7,0.7,1.7,0.7,2.9v9.3c0,0.9,0.5,1.3,1.4,1.3c0.3,0,0.5,0,0.8-0.1v1.8
		c-0.3,0-0.5,0.1-0.8,0.1c-0.2,0-0.5,0-0.8,0c-0.6,0-1.1-0.1-1.5-0.2c-0.4-0.1-0.7-0.4-0.9-0.6c-0.2-0.3-0.3-0.6-0.4-1
		c-0.1-0.4-0.1-0.8-0.1-1.2h-0.1c-0.4,0.6-0.9,1.1-1.3,1.5c-0.5,0.4-1,0.8-1.5,1.1c-0.6,0.3-1.2,0.5-1.9,0.7
		c-0.7,0.2-1.6,0.2-2.6,0.2c-0.9,0-1.8-0.1-2.6-0.3c-0.8-0.2-1.5-0.5-2.1-0.9c-0.6-0.4-1.1-1-1.4-1.6c-0.4-0.6-0.5-1.4-0.5-2.3
		c0-1.2,0.3-2.2,0.9-2.9c0.6-0.7,1.5-1.2,2.5-1.6c1-0.4,2.2-0.6,3.5-0.8c1.3-0.1,2.6-0.3,3.9-0.4c0.5,0,1-0.1,1.4-0.2
		c0.4-0.1,0.7-0.2,1-0.4c0.3-0.2,0.5-0.4,0.6-0.7c0.1-0.3,0.2-0.7,0.2-1.2c0-0.7-0.1-1.3-0.4-1.8c-0.3-0.5-0.7-0.8-1.1-1.1
		c-0.5-0.3-1-0.5-1.7-0.6c-0.6-0.1-1.3-0.2-2-0.2c-1.6,0-2.8,0.3-3.8,1c-1,0.6-1.5,1.7-1.6,3.1h-2.5
		C52.5,293.1,52.8,292.2,53.2,291.5 M65.5,296.7c-0.2,0.2-0.5,0.4-0.9,0.5c-0.4,0.1-0.8,0.2-1.2,0.2c-1,0.2-2.1,0.3-3.2,0.4
		c-1.1,0.1-2.1,0.3-3,0.6c-0.9,0.2-1.7,0.6-2.2,1.1c-0.6,0.5-0.9,1.1-0.9,2c0,0.5,0.1,1,0.4,1.4c0.2,0.4,0.6,0.8,1,1.1
		c0.4,0.3,0.9,0.5,1.4,0.7c0.5,0.2,1.1,0.2,1.7,0.2c0.9,0,1.8-0.1,2.7-0.4c0.9-0.2,1.6-0.6,2.2-1.1c0.6-0.5,1.1-1.1,1.5-1.7
		c0.4-0.7,0.6-1.5,0.6-2.3L65.5,296.7L65.5,296.7z"/>
	<rect x="83.5" y="282" class="st0" width="2.5" height="24.3"/>
	<rect x="101.3" y="282" class="st0" width="2.5" height="24.3"/>
	<path class="st0" d="M120.8,300.5c0.2,0.8,0.6,1.6,1.2,2.2c0.5,0.7,1.2,1.2,2.1,1.6c0.8,0.4,1.8,0.6,3,0.6c1.8,0,3.2-0.4,4.2-1.2
		c1-0.8,1.7-1.9,2.1-3.3h2.5c-0.5,2-1.5,3.5-2.9,4.6s-3.4,1.6-5.9,1.6c-1.6,0-3-0.2-4.1-0.7c-1.2-0.5-2.1-1.2-2.8-2
		c-0.7-0.9-1.3-1.8-1.6-3c-0.4-1.1-0.5-2.3-0.5-3.6c0-1.2,0.2-2.3,0.5-3.4c0.4-1.1,0.9-2.1,1.6-3c0.7-0.9,1.7-1.6,2.8-2.1
		c1.2-0.5,2.5-0.8,4.1-0.8c1.6,0,3,0.3,4.1,0.9c1.1,0.6,2.1,1.3,2.8,2.2c0.7,0.9,1.2,2,1.5,3.2c0.3,1.2,0.4,2.4,0.4,3.6h-15.5
		C120.4,298.9,120.6,299.7,120.8,300.5 M133,294c-0.3-0.7-0.7-1.4-1.3-2c-0.5-0.6-1.2-1-2-1.4c-0.8-0.4-1.7-0.5-2.7-0.5
		c-1,0-1.9,0.2-2.7,0.5c-0.8,0.4-1.4,0.8-2,1.4c-0.5,0.6-1,1.2-1.3,2c-0.3,0.8-0.5,1.5-0.6,2.3h13C133.4,295.5,133.3,294.7,133,294"
		/>
	<path class="st0" d="M152,288.8v4.1h0.1c0.6-1.4,1.6-2.5,2.9-3.3c1.3-0.8,2.9-1.1,4.7-1.1v2.1c-1.1,0-2.1,0.1-3,0.4
		c-0.9,0.3-1.7,0.7-2.4,1.3c-0.7,0.6-1.2,1.2-1.5,2c-0.4,0.8-0.5,1.6-0.5,2.6v9.4h-2.5v-17.6H152z"/>
	<path class="st0" d="M209.4,306.3V303h-0.1c-0.3,0.6-0.6,1.1-1.2,1.6c-0.5,0.5-1.1,0.9-1.7,1.2c-0.6,0.3-1.3,0.6-2.1,0.8
		c-0.7,0.2-1.5,0.3-2.2,0.3c-1.5,0-2.9-0.2-4-0.7c-1.1-0.5-2.1-1.2-2.8-2c-0.8-0.8-1.3-1.8-1.7-3c-0.4-1.1-0.5-2.3-0.5-3.6
		c0-1.2,0.2-2.4,0.5-3.6c0.4-1.1,0.9-2.1,1.7-3c0.8-0.8,1.7-1.5,2.8-2c1.1-0.5,2.5-0.7,4-0.7c0.8,0,1.5,0.1,2.2,0.2
		c0.7,0.2,1.4,0.4,2,0.7c0.6,0.3,1.2,0.7,1.7,1.2c0.5,0.5,0.9,1,1.1,1.7h0.1V282h2.5v24.3H209.4z M196,300.3
		c0.2,0.9,0.6,1.7,1.2,2.4c0.5,0.7,1.2,1.3,2,1.7c0.8,0.4,1.8,0.7,3,0.7c1.3,0,2.4-0.2,3.3-0.7c0.9-0.4,1.6-1,2.2-1.7
		c0.6-0.7,1-1.5,1.2-2.4c0.2-0.9,0.4-1.8,0.4-2.7c0-0.9-0.1-1.8-0.4-2.7c-0.2-0.9-0.7-1.7-1.2-2.4c-0.6-0.7-1.3-1.3-2.2-1.7
		c-0.9-0.4-2-0.7-3.3-0.7c-1.2,0-2.2,0.2-3,0.7c-0.8,0.4-1.5,1-2,1.7c-0.5,0.7-0.9,1.5-1.2,2.4c-0.2,0.9-0.4,1.8-0.4,2.7
		C195.6,298.5,195.7,299.4,196,300.3"/>
	<path class="st0" d="M228.7,300.5c0.2,0.8,0.6,1.6,1.2,2.2c0.5,0.7,1.2,1.2,2.1,1.6c0.8,0.4,1.8,0.6,3,0.6c1.8,0,3.2-0.4,4.2-1.2
		c1-0.8,1.7-1.9,2.1-3.3h2.5c-0.5,2-1.5,3.5-2.9,4.6c-1.4,1.1-3.4,1.6-5.9,1.6c-1.6,0-3-0.2-4.1-0.7c-1.2-0.5-2.1-1.2-2.8-2
		c-0.7-0.9-1.3-1.8-1.6-3c-0.4-1.1-0.5-2.3-0.5-3.6c0-1.2,0.2-2.3,0.5-3.4c0.4-1.1,0.9-2.1,1.6-3c0.7-0.9,1.7-1.6,2.8-2.1
		c1.2-0.5,2.5-0.8,4.1-0.8c1.6,0,3,0.3,4.1,0.9c1.1,0.6,2.1,1.3,2.8,2.2c0.7,0.9,1.2,2,1.5,3.2c0.3,1.2,0.4,2.4,0.4,3.6h-15.5
		C228.4,298.9,228.5,299.7,228.7,300.5 M240.9,294c-0.3-0.7-0.7-1.4-1.3-2c-0.5-0.6-1.2-1-2-1.4c-0.8-0.4-1.7-0.5-2.7-0.5
		c-1,0-1.9,0.2-2.7,0.5c-0.8,0.4-1.4,0.8-2,1.4c-0.5,0.6-1,1.2-1.3,2c-0.3,0.8-0.5,1.5-0.6,2.3h13
		C241.4,295.5,241.2,294.7,240.9,294"/>
	<path class="st0" d="M281.4,288.8v3.3h0.1c0.6-1.2,1.5-2.2,2.8-2.8c1.3-0.7,2.8-1,4.4-1c1.5,0,2.9,0.2,4,0.7c1.1,0.5,2.1,1.2,2.8,2
		c0.8,0.9,1.3,1.8,1.7,3c0.4,1.1,0.5,2.3,0.5,3.6c0,1.2-0.2,2.4-0.5,3.6c-0.4,1.1-0.9,2.1-1.7,3c-0.8,0.8-1.7,1.5-2.8,2
		c-1.1,0.5-2.5,0.7-4,0.7c-0.7,0-1.5-0.1-2.2-0.2c-0.7-0.2-1.4-0.4-2-0.7c-0.6-0.3-1.2-0.7-1.7-1.2c-0.5-0.5-0.9-1-1.1-1.7h-0.1v9.8
		h-2.5v-24H281.4z M294.9,294.8c-0.2-0.9-0.6-1.7-1.2-2.4c-0.5-0.7-1.2-1.3-2-1.7c-0.8-0.4-1.8-0.7-3-0.7c-1.4,0-2.5,0.2-3.4,0.6
		c-0.9,0.4-1.6,1-2.2,1.6c-0.5,0.7-0.9,1.5-1.2,2.4c-0.2,0.9-0.3,1.9-0.3,2.9c0,0.9,0.1,1.8,0.4,2.7c0.2,0.9,0.6,1.7,1.2,2.4
		c0.6,0.7,1.3,1.3,2.2,1.7c0.9,0.4,2,0.7,3.3,0.7c1.2,0,2.2-0.2,3-0.7c0.8-0.4,1.5-1,2-1.7c0.5-0.7,0.9-1.5,1.2-2.4
		c0.2-0.9,0.4-1.8,0.4-2.7C295.2,296.6,295.1,295.7,294.9,294.8"/>
	<path class="st0" d="M326.1,306.3v-3.2H326c-0.7,1.2-1.6,2.1-2.8,2.7c-1.2,0.6-2.6,0.9-4.1,0.9c-1.3,0-2.4-0.2-3.3-0.5
		c-0.9-0.3-1.6-0.7-2.2-1.3c-0.6-0.6-1-1.3-1.2-2.1c-0.3-0.8-0.4-1.7-0.4-2.8v-11.4h2.5v11.4c0.1,1.6,0.5,2.8,1.3,3.6
		c0.8,0.8,2.2,1.2,4.1,1.2c1.1,0,2-0.2,2.7-0.6c0.8-0.4,1.4-0.9,1.9-1.6c0.5-0.7,0.9-1.4,1.1-2.3c0.2-0.9,0.4-1.7,0.4-2.6v-9.2h2.5
		v17.6H326.1z"/>
	<path class="st0" d="M346,282v10.1h0.1c0.3-0.6,0.6-1.2,1.1-1.7c0.5-0.5,1-0.9,1.7-1.2c0.6-0.3,1.3-0.6,2-0.7
		c0.7-0.2,1.5-0.2,2.2-0.2c1.5,0,2.9,0.2,4,0.7c1.1,0.5,2.1,1.2,2.8,2c0.8,0.9,1.3,1.8,1.7,3c0.4,1.1,0.5,2.3,0.5,3.6
		c0,1.2-0.2,2.4-0.5,3.6c-0.4,1.1-0.9,2.1-1.7,3c-0.8,0.8-1.7,1.5-2.8,2c-1.1,0.5-2.5,0.7-4,0.7c-1.6,0-3.1-0.3-4.4-1
		c-1.3-0.7-2.2-1.6-2.8-2.8h-0.1v3.3h-2.3V282H346z M359.3,294.8c-0.2-0.9-0.6-1.7-1.2-2.4c-0.5-0.7-1.2-1.3-2-1.7
		c-0.8-0.4-1.8-0.7-3-0.7c-1.3,0-2.4,0.2-3.3,0.7c-0.9,0.4-1.6,1-2.2,1.7c-0.6,0.7-1,1.5-1.2,2.4c-0.2,0.9-0.4,1.8-0.4,2.7
		c0,0.9,0.1,1.8,0.4,2.7c0.2,0.9,0.6,1.7,1.2,2.4c0.6,0.7,1.3,1.3,2.2,1.7c0.9,0.4,2,0.7,3.3,0.7c1.2,0,2.2-0.2,3-0.7
		c0.8-0.4,1.5-1,2-1.7c0.5-0.7,0.9-1.5,1.2-2.4c0.2-0.9,0.4-1.8,0.4-2.7C359.7,296.6,359.5,295.7,359.3,294.8"/>
	<rect x="376.5" y="282" class="st0" width="2.5" height="24.3"/>
	<path class="st0" d="M396.7,285.5h-2.5V282h2.5V285.5z M396.7,306.3h-2.5v-17.6h2.5V306.3z"/>
	<path class="st0" d="M424.3,291.2c-0.9-0.8-2.2-1.1-3.8-1.1c-1.2,0-2.2,0.2-3.1,0.6c-0.9,0.4-1.6,1-2.2,1.7c-0.6,0.7-1,1.5-1.3,2.4
		c-0.3,0.9-0.4,1.8-0.4,2.7c0,0.9,0.2,1.8,0.4,2.7c0.3,0.9,0.7,1.7,1.3,2.4c0.6,0.7,1.3,1.3,2.2,1.7c0.9,0.4,1.9,0.6,3.1,0.6
		c0.8,0,1.5-0.1,2.1-0.4c0.7-0.2,1.3-0.6,1.8-1c0.5-0.4,0.9-1,1.3-1.6c0.3-0.6,0.5-1.3,0.6-2h2.5c-0.3,2.1-1.2,3.8-2.7,5
		c-1.5,1.2-3.3,1.8-5.6,1.8c-1.5,0-2.9-0.2-4.1-0.7c-1.2-0.5-2.2-1.2-3-2c-0.8-0.8-1.4-1.8-1.8-2.9c-0.4-1.1-0.6-2.3-0.6-3.6
		c0-1.3,0.2-2.5,0.6-3.6c0.4-1.1,1-2.1,1.8-2.9c0.8-0.8,1.8-1.5,3-2c1.2-0.5,2.5-0.7,4.1-0.7c2.2,0,4,0.5,5.5,1.5
		c1.5,1,2.4,2.5,2.7,4.5h-2.5C425.9,293,425.2,291.9,424.3,291.2"/>
	<path class="st0" d="M445.3,285.5h-2.5V282h2.5V285.5z M445.3,306.3h-2.5v-17.6h2.5V306.3z"/>
	<path class="st0" d="M476,306.3V303h-0.1c-0.3,0.6-0.6,1.1-1.2,1.6c-0.5,0.5-1.1,0.9-1.7,1.2c-0.7,0.3-1.3,0.6-2.1,0.8
		c-0.7,0.2-1.5,0.3-2.2,0.3c-1.5,0-2.9-0.2-4-0.7c-1.1-0.5-2.1-1.2-2.8-2c-0.8-0.8-1.3-1.8-1.7-3c-0.4-1.1-0.5-2.3-0.5-3.6
		c0-1.2,0.2-2.4,0.5-3.6c0.4-1.1,0.9-2.1,1.7-3c0.8-0.8,1.7-1.5,2.8-2c1.1-0.5,2.5-0.7,4-0.7c0.8,0,1.5,0.1,2.2,0.2s1.4,0.4,2,0.7
		c0.6,0.3,1.2,0.7,1.7,1.2c0.5,0.5,0.9,1,1.1,1.7h0.1V282h2.5v24.3H476z M462.5,300.3c0.2,0.9,0.6,1.7,1.2,2.4
		c0.5,0.7,1.2,1.3,2,1.7c0.8,0.4,1.8,0.7,3,0.7c1.3,0,2.4-0.2,3.3-0.7c0.9-0.4,1.6-1,2.2-1.7c0.6-0.7,1-1.5,1.2-2.4
		c0.2-0.9,0.4-1.8,0.4-2.7c0-0.9-0.1-1.8-0.4-2.7c-0.2-0.9-0.7-1.7-1.2-2.4c-0.6-0.7-1.3-1.3-2.2-1.7c-0.9-0.4-2-0.7-3.3-0.7
		c-1.2,0-2.2,0.2-3,0.7c-0.8,0.4-1.5,1-2,1.7c-0.5,0.7-0.9,1.5-1.2,2.4c-0.2,0.9-0.4,1.8-0.4,2.7
		C462.1,298.5,462.3,299.4,462.5,300.3"/>
	<path class="st0" d="M494,291.5c0.4-0.7,1-1.4,1.7-1.8c0.7-0.5,1.6-0.8,2.5-1.1c1-0.2,2-0.3,3.2-0.3c0.9,0,1.8,0.1,2.7,0.2
		c0.9,0.1,1.7,0.4,2.4,0.8c0.7,0.4,1.3,1,1.7,1.7c0.4,0.7,0.7,1.7,0.7,2.9v9.3c0,0.9,0.5,1.3,1.4,1.3c0.3,0,0.5,0,0.8-0.1v1.8
		c-0.3,0-0.5,0.1-0.8,0.1c-0.2,0-0.5,0-0.8,0c-0.6,0-1.1-0.1-1.5-0.2c-0.4-0.1-0.7-0.4-0.9-0.6c-0.2-0.3-0.3-0.6-0.4-1
		s-0.1-0.8-0.1-1.2h-0.1c-0.4,0.6-0.9,1.1-1.3,1.5c-0.5,0.4-1,0.8-1.5,1.1c-0.6,0.3-1.2,0.5-1.9,0.7c-0.7,0.2-1.6,0.2-2.6,0.2
		c-0.9,0-1.8-0.1-2.6-0.3c-0.8-0.2-1.5-0.5-2.1-0.9c-0.6-0.4-1.1-1-1.4-1.6c-0.4-0.6-0.5-1.4-0.5-2.3c0-1.2,0.3-2.2,0.9-2.9
		c0.6-0.7,1.5-1.2,2.5-1.6c1-0.4,2.2-0.6,3.5-0.8c1.3-0.1,2.6-0.3,3.9-0.4c0.5,0,1-0.1,1.4-0.2c0.4-0.1,0.7-0.2,1-0.4
		s0.5-0.4,0.6-0.7c0.1-0.3,0.2-0.7,0.2-1.2c0-0.7-0.1-1.3-0.4-1.8c-0.3-0.5-0.6-0.8-1.1-1.1c-0.5-0.3-1-0.5-1.7-0.6
		c-0.6-0.1-1.3-0.2-2-0.2c-1.6,0-2.8,0.3-3.8,1c-1,0.6-1.5,1.7-1.6,3.1h-2.5C493.3,293.1,493.6,292.2,494,291.5 M506.3,296.7
		c-0.2,0.2-0.5,0.4-0.9,0.5c-0.4,0.1-0.8,0.2-1.2,0.2c-1,0.2-2.1,0.3-3.2,0.4c-1.1,0.1-2.1,0.3-3,0.6c-0.9,0.2-1.7,0.6-2.2,1.1
		c-0.6,0.5-0.9,1.1-0.9,2c0,0.5,0.1,1,0.4,1.4c0.2,0.4,0.6,0.8,1,1.1c0.4,0.3,0.9,0.5,1.4,0.7c0.5,0.2,1.1,0.2,1.7,0.2
		c0.9,0,1.8-0.1,2.7-0.4c0.9-0.2,1.6-0.6,2.2-1.1c0.6-0.5,1.1-1.1,1.5-1.7c0.4-0.7,0.6-1.5,0.6-2.3L506.3,296.7L506.3,296.7z"/>
	<path class="st0" d="M539.7,306.3V303h-0.1c-0.3,0.6-0.6,1.1-1.2,1.6c-0.5,0.5-1.1,0.9-1.7,1.2c-0.6,0.3-1.3,0.6-2.1,0.8
		c-0.7,0.2-1.5,0.3-2.2,0.3c-1.5,0-2.9-0.2-4-0.7c-1.1-0.5-2.1-1.2-2.8-2c-0.8-0.8-1.3-1.8-1.7-3c-0.4-1.1-0.5-2.3-0.5-3.6
		c0-1.2,0.2-2.4,0.5-3.6c0.4-1.1,0.9-2.1,1.7-3c0.8-0.8,1.7-1.5,2.8-2c1.1-0.5,2.5-0.7,4-0.7c0.8,0,1.5,0.1,2.2,0.2
		c0.7,0.2,1.4,0.4,2,0.7c0.6,0.3,1.2,0.7,1.7,1.2c0.5,0.5,0.9,1,1.1,1.7h0.1V282h2.5v24.3H539.7z M526.2,300.3
		c0.2,0.9,0.6,1.7,1.2,2.4c0.5,0.7,1.2,1.3,2,1.7c0.8,0.4,1.8,0.7,3,0.7c1.3,0,2.4-0.2,3.3-0.7c0.9-0.4,1.6-1,2.2-1.7
		c0.6-0.7,1-1.5,1.2-2.4c0.2-0.9,0.4-1.8,0.4-2.7c0-0.9-0.1-1.8-0.4-2.7c-0.2-0.9-0.7-1.7-1.2-2.4c-0.6-0.7-1.3-1.3-2.2-1.7
		c-0.9-0.4-2-0.7-3.3-0.7c-1.2,0-2.2,0.2-3,0.7c-0.8,0.4-1.5,1-2,1.7c-0.5,0.7-0.9,1.5-1.2,2.4c-0.2,0.9-0.4,1.8-0.4,2.7
		C525.9,298.5,526,299.4,526.2,300.3"/>
	<g>
		<path class="st1" d="M285.9,102.3c9.7-2.5,23.9-2.8,36.4-2.1c15.7,0.4,28.7,6.8,41.8,13.7v53.3c-6.6-15.9-16.9-30.6-31.3-42.7
			C319.6,111.1,303.2,104.3,285.9,102.3"/>
		<path class="st1" d="M285.6,102.8c8.6,5.2,18.8,15,27.1,24.5c10.7,11.4,15.2,25.3,19.5,39.4l-38,37.6c6.7-15.8,9.9-33.8,8.5-52.5
			C303,133,296.3,116.5,285.6,102.8"/>
		<path class="st1" d="M284.9,102.8c2.4,9.7,2.6,23.9,1.7,36.5c-0.6,15.7-7.2,28.6-14.2,41.6l-53.5-0.4c15.9-6.4,31-16.8,43.2-31
			C275.7,136.4,282.7,120.1,284.9,102.8"/>
		<path class="st1" d="M284.9,102.8c-5.2,8.5-15.1,18.7-24.5,27c-11.5,10.7-25.3,15.2-39.4,19.4l-37.6-38.1
			c15.8,6.7,33.8,10,52.5,8.5C254.7,120.2,271.1,113.5,284.9,102.8"/>
		<path class="st1" d="M284.2,102.1c-9.7,2.5-23.9,2.8-36.4,2.2c-15.7-0.4-28.7-6.8-41.8-13.7V37.1c6.6,15.8,16.9,30.7,31.3,42.8
			C250.5,93.4,267,100.1,284.2,102.1"/>
		<path class="st1" d="M284.2,101.5c-8.6-5.1-18.8-14.9-27.2-24.4c-10.8-11.4-15.4-25.2-19.7-39.3L275.2,0
			c-6.6,15.8-9.8,33.8-8.2,52.5C266.7,71.3,273.5,87.8,284.2,101.5"/>
		<path class="st1" d="M285,101.4c-2.2-9.7-2.1-23.9-1-36.5c0.9-15.6,7.8-28.5,15-41.3l54.8,0.2c-16.1,6.1-32.6,17.5-45.1,31.5
			C294.8,68,287.5,84.2,285,101.4"/>
		<path class="st1" d="M285.7,101.8c5.1-8.6,14.9-18.9,24.3-27.2c11.4-10.8,25.2-15.4,39.3-19.8l37.9,37.8
			c-15.8-6.6-33.8-9.7-52.6-8.1C315.8,84.2,299.3,91,285.7,101.8"/>
	</g>
</g>
</svg>
