<?xml version="1.0" encoding="utf-8"?>
<!-- Generator: Adobe Illustrator 28.0.0, SVG Export Plug-In . SVG Version: 6.00 Build 0)  -->
<svg version="1.1" id="Layer_1" xmlns="http://www.w3.org/2000/svg" xmlns:xlink="http://www.w3.org/1999/xlink" x="0px" y="0px"
	 viewBox="0 0 126.3 26" style="enable-background:new 0 0 126.3 26;" xml:space="preserve">
<style type="text/css">
	.st0{fill:#231F20;}
	.st1{fill:#EC1C24;}
</style>
<g>
	<g>
		<path class="st0" d="M121,5.8c2.7,0,5.3,1.7,5.3,4.9c0,3.2-2.6,4.9-5.3,4.9c-2.7,0-5.3-1.7-5.3-4.9C115.7,7.5,118.3,5.8,121,5.8
			 M121,15.1c1.5,0,2.6-1.4,2.6-4.4c0-3-1-4.4-2.6-4.4c-1.5,0-2.6,1.4-2.6,4.4C118.4,13.7,119.4,15.1,121,15.1"/>
		<path class="st0" d="M29,12.2l0.2,0.1c0,0.9,0.3,2.7,1.2,2.7c0.4,0,1-0.3,1-3.3V7.9c0-0.9-0.2-1.5-0.9-1.6V6
			c0.8,0,1.5,0.1,2.2,0.1C33.3,6.1,34,6,34.8,6v0.2c-0.7,0.1-0.9,0.7-0.9,1.6v3.7c0,2.6-1.2,4-3.5,4c-0.9,0-1.5-0.1-2.2-0.3L29,12.2
			z"/>
		<path class="st0" d="M40.3,5.8c2.7,0,5.3,1.7,5.3,4.9c0,3.2-2.6,4.9-5.3,4.9c-2.7,0-5.3-1.7-5.3-4.9C35,7.5,37.6,5.8,40.3,5.8
			 M40.3,15.1c1.5,0,2.6-1.4,2.6-4.4c0-3-1-4.4-2.6-4.4s-2.6,1.4-2.6,4.4C37.8,13.7,38.8,15.1,40.3,15.1"/>
		<path class="st0" d="M46.9,7.9c0-0.9-0.2-1.5-0.8-1.6V6c0.6,0,1.1,0,1.7,0c0.6,0,1.1,0,1.6,0H52c2.3,0,3.4,0.9,3.4,2.1
			c0,1.8-2.1,2.2-3.5,2.2v0c1.6,0.3,2.3,0.6,3,2.2c0.7,1.9,1,2.2,1.8,2.4v0.2c-0.6,0-1.3-0.1-1.8-0.1c-0.5,0-1.1,0.1-1.7,0.1
			L52.4,13c-0.4-1-1-2.4-2.3-2.4h-0.7v1.9c0,1.3,0.1,2.4,1.1,2.5v0.3c-0.8,0-1.6-0.1-2.3-0.1c-0.7,0-1.5,0.1-2.3,0.1V15
			c1-0.1,1.1-1.2,1.1-2.5V7.9z M49.4,10.1h0.7c1.2,0,2.5-0.4,2.5-1.8c0-1.5-1.3-1.8-2.5-1.8h-0.7V10.1z"/>
		<path class="st0" d="M63.3,12.5c0-1.3-0.3-1.5-1.5-1.7v-0.2c0.8,0,1.7,0.1,2.4,0.1c0.7,0,1.7-0.1,2.5-0.1v0.2
			c-0.8,0.1-0.9,0.7-0.9,2c0,0.5,0,1,0.2,1.5c-1.4,0.7-2.7,1.1-4.5,1.1c-2.7,0-5.3-1.7-5.3-4.9s2.6-4.9,5.3-4.9
			c1.7,0,3.3,0.3,4.4,0.9L65,9.5h-0.2c-0.2-1.7-1-3.3-2.9-3.3c-2.3,0-3,2.6-3,4.4c0,1.7,0.5,4.4,2.7,4.4c1.1,0,1.7-0.7,1.7-1.8V12.5
			z"/>
		<path class="st0" d="M67.8,7.9c0-0.9-0.2-1.5-0.8-1.6V6c0.4,0,0.7,0,1.1,0c0.3,0,0.7,0,1,0c1.6,0,2.8,0,3.8,0c0.9,0,1.6,0,2.3,0
			l0.7,2.5h-0.3c-1-1.3-2.4-2-3.9-2h-1.3v3.6h0.8c1.2,0,2.5-0.3,2.9-1.6h0.3v3.6h-0.2c-0.3-1-1.5-1.5-2.9-1.5h-0.8v2.1
			c0,1.4,0.3,2,1.7,2c1.8,0,3.4-1.4,4.5-2.7l0.2,0.1l-1,3.2c-1.9,0-3.9-0.1-6.6-0.1c-0.4,0-0.8,0-1.2,0c-0.4,0-0.8,0-1.2,0V15
			c1.1-0.1,1.2-1.2,1.2-2.5V7.9z"/>
		<path class="st0" d="M81.6,7.9c0-0.9-0.2-1.5-0.8-1.6V6c0.6,0,1.1,0,1.7,0c0.6,0,1.1,0,1.6,0h2.6c2.3,0,3.4,0.9,3.4,2.1
			c0,1.8-2.1,2.2-3.5,2.2v0c1.6,0.3,2.3,0.6,3,2.2c0.7,1.9,1,2.2,1.8,2.4v0.2c-0.6,0-1.3-0.1-1.8-0.1c-0.5,0-1.1,0.1-1.7,0.1
			L87.1,13c-0.4-1-1-2.4-2.3-2.4h-0.7v1.9c0,1.3,0.1,2.4,1.1,2.5v0.3c-0.8,0-1.6-0.1-2.3-0.1c-0.7,0-1.5,0.1-2.3,0.1V15
			c1-0.1,1.1-1.2,1.1-2.5V7.9z M84.1,10.1h0.7c1.2,0,2.5-0.4,2.5-1.8c0-1.5-1.3-1.8-2.5-1.8h-0.7V10.1z"/>
		<path class="st0" d="M99.3,9.1c0-1-0.2-2.6-1.5-2.9V6c0.7,0,1.4,0.1,1.9,0.1c0.5,0,1.1-0.1,1.6-0.1v0.2c-1.1,0.3-1.4,1.9-1.4,2.9
			v2.5c0,2.7-1.4,3.9-4.1,3.9c-2,0-4.2-0.7-4.2-2.8V7.9c0-1.2-0.2-1.5-0.7-1.6V6c0.7,0,1.4,0.1,2.1,0.1C93.5,6.1,94.3,6,95,6v0.2
			c-0.6,0.1-1.1,0.5-1.1,1.6v4.2c0,1.6,0.6,2.8,2.3,2.8c2.3,0,3.1-1.2,3.1-3.4V9.1z"/>
		<path class="st0" d="M101.6,7.9c0-0.9-0.1-1.5-0.7-1.6V6c0.3,0,0.7,0,1,0c0.3,0,0.7,0,1,0h3c1.3,0,4,0.1,4,2c0,1.7-1.7,2-3,2.2v0
			c1.5,0.1,3.8,0.5,3.8,2.5c0,2.3-3.2,2.5-4.7,2.5h-2.7c-0.4,0-0.8,0-1.3,0c-0.4,0-0.9,0-1.3,0V15c1-0.1,1-1.2,1-2.5V7.9z
			 M104.1,10.1h0.5c1.4,0,2.8-0.2,2.8-1.8c0-1.4-0.9-1.7-2.8-1.7h-0.5V10.1z M104.1,12.5c0,2,0.2,2.3,1.7,2.3c1.4,0,2.3-0.7,2.3-2.2
			c0-1.9-1.9-2.1-3.4-2.1h-0.6V12.5z"/>
		<path class="st0" d="M111.9,7.5c0-1-0.3-1.1-0.7-1.2V6c0.6,0,1.3,0.1,2,0.1c0.6,0,1.3-0.1,2-0.1v0.2c-0.5,0.1-0.7,0.5-0.7,1.3v4.9
			c0,1.3,0.1,2.4,1,2.5v0.3h-4.5V15c1-0.1,1.1-1.2,1.1-2.5V7.5z"/>
		<path class="st0" d="M34.8,18v0.3h-0.7v2c0,0.1,0,0.2,0.1,0.3c0,0.1,0.1,0.1,0.3,0.1c0.1,0,0.2,0,0.4,0V21c-0.1,0-0.1,0-0.2,0
			c-0.1,0-0.1,0-0.2,0c-0.3,0-0.5,0-0.6-0.1c-0.1-0.1-0.2-0.3-0.2-0.5v-2.1h-0.6V18h0.6v-0.9h0.4V18H34.8z"/>
		<path class="st0" d="M37.3,18.4c0.1-0.1,0.2-0.2,0.3-0.3c0.1-0.1,0.3-0.1,0.4-0.2c0.2,0,0.3-0.1,0.6-0.1c0.2,0,0.3,0,0.5,0
			c0.2,0,0.3,0.1,0.4,0.1c0.1,0.1,0.2,0.2,0.3,0.3c0.1,0.1,0.1,0.3,0.1,0.5v1.6c0,0.1,0.1,0.2,0.2,0.2c0,0,0.1,0,0.1,0V21
			c0,0-0.1,0-0.1,0c0,0-0.1,0-0.1,0c-0.1,0-0.2,0-0.3,0c-0.1,0-0.1-0.1-0.2-0.1c0,0-0.1-0.1-0.1-0.2c0-0.1,0-0.1,0-0.2h0
			c-0.1,0.1-0.2,0.2-0.2,0.3c-0.1,0.1-0.2,0.1-0.3,0.2C38.9,21,38.8,21,38.6,21c-0.1,0-0.3,0-0.4,0c-0.2,0-0.3,0-0.5,0
			c-0.1,0-0.3-0.1-0.4-0.2c-0.1-0.1-0.2-0.2-0.2-0.3c-0.1-0.1-0.1-0.2-0.1-0.4c0-0.2,0.1-0.4,0.2-0.5c0.1-0.1,0.2-0.2,0.4-0.3
			c0.2-0.1,0.4-0.1,0.6-0.1c0.2,0,0.4,0,0.7-0.1c0.1,0,0.2,0,0.2,0c0.1,0,0.1,0,0.2-0.1c0,0,0.1-0.1,0.1-0.1c0-0.1,0-0.1,0-0.2
			c0-0.1,0-0.2-0.1-0.3c0-0.1-0.1-0.1-0.2-0.2c-0.1,0-0.2-0.1-0.3-0.1c-0.1,0-0.2,0-0.4,0c-0.3,0-0.5,0.1-0.7,0.2
			c-0.2,0.1-0.3,0.3-0.3,0.5h-0.4C37.2,18.7,37.2,18.6,37.3,18.4 M39.4,19.3c0,0-0.1,0.1-0.2,0.1c-0.1,0-0.1,0-0.2,0
			c-0.2,0-0.4,0.1-0.6,0.1c-0.2,0-0.4,0.1-0.5,0.1c-0.2,0-0.3,0.1-0.4,0.2c-0.1,0.1-0.2,0.2-0.2,0.3c0,0.1,0,0.2,0.1,0.2
			c0,0.1,0.1,0.1,0.2,0.2c0.1,0.1,0.2,0.1,0.2,0.1c0.1,0,0.2,0,0.3,0c0.2,0,0.3,0,0.5-0.1c0.1,0,0.3-0.1,0.4-0.2
			c0.1-0.1,0.2-0.2,0.3-0.3c0.1-0.1,0.1-0.2,0.1-0.4L39.4,19.3L39.4,19.3z"/>
		<rect x="42.5" y="16.8" class="st0" width="0.4" height="4.2"/>
		<rect x="45.6" y="16.8" class="st0" width="0.4" height="4.2"/>
		<path class="st0" d="M48.9,20c0,0.1,0.1,0.3,0.2,0.4c0.1,0.1,0.2,0.2,0.4,0.3c0.1,0.1,0.3,0.1,0.5,0.1c0.3,0,0.6-0.1,0.7-0.2
			c0.2-0.1,0.3-0.3,0.4-0.6h0.4c-0.1,0.3-0.3,0.6-0.5,0.8s-0.6,0.3-1,0.3c-0.3,0-0.5,0-0.7-0.1c-0.2-0.1-0.4-0.2-0.5-0.3
			c-0.1-0.1-0.2-0.3-0.3-0.5c-0.1-0.2-0.1-0.4-0.1-0.6c0-0.2,0-0.4,0.1-0.6c0.1-0.2,0.2-0.4,0.3-0.5c0.1-0.2,0.3-0.3,0.5-0.4
			c0.2-0.1,0.4-0.1,0.7-0.1c0.3,0,0.5,0,0.7,0.1c0.2,0.1,0.4,0.2,0.5,0.4c0.1,0.2,0.2,0.3,0.3,0.5c0.1,0.2,0.1,0.4,0.1,0.6h-2.7
			C48.9,19.7,48.9,19.8,48.9,20 M51,18.9c-0.1-0.1-0.1-0.2-0.2-0.3c-0.1-0.1-0.2-0.2-0.3-0.2c-0.1-0.1-0.3-0.1-0.5-0.1
			c-0.2,0-0.3,0-0.5,0.1c-0.1,0.1-0.2,0.1-0.3,0.2c-0.1,0.1-0.2,0.2-0.2,0.3c-0.1,0.1-0.1,0.3-0.1,0.4h2.2
			C51.1,19.1,51.1,19,51,18.9"/>
		<path class="st0" d="M54.3,18v0.7h0c0.1-0.2,0.3-0.4,0.5-0.6c0.2-0.1,0.5-0.2,0.8-0.2v0.4c-0.2,0-0.4,0-0.5,0.1
			c-0.2,0.1-0.3,0.1-0.4,0.2c-0.1,0.1-0.2,0.2-0.3,0.3c-0.1,0.1-0.1,0.3-0.1,0.4V21h-0.4v-3H54.3z"/>
		<path class="st0" d="M64.2,21v-0.6h0c0,0.1-0.1,0.2-0.2,0.3c-0.1,0.1-0.2,0.2-0.3,0.2c-0.1,0.1-0.2,0.1-0.4,0.1
			c-0.1,0-0.3,0-0.4,0c-0.3,0-0.5,0-0.7-0.1c-0.2-0.1-0.4-0.2-0.5-0.3c-0.1-0.1-0.2-0.3-0.3-0.5c-0.1-0.2-0.1-0.4-0.1-0.6
			c0-0.2,0-0.4,0.1-0.6c0.1-0.2,0.2-0.4,0.3-0.5c0.1-0.1,0.3-0.3,0.5-0.3c0.2-0.1,0.4-0.1,0.7-0.1c0.1,0,0.3,0,0.4,0
			c0.1,0,0.2,0.1,0.3,0.1c0.1,0.1,0.2,0.1,0.3,0.2c0.1,0.1,0.1,0.2,0.2,0.3h0v-1.7h0.4V21H64.2z M61.9,19.9c0,0.2,0.1,0.3,0.2,0.4
			c0.1,0.1,0.2,0.2,0.4,0.3c0.1,0.1,0.3,0.1,0.5,0.1c0.2,0,0.4,0,0.6-0.1c0.2-0.1,0.3-0.2,0.4-0.3c0.1-0.1,0.2-0.3,0.2-0.4
			c0-0.2,0.1-0.3,0.1-0.5c0-0.2,0-0.3-0.1-0.5c0-0.2-0.1-0.3-0.2-0.4c-0.1-0.1-0.2-0.2-0.4-0.3c-0.2-0.1-0.3-0.1-0.6-0.1
			c-0.2,0-0.4,0-0.5,0.1c-0.1,0.1-0.3,0.2-0.4,0.3c-0.1,0.1-0.2,0.3-0.2,0.4c0,0.2-0.1,0.3-0.1,0.5C61.8,19.6,61.8,19.8,61.9,19.9"
			/>
		<path class="st0" d="M67.5,20c0,0.1,0.1,0.3,0.2,0.4c0.1,0.1,0.2,0.2,0.4,0.3c0.1,0.1,0.3,0.1,0.5,0.1c0.3,0,0.6-0.1,0.7-0.2
			c0.2-0.1,0.3-0.3,0.4-0.6h0.4c-0.1,0.3-0.3,0.6-0.5,0.8c-0.2,0.2-0.6,0.3-1,0.3c-0.3,0-0.5,0-0.7-0.1c-0.2-0.1-0.4-0.2-0.5-0.3
			c-0.1-0.1-0.2-0.3-0.3-0.5C67,19.9,67,19.7,67,19.5c0-0.2,0-0.4,0.1-0.6c0.1-0.2,0.2-0.4,0.3-0.5c0.1-0.2,0.3-0.3,0.5-0.4
			c0.2-0.1,0.4-0.1,0.7-0.1c0.3,0,0.5,0,0.7,0.1c0.2,0.1,0.4,0.2,0.5,0.4c0.1,0.2,0.2,0.3,0.3,0.5c0.1,0.2,0.1,0.4,0.1,0.6h-2.7
			C67.4,19.7,67.5,19.8,67.5,20 M69.6,18.9c-0.1-0.1-0.1-0.2-0.2-0.3c-0.1-0.1-0.2-0.2-0.3-0.2c-0.1-0.1-0.3-0.1-0.5-0.1
			c-0.2,0-0.3,0-0.5,0.1c-0.1,0.1-0.2,0.1-0.3,0.2c-0.1,0.1-0.2,0.2-0.2,0.3c-0.1,0.1-0.1,0.3-0.1,0.4h2.2
			C69.7,19.1,69.7,19,69.6,18.9"/>
		<path class="st0" d="M76.6,18v0.6h0c0.1-0.2,0.3-0.4,0.5-0.5c0.2-0.1,0.5-0.2,0.8-0.2c0.3,0,0.5,0,0.7,0.1
			c0.2,0.1,0.4,0.2,0.5,0.3c0.1,0.1,0.2,0.3,0.3,0.5c0.1,0.2,0.1,0.4,0.1,0.6c0,0.2,0,0.4-0.1,0.6c-0.1,0.2-0.2,0.4-0.3,0.5
			c-0.1,0.1-0.3,0.3-0.5,0.3c-0.2,0.1-0.4,0.1-0.7,0.1c-0.1,0-0.3,0-0.4,0c-0.1,0-0.2-0.1-0.3-0.1c-0.1-0.1-0.2-0.1-0.3-0.2
			c-0.1-0.1-0.1-0.2-0.2-0.3h0v1.7h-0.4V18H76.6z M78.9,19c0-0.2-0.1-0.3-0.2-0.4c-0.1-0.1-0.2-0.2-0.4-0.3
			c-0.1-0.1-0.3-0.1-0.5-0.1c-0.2,0-0.4,0-0.6,0.1c-0.2,0.1-0.3,0.2-0.4,0.3c-0.1,0.1-0.2,0.3-0.2,0.4c0,0.2-0.1,0.3-0.1,0.5
			c0,0.2,0,0.3,0.1,0.5c0,0.2,0.1,0.3,0.2,0.4c0.1,0.1,0.2,0.2,0.4,0.3c0.2,0.1,0.3,0.1,0.6,0.1c0.2,0,0.4,0,0.5-0.1
			c0.1-0.1,0.3-0.2,0.4-0.3c0.1-0.1,0.2-0.3,0.2-0.4c0-0.2,0.1-0.3,0.1-0.5C78.9,19.3,78.9,19.2,78.9,19"/>
		<path class="st0" d="M84.3,21v-0.5h0c-0.1,0.2-0.3,0.4-0.5,0.5c-0.2,0.1-0.4,0.2-0.7,0.2c-0.2,0-0.4,0-0.6-0.1
			c-0.2-0.1-0.3-0.1-0.4-0.2c-0.1-0.1-0.2-0.2-0.2-0.4c0-0.1-0.1-0.3-0.1-0.5v-2h0.4v2c0,0.3,0.1,0.5,0.2,0.6
			c0.1,0.1,0.4,0.2,0.7,0.2c0.2,0,0.3,0,0.5-0.1c0.1-0.1,0.2-0.2,0.3-0.3c0.1-0.1,0.1-0.2,0.2-0.4c0-0.1,0.1-0.3,0.1-0.4V18h0.4v3
			H84.3z"/>
		<path class="st0" d="M87.7,16.8v1.7h0c0-0.1,0.1-0.2,0.2-0.3c0.1-0.1,0.2-0.2,0.3-0.2c0.1-0.1,0.2-0.1,0.3-0.1c0.1,0,0.3,0,0.4,0
			c0.3,0,0.5,0,0.7,0.1c0.2,0.1,0.4,0.2,0.5,0.3c0.1,0.1,0.2,0.3,0.3,0.5c0.1,0.2,0.1,0.4,0.1,0.6c0,0.2,0,0.4-0.1,0.6
			c-0.1,0.2-0.2,0.4-0.3,0.5c-0.1,0.1-0.3,0.3-0.5,0.3c-0.2,0.1-0.4,0.1-0.7,0.1c-0.3,0-0.5-0.1-0.8-0.2c-0.2-0.1-0.4-0.3-0.5-0.5h0
			V21h-0.4v-4.2H87.7z M90,19c0-0.2-0.1-0.3-0.2-0.4c-0.1-0.1-0.2-0.2-0.4-0.3c-0.1-0.1-0.3-0.1-0.5-0.1c-0.2,0-0.4,0-0.6,0.1
			c-0.2,0.1-0.3,0.2-0.4,0.3c-0.1,0.1-0.2,0.3-0.2,0.4c0,0.2-0.1,0.3-0.1,0.5c0,0.2,0,0.3,0.1,0.5c0,0.2,0.1,0.3,0.2,0.4
			c0.1,0.1,0.2,0.2,0.4,0.3c0.2,0.1,0.3,0.1,0.6,0.1c0.2,0,0.4,0,0.5-0.1c0.1-0.1,0.3-0.2,0.4-0.3c0.1-0.1,0.2-0.3,0.2-0.4
			c0-0.2,0.1-0.3,0.1-0.5C90,19.3,90,19.2,90,19"/>
		<rect x="92.9" y="16.8" class="st0" width="0.4" height="4.2"/>
		<path class="st0" d="M96.4,17.4H96v-0.6h0.4V17.4z M96.4,21H96v-3h0.4V21z"/>
		<path class="st0" d="M101.1,18.4c-0.2-0.1-0.4-0.2-0.7-0.2c-0.2,0-0.4,0-0.5,0.1c-0.2,0.1-0.3,0.2-0.4,0.3
			c-0.1,0.1-0.2,0.3-0.2,0.4c-0.1,0.2-0.1,0.3-0.1,0.5c0,0.2,0,0.3,0.1,0.5c0.1,0.2,0.1,0.3,0.2,0.4c0.1,0.1,0.2,0.2,0.4,0.3
			c0.2,0.1,0.3,0.1,0.5,0.1c0.1,0,0.3,0,0.4-0.1c0.1,0,0.2-0.1,0.3-0.2c0.1-0.1,0.2-0.2,0.2-0.3c0.1-0.1,0.1-0.2,0.1-0.3h0.4
			c-0.1,0.4-0.2,0.7-0.5,0.9c-0.3,0.2-0.6,0.3-1,0.3c-0.3,0-0.5,0-0.7-0.1c-0.2-0.1-0.4-0.2-0.5-0.3c-0.1-0.1-0.2-0.3-0.3-0.5
			c-0.1-0.2-0.1-0.4-0.1-0.6c0-0.2,0-0.4,0.1-0.6c0.1-0.2,0.2-0.4,0.3-0.5c0.1-0.1,0.3-0.3,0.5-0.3c0.2-0.1,0.4-0.1,0.7-0.1
			c0.4,0,0.7,0.1,0.9,0.3c0.3,0.2,0.4,0.4,0.5,0.8h-0.4C101.4,18.7,101.3,18.5,101.1,18.4"/>
		<path class="st0" d="M104.8,17.4h-0.4v-0.6h0.4V17.4z M104.8,21h-0.4v-3h0.4V21z"/>
		<path class="st0" d="M110,21v-0.6h0c0,0.1-0.1,0.2-0.2,0.3c-0.1,0.1-0.2,0.2-0.3,0.2c-0.1,0.1-0.2,0.1-0.4,0.1c-0.1,0-0.3,0-0.4,0
			c-0.3,0-0.5,0-0.7-0.1c-0.2-0.1-0.4-0.2-0.5-0.3c-0.1-0.1-0.2-0.3-0.3-0.5c-0.1-0.2-0.1-0.4-0.1-0.6c0-0.2,0-0.4,0.1-0.6
			c0.1-0.2,0.2-0.4,0.3-0.5c0.1-0.1,0.3-0.3,0.5-0.3c0.2-0.1,0.4-0.1,0.7-0.1c0.1,0,0.3,0,0.4,0s0.2,0.1,0.3,0.1
			c0.1,0.1,0.2,0.1,0.3,0.2c0.1,0.1,0.1,0.2,0.2,0.3h0v-1.7h0.4V21H110z M107.7,19.9c0,0.2,0.1,0.3,0.2,0.4c0.1,0.1,0.2,0.2,0.4,0.3
			c0.1,0.1,0.3,0.1,0.5,0.1c0.2,0,0.4,0,0.6-0.1c0.2-0.1,0.3-0.2,0.4-0.3c0.1-0.1,0.2-0.3,0.2-0.4c0-0.2,0.1-0.3,0.1-0.5
			c0-0.2,0-0.3-0.1-0.5c0-0.2-0.1-0.3-0.2-0.4c-0.1-0.1-0.2-0.2-0.4-0.3c-0.2-0.1-0.3-0.1-0.6-0.1c-0.2,0-0.4,0-0.5,0.1
			c-0.1,0.1-0.3,0.2-0.4,0.3c-0.1,0.1-0.2,0.3-0.2,0.4c0,0.2-0.1,0.3-0.1,0.5C107.7,19.6,107.7,19.8,107.7,19.9"/>
		<path class="st0" d="M113.1,18.4c0.1-0.1,0.2-0.2,0.3-0.3c0.1-0.1,0.3-0.1,0.4-0.2c0.2,0,0.3-0.1,0.6-0.1c0.2,0,0.3,0,0.5,0
			c0.2,0,0.3,0.1,0.4,0.1c0.1,0.1,0.2,0.2,0.3,0.3c0.1,0.1,0.1,0.3,0.1,0.5v1.6c0,0.1,0.1,0.2,0.2,0.2c0,0,0.1,0,0.1,0V21
			c0,0-0.1,0-0.1,0c0,0-0.1,0-0.1,0c-0.1,0-0.2,0-0.3,0c-0.1,0-0.1-0.1-0.2-0.1c0,0-0.1-0.1-0.1-0.2c0-0.1,0-0.1,0-0.2h0
			c-0.1,0.1-0.2,0.2-0.2,0.3c-0.1,0.1-0.2,0.1-0.3,0.2c-0.1,0.1-0.2,0.1-0.3,0.1c-0.1,0-0.3,0-0.4,0c-0.2,0-0.3,0-0.5,0
			c-0.1,0-0.3-0.1-0.4-0.2c-0.1-0.1-0.2-0.2-0.2-0.3c-0.1-0.1-0.1-0.2-0.1-0.4c0-0.2,0.1-0.4,0.2-0.5c0.1-0.1,0.2-0.2,0.4-0.3
			c0.2-0.1,0.4-0.1,0.6-0.1c0.2,0,0.4,0,0.7-0.1c0.1,0,0.2,0,0.2,0c0.1,0,0.1,0,0.2-0.1c0,0,0.1-0.1,0.1-0.1c0-0.1,0-0.1,0-0.2
			c0-0.1,0-0.2-0.1-0.3c0-0.1-0.1-0.1-0.2-0.2c-0.1,0-0.2-0.1-0.3-0.1c-0.1,0-0.2,0-0.4,0c-0.3,0-0.5,0.1-0.7,0.2
			c-0.2,0.1-0.3,0.3-0.3,0.5H113C113,18.7,113.1,18.6,113.1,18.4 M115.2,19.3c0,0-0.1,0.1-0.2,0.1c-0.1,0-0.1,0-0.2,0
			c-0.2,0-0.4,0.1-0.6,0.1c-0.2,0-0.4,0.1-0.5,0.1c-0.2,0-0.3,0.1-0.4,0.2c-0.1,0.1-0.2,0.2-0.2,0.3c0,0.1,0,0.2,0.1,0.2
			c0,0.1,0.1,0.1,0.2,0.2c0.1,0.1,0.2,0.1,0.2,0.1c0.1,0,0.2,0,0.3,0c0.2,0,0.3,0,0.5-0.1c0.1,0,0.3-0.1,0.4-0.2
			c0.1-0.1,0.2-0.2,0.3-0.3c0.1-0.1,0.1-0.2,0.1-0.4L115.2,19.3L115.2,19.3z"/>
		<path class="st0" d="M121,21v-0.6h0c0,0.1-0.1,0.2-0.2,0.3c-0.1,0.1-0.2,0.2-0.3,0.2c-0.1,0.1-0.2,0.1-0.4,0.1c-0.1,0-0.3,0-0.4,0
			c-0.3,0-0.5,0-0.7-0.1c-0.2-0.1-0.4-0.2-0.5-0.3c-0.1-0.1-0.2-0.3-0.3-0.5c-0.1-0.2-0.1-0.4-0.1-0.6c0-0.2,0-0.4,0.1-0.6
			c0.1-0.2,0.2-0.4,0.3-0.5c0.1-0.1,0.3-0.3,0.5-0.3c0.2-0.1,0.4-0.1,0.7-0.1c0.1,0,0.3,0,0.4,0c0.1,0,0.2,0.1,0.3,0.1
			c0.1,0.1,0.2,0.1,0.3,0.2c0.1,0.1,0.1,0.2,0.2,0.3h0v-1.7h0.4V21H121z M118.7,19.9c0,0.2,0.1,0.3,0.2,0.4c0.1,0.1,0.2,0.2,0.4,0.3
			c0.1,0.1,0.3,0.1,0.5,0.1c0.2,0,0.4,0,0.6-0.1c0.2-0.1,0.3-0.2,0.4-0.3c0.1-0.1,0.2-0.3,0.2-0.4c0-0.2,0.1-0.3,0.1-0.5
			c0-0.2,0-0.3-0.1-0.5c0-0.2-0.1-0.3-0.2-0.4c-0.1-0.1-0.2-0.2-0.4-0.3c-0.2-0.1-0.3-0.1-0.6-0.1c-0.2,0-0.4,0-0.5,0.1
			c-0.1,0.1-0.3,0.2-0.4,0.3c-0.1,0.1-0.2,0.3-0.2,0.4c0,0.2-0.1,0.3-0.1,0.5C118.6,19.6,118.6,19.8,118.7,19.9"/>
	</g>
	<g>
		<path class="st1" d="M13.1,13c1.2-0.3,3-0.4,4.6-0.3c2,0,3.7,0.9,5.3,1.7v6.8c-0.8-2-2.2-3.9-4-5.4C17.3,14.1,15.3,13.3,13.1,13"
			/>
		<path class="st1" d="M13,13.1c1.1,0.7,2.4,1.9,3.4,3.1c1.4,1.5,1.9,3.2,2.5,5L14.1,26c0.9-2,1.3-4.3,1.1-6.7
			C15.2,16.9,14.4,14.8,13,13.1"/>
		<path class="st1" d="M12.9,13.1c0.3,1.2,0.3,3,0.2,4.6c-0.1,2-0.9,3.6-1.8,5.3L4.5,23c2-0.8,3.9-2.1,5.5-3.9
			C11.8,17.4,12.6,15.3,12.9,13.1"/>
		<path class="st1" d="M12.9,13.1c-0.7,1.1-1.9,2.4-3.1,3.4c-1.5,1.4-3.2,1.9-5,2.5L0,14.2c2,0.9,4.3,1.3,6.7,1.1
			C9.1,15.3,11.2,14.4,12.9,13.1"/>
		<path class="st1" d="M12.8,13c-1.2,0.3-3,0.4-4.6,0.3c-2,0-3.7-0.9-5.3-1.7V4.7c0.8,2,2.2,3.9,4,5.4C8.5,11.9,10.6,12.7,12.8,13"
			/>
		<path class="st1" d="M12.8,12.9c-1.1-0.7-2.4-1.9-3.5-3.1c-1.4-1.4-2-3.2-2.5-5L11.7,0c-0.8,2-1.2,4.3-1,6.7
			C10.6,9.1,11.5,11.2,12.8,12.9"/>
		<path class="st1" d="M12.9,12.9c-0.3-1.2-0.3-3-0.1-4.6c0.1-2,1-3.6,1.9-5.3l7,0c-2,0.8-4.1,2.2-5.7,4
			C14.2,8.7,13.3,10.7,12.9,12.9"/>
		<path class="st1" d="M13,13c0.7-1.1,1.9-2.4,3.1-3.5c1.4-1.4,3.2-2,5-2.5l4.8,4.8c-2-0.8-4.3-1.2-6.7-1C16.8,10.7,14.8,11.6,13,13
			"/>
	</g>
</g>
</svg>
