<?xml version="1.0" encoding="utf-8"?>
<!-- Generator: Adobe Illustrator 28.0.0, SVG Export Plug-In . SVG Version: 6.00 Build 0)  -->
<svg version="1.1" id="Layer_1" xmlns="http://www.w3.org/2000/svg" xmlns:xlink="http://www.w3.org/1999/xlink" x="0px" y="0px"
	 viewBox="0 0 198.43 198.43" style="enable-background:new 0 0 198.43 198.43;" xml:space="preserve">
<style type="text/css">
	.st0{fill:#B71F44;}
	
		.st1{clip-path:url(#SVGID_00000115514542742040454050000000774929798373488780_);fill-rule:evenodd;clip-rule:evenodd;fill:#FFFFFF;}
</style>
<g>
	<rect x="14.17" y="14.26" class="st0" width="170.08" height="169.9"/>
	<g>
		<defs>
			<rect id="SVGID_1_" x="14.17" y="14.26" width="170.08" height="169.9"/>
		</defs>
		<clipPath id="SVGID_00000102518174199507299450000006427354915986432409_">
			<use xlink:href="#SVGID_1_"  style="overflow:visible;"/>
		</clipPath>
		
			<path style="clip-path:url(#SVGID_00000102518174199507299450000006427354915986432409_);fill-rule:evenodd;clip-rule:evenodd;fill:#FFFFFF;" d="
			M116.74,80.22c0.04-0.26,0.08-0.51,0.13-0.78v-4.57c-0.62,2.01-1.33,4.89-1.86,7.27C115.84,81.79,116.47,81.08,116.74,80.22
			 M100.08,72.73c-0.44,0.17-0.69,0.54-0.89,0.91c-0.11,0.2-0.2,0.41-0.3,0.58c-0.25,0.45-0.53,0.73-1.18,0.35
			c-0.28-0.17-0.15-0.73,0.2-1.39c0.66-1.25,2.12-2.85,3.06-2.65c0.96,0.2,1.47,1.27,2.14,0.11c0.15-0.27,0.31-0.66,0.49-1.2
			c0.14-0.44-2.69-6.04-3.07-6.26c0.01,0-3.11-5.31-3.79-4c-0.02,0.05-0.04,0.1-0.06,0.15c-0.66,2.13-1.67,5.4-2.78,7.57
			c-0.08,0.14-0.15,0.28-0.22,0.41c-0.51,0.9-2.91,3.99-3.69,5.49c-0.27,0.54-0.34,0.88-0.03,0.82c1.74-0.29,2.65-1.38,3.27-2.52
			c0.41-0.76,0.69-1.55,0.99-2.15c0.22-0.42,0.44-0.74,0.74-0.9c1.07-0.56-0.34,3.38-0.69,4.07c-0.01,0.02-0.02,0.05-0.03,0.06
			c-2.03,3.36-4.48,2.78-5.28,4.28c-0.14,0.28-0.23,0.62-0.25,1.08c-0.07,1.53-0.42,2.85-0.98,3.94c-0.13,0.25-0.27,0.49-0.42,0.72
			h9.66c0.43-1.5,1.08-3.12,1.24-3.56c0.06-0.18,0.15-0.37,0.25-0.58c0.65-1.28,2.01-3.05,2.66-4.25
			C101.7,72.73,101.71,72.11,100.08,72.73 M114.3,61.44c0.01,0.58,0.59,1.24,2.2,1.98c0.13,0.06,0.25,0.1,0.38,0.16v-4.35
			C115.89,59.76,114.31,60.49,114.3,61.44 M83.29,78.28c-2.29,1.39-1.16-2.61-0.26-2.68C84.4,75.47,84.01,77.84,83.29,78.28
			 M86.82,71.5c0.52,0.98,0.81,2.29,0.76,4.33c-0.04,1.79-0.42,4.74-1.47,6.34h-1.45c0.78-0.78,1.41-1.98,0.44-2.1
			c-0.13,0.08-0.26,0.16-0.38,0.25c-0.54,0.4-0.94,0.93-1.31,1.24c-0.13,0.11-0.27,0.19-0.41,0.22c-0.15,0.11-0.33,0.17-0.51,0.22
			c-0.95-0.53-1.59-1.52-1.61-2.68v-9.97C83.2,68.66,85.74,69.45,86.82,71.5 M112.34,79.5c0.46-1.92,1.26-3.45,2.1-5.21
			c0.64-1.34,1.44-3.48,2.44-5v2.07c-0.64,1.19-1.22,2.48-1.58,3.72c-0.59,2.08-1.51,4.68-1.87,7.12h-1.71
			C111.86,81.3,112.12,80.4,112.34,79.5 M107.6,57.72c-0.95-0.34-2.24-0.09-2.02-0.01c-1.16-0.42-2.54-0.13-3.11,1.26
			c-0.19,0.46-0.78-2.93,1.82-2.75c1.04,0.07,2.46-0.13,3.53-0.21c0.92-0.08,1.25,2.53,0.96,2.74
			C108.66,58.84,108.29,57.96,107.6,57.72 M105.97,59.11c0.57-0.12,0.82-0.76-0.26-0.65C104.82,58.55,104.92,59.32,105.97,59.11
			 M100.86,52.87c-0.43,0.47-0.87,2.02-0.55,3.04c0.28,0.87,1.47,1.25,0.27,1.68c-1.01,0.37-1.25-1.8-1.72-2.84
			c-0.58-1.3-1.62-2.45-0.71-4.35c0.89-1.83,2.03-2.76,3.77-2.91c2.25,0.15,2.16-0.8,3.37-0.74c0.37,0.03,0.64,0.33,0.4,0.55
			c-1.13,1.04-2.5,0.37-3.46,1.2c-0.67,0.58-2.63,3.33-0.4,3.3c0.31,0,0.82-0.37,1.48-0.27c0.57,0.07,1.34,0.56,0.99,1.01
			C102.76,54.58,101.69,51.95,100.86,52.87 M106.57,51.2c-0.13,0.42-0.85,1.39,0.65,1.26c1.37,0.89,1.35-0.33,2.49-0.01
			c0.41-0.33-1-0.7-0.98-0.78c0.15-0.46,1.3,0.19,1.3-0.23c0-0.37-0.6-0.57-1.52-0.5C107.51,50.52,106.95,50.75,106.57,51.2
			 M107.65,46.78c0.38-0.02,1.14,0.19,0.97,0.67c-0.06,0.19-0.54-0.04-1.69-0.01C106.69,47.44,106.94,46.78,107.65,46.78
			 M109.99,47.93c2.39-1.1,4.15,1.85,4.97,3.54c0.8,1.66-1.8,7.17-2.58,5.88c-0.49-0.47,2.18-2.34,0.63-3.46
			c-0.52-0.38-0.77,2.61-1.77,2.55c-0.64-0.04,0.33-2.1,0.2-3.49c-0.08-0.89-1.06-1.39-0.89-2.09
			C111.17,48.41,109.41,49.15,109.99,47.93 M116.88,67.16c-1.27,1.54-2.24,3.29-3.31,5.23c-1.62,2.92-2.89,6.31-3.47,9.82H98.88
			c0.31-1.08,0.56-2.17,0.77-2.66c1.16-2.74,2.64-5.29,4.38-7.72c0.63-0.89,3.09-5.61,4.53-4.6c0.02,0.01,0.05,0.03,0.07,0.05
			c0.59,0.5,1.91,2.69,2.81,3.47c0.27,0.23,0.49,0.33,0.66,0.25c0.99-0.54-1.54-4.14-2.56-5.17c-0.15-0.16-0.3-0.29-0.45-0.41
			c-1.02-0.86-1.97-0.99-2.97,0.47c-0.15,0.21-1.34,1.8-1.64,1.6c-0.02-0.01-0.03-0.03-0.05-0.06c-0.18-1.29-1.35-3.56,0.72-3.41
			c0.9,0.06,2.52-0.67,2.19-1.25c-0.01-0.02-0.02-0.03-0.04-0.05c-0.4-0.41-2.52,0.59-3.24,0.03c-0.05-0.03-0.1-0.08-0.13-0.13
			c-0.55-0.82-1.13-1.47-1.73-1.99c-1.32-1.16-2.74-1.77-4.16-2.54c-0.15-0.09-0.3-0.2-0.43-0.32c-0.97-0.85-1.53-2.44-2-3.13
			c-0.88-1.26-2.19-5.32-0.99-7.92h19.16c1.63,0,2.95,1.25,3.1,2.84v7.77c-1.01,1.12-2.57,2.01-5.16,2.58
			c-0.37,0.75-3.56,3.9-2.81,4.48c0.32,0.25,2.16-1.55,3.49-1.96c0.25-0.08,0.43-0.02,0.58,0.11c0.2,0.17,0.36,0.44,0.63,0.66
			c0.06,0.05,0.13,0.11,0.19,0.16c0.42,0.37,0.79,0.73,0.51,1.12c-0.71,1.01-1.74,2.33-1.18,2.85c0.02,0.01,0.03,0.03,0.06,0.04
			c0.61,0.44,1.93-1.95,2.51-2.3c0.31-0.19,0.74-0.26,1.2-0.27V67.16z M92.27,57.69c2.28-0.04-1.34,4.35-2.22,2
			C89.75,58.9,90.97,57.69,92.27,57.69 M86.87,68.69c-1.18-0.78-4.37-1.21-5.82-0.75c-0.06,0.02-0.11,0.04-0.17,0.06V56.63
			c1.11-1.28,0.33-1.79,0.25-3.23c-0.08-1.22-0.2-2.49-0.24-3.62c0.04-1.69,1.42-3.06,3.12-3.06h0.05c0.03,0.09,0.06,0.18,0.08,0.26
			c1.44,4.05,0.56,2.81-0.27,3.68c-0.17,0.17-1.27,2.25-1.06,2.55h0.01l0.01,0.02c0.22,0.02,0.74-0.08,0.97-0.15
			c-0.18,0.58-0.78,1.5-0.29,1.85h0.01c0,0,0,0,0.01,0c0.71,0.51,3.55-1.58,3.93-1.75c2.13-1.12,2.35-2,3.64-4.22
			c0.43-0.79,0.75-1.52,1.05-2.23h1.12c-0.61,1.95-0.54,3.62-0.08,6.05c0.59,3.11,3.32,4.89,1.69,8.42
			c-1.36,2.82-2.83,6.3-4.57,8.92c-0.9,1.31-1.35,1.61-1.66,1.41c-0.52-0.35-0.64-2.07-1.77-2.81L86.87,68.69
			C86.87,68.7,86.87,68.69,86.87,68.69 M86.68,48.65c1.37,0.94,3.29-0.31,4.17-1.93h-5.33C85.78,47.68,86.19,48.3,86.68,48.65"/>
		
			<path style="clip-path:url(#SVGID_00000102518174199507299450000006427354915986432409_);fill-rule:evenodd;clip-rule:evenodd;fill:#FFFFFF;" d="
			M78.38,93.8L78.38,93.8c-0.26,0.55-0.37,1.39-0.37,1.72c0,0.09-0.01,8.79,0,9.44c0,0.22,0.01,0.89,0.47,1.33
			c0.31,0.29,0.44,0.43,1.02,0.42c0.54-0.01,1.78-0.23,1.78-2.16c0-0.41,0.06-1.54,0.15-2.57c0.09-1.1,0.85-4.03,2.01-4.87
			c2.53-1.61,2.08,3.46,1.74,5.84c-0.15,1.38-0.04,2.69,0.32,3.61c0.21,0.53,0.48,0.91,0.84,1.17c0.34,0.25,0.91,0.48,1.74,0.23
			c1.43-0.46,0.74-4.45,0.72-4.56l-0.2-1.3c-0.13-1.2-0.17-3.92-0.17-4.58c-0.02-0.63-0.28-2.6-1.18-3.31
			c-0.49-0.4-1.03-0.64-1.58-0.69c-1.19-0.13-2.33,0.55-3.71,2.2l-0.41,0.48l0.06-1.21c0-0.76-0.17-1.31-0.52-1.69
			c-0.29-0.32-0.7-0.48-1.18-0.48C79.41,92.8,78.74,93.06,78.38,93.8"/>
		
			<path style="clip-path:url(#SVGID_00000102518174199507299450000006427354915986432409_);fill-rule:evenodd;clip-rule:evenodd;fill:#FFFFFF;" d="
			M41.41,90.32c-1.09,0.5-1.71,0.97-1.71,1.71c0,0.15,0.03,0.31,0.08,0.46c0.28,0.83,1.22,1.38,2.5,1.09
			c1.58-0.31,6.42-1.77,6.42-1.77s0.07,2.38,0.07,3.88c0,0,0.01,1.16,0.01,1.51c0,3.28,0.51,9.42-4.76,10.13
			c-2.22,0.26-4.28-0.47-6.98-2.91c-0.34-0.31-1.76-1.48-1.76-1.48c-0.9-0.74-1.84-0.85-2.38-0.28c-0.55,0.58-0.57,1.79,0.45,2.9
			c0.93,1,2.87,2.55,2.87,2.55c1.75,1.43,4.11,2.27,6.48,2.3c2.87,0.03,5.11-1.09,5.66-1.48c4.32-2.84,3.72-13.5,3.72-13.61
			c0-2.55-0.09-4.96-0.09-4.96l4.11-1.54l0.01,0c0.5-0.24,0.99-1,0.87-1.64c-0.11-0.55-0.69-1.08-1.59-1.03
			C52.98,86.27,45.75,88.72,41.41,90.32"/>
		
			<path style="clip-path:url(#SVGID_00000102518174199507299450000006427354915986432409_);fill-rule:evenodd;clip-rule:evenodd;fill:#FFFFFF;" d="
			M54.41,93.8c-0.22,0.54-0.1,1.18-0.1,1.84c0,0.31,0.1,4.17,0.16,6.45c0,0,0.09,1.76,0.26,2.47c0.18,0.76,0.52,1.51,1.02,2.21
			c0.46,0.64,1.33,0.81,1.98,0.4c0.82-0.49,1.57-1.26,2.22-2.25c0.25,0.75,2.06,2.05,3.07,2.13c1.76,0.14,3.01-0.77,3.41-1.27
			c1.13,0.78,2.74,0.69,3.59-0.22c0.5-0.42,0.94-0.94,1.31-1.54c0,0,0.11-0.16,0.24-0.36c0.13,0.91,0.29,1.64,0.58,2.14
			c1.4,2.4,4.15-0.38,3.75-1.96c-0.1-0.4-0.2-1.06-0.28-1.59c-0.19-1.24-0.32-5.19-0.31-5.42c0.02-0.37,0.04-0.82,0.04-1.3
			c0-0.58-0.04-1.18-0.15-1.68c-0.15-0.73-0.98-1.29-1.98-1.31c-0.5-0.02-1.69-0.05-5.95,5.71c-0.54,0.73-1.83,3.13-1.91,3.65
			c-0.12,0.5-0.18,0.96-0.17,1.37c-0.58,0.18-1.99,0.53-2.17-0.49c-0.1-0.6,0.01-3.08,0.05-4.01c0,0,0.14-2.6,0.14-3.23
			c0-0.93-1.01-3.15-2.64-0.46c-0.32,0.52-0.58,1.42-0.63,2.41c-0.07,1.44,0.07,5.74-2.03,5.36c-1.4-0.41-0.3-8.25-0.33-9.01
			C57.63,92.54,55.5,90.97,54.41,93.8 M68.57,103.35c-1.49-0.96,2.51-7.98,3.99-7.24C74,96.83,69.84,104.17,68.57,103.35"/>
		
			<path style="clip-path:url(#SVGID_00000102518174199507299450000006427354915986432409_);fill-rule:evenodd;clip-rule:evenodd;fill:#FFFFFF;" d="
			M117.03,103.29c-0.2-1.24-0.31-5.19-0.31-5.42c0.02-0.37,0.04-0.83,0.04-1.3c0-0.58-0.03-1.18-0.15-1.68
			c-0.15-0.73-0.99-1.28-1.98-1.31c-0.51-0.02-1.69-0.05-5.95,5.71c-0.54,0.74-1.83,3.13-1.92,3.65c-1.06,4.25,3.11,5.32,4.66,3.66
			c0.5-0.42,0.94-0.94,1.31-1.54c0,0,0.1-0.16,0.24-0.36c0.13,0.91,0.29,1.64,0.58,2.14c1.39,2.4,4.15-0.38,3.75-1.96
			C117.21,104.48,117.12,103.82,117.03,103.29 M109.97,104.39c-1.49-0.96,2.51-7.98,3.99-7.24
			C115.41,97.88,111.24,105.21,109.97,104.39"/>
		
			<path style="clip-path:url(#SVGID_00000102518174199507299450000006427354915986432409_);fill-rule:evenodd;clip-rule:evenodd;fill:#FFFFFF;" d="
			M160.77,94.42c0,0-2.23,0.69-2.23,0.69c-2.2,0.61-8.03,2.29-8.64,2.69c-0.74,0.49-1.14,1.06-1.14,1.64c0,0.19,0.04,0.38,0.13,0.56
			c0.35,0.74,1.32,1.23,2.05,1.01c0.45-0.13,1.85-0.66,3.09-1.13c1.01-0.38,1.97-0.74,2.39-0.88c0,0,1.18-0.39,1.18-0.39l1.26-0.52
			c-1.49,1.21-3.5,2.87-3.74,3.08c-0.51,0.44-2.13,1.62-3.7,2.76c-2.89,2.1-3.89,2.85-4.11,3.14c-0.31,0.4-0.48,0.88-0.48,1.33
			c0,0.47,0.19,0.9,0.53,1.24c0.53,0.51,1.5,0.97,3.13,0.27c4.81-2.06,12.26-4.77,14.53-5.37c2.83-0.75,3-0.94,3.43-1.84
			c0.18-0.38,0.18-0.81,0.01-1.2c-0.74-1.61-1.78-1.23-5.63,0.45c-1.81,0.79-7.02,2.87-8.74,3.41l0.82-0.7
			c0.3-0.26,1.53-1.25,2.99-2.29c1.09-0.78,2.13-1.52,2.46-1.78c2.39-1.85,4.27-3.32,4.27-4.66c0-0.2-0.04-0.4-0.13-0.58
			C163.83,93.87,162.58,93.89,160.77,94.42"/>
		
			<path style="clip-path:url(#SVGID_00000102518174199507299450000006427354915986432409_);fill-rule:evenodd;clip-rule:evenodd;fill:#FFFFFF;" d="
			M108.08,87.79c-1.12,0-1.9,2.45-1.9,2.45c-0.34,1.07-5.44,15.82-5.44,15.82s-3.33-10.99-3.96-13.44
			c-0.65-2.57-1.02-3.94-2.04-4.48c-0.47-0.25-0.85-0.23-1.37-0.08c-0.46,0.13-0.79,0.39-0.99,0.8c-0.79,1.61,0.5,5.2,2.01,9.05
			c0.03,0.09,4.23,10.73,4.27,10.84c0.44,1.09,1.11,1.66,1.94,1.66c0.96,0,1.91-0.78,2.19-1.51c0,0,5.6-16.84,6.61-18.55
			c0.36-0.76,0.33-1.53-0.08-2.06C109.02,87.89,108.55,87.7,108.08,87.79"/>
		
			<path style="clip-path:url(#SVGID_00000102518174199507299450000006427354915986432409_);fill-rule:evenodd;clip-rule:evenodd;fill:#FFFFFF;" d="
			M135.24,105.42c-0.38-1.71-1.39-5.14-0.48-12.95c0.18-2.24,0.18-2.27,0.18-3.08v-0.36c0-0.88-0.56-1.41-1.35-1.54
			c-0.49-0.09-0.9-0.09-1.26,0.23c-0.93,0.81-0.77,2.76-0.77,3.85c-0.01,0.3,0.12,2.86,0.09,3.09c-0.11,0.65-0.53,0.85-1.13,1.26
			c-1.37,0.91-3.07,1.99-4.45,3.23c-1.04,0.93-2.09,1.92-3.22,3.04l-0.32,0.32c0,0,0.02-9.46,0.13-12.11c0-1.63-0.18-2.28-1.18-2.41
			c-0.51-0.06-0.97,0.07-1.32,0.37c-0.85,0.73-0.88,1.77-0.92,2.98c0,0.02-0.02,1.26-0.02,3.81v7.27c0,1.04,0.16,1.84,0.48,2.46
			c0.1,0.18,0.55,0.69,0.55,0.69l-0.05,0.13c-0.19,0.46-0.28,0.91-0.28,1.35c0,0.33,0.05,0.67,0.15,1c0.42,1.38,1.71,2.01,2.73,2.01
			c0.58,0,1.22-0.19,2-0.61c0.16-0.09,0.46-0.29,1.36-0.86c1.14-0.77,2.17-1.71,3.05-2.76c0.47-0.56,2.37-2.81,2.37-2.81
			s0.32,4.54,1.68,5.35c0.4,0.2,0.87,0.18,1.32-0.07c0.82-0.45,0.87-0.89,0.87-1.75C135.46,106.42,135.37,105.98,135.24,105.42
			 M127.23,103.96c-1.52,1.57-3.12,3.51-3.95,2.57c-0.66-0.87,1.44-2.73,2.62-4.04c1.72-1.79,3.66-3.72,4.21-3.21
			C131.12,99.92,128.56,102.58,127.23,103.96"/>
		
			<path style="clip-path:url(#SVGID_00000102518174199507299450000006427354915986432409_);fill-rule:evenodd;clip-rule:evenodd;fill:#FFFFFF;" d="
			M143.89,103.44c-0.23-0.02-3.18-0.28-3.59-0.32c5.39-2.18,10.34-9.71,3.99-10.87c-1.14-0.16-2.67,0.38-4.1,1.48
			c-1.15,0.89-4.65,4.44-4.16,8.1c0.42,3.12,1.98,5.02,6.54,5.18c1.23,0,2.65,0.06,3.26-0.56c0.29-0.3,0.45-0.72,0.43-1.14
			C146.14,103.97,144.88,103.54,143.89,103.44 M139.34,100.46c-1.03-0.68,3.58-6.15,4.68-5.35
			C145.07,95.89,140.02,100.92,139.34,100.46"/>
		
			<path style="clip-path:url(#SVGID_00000102518174199507299450000006427354915986432409_);fill-rule:evenodd;clip-rule:evenodd;fill:#FFFFFF;" d="
			M168.11,108.13c-0.31,0.3-0.68,0.45-1.1,0.45c-0.44,0-0.82-0.15-1.12-0.46c-0.3-0.3-0.45-0.68-0.45-1.12
			c0-0.46,0.16-0.84,0.49-1.15c0.31-0.29,0.67-0.43,1.08-0.43c0.43,0,0.8,0.15,1.11,0.46c0.31,0.31,0.46,0.68,0.46,1.11
			C168.58,107.44,168.42,107.82,168.11,108.13 M166.09,106.09c-0.25,0.26-0.37,0.56-0.37,0.91c0,0.37,0.13,0.67,0.38,0.93
			c0.25,0.25,0.56,0.38,0.92,0.38c0.36,0,0.66-0.13,0.91-0.39c0.25-0.26,0.38-0.56,0.38-0.93c0-0.35-0.12-0.65-0.38-0.91
			c-0.26-0.26-0.56-0.39-0.92-0.39C166.65,105.69,166.34,105.82,166.09,106.09 M166.32,107.87h0.45v-0.62h0.1l0.1,0.01
			c0.07,0,0.12,0.01,0.16,0.03c0.06,0.02,0.11,0.07,0.13,0.13c0.02,0.04,0.03,0.11,0.03,0.21c0,0.11,0.01,0.19,0.03,0.24h0.44
			l-0.02-0.05c-0.01-0.02-0.01-0.04-0.01-0.05c0-0.02,0-0.03,0-0.05v-0.16c0-0.18-0.05-0.31-0.16-0.39
			c-0.05-0.04-0.14-0.08-0.25-0.1c0.12-0.01,0.22-0.05,0.3-0.12c0.08-0.07,0.13-0.17,0.13-0.32c0-0.19-0.08-0.33-0.23-0.41
			c-0.09-0.05-0.2-0.08-0.35-0.09c-0.02,0-0.14,0-0.36,0c-0.21,0-0.38,0-0.48,0V107.87z M167.15,106.47
			c-0.06-0.03-0.15-0.04-0.27-0.04h-0.11v0.51h0.18c0.11,0,0.19-0.02,0.25-0.06c0.06-0.04,0.09-0.11,0.09-0.21
			C167.29,106.57,167.25,106.5,167.15,106.47"/>
		
			<path style="clip-path:url(#SVGID_00000102518174199507299450000006427354915986432409_);fill-rule:evenodd;clip-rule:evenodd;fill:#FFFFFF;" d="
			M110.18,112.74c1.54,1.11,2.51-1.84,1.08-2.81c-1.68-1.15-3.78-1.59-5.45-0.9c-1.67,0.69-2.91,2.5-2.9,5.87l-0.02,5.3
			c-0.75,0.25-1.46,0.43-1.96,0.59c-0.13-1.69-0.21-4.3-0.2-4.49c0.02-0.38,0.04-0.84,0.04-1.33c0-0.59-0.03-1.2-0.15-1.71
			c-0.15-0.75-1-1.32-2.02-1.35c-0.52-0.01-1.72-0.04-6.08,5.84c-0.55,0.75-1.87,3.2-1.96,3.73c-1.08,4.34,3.18,5.44,4.77,3.74
			c0.51-0.43,0.96-0.96,1.34-1.57c0,0,0.11-0.17,0.25-0.37c0.14,0.93,0.29,1.67,0.59,2.19c1.23,2.12,3.51,0.28,3.83-1.3
			c0.02,0,0.05-0.01,0.07-0.01c0.41-0.04,0.93-0.3,1.4-0.41l0.01,4.35c0.23,7.74,4.41,4.13,3.96,2.18
			c-0.04-0.16-0.62-3.76-0.94-7.34c0.19-0.07,3.75-1.27,3.75-1.27c0.8-0.3,2.12-1.56,1.28-2.97c-0.34-0.59-0.88-0.55-1.55-0.42
			c-0.31,0.06-1.79,0.52-3.34,0.98c-0.09-1.27-0.09-2.5-0.07-3.05C106.12,111.81,107.16,110.57,110.18,112.74 M93.82,122.95
			c-1.52-0.98,2.56-8.15,4.08-7.4C99.38,116.29,95.13,123.79,93.82,122.95"/>
		
			<path style="clip-path:url(#SVGID_00000102518174199507299450000006427354915986432409_);fill-rule:evenodd;clip-rule:evenodd;fill:#FFFFFF;" d="
			M79.86,122.14c0.08,3.08,1.33,6.32,4.45,8.38c0,0,7.42,4.28,12.79,0.23c1.39-1.76,0.26-4.03-0.98-3.22
			c-2.23,1.45-7.11,2.16-9.59,0.3c-2.26-1.7-4.1-3.93-2.61-9.75c1.16-4.57,4.07-6.57,8.67-6.32c2.04,0.38,2.55,0.25,2.66-0.7
			c-0.02-1.87-2.5-2.41-3.32-2.41C91.12,108.65,79.8,108.13,79.86,122.14"/>
		
			<path style="clip-path:url(#SVGID_00000102518174199507299450000006427354915986432409_);fill-rule:evenodd;clip-rule:evenodd;fill:#FFFFFF;" d="
			M116.73,112.8c-0.4,0.44-0.58,2.66,1.47,1.89c0.7-0.26,2.34-1.96,2.95-2.76c0.62-0.81-0.28-2.59-1.65-1.71
			C118.13,111.11,117.13,112.36,116.73,112.8"/>
		
			<path style="clip-path:url(#SVGID_00000102518174199507299450000006427354915986432409_);fill-rule:evenodd;clip-rule:evenodd;fill:#FFFFFF;" d="
			M118.14,128.36c-0.23-0.02-3.25-0.29-3.66-0.32c5.51-2.23,10.57-9.93,4.08-11.11c-1.16-0.16-2.72,0.39-4.19,1.52
			c-1.18,0.91-4.75,4.54-4.25,8.28c0.43,3.19,2.02,5.13,6.68,5.3c1.26,0,2.71,0.06,3.33-0.58c0.3-0.31,0.46-0.73,0.45-1.16
			C120.44,128.9,119.15,128.46,118.14,128.36 M113.49,125.31c-1.04-0.7,3.67-6.28,4.78-5.47
			C119.35,120.64,114.19,125.78,113.49,125.31"/>
	</g>
</g>
</svg>
