<?xml version="1.0" encoding="utf-8"?>
<!-- Generator: Adobe Illustrator 28.0.0, SVG Export Plug-In . SVG Version: 6.00 Build 0)  -->
<svg version="1.1" id="Layer_1" xmlns="http://www.w3.org/2000/svg" xmlns:xlink="http://www.w3.org/1999/xlink" x="0px" y="0px"
	 viewBox="0 0 198.43 198.43" style="enable-background:new 0 0 198.43 198.43;" xml:space="preserve">
<style type="text/css">
	.st0{fill-rule:evenodd;clip-rule:evenodd;fill:#CB2232;}
	.st1{fill:none;stroke:#151515;stroke-width:0.087;stroke-miterlimit:10;}
	.st2{fill-rule:evenodd;clip-rule:evenodd;fill:#FFFFFF;}
	.st3{fill-rule:evenodd;clip-rule:evenodd;fill:#F6E2B9;}
	.st4{fill-rule:evenodd;clip-rule:evenodd;fill:#28215C;}
</style>
<rect x="25.29" y="60.63" class="st0" width="149.78" height="74.89"/>
<rect x="25.29" y="60.63" class="st1" width="149.78" height="74.89"/>
<g>
	<path class="st2" d="M164.62,69.65l-1.08,1.16h0.38v-0.85h0.3c0.2,0,0.34,0.02,0.42,0.07c0.14,0.08,0.2,0.24,0.2,0.49v0.17
		l0.01,0.07c0,0.01,0,0.02,0.01,0.02c0,0.01,0,0.01,0.01,0.02h0.35l-0.01-0.03c-0.01-0.02-0.02-0.05-0.02-0.11
		c0-0.06-0.01-0.11-0.01-0.16v-0.16c0-0.11-0.04-0.22-0.12-0.33c-0.08-0.11-0.2-0.18-0.37-0.21c0.13-0.02,0.24-0.06,0.31-0.1
		c0.14-0.09,0.21-0.23,0.21-0.42c0-0.27-0.11-0.45-0.33-0.54c-0.12-0.05-0.32-0.08-0.59-0.08h-0.75v2.15L164.62,69.65z
		 M164.62,69.65c-0.08,0.03-0.2,0.05-0.36,0.05h-0.34v-0.78h0.32c0.21,0,0.36,0.03,0.46,0.08c0.09,0.05,0.14,0.16,0.14,0.31
		C164.84,69.48,164.77,69.59,164.62,69.65 M165.71,68.36c-0.38-0.38-0.84-0.57-1.39-0.57c-0.54,0-1,0.19-1.38,0.57
		c-0.38,0.38-0.57,0.84-0.57,1.38c0,0.54,0.19,1.01,0.57,1.39c0.38,0.38,0.84,0.57,1.38,0.57c0.54,0,1-0.19,1.39-0.57
		c0.38-0.38,0.57-0.85,0.57-1.39C166.29,69.2,166.1,68.74,165.71,68.36 M165.52,68.55c0.33,0.33,0.49,0.73,0.49,1.19
		c0,0.47-0.16,0.87-0.49,1.2c-0.33,0.33-0.72,0.5-1.19,0.5c-0.47,0-0.86-0.17-1.19-0.5c-0.33-0.33-0.49-0.73-0.49-1.2
		c0-0.46,0.17-0.86,0.49-1.19c0.33-0.33,0.73-0.49,1.19-0.49C164.79,68.05,165.19,68.22,165.52,68.55 M117.89,99.95
		c-1.05,0.23-2-0.78-2-0.78l0.07,0.09l-5.78-6.46l6.21-8.29c1.25-1.6,1.34-3.52-0.46-3.64c0.85,0.8,0.82,1.96-0.26,3.36l-6.46,8.62
		l6.78,7.61l0.83-0.23v0L117.89,99.95z M143.07,84.86c-1.77-6.42,4.39-11.94,8.77-13.67c-3.61,2.09-9.67,7.13-7.93,13.44
		c1.68,6.06,8.65,5.97,13.23,4.96C152.24,91.37,144.84,91.29,143.07,84.86 M133.68,86.45l0-0.77l3.01-0.83
		c1.44-0.4,2.76-0.41,3.06,0.76c-0.68-0.33-1.34-0.49-3.05,0.01L133.68,86.45z M133.67,77.43l5.03-1.39
		c1.44-0.4,2.76-0.42,3.06,0.76c-0.68-0.34-1.35-0.49-3.05,0.01l-5.05,1.4L133.67,77.43z M127.55,95.05l-0.09-14.37
		c0.02-1.76-0.32-2.24-0.93-2.72c0.95-0.03,1.67,0.49,1.68,2.52l0.1,14.45c0.01,1.71-0.3,2.39-1.51,2.72
		C127.43,97.06,127.53,96.36,127.55,95.05 M102.89,101.87l-0.09-14.37c0.01-1.76-0.32-2.24-0.93-2.72c0.95-0.03,1.67,0.49,1.68,2.52
		l0.1,14.45c0,1.71-0.44,2.42-1.64,2.75C102.64,103.89,102.91,102.94,102.89,101.87 M157.91,86.65c-4.33,1.21-7.63-1.18-8.57-4.54
		c-1.04-3.72,0.93-8.31,5.96-9.72c1.57-0.44,3.36-0.7,5.78-0.28v-4.2c-1.5,0.08-3.42,0.37-5.63,0.99
		c-10.05,2.82-14.9,10.45-13.27,16.25c1.21,4.34,5.92,7.72,14.05,5.44c2.39-0.67,4.71-1.47,6.58-2.42v-3.93
		C161.37,85.21,159.5,86.2,157.91,86.65 M142.23,77.97l-0.05-5.06c-0.4,0.38-1.44,0.63-1.85,0.74l-15.52,4.34
		c1.28,0.26,1.77,0.95,1.81,2.59l0.12,13.76c0,2.61-0.3,3.88-1.32,4.17c-0.84,0.24-1.41-0.12-2.51-1.1l-8-8.13l8.94-11.02
		l-9.85,2.76c1.58,0.4,2.07,1.49,0.92,2.93L109,91.94l-0.03-6.61c0.05-1.65,0.92-2.76,1.81-3.4l-10.64,2.96
		c1.28,0.26,1.81,0.96,1.85,2.59l0.13,13.76c0,1.42,0.05,3.08-1.81,4.47l10.5-2.94c-1.49-0.41-1.75-1.44-1.77-2.83l-0.03-5.95
		l6.61,7.44l4.87-1.37l14.96-4.19c-1.42-0.68-1.77-1.79-1.75-3.51l-0.03-5.03l3.42-0.96c1.58-0.42,2.27-0.28,3.16,0.27l-0.04-4.92
		c-0.4,0.38-1.45,0.63-1.85,0.74l-4.7,1.32l-0.03-4.69l5.45-1.53C140.65,77.14,141.39,77.34,142.23,77.97"/>
	<path class="st2" d="M135.04,135.52c-3.76-5.25-16.26-18.24-18.5-18.84c-1.99-0.53-17.09-1.68-17.09-1.68s-3.97-0.5-5.74-0.96
		c-0.22-0.3-0.53-0.63-0.73-0.7c-0.73-0.4-1.69-0.82-2.5-1.41c-1.55-1.12-3.32-2.66-5.34-4.25c-0.44-0.33-1.05-0.8-1.38-0.63
		c-0.34,0.17-0.4-0.22-0.46-0.29c0.72-1.84,0.46-4.39,0.54-6.71c0,0-0.14-0.5,0.11-0.57c1.35-0.35,1.65-1.9,1.14-3.2
		c0.71-1.59,1.34-3.02,0.84-3.9c0.3-0.73,0.64-3.08,0.87-3.93c0.14-0.54,0.4-2.56,0.2-4.45l0.02,0h-0.01c0-1.7-0.39-3.55-1.4-3.72
		c-0.25-0.04-0.18-0.17-0.15-0.34c0.09-0.39,0.36-1.12,0.65-1.82c0.2-0.46,0.16-0.94,0.16-0.94s-0.41-0.08-0.52-0.5
		c-0.16-0.58,0.05-1.11,0.17-1.77c0.13-0.7,0.04-0.95-0.08-1.1c-1.68-0.88-1.97-4.14-2.77-6.58l-0.25-0.73
		c-0.71-2.06-2.05-4.38-3.91-5.87H41.98c-0.77,0.8-1.6,1.55-2.46,2.3c0.93,3.36-1.46,6.56-3.91,8.57c-0.82,1.43,0.44,2.86,0.72,4.23
		c0,0-0.33,1.48-0.32,3.16c0.01,1.68,0.59,4.48,0.57,5.88c0.28,1.04,1.56,1.97,2.35,3.02c-1.45,1.23,0.07,4.02,0.66,5.84
		c1.66,1.55,1.76,4.77,3.96,6.6c0.22,0.95,0.03,2.45,0.65,3.4c0.41,0.61,1.61,1.4,1.99,1.28c0.44-0.14,0.53,0.04,0.65,0.31
		c0.33,0.92,0.36,1.74,0.8,2.86c0.56,1.4,2.19,3.51,2,4.12c-0.08,0.26-0.75-0.06-1.09,0.54c-1.83,2.32-2.63,5.38-4.9,7.24
		c-6.05,3.4-12.22,6.59-18.37,9.82v5.71H135.04z"/>
	<path class="st3" d="M55.4,87.64l0.14,0c0.12,0,0.28-0.03,0.44-0.06c0.35-0.06,0.73-0.13,0.98,0.02l0.01,0.01
		c0.03,0.02,0.08,0.05,0.15,0.07c0.09,0.04,0.19,0.08,0.26,0.14c0.12,0.1,0.17,0.24,0,0.43l0,0c-0.16,0.2-0.25,0.3-0.27,0.37
		c-0.01,0.03,0,0.06,0.03,0.1v0c0.09,0.13,0.67,0.19,1.09,0.23c0.19,0.02,0.36,0.03,0.45,0.06c0.19-0.03,0.25-0.59,0.29-1.02
		c0.01-0.1,0.02-0.19,0.03-0.25l0.02-0.05c0.02-0.03,0.05-0.05,0.09-0.07c0.1-0.06,0.25-0.1,0.39-0.11
		c0.15-0.01,0.29,0.02,0.37,0.08h0c0.02,0.01,0.03,0.03,0.04,0.05l0,0c0.04,0.07,0.11,0.22,0.12,0.63c0.01,0.38-0.04,1-0.22,2.02
		l0,0c-0.14,0.81-0.56,1.48-1.1,2.04c-0.53,0.56-1.19,1.02-1.82,1.41c-0.49,0.38-0.4,0.71-0.32,1c0.04,0.13,0.07,0.25,0.06,0.37
		l0,0.05l-0.04,0.03c-0.96,0.7-2.57,2.28-3.39,3.13c-0.17,0.18-0.31,0.32-0.4,0.42c-0.03,0.03-0.06,0.06-0.09,0.08l0.02,0.02
		c0,0,0,0,0,0l0,0c-0.03,0.02-0.05,0.04-0.06,0.05c0,0,0,0,0,0c-0.03,0.02-0.06,0.04-0.09,0.05c-0.02,0.01-0.03,0.02-0.05,0.03
		C52.45,98.98,52.41,99,52.38,99c-0.22,0.07-0.49,0.08-0.75,0.05c-0.34-0.05-0.68-0.19-0.89-0.42c-0.05-0.05-0.09-0.11-0.12-0.17
		l0,0c-0.13-0.23-0.16-0.69-0.2-1.13c-0.03-0.45-0.07-0.89-0.17-0.97l0,0c-0.38-0.27-0.71-0.63-1-1c-0.29-0.37-0.53-0.75-0.72-1.06
		l-0.03-0.05l0.03-0.05c0.15-0.29,0.34-0.61,0.53-0.91c0.19-0.3,0.38-0.58,0.55-0.81c-0.4-0.29-0.88-0.68-1.25-1.1
		c-0.3-0.34-0.53-0.69-0.59-1.01l-0.01-0.07l0.06-0.04c0.11-0.07,0.21-0.18,0.31-0.29c0.23-0.26,0.46-0.52,0.89-0.43l0.01,0
		c0.25,0.08,0.46,0.23,0.66,0.37c0.4,0.27,0.77,0.52,1.27,0.16c0.04-0.1,0.02-0.2,0-0.29c-0.03-0.12-0.06-0.25,0-0.4l0,0
		c0.04-0.1,0.12-0.23,0.22-0.36c0.09-0.11,0.2-0.23,0.35-0.36l0.09-0.08l0.06,0.11c0.06,0.11,0.16,0.27,0.26,0.4
		c0.07,0.08,0.13,0.15,0.18,0.17l0,0c0.21,0.1,1.74,0.16,1.75,0.16l0.05,0l0.03,0.04l1.23,1.79l0.07,0.1l-0.12,0.05
		c0,0-1.36,0.57-2.79,0.4l-0.01,0c-0.11-0.03-0.31,0.07-0.5,0.23c-0.12,0.1-0.24,0.22-0.33,0.34c-0.09,0.12-0.16,0.24-0.19,0.34
		c-0.02,0.06-0.02,0.11,0,0.15c0.65,0.26,1.6,0.38,2.52,0.37c0.94-0.01,1.85-0.16,2.34-0.43c0.5-0.28,1.06-0.63,1.53-1.08
		c0.44-0.42,0.8-0.92,0.92-1.51c-0.1-0.04-0.23-0.06-0.36-0.06c-0.13,0.01-0.25,0.04-0.36,0.13v0c-0.16,0.13-0.36,0.22-0.53,0.26
		c-0.18,0.04-0.34,0.01-0.45-0.1l0,0c-0.03-0.03-0.09-0.09-0.16-0.16c-0.38-0.36-1.21-1.14-1.21-1.37c0-0.02,0-0.05,0-0.09
		c0-0.26,0.01-0.83-0.07-1.04L55.4,87.64z M49.56,94.45L49.56,94.45C49.56,94.45,49.56,94.45,49.56,94.45 M49.56,94.45
		c-0.01-0.34,0.39-0.77,0.62-0.78h0h0h0c0.02,0,0.03,0,0.05,0l0.03,0.01c0.35,0.21,0.83,0.39,1.31,0.54
		c0.64,0.19,1.28,0.31,1.66,0.34l0.13,0.01l-0.04,0.12c-0.08,0.22-0.34,0.73-0.68,1.15c-0.23,0.28-0.5,0.52-0.78,0.61l0,0
		c-0.21,0.08-0.54-0.01-0.85-0.16c-0.43-0.2-0.86-0.52-0.93-0.66l0,0c-0.06-0.11-0.04-0.24-0.03-0.38c0.01-0.15,0.03-0.3-0.09-0.37
		h0c-0.08-0.05-0.19-0.13-0.27-0.21C49.61,94.62,49.56,94.53,49.56,94.45L49.56,94.45z M69.93,109.08l-0.03-0.07l0.05-0.05
		c0,0,1.17-1.13,1.5-1.5l0.18,0.07c-0.08,0.98-0.84,2.83-0.84,2.84l-0.08,0.2l-0.1-0.19L69.93,109.08z M76.14,102.98
		c-0.46-0.28-0.86-0.01-1.2,0.22c-0.08,0.06-0.16,0.11-0.24,0.15c0.06,1.15-0.45,2.52-0.82,3.21c-0.08,0.15-0.16,0.28-0.22,0.36
		c-0.09,0.12-0.18,0.17-0.26,0.13c-0.04-0.02-0.07-0.06-0.07-0.11l0-0.03c0.02-0.14,0.03-0.33,0.02-0.53
		c-0.01-0.21-0.03-0.44-0.07-0.62l0,0c0-0.03-0.01-0.06-0.02-0.08c-0.05-0.18-0.15-0.33-0.31-0.42c-0.17-0.09-0.4-0.13-0.7-0.08
		c-0.05,0.01-0.11,0.02-0.17,0.04c-0.91,1.13-2.33,1.31-3.76,1.49c-0.94,0.12-1.88,0.23-2.66,0.63l1.09,1.89
		c0.06-0.13,0.11-0.28,0.16-0.41c0.05-0.14,0.09-0.26,0.14-0.34l0.06-0.1l0.09,0.07c0.11,0.08,0.33,0.33,0.54,0.57
		c0.12,0.14,0.24,0.27,0.33,0.37c0.05,0.01,0.16-0.14,0.26-0.27c0.04-0.06,0.08-0.11,0.11-0.15c0.11-0.14,0.23-0.21,0.34-0.11
		l0.03,0.03l0,0.04c0.01,0.12,0.04,0.35,0.08,0.64c0.1,0.7,0.24,1.73,0.22,2.4l-0.01,0.2l-0.16-0.12c-0.13-0.1-0.28-0.2-0.43-0.3
		c-0.24-0.17-0.49-0.33-0.66-0.51c-0.03,0.1-0.05,0.21-0.08,0.33c-0.06,0.29-0.13,0.63-0.33,0.92l-0.06,0.09l-0.09-0.07
		c-0.23-0.19-0.47-0.65-0.68-1.05c-0.15-0.29-0.29-0.56-0.38-0.65c-0.02,0-0.04,0-0.06,0.01c0,0,0,0-0.01,0
		c0.01,0.13,0.02,0.31,0.02,0.5c0,0.25-0.02,0.52-0.08,0.72l-0.19,0.01c-0.16-0.31-0.4-0.6-0.65-0.85
		c-0.25-0.24-0.51-0.44-0.72-0.58c0.33,1.18,0.18,2.36,0.04,3.5c-0.14,1.12-0.28,2.2,0.06,3.17v0c0.21,0.6,0.48,1.13,0.77,1.56
		c0.38,0.58,0.79,1,1.07,1.25c0.15-0.08,0.3-0.23,0.45-0.44c0.18-0.25,0.34-0.59,0.49-0.98l0.05-0.15l0.11,0.11
		c0.21,0.21,0.5,0.76,0.7,1.13c0.04,0.08,0.08,0.16,0.12,0.22l0.66-0.96l0.09-0.13l0.08,0.13l0.71,1.16c0.38-0.63,0.72-1.23,1-1.83
		c0.3-0.65,0.52-1.3,0.65-1.98v0c0.11-0.58,0.13-1.11,0.08-1.56c-0.05-0.49-0.18-0.88-0.36-1.16c-0.04-0.05-0.07-0.12-0.1-0.2
		c-0.05-0.13-0.08-0.27-0.07-0.41c0.01-0.15,0.07-0.29,0.22-0.38c0.03-0.02,0.07-0.04,0.1-0.05l0.05-0.02l0.04,0.03
		c0.11,0.08,0.24,0.23,0.38,0.39c0.25,0.28,0.53,0.61,0.73,0.6c0.45-0.09,0.86-0.75,1.25-1.39c0.23-0.37,0.46-0.74,0.7-1.01l0,0
		c0.19-0.21,0.47-0.35,0.75-0.49c0.34-0.17,0.68-0.35,0.83-0.62l0,0c0.07-0.13,0.15-0.26,0.23-0.39c0.25-0.43,0.51-0.86,0.6-1.29
		l0,0c0.06-0.28,0.03-0.79-0.07-1.41c-0.1-0.65-0.27-1.4-0.48-2.11c-0.18-0.62-0.25-1.07-0.32-1.54
		C76.18,103.21,76.16,103.09,76.14,102.98 M69.46,102.67C69.46,102.67,69.46,102.67,69.46,102.67
		C69.46,102.67,69.46,102.67,69.46,102.67 M62.88,103.56L62.88,103.56c0.71-0.08,2.52-0.33,4.01-0.57c1-0.16,1.85-0.31,2.13-0.41
		c0,0,0,0,0,0l0,0c0,0,0,0,0,0c0.23-0.08,0.38-0.1,0.47-0.09c0.08,0.01,0.12,0.05,0.15,0.11c0.02,0.05,0.02,0.1-0.01,0.16
		c-0.04,0.1-0.14,0.22-0.26,0.32l0,0c-0.15,0.13-0.4,0.26-0.73,0.37c-0.3,0.1-0.66,0.18-1.07,0.24h0c-0.19,0.02-0.39,0.05-0.61,0.08
		c-1.41,0.19-2.98,0.39-4.23,0.27c-0.16-0.02-0.26-0.04-0.31-0.07c-0.07-0.05-0.09-0.11-0.06-0.17c0.02-0.04,0.05-0.07,0.1-0.1
		C62.58,103.63,62.76,103.58,62.88,103.56 M78.29,80.49l-0.1,0.02l-1.44,0.25l-0.1,0.02l-0.02-0.1l-0.11-0.58l-0.02-0.1l0.1-0.02
		l1.44-0.23l0.1-0.01l0.02,0.1l0.11,0.56L78.29,80.49z M79.85,109.73l0,0.02c-0.04,0.43-0.24,0.99-0.51,1.55
		c-0.38,0.78-0.88,1.57-1.22,2.07l-0.18-0.08c0.04-0.19,0.1-0.81,0.17-1.45c0.08-0.74,0.16-1.5,0.21-1.66l0,0
		c0.09-0.26,0.39-0.47,0.69-0.58c0.14-0.05,0.28-0.08,0.4-0.09c0.13-0.01,0.25,0.01,0.33,0.06C79.8,109.6,79.84,109.66,79.85,109.73
		 M66.05,105.26L66.05,105.26c-0.19,0.02-0.37,0.1-0.5,0.21c-0.15,0.12-0.25,0.28-0.28,0.42c-0.01,0.04,0.11,0.06,0.29,0.08
		c0.23,0.03,0.55,0.02,0.86,0.02c0.36,0,0.89-0.02,1.39-0.1c0.49-0.08,0.96-0.23,1.23-0.49l0,0c0.17-0.16,0.25-0.29,0.27-0.38
		c0.01-0.05,0-0.1-0.04-0.13c-0.04-0.04-0.11-0.07-0.19-0.1c-0.25-0.07-0.6-0.05-0.82,0.02l0,0c-0.32,0.09-0.82,0.22-1.29,0.31
		C66.62,105.2,66.29,105.25,66.05,105.26 M53.16,101.73l-0.01,0.09c-0.07,0.54-0.02,1.17,0.1,1.78c0.15,0.8,0.41,1.55,0.62,2.02v0
		c0.35,0.76,0.59,2.49,0.68,3.15c0.01,0.08,0.02,0.14,0.03,0.2v0c0.01,0.11,0.13,0.23,0.29,0.34c0.1,0.06,0.21,0.12,0.33,0.15
		c0.11,0.03,0.23,0.05,0.33,0.03c0.13-0.02,0.25-0.08,0.33-0.2l0,0c0.13-0.21,0.19-0.47,0.24-0.72c0.09-0.43,0.17-0.83,0.61-0.96
		l0.08-0.02l0.04,0.08c0.04,0.09,0.11,0.22,0.2,0.37c0.24,0.43,0.58,1.06,0.71,1.52l0,0c0.08,0.29,0.21,0.65,0.36,0.98
		c0.15,0.35,0.31,0.65,0.4,0.78l0.03,0.04l-0.01,0.04c-0.02,0.12-0.09,0.23-0.18,0.3v0c-0.09,0.08-0.2,0.12-0.32,0.11h0
		c-0.25-0.02-1.51-0.2-2.79-0.63c-0.73-0.25-1.47-0.58-2.04-1l-0.05-0.04l0.01-0.06c0.04-0.2-0.05-0.56-0.22-0.96
		c-0.18-0.42-0.44-0.89-0.72-1.25c-0.28-0.37-0.69-0.89-1.08-1.61c-0.39-0.72-0.77-1.64-0.99-2.79l0-0.01
		c-0.01-0.1-0.01-0.19,0.01-0.29c0.08-0.39,0.42-0.73,0.85-0.99c0.42-0.25,0.94-0.43,1.41-0.49c0.24-0.03,0.47-0.02,0.67,0.02
		L53.16,101.73z M85.36,81L85.36,81c0.01,0.08,0,0.16-0.03,0.21v0c-0.04,0.07-0.11,0.11-0.22,0.1l0.01,0
		c-0.23-0.01-0.5,0.05-0.75,0.16c-0.25,0.11-0.47,0.26-0.6,0.43c-0.07,0.09-0.15,0.13-0.23,0.14c-0.06,0.01-0.11,0-0.15-0.02
		c-0.05-0.02-0.08-0.06-0.11-0.1c-0.04-0.07-0.07-0.15-0.05-0.24l0,0c0.05-0.28,0.2-0.56,0.43-0.8c0.21-0.23,0.49-0.43,0.81-0.54h0
		c0.03-0.01,0.06-0.02,0.09-0.02c0.15-0.02,0.31,0.02,0.46,0.12c0.14,0.09,0.26,0.23,0.32,0.41C85.34,80.9,85.36,80.95,85.36,81
		 M85.16,81.03L85.16,81.03C85.16,81.03,85.16,81.03,85.16,81.03 M55.29,113.65L55.29,113.65c0.34,0.26,0.65,0.49,0.92,0.69
		c0.67,0.5,1.1,0.82,1.49,1.16l0,0c0.27,0.23,0.54,0.47,0.7,0.63c0.37,0.37,0.45,0.54-0.06,0.34l0,0c-0.36-0.13-1.14-0.52-1.88-0.96
		c-0.58-0.34-1.14-0.72-1.48-1.03l0,0c-0.15-0.14-0.15-0.37-0.09-0.55c0.02-0.06,0.04-0.11,0.07-0.16c0.03-0.05,0.07-0.09,0.11-0.12
		C55.15,113.61,55.22,113.6,55.29,113.65 M71.42,80.97l0.01-0.01c0.36-0.22,0.93-0.36,1.54-0.41c0.6-0.05,1.25,0,1.77,0.14h0
		c0.33,0.09,0.67,0.34,0.94,0.67c0.26,0.31,0.44,0.68,0.49,1.05v0c0.01,0.07-0.01,0.12-0.04,0.17c-0.05,0.07-0.13,0.12-0.23,0.13
		c-0.08,0.01-0.18,0.01-0.29-0.01c-0.23-0.04-0.48-0.16-0.63-0.32c-0.28-0.3-0.57-0.52-0.88-0.67c-0.31-0.16-0.64-0.26-1-0.34h0
		c-0.48-0.1-0.95-0.09-1.28-0.08c-0.26,0.01-0.44,0.01-0.5-0.06C71.28,81.16,71.3,81.08,71.42,80.97 M71.51,81.11
		C71.49,81.1,71.49,81.09,71.51,81.11C71.5,81.1,71.5,81.1,71.51,81.11 M69.12,83.53l-0.24,0.04l0.13-0.2
		c0.14-0.2,0.4-0.44,0.68-0.62v0c0.27-0.18,0.57-0.32,0.82-0.36l0,0c0.27-0.04,0.59-0.07,0.88-0.07c0.28,0,0.55,0.01,0.73,0.05h0
		c0.24,0.05,0.52,0.16,0.81,0.3c0.33,0.16,0.67,0.37,0.95,0.55l0,0c0.11,0.08,0.32,0.17,0.54,0.26c0.3,0.13,0.62,0.24,0.74,0.27
		l0.22,0.05l-0.18,0.13c-0.07,0.05-0.26,0.17-0.43,0.25c-0.12,0.06-0.23,0.09-0.3,0.07c-0.35-0.09-1.06-0.31-1.06-0.31l-0.02-0.01
		c-0.29-0.16-0.61-0.32-0.96-0.45c-0.35-0.12-0.72-0.21-1.13-0.22C70.63,83.25,69.12,83.53,69.12,83.53 M43.86,86.51l-0.02-0.1
		l-0.11-0.65l-0.02-0.1l0.1-0.02l1.63-0.28l0.1-0.02l0.02,0.1l0.11,0.65l0.02,0.1l-0.1,0.02l-1.63,0.28L43.86,86.51z M60.15,93.91
		L60.15,93.91c-0.02,0.32-0.01,0.65,0.03,0.94c0.05,0.42,0.15,0.76,0.21,0.94l0.04,0.12l-0.12,0.02c-0.12,0.02-0.26,0.05-0.39,0.09
		c-0.44,0.12-0.88,0.24-1.2-0.17l-0.01-0.02c-0.19-0.41-0.19-0.9-0.02-1.36c0.16-0.44,0.47-0.85,0.92-1.13l0.01,0
		c0.05-0.03,0.11-0.03,0.17-0.02h0c0.07,0.01,0.13,0.04,0.19,0.09c0.05,0.05,0.1,0.11,0.13,0.17
		C60.14,93.68,60.17,93.79,60.15,93.91 M44.17,90.94l-0.18,0.07l-2.01-2.68l-0.06-0.09L42,88.19c0.17-0.11,0.46-0.26,0.77-0.4
		c0.27-0.12,0.55-0.23,0.77-0.29l0.11-0.03l0.02,0.11L44.17,90.94z M52.94,85c0.24-0.09,0.61-0.14,0.99-0.16
		c0.51-0.03,1.05-0.02,1.26,0.01l0.02,0c0.21,0.07,0.39,0.44,0.39,0.44l0.07,0.14l-0.15,0.01c-0.61,0.04-1.25,0.17-1.86,0.36
		c-0.58,0.19-1.13,0.44-1.57,0.75l0,0c-0.06,0.04-0.13,0.08-0.19,0.13c-0.66,0.43-1.26,0.82-1.73,0.95
		c-0.21,0.1-0.44-0.22-0.44-0.22l-0.07-0.1l0.11-0.06c0.35-0.18,0.79-0.55,1.25-0.95C51.66,85.75,52.36,85.15,52.94,85 M48.84,84.85
		l0.09,0.17c-0.21,0.19-0.41,0.38-0.6,0.56c-0.47,0.45-0.92,0.87-1.51,1.27l-0.15,0.1l-0.01-0.18c-0.03-0.61,0.25-1.04,0.68-1.34
		C47.75,85.13,48.31,84.95,48.84,84.85 M60.76,81.86c0.03-0.31,0.07-1.08-0.05-1.52c-0.08-0.28-0.18-0.49-0.32-0.67
		c-0.09-0.12-0.2-0.23-0.32-0.34c0.01,0.25,0,0.56-0.03,0.88c-0.04,0.44-0.11,0.9-0.19,1.25C60.16,81.59,60.56,81.77,60.76,81.86
		 M42,73.29l0.14,0.14c-0.71,1.35-2.47,2.09-2.89,2.25c0.05,0.13,0.17,0.39,0.37,0.45l0,0c0.13,0.04,0.39,0.03,0.65,0.02
		c0.39-0.02,0.77-0.04,0.82,0.16l0,0c0.03,0.12,0,0.25-0.02,0.39c-0.03,0.15-0.06,0.32-0.03,0.52c0.04,0.29,0.57,1.68,0.99,2.79
		c0.08,0.2,0.15,0.4,0.22,0.58c0.21-1.53,0.03-4.37,0.03-4.38l0-0.06l0.05-0.03c0.37-0.23,0.77-0.6,1.14-0.98
		c0.61-0.64,1.1-1.31,1.13-1.41l0,0c0.01-0.04-0.04-0.3-0.11-0.63c-0.13-0.56-0.32-1.31-0.39-1.55l0,0c-0.04-0.12-0.1-0.2-0.17-0.24
		c-0.03-0.02-0.06-0.03-0.09-0.03c0,0,0,0,0,0h0h0c-0.02,0-0.05,0-0.06,0.02c-0.02,0.01-0.03,0.04-0.04,0.07l0,0
		c-0.07,0.32-0.65,0.84-0.65,0.84l-0.09,0.08l-0.07-0.1c0,0-0.41-0.59-0.35-1.07l0,0c0.02-0.17,0.02-0.39-0.02-0.52
		c-0.01-0.04-0.02-0.06-0.04-0.07c-0.01,0-0.02,0-0.04,0.01c-0.08,0.04-0.19,0.15-0.34,0.37c-0.32,0.46-1,0.98-1.71,1.39
		c-0.65,0.37-1.34,0.65-1.83,0.7c0,0,0,0.01,0,0.01C39.04,73.9,40.51,74.06,42,73.29 M43.51,71.34L43.51,71.34L43.51,71.34
		C43.51,71.34,43.51,71.34,43.51,71.34 M46.93,83.4C46.93,83.4,46.93,83.4,46.93,83.4L46.93,83.4z M46.93,83.4L46.93,83.4z
		 M64.71,80.92l-0.06,0.03l0.14,0.13c-0.21,0.24-0.33,0.55-0.45,0.85c-0.12,0.29-0.22,0.56-0.4,0.75l0,0
		c-0.11,0.12-0.33,0.13-0.59,0.14c-0.15,0.01-0.31,0.01-0.47,0.04l0.22,0.94l0.03,0.13L63,83.94c-0.08,0-0.25,0.01-0.44,0.03
		c-0.16,0.02-0.32,0.04-0.45,0.07c-0.12,0.04-0.2,0.02-0.27-0.02c-0.07-0.04-0.11-0.1-0.13-0.15l-0.01-0.03
		c-0.05-0.24-0.11-0.44-0.15-0.58c-0.03-0.08-0.05-0.15-0.07-0.19c-0.42-0.01-1.03,0.25-1.54,0.46c-0.03,0.01-0.06,0.03-0.09,0.04
		l-0.06,0.03l-0.05-0.05c-0.26-0.27-0.54-0.5-0.83-0.7c-0.29-0.2-0.59-0.36-0.91-0.49c-0.44-0.16-0.9-0.27-1.39-0.34
		c-0.49-0.07-1.01-0.1-1.53-0.1h-0.2l0.12-0.16c0.01-0.02,0.02-0.05,0.03-0.08c0.03-0.08,0.05-0.17,0.18-0.25l0,0
		c0.27-0.18,0.69-0.38,1.16-0.54c0.33-0.11,0.69-0.21,1.03-0.27c-0.22-0.08-0.59-0.18-0.95-0.28c-0.36-0.1-0.71-0.19-0.94-0.28
		c-0.15,0.1-0.34,0.21-0.34,0.21l-0.05,0.01h-0.11l0.01-0.11l0-0.08c-0.12-0.11-0.34-0.22-0.59-0.32c-0.38-0.16-0.83-0.3-1.14-0.39
		c-0.09-0.01-0.17-0.02-0.23-0.01c-0.05,0-0.09,0.02-0.14,0.04c-0.06,0.09-0.14,0.25-0.22,0.43c-0.08,0.19-0.16,0.4-0.2,0.56
		c-0.01,0.04-0.01,0.06-0.01,0.06c0,0.01,0-0.01,0.02,0l0.02,0.19c-0.06,0.02-0.3,0.11-0.46,0.2h0c-0.07,0.04-0.13,0.08-0.13,0.09
		l0,0c0,0.01,0.26,0.13,0.6,0.28c0.5,0.23,1.15,0.48,1.39,0.54l-0.02,0.2c-1.12,0.09-2.25,0.29-3.29,0.54
		c-1.47,0.35-2.75,0.78-3.59,1.09l-0.02,0.01c0,0-0.22,0.04-0.26-0.19v0c-0.02-0.13-0.06-0.93-0.06-0.93l0-0.08l0.08-0.02
		c0.23-0.07,0.46-0.22,0.64-0.4c0.18-0.18,0.31-0.38,0.35-0.57l0,0c0.02-0.09,0.03-0.19,0.04-0.32c0.05-0.46,0.13-1.18,0.59-2.24
		l0,0c0.49-1.03,1.1-1.22,1.48-1.34c0.15-0.05,0.26-0.08,0.28-0.14l0.02-0.03c0.16-0.16,0.28-0.26,0.37-0.34
		c0.12-0.11,0.18-0.16,0.19-0.2c0.01-0.03-0.03-0.1-0.08-0.22c-0.05-0.11-0.13-0.26-0.22-0.48c-0.31,0.07-0.57,0.08-0.79,0.02
		c-0.25-0.07-0.45-0.21-0.61-0.42c-0.34-0.46-0.47-1.22-0.42-2.08c0.05-0.87,0.29-1.85,0.68-2.68l0,0c0.31-0.68,1.04-1.49,1.93-2.11
		c0.71-0.5,1.54-0.87,2.35-0.95c-0.19-0.41-0.51-0.72-0.89-0.95c-0.55-0.34-1.21-0.51-1.79-0.59l0.01,0
		c-0.79-0.07-1.5,0.05-2.09,0.31c-0.62,0.27-1.13,0.71-1.51,1.26l-0.05,0.07l-0.08-0.04c-0.17-0.09-0.31-0.2-0.4-0.34
		c-0.11-0.17-0.17-0.36-0.16-0.57v0c0-0.2,0.06-0.42,0.17-0.64c0.16-0.32,0.43-0.65,0.79-0.94c-0.14,0.05-0.31,0.1-0.35,0.11
		c-0.05,0.02-0.24,0.13-0.38,0.23l0,0c-1.55,1.2-1.39,2.57-1.09,5.28c0.03,0.24,0.06,0.49,0.09,0.76c0.11,0.99-0.37,1.58-0.85,2.16
		c-0.32,0.38-0.63,0.77-0.76,1.27v0c-0.2,0.74,0.03,3.88,0.23,6.66c0.07,0.94,0.13,1.84,0.18,2.6l0,0.06l-0.05,0.03
		c-0.19,0.12-0.54,0.18-0.87,0.23c-0.23,0.04-0.44,0.07-0.55,0.12l0,0c-0.13,0.05-0.27,0.17-0.41,0.28
		c-0.27,0.22-0.53,0.42-0.75,0.26c-0.11-0.06-0.19-0.2-0.24-0.39c-0.04-0.18-0.06-0.4-0.05-0.63c-0.25-0.27-0.6-0.52-0.93-0.76
		c-0.59-0.43-1.14-0.82-1.13-1.29c0.01-0.37,0.12-0.61,0.28-0.79c0.14-0.15,0.3-0.25,0.46-0.35c-0.25-0.52-0.89-0.91-1.24-1.12
		c-0.06-0.04-0.12-0.07-0.16-0.1l-0.06-0.04l0.02-0.07c0.1-0.35,0.34-0.54,0.55-0.7v0c0.15-0.12,0.29-0.23,0.34-0.37
		c-0.49-1.03-0.95-2.02-1.33-2.96c-0.38-0.95-0.68-1.87-0.85-2.76c-0.03-0.01-0.25,0.1-0.46,0.2c-0.11,0.05-0.21,0.1-0.31,0.14
		c-0.2,0.08-0.36,0.1-0.42-0.05c-0.06-0.15-0.12-0.31-0.17-0.46c-0.05-0.16-0.1-0.31-0.15-0.47l-0.03-0.09l0.09-0.03
		c0.63-0.23,1.48-0.87,2.25-1.71c0.69-0.75,1.31-1.65,1.65-2.53l0.19,0c0.16,0.45,0.21,0.9,0.19,1.33c-0.02,0.39-0.1,0.76-0.22,1.09
		c1.19-0.7,1.45-1.96,1.72-3.23c0.14-0.65,0.27-1.3,0.53-1.9l0,0c0.43-1.06,1.15-1.79,1.99-2.33c0.79-0.51,1.68-0.85,2.5-1.11
		c-0.11-0.11-0.38-0.18-0.66-0.25c-0.53-0.13-1.11-0.28-1.15-0.82l-0.01-0.08l0.08-0.02c0.15-0.04,0.31-0.09,0.48-0.15
		c0.17-0.06,0.35-0.12,0.52-0.19l0.04-0.01h3.33l0.07,0.02c0.13,0.11,0.26,0.23,0.39,0.35c0.13,0.12,0.24,0.24,0.35,0.35l0.02,0.02
		c0.04,0.08,0.07,0.17,0.09,0.25c0.02,0.09,0.01,0.17-0.02,0.25c-0.03,0.08-0.09,0.14-0.17,0.19c-0.04,0.02-0.09,0.04-0.14,0.04
		l-0.01,0c-1.58,0.18-2.96,0.6-4,1.27c-0.96,0.61-1.62,1.43-1.87,2.47l0,0c-0.06,0.25-0.07,0.58-0.02,0.88
		c0.03,0.16,0.07,0.31,0.13,0.44c0.08-0.46,0.3-0.87,0.59-1.25c0.35-0.45,0.8-0.85,1.28-1.22l0,0c0.77-0.58,1.87-0.94,3.11-1.01
		c1.14-0.06,2.4,0.13,3.62,0.65L53,64.37c-0.67,0.01-1.26,0.12-1.77,0.3c-0.37,0.13-0.69,0.31-0.98,0.51
		c0.59-0.16,1.23-0.22,1.91-0.2c0.97,0.03,2.02,0.22,3.05,0.54h0c0.65,0.19,1.26,0.45,1.84,0.77c0.59,0.32,1.15,0.72,1.71,1.2l0,0
		c0.06,0.05,0.23,0.05,0.42,0.03c0.12-0.02,0.25-0.04,0.35-0.08c0.09-0.03,0.15-0.06,0.18-0.09c-0.06-0.45-0.31-0.93-0.66-1.34
		c-0.37-0.44-0.83-0.8-1.26-0.95l-0.22-0.08l0.2-0.11c0.24-0.13,0.64-0.14,1.07-0.09c0.57,0.06,1.19,0.23,1.53,0.36h0
		c0.55,0.22,0.86,0.47,1.17,0.72c0.31,0.25,0.62,0.5,1.18,0.71l0.11,0.04l-0.05,0.1c-0.85,1.63-2.61,2.22-3.94,2.67
		c-0.4,0.14-0.77,0.26-1.05,0.39l0,0c-0.47,0.22-0.91,0.95-1.14,1.81c-0.22,0.79-0.26,1.67,0.01,2.33c0.37,0.77,1.18,1.31,2.17,1.7
		c1,0.39,2.17,0.63,3.23,0.79l0.02,0.01c0.29,0.12,0.63,0.47,0.91,0.85c0.32,0.43,0.56,0.91,0.55,1.13l0,0.07l-0.07,0.02
		c-0.14,0.04-0.4,0.13-0.6,0.26c-0.1,0.07-0.19,0.14-0.23,0.23c0.21,0.26,0.23,0.62,0.24,0.98c0.01,0.35,0.02,0.7,0.24,0.9l0,0
		c0.3,0.25,1.57,0.07,1.57,0.07L64.71,80.92L64.71,80.92z M85.96,73.7l-0.04,0.09c-0.46,1.09-2.04,1.72-2.37,1.84l-0.11,1.27
		l-0.01,0.13l-0.13-0.05l-1.17-0.46c-0.06,0.35-0.22,1.38-0.22,1.71c0,0.15-0.07,0.27-0.17,0.38l-0.07,0.08l-0.05-0.04
		c-0.4,0.06-3.02,0.49-3.12,0.49l-0.11,0.01l0-0.11c0-0.31,0-0.64-0.04-0.92c-0.04-0.27-0.1-0.51-0.22-0.68
		c-0.07-0.04-0.16-0.07-0.25-0.11c-0.51-0.23-1.13-0.5-1.09-1.23l0-0.01c0.21-1.75,0.21-3.65-0.14-5.46
		c-0.3-1.55-0.86-3.03-1.75-4.31L75,66.15c1.92,0.52,3.06,2.2,3.75,4.13c0.67,1.87,0.91,3.97,1.05,5.42c0.02,0,0.04,0,0.06-0.01
		c1.07-0.18,1.04-2.95,0.8-4.4l-0.03-0.16l0.15,0.05c0.2,0.06,0.53,0.14,0.8,0.18c0.2,0.03,0.36,0.05,0.4,0.03
		c0.05-0.02,0.08-0.07,0.11-0.13c0.03-0.08,0.05-0.18,0.07-0.3v0c0.09-0.54,0.02-2.07-0.24-3.7c-0.2-1.21-0.5-2.47-0.93-3.44
		l0.13-0.13c0.35,0.16,0.67,0.5,0.95,0.94c0.33,0.5,0.61,1.14,0.83,1.78v0l0.25,0.73l0,0c0.21,0.65,0.39,1.35,0.56,2.05
		c0.48,1.93,0.96,3.84,2.15,4.47L85.96,73.7z M69.02,85.54l0.03,0.07l0.3,0.75c0.19-0.01,0.68-0.05,0.88-0.08h0
		c0.04-0.01,0.08-0.02,0.12-0.02c0.1-0.02,0.19-0.04,0.26-0.03c0.14,0.02,0.22,0.1,0.19,0.33c0,0.07,0,0.14,0.01,0.21
		c0.07,0.45,0.42,0.82,0.89,1.1c0.48,0.28,1.08,0.44,1.63,0.46c0.19,0.01,0.36,0,0.53-0.03l0.16-0.03l-0.04,0.15
		c-0.06,0.19-0.19,0.4-0.34,0.58c-0.2,0.25-0.44,0.46-0.58,0.56l0,0c-0.02,0.01-0.05,0.03-0.09,0.06c-0.21,0.13-0.44,0.28-0.41,0.52
		l0,0c0.01,0.12,0.08,0.25,0.14,0.38c0.11,0.23,0.23,0.47,0.14,0.71v0l-0.03,0.08l-0.02,0.06l-0.06,0.01
		c-0.71,0.11-1.42,0.14-2.05,0.09c-0.6-0.06-1.13-0.19-1.51-0.42l-0.11-0.07l0.09-0.09c0.06-0.06,0.12-0.15,0.16-0.27
		c0.03-0.09,0.05-0.19,0.04-0.29c-0.01-0.1-0.05-0.19-0.14-0.28h0c-0.07-0.07-0.18-0.14-0.33-0.19l0,0
		c-0.35-0.13-0.72-0.52-0.99-0.81c-0.1-0.1-0.18-0.19-0.25-0.25c-0.58,0.07-1.48,0.06-2.22-0.13c-0.56-0.15-1.02-0.4-1.18-0.82l0,0
		c-0.35-0.87-0.72-2-0.8-2.25c-0.22-0.07-0.52-0.06-0.79,0.01c-0.26,0.07-0.5,0.21-0.62,0.37c0.04,0.3,0.06,0.61,0.09,0.95
		c0.03,0.37,0.06,0.77,0.11,1.2c0.13,0.59,0.41,1.15,0.65,1.62c0.23,0.46,0.43,0.83,0.41,1.11l-0.01,0.03
		c-0.16,0.36-0.28,0.9-0.34,1.41c-0.04,0.45-0.03,0.86,0.08,1.07v0c0.08,0.17,0.35,0.44,0.65,0.66c0.25,0.19,0.52,0.35,0.71,0.37h0
		c0.35,0.05,0.8,0.04,1.18-0.02c0.3-0.05,0.55-0.14,0.65-0.27l0.01-0.01c0.11-0.11,0.34-0.24,0.6-0.35c0.35-0.16,0.76-0.3,0.96-0.35
		l0.01,0c0.18-0.02,0.31-0.1,0.4-0.2c0.08-0.1,0.12-0.24,0.12-0.4c0-0.16-0.05-0.34-0.15-0.53c-0.21-0.39-0.62-0.78-1.27-1.02
		l-0.05-0.05c-0.05-0.1-0.08-0.25-0.07-0.41c0.01-0.14,0.04-0.29,0.11-0.4l0.04-0.07l0.08,0.03c0.44,0.17,1.02,0.44,1.53,0.79
		c0.36,0.25,0.69,0.55,0.9,0.88c0.63,0.05,1.19,0.1,1.66,0.2c0.49,0.1,0.9,0.23,1.23,0.42l0,0c0.5,0.3,0.94,0.67,1.37,1.02
		c0.55,0.46,1.06,0.89,1.61,1.08c0,0,0,0,0,0l0,0c0,0,0,0,0,0c0.46,0.15,0.88,0.14,1.25,0.04c0.45-0.12,0.84-0.38,1.16-0.69
		l0.06-0.06l0.07,0.05c0.69,0.5,1.12,1.27,1.4,2.11c0.28,0.83,0.43,1.74,0.56,2.51l0.01,0.05l-0.03,0.04
		c-0.21,0.24-0.5,0.35-0.79,0.39c-0.37,0.05-0.75-0.03-0.96-0.08c0.03,0.31,0.05,0.77,0.03,1.24c-0.01,0.41-0.05,0.83-0.14,1.18
		c-0.12,0.49-0.22,2.05,0.07,3.57c0.18,0.92,0.49,1.83,1.04,2.46c0.55-0.1,1.01-0.76,1.41-1.34c0.12-0.18,0.24-0.35,0.36-0.5
		c0.27-0.35,0.48-1.97,0.48-3.81c0-1.5-0.14-3.14-0.49-4.35l-0.01-0.04l0.02-0.04c0.09-0.15,0.24-0.52,0.43-0.96
		c0.43-1,1.02-2.37,1.37-2.56l0.12-0.06l0.03,0.13c0.02,0.09,0.04,0.19,0.06,0.28c0.26,1.26,0.52,2.48,0.84,3.15
		c0.03,0.01,0.06,0.02,0.09,0.03c0.12,0.02,0.24-0.05,0.34-0.19c0.12-0.15,0.21-0.38,0.29-0.65c0.15-0.52,0.23-1.17,0.23-1.67v0
		c0.01-0.29-0.03-0.58-0.09-0.85c-0.06-0.3-0.15-0.56-0.22-0.73l-0.34,0.2l-0.08,0.05l-0.05-0.08c-0.26-0.41-0.4-1.09-0.51-1.64
		c-0.01-0.04-0.01-0.07-0.03-0.15l-0.03-0.13l0.13,0.01c0.01,0,0.02,0,0.02,0h0h0h0h0h0h0c1.06,0.04,1.37-2.65,1.41-3.87
		c-0.02-0.11-0.05-0.23-0.07-0.33c-0.08-0.37-0.11-0.52-0.22-0.7c-0.48-0.13-0.64,0.37-0.74,0.69c-0.03,0.1-0.06,0.19-0.09,0.25
		l-0.02,0.02l-0.08,0.08l-0.07-0.06c-0.05-0.04-0.1-0.09-0.14-0.14c-0.36-0.39-0.43-0.75-0.38-1.05c0.05-0.3,0.22-0.52,0.32-0.63v0
		c0.02-0.03,0.05-0.05,0.06-0.06l0.59-0.73c0.06-0.19,0-0.27-0.08-0.36c-0.1-0.12-0.22-0.26-0.22-0.58l0-0.03
		c0.06-0.23,0.32-0.44,0.53-0.61c0.12-0.1,0.23-0.19,0.26-0.24l0.06-0.11l0.1,0.09c0.31,0.28,0.55,1.19,0.7,1.73
		c0.03,0.12,0.06,0.22,0.08,0.29c0.04,0.08,0.32,0.54,0.41,0.68c0.05-0.42,0.08-0.79,0.09-1.15c0-0.39-0.03-0.77-0.1-1.18
		c-0.02-0.06-0.02-0.12,0.01-0.16c0.03-0.05,0.09-0.09,0.16-0.11c0.06-0.01,0.13-0.02,0.21-0.01c0.25,0.03,0.59,0.19,0.88,0.52
		l0.14,0.17H87.1c0.07,0.74,0.08,1.5,0.05,2.17c-0.05,1.03-0.18,1.88-0.26,2.21c-0.09,0.33-0.19,0.88-0.3,1.48
		c-0.17,0.92-0.37,1.95-0.55,2.43c0.24,0.46,0.2,1.04,0.02,1.71c-0.18,0.66-0.51,1.41-0.86,2.2c0.04,0.12,0.08,0.23,0.11,0.35
		c0.15,0.58,0.15,1.19-0.02,1.7c-0.18,0.52-0.53,0.95-1.09,1.16c-0.07,0.03-0.15,0.05-0.23,0.07l0,0c-0.16,0.04-0.04,0.44-0.04,0.44
		l0,0.03c-0.02,0.61-0.02,1.23-0.02,1.85c0,1.74,0.01,3.48-0.51,4.84c0.01,0.01,0.01,0.03,0.02,0.04c0.01,0.02,0.02,0.04,0.03,0.06
		c0.04,0.08,0.11,0.18,0.26,0.11l0,0c0.37-0.19,0.95,0.25,1.41,0.58c0.01,0.01-0.02-0.02,0.08,0.06l0,0
		c0.78,0.62,1.53,1.22,2.23,1.8c1.12,0.92,2.16,1.77,3.1,2.44h0c0.59,0.43,1.27,0.77,1.87,1.08c0.21,0.11,0.42,0.21,0.62,0.32
		c0.11,0.04,0.23,0.14,0.36,0.26c0.13,0.13,0.27,0.29,0.38,0.44c1.78,0.45,5.68,0.95,5.69,0.95l-0.01,0
		c0.04,0,15.11,1.16,17.12,1.69h0c1.13,0.3,2.46,1.13,3.64,2.11c1.27,1.06,2.36,2.3,2.82,3.27l-0.16,0.11
		c-0.95-0.97-2.05-1.78-3.13-2.41c-1.28-0.74-2.5-1.22-3.35-1.38c-0.2-0.02-18.53-1.82-19.33-1.9c-0.19-0.02-0.46-0.06-0.75-0.1
		c-0.7-0.1-1.54-0.21-1.77-0.18c0.08,0.21,0.25,0.64,0.38,1.06c0.09,0.29,0.18,0.57,0.21,0.78l0,0.01c0.02,0.3-0.01,0.58-0.08,0.83
		c-0.07,0.28-0.19,0.51-0.32,0.65l-0.1,0.11l-0.06-0.13c-0.06-0.13-0.12-0.25-0.17-0.37c-0.49-1.06-1.06-2.29-2.02-3.16
		c-0.75-0.58-1.68-1.19-2.67-1.83c-1.82-1.19-3.83-2.5-5.29-4.03c-0.19-0.08-0.34-0.06-0.38-0.01c0.51,5.39,0.72,8.85,0.93,12.33
		c0.07,1.21,0.15,2.42,0.23,3.72v0v0v0c0.08,1.25,0.13,2.91,0.13,4.58c0.01,1.76-0.03,3.53-0.1,4.88l-0.01,0.1h-0.54l-0.01-0.09
		c-0.14-1.5-0.51-5.29-0.82-8.47c-0.2-2.02-0.38-3.8-0.46-4.57v0c-0.04-0.4-0.11-0.95-0.18-1.61c-0.28-2.46-0.75-6.47-1.09-10.98
		c-0.53,1.06-0.98,1.86-1.42,2.59c-0.49,0.8-0.98,1.5-1.59,2.31l-0.06,0.04l-0.4,0.08c-1.22,0.85-2.52,1.52-3.82,2.19
		c-0.24,0.12-0.49,0.25-0.67,0.34l-0.05,0.03l-0.05-0.03l-0.29-0.2l-0.11-0.08l0.1-0.08c0.95-0.8,1.98-1.98,2.72-3.29
		c0.55-0.98,0.93-2.02,1-3.03c-0.75,0.98-1.42,1.85-2.14,2.67c-0.77,0.88-1.58,1.68-2.58,2.47c0.19,2.05-0.66,3.6-1.27,4.71
		c-0.11,0.2-0.21,0.39-0.3,0.56c-0.14,0.32-0.24,0.69-0.32,1.05c-0.12,0.55-0.16,1.05-0.17,1.26l-0.01,0.19l-0.15-0.11l-0.62-0.45
		c-0.01,0.02-0.03,0.04-0.05,0.06c-0.1,0.13-0.25,0.32-0.31,0.51l-0.04,0.14l-0.12-0.09c-0.5-0.4-0.98-0.89-1.33-1.42
		c-0.25-0.38-0.44-0.79-0.54-1.19c-0.18,0.32-0.54,0.85-1.01,1l-0.18,0.06l0.05-0.18c0.04-0.16-0.02-0.4-0.15-0.63
		c-0.14-0.27-0.36-0.52-0.57-0.66l-0.01-0.01c-0.63-0.52-1.26-1.22-1.71-2.15c-0.45-0.93-0.72-2.09-0.62-3.53v0
		c0.01-0.14,0.06-0.38,0.14-0.67c0.13-0.53,0.3-1.26,0.32-1.96c0.02-0.74-0.08-1.47-0.25-2.14c-0.2-0.77-0.49-1.47-0.82-2.05
		l-0.01-0.02c-0.01-0.03-0.01-0.06-0.01-0.08c0.01-0.08,0.07-0.11,0.15-0.11c0.04,0,0.09,0.01,0.14,0.03
		c0.18,0.06,0.47,0.21,0.7,0.34l0,0c0.15,0.09,0.3,0.24,0.49,0.51c0.18,0.25,0.4,0.61,0.67,1.11c0.09,0.1,0.22,0.24,0.33,0.35
		c-0.06-0.44-0.18-1.3-0.28-1.8c-0.12-0.57-0.33-1.1-0.4-1.27c-0.14-0.01-0.27-0.05-0.38-0.09c-0.08-0.02-0.15-0.05-0.22-0.06l0,0
		c-0.04-0.01-0.05-0.01-0.07-0.01c-0.19-0.03-0.46-0.08-0.66-0.19c-0.24-0.13-0.38-0.33-0.2-0.66c0.61-1.12,2.19-1.33,3.66-1.52
		c0.12-0.02,0.24-0.03,0.38-0.05l0,0c1.52-0.17,2.22-0.58,2.84-0.95c0.6-0.36,1.14-0.68,2.24-0.7h0.01
		c0.22,0.01,0.41,0.06,0.57,0.13c0.2,0.09,0.34,0.22,0.39,0.33l0,0.01c0.03,0.08,0.01,0.24-0.02,0.44c-0.04,0.26-0.08,0.6-0.01,0.77
		c0.44-0.2,0.63-0.63,0.82-1.08c0.15-0.35,0.3-0.7,0.57-0.99l0.01-0.01c0.49-0.41,0.95-0.18,1.42,0.04
		c0.36,0.17,0.71,0.34,1.04,0.16c-0.12-0.47-0.76-3.16-0.41-3.5l0.03-0.03l0.05,0c0.27,0.02,0.53-0.03,0.75-0.14
		c0.21-0.1,0.39-0.26,0.52-0.44c-0.49-1.41-1.4-1.82-2.39-2.27c-0.98-0.44-2.04-0.92-2.87-2.4c-0.37-0.27-0.89-0.49-1.4-0.65
		c-0.64-0.2-1.28-0.31-1.64-0.29l-0.03,0c-0.03-0.01-0.05,0-0.05,0.02c-0.02,0.06-0.02,0.16-0.03,0.27
		c-0.02,0.41-0.05,0.99-0.69,1.29l-0.03,0.01c-0.5,0.05-0.88,0.2-1.22,0.43c-0.35,0.24-0.66,0.56-1.03,0.96l-0.09,0.1l-0.07-0.11
		c-0.23-0.39-0.62-0.58-1.16-0.64c-0.55-0.06-1.25,0.02-2.08,0.19l-0.03,0c-0.29-0.03-0.55-0.1-0.77-0.2
		c-0.47-0.21-0.78-0.57-0.96-1c-0.17-0.42-0.22-0.92-0.16-1.43c0.05-0.48,0.19-0.97,0.39-1.43c-0.47-0.89-0.52-2.36-0.57-3.57
		c-0.03-0.86-0.06-1.58-0.22-1.8l-0.01-0.03c-0.01-0.03-0.02-0.06-0.02-0.1c-0.09-0.66,1.36-1.21,1.95-1.29h0
		c0.32-0.05,0.68-0.04,0.98,0.03c0.28,0.07,0.5,0.19,0.59,0.38l0.01,0.01c0.14,0.42,0.3,0.83,0.49,1.18
		c0.17,0.3,0.36,0.56,0.58,0.76c0.01-0.02,0.02-0.04,0.02-0.06c0.17-0.44,0.35-0.91,0.82-1.14c0,0,0,0,0,0l0,0c0,0,0,0,0,0
		c0.37-0.19,1.01-0.04,1.01-0.04l0.06,0.04c0,0,0.15,0.23,0.01,0.45l0,0c-0.12,0.18-0.29,0.39-0.44,0.59
		c-0.16,0.21-0.31,0.39-0.33,0.45c-0.02,0.04-0.04,0.08-0.05,0.11c-0.03,0.05-0.05,0.09-0.04,0.14c0.27,0.06,0.57,0.08,0.91,0.07
		c0.33-0.01,0.7-0.06,1.11-0.14c-0.01-0.05-0.03-0.1-0.04-0.15c-0.11-0.4-0.2-0.74-0.23-1.05c-0.05-0.45,0.56-0.73,0.56-0.73
		l0.04-0.01l0.31-0.01L69.02,85.54z M25.18,131.24l0.06-0.03c0.61-0.25,1.23-0.48,1.87-0.72c1.62-0.61,3.38-1.27,5.45-2.39l0.01,0
		c0.52-0.23,1.6-0.73,2.84-1.3c2.6-1.19,5.88-2.7,6.14-2.75l0.14-0.03l-0.02,0.14l-0.25,2.18c0.7-0.72,1.58-1.29,2.45-1.86
		c1.46-0.95,2.88-1.88,3.29-3.37v0c0.09-0.33,0.16-0.65,0.22-0.96c0.16-0.77,0.31-1.43,0.66-1.78c0.03-0.04,0.08-0.08,0.13-0.1
		c0.1-0.06,0.24-0.09,0.38-0.08c0.14,0.01,0.29,0.06,0.42,0.16c0.07,0.06,0.13,0.13,0.19,0.22l0.01,0.02
		c0.15,0.43,0.34,0.96,0.59,1.65c0.26,0.71,0.59,1.58,1.01,2.7v0c0.32,0.86,1.25,3.14,2.27,5.62c1,2.43,2.13,5.16,2.84,6.87
		l0.06,0.14h-1.71l-0.03-0.06c-1.12-2.77-2.3-5.76-3.27-8.24c-1.18-3-2.05-5.29-2.15-5.6c-0.08-0.25-0.15-0.38-0.23-0.42
		c-0.02-0.01-0.05-0.01-0.07,0c-0.04,0.02-0.08,0.07-0.12,0.14c-0.14,0.25-0.23,0.69-0.18,1.04c0.05,0.33-0.04,1.93-0.32,3.47
		c-0.18,0.96-0.43,1.9-0.79,2.52c-0.9,1.58-4.12,2.16-4.44,1.97c-0.03-0.02-0.05-0.04-0.06-0.06c-0.05-0.1-0.12-0.45-0.17-0.86
		c-0.09-0.62-0.16-1.39-0.19-1.68v0c0-0.04-0.01-0.06-0.02-0.07c0,0-0.01-0.01-0.02-0.01c-0.02,0-0.04,0.01-0.06,0.02
		c-0.07,0.04-0.14,0.12-0.21,0.25c-0.09,0.17-0.35,1.1-0.61,2.05c-0.28,0.99-0.56,2-0.67,2.2l0,0c-0.11,0.22-0.42,0.55-0.66,0.71
		c-0.07,0.05-0.14,0.08-0.2,0.09c-0.09,0.02-0.16,0-0.21-0.07c-0.03-0.05-0.04-0.12-0.03-0.22l0,0c0.07-0.47,0.92-5.05,1.11-6.03
		c-1.42,0.6-11.29,4.77-15.33,6.47l-0.14,0.06V131.24z M74.85,90.76L74.85,90.76C74.85,90.76,74.85,90.76,74.85,90.76l-0.09-0.18
		c0.62-0.3,1.06-0.83,1.37-1.45c0.4-0.8,0.57-1.75,0.62-2.56c-0.12-0.2-0.43-0.39-0.82-0.54c-0.41-0.16-0.91-0.26-1.38-0.26
		l-0.04-0.2c0.41-0.15,0.98-0.28,1.47-0.32c0.45-0.04,0.83-0.01,0.97,0.13l0.03,0.04c0.07,0.26,0.09,0.57,0.07,0.9
		c-0.02,0.36-0.08,0.74-0.17,1.09c0.06,0.08,0.39,0.03,0.52,0.01c0.05-0.17,0.21-0.77,0.36-2.02c0.05-0.44,0.08-0.87,0.1-1.29
		c0.02-0.42,0.02-0.82,0.02-1.22h0.19l-0.09-0.09c0.21,0,0.36-0.05,0.48-0.14c0.14-0.1,0.23-0.24,0.27-0.38l0,0
		c0.02-0.06,0.03-0.1,0.04-0.14c0.08-0.33,0.22-0.85,0.48-1.19l0.01,0.01l-0.01-0.02l0.02-0.01l0,0c0.21-0.07,0.39-0.1,0.58-0.13
		c0.1-0.01,0.19-0.03,0.3-0.05l0,0c0.18-0.03,0.42-0.08,0.67-0.11c0.25-0.04,0.5-0.06,0.67-0.06h0.14l-0.04,0.12
		c0.04,0.11,0.09,0.23,0.15,0.34c0.08,0.16,0.15,0.33,0.18,0.48l0.02,0.12h-0.12c-0.22,0-0.53,0.04-0.83,0.1
		c-0.21,0.04-0.41,0.09-0.57,0.15c0.17,0.18,0.3,0.43,0.41,0.7c0.18,0.46,0.28,0.97,0.31,1.27l0,0.01v0.39l-0.13-0.05
		c-0.22-0.08-0.49-0.1-0.74-0.1c-0.37,0.01-0.71,0.08-0.83,0.14l0,0c-0.3,0.14-0.74,0.48-1.09,1c-0.26,0.38-0.47,0.86-0.56,1.43l0,0
		c-0.08,0.49-0.38,1.52-0.94,2.41c-0.37,0.59-0.86,1.12-1.46,1.41c-0.09,0.05-0.18,0.1-0.27,0.15
		C75.04,90.67,74.95,90.72,74.85,90.76C74.85,90.76,74.85,90.76,74.85,90.76 M72.82,79.28L72.82,79.28
		c-0.44,0.02-1.19,0.05-1.96,0.14c-0.68,0.07-1.39,0.18-2.08,0.27c-0.05,0.05-0.09,0.09-0.11,0.13l-0.04-0.11
		c-0.05,0.01-0.09,0.01-0.14,0.02c0.07-0.13,0.27-0.3,0.5-0.46c0.37-0.26,0.86-0.53,1.04-0.62l0,0c0.34-0.16,1.65,0.06,2.38,0.25
		c0.16,0.04,0.29,0.08,0.38,0.11c0.19,0.07,0.25,0.15,0.14,0.25C72.91,79.27,72.88,79.28,72.82,79.28 M72.81,79.08L72.81,79.08
		L72.81,79.08C72.81,79.08,72.81,79.08,72.81,79.08 M69.55,78.01C69.55,78.01,69.55,78.01,69.55,78.01L69.55,78.01
		C69.55,78.01,69.55,78.01,69.55,78.01l-0.19-0.08c0.03-0.06-1.6,0.73-1.6,0.74l-0.07,0.03l-0.05-0.06l-0.25-0.33l-0.04-0.05
		l0.04-0.06l0.81-1.33l0.03-0.03c0,0,1.64-1.19,2.48-1.26l0.07,0.02c0.55,0.44,1.39,1,1.39,1l0.05,0.03v0.15l-0.08,0.02
		c-0.3,0.07-0.62,0.16-0.92,0.24c-0.43,0.11-0.81,0.21-1.03,0.25c-0.1,0.07-0.24,0.2-0.36,0.35C69.7,77.76,69.6,77.9,69.55,78.01
		 M83.77,128.63l0.2,0.02c0.04,0.6,0.02,1.15-0.09,1.58c-0.08,0.31-0.2,0.56-0.37,0.73c-0.18,0.18-0.41,0.26-0.69,0.22
		c-0.16-0.02-0.35-0.08-0.55-0.19l0.01,0c-0.71-0.33-2.11-1.13-3.64-2.01c-1.85-1.06-3.89-2.23-5.13-2.81l0.06-0.19
		c0.95,0.15,1.93,0.04,3.04-0.1c0.07-0.01,0.14-0.02,0.21-0.03l0.07,0.01c0.77,0.48,1.5,0.95,2.19,1.39
		c1.2,0.76,2.31,1.47,3.08,1.94h0c0.43,0.26,0.77,0.43,1.02,0.38C83.43,129.53,83.62,129.26,83.77,128.63 M65.98,127.82l0.04-0.01
		h0.23l-0.15,0.17c-1.16,1.3-2.57,2.89-3.69,4.13c-1.16,1.29-2.09,2.32-2.3,2.52l0,0c-0.26,0.24-0.49,0.37-0.67,0.4
		c-0.09,0.01-0.17,0-0.23-0.04c-0.07-0.04-0.11-0.11-0.13-0.2c-0.02-0.13,0.02-0.33,0.14-0.58c0.17-0.33,0.71-1.17,1.29-2.08
		c0.74-1.15,1.54-2.41,1.74-2.86l0.02-0.05l0.05-0.01c1.12-0.22,2.27-0.76,3.36-1.27C65.89,127.87,65.84,127.89,65.98,127.82
		 M53.54,125.27l0,0.04l-0.01,0.04l-0.2-0.02c0,0,0-0.02,0-0.04c-0.13-0.47-0.28-0.97-0.44-1.52c-0.66-2.27-1.53-5.27-1.98-7.78
		l0-0.02c0-0.18,0.07-0.32,0.19-0.43c0.13-0.13,0.32-0.21,0.5-0.25l0.05-0.01l0.04,0.03c3.22,2.82,6.67,4.36,10.15,5.91
		c1.15,0.51,2.3,1.03,3.45,1.59l-0.04,0.19c-0.27,0-0.63,0-1.03,0.02c-0.4,0.02-0.86,0.05-1.32,0.11l-0.01,0h-0.01l-0.04-0.01
		c-1.13-0.53-2.47-1.2-3.75-1.86c-2.18-1.12-4.2-2.2-4.68-2.46l0,0c-0.31-0.17-0.47-0.13-0.55,0.01c-0.11,0.2-0.1,0.58-0.09,0.87
		c0,0.07,0,0.13,0,0.19C53.76,120.35,53.57,124.65,53.54,125.27 M65.64,65.2c-0.01,0.01-0.01,0.01-0.02,0.01
		C65.6,65.23,65.63,65.22,65.64,65.2 M60.9,101.63l-0.01,0c-0.09-0.04-0.21-0.09-0.36-0.07c-0.16,0.02-0.36,0.11-0.62,0.35
		l-0.17-0.09c0.02-0.13,0.02-0.29,0-0.47c-0.02-0.22-0.05-0.46-0.09-0.67l0,0c-0.02-0.1-0.07-0.18-0.14-0.23
		c-0.09-0.07-0.2-0.1-0.3-0.1c-0.25,0.09-0.58,1.41-0.47,1.73v0c0,0,0.01,0.01,0.01,0.02c0.01,0.01,0.03,0.02,0.05,0.03l-0.04,0.19
		c-0.03,0-0.05,0.01-0.08,0.02l0,0c-0.02,0.01-0.04,0.02-0.05,0.03l0,0c-0.12,0.12-0.33,0.17-0.56,0.17c-0.25,0-0.52-0.06-0.68-0.16
		l0,0c-0.12-0.07-0.21-0.09-0.29-0.06c-0.09,0.03-0.18,0.13-0.3,0.28l0,0c-0.06,0.08-0.12,0.13-0.18,0.16l0,0
		c-0.08,0.04-0.16,0.04-0.22,0.02c-0.06-0.02-0.12-0.07-0.16-0.12c-0.06-0.08-0.1-0.18-0.12-0.26c-0.02-0.12,0.06-0.53,0.18-1.01
		c0.14-0.52,0.32-1.12,0.45-1.48l0,0c0.12-0.32,0.29-0.58,0.47-0.77c0.23-0.25,0.47-0.38,0.63-0.38c0.22,0,0.38,0.25,0.46,0.41
		c0.15-0.12,0.44-0.37,0.59-0.57l0,0c0.13-0.18,0.35-0.37,0.58-0.47c0.2-0.09,0.41-0.12,0.59-0.03c0,0,0,0,0,0l0,0c0,0,0,0,0,0
		c0.15,0.07,0.25,0.16,0.32,0.23c0.08,0.07,0.13,0.13,0.23,0.1c0.07-0.03,0.16-0.1,0.24-0.17c0.11-0.09,0.22-0.2,0.31-0.3l0.04-0.03
		c0.58-0.2,0.74-0.08,0.94,0.07c0.1,0.07,0.21,0.15,0.4,0.18l0,0c0.09,0.01,0.21,0.04,0.34,0.07c0.64,0.15,1.75,0.4,2.99-0.31
		l0.14,0.14c-0.04,0.06-0.07,0.13-0.11,0.2c-0.03,0.06-0.06,0.13-0.09,0.2l0,0c-0.22,0.5-0.46,0.85-0.74,1.02
		c-0.29,0.18-0.62,0.16-0.99-0.09l0,0c-0.12-0.08-0.39-0.23-0.65-0.26c-0.15-0.02-0.29-0.01-0.38,0.08
		c-0.06,0.07-0.11,0.16-0.16,0.23c-0.07,0.12-0.14,0.23-0.23,0.28l0.01,0c-0.11,0.08-0.2,0-0.3-0.14c-0.04-0.05-0.08-0.13-0.13-0.21
		c-0.11-0.19-0.24-0.4-0.36-0.47c-0.07,0.01-0.15,0.06-0.22,0.12c-0.13,0.11-0.24,0.26-0.31,0.37l0,0
		c-0.08,0.12-0.23,0.41-0.31,0.73c-0.05,0.2-0.08,0.41-0.05,0.6c0.02,0.08,0.07,0.15,0.13,0.22c0.07,0.08,0.16,0.15,0.25,0.21
		c0.09,0.04,0.46-0.08,0.95-0.23c1.05-0.33,2.63-0.83,3.67-0.37c0.53-0.59,1.04-0.53,1.79-0.43c0.21,0.03,0.44,0.06,0.7,0.07
		c0.33-0.02,0.56-0.17,0.8-0.32c0.09-0.05,0.17-0.11,0.27-0.16l0,0c0.58-0.31,1.35-0.22,2.04-0.14c0.37,0.04,0.72,0.08,0.99,0.05h0
		c0.4-0.04,0.76-0.16,1.05-0.36c0.26-0.18,0.47-0.42,0.58-0.73c0-0.02,0.01-0.04,0.01-0.05c-0.1,0.08-0.2,0.17-0.35,0.23
		c-0.16,0.07-0.37,0.11-0.66,0.1l-0.01,0c-0.69-0.11-0.87-0.54-1.09-1.08c-0.08-0.19-0.16-0.39-0.27-0.59l0,0
		c-0.54-0.97-1.01-1.5-1.42-1.78c-0.37-0.26-0.68-0.32-0.93-0.34c-0.08,0.15-0.16,0.27-0.25,0.38c-0.1,0.12-0.2,0.22-0.3,0.3
		l-0.13-0.15c0.27-0.24,0.43-0.46,0.53-0.68c0.1-0.22,0.14-0.43,0.16-0.66l0.01-0.07l0.07-0.02c0.3-0.07,0.77,0.17,1.22,0.52
		c0.53,0.41,1.05,0.96,1.22,1.32c0.11,0.22,0.2,0.45,0.28,0.68c0.23,0.62,0.44,1.18,0.99,1.18h0h0h0c0.19,0,0.33-0.05,0.45-0.13
		c0.11-0.08,0.2-0.2,0.28-0.35l0.05-0.05c0,0,0.01,0,0.02-0.01c0.34-0.12,0.73,0.39,0.83,0.65l0,0c0.13,0.3,0.11,0.63,0,0.94
		c-0.12,0.33-0.35,0.64-0.65,0.89l0,0c-0.43,0.39-0.92,0.57-1.42,0.61c-0.61,0.05-1.23-0.09-1.76-0.3
		c-0.16,0.12-0.33,0.23-0.53,0.32c-0.22,0.1-0.47,0.18-0.78,0.23l0,0c-0.32,0.06-0.98,0.13-1.58,0.11
		c-0.38-0.01-0.73-0.06-0.98-0.18c-0.64,0.48-1.51,0.53-2.63,0.59c-0.28,0.02-0.57,0.03-0.89,0.06c-0.34,0.07-0.64,0.17-0.91,0.27
		C62.19,101.71,61.67,101.9,60.9,101.63 M65.54,62.44L65.54,62.44c0.27,0.17,0.64,0.51,0.94,0.87c0.25,0.3,0.44,0.61,0.46,0.84
		c0,0.02-0.02,0.08-0.04,0.09c-0.26,0.19-0.78,0.59-1.22,0.94c0,0,0,0,0,0c0,0,0,0,0,0c0,0,0,0,0,0c0,0,0,0,0,0c0,0,0,0,0,0
		c0,0,0,0,0,0c0,0,0,0,0,0c0,0,0,0,0,0c0,0,0,0,0,0c0,0,0,0,0,0c0,0,0,0,0,0c0,0,0,0,0,0c0,0,0,0,0,0c0,0,0,0,0,0c0,0,0,0,0,0
		c0,0,0,0,0,0c0,0,0,0,0,0c0,0,0,0,0,0c0,0,0,0,0,0c0,0,0,0,0,0c-0.01,0.01-0.02,0.01-0.03,0.02c0.01-0.01,0.02-0.01,0.03-0.02l0,0
		l0,0c-0.02,0.02-0.06,0.05-0.03,0.03c-0.03,0.02-0.07,0.05-0.12,0.09c-0.05,0.04-0.14,0.02-0.16-0.05
		c-0.25-0.75-0.63-1.4-1.09-1.95c-0.5-0.59-1.09-1.05-1.69-1.35c-0.08-0.04-0.06-0.17,0.03-0.19c0.47-0.08,0.97-0.06,1.46,0.05
		C64.57,61.95,65.08,62.16,65.54,62.44 M65.67,65.18C65.67,65.18,65.67,65.18,65.67,65.18C65.67,65.18,65.67,65.18,65.67,65.18"/>
	<path class="st4" d="M65.52,98.4c-1.11,0.45-2.07,0.23-2.66,0.1c-0.12-0.03-0.23-0.05-0.31-0.07l0,0
		c-0.25-0.04-0.37-0.13-0.49-0.22c-0.15-0.11-0.28-0.2-0.74-0.05c-0.09,0.1-0.2,0.21-0.31,0.3c-0.1,0.09-0.21,0.16-0.29,0.2l-0.01,0
		c-0.21,0.07-0.3-0.01-0.43-0.14c-0.07-0.06-0.15-0.14-0.28-0.2l0,0c-0.12-0.06-0.27-0.04-0.42,0.03c-0.2,0.09-0.39,0.25-0.5,0.4
		l0,0c-0.22,0.3-0.73,0.69-0.73,0.69l-0.11,0.08l-0.05-0.13c0,0-0.14-0.4-0.33-0.4c-0.11,0-0.29,0.11-0.48,0.32
		c-0.16,0.18-0.32,0.42-0.43,0.71l0,0c-0.13,0.35-0.31,0.95-0.45,1.46c-0.12,0.45-0.2,0.83-0.18,0.92c0.01,0.06,0.04,0.13,0.08,0.18
		c0.02,0.03,0.05,0.05,0.07,0.06c0.02,0.01,0.04,0.01,0.06-0.01l0,0c0.03-0.02,0.07-0.05,0.11-0.1l0,0c0.14-0.18,0.26-0.3,0.39-0.34
		c0.14-0.05,0.28-0.03,0.45,0.07l0,0c0.14,0.08,0.37,0.13,0.59,0.13c0.18,0,0.35-0.03,0.42-0.11c0.11-0.11,0.24-0.11,0.4-0.11
		c0.21,0,0.49,0,0.82-0.31c0.31-0.29,0.56-0.4,0.76-0.43c0.2-0.03,0.36,0.02,0.48,0.08c0.7,0.24,1.19,0.07,1.76-0.14
		c0.29-0.1,0.59-0.21,0.95-0.28l0.01,0c0.31-0.02,0.61-0.04,0.9-0.06c1.12-0.06,1.97-0.11,2.57-0.59l0.05-0.04l0.06,0.03
		c0.21,0.12,0.56,0.17,0.95,0.19c0.59,0.02,1.23-0.05,1.54-0.11l0,0c0.29-0.05,0.53-0.12,0.73-0.22c0.2-0.09,0.38-0.21,0.54-0.33
		l0.05-0.03l0.05,0.02c0.51,0.21,1.12,0.35,1.72,0.3c0.46-0.04,0.92-0.2,1.31-0.56l0,0c0.27-0.22,0.48-0.5,0.59-0.8
		c0.1-0.27,0.11-0.55,0-0.8l0,0c-0.07-0.2-0.33-0.59-0.55-0.54c-0.09,0.16-0.19,0.29-0.32,0.38c-0.15,0.11-0.33,0.17-0.56,0.17h0
		c-0.69,0.01-0.93-0.62-1.18-1.31c-0.08-0.22-0.17-0.45-0.27-0.66c-0.17-0.33-0.66-0.86-1.17-1.25c-0.37-0.28-0.74-0.49-0.98-0.49
		c-0.03,0.26-0.09,0.5-0.22,0.74c-0.08,0.15-0.19,0.3-0.35,0.47C68.23,96.55,66.7,97.92,65.52,98.4 M74.84,127.15h-0.46v-0.24h1.21
		v0.24h-0.46v1.18h-0.28V127.15z M75.83,126.91h0.41l0.36,1.02l0.36-1.02h0.41v1.42h-0.26v-1.15l-0.39,1.15h-0.23l-0.39-1.15v1.15
		h-0.26V126.91z M66.26,79.92c-0.36,0.12-0.66,0.27-0.92,0.45c-0.26,0.17-0.47,0.38-0.65,0.58h0.01c-0.27,0.27-0.41,0.63-0.55,0.97
		c-0.11,0.28-0.21,0.53-0.36,0.69c-0.06,0.06-0.24,0.07-0.46,0.08c-0.19,0.01-0.4,0.01-0.6,0.07l-0.1,0.02l0.02,0.1l0.22,0.92
		c-0.09,0-0.21,0.01-0.34,0.03c-0.17,0.01-0.34,0.04-0.47,0.07h-0.01c-0.05,0.02-0.08,0.02-0.1,0.01c-0.02-0.01-0.04-0.04-0.06-0.07
		c-0.05-0.25-0.11-0.44-0.16-0.59c-0.05-0.15-0.09-0.23-0.09-0.26l-0.03-0.06l-0.06-0.01c-0.47-0.03-1.13,0.25-1.7,0.48
		c-0.01,0.01-0.02,0.01-0.03,0.01c-0.26-0.25-0.53-0.49-0.81-0.68c-0.31-0.2-0.62-0.38-0.96-0.52h-0.01
		c-1.37-0.5-3.05-0.54-4.73-0.35c-2.54,0.28-5.05,1.09-6.38,1.59c-0.01,0-0.02-0.01-0.03-0.03c-0.01-0.09-0.04-0.63-0.06-0.83
		c0.24-0.09,0.47-0.24,0.66-0.42c0.2-0.2,0.36-0.44,0.41-0.68c0.02-0.09,0.04-0.21,0.04-0.34c0.05-0.45,0.12-1.14,0.57-2.17
		c0.46-0.95,1.01-1.13,1.36-1.23c0.2-0.06,0.33-0.1,0.4-0.24c0.15-0.14,0.26-0.24,0.35-0.32c0.16-0.15,0.24-0.21,0.25-0.32
		c0.01-0.09-0.02-0.17-0.1-0.33c-0.06-0.12-0.15-0.29-0.24-0.55l-0.04-0.08l-0.09,0.02c-0.3,0.09-0.57,0.09-0.78,0.04
		c-0.2-0.05-0.36-0.17-0.49-0.35c-0.31-0.42-0.43-1.14-0.38-1.95c0.04-0.85,0.28-1.79,0.65-2.61c0.3-0.65,1.01-1.43,1.87-2.03
		c0.73-0.5,1.57-0.88,2.39-0.93l0.14-0.01l-0.05-0.13c-0.2-0.52-0.58-0.89-1.02-1.17c-0.57-0.35-1.27-0.53-1.87-0.62l-0.01-0.01
		c-0.83-0.07-1.56,0.06-2.19,0.33c-0.63,0.28-1.15,0.71-1.55,1.26c-0.1-0.06-0.18-0.14-0.24-0.23c-0.09-0.13-0.13-0.28-0.13-0.46
		c0.01-0.17,0.06-0.36,0.15-0.56c0.18-0.36,0.52-0.73,0.98-1.05l0.07-0.05l-0.04-0.08c-0.09-0.17-0.81,0.08-0.82,0.08l-0.01,0.01
		c0,0-0.23,0.12-0.41,0.25h-0.01c-1.63,1.27-1.47,2.69-1.16,5.47c0.03,0.25,0.06,0.51,0.09,0.76c0.1,0.91-0.36,1.46-0.81,2.01
		c-0.33,0.4-0.66,0.8-0.81,1.34c-0.2,0.79,0.03,4.07,0.23,6.9c0.06,0.86,0.12,1.67,0.16,2.35c-0.17,0.09-0.46,0.13-0.74,0.17
		c-0.24,0.04-0.46,0.08-0.6,0.14c-0.15,0.07-0.3,0.18-0.46,0.31c-0.21,0.17-0.41,0.33-0.51,0.25l-0.01-0.01
		c-0.06-0.03-0.11-0.13-0.14-0.27c-0.04-0.17-0.05-0.38-0.04-0.62v-0.04l-0.03-0.03c-0.27-0.3-0.64-0.56-0.99-0.82
		c-0.54-0.39-1.05-0.76-1.05-1.12v-0.01c0-0.3,0.09-0.51,0.23-0.65c0.14-0.15,0.32-0.25,0.49-0.36l0.07-0.04l-0.03-0.08
		c-0.25-0.62-0.97-1.06-1.36-1.3c-0.03-0.01-0.06-0.03-0.09-0.05c0.09-0.24,0.29-0.39,0.46-0.52c0.2-0.15,0.37-0.29,0.41-0.53
		L40,78.87c-0.49-1.04-0.95-2.03-1.33-2.98c-0.38-0.95-0.68-1.86-0.84-2.74l-0.01-0.03c-0.09-0.2-0.41-0.04-0.73,0.11
		c-0.1,0.05-0.2,0.1-0.29,0.14c-0.09,0.04-0.15,0.07-0.15,0.07c-0.07-0.15-0.12-0.3-0.17-0.45c-0.04-0.12-0.09-0.25-0.12-0.37
		c0.65-0.27,1.49-0.91,2.24-1.73c0.64-0.69,1.23-1.51,1.59-2.33c0.09,0.33,0.11,0.66,0.09,0.98c-0.03,0.47-0.15,0.91-0.31,1.28
		l0.14,0.13c1.48-0.71,1.77-2.09,2.07-3.5c0.14-0.64,0.27-1.28,0.52-1.86c0.41-1.02,1.1-1.72,1.91-2.24
		c0.81-0.52,1.73-0.86,2.56-1.12l0.09-0.03l-0.02-0.09c-0.07-0.28-0.44-0.38-0.86-0.49c-0.43-0.1-0.9-0.22-0.99-0.56
		c0.13-0.04,0.27-0.08,0.41-0.12c0.17-0.06,0.35-0.12,0.54-0.2l-0.04-0.2h-4.38l-0.03,0.04c-0.38,0.39-0.79,0.78-1.2,1.16
		c-0.41,0.38-0.83,0.76-1.26,1.13l-0.05,0.04l0.01,0.06c0.41,1.47,0.17,2.9-0.43,4.22c-0.76,1.66-2.09,3.14-3.44,4.25l-0.02,0.03
		c-0.59,1.02-0.16,2.03,0.25,3.02c0.19,0.43,0.36,0.85,0.46,1.26c-0.04,0.19-0.33,1.58-0.33,3.16c0.01,0.85,0.16,1.97,0.31,3.07
		c0.14,1.07,0.28,2.12,0.27,2.81v0.03c0.19,0.7,0.8,1.34,1.42,1.99c0.31,0.33,0.62,0.65,0.89,0.99c-1.13,1.05-0.36,3.05,0.29,4.74
		c0.15,0.41,0.3,0.79,0.41,1.14l0.02,0.04c0.74,0.7,1.17,1.74,1.62,2.84c0.55,1.32,1.13,2.72,2.32,3.73c0.07,0.32,0.1,0.7,0.13,1.1
		c0.05,0.79,0.12,1.66,0.52,2.29c0.22,0.32,0.65,0.69,1.06,0.96c0.41,0.26,0.83,0.43,1.05,0.36c0.18-0.07,0.29-0.06,0.36-0.01
		c0.07,0.04,0.12,0.15,0.17,0.27v-0.01c0.15,0.41,0.23,0.79,0.32,1.19c0.12,0.51,0.23,1.05,0.49,1.68c0.23,0.57,0.65,1.28,1.04,1.94
		c0.55,0.93,1.06,1.79,0.97,2.11h-0.01c-0.01,0.04-0.11,0.05-0.23,0.07c-0.26,0.02-0.62,0.05-0.84,0.46c-0.75,0.94-1.32,2-1.89,3.06
		c-0.83,1.54-1.66,3.06-2.98,4.15c-4.95,2.79-9.99,5.43-15.03,8.07c-1.07,0.56-2.13,1.12-3.33,1.75l-0.05,0.03v1.76l0.14-0.06
		c0.61-0.25,1.23-0.48,1.87-0.72c1.62-0.61,3.38-1.27,5.45-2.39c0.52-0.23,1.67-0.76,2.98-1.36c2.33-1.06,5.15-2.35,5.83-2.62
		l-0.28,2.32l0.17,0.08c0.71-0.8,1.68-1.43,2.62-2.05c1.5-0.97,2.95-1.92,3.38-3.49c0.09-0.34,0.17-0.68,0.24-1
		c0.15-0.72,0.29-1.35,0.6-1.65l0.01-0.01c0.02-0.02,0.04-0.04,0.08-0.06c0.07-0.04,0.17-0.07,0.28-0.07
		c0.11,0.01,0.22,0.04,0.31,0.12c0.04,0.04,0.09,0.09,0.12,0.15c0.15,0.43,0.33,0.95,0.59,1.65c0.25,0.69,0.58,1.56,1.01,2.69
		c0.27,0.71,0.94,2.38,1.74,4.33c1.15,2.81,2.55,6.18,3.38,8.17l0.03,0.06h1.29l-0.04-0.13c-0.18-0.51-0.36-1.02-0.54-1.55
		c-1.18-3.38-2.43-6.96-2.9-8.61c-0.12-0.44-0.28-0.97-0.44-1.55c-0.66-2.26-1.53-5.25-1.97-7.75c0-0.11,0.04-0.2,0.12-0.27
		c0.09-0.09,0.23-0.15,0.36-0.19c3.22,2.81,6.66,4.35,10.14,5.9c1.02,0.45,2.04,0.91,3.06,1.4c-0.92,0.01-2.32,0.1-3.54,0.41
		c-0.94,0.25-1.79,0.62-2.27,1.21l-0.03,0.03l0.01,0.04c0.1,0.87,0.46,1.94,0.76,2.8c0.2,0.57,0.36,1.05,0.39,1.31
		c0.09,0.76,1,0.89,1.01,0.89h0.01c1.49,0.09,3.11-0.66,4.6-1.35c0.9-0.42,1.75-0.81,2.48-0.98c-0.14,1.33-0.18,2.67-0.15,4.03
		c0.03,1.4,0.13,2.82,0.28,4.26l0.01,0.09h4.04l-0.01-0.1c-0.01-0.04-0.01-0.12-0.01-0.18c-0.01-0.05-0.01-0.1-0.01-0.17l-0.01-0.02
		c-0.01-0.07-0.04-0.16-0.04-0.24c0.04,0.09,0.07,0.17,0.1,0.25c0.06,0.14,0.11,0.28,0.17,0.41l0.02,0.07h4.02l-0.04-0.13
		c-0.54-1.63-1.05-3.18-1.52-4.47c-0.47-1.29-0.89-2.3-1.22-2.85c-0.24-0.4-0.53-0.74-0.81-1.06c-0.32-0.37-0.61-0.71-0.77-1.08
		l-0.01-0.09c1.9,0.64,3.62,0.36,5.39,0.05c0.6-0.1,1.2-0.2,1.82-0.27l0.03-0.01c0.01,0,1.02-0.44,0.99-0.99
		c-0.02-0.28-0.14-1.4-0.25-2.32c-0.07-0.58-0.14-1.08-0.18-1.24c-0.12-0.43-0.53-0.77-0.53-0.77l-0.04-0.04l-0.05,0.01
		c-0.98,0.22-1.87,0.33-2.7,0.43c-1.07,0.13-2.04,0.25-2.97,0.57h0.01c-0.29,0.09-0.51,0.21-0.69,0.31
		c-0.23,0.12-0.37,0.2-0.47,0.09c0.02-0.03,0.09-0.09,0.17-0.2c0.19-0.2,0.45-0.46,0.58-0.58c0.27-0.25,0.54-0.5,0.82-0.75
		c1.77-1.61,3.64-3.31,4.93-5.46l0.11-0.19L79,114.64l-0.44,0.08l-0.04,0.01c-1.24,0.87-2.56,1.54-3.88,2.22
		c-0.17,0.08-0.33,0.16-0.55,0.28l-0.13-0.09c0.94-0.81,1.95-1.97,2.66-3.26c0.62-1.1,1.04-2.3,1.04-3.44l-0.18-0.06
		c-0.83,1.07-1.55,2.03-2.33,2.91c-0.77,0.88-1.59,1.69-2.6,2.48l-0.04,0.04l0.01,0.06c0.21,2.02-0.63,3.56-1.23,4.65
		c-0.12,0.2-0.22,0.4-0.3,0.57v0.01c-0.15,0.34-0.25,0.73-0.33,1.09c-0.09,0.44-0.15,0.84-0.17,1.1l-0.55-0.41l-0.09-0.07l-0.05,0.1
		c-0.01,0.01-0.04,0.06-0.09,0.11c-0.09,0.12-0.22,0.28-0.3,0.45c-0.46-0.37-0.87-0.81-1.18-1.29c-0.3-0.45-0.51-0.93-0.56-1.4
		l-0.2-0.03c0,0-0.36,0.81-0.88,1.09c-0.01-0.18-0.08-0.38-0.19-0.59c-0.16-0.29-0.39-0.57-0.62-0.73c-0.61-0.5-1.23-1.18-1.66-2.08
		c-0.44-0.9-0.7-2.03-0.6-3.43c0.01-0.12,0.06-0.33,0.12-0.61c0.13-0.54,0.32-1.3,0.34-2.03c0.01-0.76-0.09-1.5-0.26-2.19
		c-0.19-0.73-0.46-1.41-0.78-1.97c0.17,0.06,0.42,0.19,0.63,0.31c0.12,0.07,0.26,0.21,0.44,0.45c0.17,0.25,0.38,0.61,0.66,1.1
		l0.01,0.01c0.17,0.22,0.55,0.57,0.55,0.57l0.17-0.08c-0.01-0.01-0.17-1.41-0.32-2.1c-0.15-0.71-0.44-1.37-0.45-1.37l-0.02-0.06
		l-0.07-0.01c-0.14,0-0.28-0.04-0.4-0.08c-0.08-0.02-0.16-0.05-0.23-0.06c-0.01-0.01-0.03-0.01-0.07-0.01
		c-0.17-0.03-0.43-0.08-0.6-0.17c-0.15-0.08-0.23-0.2-0.13-0.39c0.57-1.03,2.09-1.23,3.51-1.42c0.13-0.01,0.26-0.04,0.38-0.05h-0.01
		c1.58-0.17,2.29-0.6,2.93-0.98c0.57-0.34,1.09-0.65,2.13-0.67c0.19,0.01,0.36,0.05,0.49,0.11c0.15,0.07,0.25,0.17,0.29,0.23
		c0.01,0.04-0.01,0.17-0.03,0.33c-0.04,0.33-0.1,0.77,0.07,0.99l0.04,0.06l0.07-0.03c0.59-0.21,0.8-0.7,1.02-1.23
		c0.14-0.33,0.28-0.66,0.52-0.93c0.38-0.31,0.8-0.12,1.2,0.08c0.44,0.2,0.87,0.41,1.31,0.1l0.06-0.04l-0.02-0.07
		c0-0.01-0.74-2.91-0.52-3.35c0.29,0.01,0.56-0.05,0.8-0.16c0.26-0.13,0.48-0.32,0.62-0.56l0.03-0.04L78,98.67
		c-0.52-1.52-1.48-1.96-2.52-2.43c-0.96-0.43-2-0.9-2.8-2.33l-0.03-0.04c-0.38-0.29-0.93-0.52-1.47-0.7c-0.65-0.2-1.31-0.31-1.7-0.3
		c-0.16-0.04-0.24,0.02-0.28,0.16c-0.02,0.09-0.03,0.2-0.04,0.33c-0.02,0.35-0.04,0.86-0.55,1.11c-0.53,0.05-0.94,0.21-1.3,0.46
		c-0.33,0.23-0.64,0.53-0.98,0.89c-0.28-0.37-0.69-0.57-1.23-0.62c-0.57-0.07-1.29,0.01-2.13,0.18c-0.27-0.03-0.49-0.09-0.7-0.18
		c-0.41-0.19-0.69-0.51-0.84-0.89c-0.16-0.38-0.2-0.85-0.15-1.33c0.05-0.47,0.2-0.97,0.4-1.42l0.02-0.04l-0.02-0.04
		c-0.46-0.84-0.52-2.33-0.57-3.54c-0.04-0.87-0.07-1.6-0.25-1.89c0-0.01-0.01-0.03-0.01-0.04c-0.07-0.53,1.24-0.99,1.78-1.07
		c0.3-0.04,0.62-0.04,0.89,0.03c0.22,0.05,0.39,0.15,0.46,0.27c0.14,0.43,0.3,0.84,0.5,1.21c0.2,0.37,0.44,0.68,0.73,0.91l0.11,0.09
		l0.05-0.12c0.03-0.07,0.05-0.15,0.08-0.21c0.15-0.4,0.31-0.83,0.71-1.02c0.26-0.13,0.7-0.07,0.83-0.04
		c0.01,0.04,0.04,0.12-0.01,0.19v0.01c-0.11,0.16-0.27,0.36-0.41,0.55c-0.17,0.23-0.33,0.42-0.37,0.52
		c-0.01,0.03-0.03,0.06-0.04,0.08c-0.07,0.13-0.12,0.22-0.02,0.38l0.07,0.04c0.3,0.07,0.63,0.1,1,0.09
		c0.37-0.01,0.78-0.07,1.25-0.17l0.1-0.02l-0.03-0.1c-0.03-0.12-0.06-0.25-0.09-0.37c-0.09-0.34-0.17-0.64-0.19-0.91
		c-0.04-0.31,0.44-0.53,0.44-0.53l0.01-0.01c0.09-0.07,0.74-0.19,1.23-0.28c0.18-0.04,0.33-0.07,0.45-0.09
		c0.16-0.04,0.61-0.1,1.13-0.17c0.78-0.1,1.71-0.22,2.01-0.25c0.09,0.06,0.44,0.28,0.96,0.77l0.05,0.04l0.06-0.02
		c0.39-0.15,0.94-0.26,1.41-0.3c0.37-0.04,0.68-0.02,0.79,0.06c0.06,0.23,0.07,0.51,0.06,0.81c-0.02,0.36-0.09,0.73-0.17,1.08v0.05
		c0.09,0.31,0.82,0.16,0.82,0.16l0.06-0.01l0.02-0.05c0,0,0.2-0.58,0.39-2.12c0.07-0.6,0.09-1.16,0.11-1.71
		c0.01-0.54,0-1.06-0.01-1.57l0.02-0.27c0.01-0.32,0.49-0.55,1.01-0.7c0.54-0.17,1.15-0.25,1.38-0.28c0.24-0.04,0.48-0.06,0.68-0.07
		c0.11-0.01,0.21-0.02,0.28-0.03c0.04,0.1,0.09,0.21,0.13,0.31c0.05,0.12,0.1,0.23,0.14,0.34c-0.22,0.01-0.49,0.04-0.74,0.09
		c-0.29,0.06-0.57,0.14-0.75,0.23l-0.15,0.07l0.12,0.1c0.19,0.16,0.35,0.43,0.46,0.73c0.17,0.44,0.27,0.93,0.3,1.22v-0.01
		c0.01,0.09,0.01,0.18,0.02,0.27c0.03,0.44,0.07,0.97,0.15,1.3c0.12,0.51,0.23,0.91,0.35,1.27c0.12,0.36,0.25,0.65,0.42,0.94
		l0.02,0.04l0.04,0.01c0.07,0.01,0.15,0.03,0.2,0.05c0.46,0.15,0.69,0.51,0.79,0.92c0.12,0.42,0.09,0.89,0.02,1.26
		c-0.03,0.15-0.06,0.28-0.09,0.37l-0.02,0.05l0.03,0.04c0.1,0.15,0.41,0.32,0.41,0.32l0.06,0.04l0.05-0.04
		c0-0.01,1.23-0.87,0.28-3.09l-0.03-0.04c-0.46-0.41-0.51-0.78-0.44-1.06c0.07-0.28,0.27-0.48,0.32-0.52l0.01-0.01l0.61-0.75
		l0.01-0.03c0.1-0.31,0.01-0.43-0.11-0.57c-0.08-0.09-0.17-0.2-0.17-0.44c0.05-0.16,0.27-0.34,0.46-0.49
		c0.09-0.07,0.17-0.14,0.23-0.2c0.24,0.32,0.45,1.13,0.57,1.59c0.04,0.12,0.06,0.21,0.07,0.27l0.01,0.03c0,0,0.56,0.91,0.75,0.78
		l0.04-0.03l0.01-0.04c0.07-0.52,0.11-0.94,0.11-1.33c0-0.38-0.04-0.75-0.12-1.18v-0.02h-0.01c0,0,0.01-0.01,0.03-0.01
		c0.04-0.01,0.08-0.01,0.14,0c0.2,0.03,0.49,0.16,0.74,0.45L87.09,84c0-0.94-0.12-1.92-0.4-2.66c-0.23-0.62-0.59-1.07-1.08-1.15
		c-0.09-0.01-0.1-0.04-0.09-0.07c0.01-0.03,0.01-0.06,0.01-0.09c0.01-0.02,0.01-0.04,0.01-0.06c0.04-0.18,0.12-0.44,0.23-0.75
		c0.12-0.33,0.26-0.69,0.41-1.05c0.2-0.49,0.17-0.99,0.17-0.99l-0.01-0.08l-0.08-0.01c0,0-0.34-0.07-0.44-0.42
		c-0.11-0.42-0.02-0.82,0.07-1.27c0.04-0.15,0.07-0.31,0.09-0.46c0.07-0.36,0.08-0.61,0.06-0.78c-0.02-0.19-0.08-0.3-0.15-0.4
		l-0.11-0.14l-0.07,0.16c-0.49,1.13-2.31,1.75-2.32,1.75l-0.06,0.02l-0.01,0.07l-0.11,1.21l-1.15-0.46l-0.12-0.04l-0.02,0.12
		c0,0.01-0.25,1.45-0.25,1.86c0,0.08-0.04,0.15-0.09,0.21C81.35,78.55,78.58,79,78.48,79c-0.33,0.01-0.77,0.05-1.22,0.09
		c-0.49,0.04-0.98,0.08-1.36,0.09c-1.52-0.06-2.93-0.04-4.11,0.03c-1.18,0.08-2.16,0.22-2.85,0.42c-0.57,0.17-0.97,0.36-1.28,0.49
		c-0.28,0.13-0.49,0.22-0.64,0.22c-0.11,0-0.23-0.03-0.36-0.09c-0.11-0.07-0.21-0.15-0.3-0.28l-0.04-0.06L66.26,79.92z M60.93,82.23
		l-0.13-0.06c0,0-0.68-0.31-1.1-0.49l-0.09-0.03l0.02-0.09c0.09-0.34,0.16-0.82,0.2-1.29c0.04-0.42,0.04-0.83,0.01-1.1L60,79.09
		c0.22,0.17,0.4,0.33,0.54,0.52c0.15,0.2,0.26,0.43,0.35,0.74c0.17,0.6,0.05,1.73,0.05,1.74L60.93,82.23z M72.61,77.98h-0.09
		l-3.06,0.15l-0.16,0.01l0.07-0.15c0.06-0.13,0.17-0.29,0.31-0.44c0.14-0.16,0.3-0.31,0.41-0.39l0.04-0.01
		c0.21-0.04,0.61-0.15,1.05-0.26c0.44-0.12,0.94-0.25,1.35-0.33l0.12-0.03v0.13l-0.02,1.23L72.61,77.98z M48.51,85.2
		c-0.39,0.1-0.76,0.25-1.06,0.46c-0.33,0.23-0.55,0.55-0.59,0.98c0.51-0.36,0.9-0.74,1.33-1.14C48.29,85.4,48.4,85.3,48.51,85.2
		 M53.01,85.25l-0.01,0.01c-0.53,0.14-1.21,0.72-1.85,1.26c-0.43,0.36-0.84,0.71-1.19,0.91c0.04,0.04,0.09,0.09,0.12,0.07l0.02-0.01
		c0.44-0.12,1.05-0.52,1.71-0.95c0.06-0.04,0.11-0.07,0.16-0.1c0.46-0.32,1.02-0.58,1.63-0.77c0.57-0.19,1.18-0.31,1.75-0.36
		c-0.05-0.08-0.12-0.17-0.2-0.2c-0.21-0.03-0.71-0.04-1.21-0.01C53.57,85.12,53.22,85.17,53.01,85.25 M43.91,90.64l-0.43-2.85
		c-0.19,0.06-0.41,0.15-0.62,0.25c-0.25,0.11-0.49,0.23-0.65,0.33L43.91,90.64z M52.51,98.78c-0.01,0.01-0.01,0.01-0.03,0.02
		c-0.21,0.11-0.52,0.15-0.82,0.1c-0.3-0.04-0.6-0.16-0.77-0.36c-0.04-0.04-0.07-0.09-0.09-0.13c-0.11-0.2-0.14-0.62-0.17-1.04
		c-0.04-0.5-0.07-0.98-0.25-1.12c-0.36-0.25-0.68-0.6-0.96-0.97c-0.27-0.34-0.49-0.69-0.68-0.99c0.15-0.28,0.31-0.57,0.49-0.85
		c0.2-0.33,0.42-0.64,0.6-0.87l0.07-0.09l-0.09-0.06c-0.41-0.29-0.93-0.7-1.31-1.13c-0.25-0.29-0.46-0.58-0.52-0.84
		c0.11-0.08,0.2-0.19,0.3-0.29c0.19-0.22,0.38-0.44,0.68-0.37c0.22,0.07,0.42,0.21,0.62,0.34c0.46,0.31,0.89,0.6,1.52,0.15
		l0.03-0.04c0.09-0.17,0.05-0.31,0.02-0.44c-0.02-0.09-0.04-0.19-0.01-0.28c0.07-0.18,0.25-0.44,0.6-0.73
		c0.26-0.21,0.61-0.43,1.07-0.63c0.41-0.02,0.8-0.08,1.18-0.14c0.5-0.07,1-0.15,1.54-0.14c0.14,0.01,0.31-0.03,0.49-0.06
		c0.31-0.06,0.65-0.12,0.83-0.01c0.04,0.04,0.12,0.07,0.19,0.09c0.08,0.03,0.16,0.07,0.2,0.11c0.04,0.03,0.04,0.07-0.02,0.15
		c-0.18,0.22-0.27,0.33-0.31,0.43c-0.05,0.12-0.01,0.18,0.05,0.28c0.15,0.22,0.78,0.28,1.24,0.32c0.2,0.02,0.36,0.04,0.44,0.06h0.03
		c0.38-0.01,0.44-0.69,0.49-1.21c0.01-0.07,0.01-0.14,0.02-0.21c0.01-0.01,0.01-0.01,0.02-0.01c0.07-0.04,0.18-0.07,0.29-0.08
		c0.1,0,0.2,0.01,0.23,0.04c0.03,0.05,0.08,0.17,0.09,0.52c0.01,0.37-0.04,0.98-0.22,1.97c-0.13,0.76-0.53,1.4-1.05,1.94
		c-0.52,0.55-1.17,1-1.79,1.39h-0.01c-0.6,0.46-0.49,0.86-0.39,1.21c0.03,0.09,0.05,0.18,0.06,0.26c-0.97,0.72-2.56,2.28-3.37,3.11
		c-0.17,0.18-0.31,0.33-0.4,0.42c-0.05,0.05-0.09,0.09-0.12,0.14C52.51,98.78,52.51,98.78,52.51,98.78 M59.94,93.94
		c-0.03,0.34-0.01,0.68,0.03,0.99c0.04,0.36,0.12,0.67,0.18,0.87c-0.09,0.01-0.2,0.04-0.3,0.07c-0.37,0.1-0.75,0.2-0.98-0.09
		c-0.17-0.36-0.16-0.78-0.01-1.19c0.15-0.39,0.43-0.76,0.83-1.02c0.01-0.01,0.03-0.01,0.04-0.01c0.03,0.01,0.06,0.02,0.09,0.04
		c0.04,0.03,0.07,0.07,0.09,0.12C59.93,93.79,59.95,93.87,59.94,93.94L59.94,93.94z M44.02,86.34l1.43-0.24l-0.08-0.45l-1.43,0.25
		L44.02,86.34z M69.35,83.35c0.47-0.08,1.43-0.23,1.92-0.22c0.44,0.02,0.83,0.11,1.2,0.24c0.36,0.12,0.68,0.28,0.98,0.46
		c0.09,0.02,0.73,0.22,1.05,0.3c0.02,0.01,0.09-0.02,0.17-0.06c0.07-0.04,0.15-0.08,0.22-0.12c-0.15-0.06-0.36-0.13-0.55-0.21
		c-0.23-0.1-0.45-0.2-0.57-0.28c-0.27-0.18-0.6-0.38-0.92-0.54c-0.28-0.14-0.54-0.24-0.76-0.29c-0.17-0.04-0.41-0.05-0.68-0.04
		c-0.28,0-0.59,0.03-0.85,0.07c-0.22,0.04-0.49,0.17-0.74,0.33C69.63,83.1,69.47,83.23,69.35,83.35 M71.58,81.17h0.25
		c0.33-0.01,0.82-0.02,1.32,0.09c0.38,0.08,0.73,0.19,1.05,0.36c0.33,0.16,0.64,0.39,0.94,0.71c0.12,0.13,0.33,0.22,0.52,0.25
		c0.08,0.01,0.16,0.01,0.22,0.01c0.04-0.01,0.07-0.02,0.09-0.04c0.01-0.01,0.01-0.02,0.01-0.04c-0.04-0.33-0.21-0.67-0.44-0.94
		c-0.25-0.3-0.55-0.52-0.84-0.6c-0.5-0.15-1.12-0.18-1.7-0.14C72.43,80.86,71.91,80.98,71.58,81.17 M71.5,81.17
		C71.48,81.16,71.48,81.16,71.5,81.17L71.5,81.17z M55.18,113.88c-0.01,0.01-0.03,0.03-0.04,0.05c-0.02,0.03-0.04,0.07-0.05,0.11
		c-0.04,0.12-0.04,0.27,0.04,0.34c0.33,0.3,0.87,0.67,1.43,1c0.59,0.35,1.21,0.67,1.6,0.85c-0.17-0.15-0.38-0.34-0.6-0.53
		c-0.38-0.33-0.81-0.65-1.47-1.15C55.84,114.37,55.54,114.15,55.18,113.88 M85.36,81.06L85.36,81.06c0.01,0.09,0,0.16-0.04,0.22
		c-0.04,0.07-0.12,0.11-0.23,0.09h0.01c-0.23-0.01-0.5,0.05-0.75,0.16c-0.25,0.11-0.46,0.26-0.6,0.44
		c-0.07,0.09-0.15,0.13-0.23,0.14c-0.06,0.01-0.11,0-0.16-0.02c-0.04-0.02-0.08-0.06-0.11-0.1c-0.05-0.07-0.07-0.15-0.05-0.24v0.01
		c0.05-0.28,0.2-0.56,0.43-0.81c0.21-0.23,0.49-0.42,0.81-0.54c0.03-0.01,0.07-0.01,0.09-0.02c0.15-0.02,0.31,0.03,0.46,0.12
		c0.14,0.09,0.25,0.23,0.31,0.41C85.34,80.96,85.35,81.01,85.36,81.06 M52.94,101.95c-0.16-0.02-0.33-0.02-0.52,0
		c-0.44,0.05-0.93,0.22-1.33,0.46c-0.39,0.23-0.69,0.54-0.76,0.86c-0.01,0.07-0.02,0.15-0.01,0.22c0.22,1.13,0.59,2.03,0.97,2.73
		c0.38,0.7,0.78,1.22,1.07,1.58c0.28,0.38,0.56,0.86,0.74,1.3c0.17,0.4,0.26,0.76,0.25,1c0.54,0.4,1.25,0.7,1.94,0.94
		c1.26,0.43,2.49,0.6,2.74,0.62c0.06,0.01,0.12-0.01,0.17-0.06c0.04-0.04,0.08-0.09,0.11-0.15c-0.11-0.15-0.25-0.44-0.4-0.77
		c-0.15-0.33-0.29-0.71-0.38-1.02c-0.12-0.44-0.46-1.06-0.69-1.48c-0.06-0.11-0.11-0.2-0.15-0.28c-0.25,0.12-0.32,0.44-0.39,0.78
		c-0.06,0.27-0.12,0.55-0.26,0.79c-0.12,0.18-0.28,0.27-0.47,0.29c-0.13,0.01-0.28,0-0.41-0.04c-0.14-0.04-0.27-0.1-0.38-0.18
		c-0.21-0.13-0.36-0.31-0.38-0.48c-0.01-0.03-0.01-0.1-0.03-0.2c-0.09-0.65-0.33-2.37-0.67-3.1c-0.22-0.48-0.48-1.25-0.63-2.07
		C52.93,103.11,52.88,102.5,52.94,101.95 M78.04,80.39l-0.07-0.36l-1.25,0.2l0.07,0.38L78.04,80.39z M69.45,102.73L69.45,102.73
		L69.45,102.73z M62.89,103.81L62.89,103.81c-0.06,0.01-0.15,0.04-0.23,0.07c0.03,0.01,0.06,0.01,0.09,0.01
		c1.23,0.12,2.79-0.09,4.19-0.28c0.2-0.02,0.39-0.05,0.6-0.07c0.39-0.05,0.74-0.14,1.03-0.23c0.3-0.09,0.53-0.21,0.66-0.33
		c0.09-0.08,0.17-0.17,0.2-0.25c-0.06-0.01-0.17,0.02-0.36,0.08v0.01c-0.29,0.09-1.16,0.25-2.18,0.42
		C65.41,103.48,63.61,103.73,62.89,103.81 M55.18,80.06l-0.04,0.7l-0.01,0.12l-0.12-0.02c-0.68-0.12-1.34-0.12-1.87-0.13
		c-0.23,0-0.45,0-0.62-0.01c-0.12,0.01-0.2-0.01-0.24-0.07c-0.05-0.06-0.05-0.13-0.04-0.23V80.4c0.05-0.17,0.13-0.39,0.21-0.59
		c0.09-0.2,0.17-0.38,0.25-0.49l0.03-0.02c0.08-0.06,0.15-0.08,0.25-0.09c0.08-0.01,0.17,0,0.28,0.01h0.01
		c0.32,0.09,0.78,0.23,1.18,0.4c0.3,0.12,0.55,0.26,0.69,0.4L55.18,80.06z M56.81,67.81L56.75,68c-0.52-0.07-1.2-0.02-1.58,0.01
		h-0.08l-0.05,0.01L55,67.97l-1.05-1.29l-0.09-0.11L54,66.51c0.6-0.22,1.66,0.5,2.4,1.02C56.54,67.63,56.69,67.73,56.81,67.81"/>
</g>
</svg>
