<?xml version="1.0" encoding="utf-8"?>
<!-- Generator: Adobe Illustrator 28.0.0, SVG Export Plug-In . SVG Version: 6.00 Build 0)  -->
<svg version="1.1" id="Layer_1" xmlns="http://www.w3.org/2000/svg" xmlns:xlink="http://www.w3.org/1999/xlink" x="0px" y="0px"
	 viewBox="0 0 198.43 198.43" style="enable-background:new 0 0 198.43 198.43;" xml:space="preserve">
<style type="text/css">
	.st0{fill:#131E29;}
</style>
<g>
	<path class="st0" d="M111.24,112.82c0,0.28,0.08,0.44,0.25,0.44c0.12,0,0.23-0.05,0.36-0.14l46.72-30.34
		c0.82-0.54,1.57-0.82,2.69-0.82l10.27,0c1.58,0,2.63,1.05,2.63,2.63v19.6c0,2.37-0.53,3.74-2.63,5l-12.45,7.48
		c-0.17,0.1-0.3,0.15-0.42,0.15c-0.15,0-0.29-0.12-0.29-0.54l0-22.88c0-0.25-0.08-0.44-0.25-0.44c-0.12,0-0.22,0.05-0.36,0.13
		l-34.16,22.18c-0.96,0.62-1.74,0.81-2.62,0.81H98.33c-1.58,0-2.63-1.05-2.63-2.63V85.21c0-0.21-0.09-0.4-0.25-0.4
		c-0.12,0-0.22,0.05-0.37,0.14L72.56,98.48c-0.23,0.14-0.29,0.25-0.29,0.36c0,0.1,0.04,0.19,0.2,0.35l16.09,16.09
		c0.21,0.21,0.36,0.38,0.36,0.55c0,0.19-0.24,0.28-0.51,0.28H73.85c-1.14,0-2.02-0.17-2.63-0.79l-9.76-9.76
		c-0.1-0.09-0.18-0.15-0.28-0.15c-0.09,0-0.2,0.04-0.3,0.1l-16.32,9.81c-0.99,0.59-1.67,0.79-2.64,0.79H26.9
		c-1.58,0-2.63-1.05-2.63-2.63V94.22c0-2.37,0.53-3.73,2.63-4.99l12.53-7.53c0.13-0.08,0.24-0.11,0.34-0.11
		c0.19,0,0.29,0.2,0.29,0.63l0,25.73c0,0.27,0.07,0.4,0.25,0.4c0.12,0,0.23-0.07,0.37-0.16l42.34-25.44
		c1.01-0.61,1.63-0.79,2.79-0.79l22.78,0c1.58,0,2.63,1.05,2.63,2.63V112.82z"/>
</g>
</svg>
