<?xml version="1.0" encoding="utf-8"?>
<!-- Generator: Adobe Illustrator 28.0.0, SVG Export Plug-In . SVG Version: 6.00 Build 0)  -->
<svg version="1.1" id="Layer_1" xmlns="http://www.w3.org/2000/svg" xmlns:xlink="http://www.w3.org/1999/xlink" x="0px" y="0px"
	 viewBox="0 0 200 200" style="enable-background:new 0 0 200 200;" xml:space="preserve">
<style type="text/css">
	.st0{fill:#05141F;}
</style>
<g>
	<path class="st0" d="M112.1,113.6c0,0.3,0.1,0.4,0.3,0.4c0.1,0,0.2-0.1,0.4-0.1l46.7-30.4c0.8-0.5,1.6-0.8,2.7-0.8h10.3
		c1.6,0,2.6,1.1,2.6,2.6V105c0,2.4-0.5,3.7-2.6,5l-12.5,7.5c-0.2,0.1-0.3,0.2-0.4,0.2c-0.2,0-0.3-0.1-0.3-0.5V94.2
		c0-0.3-0.1-0.4-0.3-0.4c-0.1,0-0.2,0.1-0.4,0.1l-34.2,22.2c-1,0.6-1.7,0.8-2.6,0.8H99.2c-1.6,0-2.6-1.1-2.6-2.6V86
		c0-0.2-0.1-0.4-0.3-0.4c-0.1,0-0.2,0.1-0.4,0.1L73.4,99.3c-0.2,0.1-0.3,0.3-0.3,0.4c0,0.1,0,0.2,0.2,0.3l16.1,16.1
		c0.2,0.2,0.4,0.4,0.4,0.5c0,0.2-0.2,0.3-0.5,0.3H74.7c-1.1,0-2-0.2-2.6-0.8l-9.8-9.8c-0.1-0.1-0.2-0.2-0.3-0.2
		c-0.1,0-0.2,0.1-0.3,0.1l-16.3,9.8c-1,0.6-1.7,0.8-2.6,0.8h-15c-1.6,0-2.6-1.1-2.6-2.6V95c0-2.4,0.5-3.7,2.6-5l12.5-7.5
		c0.1-0.1,0.2-0.1,0.3-0.1c0.2,0,0.3,0.2,0.3,0.6v25.7c0,0.3,0.1,0.4,0.3,0.4c0.1,0,0.2-0.1,0.4-0.2l42.3-25.4
		c1-0.6,1.6-0.8,2.8-0.8h22.8c1.6,0,2.6,1.1,2.6,2.6L112.1,113.6L112.1,113.6z"/>
</g>
</svg>
