<?xml version="1.0" encoding="utf-8"?>
<!-- Generator: Adobe Illustrator 28.0.0, SVG Export Plug-In . SVG Version: 6.00 Build 0)  -->
<svg version="1.1" id="Layer_1" xmlns="http://www.w3.org/2000/svg" xmlns:xlink="http://www.w3.org/1999/xlink" x="0px" y="0px"
	 viewBox="0 0 198.43 198.43" style="enable-background:new 0 0 198.43 198.43;" xml:space="preserve">
<style type="text/css">
	.st0{fill-rule:evenodd;clip-rule:evenodd;fill:#E63630;}
	.st1{fill-rule:evenodd;clip-rule:evenodd;fill:#396098;}
	.st2{fill:#396098;}
</style>
<g>
	<path class="st0" d="M120.61,87.73l0.01,0.01c1.77,0.8,2.61,3.05,1.88,5l-8.91,23.84c-0.06,0.15-0.12,0.29-0.19,0.43
		c-0.08,0.38-0.23,0.75-0.44,1.08c-0.32,1.38-1.86,2.67-3.51,2.82v0.07l-1.93-0.01c-0.2,0.03-0.4,0.04-0.61,0.04l-78.18-0.26
		c-1.95-0.01-3.55-1.38-3.54-3.04v-0.02c0.01-1.67,1.61-3.03,3.56-3.02l77.02,0.26l-7.01-23.29c-0.26-0.88-0.13-1.83,0.31-2.54
		c0.6-1.03,1.79-1.73,3.14-1.73c0.83,0,1.59,0.27,2.2,0.71c0.4,0.23,0.72,0.55,0.89,0.97c0.26,0.43,0.42,0.93,0.45,1.46l4.5,14.89
		l5.82-15.58C116.8,87.87,118.84,86.93,120.61,87.73"/>
	<path class="st0" d="M120.61,87.73l0.01,0.01c1.77,0.8,2.61,3.05,1.88,5l-8.91,23.84c-0.06,0.15-0.12,0.29-0.19,0.43
		c-0.08,0.38-0.23,0.75-0.44,1.08c-0.32,1.38-1.86,2.67-3.51,2.82v0.07l-1.93-0.01c-0.2,0.03-0.4,0.04-0.61,0.04l-78.18-0.26
		c-1.95-0.01-3.55-1.38-3.54-3.04v-0.02c0.01-1.67,1.61-3.03,3.56-3.02l77.02,0.26l-7.01-23.29c-0.26-0.88-0.13-1.83,0.31-2.54
		c0.6-1.03,1.79-1.73,3.14-1.73c0.83,0,1.59,0.27,2.2,0.71c0.4,0.23,0.72,0.55,0.89,0.97c0.26,0.43,0.42,0.93,0.45,1.46l4.5,14.89
		l5.82-15.58C116.8,87.87,118.84,86.93,120.61,87.73"/>
	<path class="st1" d="M24.26,130.95v0.01c-0.01,2,1.26,3,3.79,3.01l140.25,0.46c2.54,0.01,3.81-0.99,3.82-2.99v-0.01
		c0.01-2-1.26-3-3.79-3.01l-140.25-0.46C25.54,127.96,24.27,128.95,24.26,130.95"/>
	<path class="st1" d="M24.26,130.95v0.01c-0.01,2,1.26,3,3.79,3.01l140.25,0.46c2.54,0.01,3.81-0.99,3.82-2.99v-0.01
		c0.01-2-1.26-3-3.79-3.01l-140.25-0.46C25.54,127.96,24.27,128.95,24.26,130.95"/>
	<path class="st1" d="M126.54,86.59l0.01,0c1.6-0.54,3.34,0.35,3.88,1.96l4.12,12.53l5.13-12.43c0.24-0.58,0.64-1.05,1.13-1.38
		c0.31-0.28,0.67-0.5,1.09-0.63l0.01,0c1.6-0.53,3.34,0.34,3.88,1.94l3.86,11.59c0.15,0.03,0.29,0.09,0.43,0.15l4.95-11.99
		c0.64-1.56,2.44-2.31,4-1.66l0.01,0c1.56,0.64,2.31,2.44,1.67,4l-7.86,19.05c-0.24,0.59-0.65,1.06-1.15,1.39
		c-0.35,0.4-0.8,0.71-1.34,0.89l-0.01,0c-1.6,0.53-3.34-0.34-3.88-1.94l-4.01-12.04l-4.96,12.01c-0.26,0.64-0.72,1.14-1.28,1.47
		c-0.33,0.35-0.75,0.62-1.23,0.78l-0.01,0c-1.6,0.54-3.34-0.35-3.88-1.96l-6.51-19.81C124.07,88.89,124.94,87.13,126.54,86.59"/>
	<path class="st1" d="M126.54,86.59l0.01,0c1.6-0.54,3.34,0.35,3.88,1.96l4.12,12.53l5.13-12.43c0.24-0.58,0.64-1.05,1.13-1.38
		c0.31-0.28,0.67-0.5,1.09-0.63l0.01,0c1.6-0.53,3.34,0.34,3.88,1.94l3.86,11.59c0.15,0.03,0.29,0.09,0.43,0.15l4.95-11.99
		c0.64-1.56,2.44-2.31,4-1.66l0.01,0c1.56,0.64,2.31,2.44,1.67,4l-7.86,19.05c-0.24,0.59-0.65,1.06-1.15,1.39
		c-0.35,0.4-0.8,0.71-1.34,0.89l-0.01,0c-1.6,0.53-3.34-0.34-3.88-1.94l-4.01-12.04l-4.96,12.01c-0.26,0.64-0.72,1.14-1.28,1.47
		c-0.33,0.35-0.75,0.62-1.23,0.78l-0.01,0c-1.6,0.54-3.34-0.35-3.88-1.96l-6.51-19.81C124.07,88.89,124.94,87.13,126.54,86.59"/>
	<path class="st1" d="M172.14,118.22L172.14,118.22c-0.01,2.03-1.03,3.04-3.06,3.03l-45.2-0.15c-2.03-0.01-3.05-1.02-3.04-3.05
		c0.01-2.03,1.03-3.04,3.06-3.03l45.2,0.15C171.13,115.17,172.14,116.19,172.14,118.22"/>
	<path class="st1" d="M172.14,118.22L172.14,118.22c-0.01,2.03-1.03,3.04-3.06,3.03l-45.2-0.15c-2.03-0.01-3.05-1.02-3.04-3.05
		c0.01-2.03,1.03-3.04,3.06-3.03l45.2,0.15C171.13,115.17,172.14,116.19,172.14,118.22"/>
	<path class="st1" d="M164.87,88.83l-0.08,20.44c-0.01,2.03,1.02,3.04,3.09,3.05h0.01c2.07,0.01,3.11-1,3.12-3.03l0.08-20.44
		c0.01-2.03-1.02-3.04-3.09-3.05h-0.01C165.92,85.8,164.88,86.81,164.87,88.83"/>
	<path class="st1" d="M164.87,88.83l-0.08,20.44c-0.01,2.03,1.02,3.04,3.09,3.05h0.01c2.07,0.01,3.11-1,3.12-3.03l0.08-20.44
		c0.01-2.03-1.02-3.04-3.09-3.05h-0.01C165.92,85.8,164.88,86.81,164.87,88.83"/>
	<polygon class="st0" points="165.59,81.13 161.99,78.59 166.55,78.35 168.13,74.3 169.64,78.37 174.16,78.61 170.61,81.15 
		171.95,85.21 168.1,82.87 164.38,85.18 	"/>
	<polygon class="st0" points="165.59,81.13 161.99,78.59 166.55,78.35 168.13,74.3 169.64,78.37 174.16,78.61 170.61,81.15 
		171.95,85.21 168.1,82.87 164.38,85.18 	"/>
	<path class="st1" d="M98.35,97.42l-0.12,12.56c0,0.05,0.01,0.11,0,0.16c-0.01,1.37-1.22,2.48-2.7,2.46c-0.1,0-0.21-0.01-0.31-0.02
		l-0.04,0.03l-12.85-0.02c-1.38,0.34-3.11-0.44-3.11-0.82v-0.01c-1.04-0.98-0.96-2.6,0.18-3.62l1.53-1.39l-16-11.47L65,82.85
		l12.77-11.91l-2.58-2.44c-1.1-1.04-1.14-2.66-0.09-3.62l0.01-0.01c0.67-0.61,1.63-0.8,2.53-0.59l13.61,0.05l0.01,0.01
		c0.03,0,0.06,0,0.09,0c1.47,0.01,2.67,1.13,2.67,2.49c0,0.1-0.01,0.19-0.02,0.29l0.02,0.02l-0.05,13.04c0,0.07,0,0.13,0,0.2l0,0.43
		l-0.05-0.05c-0.1,0.45-0.33,0.88-0.7,1.22l-0.01,0.01c-1.04,0.95-2.79,0.88-3.89-0.15l-2.41-2.28l-9.3,8.86l13.31,9.31l2.93-2.65
		c1.12-1.02,2.87-1.05,3.91-0.07v0.01c0,0.22,0.67,0.65,0.61,1.19C98.32,96.55,98.45,96.93,98.35,97.42 M34.04,64l19.84,0.07
		c4.51,0.01,8.2,3.36,8.18,7.44l-0.12,33.58c-0.02,4.08-3.72,7.4-8.24,7.39l-19.84-0.07c-4.51-0.02-8.2-3.36-8.18-7.44l0.12-33.58
		C25.82,67.3,29.52,63.98,34.04,64"/>
	<path class="st1" d="M98.35,97.42l-0.12,12.56c0,0.05,0.01,0.11,0,0.16c-0.01,1.37-1.22,2.48-2.7,2.46c-0.1,0-0.21-0.01-0.31-0.02
		l-0.04,0.03l-12.85-0.02c-1.38,0.34-3.11-0.44-3.11-0.82v-0.01c-1.04-0.98-0.96-2.6,0.18-3.62l1.53-1.39l-16-11.47L65,82.85
		l12.77-11.91l-2.58-2.44c-1.1-1.04-1.14-2.66-0.09-3.62l0.01-0.01c0.67-0.61,1.63-0.8,2.53-0.59l13.61,0.05l0.01,0.01
		c0.03,0,0.06,0,0.09,0c1.47,0.01,2.67,1.13,2.67,2.49c0,0.1-0.01,0.19-0.02,0.29l0.02,0.02l-0.05,13.04c0,0.07,0,0.13,0,0.2l0,0.43
		l-0.05-0.05c-0.1,0.45-0.33,0.88-0.7,1.22l-0.01,0.01c-1.04,0.95-2.79,0.88-3.89-0.15l-2.41-2.28l-9.3,8.86l13.31,9.31l2.93-2.65
		c1.12-1.02,2.87-1.05,3.91-0.07v0.01c0,0.22,0.67,0.65,0.61,1.19C98.32,96.55,98.45,96.93,98.35,97.42 M34.04,64l19.84,0.07
		c4.51,0.01,8.2,3.36,8.18,7.44l-0.12,33.58c-0.02,4.08-3.72,7.4-8.24,7.39l-19.84-0.07c-4.51-0.02-8.2-3.36-8.18-7.44l0.12-33.58
		C25.82,67.3,29.52,63.98,34.04,64"/>
	<path class="st2" d="M28.66,125.35l0.92-0.05c0.04,0.23,0.14,0.42,0.3,0.57c0.16,0.15,0.4,0.27,0.74,0.36
		c0.33,0.09,0.71,0.14,1.13,0.14c0.37,0,0.7-0.03,0.98-0.1c0.28-0.07,0.5-0.16,0.63-0.28c0.14-0.12,0.21-0.25,0.21-0.39
		c0-0.14-0.07-0.27-0.2-0.38c-0.13-0.11-0.35-0.2-0.66-0.27c-0.2-0.05-0.63-0.12-1.31-0.23c-0.67-0.1-1.15-0.2-1.42-0.29
		c-0.35-0.12-0.61-0.26-0.78-0.43c-0.17-0.17-0.26-0.36-0.26-0.57c0-0.23,0.11-0.45,0.32-0.65c0.21-0.2,0.52-0.35,0.92-0.46
		c0.4-0.1,0.85-0.15,1.35-0.15c0.54,0,1.02,0.06,1.44,0.17c0.41,0.11,0.73,0.27,0.96,0.49c0.22,0.21,0.34,0.45,0.36,0.72l-0.93,0.04
		c-0.05-0.29-0.22-0.51-0.51-0.66c-0.29-0.15-0.71-0.22-1.28-0.23c-0.59,0-1.02,0.06-1.28,0.2c-0.27,0.13-0.4,0.3-0.4,0.49
		c0,0.16,0.09,0.3,0.28,0.41c0.19,0.11,0.67,0.22,1.46,0.33c0.79,0.11,1.33,0.21,1.62,0.3c0.43,0.12,0.74,0.28,0.94,0.47
		c0.2,0.19,0.3,0.41,0.3,0.65c0,0.24-0.11,0.47-0.34,0.69c-0.22,0.21-0.55,0.38-0.97,0.5c-0.42,0.12-0.89,0.18-1.41,0.18
		c-0.66,0-1.22-0.06-1.67-0.19c-0.45-0.12-0.8-0.31-1.05-0.55C28.81,125.93,28.67,125.66,28.66,125.35"/>
	<path class="st2" d="M40.64,122.28l0.97,0l-0.01,2.65c0,0.46-0.09,0.83-0.25,1.1c-0.17,0.27-0.47,0.49-0.91,0.66
		c-0.44,0.17-1.01,0.25-1.72,0.25c-0.69,0-1.25-0.08-1.69-0.23c-0.44-0.15-0.75-0.36-0.93-0.65c-0.19-0.28-0.28-0.66-0.28-1.15
		l0.01-2.65l0.97,0l-0.01,2.65c0,0.4,0.06,0.69,0.17,0.88c0.12,0.19,0.32,0.34,0.61,0.44c0.29,0.1,0.64,0.16,1.06,0.16
		c0.71,0,1.22-0.1,1.53-0.3c0.3-0.2,0.46-0.59,0.46-1.17L40.64,122.28z"/>
	<path class="st2" d="M43.21,126.87l0.02-4.59l2.77,0.01c0.49,0,0.86,0.02,1.12,0.05c0.36,0.04,0.66,0.11,0.91,0.22
		c0.24,0.11,0.44,0.25,0.59,0.44c0.15,0.19,0.22,0.4,0.22,0.63c0,0.39-0.2,0.72-0.6,0.99c-0.4,0.27-1.12,0.4-2.15,0.4l-1.88-0.01
		l-0.01,1.86L43.21,126.87z M44.19,124.47l1.9,0.01c0.63,0,1.07-0.07,1.34-0.21c0.26-0.15,0.4-0.35,0.4-0.62
		c0-0.19-0.08-0.36-0.23-0.49c-0.15-0.14-0.36-0.23-0.61-0.27c-0.16-0.03-0.47-0.04-0.91-0.04l-1.88-0.01L44.19,124.47z"/>
	<polygon class="st2" points="50.06,126.89 50.07,122.31 55.38,122.33 55.38,122.87 51.04,122.85 51.04,124.26 55.1,124.27 
		55.1,124.81 51.04,124.79 51.03,126.36 55.53,126.37 55.53,126.91 	"/>
	<path class="st2" d="M56.88,126.92l0.02-4.59l3.25,0.01c0.65,0,1.15,0.05,1.49,0.13c0.34,0.08,0.61,0.23,0.81,0.44
		c0.2,0.21,0.3,0.44,0.3,0.69c0,0.33-0.17,0.6-0.51,0.82c-0.34,0.22-0.86,0.36-1.56,0.42c0.26,0.08,0.45,0.15,0.58,0.23
		c0.28,0.16,0.55,0.37,0.8,0.61l1.27,1.25l-1.22,0l-0.97-0.96c-0.28-0.28-0.52-0.49-0.7-0.63c-0.18-0.15-0.35-0.25-0.49-0.31
		c-0.14-0.06-0.29-0.1-0.44-0.12c-0.11-0.01-0.29-0.02-0.54-0.02l-1.13,0l-0.01,2.04L56.88,126.92z M57.86,124.36l2.09,0.01
		c0.44,0,0.79-0.03,1.04-0.08c0.25-0.06,0.44-0.15,0.57-0.27c0.13-0.13,0.2-0.26,0.2-0.41c0-0.22-0.12-0.4-0.38-0.54
		c-0.25-0.14-0.65-0.21-1.19-0.21l-2.32-0.01L57.86,124.36z"/>
	<path class="st2" d="M69.5,125.35l0.97,0.16c-0.21,0.5-0.57,0.88-1.1,1.14c-0.53,0.26-1.18,0.39-1.94,0.39
		c-0.79,0-1.43-0.11-1.93-0.31c-0.49-0.2-0.87-0.5-1.13-0.88c-0.26-0.38-0.38-0.79-0.38-1.23c0-0.48,0.15-0.89,0.44-1.25
		c0.29-0.35,0.71-0.62,1.25-0.81c0.54-0.18,1.13-0.27,1.78-0.27c0.73,0,1.35,0.12,1.85,0.36c0.5,0.24,0.85,0.57,1.04,0.99
		l-0.96,0.14c-0.17-0.33-0.41-0.58-0.74-0.73c-0.32-0.15-0.73-0.23-1.22-0.23c-0.56,0-1.04,0.08-1.41,0.25
		c-0.38,0.17-0.65,0.39-0.8,0.68c-0.15,0.28-0.23,0.58-0.23,0.88c0,0.39,0.09,0.73,0.27,1.02c0.18,0.29,0.46,0.51,0.85,0.66
		c0.38,0.15,0.8,0.22,1.25,0.22c0.54,0,1-0.09,1.38-0.29C69.11,126.03,69.37,125.74,69.5,125.35"/>
	<polygon class="st2" points="71.68,126.97 71.7,122.38 77,122.4 77,122.94 72.67,122.92 72.66,124.33 76.72,124.34 76.72,124.88 
		72.66,124.87 72.66,126.43 77.16,126.44 77.16,126.98 	"/>
	<polygon class="st2" points="78.48,126.99 78.5,122.4 79.49,122.41 83.33,126.02 83.35,122.42 84.28,122.42 84.26,127.01 
		83.26,127.01 79.42,123.39 79.41,126.99 	"/>
	<polygon class="st2" points="87.76,127.02 87.77,122.97 85.35,122.97 85.36,122.43 91.17,122.44 91.17,122.99 88.74,122.98 
		88.73,127.02 	"/>
	<path class="st2" d="M92.16,127.04l0.02-4.59l3.25,0.01c0.65,0,1.15,0.05,1.49,0.13c0.34,0.08,0.61,0.23,0.81,0.44
		c0.2,0.21,0.3,0.44,0.3,0.69c0,0.33-0.17,0.6-0.51,0.82c-0.34,0.22-0.86,0.36-1.56,0.42c0.26,0.08,0.45,0.15,0.58,0.23
		c0.28,0.16,0.55,0.37,0.8,0.61l1.27,1.25l-1.22,0l-0.97-0.96c-0.28-0.28-0.52-0.49-0.7-0.63c-0.18-0.15-0.35-0.25-0.49-0.31
		c-0.14-0.06-0.29-0.1-0.44-0.12c-0.11-0.02-0.29-0.02-0.54-0.02l-1.13,0l-0.01,2.04L92.16,127.04z M93.14,124.48l2.09,0.01
		c0.44,0,0.79-0.03,1.04-0.08c0.25-0.06,0.44-0.15,0.57-0.27c0.13-0.13,0.2-0.26,0.2-0.41c0-0.22-0.12-0.4-0.38-0.54
		c-0.25-0.14-0.65-0.21-1.19-0.21l-2.32-0.01L93.14,124.48z"/>
	<path class="st2" d="M99.25,124.82c0-0.76,0.33-1.36,0.99-1.78c0.66-0.43,1.5-0.64,2.53-0.64c0.68,0,1.29,0.11,1.83,0.31
		c0.54,0.2,0.96,0.49,1.24,0.85c0.28,0.36,0.43,0.77,0.42,1.23c0,0.47-0.15,0.88-0.46,1.25c-0.3,0.37-0.73,0.64-1.28,0.83
		c-0.55,0.19-1.15,0.28-1.78,0.28c-0.69,0-1.31-0.11-1.85-0.32c-0.54-0.21-0.95-0.5-1.23-0.86
		C99.39,125.61,99.25,125.23,99.25,124.82 M100.26,124.84c0,0.55,0.23,0.99,0.71,1.31c0.47,0.32,1.07,0.48,1.79,0.48
		c0.73,0,1.33-0.16,1.81-0.48c0.47-0.32,0.71-0.77,0.71-1.36c0-0.37-0.1-0.7-0.3-0.98c-0.2-0.28-0.5-0.5-0.88-0.65
		c-0.39-0.15-0.82-0.23-1.31-0.23c-0.69,0-1.28,0.14-1.78,0.44C100.51,123.66,100.26,124.15,100.26,124.84"/>
	<path class="st2" d="M158.13,127.23l0.02-4.59l3.25,0.01c0.65,0,1.15,0.05,1.49,0.13c0.34,0.08,0.61,0.23,0.81,0.44
		c0.2,0.21,0.3,0.44,0.3,0.69c0,0.33-0.17,0.6-0.51,0.82c-0.34,0.22-0.86,0.36-1.56,0.42c0.26,0.08,0.45,0.15,0.58,0.23
		c0.28,0.16,0.55,0.37,0.8,0.61l1.27,1.25l-1.22,0l-0.97-0.96c-0.28-0.28-0.52-0.49-0.7-0.63c-0.18-0.15-0.35-0.25-0.49-0.31
		c-0.15-0.06-0.29-0.1-0.44-0.12c-0.11-0.02-0.29-0.02-0.54-0.02l-1.13,0l-0.01,2.04L158.13,127.23z M159.11,124.67l2.09,0.01
		c0.44,0,0.79-0.03,1.04-0.08c0.25-0.06,0.44-0.15,0.57-0.27c0.13-0.13,0.2-0.26,0.2-0.41c0-0.22-0.12-0.4-0.38-0.54
		c-0.25-0.14-0.65-0.21-1.19-0.21l-2.32-0.01L159.11,124.67z"/>
	<path class="st2" d="M165.23,125.02c0-0.76,0.33-1.36,0.99-1.78c0.66-0.43,1.5-0.64,2.53-0.64c0.68,0,1.29,0.11,1.83,0.31
		c0.54,0.2,0.96,0.49,1.24,0.85c0.28,0.36,0.43,0.77,0.42,1.23c0,0.46-0.15,0.88-0.46,1.25c-0.3,0.37-0.73,0.64-1.28,0.83
		c-0.55,0.19-1.15,0.28-1.78,0.28c-0.69,0-1.31-0.11-1.85-0.32c-0.54-0.21-0.95-0.5-1.23-0.86
		C165.37,125.81,165.23,125.43,165.23,125.02 M166.23,125.04c0,0.55,0.23,0.99,0.71,1.31c0.47,0.32,1.07,0.48,1.79,0.48
		c0.73,0,1.33-0.16,1.81-0.48c0.47-0.32,0.71-0.77,0.71-1.36c0-0.37-0.1-0.7-0.3-0.98c-0.2-0.28-0.5-0.5-0.88-0.65
		c-0.39-0.15-0.82-0.23-1.31-0.23c-0.69,0-1.28,0.14-1.78,0.44C166.49,123.85,166.24,124.35,166.23,125.04"/>
	<polygon class="st2" points="110.39,127.1 110.41,122.51 115.36,122.53 115.36,123.07 111.38,123.05 111.38,124.47 114.82,124.49 
		114.82,125.03 111.37,125.02 111.37,127.1 	"/>
	<polygon class="st2" points="116.62,127.12 116.63,122.53 121.94,122.55 121.94,123.09 117.6,123.07 117.6,124.48 121.66,124.49 
		121.65,125.03 117.6,125.02 117.59,126.58 122.09,126.59 122.09,127.14 	"/>
	<path class="st2" d="M123.44,127.14l0.02-4.59l3.25,0.01c0.65,0,1.15,0.05,1.49,0.13c0.34,0.08,0.61,0.23,0.81,0.44
		c0.2,0.21,0.3,0.44,0.3,0.69c0,0.33-0.17,0.6-0.51,0.82c-0.34,0.22-0.86,0.36-1.56,0.42c0.26,0.08,0.45,0.15,0.58,0.23
		c0.28,0.16,0.55,0.37,0.8,0.61l1.27,1.25l-1.22,0l-0.97-0.96c-0.28-0.28-0.52-0.49-0.7-0.63c-0.18-0.15-0.35-0.25-0.49-0.31
		c-0.14-0.06-0.29-0.1-0.44-0.12c-0.11-0.02-0.29-0.02-0.54-0.02l-1.13,0l-0.01,2.04L123.44,127.14z M124.42,124.58l2.09,0.01
		c0.44,0,0.79-0.03,1.04-0.08c0.25-0.06,0.44-0.15,0.57-0.27c0.13-0.13,0.2-0.26,0.2-0.41c0-0.22-0.12-0.4-0.38-0.54
		c-0.25-0.14-0.65-0.21-1.19-0.21l-2.32-0.01L124.42,124.58z"/>
	<path class="st2" d="M130.84,127.16l0.02-4.59l3.25,0.01c0.65,0,1.15,0.05,1.49,0.13c0.34,0.08,0.61,0.23,0.81,0.44
		c0.2,0.21,0.3,0.44,0.3,0.69c0,0.33-0.17,0.6-0.51,0.82c-0.34,0.22-0.86,0.36-1.56,0.42c0.26,0.08,0.45,0.15,0.58,0.23
		c0.28,0.16,0.55,0.37,0.8,0.61l1.27,1.25l-1.22,0l-0.97-0.96c-0.28-0.28-0.52-0.49-0.7-0.63c-0.18-0.15-0.35-0.25-0.49-0.31
		c-0.14-0.06-0.29-0.1-0.44-0.12c-0.11-0.02-0.29-0.02-0.54-0.02l-1.13,0l-0.01,2.04L130.84,127.16z M131.82,124.61l2.09,0.01
		c0.44,0,0.79-0.03,1.04-0.08c0.25-0.06,0.44-0.15,0.57-0.27c0.13-0.13,0.2-0.26,0.2-0.41c0-0.22-0.12-0.4-0.38-0.54
		c-0.25-0.14-0.65-0.21-1.19-0.21l-2.32-0.01L131.82,124.61z"/>
	<polygon class="st2" points="138.24,127.19 138.26,122.6 143.57,122.62 143.56,123.16 139.23,123.15 139.22,124.55 143.28,124.57 
		143.28,125.1 139.22,125.09 139.22,126.65 143.72,126.67 143.72,127.21 	"/>
	<polygon class="st2" points="146.92,127.22 146.93,123.17 144.51,123.16 144.52,122.62 150.33,122.64 150.33,123.18 147.9,123.18 
		147.89,127.22 	"/>
	<polygon class="st2" points="151.32,127.23 151.34,122.65 156.64,122.66 156.64,123.21 152.31,123.19 152.3,124.6 156.36,124.61 
		156.36,125.15 152.3,125.13 152.29,126.7 156.8,126.71 156.8,127.25 	"/>
</g>
</svg>
