<?xml version="1.0" encoding="utf-8"?>
<!-- Generator: Adobe Illustrator 28.0.0, SVG Export Plug-In . SVG Version: 6.00 Build 0)  -->
<svg version="1.1" id="Layer_1" xmlns="http://www.w3.org/2000/svg" xmlns:xlink="http://www.w3.org/1999/xlink" x="0px" y="0px"
	 viewBox="0 0 198.43 198.43" style="enable-background:new 0 0 198.43 198.43;" xml:space="preserve">
<style type="text/css">
	.st0{fill-rule:evenodd;clip-rule:evenodd;fill:#151515;}
	.st1{fill-rule:evenodd;clip-rule:evenodd;fill:#E6352F;}
</style>
<g>
	<polygon class="st0" points="35.93,106.55 34.86,106.55 34.86,113.8 38.59,113.8 38.59,113.05 35.93,113.05 	"/>
	<rect x="43.52" y="106.55" class="st0" width="1.08" height="7.25"/>
	<g>
		<path class="st0" d="M59.97,110.2c0-2.08-2.24-3.78-5.03-3.78c-2.75,0-5.03,1.68-5.03,3.76c0,2.09,2.28,3.74,5.03,3.74
			c0.97,0,2.11-0.26,2.91-0.71l0.81,0.66h1.37l-1.44-1.11C59.48,112.03,59.97,111.21,59.97,110.2 M57.83,112.18l-1.66-1.31h-1.41
			l2.33,1.76c-0.59,0.34-1.43,0.54-2.15,0.54c-2.19,0-3.96-1.37-3.96-3c0-1.65,1.74-3,3.96-3c2.21,0,3.96,1.35,3.96,3
			C58.9,110.95,58.55,111.61,57.83,112.18"/>
		<path class="st0" d="M71.06,110.86c0,0.57,0.04,1.2-0.47,1.67c-0.45,0.4-1.2,0.64-1.89,0.64c-0.7,0-1.52-0.25-1.95-0.69
			c-0.45-0.46-0.42-1.08-0.42-1.62v-4.32h-1.08v4.54c0,0.83,0.1,1.49,0.95,2.1c0.65,0.48,1.59,0.74,2.5,0.74
			c0.97,0,1.93-0.29,2.6-0.83c0.77-0.6,0.85-1.22,0.85-2.01v-4.54h-1.08V110.86z"/>
		<path class="st0" d="M82.42,106.42c-2.75,0-5.03,1.68-5.03,3.76c0,2.09,2.28,3.74,5.03,3.74c2.75,0,5.03-1.65,5.03-3.74
			C87.45,108.11,85.18,106.42,82.42,106.42 M82.42,113.17c-2.19,0-3.96-1.37-3.96-3c0-1.65,1.74-3,3.96-3c2.22,0,3.96,1.36,3.96,3
			C86.38,111.81,84.61,113.17,82.42,113.17"/>
		<path class="st0" d="M97.68,108.55c0-1.64-1.7-2-3.53-2h-1.4v7.25h1.08v-3.18h0.27l2.92,3.18h1.32l-3.07-3.25
			C96.75,110.45,97.68,109.66,97.68,108.55 M93.83,109.91v-2.61h0.32c1.29,0,2.46,0.12,2.46,1.31c0,1.13-1.23,1.3-2.45,1.3H93.83z"
			/>
		<path class="st0" d="M115.32,109.65l-0.64-0.21c-0.65-0.22-1.51-0.51-1.51-1.13c0-0.66,0.74-1.13,1.6-1.13
			c0.82,0,1.28,0.29,1.66,0.79l0.86-0.41c-0.51-0.71-1.42-1.13-2.5-1.13c-1.43,0-2.7,0.72-2.7,1.85c0,1.04,0.97,1.47,2.1,1.86
			l0.59,0.19c0.9,0.31,1.78,0.6,1.78,1.44c0,0.82-0.95,1.41-1.99,1.41c-1.04,0-1.79-0.6-1.93-1.35l-1.05,0.22
			c0.31,1.12,1.46,1.87,3.01,1.87c1.68,0,3.04-0.97,3.04-2.24C117.64,110.53,116.58,110.06,115.32,109.65"/>
		<polygon class="st0" points="122.21,107.3 124.54,107.3 124.54,113.8 125.61,113.8 125.61,107.3 127.97,107.3 127.97,106.55 
			122.21,106.55 		"/>
		<path class="st0" d="M137.45,106.42c-2.75,0-5.03,1.68-5.03,3.76c0,2.09,2.28,3.74,5.03,3.74c2.75,0,5.03-1.65,5.03-3.74
			C142.49,108.11,140.21,106.42,137.45,106.42 M137.45,113.17c-2.19,0-3.95-1.37-3.95-3c0-1.65,1.74-3,3.95-3
			c2.22,0,3.96,1.36,3.96,3C141.41,111.81,139.64,113.17,137.45,113.17"/>
		<path class="st0" d="M152.71,108.55c0-1.64-1.7-2-3.53-2h-1.39v7.25h1.08v-3.18h0.27l2.92,3.18h1.32l-3.07-3.25
			C151.78,110.45,152.71,109.66,152.71,108.55 M148.86,109.91v-2.61h0.32c1.29,0,2.46,0.12,2.46,1.31c0,1.13-1.23,1.3-2.45,1.3
			H148.86z"/>
		<polygon class="st0" points="163.57,107.3 163.57,106.55 158.56,106.55 158.56,113.8 163.57,113.8 163.57,113.05 159.64,113.05 
			159.64,110.2 163.45,110.2 163.45,109.45 159.64,109.45 159.64,107.3 		"/>
		<polygon class="st1" points="24.26,84.5 28.14,84.5 28.14,97.8 33.4,97.8 33.4,101.45 24.26,101.45 		"/>
		<path class="st1" d="M42.35,84.5h3.02l7.33,16.95h-3.89l-1.45-3.34h-6.89l-1.41,3.34h-3.87L42.35,84.5z M43.88,90.05l-2.11,4.99
			h4.27L43.88,90.05z"/>
		<polygon class="st1" points="61.66,84.5 73.74,84.5 73.74,88.1 69.63,88.1 69.63,101.45 65.75,101.45 65.75,88.1 61.66,88.1 		"/>
		<path class="st1" d="M80.59,84.5h3.02l7.33,16.95h-3.89l-1.45-3.34h-6.89l-1.41,3.34h-3.87L80.59,84.5z M82.11,90.05L80,95.05
			h4.27L82.11,90.05z"/>
		<path class="st1" d="M93.63,84.5h5.24c2.19,0,3.68,0.43,4.49,1.29c0.8,0.86,1.2,1.87,1.2,3.02c0,0.73-0.15,1.35-0.44,1.85
			c-0.29,0.5-0.76,1.01-1.41,1.53c1.24,0.4,2.12,1,2.63,1.79c0.52,0.79,0.77,1.63,0.77,2.52c0,1.56-0.57,2.77-1.7,3.64
			c-1.13,0.87-2.72,1.3-4.77,1.3h-6.02V84.5z M97.51,87.33v3.73h0.88c0.65,0,1.2-0.2,1.64-0.59c0.44-0.39,0.67-0.88,0.67-1.46
			c0-0.47-0.22-0.86-0.65-1.19c-0.43-0.32-0.98-0.49-1.63-0.49H97.51z M97.51,93.95v4.67h1.39c2.12,0,3.18-0.73,3.18-2.2
			c0-0.79-0.26-1.4-0.78-1.83c-0.52-0.43-1.26-0.64-2.22-0.64H97.51z"/>
		<polygon class="st1" points="108.54,84.5 118.68,84.5 118.68,87.87 112.42,87.87 112.42,91.27 118.68,91.27 118.68,94.59 
			112.42,94.59 112.42,98.08 118.68,98.08 118.68,101.45 108.54,101.45 		"/>
		<path class="st1" d="M121.92,84.5h5.91c1.8,0,3.22,0.45,4.26,1.34c1.04,0.9,1.57,2.1,1.57,3.63c0,0.87-0.24,1.77-0.72,2.71
			c-0.48,0.94-1.36,1.67-2.65,2.21l5.02,7.07h-4.42l-4.67-6.56h-0.43v6.56h-3.88V84.5z M125.8,87.51v4.42h0.84
			c2.03,0,3.04-0.78,3.04-2.34c0-0.64-0.26-1.14-0.79-1.52c-0.53-0.37-1.26-0.56-2.19-0.56H125.8z"/>
		<polygon class="st1" points="150.17,84.5 153.97,84.5 153.97,101.45 150.2,101.45 142,90.48 142,101.45 138.12,101.45 
			138.12,84.5 141.96,84.5 150.17,95.4 		"/>
		<path class="st1" d="M163.82,84.5h3.02l7.33,16.95h-3.89l-1.45-3.34h-6.89l-1.41,3.34h-3.87L163.82,84.5z M165.34,90.05
			l-2.11,4.99h4.27L165.34,90.05z"/>
	</g>
</g>
</svg>
