<?xml version="1.0" encoding="utf-8"?>
<!-- Generator: Adobe Illustrator 28.0.0, SVG Export Plug-In . SVG Version: 6.00 Build 0)  -->
<svg version="1.1" id="Layer_1" xmlns="http://www.w3.org/2000/svg" xmlns:xlink="http://www.w3.org/1999/xlink" x="0px" y="0px"
	 viewBox="0 0 198.43 198.43" style="enable-background:new 0 0 198.43 198.43;" xml:space="preserve">
<style type="text/css">
	.st0{fill-rule:evenodd;clip-rule:evenodd;fill:#E6352F;}
	.st1{fill-rule:evenodd;clip-rule:evenodd;fill:#151515;}
</style>
<g>
	<path class="st0" d="M70.58,105c1.02-0.48,2.08-1.08,3.14-3.16c0.54-1.07,1.17-2.03,1.75-2.76c0.52-0.66,0.99-1.07,1.56-1.41
		c0.87-0.52,1.87-0.91,2.82-1.25c0.49-0.17,0.89-0.28,1.08-0.27c0.31,0.02,0.44,0.04,0.56,0.02c0.14-0.02,0.23-0.11,0.51-0.3
		l1.34-0.91c0.25-0.17,0.65-0.38,0.3-0.6c-0.27-0.17-0.77-0.34-1.68,0.01c-2.14,0.82-4.65,1.87-6.59,3.07
		c0.1-0.8,0.24-1.24,0.34-2.01c0.04-0.28,0.2-0.66-0.18-0.74c-0.38-0.07-1.5,0.71-2.4,1.19c-0.43,0.23-0.79,0.49-1.04,0.69
		c-0.4,0.33-0.4,0.31-0.46,0.77c-0.05,0.45-0.14,1.15-0.21,1.43c-0.37,1.53-1.06,3.79-1.87,5.2c-0.16,0.27-0.23,0.43-0.28,0.62
		C69.09,105.47,69.56,105.48,70.58,105"/>
	<path class="st0" d="M54.64,93.74c-1.54,1.11-3,2.35-4.07,3.82c-1.04,1.43-1.7,3.08-1.67,5.03c0.03,2.08,1.1,2.7,2,2.7
		c0.9,0,1.9-0.81,2.45-1.18c0.55-0.37,1.87-1.49,1.87-1.49s0.33-0.31,0.13-0.59c-0.1-0.13-0.67,0.13-1.2,0.23
		c-1.26,0.25-1.18-1.17-1.16-2.02c0.01-0.6,0.11-1.24,0.33-1.85c0.45-1.27,1.32-2.7,2.29-3.57c0.11-0.1,1.49-1.11,1.16-1.58
		C56.39,92.69,54.98,93.5,54.64,93.74"/>
	<path class="st0" d="M64.54,95.84c-1.42,0.49-4.72,4.93-4.58,6.53c0.07,0.76,1.05,1.05,2.51,1.01c1.46-0.04,2.65-1.04,3.39-2.34
		c0.51-0.89,0.82-1.92,0.86-2.89C66.8,96.57,66.44,95.19,64.54,95.84 M57.29,99.57c-0.89,1.29-1.24,2.74-0.87,3.83
		c0.37,1.09,1.46,1.83,3.46,1.73c2.57-0.13,4.74-1.14,6.09-1.9c1.82-1.02,3.08-2.4,3.71-4.09c0.44-1.18,0.87-3.46,0.12-4.62
		c-0.3-0.47-0.88-0.79-1.95-0.79c-2.15,0-3.76,1.25-3.76,1.25s1.63-1.72,2.62-3.17c0.62-0.91,1.39-2.28,2.07-3.37
		c0.69-1.12,1.12-1.56,2.19-2.29c0.69-0.47,1.4-1.05,1.18-1.49c-0.11-0.22-0.62-0.26-1.38-0.15c-1.16,0.17-2.99,0.66-4.12,1.87
		c-0.49,0.53-0.87,1.11-1.17,1.68c-0.44,0.83-0.84,1.63-1.24,2.42c-0.65,1.27-1.39,2.56-2.25,3.78
		C60.6,96.23,58.62,97.62,57.29,99.57"/>
	<path class="st0" d="M124.34,87.11c1.22-1.11,2.85-2.56,4.04-3.66c0.16-0.14,0.87-0.78,1.1-0.57c0.16,0.15-0.55,1.01-0.62,1.11
		c-0.28,0.4-0.69,0.98-1.19,1.7c-1.71,2.46-4.57,6.57-7.61,11.07c-3.53,5.22-5.72,8.34-6.92,10.25c-1.27,2.04-1.41,2.71-0.82,3.09
		c0.45,0.3,2.06-0.27,3.13-1.08c0.95-0.71,3.58-3.29,4.2-3.93c0.18-0.19,0.34-0.35,0.57-0.6c0.42-0.47-0.08-0.64-0.51-0.25
		l-1.37,1.23c-0.09,0.08-0.38,0.39-0.5,0.25c-0.03-0.04,0.03-0.29,0.2-0.53c0.99-1.36,1.8-2.75,2.68-4.2
		c3.52-5.81,7.56-11.28,11.1-17.05c0.81-1.32,1.34-2.53,0.69-3.12c-0.64-0.6-2.89,0.37-4.67,1.86c-0.75,0.63-2.18,1.9-3.58,3.16
		c-2.31,2.08-4.58,4.19-6.86,6.31c-0.52,0.48-5.03,5.15-5.03,5.15l6.28-8.12c0,0,3.54-4.75,3.88-5.55c0.34-0.8,0.74-2.18,0.19-2.65
		c-1.37-1.17-8.72,5.7-9.8,6.75c-2.36,2.3-4.68,4.71-7.41,7.33c0,0,4.38-5.27,6.58-7.83c2.2-2.56,3.94-5.34,3.16-5.98
		c-1.87-1.53-5.68,1.49-7.17,2.76c-2.62,2.22-6.54,5.8-8.14,7.27c-2.27,2.09-8.49,7.6-10.13,8.82c-1.64,1.22-4.5,2.5-5.62,1.24
		c-1.12-1.26,0.18-3.58,1.11-4.52c0.93-0.94,2.89-2.63,2.89-2.63s0.41-0.47,0.13-0.77c-0.28-0.3-1.04,0.17-1.04,0.17
		s-2.65,1.7-4.65,3.8c-1.22,1.29-3.54,4.99-2.31,6.8c0.53,0.78,1.43,0.92,2.43,0.73c3.36-0.62,7.72-3.78,10.19-5.9
		c4.45-3.84,13.71-12.38,13.71-12.38l2.62-2.13c0.21-0.17,0.88-0.61,1.14-0.37c0.23,0.21-0.03,0.7-0.5,1.28
		c-3.47,4.21-10.82,12.79-15.52,18.52c-0.49,0.6-4.26,4.79-2.3,5.42c0.53,0.17,3.25-1.52,5.27-3.54c2.02-2.03,8.09-9.07,8.09-9.07
		s0.28-0.29,0.75-0.77c3.85-3.95,7.71-7.65,11.9-11.37c0.11-0.1,0.51-0.52,0.69-0.39c0.12,0.09-0.33,0.65-0.38,0.72
		c-0.1,0.14-0.23,0.32-0.38,0.52c-1.53,2.11-5.2,7.17-6.9,9.36c-2.18,2.81-9.43,11.88-10.05,12.7c-0.61,0.82-0.4,1.16-0.15,1.31
		c0.46,0.22,3.16-0.26,7.69-5.5c2.23-2.58,5.28-5.91,7.79-8.62C119.07,91.81,121.47,89.73,124.34,87.11"/>
	<path class="st0" d="M132.4,93.9c0,0-1.46,0.96-3.06,2.3c-1.26,1.06-3.97,3.67-5.1,5.97c-0.36,0.73-1,2.64,0.14,3.13
		c2.23,0.96,8.3-4.15,8.21-3.99c-1.19,2.09-1.84,3.74-1.27,4.19c0.49,0.39,1.31,0.15,2.15-0.28c1.08-0.56,2.19-1.46,2.68-1.8
		c1-0.72,2.08-1.58,3.78-2.94c1.19-0.95,2.46-1.82,3.79-2.8c-0.76,2.21-1.98,4.01-3.41,5.72c-0.23,0.28-1.06,0.96-0.42,1.33
		c0.23,0.14,0.58,0.06,0.81-0.03c0.26-0.1,0.5-0.28,0.89-0.54c3.24-2.15,6.11-5.04,9.13-7.49c0,0-0.03,0.12-0.15,0.3
		c-0.33,0.48-1.17,1.87-1.82,3.33c-0.81,1.82-1.33,3.76-0.19,4.21c0.67,0.26,1.79-0.05,2.73-0.62c0.99-0.6,1.63-1.28,1.94-1.64
		c0.48-0.58,0.45-1.5-0.75-0.69c-0.33,0.22-0.61,0.39-0.8,0.37c-0.29-0.03-0.3-0.4-0.19-0.86c0.47-2.02,1.9-3.61,2.87-5.39
		c0.52-0.95,0.79-1.95,0.52-2.25c-0.44-0.52-2.2,0.24-3.31,1.05c-1.12,0.81-5.46,4.48-5.66,4.31c-0.2-0.16,1.93-2.87,2.28-3.81
		c0.35-0.94,0.26-1.19-0.09-1.23c-0.35-0.04-2.37,1.21-4.05,2.4c-1.68,1.19-7.33,5.32-7.33,5.32s-1.14,0.69-1.29,0.55
		c-0.15-0.14,0.31-0.89,0.87-1.74c0.92-1.41,1.8-2.71,2.89-4c0.25-0.3,0.44-0.63,0.65-0.91c0.24-0.35,0.33-0.86,0.21-1.21
		c-0.12-0.35-0.44-0.52-1.02-0.18c-1.24,0.73-2.48,1.77-3.49,2.75c-1.73,1.68-2.98,3.33-4.21,4.23c-1.47,1.07-3.06,1.46-3.58,0.9
		c-0.5-0.53-0.09-1.46,0.63-2.42c1.05-1.4,2.76-2.88,3.26-3.32c0.55-0.48,1.13-0.97,1.72-1.5c0.27-0.24,0.97-0.73,0.57-1.14
		C133.58,93.11,132.4,93.9,132.4,93.9"/>
	<path class="st0" d="M160.29,97.03c-1.17,0.89-2.41,2.03-3.01,3.19c-0.53,1.02-0.54,1.8-0.19,2.2c0.4,0.46,1.24,0.38,2.43-0.23
		c1.9-0.97,3.62-2.26,4.73-3.27c1.63-1.48,2.77-2.8,2.15-3.39C165.02,94.22,161.34,96.23,160.29,97.03 M168.48,93.41
		c-0.53-0.56-1.58-0.57-2.64-0.37c-2.8,0.52-5.35,2.02-7.42,3.84c-4.14,3.62-4.96,6.98-4.01,7.95c1.45,1.47,6.19-1.6,8.81-3.59
		c0,0-0.87,2.65-0.09,3.5c1.06,1.15,4.94-1.83,5.71-2.36c1.85-1.28,3.54-2.65,4.03-3.1c0.92-0.85,1.01-0.97,1.12-1.08
		c-0.43,0.9-1.71,3.74-1.71,5.16c0,1.42,0.47,1.87,1.38,1.78c0.91-0.09,4.51-2.48,4.51-2.48s0.19-0.27,0.06-0.48
		c-0.13-0.21-0.34-0.15-0.91,0.12c-0.32,0.15-0.62,0.24-0.84,0.2c-0.43-0.08-0.3-0.8-0.28-1.09c0.05-0.62,0.24-1.5,0.77-2.55
		c0.76-1.5,1.45-2.7,1.94-3.4c0.31-0.44,0.65-1.1,0.32-1.63c-0.47-0.73-1.52-0.22-2.05,0.11c-0.51,0.32-1.13,0.8-1.81,1.39
		c-2.53,2.2-4.71,4.17-7.3,5.94c-1.19,0.81-2.19,1.3-2.35,1c-0.16-0.3,0.56-1.57,1.82-3.2c1.25-1.63,6.74-9.09,8.34-10.96
		c1.6-1.87,2.07-2.96,2.16-3.44c0.05-0.24,0.11-0.79-0.19-0.96c-0.3-0.17-0.96,0.02-1.6,0.42c-1.29,0.78-1.69,1.15-2.54,2.42
		C172.16,88.87,170.8,90.49,168.48,93.41"/>
	<path class="st0" d="M181.93,90.03c0,0,1.87-1.2,2.25-0.58c0.37,0.62-0.72,1.33-0.88,1.44s-2.14,1.27-2.5,0.75
		S181.93,90.03,181.93,90.03"/>
	<path class="st0" d="M55.92,81.67c-0.02-0.59-0.26-1.07-0.76-1.3c-0.79-0.38-3.38,0.34-5.25,2.46c-1.87,2.12-5.7,7.68-7.09,9.14
		c-0.04,0.04-0.08,0.09-0.13,0.14c-0.58,0.22-1.2,0.39-1.69,0.36c-1.1-0.07-4.68-0.97-4.34-3.85c0.34-2.88,2.33-4.6,3.24-5.3
		c0.91-0.7,1.35-0.88,1.67-0.62c0.32,0.26,0.73,0.42,0.73,0.42s0.41,0.13,1.07-0.13c0.66-0.26,1.19-0.22,1.51-0.11
		c0.32,0.11,0.43,0.15,0.62,0.18c0.18,0.02,0.44-0.08,0.44-0.08s0.3-0.84-0.15-1.37c-0.45-0.52-3.17-0.73-5.2,0.15
		c-0.95,0.41-2.57,1.42-4,2.74c-1.21,1.12-2.29,2.45-2.68,3.83c-0.42,1.48-0.21,3.21,0.65,4.42c0.62,0.88,1.59,1.48,2.92,1.51
		c1.49,0.02,2.68-0.15,3.83-0.5c-0.59,0.73-1.27,1.59-1.95,2.5c-2.18,2.88-4.57,5.48-7.59,7.53c-0.13,0.09-0.25,0.17-0.38,0.25
		c-0.27-0.25-0.55-0.5-0.85-0.75c-4.37-3.73-6.96-4.11-12.02-1.48c-2.93,1.52-5.22,3.84-4.03,6.03c0.16,0.3,0.38,0.63,0.64,0.97
		c0.58,0.76,1.54,1.08,2.69,1.12c3.59,0.15,7.14-1.45,10.24-3.03c0.2-0.1,0.4-0.21,0.6-0.31l0.04,0.03c2.29,2.14,4.43,3.02,6.69,3
		c2.27-0.02,4.41-0.67,6.15-1.56c0.95-0.49,1.78-1.09,2.41-1.64c0.73-0.62,1.33-1.33,1.87-2.1c0.54-0.76,1.02-1.57,1.49-2.38
		c0.25-0.43,0.51-0.97,0.18-1.11c0,0-0.15-0.03-0.28,0.07c-0.13,0.1-0.47,0.64-0.66,0.94c-0.46,0.72-0.89,1.43-1.36,2.1
		c-0.51,0.72-1.08,1.39-1.81,1.96c-2.68,2.09-5.24,2.39-8.3,0.85c-1.21-0.61-2.36-1.39-3.08-2.13c0.26-0.17,0.52-0.35,0.77-0.53
		c1.09-0.77,2.13-1.62,3.16-2.58c1.08-1.01,3.09-3.41,5.21-5.93c0.73-0.86,1.47-1.74,2.19-2.61c0.53-0.24,1.08-0.5,1.68-0.8
		c1.04-0.51,2.01-1.08,2.69-1.53c0.71-0.47,1.34-0.94,1.93-1.44c1.81-1.54,3.68-3.61,5.2-5.42C55.47,83.04,55.94,82.28,55.92,81.67
		 M51.37,85.99c-2.06,2.23-3.6,3.79-6.51,5.16c1.84-2.22,3.35-4.07,3.86-4.74c0.56-0.74,1.25-1.56,1.86-2.26
		c0.42-0.48,0.8-0.91,1.09-1.22c0.35-0.39,1.31-1.23,1.77-0.79c0.64,0.6-0.02,1.5-0.44,2C52.45,84.76,51.92,85.39,51.37,85.99
		 M28.07,106l-0.07,0.04l0,0c-1.98,1.09-4.16,1.83-4.96,2.04c-1.32,0.35-3.44,1.12-4.89-0.32c-1.45-1.45-0.85-3.22,0.03-4.22
		c0.88-1,2.41-1.65,4.32-1.57C24.23,102.03,26.04,104.03,28.07,106"/>
	<path class="st1" d="M145.63,108.84c-0.31,1.27-0.68,2.52-1.1,3.75c-0.43,1.25-0.93,2.48-1.49,3.69
		c-2.85,6.18-7.19,11.57-12.58,15.75l0,0l0,0c-1.05,0.81-2.14,1.58-3.26,2.3c-1.13,0.72-2.29,1.39-3.48,2.01
		c-6.15,3.18-13.17,4.98-20.63,4.98h0v0c-5.18,0-10.15-0.87-14.76-2.47c-0.75-0.26-1.5-0.54-2.22-0.84
		c-3.76-1.53-7.26-3.56-10.39-5.99l0,0l0,0h0c-1.05-0.81-2.06-1.67-3.02-2.58c-0.97-0.9-1.89-1.85-2.76-2.83
		c-4.48-5.03-7.75-11.1-9.38-17.77h1.75c1.59,6.27,4.69,11.97,8.92,16.71c0.84,0.95,1.73,1.85,2.66,2.72
		c0.93,0.87,1.9,1.69,2.91,2.47l0,0l0,0h0c3.02,2.34,6.37,4.29,9.98,5.76c0.71,0.29,1.42,0.56,2.14,0.8
		c4.43,1.53,9.21,2.37,14.19,2.37v0h0c7.17,0,13.93-1.73,19.83-4.79c1.15-0.59,2.27-1.24,3.35-1.93c1.08-0.69,2.13-1.43,3.14-2.21h0
		l0,0c5.19-4.02,9.36-9.21,12.09-15.14c0.53-1.15,1-2.33,1.43-3.55c0.37-1.05,0.69-2.13,0.97-3.23H145.63z"/>
	<path class="st1" d="M62.08,84.63c0.41-1.08,0.88-2.15,1.39-3.21c0.52-1.08,1.09-2.13,1.71-3.16c3.16-5.29,7.47-9.86,12.61-13.38
		l0,0c1-0.69,2.04-1.33,3.09-1.93c1.06-0.6,2.14-1.16,3.26-1.68c5.73-2.66,12.15-4.15,18.94-4.15v0h0v0c5.21,0,10.2,0.88,14.84,2.49
		c0.77,0.27,1.52,0.55,2.24,0.84c3.77,1.55,7.28,3.59,10.42,6.05l0,0c1.05,0.82,2.06,1.69,3.03,2.6c0.97,0.91,1.9,1.87,2.77,2.86
		c4.48,5.07,7.73,11.19,9.32,17.92h-1.74c-1.55-6.32-4.64-12.07-8.87-16.86c-0.84-0.96-1.73-1.87-2.66-2.74
		c-0.93-0.88-1.9-1.71-2.91-2.5l0,0c-3.02-2.36-6.39-4.32-10.02-5.81c-0.72-0.3-1.44-0.57-2.14-0.81
		c-4.45-1.55-9.26-2.39-14.26-2.39v0h0v0c-6.52,0-12.7,1.43-18.2,3.99c-1.07,0.5-2.11,1.04-3.14,1.62c-1.02,0.58-2.01,1.2-2.97,1.86
		l0,0c-4.94,3.39-9.09,7.78-12.12,12.86c-0.59,0.99-1.14,2-1.64,3.04c-0.4,0.81-0.77,1.65-1.11,2.52H62.08z"/>
	<path class="st1" d="M123.09,69.21l1.43-0.95l-0.41,1.64L123.09,69.21z M123.99,70.31l-0.12,0.44c-0.25,0.99-0.36,1.08-0.99,0.79
		l-0.11,0.16l1.95,1.32l0.11-0.15c-0.46-0.58-0.37-0.62-0.09-1.77l0.88-3.42l-0.11-0.07c-0.27,0.1-0.58,0.13-0.86,0.06l-0.06,0.2
		l-3.34,2c-0.35,0.2-0.49,0.13-0.86,0.01l-0.11,0.16l1.79,1.21l0.11-0.15c-0.57-0.49-0.8-0.67,0.24-1.39l0.31-0.21L123.99,70.31z
		 M119.54,66.28c0.52-1.12,0.58-1.04,1.4-0.83l0.08-0.17l-2.54-1.09l-0.08,0.17c0.71,0.45,0.81,0.44,0.29,1.56l-0.67,1.46
		c-0.52,1.12-0.58,1.04-1.4,0.83l-0.08,0.17l2.54,1.09l0.08-0.17c-0.71-0.45-0.81-0.44-0.29-1.56L119.54,66.28z M111.62,65.25
		c-0.33,1.18-0.4,1.11-1.25,1.04l-0.05,0.18l2.84,0.73l0.05-0.18c-1.07-0.36-0.94-0.65-0.7-1.54l0.18-0.65
		c0.62,0.26,0.58,0.21,0.74,0.88c0.1,0.42,0.32,1.13,0.6,1.46c0.43,0.49,1.14,0.61,1.74,0.8l0.08-0.18
		c-1.05-0.54-1.46-1.74-1.7-2.82c0.52-0.05,1.03-0.33,1.18-0.84c0.29-1.04-0.84-1.33-1.67-1.54l-2.11-0.54l-0.05,0.18
		c0.83,0.28,0.84,0.42,0.6,1.3L111.62,65.25z M113.27,62.73c0.61,0.16,1.21,0.51,1.02,1.18c-0.2,0.7-0.9,0.8-1.54,0.69L113.27,62.73
		z M106.75,63.75c0.61,0.04,0.94,0.05,1.03,0.72l0.2,0.01c0.01-0.58,0.08-1.14,0.15-1.71l-0.18-0.01c-0.22,0.6-0.54,0.63-1.14,0.59
		l-0.59-0.04l0.12-1.72l0.51,0.03c0.76,0.05,1.38,0.11,1.37,0.99l0.22,0.01l0.22-1.17l-4.14-0.28l-0.01,0.19
		c0.82,0.19,0.92,0.15,0.83,1.37l-0.12,1.59c-0.09,1.22-0.18,1.17-1.02,1.25l-0.01,0.19l4.24,0.29c0.2-0.49,0.34-1.01,0.36-1.53
		l-0.21-0.01c-0.25,0.76-0.68,1.23-1.59,1.17c-0.93-0.06-0.91-0.38-0.86-1.07l0.06-0.89L106.75,63.75z M98.51,64.53
		c0.09,1.22-0.01,1.18-0.83,1.37l0.01,0.19l2.93-0.2l-0.01-0.19c-1.13-0.01-1.11-0.32-1.18-1.23l-0.05-0.67
		c0.67,0.05,0.62,0.01,0.99,0.6c0.24,0.36,0.69,0.97,1.06,1.19c0.57,0.33,1.29,0.22,1.91,0.21l0.01-0.19
		c-1.17-0.19-1.97-1.19-2.56-2.14c0.48-0.21,0.87-0.63,0.83-1.17c-0.08-1.07-1.24-0.99-2.1-0.94l-2.17,0.15l0.01,0.19
		c0.88,0.01,0.94,0.13,1,1.04L98.51,64.53z M99.22,61.63c0.63-0.04,1.31,0.1,1.36,0.8c0.05,0.73-0.58,1.04-1.23,1.13L99.22,61.63z
		 M92.79,64.6l-0.47-1.7c0.62-0.16,1.22-0.22,1.43,0.51c0.18,0.64-0.26,1.01-0.85,1.16L92.79,64.6z M93.93,66.97
		c0.85-0.22,2.04-0.63,1.74-1.72c-0.22-0.78-1.07-0.96-1.79-0.92l0-0.01c0.47-0.25,1.01-0.67,0.85-1.25
		c-0.27-0.99-1.46-0.68-2.23-0.48l-2.05,0.53l0.05,0.18c0.9-0.15,0.92-0.03,1.19,0.84l0.48,1.74c0.33,1.18,0.23,1.16-0.54,1.5
		l0.05,0.18L93.93,66.97z M92.86,64.85c0.78-0.26,1.62,0,1.83,0.75c0.14,0.5-0.12,0.93-0.65,1.07c-0.66,0.17-0.77-0.35-0.9-0.82
		L92.86,64.85z M88.12,65.66c-0.52-1.12-0.41-1.11,0.29-1.56l-0.08-0.17l-2.54,1.09l0.08,0.17c0.82-0.2,0.88-0.28,1.4,0.83
		l0.67,1.46c0.52,1.12,0.41,1.11-0.29,1.56l0.08,0.17l2.54-1.09l-0.08-0.17c-0.82,0.2-0.88,0.28-1.4-0.83L88.12,65.66z M85.67,68.41
		l-0.21,0.04c0.04,1.08,0.04,1.58-0.97,2.2c-0.63,0.38-0.59,0.26-0.71,0.07l-1.37-2.11c-0.51-0.78-0.71-1.02,0.06-1.58l-0.1-0.16
		l-2.35,1.42l0.1,0.16c0.78-0.31,0.83-0.4,1.51,0.64l0.88,1.35c0.67,1.04,0.57,1.04-0.06,1.58l0.1,0.16l3.56-2.14L85.67,68.41z"/>
	<path class="st1" d="M77.45,74.92c0,0.27-0.11,0.52-0.31,0.71c-0.2,0.19-0.46,0.3-0.74,0.3c-0.28,0-0.54-0.11-0.74-0.3
		c-0.2-0.19-0.31-0.45-0.31-0.71s0.11-0.52,0.31-0.71c0.2-0.19,0.46-0.3,0.74-0.3c0.28,0,0.54,0.11,0.74,0.3
		C77.34,74.4,77.45,74.65,77.45,74.92"/>
	<path class="st1" d="M131.44,74.92c0,0.27-0.11,0.52-0.31,0.71c-0.2,0.19-0.46,0.3-0.74,0.3s-0.54-0.11-0.74-0.3
		c-0.2-0.19-0.31-0.45-0.31-0.71s0.11-0.52,0.31-0.71c0.2-0.19,0.46-0.3,0.74-0.3s0.54,0.11,0.74,0.3
		C131.33,74.4,131.44,74.65,131.44,74.92"/>
	<path class="st1" d="M138.64,111l-0.14,0.15c0.71,0.85,1.03,1.25,0.6,2.34c-0.27,0.68-0.31,0.55-0.53,0.47l-2.44-0.9
		c-0.9-0.33-1.22-0.41-0.95-1.32l-0.19-0.07l-1.01,2.53l0.19,0.07c0.43-0.71,0.42-0.81,1.62-0.37l1.56,0.58
		c1.2,0.44,1.12,0.51,0.95,1.32l0.19,0.07l1.52-3.82L138.64,111z M133.38,119.68l-1.07-1.34l1.74,0.31L133.38,119.68z
		 M134.49,118.74l0.47,0.09c1.05,0.19,1.15,0.3,0.88,0.92l0.17,0.1l1.28-1.97l-0.17-0.1c-0.58,0.48-0.63,0.4-1.86,0.18l-3.63-0.68
		l-0.07,0.11c0.11,0.26,0.17,0.55,0.11,0.83l0.22,0.05l2.27,3.15c0.23,0.33,0.16,0.47,0.06,0.84l0.17,0.1l1.17-1.8l-0.17-0.1
		c-0.49,0.58-0.66,0.81-1.47-0.16l-0.24-0.29L134.49,118.74z M128.35,126.71c0.68,0.65,0.41,0.87,0.11,1.29l0.14,0.14l1.64-1.58
		l-0.14-0.14c-0.72,0.45-0.87,0.52-1.5-0.06c-0.57-0.51-1.12-0.99-1.66-1.55c1.72,0.06,4.12,0.07,5.21,0.18l0.12-0.32l-2.23-2.15
		c-0.82-0.79-1-1.01-0.6-1.48l-0.14-0.14l-1.52,1.47l0.14,0.14c0.67-0.49,0.9-0.57,1.5,0l1.62,1.51v0.02
		c-1.56-0.12-3.27-0.08-4.72-0.26l-1.15,1.11l0.14,0.14c0.75-0.51,1.12-0.17,1.64,0.32L128.35,126.71z M121.33,127.59
		c1.02-0.64,2.15,0.19,2.7,1c0.51,0.75,0.8,1.88-0.14,2.47c-1.01,0.63-2.11-0.19-2.66-0.99
		C120.75,129.35,120.42,128.17,121.33,127.59 M121.23,127.29c-1.28,0.8-1.73,2.24-0.89,3.48c0.85,1.27,2.37,1.41,3.66,0.61
		c1.31-0.82,1.77-2.24,0.91-3.52C124.01,126.54,122.48,126.5,121.23,127.29 M116.9,131.28c-0.48-1.15-0.38-1.14,0.35-1.57
		l-0.07-0.18l-2.6,1.01l0.07,0.18c0.84-0.18,0.9-0.26,1.38,0.89l0.63,1.49c0.48,1.15,0.38,1.14-0.35,1.57l0.07,0.18l2.6-1.01
		l-0.07-0.18c-0.84,0.18-0.9,0.26-1.38-0.89L116.9,131.28z M112.35,131.39c-0.57-0.12-1.17-0.09-1.73,0.05
		c-1.5,0.36-2.67,1.56-2.27,3.13c0.39,1.52,1.96,1.97,3.44,1.62c0.54-0.13,1.03-0.35,1.47-0.67l0.07-1.5L113.1,134
		c-0.12,0.82-0.4,1.64-1.34,1.87c-1.13,0.27-2.08-0.72-2.33-1.69c-0.26-1.02,0.05-2.15,1.2-2.42c0.87-0.21,1.48,0.24,1.84,0.95
		l0.21-0.05L112.35,131.39z M102.56,134.81l0.55-1.6l0.7,1.56L102.56,134.81z M103.99,135.17l0.19,0.42
		c0.42,0.95,0.39,1.08-0.3,1.22l0.01,0.19l2.41-0.08l-0.01-0.19c-0.74-0.19-0.69-0.28-1.19-1.38l-1.45-3.28l-0.13,0
		c-0.16,0.24-0.38,0.44-0.65,0.55l0.08,0.2l-1.44,3.58c-0.15,0.37-0.31,0.39-0.69,0.52l0.01,0.19l2.21-0.07l-0.01-0.19
		c-0.78-0.06-1.07-0.07-0.68-1.27l0.11-0.35L103.99,135.17z M93.72,134.76c-0.18,0.91-0.53,0.81-1.05,0.81l-0.04,0.19l2.28,0.43
		l0.04-0.19c-0.79-0.32-0.93-0.4-0.79-1.23c0.12-0.74,0.23-1.45,0.4-2.19c0.91,1.41,2.24,3.33,2.76,4.26l0.34-0.09l0.6-2.99
		c0.22-1.09,0.31-1.37,0.94-1.31l0.04-0.19l-2.12-0.4l-0.04,0.19c0.8,0.26,0.99,0.4,0.84,1.2l-0.39,2.14l-0.02,0.01
		c-0.78-1.31-1.76-2.65-2.42-3.92l-1.6-0.3l-0.04,0.19c0.85,0.31,0.78,0.8,0.64,1.49L93.72,134.76z M86.87,132
		c-0.54,1.12-0.61,1.04-1.43,0.82l-0.08,0.17l2.69,1.21l0.08-0.17c-1-0.54-0.82-0.81-0.41-1.65l0.3-0.62c0.57,0.36,0.54,0.3,0.57,1
		c0.03,0.43,0.12,1.18,0.34,1.55c0.34,0.56,1.03,0.8,1.59,1.09l0.11-0.16c-0.94-0.72-1.14-1.98-1.18-3.1
		c0.53,0.03,1.09-0.15,1.33-0.64c0.48-0.98-0.59-1.46-1.38-1.82l-2-0.9l-0.08,0.17c0.77,0.42,0.76,0.56,0.36,1.4L86.87,132z
		 M88.98,129.77c0.58,0.26,1.11,0.71,0.8,1.35c-0.32,0.67-1.04,0.65-1.66,0.42L88.98,129.77z M82.39,128.72
		c0.5,0.35,0.78,0.53,0.48,1.15l0.16,0.11c0.33-0.49,0.7-0.94,1.08-1.39l-0.15-0.1c-0.52,0.4-0.81,0.26-1.3-0.08l-0.49-0.34
		l1.06-1.41l0.42,0.29c0.63,0.44,1.13,0.81,0.62,1.56l0.18,0.12l0.84-0.89l-3.4-2.38l-0.12,0.15c0.6,0.59,0.7,0.6-0.05,1.6
		l-0.98,1.3c-0.75,1-0.8,0.91-1.57,0.54l-0.12,0.15l3.48,2.43c0.45-0.32,0.85-0.69,1.17-1.13l-0.17-0.12
		c-0.64,0.52-1.27,0.7-2.01,0.18c-0.76-0.53-0.57-0.8-0.15-1.36l0.55-0.73L82.39,128.72z M76.12,122.04
		c0.93-0.47,1.35-0.19,2.03,0.49l-2.12,1.97c-0.92,0.86-0.95,0.76-1.73,0.18l-0.14,0.13l2.13,2.12l0.14-0.13
		c-0.57-0.77-0.67-0.8,0.25-1.66l2.12-1.97c0.68,0.68,0.97,1.11,0.45,1.98l0.16,0.11l1.03-1.18l-0.1-0.1
		c-0.29,0.08-0.43-0.11-0.61-0.29l-2.08-2.08c-0.09-0.09-0.18-0.17-0.24-0.26c-0.06-0.09-0.08-0.2-0.04-0.33l-0.1-0.1l-1.26,0.95
		L76.12,122.04z M70.09,117.54c-0.81,0.49-0.98,0.18-1.33-0.19l-0.17,0.1l1.23,1.9l0.17-0.1c-0.29-0.77-0.33-0.93,0.4-1.4
		c0.64-0.42,1.25-0.83,1.94-1.22c-0.45,1.6-1,3.85-1.35,4.85l0.3,0.18l2.68-1.61c0.98-0.59,1.25-0.71,1.63-0.23l0.17-0.1l-1.14-1.76
		l-0.17,0.1c0.35,0.74,0.37,0.97-0.34,1.41l-1.89,1.19l-0.02,0c0.47-1.44,0.81-3.05,1.33-4.38l-0.86-1.33l-0.17,0.1
		c0.34,0.82-0.08,1.09-0.7,1.47L70.09,117.54z M70.05,113.14c1.2-0.44,1.19-0.34,1.62,0.37l0.19-0.07l-1.01-2.53l-0.19,0.07
		c0.17,0.81,0.25,0.87-0.95,1.32l-1.56,0.58c-1.2,0.44-1.19,0.34-1.62-0.37l-0.19,0.07l1.01,2.53l0.19-0.07
		c-0.17-0.81-0.25-0.87,0.95-1.32L70.05,113.14z"/>
	<path class="st0" d="M90.56,90.19c0,0,1.87-1.2,2.25-0.58c0.37,0.62-0.72,1.33-0.88,1.44c-0.16,0.12-2.14,1.27-2.5,0.75
		C89.07,91.29,90.56,90.19,90.56,90.19"/>
	<path class="st0" d="M59.1,90.03c0,0,1.87-1.2,2.25-0.58c0.37,0.62-0.72,1.33-0.88,1.44s-2.14,1.27-2.5,0.75
		C57.6,91.13,59.1,90.03,59.1,90.03"/>
</g>
</svg>
