<?xml version="1.0" encoding="utf-8"?>
<!-- Generator: Adobe Illustrator 28.0.0, SVG Export Plug-In . SVG Version: 6.00 Build 0)  -->
<svg version="1.1" id="Layer_1" xmlns="http://www.w3.org/2000/svg" xmlns:xlink="http://www.w3.org/1999/xlink" x="0px" y="0px"
	 viewBox="0 0 198.43 198.43" style="enable-background:new 0 0 198.43 198.43;" xml:space="preserve">
<style type="text/css">
	.st0{fill:#02A056;}
	.st1{clip-path:url(#SVGID_00000059277714634078882430000010709355447184423334_);fill:#BFD84A;}
	.st2{clip-path:url(#SVGID_00000059277714634078882430000010709355447184423334_);fill:#FFFFFF;}
</style>
<g>
	<rect x="14.17" y="65.2" class="st0" width="170.08" height="68.03"/>
	<g>
		<defs>
			<rect id="SVGID_1_" x="14.17" y="65.2" width="170.08" height="68.03"/>
		</defs>
		<clipPath id="SVGID_00000147202526482988318850000016607122403931597450_">
			<use xlink:href="#SVGID_1_"  style="overflow:visible;"/>
		</clipPath>
		<path style="clip-path:url(#SVGID_00000147202526482988318850000016607122403931597450_);fill:#BFD84A;" d="M42.33,92.28
			c0-4.56,12.12-6.19,12.12-6.19s-3.14,0-9.07,0.14c-8.26,0.19-14.2,2.48-14.2,7.82c0,5.15,7.37,9,10.92,12.86
			c2,1.88,3.13,4.15,3.43,5.42c0.71-0.79,1.73-2.15,1.64-3.92c-0.14-2.53-1.98-4.8-6.47-8.67c-3.85-3.32-4.57-4.63-4.67-6.26
			c-0.36-5.86,10.64-6.46,10.64-6.46s-9.28,1.08-8.98,5.7c0.16,2.45,2.15,4.21,5.93,7.08c5.61,4.27,5.33,7.4,5.33,7.4
			s1.77-2.42,1.14-5.26C49.18,97.87,42.33,95.48,42.33,92.28"/>
		<path style="clip-path:url(#SVGID_00000147202526482988318850000016607122403931597450_);fill:#FFFFFF;" d="M112.25,106.71h-1.99
			c-0.3,0-0.65-0.02-1.05-0.05c-0.4-0.03-0.76-0.13-1.08-0.28c-0.32-0.15-0.58-0.39-0.76-0.72c-0.18-0.32-0.21-0.79-0.08-1.39
			c0.2-0.9,0.67-1.56,1.42-1.97c0.75-0.41,1.69-0.61,2.82-0.61c0.25,0,1.76,0,1.76,0L112.25,106.71z M116.55,108.92l2.12-9.92
			c0.56-2.55,0.29-4.2-0.81-5.36c-1.1-1.16-2.85-1.54-5.25-1.54h-3.54h0h-1.39c-0.52,0.03-0.79,0.3-0.91,0.76l-0.48,2.28
			c-0.2,0.79,0.42,0.75,0.42,0.75h1.03h2.35h2.3c0,0,1.35-0.06,1.69,1.01c0.11,0.35,0.1,0.8-0.02,1.36l-0.1,0.3
			c0,0-1.52,0.01-2.19,0.01c-0.93,0-1.87,0.1-2.84,0.3c-0.97,0.2-1.88,0.52-2.73,0.98c-0.85,0.45-1.59,1.06-2.23,1.81
			c-0.64,0.75-1.08,1.69-1.32,2.81c-0.25,1.12-0.26,2.06-0.05,2.82c0.21,0.76,0.62,1.39,1.22,1.88c0.6,0.49,1.37,0.84,2.3,1.04
			c0.94,0.21,2,0.32,3.17,0.32h5.21C116.29,110.54,116.55,108.92,116.55,108.92"/>
		<path style="clip-path:url(#SVGID_00000147202526482988318850000016607122403931597450_);fill:#FFFFFF;" d="M160.54,106.71h-1.99
			c-0.3,0-0.65-0.02-1.05-0.05c-0.4-0.03-0.76-0.13-1.09-0.28c-0.32-0.15-0.58-0.39-0.76-0.72c-0.19-0.32-0.21-0.79-0.08-1.39
			c0.2-0.9,0.67-1.56,1.42-1.97c0.75-0.41,1.69-0.61,2.82-0.61c0.25,0,1.76,0,1.76,0L160.54,106.71z M164.84,108.92l2.12-9.92
			c0.56-2.55,0.29-4.2-0.81-5.36c-1.1-1.16-2.85-1.54-5.25-1.54h-3.54h0h-1.39c-0.53,0.03-0.79,0.3-0.92,0.76l-0.48,2.28
			c-0.2,0.79,0.42,0.75,0.42,0.75h1.03h2.35h2.3c0,0,1.36-0.06,1.69,1.01c0.11,0.35,0.1,0.8-0.02,1.36l-0.1,0.3
			c0,0-1.52,0.01-2.19,0.01c-0.92,0-1.87,0.1-2.84,0.3c-0.97,0.2-1.88,0.52-2.73,0.98c-0.85,0.45-1.6,1.06-2.23,1.81
			c-0.64,0.75-1.08,1.69-1.32,2.81c-0.24,1.12-0.26,2.06-0.05,2.82c0.21,0.76,0.62,1.39,1.22,1.88c0.6,0.49,1.37,0.84,2.3,1.04
			c0.94,0.21,2,0.32,3.18,0.32h5.2C164.58,110.54,164.84,108.92,164.84,108.92"/>
		<path style="clip-path:url(#SVGID_00000147202526482988318850000016607122403931597450_);fill:#FFFFFF;" d="M136.14,90.4
			c-0.07,0.35-0.41,0.63-0.75,0.63h-3.57c-0.34,0-0.56-0.28-0.49-0.63l0.79-3.68c0.07-0.34,0.41-0.62,0.75-0.62h3.57
			c0.34,0,0.56,0.28,0.49,0.62L136.14,90.4z"/>
		<path style="clip-path:url(#SVGID_00000147202526482988318850000016607122403931597450_);fill:#FFFFFF;" d="M127.11,110.57
			l3.74-17.82c0.07-0.34,0.41-0.61,0.74-0.61h3.6c0.34,0,0.55,0.28,0.48,0.61l-3.47,16.22c-0.08,0.36-0.14,1.6-1.52,1.6H127.11z"/>
		<path style="clip-path:url(#SVGID_00000147202526482988318850000016607122403931597450_);fill:#FFFFFF;" d="M152.13,92.14h-10.45
			h0h-2.14h-0.05c-0.53,0.03-0.79,0.3-0.92,0.77l-0.5,2.28c-0.2,0.79,0.42,0.75,0.42,0.75h0.4h6.83c0,0-5.72,6.28-8.81,9.49
			c-0.87,0.9-1.36,1.73-1.5,2.25l-0.63,2.89h12.72c0.11,0,0.61-0.04,0.76-0.75l0.51-2.28c0.1-0.46-0.03-0.72-0.51-0.76l0-0.01h-0.04
			h-1.69h0h-5.54c0,0,10.05-10.81,10.34-11.14C151.83,95.14,152.13,92.14,152.13,92.14"/>
		<path style="clip-path:url(#SVGID_00000147202526482988318850000016607122403931597450_);fill:#FFFFFF;" d="M103.26,92.13
			c0.48,0,0.55,0.32,0.43,0.8l-0.52,2.38c-0.13,0.65-0.59,0.61-0.59,0.61h-5.3c-1.46,0-2.83,1.1-3.39,3.92l-0.54,2.66
			c-0.56,2.82,0.9,4.19,2.36,4.19h4.33c0,0,0.7-0.01,0.58,0.54l-0.54,2.55c-0.1,0.47-0.33,0.73-0.63,0.73h-4.92
			c-4.3,0-6.99-2.85-5.95-8.01l0.53-2.66c1.03-5.16,3.19-7.77,9.08-7.71H103.26z"/>
		<path style="clip-path:url(#SVGID_00000147202526482988318850000016607122403931597450_);fill:#FFFFFF;" d="M82.08,100.14
			l-0.53,2.66c-0.52,2.59-1.72,3.73-3.04,3.89h-2.07c-1.46,0-2.92-1.37-2.36-4.19l0.53-2.66c0.52-2.59,1.72-3.73,3.04-3.89h2.07
			C81.18,95.95,82.64,97.33,82.08,100.14 M84.07,92.79c-0.89-0.43-1.95-0.65-3.12-0.65h-2.03c-1.14-0.01-2.13,0.08-3.01,0.26
			c-3.67,0.78-5.24,3.28-6.07,7.45l-0.53,2.66c-0.75,3.72,0.45,6.24,2.78,7.36c0.89,0.43,1.95,0.65,3.13,0.65h2.02
			c1.14,0.01,2.13-0.08,3.01-0.26c3.68-0.78,5.24-3.28,6.07-7.45l0.53-2.66C87.6,96.42,86.41,93.9,84.07,92.79"/>
		<path style="clip-path:url(#SVGID_00000147202526482988318850000016607122403931597450_);fill:#FFFFFF;" d="M128.56,86.09
			L128.56,86.09H125c-0.34,0-0.68,0.28-0.75,0.62l-0.27,1.25h0l-4.52,21.01c0,0-0.52,1.59,1.04,1.59h3.51l4.24-20.12
			c0-0.02,0.01-0.03,0.01-0.04l0.79-3.68C129.13,86.37,128.91,86.09,128.56,86.09"/>
		<path style="clip-path:url(#SVGID_00000147202526482988318850000016607122403931597450_);fill:#FFFFFF;" d="M62.52,106.62
			c-2.76,0-2.14-2.35-2.14-2.35l3.23-15.47l0.45-2.08c0.07-0.34-0.14-0.62-0.49-0.62h-3.57c-0.34,0-0.68,0.28-0.75,0.62l-0.48,2.2
			l-3.26,15.37c-0.49,2.23-0.35,3.82,0.5,4.81c0.86,0.99,2.18,1.48,3.96,1.48h4.35h3.76h0.02v0c0.29-0.01,0.75-0.02,0.61-0.61
			c0,0-1.28-1.79-1.76-3.34H62.52z"/>
	</g>
</g>
</svg>
