<?xml version="1.0" encoding="utf-8"?>
<!-- Generator: Adobe Illustrator 28.0.0, SVG Export Plug-In . SVG Version: 6.00 Build 0)  -->
<svg version="1.1" id="Layer_1" xmlns="http://www.w3.org/2000/svg" xmlns:xlink="http://www.w3.org/1999/xlink" x="0px" y="0px"
	 viewBox="0 0 198.43 198.43" style="enable-background:new 0 0 198.43 198.43;" xml:space="preserve">
<style type="text/css">
	.st0{fill-rule:evenodd;clip-rule:evenodd;fill:#8A374A;}
	.st1{fill-rule:evenodd;clip-rule:evenodd;fill:#FFFFFF;}
	.st2{fill-rule:evenodd;clip-rule:evenodd;fill:#222F4F;}
</style>
<g>
	<rect x="72.9" y="55.39" class="st0" width="37.66" height="25.11"/>
	<g>
		<path class="st1" d="M78.59,61.85h-0.63c0,0-0.06-0.01-0.09-0.03c-0.03-0.02-0.04-0.04-0.04-0.07c0-0.03,0.02-0.05,0.04-0.07
			c0.03-0.02,0.05-0.03,0.05-0.03h2.86l1.01,7.67l1.29-7.67h2.85c0,0,0.07,0.01,0.1,0.03c0.03,0.02,0.04,0.04,0.04,0.07
			c0,0.03-0.01,0.06-0.04,0.08c-0.03,0.02-0.06,0.03-0.06,0.03h-0.72v12.18h0.7c0.02,0,0.04,0,0.04,0.02
			c0.03,0.02,0.03,0.06,0.03,0.09c0,0.03,0,0.06-0.02,0.07c-0.01,0.01-0.03,0.02-0.05,0.02H82.5c0,0-0.05-0.01-0.08-0.03
			c-0.03-0.02-0.04-0.04-0.04-0.07c0-0.03,0.01-0.06,0.04-0.08c0.03-0.02,0.05-0.02,0.05-0.02h0.75V62.4l-1.85,11.54
			c-0.03,0.15-0.05,0.24-0.07,0.26c-0.03,0.02-0.05,0.04-0.1,0.04h-0.68c-0.04,0-0.07-0.01-0.1-0.04c-0.02-0.02-0.04-0.11-0.06-0.26
			l-1.49-11.42v10.61c0,0.29,0.03,0.49,0.11,0.61c0.07,0.12,0.2,0.2,0.38,0.26l0.46,0.04c0.04,0.02,0.06,0.05,0.06,0.09
			c0,0.05-0.01,0.07-0.03,0.09c-0.02,0.01-0.06,0.02-0.13,0.02h-1.82c-0.03,0-0.05-0.01-0.07-0.02c-0.01-0.02-0.02-0.03-0.02-0.06
			c0-0.02,0.01-0.04,0.02-0.06c0.02-0.01,0.08-0.03,0.18-0.06c0.21-0.07,0.35-0.15,0.43-0.26c0.1-0.14,0.15-0.35,0.15-0.62V61.85z"
			/>
		<path class="st1" d="M87.44,72.82c-0.07,0.45-0.19,0.77-0.35,0.96c-0.11,0.12-0.27,0.19-0.47,0.21l-0.13,0.04
			c-0.02,0.02-0.03,0.05-0.03,0.09c0,0.03,0.01,0.06,0.03,0.08c0.03,0.02,0.05,0.03,0.09,0.03h1.78c0.03,0,0.06-0.01,0.09-0.03
			c0.02-0.02,0.03-0.05,0.03-0.08c0-0.03-0.01-0.06-0.04-0.09l-0.17-0.04c-0.2-0.02-0.36-0.1-0.48-0.23
			c-0.12-0.12-0.17-0.31-0.17-0.55c0-0.08,0-0.15,0-0.22l0.22-1.34h1.9l0.29,2.39h-0.5c-0.03,0-0.06,0.01-0.08,0.02
			c-0.02,0.02-0.03,0.04-0.03,0.08c0,0.03,0.02,0.05,0.03,0.07c0.03,0.02,0.05,0.03,0.08,0.03h3.12c0.08-0.04,0.12-0.07,0.12-0.1
			c0-0.03-0.04-0.07-0.12-0.1H92.2l-1.84-12.21h-1.13L87.44,72.82z M89.73,71.42h-1.84l1.05-6.47L89.73,71.42z"/>
		<path class="st1" d="M93.85,61.85h-0.66c-0.07-0.04-0.12-0.07-0.12-0.1c0-0.03,0.04-0.07,0.12-0.1h3.47
			c0.03,0,0.06,0.01,0.09,0.03c0.03,0.02,0.04,0.04,0.04,0.07c0,0.03-0.01,0.06-0.04,0.08c-0.02,0.02-0.05,0.03-0.05,0.03h-0.7
			v12.16h0.44c0.31,0,0.59-0.07,0.83-0.21c0.23-0.14,0.46-0.43,0.69-0.88c0.33-0.66,0.57-1.37,0.72-2.15
			c0.15-0.78,0.23-1.27,0.23-1.49c0.01-0.08,0.02-0.13,0.04-0.15l0.08-0.02l0.09,0.02c0.03,0.02,0.04,0.05,0.04,0.08l-0.08,5.03
			h-5.87c-0.03,0-0.06-0.01-0.09-0.03c-0.03-0.02-0.04-0.04-0.04-0.07c0-0.03,0.01-0.06,0.04-0.08c0.03-0.02,0.05-0.02,0.09-0.02
			h0.66V61.85z"/>
		<path class="st1" d="M100.36,61.85H99.7c-0.08-0.04-0.12-0.07-0.12-0.1c0-0.03,0.04-0.07,0.11-0.1h3.47c0,0,0.06,0.01,0.09,0.03
			c0.02,0.02,0.04,0.04,0.04,0.07c0,0.03-0.01,0.06-0.03,0.08c-0.03,0.02-0.06,0.03-0.09,0.03h-0.66v12.16h0.44
			c0.31,0,0.59-0.07,0.82-0.21c0.24-0.14,0.47-0.43,0.7-0.88c0.32-0.66,0.56-1.37,0.71-2.15c0.15-0.78,0.23-1.27,0.23-1.49
			c0.01-0.08,0.02-0.13,0.04-0.15l0.08-0.02l0.09,0.02c0.03,0.02,0.04,0.05,0.04,0.08l-0.08,5.03H99.7c-0.03,0-0.06-0.01-0.09-0.03
			c-0.03-0.02-0.04-0.04-0.04-0.07c0-0.03,0.01-0.06,0.04-0.08c0.03-0.02,0.06-0.02,0.09-0.02h0.65V61.85z"/>
		<path class="st2" d="M127.59,85.33c0.15-0.01,0.3-0.08,0.4-0.2c0.08-0.09,7.84-9.09,11.97-11.59c0.55-0.24,1.4-0.94,1.1-2.13
			c-0.26-1.06-1.5-2.49-2.37-2.74c-0.36-0.1-0.7-0.02-0.93,0.21c-0.4,0.39-0.45,0.8-0.49,1.07c0,0-0.02,0.15-0.02,0.16
			c-0.23,0.21-7.59,7.45-9.89,12.3c-0.23,0.49-0.52,1.24-0.52,1.87c0,0.35,0.09,0.67,0.33,0.89
			C127.28,85.29,127.43,85.34,127.59,85.33"/>
		<path class="st2" d="M53.08,72.59c0,3.4-0.83,8.55-7.07,18.25c-0.34,0.53-0.69,1-1.03,1.48c1.14-20.88,6.01-25.21,6.51-25.57
			c0.48,0.1,1.56,2.35,1.58,5.73V72.59z M31.33,99.29c0-0.02-0.01-0.04-0.01-0.06c-0.07-0.4-0.1-0.8-0.1-1.17
			c0-2.7,1.59-4.64,2.62-5.62c1.38-1.3,2.65-1.76,2.99-1.74c0.12,0.1,0.21,0.31,0.23,0.59c0.01,0.06,0.01,0.11,0.01,0.18
			c0,1.2-0.94,3.34-3.62,5.98C32.65,98.22,31.95,98.82,31.33,99.29 M25.42,100.01c-0.01-0.03-0.01-0.05-0.01-0.06
			C25.41,99.98,25.42,99.99,25.42,100.01C25.42,100.01,25.42,100.01,25.42,100.01 M51.47,63.84c-0.65,0-1.95,0.22-3.36,1.69
			c-2.82,2.95-5.91,10.63-5.91,30.08c0,0.09,0.01,0.18,0.01,0.27c-3.5,3.92-6.82,5.81-8.81,5.65c2.76-2.45,5.45-6.12,6.11-8.96
			c0.13-0.56,0.19-1.07,0.19-1.53c0-1.03-0.33-1.77-0.99-2.23c-1.35-0.91-3.6-0.18-5.25,0.94c-2.26,1.55-4.44,4.8-4.44,8.6
			c0,0.48,0.03,0.96,0.11,1.45c0.04,0.26,0.11,0.48,0.17,0.72c-0.58,0.25-1.03,0.33-1.38,0.32c-0.51-0.01-0.93-0.2-1.28-0.57
			c-0.75-0.79-1.3-1.08-1.78-0.94c-0.35,0.1-0.53,0.4-0.57,0.63c-0.01,0.08-0.01,0.16,0,0.23c0.31,1.37,1.59,3.96,4.26,3.96
			c0.63,0,1.38-0.25,2.19-0.69c0.36,0.37,0.75,0.69,1.22,0.89c1.22,0.55,3.39,0.72,6.78-1.54c1.07-0.71,2.27-1.77,3.52-3.06
			c0.04,1.92,0.1,3.92,0.2,6.04c0.5,10.98,1.55,20.54,3.13,28.43c0.06,0.3,0.35,0.51,0.65,0.46c0.28-0.05,0.49-0.29,0.49-0.57
			c0-0.02,0-0.04,0-0.06c-1.42-13.26-1.97-23.95-1.97-32.56c0-1.61,0.02-3.14,0.06-4.61c4.01-4.85,8.05-11.31,9.84-16.24
			c0.83-2.28,1.18-4.71,1.18-7c0-3.46-0.82-6.59-2.04-8.34C52.93,64.1,52.05,63.84,51.47,63.84"/>
		<path class="st2" d="M62.67,69.98c1.11-0.8,3.16-1.83,3.59-1.56l0.01,0.03c0.04,0.1,0.06,0.18,0.06,0.27
			c0,0.08-0.02,0.17-0.06,0.26c-0.34,0.79-1.8,1.54-2.46,1.77c-1.01,0.36-1.44,0.39-1.62,0.37C62.22,70.96,62.32,70.61,62.67,69.98
			 M64.18,73.41c2.57-0.85,4.49-2.45,4.88-4.08c0.05-0.21,0.08-0.42,0.08-0.62c0-0.67-0.26-1.29-0.77-1.81
			c-0.15-0.15-0.32-0.27-0.48-0.39c0.03-0.09,0.07-0.19,0.07-0.27c0-0.39-0.22-0.71-0.31-0.85c-0.56-0.82-1.77-0.86-2.72-0.53
			c-1.88,0.65-3.47,1.94-4.71,3.83c-0.98,1.51-1.1,3.01-0.33,4.01C60.7,73.78,62.27,74.03,64.18,73.41"/>
		<path class="st2" d="M109.89,100.38l-0.37,0.37c-0.46,0.48-1.24,0.87-1.81,0.65c-0.68-0.26-1.09-1.38-1.16-3.16
			c-0.1-2.84,0.75-5.49,2.29-7.07c0.85-0.88,1.83-1.34,2.83-1.34c1.5,0,2.16,1.3,2.7,2.63c0.03,0.06,0.05,0.11,0.07,0.17
			C113.06,97.27,110.93,99.37,109.89,100.38 M80.93,101.68c-0.91-0.06-1.5-1.16-1.63-3.01c-0.3-4.31,1.59-6.83,2.41-7.71
			c0.86-0.91,1.57-1.21,1.78-1.21c0.62,0,1.22,1.24,1.4,1.81c0.01,0.04,0.04,0.09,0.06,0.12c0.01,0.02,0.11,0.29,0.15,0.4
			c0.02,0.08,0.2,0.48,0.6,0.65c-0.29,0.53-0.39,1.32-0.39,2.14c0,0.27,0.01,0.55,0.03,0.81C84.59,99.34,82.42,101.77,80.93,101.68
			 M63.34,139.23c-0.92-1.52-2.71-7.6-2.71-14.53c0-4.82,0.87-10.02,3.5-14.33c1.3-2.12,2.65-4.03,3.98-5.72
			c0.02,0.98,0.04,1.95,0.04,2.89C68.15,124.6,64.66,136.81,63.34,139.23 M173.93,115.39c-0.25-0.19-0.49-0.16-1.48-0.01
			c-2.96,0.43-10.83,1.57-15.19-3.72c-5.39-6.56-8.81-22.39-9.19-24.17c-0.26-1.26-1.08-2.04-1.73-2.66
			c-0.3-0.29-0.59-0.56-0.77-0.83c-0.15-0.22-0.39-0.33-0.65-0.28c-0.61,0.11-0.77,0.61-2.01,5.9c-0.79,3.35-2.41,10.25-3.36,10.91
			c-0.49-0.11-1.34-2.53-1.8-3.85c-1.1-3.13-2.24-6.36-4.4-6.49c-0.2-0.06-0.46-0.07-0.74,0.07c-0.63,0.3-1.07,1.2-1.35,2.72
			l-0.23,1.3c-0.31,1.82-0.99,5.76-1.56,7.09c-0.54-1.49-1.27-5.88-1.65-8.14c-0.34-2.03-0.46-2.77-0.57-3.03
			c-0.19-0.48-1.79-1.93-1.99-2c-0.19-0.07-0.41-0.03-0.56,0.1l-0.8,0.66c-0.13,0.11-0.21,0.27-0.21,0.44
			c-0.01,4.67-0.86,11.58-2.64,11.58c-0.94,0-2.1-4.72-3.01-11.45c0.15-1.95,0.27-4.24,0.27-6.69c0-2-0.08-4.08-0.26-6.12
			c-0.07-0.73-0.66-2.08-2.36-2.08c-0.08,0-0.15,0.01-0.22,0.04c-0.26,0.11-0.86,0.55-0.86,2.26c0,0.04,0,0.44,0,0.44
			c0.03,3.35,0.16,7.45,0.52,11.44c-0.64-0.76-1.9-1.93-3.68-1.93c-1.97,0-5.57,0.86-7.46,6.61c-0.69,2.1-0.85,4.28-0.51,6.16
			c-0.05,0.13-0.49,1.21-1.33,1.21c-0.32-0.13-0.82-1.16-1.41-5.37l-0.12-0.85c-0.2-1.28-0.62-2.88-1.34-4.07
			c0,0-0.55-1.18-2.36-2.66c-1.53-1.25-2.6,1.53-2.27,2.23c0.24,0.51,0.03,1.67-0.11,2.28c0,0.01,0,0.01-0.01,0.01
			c0,0.03-0.01,0.07-0.02,0.1c-0.04,0.18-0.07,0.29-0.07,0.29l0.01,0c-0.51,1.89-2.67,6.23-3.31,6.42c-0.19-0.61-0.41-1.5-0.55-2.13
			l-0.43-1.73c-0.42-1.47-1.53-2.52-2.37-2.98c-0.22-0.12-0.5-0.22-0.78-0.27c0.11-0.22,0.18-0.45,0.23-0.66
			c0.07-0.19,0.11-0.41,0.11-0.65c0-0.12-0.01-0.24-0.03-0.36c-0.13-0.95-0.82-2.32-2.37-3.33c-0.8-0.52-1.87-0.56-3.02-0.11
			c-1.6,0.63-3.57,2.37-4.87,5.44c-2.02,1.1-4.05,2.52-6.03,4.21c-0.99-7.42-3-20.37-3.02-20.5c0,0-0.27-0.77-1.1-0.18
			c-0.29,0.21-0.7,0.38-1.08,0.61l-0.02-0.01c0,0-1.19,0.61-1.46,1.59c-0.27,0.95,0.49,1.17,0.64,1.66
			c1.6,6.95,2.48,13.62,2.87,19.83c-2.55,2.64-4.96,5.67-7.09,9.04c-2.69,4.26-3.64,9.68-3.64,14.86c0,5.33,1.01,10.4,2.2,13.67
			c1.24,3.42,2.58,5.34,3.99,5.72c0.87,0.23,1.42-0.21,1.48-0.26c3.97-3.11,6.5-29.02,6.5-40.99c0-0.28-0.01-0.54-0.01-0.8
			c1.73-1.84,3.34-3.32,4.68-4.44c-0.32,2.88,0.61,4.83,1.53,6.02c1.21,1.55,2.77,2.25,3.71,2.25c1.08,0,3.78-0.53,5.58-5.48
			c0.21-0.57,0.39-1.45,0.57-2.3c0,0,0.05-0.24,0.09-0.4c0.01,0.04,0.04,0.08,0.04,0.12c0.01,0.08,1.37,8.02,3.67,8.02
			c1.08,0,2.41-1.8,5.43-10.6l0.22-0.63c0.09-0.24,0.3-0.35,0.46-0.34c0.23,0.02,0.4,0.3,0.48,0.74l0.07,0.53
			c0.67,4.85,1.82,10.41,4.79,10.41c0.98,0,1.8-0.32,2.41-0.95c0.12-0.12,0.22-0.25,0.32-0.38c0.86,0.82,1.93,1.26,3.15,1.26
			c3.38,0,6.37-4.54,7.86-7.51c1.01,4.41,2.58,7.57,5.01,7.57c0.78,0,1.48-0.31,2.08-0.93c1.21-1.24,1.88-3.64,2.24-6.01
			c1.01,3.73,2.35,7.06,3.91,7.06c3.04,0,4.26-8.57,4.51-10.63c0.3,0.42,0.71,1.18,1.06,2.46c1.54,5.62,2.92,8.13,4.47,8.13
			c2,0,4.76-8.24,5.88-12.01c1.32,5.11,4.73,17.95,13.78,22.85c4.18,2.26,9.04,2.48,14.42,0.65c0.2-0.07,0.35-0.25,0.38-0.46
			C174.19,115.73,174.1,115.52,173.93,115.39"/>
	</g>
</g>
</svg>
