<?xml version="1.0" encoding="utf-8"?>
<!-- Generator: Adobe Illustrator 28.0.0, SVG Export Plug-In . SVG Version: 6.00 Build 0)  -->
<svg version="1.1" id="Layer_1" xmlns="http://www.w3.org/2000/svg" xmlns:xlink="http://www.w3.org/1999/xlink" x="0px" y="0px"
	 viewBox="0 0 198.43 198.43" style="enable-background:new 0 0 198.43 198.43;" xml:space="preserve">
<style type="text/css">
	.st0{fill-rule:evenodd;clip-rule:evenodd;fill:#151515;}
	.st1{fill:none;stroke:#717272;stroke-width:0.837;stroke-miterlimit:10;}
	.st2{fill:none;stroke:#717272;stroke-width:0.216;stroke-miterlimit:10;}
	.st3{fill-rule:evenodd;clip-rule:evenodd;fill:#E7AA4E;}
	.st4{fill-rule:evenodd;clip-rule:evenodd;}
</style>
<g>
	<path class="st0" d="M57.92,149.31c-0.1,0.43-0.31,0.87-0.31,1.3c0,0.36,3.32,0.36,3.73,0.36c0.31,0,3.63,0,3.63-0.44
		c0-0.36-0.1-0.73-0.26-1.38l-2.75-11.44c-0.05-0.14-0.1-0.43-0.31-0.43c-0.1,0-0.21,0.14-0.26,0.36L57.92,149.31z M66.27,156.05
		c-0.42-1.81-0.62-1.81-4.88-1.88c-3.53-0.07-4.36,0.21-4.57,0.79c-1.24,3.55-3.68,13.54-3.68,14.34c0,1.45,1.09,2.03,1.5,2.17
		c1.61,0.58,2.64,0.87,2.64,1.45c0,0.87-0.83,0.87-1.19,0.87c-1.4,0-3.06-0.29-4.56-0.29c-1.97,0-4,0.29-5.76,0.29
		c-0.42,0-0.62-0.22-0.62-0.87c0-0.95,1.35-0.8,2.64-1.45c1.04-0.51,1.29-1.01,1.56-1.81l13.23-41.94c0.1-0.29,0.31-0.43,0.52-0.43
		c0.31,0,0.57,0.22,0.62,0.51l9.65,38.46c0.98,3.98,2.02,4.93,2.7,5.22c1.4,0.58,2.39,0.36,2.39,1.45c0,0.72-0.42,0.87-1.04,0.87
		c-2.23,0-3.99-0.29-6.02-0.29c-1.92,0-3.73,0.29-5.76,0.29c-0.52,0-0.73-0.51-0.73-0.8c0-0.87,1.04-1.09,2.91-1.52
		c0.31-0.07,1.3-0.65,1.3-1.88c0-0.51-0.21-1.23-0.31-1.81L66.27,156.05z"/>
	<path class="st1" d="M57.92,149.31c-0.1,0.43-0.31,0.87-0.31,1.3c0,0.36,3.32,0.36,3.73,0.36c0.31,0,3.63,0,3.63-0.44
		c0-0.36-0.1-0.73-0.26-1.38l-2.75-11.44c-0.05-0.14-0.1-0.43-0.31-0.43c-0.1,0-0.21,0.14-0.26,0.36L57.92,149.31z M66.27,156.05
		c-0.42-1.81-0.62-1.81-4.88-1.88c-3.53-0.07-4.36,0.21-4.57,0.79c-1.24,3.55-3.68,13.54-3.68,14.34c0,1.45,1.09,2.03,1.5,2.17
		c1.61,0.58,2.64,0.87,2.64,1.45c0,0.87-0.83,0.87-1.19,0.87c-1.4,0-3.06-0.29-4.56-0.29c-1.97,0-4,0.29-5.76,0.29
		c-0.42,0-0.62-0.22-0.62-0.87c0-0.95,1.35-0.8,2.64-1.45c1.04-0.51,1.29-1.01,1.56-1.81l13.23-41.94c0.1-0.29,0.31-0.43,0.52-0.43
		c0.31,0,0.57,0.22,0.62,0.51l9.65,38.46c0.98,3.98,2.02,4.93,2.7,5.22c1.4,0.58,2.39,0.36,2.39,1.45c0,0.72-0.42,0.87-1.04,0.87
		c-2.23,0-3.99-0.29-6.02-0.29c-1.92,0-3.73,0.29-5.76,0.29c-0.52,0-0.73-0.51-0.73-0.8c0-0.87,1.04-1.09,2.91-1.52
		c0.31-0.07,1.3-0.65,1.3-1.88c0-0.51-0.21-1.23-0.31-1.81L66.27,156.05z"/>
	<path class="st0" d="M95.39,167.14c0.12,0.21,0.19,0.32,0.3,0.32c0.11,0,0.15-0.21,0.15-0.53v-13.41c0-1.74-0.26-1.9-1.25-2.06
		c-1.29-0.26-1.85-0.26-1.85-0.9c0-0.37,0.23-0.53,0.57-0.53c0.68,0,1.7,0.21,3.03,0.21c1.32,0,1.89-0.21,2.65-0.21
		c0.53,0,0.72,0.16,0.72,0.53c0,0.58-0.57,0.58-1.29,0.69c-0.83,0.16-1.44,0.74-1.44,2.38v17.95c0,1.43,0.07,2.11,0.07,2.38
		c0,0.26-0.04,0.48-0.26,0.48c-0.23,0-0.42-0.21-0.64-0.53l-12.97-18.74c-0.11-0.16-0.19-0.37-0.34-0.37c-0.11,0-0.23,0.79-0.23,1.9
		v9.82c0,5.49,0.42,5.76,1.78,5.91c0.91,0.11,1.78,0.26,1.78,0.79c0,0.47-0.19,0.58-0.6,0.58c-0.76,0-1.74-0.21-3.25-0.21
		c-1.67,0-2.57,0.21-3.21,0.21c-0.3,0-0.57-0.05-0.57-0.53c0-1.05,2.08-0.53,2.46-1.37c0.3-0.58,0.49-3.06,0.49-5.39v-12.25
		c0-2.27-0.79-2.85-1.93-3.01c-0.91-0.11-1.17-0.16-1.17-0.64c0-0.32,0.12-0.58,0.57-0.58c0.68,0,2.15,0.21,3.59,0.21
		c0.99,0,1.21,0.16,1.48,0.53L95.39,167.14z"/>
	<path class="st1" d="M95.39,167.14c0.12,0.21,0.19,0.32,0.3,0.32c0.11,0,0.15-0.21,0.15-0.53v-13.41c0-1.74-0.26-1.9-1.25-2.06
		c-1.29-0.26-1.85-0.26-1.85-0.9c0-0.37,0.23-0.53,0.57-0.53c0.68,0,1.7,0.21,3.03,0.21c1.32,0,1.89-0.21,2.65-0.21
		c0.53,0,0.72,0.16,0.72,0.53c0,0.58-0.57,0.58-1.29,0.69c-0.83,0.16-1.44,0.74-1.44,2.38v17.95c0,1.43,0.07,2.11,0.07,2.38
		c0,0.26-0.04,0.48-0.26,0.48c-0.23,0-0.42-0.21-0.64-0.53l-12.97-18.74c-0.11-0.16-0.19-0.37-0.34-0.37c-0.11,0-0.23,0.79-0.23,1.9
		v9.82c0,5.49,0.42,5.76,1.78,5.91c0.91,0.11,1.78,0.26,1.78,0.79c0,0.47-0.19,0.58-0.6,0.58c-0.76,0-1.74-0.21-3.25-0.21
		c-1.67,0-2.57,0.21-3.21,0.21c-0.3,0-0.57-0.05-0.57-0.53c0-1.05,2.08-0.53,2.46-1.37c0.3-0.58,0.49-3.06,0.49-5.39v-12.25
		c0-2.27-0.79-2.85-1.93-3.01c-0.91-0.11-1.17-0.16-1.17-0.64c0-0.32,0.12-0.58,0.57-0.58c0.68,0,2.15,0.21,3.59,0.21
		c0.99,0,1.21,0.16,1.48,0.53L95.39,167.14z"/>
	<path class="st0" d="M107.95,150.99c-1.67,0-1.97,0.11-1.97,1.8v15.73c0,3.17,0.83,3.9,2.87,3.9c4.39,0,7.64-3.59,7.64-10.19
		C116.49,156.16,112.94,150.99,107.95,150.99 M103.18,153.68c0-1.95-0.45-2.11-1.44-2.22c-1.21-0.1-1.47-0.26-1.47-0.74
		c0-0.42,0.26-0.58,0.98-0.58c0.68,0,1.62,0.05,2.83,0c1.29-0.05,3.18-0.32,5.6-0.32c5.22,0,9.61,4.33,9.61,12.04
		c0,9.61-6.8,11.93-9.91,11.93c-1.74,0-3.18-0.21-4.39-0.21c-1.7,0-2.46,0.21-3.67,0.21c-0.3,0-0.57-0.16-0.57-0.53
		c0-0.63,0.61-0.63,1.21-0.85c0.6-0.21,1.21-0.68,1.21-2.43V153.68z"/>
	<path class="st1" d="M107.95,150.99c-1.67,0-1.97,0.11-1.97,1.8v15.73c0,3.17,0.83,3.9,2.87,3.9c4.39,0,7.64-3.59,7.64-10.19
		C116.49,156.16,112.94,150.99,107.95,150.99z M103.18,153.68c0-1.95-0.45-2.11-1.44-2.22c-1.21-0.1-1.47-0.26-1.47-0.74
		c0-0.42,0.26-0.58,0.98-0.58c0.68,0,1.62,0.05,2.83,0c1.29-0.05,3.18-0.32,5.6-0.32c5.22,0,9.61,4.33,9.61,12.04
		c0,9.61-6.8,11.93-9.91,11.93c-1.74,0-3.18-0.21-4.39-0.21c-1.7,0-2.46,0.21-3.67,0.21c-0.3,0-0.57-0.16-0.57-0.53
		c0-0.63,0.61-0.63,1.21-0.85c0.6-0.21,1.21-0.68,1.21-2.43V153.68z"/>
	<path class="st0" d="M125.7,159.75c0,0.53,0.26,0.84,1.06,0.84h2.87c1.1,0,1.7-0.05,2.38-0.79c0.6-0.63,0.79-2.27,1.1-2.27
		c0.3,0,0.38,0.21,0.38,0.79c0,0.53-0.11,1.27-0.15,3.11c-0.04,1.9,0,3.22,0,3.91c0,0.37-0.11,0.53-0.38,0.53
		c-0.38,0-0.19-1.21-0.87-2.8c-0.34-0.84-1.48-1.32-2.46-1.32h-2.95c-0.72,0-0.99,0.32-0.99,1v7.71c0,1.27,0.68,1.95,4.12,1.95
		c2.16,0,3.56-0.68,4.16-1.9c0.79-1.58,0.98-3.06,1.36-3.06c0.26,0,0.34,0.21,0.34,0.53c0,0.42-0.34,2.85-0.53,4.17
		c-0.15,1-0.19,1.64-0.57,1.64c-0.87,0-3.44-0.21-7.15-0.21c-3.25,0-5.82,0.21-6.88,0.21c-0.49,0-0.68-0.16-0.68-0.58
		c0-0.79,0.76-0.69,1.51-0.79c0.95-0.16,1.51-0.53,1.51-2.21v-15.84c0-2.53-0.34-3.01-1.17-3.06c-0.83-0.05-1.21-0.27-1.21-0.63
		c0-0.37,0.11-0.64,0.57-0.64c1.06,0,2.65,0.21,5.86,0.21c3.29,0,5.48-0.21,7.22-0.21c0.91,0,0.98,0.21,0.98,0.95v3.85
		c0,0.53-0.08,0.79-0.27,0.79c-0.57,0-0.38-1.69-1.29-2.69c-0.94-1.11-2.34-1.74-4.99-1.74c-2.83,0-2.91,0.53-2.91,1.48V159.75z"/>
	<path class="st1" d="M125.7,159.75c0,0.53,0.26,0.84,1.06,0.84h2.87c1.1,0,1.7-0.05,2.38-0.79c0.6-0.63,0.79-2.27,1.1-2.27
		c0.3,0,0.38,0.21,0.38,0.79c0,0.53-0.11,1.27-0.15,3.11c-0.04,1.9,0,3.22,0,3.91c0,0.37-0.11,0.53-0.38,0.53
		c-0.38,0-0.19-1.21-0.87-2.8c-0.34-0.84-1.48-1.32-2.46-1.32h-2.95c-0.72,0-0.99,0.32-0.99,1v7.71c0,1.27,0.68,1.95,4.12,1.95
		c2.16,0,3.56-0.68,4.16-1.9c0.79-1.58,0.98-3.06,1.36-3.06c0.26,0,0.34,0.21,0.34,0.53c0,0.42-0.34,2.85-0.53,4.17
		c-0.15,1-0.19,1.64-0.57,1.64c-0.87,0-3.44-0.21-7.15-0.21c-3.25,0-5.82,0.21-6.88,0.21c-0.49,0-0.68-0.16-0.68-0.58
		c0-0.79,0.76-0.69,1.51-0.79c0.95-0.16,1.51-0.53,1.51-2.21v-15.84c0-2.53-0.34-3.01-1.17-3.06c-0.83-0.05-1.21-0.27-1.21-0.63
		c0-0.37,0.11-0.64,0.57-0.64c1.06,0,2.65,0.21,5.86,0.21c3.29,0,5.48-0.21,7.22-0.21c0.91,0,0.98,0.21,0.98,0.95v3.85
		c0,0.53-0.08,0.79-0.27,0.79c-0.57,0-0.38-1.69-1.29-2.69c-0.94-1.11-2.34-1.74-4.99-1.74c-2.83,0-2.91,0.53-2.91,1.48V159.75z"/>
	<path class="st0" d="M138.04,167.52c0-0.95,0.23-1.32,0.53-1.32c0.83,0-0.15,6.86,5.44,6.86c2.72,0,3.86-1.69,3.86-4.07
		c0-5.65-9.07-4.91-9.07-13.25c0-4.12,2.42-6.33,5.9-6.33c2.5,0,4.24,1.37,4.27,2c0.04,0.84,0.19,2.8,0.19,3.7
		c0,0.58-0.11,0.95-0.41,0.95c-0.41,0-0.34-0.68-0.95-2.32c-0.53-1.27-1.44-2.96-3.89-2.96c-1.85,0-2.99,1.16-2.99,3.7
		c0,5.28,9.3,4.75,9.3,12.57c0,4.54-2.57,7.39-6.2,7.39c-3.55,0-5.97-1.16-5.97-2.96V167.52z"/>
	<path class="st1" d="M138.04,167.52c0-0.95,0.23-1.32,0.53-1.32c0.83,0-0.15,6.86,5.44,6.86c2.72,0,3.86-1.69,3.86-4.07
		c0-5.65-9.07-4.91-9.07-13.25c0-4.12,2.42-6.33,5.9-6.33c2.5,0,4.24,1.37,4.27,2c0.04,0.84,0.19,2.8,0.19,3.7
		c0,0.58-0.11,0.95-0.41,0.95c-0.41,0-0.34-0.68-0.95-2.32c-0.53-1.27-1.44-2.96-3.89-2.96c-1.85,0-2.99,1.16-2.99,3.7
		c0,5.28,9.3,4.75,9.3,12.57c0,4.54-2.57,7.39-6.2,7.39c-3.55,0-5.97-1.16-5.97-2.96V167.52z"/>
	<path class="st0" d="M78.32,116.72c-0.23-0.65-3.22-8.1-3.45-8.1c-0.26,0-0.26,4.14-0.26,6.42v11.68c0,0.82,1.27,1.25,2.21,1.42
		c1.5,0.3,2.06,0.3,2.06,0.86c0,0.52-0.52,0.52-1.05,0.52c-1.24,0-2.77-0.17-4.16-0.17c-1.31,0-2.84,0.17-4.16,0.17
		c-0.34,0-0.75-0.13-0.75-0.56c0-0.65,0.45-0.73,1.27-0.82c1.46-0.17,2.36-0.82,2.4-1.47l1.24-18.62c0.04-0.43,0.04-0.73,0.04-1.94
		c0-0.95-0.33-1.03-2.39-1.68c-1.12-0.35-1.68-0.35-1.68-0.82c0-0.3,0.04-0.56,0.94-0.56c0.86,0,1.68,0.09,2.54,0.09
		c0.97,0,1.95-0.09,2.92-0.09c0.3,0,0.52,0.13,0.64,0.39l7.41,18.58c0.04,0.13,0.15,0.22,0.26,0.22c0.11,0,0.22-0.13,0.26-0.26
		l6.63-17.29c0.19-0.52,0.53-1.64,1.09-1.64c0.45,0,2.51,0.09,2.96,0.09c1.01,0,2.06-0.09,3.07-0.09c0.19,0,0.45,0.3,0.45,0.52
		c0,0.91-1.09,0.73-1.76,0.86c-2.13,0.39-2.66,0.47-2.66,3.36v17.8c0,1.64,0.49,2.03,2.88,2.54c0.6,0.13,1.35,0.34,1.35,0.82
		c0,0.56-0.52,0.56-1.76,0.56c-1.61,0-2.25-0.17-3.11-0.17c-1.8,0-3.59,0.17-5.02,0.17c-0.41,0-0.94-0.04-0.94-0.73
		c0-0.47,0.94-0.56,1.39-0.65c1.76-0.39,1.98-0.48,1.98-1.72v-15.61c0-0.86-0.11-1.12-0.3-1.12c-0.11,0-0.22,0.09-0.3,0.26
		l-6.89,18.32c-0.07,0.21-0.3,0.3-0.49,0.3c-0.64,0-1.35-2.24-1.5-2.72L78.32,116.72z"/>
	<path class="st1" d="M78.32,116.72c-0.23-0.65-3.22-8.1-3.45-8.1c-0.26,0-0.26,4.14-0.26,6.42v11.68c0,0.82,1.27,1.25,2.21,1.42
		c1.5,0.3,2.06,0.3,2.06,0.86c0,0.52-0.52,0.52-1.05,0.52c-1.24,0-2.77-0.17-4.16-0.17c-1.31,0-2.84,0.17-4.16,0.17
		c-0.34,0-0.75-0.13-0.75-0.56c0-0.65,0.45-0.73,1.27-0.82c1.46-0.17,2.36-0.82,2.4-1.47l1.24-18.62c0.04-0.43,0.04-0.73,0.04-1.94
		c0-0.95-0.33-1.03-2.39-1.68c-1.12-0.35-1.68-0.35-1.68-0.82c0-0.3,0.04-0.56,0.94-0.56c0.86,0,1.68,0.09,2.54,0.09
		c0.97,0,1.95-0.09,2.92-0.09c0.3,0,0.52,0.13,0.64,0.39l7.41,18.58c0.04,0.13,0.15,0.22,0.26,0.22c0.11,0,0.22-0.13,0.26-0.26
		l6.63-17.29c0.19-0.52,0.53-1.64,1.09-1.64c0.45,0,2.51,0.09,2.96,0.09c1.01,0,2.06-0.09,3.07-0.09c0.19,0,0.45,0.3,0.45,0.52
		c0,0.91-1.09,0.73-1.76,0.86c-2.13,0.39-2.66,0.47-2.66,3.36v17.8c0,1.64,0.49,2.03,2.88,2.54c0.6,0.13,1.35,0.34,1.35,0.82
		c0,0.56-0.52,0.56-1.76,0.56c-1.61,0-2.25-0.17-3.11-0.17c-1.8,0-3.59,0.17-5.02,0.17c-0.41,0-0.94-0.04-0.94-0.73
		c0-0.47,0.94-0.56,1.39-0.65c1.76-0.39,1.98-0.48,1.98-1.72v-15.61c0-0.86-0.11-1.12-0.3-1.12c-0.11,0-0.22,0.09-0.3,0.26
		l-6.89,18.32c-0.07,0.21-0.3,0.3-0.49,0.3c-0.64,0-1.35-2.24-1.5-2.72L78.32,116.72z"/>
	<path class="st0" d="M108.84,119.61c0.22,0,0.3,0,0.3-0.13c0-0.21-0.08-0.6-0.38-1.59l-1.09-3.62c-0.04-0.17-0.11-0.35-0.22-0.35
		c-0.11,0-0.23,0.13-0.3,0.3l-1.27,3.75c-0.34,0.86-0.49,1.33-0.49,1.55c0,0.04,0.04,0.09,0.15,0.09H108.84z M105.33,121.16
		c-0.26,0-0.52,0.26-0.67,0.69l-0.83,2.24c-0.52,1.38-0.97,2.68-0.97,3.49c0,1.34,2.1,0.65,2.1,1.47c0,0.3-0.15,0.47-0.67,0.47
		c-0.56,0-0.9-0.17-2.66-0.17c-1.76,0-2.13,0.17-2.54,0.17c-0.3,0-0.41-0.13-0.41-0.34c0-0.86,1.76-0.39,2.43-2.11l6.7-16.94
		c0.15-0.39,0.38-0.52,0.56-0.52c0.19,0,0.34,0.17,0.45,0.52l5.76,17.07c0.75,2.03,2.21,1.16,2.21,1.9c0,0.39-0.19,0.43-0.82,0.43
		c-0.79,0-1.61-0.17-2.88-0.17c-1.8,0-2.77,0.17-3.22,0.17c-0.45,0-0.56-0.13-0.56-0.39c0-0.91,2.25-0.26,2.25-1.25
		c0-0.78-0.26-1.72-1.23-5.04l-0.26-0.95c-0.15-0.47-0.41-0.73-0.75-0.73H105.33z"/>
	<path class="st1" d="M108.84,119.61c0.22,0,0.3,0,0.3-0.13c0-0.21-0.08-0.6-0.38-1.59l-1.09-3.62c-0.04-0.17-0.11-0.35-0.22-0.35
		c-0.11,0-0.23,0.13-0.3,0.3l-1.27,3.75c-0.34,0.86-0.49,1.33-0.49,1.55c0,0.04,0.04,0.09,0.15,0.09H108.84z M105.33,121.16
		c-0.26,0-0.52,0.26-0.67,0.69l-0.83,2.24c-0.52,1.38-0.97,2.68-0.97,3.49c0,1.34,2.1,0.65,2.1,1.47c0,0.3-0.15,0.47-0.67,0.47
		c-0.56,0-0.9-0.17-2.66-0.17c-1.76,0-2.13,0.17-2.54,0.17c-0.3,0-0.41-0.13-0.41-0.34c0-0.86,1.76-0.39,2.43-2.11l6.7-16.94
		c0.15-0.39,0.38-0.52,0.56-0.52c0.19,0,0.34,0.17,0.45,0.52l5.76,17.07c0.75,2.03,2.21,1.16,2.21,1.9c0,0.39-0.19,0.43-0.82,0.43
		c-0.79,0-1.61-0.17-2.88-0.17c-1.8,0-2.77,0.17-3.22,0.17c-0.45,0-0.56-0.13-0.56-0.39c0-0.91,2.25-0.26,2.25-1.25
		c0-0.78-0.26-1.72-1.23-5.04l-0.26-0.95c-0.15-0.47-0.41-0.73-0.75-0.73H105.33z"/>
	<path class="st0" d="M131.51,129c-0.07,0.39-0.34,0.52-0.78,0.52c-2.25,0-4.46-0.17-8.01-0.17c-2.77,0-4.75,0.17-5.39,0.17
		c-0.33,0-0.45-0.13-0.45-0.43c0-0.52,0.9-0.56,1.91-0.69c0.52-0.04,1.24-0.47,1.24-1.77v-14.1c0-1.21-0.34-1.21-2.28-1.47
		c-0.37-0.09-0.49-0.13-0.49-0.47c0-0.3,0.15-0.47,0.86-0.47c0.97,0,2.17,0.17,3.41,0.17c1.87,0,3.03-0.17,3.52-0.17
		c0.38,0,0.53,0.13,0.53,0.47c0,0.39-0.53,0.47-1.24,0.56c-0.94,0.13-1.53,0.43-1.53,1.42v14.79c0,0.69,0.19,1.04,3.07,1.04
		c5.09,0,5.39-3.53,6.03-3.53c0.22,0,0.34,0.08,0.34,0.34c0,0.22-0.08,0.52-0.15,0.95L131.51,129z"/>
	<path class="st1" d="M131.51,129c-0.07,0.39-0.34,0.52-0.78,0.52c-2.25,0-4.46-0.17-8.01-0.17c-2.77,0-4.75,0.17-5.39,0.17
		c-0.33,0-0.45-0.13-0.45-0.43c0-0.52,0.9-0.56,1.91-0.69c0.52-0.04,1.24-0.47,1.24-1.77v-14.1c0-1.21-0.34-1.21-2.28-1.47
		c-0.37-0.09-0.49-0.13-0.49-0.47c0-0.3,0.15-0.47,0.86-0.47c0.97,0,2.17,0.17,3.41,0.17c1.87,0,3.03-0.17,3.52-0.17
		c0.38,0,0.53,0.13,0.53,0.47c0,0.39-0.53,0.47-1.24,0.56c-0.94,0.13-1.53,0.43-1.53,1.42v14.79c0,0.69,0.19,1.04,3.07,1.04
		c5.09,0,5.39-3.53,6.03-3.53c0.22,0,0.34,0.08,0.34,0.34c0,0.22-0.08,0.52-0.15,0.95L131.51,129z"/>
	<path class="st0" d="M147.01,129c-0.08,0.39-0.34,0.52-0.79,0.52c-2.25,0-4.45-0.17-8.01-0.17c-2.77,0-4.75,0.17-5.39,0.17
		c-0.34,0-0.45-0.13-0.45-0.43c0-0.52,0.9-0.56,1.91-0.69c0.52-0.04,1.23-0.47,1.23-1.77v-14.1c0-1.21-0.34-1.21-2.28-1.47
		c-0.37-0.09-0.49-0.13-0.49-0.47c0-0.3,0.15-0.47,0.86-0.47c0.97,0,2.17,0.17,3.41,0.17c1.87,0,3.03-0.17,3.52-0.17
		c0.38,0,0.52,0.13,0.52,0.47c0,0.39-0.52,0.47-1.23,0.56c-0.94,0.13-1.54,0.43-1.54,1.42v14.79c0,0.69,0.19,1.04,3.07,1.04
		c5.09,0,5.39-3.53,6.03-3.53c0.22,0,0.34,0.08,0.34,0.34c0,0.22-0.08,0.52-0.15,0.95L147.01,129z"/>
	<path class="st1" d="M147.01,129c-0.08,0.39-0.34,0.52-0.79,0.52c-2.25,0-4.45-0.17-8.01-0.17c-2.77,0-4.75,0.17-5.39,0.17
		c-0.34,0-0.45-0.13-0.45-0.43c0-0.52,0.9-0.56,1.91-0.69c0.52-0.04,1.23-0.47,1.23-1.77v-14.1c0-1.21-0.34-1.21-2.28-1.47
		c-0.37-0.09-0.49-0.13-0.49-0.47c0-0.3,0.15-0.47,0.86-0.47c0.97,0,2.17,0.17,3.41,0.17c1.87,0,3.03-0.17,3.52-0.17
		c0.38,0,0.52,0.13,0.52,0.47c0,0.39-0.52,0.47-1.23,0.56c-0.94,0.13-1.54,0.43-1.54,1.42v14.79c0,0.69,0.19,1.04,3.07,1.04
		c5.09,0,5.39-3.53,6.03-3.53c0.22,0,0.34,0.08,0.34,0.34c0,0.22-0.08,0.52-0.15,0.95L147.01,129z"/>
	<path class="st0" d="M121.78,135.47c-1.14,1.07-1.76,2.57-1.76,4.23c0,1.63,0.62,3.12,1.74,4.2c1.13,1.09,2.7,1.69,4.42,1.69
		c1.74,0,3.34-0.6,4.49-1.69c1.14-1.08,1.77-2.58,1.77-4.2c0-3.36-2.63-5.9-6.11-5.9C124.53,133.8,122.92,134.39,121.78,135.47
		 M122.36,139.7c0-1.57,0.4-2.88,1.16-3.78c0.7-0.83,1.69-1.29,2.8-1.29c1.08,0,2.05,0.46,2.73,1.29c0.74,0.91,1.13,2.22,1.13,3.79
		c0,3.32-1.39,5.07-4.01,5.07C123.72,144.77,122.36,142.97,122.36,139.7"/>
	<path class="st2" d="M121.78,135.47c-1.14,1.07-1.76,2.57-1.76,4.23c0,1.63,0.62,3.12,1.74,4.2c1.13,1.09,2.7,1.69,4.42,1.69
		c1.74,0,3.34-0.6,4.49-1.69c1.14-1.08,1.77-2.58,1.77-4.2c0-3.36-2.63-5.9-6.11-5.9C124.53,133.8,122.92,134.39,121.78,135.47z
		 M122.36,139.7c0-1.57,0.4-2.88,1.16-3.78c0.7-0.83,1.69-1.29,2.8-1.29c1.08,0,2.05,0.46,2.73,1.29c0.74,0.91,1.13,2.22,1.13,3.79
		c0,3.32-1.39,5.07-4.01,5.07C123.72,144.77,122.36,142.97,122.36,139.7z"/>
	<path class="st0" d="M114.9,134.12c-0.4,0.03-1.01,0.07-1.82,0.07c-0.42,0-0.84-0.03-1.24-0.05c-0.35-0.02-0.69-0.05-0.99-0.05
		c-0.34,0-0.66,0.04-0.66,0.37c0,0.27,0.15,0.32,0.4,0.37c0.01,0,0.14,0.02,0.14,0.02c1.18,0.14,1.27,0.16,1.27,0.71v8
		c0,0.82-0.59,0.9-0.71,0.91c0,0-0.2,0.02-0.2,0.02c-0.64,0.07-1.15,0.12-1.15,0.47c0,0.31,0.23,0.34,0.4,0.34l0.67-0.02
		c0.65-0.03,1.63-0.07,2.85-0.07c1.29,0,2.32,0.03,3.22,0.05c0.73,0.02,1.37,0.04,2.02,0.04c0.24,0,0.54-0.04,0.61-0.37l0,0
		l0.37-1.61c0-0.01,0.05-0.25,0.05-0.25c0.03-0.13,0.05-0.23,0.05-0.32c0-0.2-0.11-0.3-0.32-0.3c-0.16,0-0.26,0.15-0.42,0.38
		c-0.39,0.57-1.11,1.57-3.51,1.57c-1.91,0-1.91-0.2-1.91-0.49v-8.33c0-0.44,0.25-0.63,0.92-0.71c0.44-0.05,0.89-0.1,0.89-0.42
		c0-0.37-0.33-0.37-0.44-0.37L114.9,134.12z"/>
	<path class="st2" d="M114.9,134.12c-0.4,0.03-1.01,0.07-1.82,0.07c-0.42,0-0.84-0.03-1.24-0.05c-0.35-0.02-0.69-0.05-0.99-0.05
		c-0.34,0-0.66,0.04-0.66,0.37c0,0.27,0.15,0.32,0.4,0.37c0.01,0,0.14,0.02,0.14,0.02c1.18,0.14,1.27,0.16,1.27,0.71v8
		c0,0.82-0.59,0.9-0.71,0.91c0,0-0.2,0.02-0.2,0.02c-0.64,0.07-1.15,0.12-1.15,0.47c0,0.31,0.23,0.34,0.4,0.34l0.67-0.02
		c0.65-0.03,1.63-0.07,2.85-0.07c1.29,0,2.32,0.03,3.22,0.05c0.73,0.02,1.37,0.04,2.02,0.04c0.24,0,0.54-0.04,0.61-0.37l0,0
		l0.37-1.61c0-0.01,0.05-0.25,0.05-0.25c0.03-0.13,0.05-0.23,0.05-0.32c0-0.2-0.11-0.3-0.32-0.3c-0.16,0-0.26,0.15-0.42,0.38
		c-0.39,0.57-1.11,1.57-3.51,1.57c-1.91,0-1.91-0.2-1.91-0.49v-8.33c0-0.44,0.25-0.63,0.92-0.71c0.44-0.05,0.89-0.1,0.89-0.42
		c0-0.37-0.33-0.37-0.44-0.37L114.9,134.12z"/>
	<path class="st0" d="M133.66,136.83c0,2.18,1.82,3.06,3.42,3.84c1.31,0.64,2.45,1.18,2.45,2.3c0,1.17-0.83,1.78-2.39,1.78
		c-2.54,0-2.91-1.57-3.13-2.5c-0.09-0.39-0.16-0.67-0.39-0.67c-0.16,0-0.44,0.09-0.44,0.71v1.83c0,0.89,1.55,1.47,3.96,1.47
		c2.46,0,4.11-1.41,4.11-3.52c0-2.05-1.86-2.9-3.5-3.64c-1.35-0.61-2.51-1.14-2.51-2.18c0-1.34,1-1.62,1.83-1.62
		c1.45,0,2.05,0.67,2.44,1.32c0.15,0.28,0.23,0.51,0.29,0.68c0.1,0.27,0.17,0.45,0.41,0.45c0.17,0,0.36-0.09,0.36-0.54
		c0-0.26-0.04-0.71-0.07-1.11l-0.05-0.61c-0.03-0.4-1.27-1.02-2.86-1.02C135.16,133.8,133.66,134.96,133.66,136.83"/>
	<path class="st2" d="M133.66,136.83c0,2.18,1.82,3.06,3.42,3.84c1.31,0.64,2.45,1.18,2.45,2.3c0,1.17-0.83,1.78-2.39,1.78
		c-2.54,0-2.91-1.57-3.13-2.5c-0.09-0.39-0.16-0.67-0.39-0.67c-0.16,0-0.44,0.09-0.44,0.71v1.83c0,0.89,1.55,1.47,3.96,1.47
		c2.46,0,4.11-1.41,4.11-3.52c0-2.05-1.86-2.9-3.5-3.64c-1.35-0.61-2.51-1.14-2.51-2.18c0-1.34,1-1.62,1.83-1.62
		c1.45,0,2.05,0.67,2.44,1.32c0.15,0.28,0.23,0.51,0.29,0.68c0.1,0.27,0.17,0.45,0.41,0.45c0.17,0,0.36-0.09,0.36-0.54
		c0-0.26-0.04-0.71-0.07-1.11l-0.05-0.61c-0.03-0.4-1.27-1.02-2.86-1.02C135.16,133.8,133.66,134.96,133.66,136.83z"/>
	<path class="st0" d="M103.1,135.08c-0.69,0.02-1.54,0.05-2.57,0.05c-1.11,0-1.86-0.03-2.4-0.06l-0.78-0.03
		c-0.27,0-0.41,0.11-0.41,0.35c0,0.27,0.4,0.32,0.75,0.34c0.34,0.02,0.55,0.08,0.55,1.09V143c0,0.58-0.24,0.71-0.74,0.76
		c0,0-0.22,0.02-0.22,0.02c-0.34,0.02-0.69,0.05-0.69,0.39c0,0.33,0.33,0.33,0.47,0.33l0.94-0.03c0.71-0.03,1.68-0.06,2.8-0.06
		c1.36,0,2.43,0.04,3.14,0.06l0.75,0.02c0.26,0,0.31-0.25,0.38-0.58l0.03-0.14c0,0,0.01-0.04,0.01-0.04
		c0.14-0.72,0.28-1.44,0.28-1.6c0-0.28-0.2-0.31-0.28-0.31c-0.18,0-0.27,0.19-0.4,0.49c-0.39,1.09-1.34,1.3-2.45,1.3
		c-1.98,0-2.29-0.31-2.29-0.66v-2.79c0-0.16,0.03-0.29,0.44-0.29h1.6c0.48,0,1.09,0.16,1.25,0.46c0.18,0.3,0.25,0.5,0.29,0.69
		c0.05,0.2,0.09,0.38,0.27,0.38c0.2,0,0.31-0.11,0.31-0.31l0-0.27c-0.01-0.3-0.01-0.71,0-1.25c0.01-0.43,0.04-0.7,0.06-0.9
		l0.02-0.31c0-0.15,0-0.41-0.3-0.41c-0.14,0-0.21,0.15-0.31,0.37c-0.09,0.19-0.19,0.32-0.35,0.44c-0.34,0.26-0.62,0.29-1.24,0.29
		h-1.56c-0.48,0-0.48-0.15-0.48-0.23v-2.43c0-0.29,0-0.47,1.48-0.47c1.32,0,2.11,0.2,2.65,0.65c0.23,0.19,0.32,0.44,0.4,0.65
		c0.08,0.22,0.15,0.42,0.36,0.42c0.16,0,0.25-0.14,0.25-0.41v-1.5c0-0.37-0.13-0.71-0.64-0.71
		C104.05,135.05,103.61,135.06,103.1,135.08"/>
	<path class="st2" d="M103.1,135.08c-0.69,0.02-1.54,0.05-2.57,0.05c-1.11,0-1.86-0.03-2.4-0.06l-0.78-0.03
		c-0.27,0-0.41,0.11-0.41,0.35c0,0.27,0.4,0.32,0.75,0.34c0.34,0.02,0.55,0.08,0.55,1.09V143c0,0.58-0.24,0.71-0.74,0.76
		c0,0-0.22,0.02-0.22,0.02c-0.34,0.02-0.69,0.05-0.69,0.39c0,0.33,0.33,0.33,0.47,0.33l0.94-0.03c0.71-0.03,1.68-0.06,2.8-0.06
		c1.36,0,2.43,0.04,3.14,0.06l0.75,0.02c0.26,0,0.31-0.25,0.38-0.58l0.03-0.14c0,0,0.01-0.04,0.01-0.04
		c0.14-0.72,0.28-1.44,0.28-1.6c0-0.28-0.2-0.31-0.28-0.31c-0.18,0-0.27,0.19-0.4,0.49c-0.39,1.09-1.34,1.3-2.45,1.3
		c-1.98,0-2.29-0.31-2.29-0.66v-2.79c0-0.16,0.03-0.29,0.44-0.29h1.6c0.48,0,1.09,0.16,1.25,0.46c0.18,0.3,0.25,0.5,0.29,0.69
		c0.05,0.2,0.09,0.38,0.27,0.38c0.2,0,0.31-0.11,0.31-0.31l0-0.27c-0.01-0.3-0.01-0.71,0-1.25c0.01-0.43,0.04-0.7,0.06-0.9
		l0.02-0.31c0-0.15,0-0.41-0.3-0.41c-0.14,0-0.21,0.15-0.31,0.37c-0.09,0.19-0.19,0.32-0.35,0.44c-0.34,0.26-0.62,0.29-1.24,0.29
		h-1.56c-0.48,0-0.48-0.15-0.48-0.23v-2.43c0-0.29,0-0.47,1.48-0.47c1.32,0,2.11,0.2,2.65,0.65c0.23,0.19,0.32,0.44,0.4,0.65
		c0.08,0.22,0.15,0.42,0.36,0.42c0.16,0,0.25-0.14,0.25-0.41v-1.5c0-0.37-0.13-0.71-0.64-0.71
		C104.05,135.05,103.61,135.06,103.1,135.08z"/>
	<path class="st0" d="M88.92,135.04l-0.84,0.04c-0.46,0.01-0.85,0.01-1.16,0l-0.37,0c-0.24,0-0.63,0-0.63,0.32
		c0,0.3,0.27,0.35,0.9,0.39c0.48,0.04,0.68,0.06,0.68,0.76v6.35c0,0.62-0.28,0.77-0.58,0.84c0,0-0.2,0.05-0.2,0.05
		c-0.26,0.05-0.53,0.11-0.53,0.39c0,0.19,0.16,0.31,0.41,0.31c0.3,0,0.56-0.02,0.83-0.04c0.31-0.02,0.67-0.05,1.17-0.05
		c0.3,0,0.62,0.02,0.97,0.04c0.42,0.02,0.89,0.05,1.41,0.05c0.89,0,2.25-0.25,3.38-0.94c1.38-0.84,2.11-2.16,2.11-3.82
		c0-1.45-0.55-2.68-1.58-3.54c-0.95-0.8-2.28-1.24-3.73-1.24C90.27,134.96,89.52,135.01,88.92,135.04 M89.22,142.21v-5.83
		c0-0.53,0.06-0.57,0.97-0.57c2.55,0,4.55,1.79,4.55,4.07c0,2.27-1.55,3.68-4.05,3.68C89.67,143.56,89.22,143.37,89.22,142.21"/>
	<path class="st2" d="M88.92,135.04l-0.84,0.04c-0.46,0.01-0.85,0.01-1.16,0l-0.37,0c-0.24,0-0.63,0-0.63,0.32
		c0,0.3,0.27,0.35,0.9,0.39c0.48,0.04,0.68,0.06,0.68,0.76v6.35c0,0.62-0.28,0.77-0.58,0.84c0,0-0.2,0.05-0.2,0.05
		c-0.26,0.05-0.53,0.11-0.53,0.39c0,0.19,0.16,0.31,0.41,0.31c0.3,0,0.56-0.02,0.83-0.04c0.31-0.02,0.67-0.05,1.17-0.05
		c0.3,0,0.62,0.02,0.97,0.04c0.42,0.02,0.89,0.05,1.41,0.05c0.89,0,2.25-0.25,3.38-0.94c1.38-0.84,2.11-2.16,2.11-3.82
		c0-1.45-0.55-2.68-1.58-3.54c-0.95-0.8-2.28-1.24-3.73-1.24C90.27,134.96,89.52,135.01,88.92,135.04z M89.22,142.21v-5.83
		c0-0.53,0.06-0.57,0.97-0.57c2.55,0,4.55,1.79,4.55,4.07c0,2.27-1.55,3.68-4.05,3.68C89.67,143.56,89.22,143.37,89.22,142.21z"/>
	<path class="st3" d="M99.3,24.53c30.18,0,54.91,24.04,56.04,53.95c-3.7-4.22-7.58-7.98-7.58-7.98c-0.77-0.78-1.66-0.8-2.31-0.66
		c-1.11-0.29-2.13,0.39-2.13,0.39l-2.69,1.59c-0.07,0.04-0.14,0.07-0.21,0.1c-0.71-0.25-1.2-0.89-1.2-0.89l-11.56-12.95
		c-0.86-1.06-1.88-1.22-2.65-1.14c-1-0.11-1.82,0.34-1.82,0.34l-3.76,1.59c-0.55,0.3-1.04,0.43-1.47,0.46
		c-1.21-0.12-1.86-0.99-1.86-0.99l-13.5-12.91c-0.84-0.76-1.85-1.05-2.85-1.09c-0.11,0-0.21,0-0.32,0
		c-2.07,0.03-3.98,1.04-3.98,1.04c-7.81,3-36.62,25.8-52.14,38.45c-0.06-1.07-0.1-2.15-0.1-3.23C43.21,49.73,68.41,24.53,99.3,24.53
		"/>
	<path class="st4" d="M155.2,85.26c-0.34,4.06-1.11,8.01-2.27,11.78h-36.38c1.66-0.7,4.13-1.72,4.92-2.04
		C132.52,90.63,143.71,88.32,155.2,85.26"/>
	<path class="st4" d="M101.84,97.04h-27.3c2.39-1.29,5.82-3.06,8.12-4.16c4.86-2.32,10.44-4.66,16.82-6.96
		c6.91-2.48,14.75-4.91,23.69-7.18c0,0-0.14,0.09-0.39,0.25c-1.89,1.22-10.41,6.92-18.72,15.7
		C103.66,95.11,102.61,96.22,101.84,97.04"/>
	<path class="st4" d="M65.41,97.04H45.67c-0.35-1.14-0.67-2.3-0.94-3.46c0.98-0.72,2.69-1.89,6.85-4.67
		c11.39-7.63,28.62-17.41,47.71-22.1c0.76-0.19,1.53-0.37,2.3-0.54c0,0-0.02,0.01-0.03,0.02c-0.12,0.08-0.92,0.61-2.25,1.54
		C93.68,71.73,77.97,83.43,65.41,97.04"/>
</g>
</svg>
