<?xml version="1.0" encoding="utf-8"?>
<!-- Generator: Adobe Illustrator 28.0.0, SVG Export Plug-In . SVG Version: 6.00 Build 0)  -->
<svg version="1.1" id="Layer_1" xmlns="http://www.w3.org/2000/svg" xmlns:xlink="http://www.w3.org/1999/xlink" x="0px" y="0px"
	 viewBox="0 0 198.43 198.43" style="enable-background:new 0 0 198.43 198.43;" xml:space="preserve">
<style type="text/css">
	.st0{fill-rule:evenodd;clip-rule:evenodd;fill:#35476E;}
</style>
<polygon class="st0" points="72.9,89.65 76.52,89.65 81.05,103.27 85.62,89.65 89.24,89.65 92.51,109.17 88.92,109.17 86.83,96.84 
	82.68,109.17 79.4,109.17 75.29,96.84 73.15,109.17 69.52,109.17 "/>
<g>
	<path class="st0" d="M101.92,97.7L101.92,97.7c-1.12,0-2.05,0.4-2.79,1.19c-0.74,0.79-1.11,1.81-1.11,3.05
		c0,1.25,0.38,2.27,1.13,3.08c0.75,0.81,1.68,1.21,2.78,1.21c1.14,0,2.08-0.4,2.83-1.19c0.75-0.79,1.12-1.83,1.12-3.11
		c0-1.26-0.38-2.27-1.12-3.05C104.02,98.09,103.07,97.7,101.92,97.7 M105.73,94.73h3.62v14.44h-3.62v-1.53
		c-0.71,0.67-1.42,1.16-2.13,1.45c-0.71,0.3-1.48,0.44-2.31,0.44c-1.87,0-3.48-0.72-4.84-2.17c-1.36-1.45-2.04-3.25-2.04-5.4
		c0-2.23,0.66-4.06,1.98-5.48c1.32-1.42,2.92-2.14,4.8-2.14c0.87,0,1.68,0.16,2.44,0.49c0.76,0.33,1.46,0.82,2.11,1.47V94.73z"/>
	<path class="st0" d="M112.17,94.73h3.11v1.82c0.34-0.72,0.78-1.26,1.34-1.63c0.56-0.37,1.17-0.56,1.83-0.56
		c0.47,0,0.96,0.12,1.47,0.37l-1.13,3.12c-0.42-0.21-0.77-0.32-1.05-0.32c-0.56,0-1.03,0.35-1.41,1.04
		c-0.38,0.69-0.58,2.04-0.58,4.06l0.01,0.7v5.84h-3.6V94.73z"/>
	<path class="st0" d="M120.87,94.73h3.11v1.82c0.34-0.72,0.78-1.26,1.34-1.63c0.56-0.37,1.17-0.56,1.83-0.56
		c0.47,0,0.96,0.12,1.47,0.37l-1.13,3.12c-0.42-0.21-0.77-0.32-1.05-0.32c-0.56,0-1.03,0.35-1.41,1.04
		c-0.39,0.69-0.58,2.04-0.58,4.06l0.01,0.7v5.84h-3.6V94.73z"/>
	<path class="st0" d="M130.01,94.73L130.01,94.73h3.62v14.44h-3.62V94.73z M131.82,88.78c0.64,0,1.18,0.23,1.63,0.69
		c0.45,0.46,0.68,1.02,0.68,1.67c0,0.65-0.22,1.2-0.67,1.65c-0.45,0.46-0.99,0.68-1.61,0.68c-0.64,0-1.19-0.23-1.65-0.7
		c-0.45-0.46-0.68-1.03-0.68-1.69c0-0.64,0.23-1.18,0.67-1.63C130.65,89.01,131.19,88.78,131.82,88.78"/>
	<path class="st0" d="M143.77,97.77L143.77,97.77c-1.13,0-2.06,0.39-2.81,1.17c-0.75,0.78-1.12,1.79-1.12,3.01
		c0,1.26,0.37,2.27,1.11,3.05c0.74,0.78,1.68,1.17,2.81,1.17c1.13,0,2.08-0.39,2.83-1.18c0.75-0.79,1.13-1.8,1.13-3.04
		c0-1.24-0.37-2.25-1.11-3.02C145.87,98.16,144.92,97.77,143.77,97.77 M143.71,94.36c1.36,0,2.64,0.34,3.84,1.02
		c1.2,0.68,2.13,1.61,2.81,2.77c0.67,1.17,1.01,2.43,1.01,3.78c0,1.36-0.34,2.64-1.02,3.82c-0.68,1.19-1.6,2.11-2.77,2.78
		c-1.17,0.67-2.46,1-3.86,1c-2.07,0-3.84-0.74-5.3-2.21c-1.46-1.47-2.2-3.26-2.2-5.37c0-2.26,0.83-4.14,2.48-5.64
		C140.16,95.01,141.82,94.36,143.71,94.36"/>
	<polygon class="st0" points="154.77,89.41 158.39,89.41 158.39,94.73 160.54,94.73 160.54,97.85 158.39,97.85 158.39,109.17 
		154.77,109.17 154.77,97.85 152.91,97.85 152.91,94.73 154.77,94.73 	"/>
	<polygon class="st0" points="163.58,89.41 167.2,89.41 167.2,94.73 169.35,94.73 169.35,97.85 167.2,97.85 167.2,109.17 
		163.58,109.17 163.58,97.85 161.72,97.85 161.72,94.73 163.58,94.73 	"/>
	<path class="st0" d="M171.88,104.99c0.31,0,0.61,0.06,0.89,0.18c0.28,0.12,0.53,0.29,0.74,0.51c0.21,0.21,0.37,0.46,0.48,0.73
		c0.11,0.27,0.16,0.56,0.16,0.87c0,0.31-0.06,0.6-0.17,0.88c-0.11,0.28-0.28,0.52-0.5,0.73c-0.22,0.21-0.47,0.38-0.75,0.49
		c-0.28,0.11-0.57,0.17-0.87,0.17c-0.3,0-0.6-0.06-0.87-0.18c-0.28-0.12-0.53-0.29-0.74-0.51c-0.21-0.21-0.37-0.46-0.48-0.73
		c-0.11-0.27-0.17-0.56-0.17-0.86c0-0.21,0.03-0.41,0.08-0.61c0.06-0.2,0.14-0.39,0.25-0.58c0.21-0.35,0.48-0.62,0.82-0.81
		C171.1,105.08,171.47,104.99,171.88,104.99 M171.89,105.37c-0.26,0-0.5,0.05-0.72,0.14c-0.22,0.09-0.42,0.22-0.6,0.4
		c-0.18,0.18-0.33,0.39-0.43,0.63c-0.1,0.24-0.15,0.48-0.15,0.73c0,0.25,0.05,0.49,0.14,0.72c0.09,0.23,0.23,0.43,0.41,0.61
		c0.18,0.18,0.39,0.33,0.62,0.43c0.23,0.1,0.47,0.15,0.73,0.15c0.24,0,0.48-0.05,0.71-0.14c0.23-0.1,0.44-0.23,0.63-0.41
		c0.18-0.17,0.32-0.37,0.41-0.6c0.1-0.23,0.15-0.46,0.15-0.71c0-0.27-0.04-0.52-0.14-0.75c-0.09-0.23-0.23-0.43-0.41-0.61
		c-0.18-0.19-0.39-0.33-0.62-0.43C172.4,105.42,172.15,105.37,171.89,105.37 M170.94,105.96h0.99c0.36,0,0.63,0.06,0.81,0.18
		c0.18,0.12,0.27,0.3,0.27,0.54c0,0.17-0.05,0.31-0.15,0.43c-0.1,0.12-0.23,0.2-0.41,0.24l0.57,1.13h-0.69l-0.48-1.03h-0.3v1.03
		h-0.61V105.96z M171.55,106.35v0.73h0.3c0.18,0,0.31-0.03,0.4-0.09c0.08-0.06,0.13-0.15,0.13-0.27c0-0.13-0.04-0.22-0.13-0.28
		c-0.09-0.06-0.23-0.09-0.42-0.09H171.55z"/>
	<path class="st0" d="M30.87,89.64h3.68v12.94c0,2.06-0.16,3.51-0.49,4.34c-0.33,0.83-0.86,1.49-1.61,1.98
		c-0.75,0.49-1.65,0.74-2.7,0.74c-2.14,0-3.97-0.93-5.48-2.8l2.69-2.49c0.59,0.67,1.1,1.13,1.52,1.36c0.42,0.23,0.82,0.35,1.21,0.35
		c0.4,0,0.7-0.17,0.89-0.51c0.2-0.34,0.29-1.08,0.29-2.22V89.64z"/>
	<polygon class="st0" points="37.51,89.64 41.15,89.64 43.98,102.11 47.46,89.64 50.6,89.64 54.07,102.11 56.89,89.64 60.53,89.64 
		56.11,109.17 52.49,109.17 48.98,96.54 45.45,109.17 41.94,109.17 	"/>
</g>
</svg>
