<?xml version="1.0" encoding="utf-8"?>
<!-- Generator: Adobe Illustrator 28.0.0, SVG Export Plug-In . SVG Version: 6.00 Build 0)  -->
<svg version="1.1" id="Layer_1" xmlns="http://www.w3.org/2000/svg" xmlns:xlink="http://www.w3.org/1999/xlink" x="0px" y="0px"
	 viewBox="0 0 198.43 198.43" style="enable-background:new 0 0 198.43 198.43;" xml:space="preserve">
<style type="text/css">
	.st0{fill-rule:evenodd;clip-rule:evenodd;fill:#003BBB;}
	.st1{fill-rule:evenodd;clip-rule:evenodd;fill:#FFFEFE;}
	.st2{fill-rule:evenodd;clip-rule:evenodd;fill:#CD0F29;}
</style>
<g>
	<path class="st0" d="M184.23,99.23c-0.13-1.4-0.41-2.67-0.84-3.79h0.05v-17.1l-15.65,0.08c-0.68,0-1.39,0.06-2.17,0.2
		c-0.72,0.12-1.46,0.32-2.2,0.57l-0.14,0.05c-1.51,0.56-2.91,1.44-4.17,2.6c-3.15-2.81-7.27-4.23-12.29-4.23
		c-4.77,0-8.96,1.36-12.47,4.03c-0.77,0.58-1.57,1.32-2.33,2.22c-0.54-0.61-1.13-1.19-1.79-1.75c-3.52-2.99-7.53-4.51-11.93-4.51
		l-0.18,0c-4.24,0.16-7.76,1.11-10.5,2.84v-2.11l-15.65,0.08c-0.68,0-1.39,0.06-2.17,0.2c-0.72,0.12-1.47,0.32-2.2,0.57l-0.14,0.05
		c-1.5,0.56-2.9,1.44-4.16,2.6c-3.15-2.81-7.28-4.23-12.3-4.23c-4.76,0-8.96,1.36-12.47,4.03c-0.41,0.31-0.82,0.67-1.24,1.07
		c-0.64-0.72-1.32-1.3-1.96-1.75c-2.89-2.06-6.13-3.1-9.63-3.1c-0.35,0-0.69,0.01-1.05,0.05c-0.03,0.01-0.09,0.01-0.19,0.01h-0.25
		l-0.25,0.03c-1.8,0.18-3.58,0.64-5.26,1.35c-0.33,0.14-0.66,0.29-0.96,0.44c-0.52-0.28-1.07-0.54-1.66-0.78
		c-2.06-0.83-4.28-1.24-6.57-1.24h-0.43c-0.35,0-0.7,0.03-1.04,0.08c-3.27,0.25-6.28,1.42-8.96,3.49c-2.24,1.71-4.9,5.02-4.9,11.02
		v18.76h46.31v-2.28c2.79,1.65,6.02,2.49,9.66,2.49c0.36,0,0.75-0.01,1.18-0.03c0.31-0.01,0.64-0.04,0.97-0.07h0.37
		c0.39,0,0.79-0.03,1.17-0.1h11.26l10.77,0.05h0.02c2.69,0,4.91-0.42,6.71-1.29v8.33l3.53,1.04c1.33,0.39,2.85,0.73,4.51,1.02
		c1.61,0.28,3.28,0.46,4.95,0.54c0.39,0.04,0.77,0.06,1.13,0.06h0.72c4.18,0,8.09-0.93,11.59-2.77c2.68-1.41,5.8-4.21,6.63-9.68
		c2.93,1.93,6.39,2.89,10.3,2.89c0.37,0,0.76-0.01,1.18-0.03c0.31-0.01,0.64-0.04,0.98-0.07h0.36c0.4,0,0.79-0.03,1.18-0.1h11.26
		l10.76,0.05h0.03c4.32,0,7.45-1.09,9.55-3.34c1.96-2.09,2.99-4.89,2.99-8.09v-0.22L184.23,99.23z"/>
	<path class="st1" d="M181.22,99.46c-0.24-2.65-1.11-4.64-2.59-5.96c-0.2-0.18-0.41-0.35-0.62-0.52h2.43V80.82l-13.19,0.06
		c-0.54,0-1.11,0.05-1.75,0.17c-0.6,0.11-1.22,0.26-1.84,0.47l-0.07,0.03c-1.32,0.49-2.55,1.29-3.66,2.39
		c-0.49,0.49-0.89,1.03-1.21,1.63c-0.34-0.41-0.7-0.82-1.09-1.22c-2.76-2.84-6.58-4.28-11.36-4.28c-4.22,0-7.92,1.19-10.99,3.53
		c-1.66,1.27-2.9,2.83-3.73,4.69c-0.8-1.56-1.95-3.01-3.48-4.3c-3.06-2.6-6.53-3.92-10.34-3.92l-0.09,0
		c-5.33,0.19-9.3,1.74-11.79,4.6c-0.46,0.53-0.88,1.08-1.26,1.64v-5.49l-13.19,0.06c-0.54,0-1.11,0.05-1.74,0.17
		c-0.6,0.1-1.22,0.26-1.84,0.47l-0.07,0.03c-1.32,0.49-2.56,1.29-3.66,2.39c-0.49,0.49-0.9,1.03-1.21,1.63
		c-0.34-0.41-0.7-0.82-1.09-1.22c-2.76-2.84-6.58-4.28-11.36-4.28c-4.22,0-7.91,1.19-10.99,3.53c-1.21,0.92-2.2,2.01-2.97,3.25
		c-0.69-1.58-1.73-2.88-3.15-3.88c-2.47-1.75-5.23-2.64-8.21-2.64c-0.28,0-0.56,0.01-0.83,0.04c-0.12,0.01-0.25,0.01-0.4,0.01
		l-0.25,0.01c-1.57,0.16-3.1,0.56-4.57,1.17c-0.72,0.3-1.38,0.65-1.99,1.04c-0.71-0.52-1.55-0.98-2.5-1.36
		c-1.76-0.71-3.67-1.07-5.66-1.07h-0.43c-0.25,0-0.5,0.02-0.75,0.07c-2.82,0.19-5.43,1.2-7.75,2.98c-2.61,2.01-3.94,5.06-3.94,9.07
		v16.3h41.39v-5.1c0.44,0.55,0.94,1.06,1.49,1.54c2.84,2.49,6.42,3.76,10.63,3.76c0.32,0,0.67-0.01,1.05-0.03
		c0.32-0.02,0.65-0.04,1-0.07h0.48c0.32,0,0.63-0.04,0.93-0.1h11.49l10.78,0.05h0.01c3.61,0,6.14-0.84,7.75-2.56
		c0.58-0.62,1.06-1.32,1.42-2.09v12.32l1.77,0.52c1.23,0.36,2.65,0.69,4.23,0.95c1.53,0.26,3.13,0.44,4.73,0.51
		c0.32,0.04,0.63,0.06,0.94,0.06h0.72c3.78,0,7.3-0.84,10.45-2.49c2.52-1.33,5.53-4.21,5.53-10.45v-2.48
		c0.55,0.75,1.19,1.45,1.92,2.09c2.84,2.49,6.42,3.76,10.63,3.76c0.32,0,0.67-0.01,1.04-0.03c0.32-0.02,0.65-0.04,1-0.07h0.48
		c0.32,0,0.63-0.04,0.93-0.1h11.49l10.78,0.05h0.01c3.61,0,6.14-0.84,7.75-2.56c1.54-1.65,2.33-3.81,2.33-6.41L181.22,99.46z"/>
	<path class="st2" d="M32.12,93.3c0-0.65-0.16-1.15-0.49-1.53c-0.32-0.37-0.66-0.58-1.02-0.61h-0.08h-0.08h-0.19
		c-0.05,0-0.11,0.02-0.19,0.05c-0.36,0.1-0.7,0.35-1.02,0.74c-0.32,0.39-0.48,0.86-0.48,1.4v13.03h-9.92V92.53
		c0-3.22,0.99-5.6,2.98-7.12c1.98-1.53,4.17-2.35,6.57-2.49c0.14-0.03,0.28-0.05,0.43-0.05h0.43c1.68,0,3.26,0.3,4.75,0.89
		c1.48,0.59,2.56,1.38,3.24,2.36c0.82-0.84,1.86-1.53,3.11-2.06c1.25-0.52,2.54-0.85,3.86-0.99c0.22,0,0.42-0.01,0.62-0.03
		c0.19-0.02,0.4-0.03,0.61-0.03c2.47,0,4.73,0.73,6.78,2.19c2.06,1.46,3.09,3.8,3.09,7.02v14.15h-9.97V92.93
		c0-0.54-0.13-0.96-0.4-1.27c-0.27-0.31-0.56-0.48-0.89-0.51h-0.08H43.7h-0.13c-0.05,0-0.1,0.02-0.13,0.05
		c-0.33,0.07-0.63,0.31-0.91,0.71c-0.29,0.41-0.43,1-0.43,1.78v12.67h-9.97V93.3z"/>
	<path class="st2" d="M72.82,97.36v9.01c-0.18,0.06-0.37,0.1-0.59,0.1h-0.59c-0.35,0.03-0.69,0.06-1.01,0.08
		c-0.33,0.02-0.63,0.03-0.92,0.03c-3.61,0-6.61-1.05-9.01-3.16c-2.39-2.1-3.59-4.98-3.59-8.64c0-3.97,1.32-6.96,3.97-8.98
		c2.64-2.02,5.8-3.03,9.49-3.03c4.11,0,7.31,1.18,9.6,3.53c2.29,2.36,3.63,4.96,4.02,7.81c0.07,0.31,0.11,0.61,0.14,0.92
		c0.02,0.3,0.02,0.61,0.02,0.92v10.43h-9.97V94.72c0-1.08-0.36-1.9-1.07-2.44c-0.72-0.54-1.53-0.85-2.41-0.92h-0.14h-0.13h-0.08
		h-0.08c-0.86,0.04-1.65,0.32-2.36,0.84c-0.72,0.53-1.07,1.27-1.07,2.21c0,1.05,0.3,1.93,0.91,2.64c0.61,0.71,1.38,1.07,2.31,1.07
		c0.25,0,0.52-0.04,0.8-0.11c0.29-0.07,0.58-0.15,0.86-0.25c0.18-0.03,0.34-0.08,0.48-0.15c0.14-0.07,0.29-0.13,0.43-0.2V97.36z"/>
	<path class="st2" d="M85.88,98.43h5.28c0.43,0.04,0.76-0.01,0.99-0.12c0.23-0.12,0.35-0.25,0.35-0.38c0-0.13-0.09-0.3-0.27-0.48
		c-0.18-0.19-0.43-0.4-0.75-0.64c-0.18-0.06-0.35-0.15-0.54-0.25c-0.18-0.1-0.37-0.18-0.59-0.25c-1.71-0.55-3.09-1.34-4.13-2.39
		c-1.04-1.05-1.56-2.55-1.56-4.53c0-1.45,0.43-2.61,1.29-3.46c0.86-0.85,1.78-1.46,2.79-1.83c0.5-0.17,0.99-0.3,1.48-0.38
		c0.48-0.08,0.92-0.13,1.31-0.13l10.72-0.05v7.23h-4.93c-0.43,0.03-0.83,0.11-1.18,0.23c-0.35,0.12-0.54,0.3-0.54,0.54
		c0,0.1,0.09,0.25,0.27,0.46c0.18,0.2,0.46,0.42,0.86,0.66c0.07,0.07,0.16,0.13,0.27,0.18c0.11,0.05,0.21,0.11,0.32,0.17
		c0.1,0.07,0.2,0.13,0.29,0.18c0.09,0.05,0.19,0.09,0.29,0.13c1.25,0.64,2.38,1.4,3.38,2.29c1,0.88,1.59,2.32,1.77,4.32
		c0,1.97-0.56,3.54-1.66,4.73c-1.1,1.18-3.09,1.78-5.95,1.78l-9.57-0.05V98.43z"/>
	<path class="st2" d="M119.36,97.36v8.29c-0.36,0.17-0.74,0.32-1.15,0.46c-0.41,0.14-0.83,0.24-1.26,0.31
		c-0.21,0.03-0.43,0.05-0.64,0.05h-0.64c-0.32,0-0.63-0.01-0.93-0.02c-0.31-0.02-0.62-0.06-0.94-0.13c-2.25-0.4-4.32-1.61-6.19-3.61
		c-1.89-2-2.82-4.76-2.82-8.29c0-2.92,1.02-5.55,3.06-7.88c2.04-2.34,5.38-3.59,10.03-3.77c3.22,0,6.13,1.11,8.74,3.33
		c2.61,2.22,3.92,4.87,3.92,7.96v11.6c0,4.04-1.41,6.79-4.21,8.26c-2.8,1.48-5.91,2.21-9.3,2.21h-0.72c-0.23,0-0.47-0.02-0.72-0.05
		c-1.54-0.07-3.05-0.23-4.53-0.48c-1.49-0.25-2.8-0.55-3.94-0.89v-7.63c0.35,0.07,0.7,0.15,1.04,0.23c0.34,0.09,0.69,0.16,1.05,0.23
		c1.14,0.24,2.28,0.43,3.41,0.59c1.12,0.15,2.16,0.23,3.08,0.23c1.47,0,2.7-0.27,3.7-0.79c1-0.52,1.5-1.5,1.5-2.92v-9.46
		c0-1.05-0.31-1.86-0.94-2.44c-0.63-0.58-1.33-0.9-2.12-0.97h-0.13h-0.14c-0.78,0-1.52,0.26-2.2,0.79
		c-0.68,0.52-1.02,1.26-1.02,2.21c0,1.05,0.26,1.84,0.78,2.36c0.52,0.53,1.17,0.79,1.96,0.79c0.21,0,0.43-0.02,0.67-0.05
		c0.23-0.03,0.47-0.08,0.72-0.15c0.14-0.07,0.29-0.13,0.46-0.18c0.16-0.05,0.31-0.09,0.45-0.13V97.36z"/>
	<path class="st2" d="M148.64,97.36v9.01c-0.18,0.06-0.38,0.1-0.59,0.1h-0.59c-0.35,0.03-0.69,0.06-1.01,0.08
		c-0.33,0.02-0.63,0.03-0.92,0.03c-3.61,0-6.61-1.05-9.01-3.16c-2.39-2.1-3.59-4.98-3.59-8.64c0-3.97,1.32-6.96,3.97-8.98
		c2.64-2.02,5.81-3.03,9.49-3.03c4.11,0,7.31,1.18,9.59,3.53c2.29,2.36,3.63,4.96,4.02,7.81c0.07,0.31,0.12,0.61,0.14,0.92
		c0.01,0.3,0.02,0.61,0.02,0.92v10.43h-9.97V94.72c0-1.08-0.36-1.9-1.07-2.44c-0.71-0.54-1.52-0.85-2.41-0.92h-0.13h-0.13h-0.08
		h-0.08c-0.86,0.04-1.64,0.32-2.36,0.84c-0.71,0.53-1.07,1.27-1.07,2.21c0,1.05,0.31,1.93,0.91,2.64c0.61,0.71,1.38,1.07,2.31,1.07
		c0.25,0,0.52-0.04,0.8-0.11c0.29-0.07,0.57-0.15,0.86-0.25c0.18-0.03,0.34-0.08,0.48-0.15c0.14-0.07,0.29-0.13,0.43-0.2V97.36z"/>
	<path class="st2" d="M161.72,98.43h5.26c0.43,0.04,0.76-0.01,0.99-0.12c0.24-0.12,0.35-0.25,0.35-0.38c0-0.13-0.09-0.3-0.27-0.48
		c-0.18-0.19-0.43-0.4-0.75-0.64c-0.18-0.06-0.36-0.15-0.54-0.25c-0.17-0.1-0.37-0.18-0.59-0.25c-1.71-0.55-3.09-1.34-4.13-2.39
		c-1.04-1.05-1.55-2.55-1.55-4.53c0-1.45,0.43-2.61,1.28-3.46c0.86-0.85,1.79-1.46,2.79-1.83c0.49-0.17,0.99-0.3,1.47-0.38
		c0.48-0.08,0.92-0.13,1.31-0.13l10.72-0.05v7.23h-4.93c-0.43,0.03-0.82,0.11-1.18,0.23c-0.35,0.12-0.54,0.3-0.54,0.54
		c0,0.1,0.09,0.25,0.27,0.46c0.18,0.2,0.46,0.42,0.86,0.66c0.08,0.07,0.17,0.13,0.27,0.18c0.11,0.05,0.22,0.11,0.32,0.17
		c0.11,0.07,0.2,0.13,0.3,0.18c0.09,0.05,0.18,0.09,0.29,0.13c1.25,0.64,2.38,1.4,3.38,2.29c1,0.88,1.59,2.32,1.77,4.32
		c0,1.97-0.56,3.54-1.66,4.73c-1.11,1.18-3.09,1.78-5.95,1.78l-9.55-0.05V98.43z"/>
</g>
</svg>
