<?xml version="1.0" encoding="utf-8"?>
<!-- Generator: Adobe Illustrator 28.0.0, SVG Export Plug-In . SVG Version: 6.00 Build 0)  -->
<svg version="1.1" id="Layer_1" xmlns="http://www.w3.org/2000/svg" xmlns:xlink="http://www.w3.org/1999/xlink" x="0px" y="0px"
	 viewBox="0 0 198.43 198.43" style="enable-background:new 0 0 198.43 198.43;" xml:space="preserve">
<style type="text/css">
	.st0{fill-rule:evenodd;clip-rule:evenodd;fill:#151515;}
	.st1{fill-rule:evenodd;clip-rule:evenodd;fill:#FFFDFC;}
	.st2{fill-rule:evenodd;clip-rule:evenodd;fill:#E6352F;}
</style>
<g>
	<g>
		<path class="st0" d="M24.35,86.59l0.06,15.7c0,0.1,0,0.18,0.04,0.27c0.04,0.08,0.08,0.14,0.18,0.21c0.08,0.04,0.16,0.08,0.27,0.12
			l74.63,29.51c0.12,0.04,0.27,0.04,0.41,0.04c0.12-0.04,0.27-0.1,0.39-0.16l73.42-30.14c0.08-0.04,0.18-0.06,0.25-0.12
			c0.06-0.04,0.12-0.1,0.14-0.18c0.02-0.06,0.02-0.16,0.02-0.25l-0.1-43.6c0-0.1,0-0.21-0.04-0.29c-0.04-0.08-0.1-0.14-0.18-0.21
			c-0.1-0.04-0.18-0.08-0.29-0.12L98.98,27.85c-0.14-0.06-0.27-0.08-0.41-0.04c-0.31,0.08-0.6,0.23-0.9,0.35L24.65,58.07
			c-0.1,0.02-0.18,0.06-0.25,0.1c-0.06,0.06-0.1,0.12-0.12,0.21c-0.02,0.08-0.02,0.16-0.02,0.25l0.04,17.59L24.35,86.59z"/>
		<path class="st1" d="M56.17,50.33c0.06-0.04,0.12-0.12,0.16-0.21c0.04-0.06,0.08-0.14,0.14-0.19c0.08-0.06,0.16-0.1,0.27-0.14
			l41.41-16.91c0.12-0.06,0.25-0.12,0.39-0.14c0.12-0.04,0.25-0.02,0.39,0.02l70.07,27.72c0.08,0.04,0.16,0.06,0.25,0.12
			c0.06,0.04,0.1,0.12,0.12,0.18c0.02,0.08,0.02,0.16,0.02,0.27l0.1,37.32c0,0.08,0,0.16-0.04,0.25c-0.02,0.08-0.08,0.14-0.14,0.21
			c-0.08,0.04-0.16,0.08-0.27,0.12l-68.82,28.19c-0.12,0.06-0.27,0.12-0.39,0.16c-0.14,0.02-0.27,0-0.39-0.04l-70.11-27.7
			c-0.08-0.02-0.16-0.06-0.23-0.1c-0.08-0.06-0.12-0.12-0.14-0.21c-0.02-0.08,0-0.16,0-0.25L28.8,61.69c0-0.08,0-0.18,0.04-0.27
			c0.02-0.06,0.08-0.12,0.14-0.18c0.08-0.06,0.16-0.08,0.25-0.12l26.17-10.73c0.14-0.06,0.27-0.08,0.41-0.06
			C55.94,50.35,56.06,50.37,56.17,50.33"/>
		<polygon class="st0" points="24.84,170.07 24.84,141.37 36.07,141.37 41.1,159.25 46.13,141.37 57.34,141.37 57.34,170.07 
			49.02,170.07 49.02,161.3 49.14,156.84 49.61,151.63 49.54,151.63 44.35,170.07 37.85,170.07 32.67,151.63 32.59,151.63 
			32.98,155.86 33.18,160.36 33.18,170.07 		"/>
		<path class="st0" d="M82.32,170.05v-0.39c-1.07-0.86-1.1-1.45-1.1-2.67v-9.72c0-4.96-0.59-8.63-10.37-8.63
			c-8.17,0-11.28,2.56-11.28,6.98h7.89c0.2-1.77,1.74-2.01,2.88-2.01c0.87,0,2.68,0.2,2.68,1.69c0,3.9-14.71-0.39-14.71,9.1
			c0,4.33,3.47,6.25,7.38,6.25c3.08,0,5.44-0.63,7.77-2.83l0.39,2.24H82.32z M69.39,165.97c-1.62,0-2.6-0.71-2.6-1.73
			c0-2.72,3.55-2.09,6.23-3.39C73.01,164.04,72.03,165.97,69.39,165.97"/>
		<polygon class="st0" points="81.72,149.21 89.92,149.21 93.54,162.38 97.13,149.21 105.01,149.21 98.04,170.07 88.89,170.07 		"/>
		<path class="st0" d="M128.1,161.5c0-7.68-4.58-12.87-12.15-12.87c-6.62,0-11.71,4.37-11.71,11.17c0,7.03,5.12,10.84,11.75,10.84
			c4.81,0,10.02-1.69,11.44-6.89h-7.85c-0.59,1.26-1.78,1.86-3.08,1.86c-2.17,0-4.06-1.66-4.06-4.11H128.1z M112.44,157.27
			c0-2.23,1.38-3.6,3.83-3.6c1.93,0,3.63,1.68,3.63,3.6H112.44z"/>
		<path class="st0" d="M136.11,163.53c0,0.87,0.32,1.5,0.87,1.93c0.51,0.39,1.22,0.63,2,0.63c1.26,0,2.59-0.39,2.59-1.86
			c0-3.34-12.65-0.71-12.65-8.76c0-5.31,5.49-6.85,9.79-6.85c4.48,0,9.76,1.02,10.23,6.53h-7.45c-0.08-0.67-0.35-1.14-0.78-1.49
			c-0.43-0.35-1.02-0.51-1.65-0.51c-1.41,0-2.31,0.43-2.31,1.45c0,2.9,13.02,0.94,13.02,8.71c0,4.34-3.55,7.3-11.1,7.3
			c-4.73,0-9.94-1.46-10.38-7.11H136.11z"/>
		<path class="st0" d="M173.68,170.05v-0.39c-1.07-0.86-1.1-1.45-1.1-2.67v-9.72c0-4.96-0.59-8.63-10.37-8.63
			c-8.17,0-11.28,2.56-11.28,6.98h7.89c0.2-1.77,1.74-2.01,2.88-2.01c0.87,0,2.68,0.2,2.68,1.69c0,3.9-14.71-0.39-14.71,9.1
			c0,4.33,3.47,6.25,7.38,6.25c3.08,0,5.44-0.63,7.77-2.83l0.39,2.24H173.68z M160.75,165.97c-1.62,0-2.6-0.71-2.6-1.73
			c0-2.72,3.55-2.09,6.23-3.39C164.38,164.04,163.39,165.97,160.75,165.97"/>
		<path class="st2" d="M163.64,92.02c0-0.06-0.08-0.1-0.21-0.12h-0.29l-42.65,0.18c-0.12,0-0.27,0.02-0.39,0.1
			c-0.12,0.06-0.27,0.18-0.41,0.31l-19.43,16.64c-0.1,0.06-0.18,0.12-0.29,0.16c-0.08,0.04-0.18,0.04-0.29,0
			c-0.08-0.04-0.16-0.12-0.25-0.21L78.91,92.53c-0.12-0.08-0.25-0.14-0.37-0.16c-0.14-0.02-0.29-0.02-0.43-0.02l-42.63,0.27h-0.23
			c-0.06,0.02-0.1,0.04-0.1,0.06s0.04,0.06,0.1,0.1c0.06,0.04,0.14,0.06,0.23,0.1l64.26,27.21c0.12,0.06,0.27,0.08,0.41,0.04
			c0.14-0.02,0.29-0.1,0.45-0.16l62.74-27.72c0.06-0.02,0.14-0.06,0.23-0.1C163.62,92.1,163.64,92.04,163.64,92.02"/>
		<path class="st0" d="M118.98,77.2c0.04,0.02,0.06,0.06,0.08,0.12v0.23l0.1,9.18V87c0,0.08,0.02,0.14,0.06,0.21
			c0.04,0.04,0.1,0.06,0.16,0.08c0.08,0.02,0.16,0.02,0.23,0.02l43.47-0.23c0.1,0,0.21,0,0.31-0.02c0.08,0,0.14-0.02,0.21-0.06
			c0.04-0.02,0.06-0.08,0.08-0.14v-0.23l-0.1-22.64v-0.27c0-0.08-0.02-0.16-0.06-0.21c-0.04-0.04-0.1-0.08-0.16-0.1
			c-0.08-0.02-0.16,0-0.23,0l-28.57,0.12l-14.52,0.08c-0.14,0-0.29,0.08-0.43,0.18l-19.43,14.63c-0.1,0.06-0.18,0.14-0.29,0.21
			c-0.1,0.04-0.18,0.06-0.29,0.02c-0.08-0.02-0.18-0.06-0.27-0.14L78.5,64.03c-0.16-0.1-0.31-0.18-0.47-0.18l-42.75,0.18h-0.29
			c-0.08,0-0.14,0.02-0.18,0.06c-0.06,0.04-0.08,0.08-0.1,0.16c-0.02,0.06-0.02,0.14-0.02,0.23l0.06,22.66v0.27
			c0,0.08,0.02,0.16,0.06,0.21c0.04,0.04,0.1,0.08,0.16,0.1c0.08,0.02,0.14,0,0.23,0l43.88-0.21h0.29c0.08,0,0.14-0.02,0.21-0.06
			c0.04-0.04,0.08-0.1,0.08-0.16c0.02-0.06,0.02-0.14,0.02-0.23l-0.21-8.94V77.9c0.02-0.08,0.04-0.12,0.08-0.14
			c0.04-0.02,0.1-0.04,0.18,0c0.06,0.02,0.14,0.08,0.23,0.12l19.49,11.2c0.1,0.06,0.21,0.1,0.31,0.08c0.1,0,0.23-0.06,0.33-0.12
			l18.3-11.57l0.31-0.18C118.82,77.2,118.92,77.18,118.98,77.2"/>
	</g>
</g>
</svg>
