<?xml version="1.0" encoding="utf-8"?>
<!-- Generator: Adobe Illustrator 28.0.0, SVG Export Plug-In . SVG Version: 6.00 Build 0)  -->
<svg version="1.1" id="Layer_1" xmlns="http://www.w3.org/2000/svg" xmlns:xlink="http://www.w3.org/1999/xlink" x="0px" y="0px"
	 viewBox="0 0 198.43 198.43" style="enable-background:new 0 0 198.43 198.43;" xml:space="preserve">
<style type="text/css">
	.st0{fill:#231F20;}
	.st1{fill:#EC2427;}
	.st2{fill:#FFFFFF;}
	.st3{fill-rule:evenodd;clip-rule:evenodd;fill:#EC2227;}
</style>
<g>
	<g>
		<path class="st0" d="M174.16,97.19L174.16,97.19v1.74l0,2.03v1.25l0,9.92c-0.04,1.06-0.28,2.08-1.18,2.78
			c-0.4,0.33-0.87,0.56-1.38,0.65H26.83c-0.5-0.1-0.98-0.33-1.38-0.65c-0.91-0.7-1.15-1.72-1.19-2.78l0-3.06v-1.62l0.01-5.31h0
			l0.01-11.02v-1.74v0V86.1c0.08-0.94,0.35-1.83,1.17-2.45c0.41-0.34,0.89-0.57,1.41-0.67c0.02,0,0.04,0,0.06-0.01h3.34l10.58-0.05
			l2.53-0.01v-0.01l5.73-0.03h0.01h0.34l3.81-0.02l2.1,0c0,0,0.24,0.05,0.36,0.07c0.98,0.31,1.77,1.09,2.07,2.07
			c0.01,0.04,0.02,0.07,0.03,0.12c0.01,0.02,0.01,0.04,0.02,0.07c0.01,0.03,0.02,0.06,0.02,0.09c0.01,0.05,0.02,0.09,0.02,0.14v0.01
			c0.01,0.05,0.01,0.1,0.02,0.16c0.01,0.05,0.01,0.11,0.02,0.16c0,0.03,0,0.05,0.01,0.08c0,0.03,0,0.05,0.01,0.08v0.02
			c0,0.05,0.01,0.1,0.01,0.15c0.01,0.04,0.01,0.1,0.01,0.14v0.43c-0.01,0.84-0.08,1.76,0,2.51c0.05,0.46,0.16,0.86,0.38,1.15
			c0.2,0.24,0.48,0.37,0.78,0.44l0.23,0.05l0.25,0.03l0.28,0.01l0.31,0.01l0.99,0.01l2.57,0.03h38.6l0.2,0l0.28-0.02l0.25-0.03
			l0.23-0.04c0.3-0.07,0.58-0.2,0.78-0.45c0.19-0.25,0.3-0.6,0.35-1c0.1-0.75,0.02-1.68,0-2.51c-0.01-0.64,0.03-1.16,0.19-1.64
			c0.31-0.98,1.09-1.76,2.08-2.07c0.12-0.03,0.36-0.07,0.36-0.07l2.1-0.01l12.41-0.01v0l6.74-0.01l2.1,0.01c0,0,0.24,0.04,0.36,0.07
			c0.98,0.31,1.76,1.09,2.07,2.07c0.47,1.43-0.3,4.04,0.54,5.14c0.2,0.25,0.48,0.37,0.78,0.45l0.23,0.04l0.25,0.03l0.28,0.02
			l0.31,0.01l2.18,0.02h34.26c0.49,0.1,0.95,0.27,1.34,0.59c0.81,0.63,1.08,1.51,1.16,2.45L174.16,97.19z"/>
		<polygon class="st1" points="51.59,85.1 41.16,108.42 30.62,85.25 26.66,85.25 26.64,113.12 30.62,113.12 30.62,94.88 39,113.13 
			43.34,113.13 51.59,94.88 51.59,113.08 55.53,113.08 55.53,85.1 		"/>
		<path class="st1" d="M73.36,93.21H59.45v3.96h13.23c1.78,0,2.67,1.05,2.67,3.15l0.02,8.81H64.09c-1.77,0-2.65-0.83-2.65-2.48
			h-0.02c0.01-1.56,0.97-2.33,2.88-2.33h8.76v-3.98H62.54c-3.39,0.01-5.08,1.7-5.08,5.06v2.75c0,3.31,1.83,4.97,5.5,4.97h16.4V99.05
			C79.33,95.16,77.33,93.21,73.36,93.21"/>
		<path class="st1" d="M104.93,93.23h-5.34l-6.46,7.03l-6.46-7.03h-5.34l18.27,19.88h5.34l-9.13-9.95L104.93,93.23z M89.16,104.55
			l-7.85,8.57h5.34l5.21-5.69L89.16,104.55z"/>
		<rect x="106.82" y="93.06" class="st1" width="4.02" height="20.05"/>
		<path class="st2" d="M106.79,89.24h4.09v-3.93h-4.09V89.24z M106.79,89.24h4.09v-3.93h-4.09V89.24z"/>
		<polygon class="st2" points="111.63,85.29 111.61,89.23 116.9,89.23 116.9,113.14 120.85,113.14 120.85,89.23 130.63,89.23 
			130.63,85.29 		"/>
		<path class="st2" d="M132.26,100.34v4.06h15.75v-6.22c-0.04-3.28-2.03-4.94-5.97-4.97h-9.97c-3.98,0.01-5.97,2-5.97,5.97v8.07
			c0.04,3.87,2.03,5.82,5.97,5.86h15.05v-3.98h-14.35c-1.79,0.01-2.69-0.97-2.69-2.94v-6.16c0-1.89,1.01-2.84,3.03-2.84h8.93
			c1.32,0,1.98,0.5,1.99,1.5l-0.02,1.65H132.26z"/>
		<path class="st3" d="M172.44,103.38c-0.02,0.59-0.32,1.09-0.8,1.51c-0.52,0.45-1.13,0.63-1.82,0.65c-0.05,0-0.1,0-0.15,0
			c-0.22,0-0.39,0-0.52,0c-0.24,0-0.33,0-0.33,0h-7.93c-0.84,0-1.54-0.29-2.08-0.86c-0.73-0.77-0.68-1.88-0.15-2.64
			c0.33-0.48,0.89-0.78,1.54-0.94c0.53-0.13,1.05-0.1,1.57-0.1c5.18-0.01,2.73-0.01,7.91,0c0.7,0,1.35,0.18,1.9,0.65
			c0.06,0.05,0.11,0.09,0.16,0.14C172.23,102.24,172.46,102.76,172.44,103.38"/>
		<path class="st2" d="M167.17,106.87c-0.21-0.07-0.43-0.11-0.66-0.11c-0.08,0-0.17,0.01-0.25,0.02c-0.35,0.04-0.68,0.17-0.96,0.37
			c-0.18,0.13-0.34,0.29-0.46,0.46c-1.03,0.95-2.32,1.54-3.73,1.71c-0.26,0.03-0.53,0.05-0.79,0.05c-3.26,0-5.98-2.34-6.35-5.45
			c-0.03-0.25-0.04-0.5-0.04-0.76c0-0.25,0.01-0.5,0.04-0.75c0.36-3.11,3.1-5.45,6.35-5.45c0.26,0,0.53,0.02,0.79,0.05
			c1.41,0.16,2.71,0.76,3.73,1.71c0.13,0.18,0.28,0.33,0.46,0.46c0.28,0.2,0.61,0.33,0.96,0.37c0.08,0.01,0.16,0.01,0.24,0.01
			c1.02,0,1.87-0.74,1.98-1.71c0.06-0.5-0.08-1-0.4-1.41c-0.09-0.11-0.19-0.21-0.29-0.3c-1.67-1.63-3.88-2.68-6.24-2.96
			c-0.42-0.05-0.86-0.08-1.28-0.08c-5.26,0-9.68,3.8-10.27,8.84c-0.05,0.4-0.07,0.81-0.07,1.22c0,0.41,0.02,0.82,0.07,1.22
			c0.59,5.04,5.01,8.84,10.27,8.84h0c0.41,0,0.83-0.02,1.24-0.07c0.01,0,0.03,0,0.04,0c2.35-0.28,4.57-1.33,6.24-2.96
			c0.11-0.09,0.21-0.19,0.29-0.3c0.32-0.41,0.46-0.91,0.4-1.41C168.4,107.72,167.87,107.11,167.17,106.87"/>
	</g>
</g>
</svg>
