<?xml version="1.0" encoding="utf-8"?>
<!-- Generator: Adobe Illustrator 28.0.0, SVG Export Plug-In . SVG Version: 6.00 Build 0)  -->
<svg version="1.1" id="Layer_1" xmlns="http://www.w3.org/2000/svg" xmlns:xlink="http://www.w3.org/1999/xlink" x="0px" y="0px"
	 viewBox="0 0 198.43 198.43" style="enable-background:new 0 0 198.43 198.43;" xml:space="preserve">
<style type="text/css">
	.st0{fill:#110D0F;}
	.st1{fill:#E82429;}
	.st2{fill:#FFFFFF;}
	.st3{fill-rule:evenodd;clip-rule:evenodd;fill:#E82429;}
</style>
<g>
	<rect x="14.17" y="78.06" class="st0" width="170.08" height="42.3"/>
	<polygon class="st1" points="58.13,87.49 49.29,106.92 40.35,87.62 36.98,87.62 36.97,110.84 40.35,110.84 40.35,95.64 
		47.45,110.86 51.14,110.86 58.13,95.64 58.13,110.81 61.47,110.81 61.47,87.49 	"/>
	<g>
		<path class="st1" d="M78.38,94.25h-11.8v3.3H77.8c1.51,0,2.27,0.87,2.27,2.62l0.02,7.35h-9.57c-1.5,0-2.25-0.69-2.25-2.07h-0.02
			c0.01-1.3,0.83-1.94,2.45-1.94h7.43v-3.32H69.2c-2.87,0.01-4.31,1.42-4.31,4.22v2.29c0,2.76,1.56,4.14,4.66,4.14h13.91V99.12
			C83.44,95.88,81.75,94.25,78.38,94.25"/>
		<path class="st1" d="M105.91,94.27h-4.53l-5.48,5.86l-5.48-5.86h-4.53l15.5,16.57h4.53l-7.75-8.29L105.91,94.27z M92.53,103.7
			l-6.66,7.14h4.53l4.42-4.74L92.53,103.7z"/>
		<rect x="108.25" y="94.13" class="st1" width="3.41" height="16.71"/>
		<path class="st2" d="M108.22,90.94h3.47v-3.27h-3.47V90.94z M108.22,90.94h3.47v-3.27h-3.47V90.94z"/>
		<polygon class="st2" points="112.7,87.65 112.68,90.93 117.17,90.93 117.17,110.86 120.52,110.86 120.52,90.93 128.82,90.93 
			128.82,87.65 		"/>
		<path class="st2" d="M130.95,100.19v3.38h13.36v-5.18c-0.03-2.74-1.72-4.12-5.07-4.14h-8.46c-3.38,0.01-5.07,1.67-5.07,4.98v6.73
			c0.03,3.22,1.72,4.85,5.07,4.88h12.77v-3.32h-12.17c-1.52,0.01-2.28-0.81-2.28-2.45v-5.13c0-1.58,0.86-2.37,2.57-2.37h7.57
			c1.12,0,1.68,0.42,1.69,1.25l-0.02,1.37H130.95z"/>
		<path class="st3" d="M166.14,102.72c-0.02,0.49-0.27,0.91-0.68,1.26c-0.44,0.38-0.96,0.52-1.54,0.54c-0.04,0-0.09,0-0.13,0
			c-0.19,0-0.33,0-0.44,0c-0.2,0-0.28,0-0.28,0h-6.72c-0.71,0-1.31-0.24-1.76-0.71c-0.62-0.65-0.58-1.57-0.13-2.2
			c0.28-0.4,0.75-0.65,1.31-0.78c0.45-0.11,0.89-0.09,1.33-0.09c4.4,0,2.31-0.01,6.71,0c0.6,0,1.14,0.15,1.61,0.54
			c0.05,0.04,0.1,0.08,0.14,0.12C165.96,101.78,166.16,102.21,166.14,102.72"/>
		<path class="st2" d="M161.67,105.64c-0.17-0.06-0.36-0.09-0.56-0.09c-0.07,0-0.14,0.01-0.2,0.01c-0.3,0.03-0.58,0.14-0.82,0.31
			c-0.15,0.11-0.29,0.24-0.39,0.39c-0.87,0.79-1.96,1.29-3.17,1.43c-0.22,0.03-0.45,0.04-0.68,0.04c-2.76,0-5.07-1.95-5.38-4.54
			c-0.03-0.21-0.04-0.42-0.03-0.63c0-0.21,0.01-0.42,0.03-0.62c0.31-2.59,2.62-4.54,5.38-4.54c0.22,0,0.45,0.01,0.68,0.04
			c1.2,0.14,2.29,0.63,3.17,1.42c0.11,0.15,0.24,0.28,0.39,0.38c0.24,0.17,0.52,0.28,0.82,0.31c0.07,0.01,0.14,0.01,0.2,0.01
			c0.86,0,1.58-0.61,1.68-1.43c0.05-0.42-0.07-0.84-0.34-1.17c-0.07-0.09-0.16-0.17-0.25-0.25c-1.42-1.36-3.29-2.24-5.29-2.47
			c-0.36-0.04-0.73-0.06-1.09-0.06c-4.47,0-8.21,3.17-8.72,7.37c-0.04,0.33-0.06,0.68-0.05,1.01c0,0.34,0.02,0.69,0.05,1.02
			c0.5,4.2,4.25,7.37,8.72,7.37h0c0.34,0,0.7-0.02,1.05-0.06c0.01,0,0.02,0,0.03,0c2-0.23,3.87-1.11,5.29-2.47
			c0.09-0.07,0.17-0.16,0.25-0.25c0.27-0.34,0.39-0.75,0.34-1.18C162.72,106.35,162.27,105.84,161.67,105.64"/>
	</g>
</g>
</svg>
