<?xml version="1.0" encoding="utf-8"?>
<!-- Generator: Adobe Illustrator 28.0.0, SVG Export Plug-In . SVG Version: 6.00 Build 0)  -->
<svg version="1.1" id="Layer_1" xmlns="http://www.w3.org/2000/svg" xmlns:xlink="http://www.w3.org/1999/xlink" x="0px" y="0px"
	 viewBox="0 0 198.43 198.43" style="enable-background:new 0 0 198.43 198.43;" xml:space="preserve">
<style type="text/css">
	.st0{fill-rule:evenodd;clip-rule:evenodd;fill:#E6352F;}
	.st1{fill-rule:evenodd;clip-rule:evenodd;fill:#181B10;}
	.st2{fill:#FFFDFC;}
	.st3{fill-rule:evenodd;clip-rule:evenodd;fill:#FFFDFC;}
</style>
<g>
	<path class="st0" d="M76.55,105.06c0.05-0.41,0.09-0.79,0.12-1.16c0.03-0.37,0.05-0.71,0.06-1.03l0.12-5.7l-1.75,6.37
		c-0.02,0.07-0.04,0.18-0.09,0.33c-0.15,0.53-0.25,0.93-0.31,1.19h-3.78c-0.03-0.25-0.06-0.49-0.08-0.71
		c-0.03-0.22-0.05-0.43-0.08-0.64l-0.97-6.36l-0.33,4.33c-0.03,0.41-0.06,0.87-0.08,1.41c-0.03,0.53-0.06,1.19-0.09,1.98h-3.7
		c0.21-1.43,0.4-3.12,0.57-5.09c0.17-1.96,0.31-4.1,0.41-6.39h5.79c0.01,0.25,0.02,0.45,0.03,0.58c0.01,0.13,0.02,0.25,0.04,0.36
		l0.81,5.41l1.25-5.14c0.06-0.25,0.11-0.47,0.16-0.67c0.04-0.2,0.08-0.38,0.11-0.53h5.86c-0.04,0.59-0.07,1.26-0.1,2.01
		c-0.01,0.17-0.01,0.29-0.02,0.36l-0.22,6.55v0.43c0,0.59,0,1.03,0.01,1.32c0.01,0.29,0.02,0.56,0.03,0.8H76.55z"/>
	<path class="st0" d="M90.27,102.51L90.27,102.51l0.48,1.55c0.05,0.18,0.09,0.36,0.12,0.51c0.04,0.16,0.07,0.32,0.09,0.49h4.59
		l-3.65-10.3c-0.09-0.26-0.16-0.48-0.21-0.67c-0.05-0.18-0.09-0.36-0.12-0.51h-5.22c-0.09,0.19-0.18,0.38-0.27,0.57
		c-0.09,0.2-0.22,0.46-0.39,0.78l-5.37,10.12h4.81c0.1-0.3,0.18-0.57,0.26-0.8c0.08-0.23,0.15-0.4,0.2-0.52l0.57-1.24H90.27z
		 M89.66,99.52h-2.47L88.76,96L89.66,99.52z"/>
	<path class="st0" d="M98.62,93.58c0.05,0.21,0.11,0.4,0.15,0.55c0.04,0.15,0.09,0.3,0.14,0.44l0.85,2.41l1.06-2.18
		c0.06-0.13,0.14-0.31,0.23-0.52c0.1-0.22,0.19-0.45,0.29-0.69h4.34l-4.06,7.13l-0.13,2.88v0.24c0,0.3,0,0.53,0,0.71
		c0,0.18,0.01,0.35,0.01,0.52H97l0.02-0.24c0.07-0.9,0.11-1.46,0.12-1.69l0.17-2.57l-3.29-6.97H98.62z"/>
	<path class="st0" d="M104.9,105.06c0.16-1.49,0.29-3.21,0.39-5.16c0.1-1.94,0.17-4.05,0.2-6.32h9.22l-0.14,3.09
		c-0.43-0.04-0.88-0.07-1.34-0.09c-0.45-0.02-0.92-0.04-1.39-0.04h-2.05l-0.08,1.23h2.8c0.06,0,0.21,0,0.44-0.02
		c0.23-0.02,0.49-0.03,0.76-0.05l-0.14,3.14c-0.37-0.02-0.74-0.03-1.11-0.04c-0.36-0.01-0.8-0.01-1.31-0.01h-0.59h-0.99l-0.11,1.59
		c0,0.1-0.01,0.54-0.01,1.32c-0.01,0.55-0.01,1-0.02,1.35H104.9z"/>
	<path class="st0" d="M115.08,105.06c0.15-1.44,0.27-3.12,0.37-5.06c0.1-1.93,0.16-4.07,0.19-6.42h4.72
		c-0.12,0.63-0.22,1.65-0.31,3.07c-0.09,1.42-0.15,3.15-0.19,5.2c0.17,0,0.36,0.01,0.55,0.01c0.2,0,0.5,0,0.9,0
		c0.48,0,0.98-0.01,1.5-0.02c0.53-0.01,1.11-0.03,1.74-0.06l-0.17,3.28H115.08z"/>
	<path class="st0" d="M137.34,103.64L137.34,103.64c1.29-1.12,1.92-2.64,1.92-4.57c0-1.83-0.62-3.23-1.85-4.24
		c-1.24-1-2.98-1.5-5.25-1.5c-2.18,0-3.91,0.56-5.17,1.67c-1.26,1.11-1.89,2.63-1.89,4.55c0,1.81,0.61,3.23,1.83,4.24
		c1.22,1.02,2.92,1.52,5.11,1.52C134.29,105.31,136.06,104.75,137.34,103.64 M130.35,97.31c0.43-0.51,1.04-0.77,1.83-0.77
		c0.79,0,1.4,0.23,1.83,0.68c0.42,0.46,0.63,1.11,0.63,1.97c0,0.91-0.22,1.62-0.65,2.13c-0.43,0.51-1.04,0.76-1.81,0.76
		c-0.81,0-1.42-0.22-1.85-0.67c-0.43-0.45-0.65-1.08-0.65-1.91C129.69,98.56,129.92,97.83,130.35,97.31"/>
	<polygon class="st0" points="149.04,105.06 148.07,98.54 146.37,105.06 141.85,105.06 139.93,93.58 143.73,93.58 144.63,100.14 
		146.31,93.58 150.64,93.58 151.73,100.37 153.46,93.58 157.15,93.58 153.84,105.06 	"/>
	<path class="st0" d="M157.25,105.06c0.16-1.49,0.29-3.21,0.39-5.16c0.11-1.94,0.17-4.05,0.21-6.32h9.98l-0.13,3.03
		c-0.5-0.05-0.98-0.09-1.43-0.11c-0.45-0.02-0.89-0.03-1.3-0.03h-2.81l-0.08,1.4h2.13c0.27,0,1.07-0.03,2.41-0.09h0.1l-0.13,2.99
		c-0.33-0.02-0.67-0.03-1.01-0.04c-0.34-0.01-0.78-0.01-1.3-0.01h-0.71h-1.62l-0.1,1.4h2.43c0.63,0,1.19-0.01,1.68-0.03
		c0.49-0.02,0.97-0.05,1.45-0.09l-0.13,3.06H157.25z"/>
	<path class="st0" d="M168.64,105.06c0.16-1.43,0.29-3.12,0.39-5.08c0.1-1.96,0.17-4.09,0.2-6.4h6.54c0.93,0,1.6,0.04,2.01,0.13
		c0.41,0.09,0.76,0.23,1.05,0.43c0.4,0.27,0.71,0.64,0.93,1.1c0.22,0.46,0.32,0.98,0.32,1.56c0,0.75-0.18,1.39-0.55,1.93
		c-0.36,0.54-0.91,0.97-1.64,1.27c0.21,0.7,0.44,1.47,0.71,2.31c0.26,0.84,0.56,1.76,0.9,2.75h-4.63c-0.19-0.94-0.4-1.94-0.64-2.99
		c-0.23-1.05-0.49-2.2-0.79-3.43l0.17-0.22c0.05,0,0.16,0.01,0.32,0.03c0.16,0.02,0.28,0.02,0.36,0.02c0.48,0,0.85-0.08,1.09-0.25
		c0.24-0.16,0.36-0.4,0.36-0.72c0-0.34-0.11-0.58-0.34-0.73c-0.23-0.15-0.62-0.22-1.16-0.22c-0.11,0-0.24,0.01-0.41,0.03
		c-0.16,0.02-0.34,0.05-0.54,0.08l-0.22,4.65c-0.01,0.35-0.03,0.86-0.04,1.54c-0.01,0.67-0.01,1.41-0.01,2.22H168.64z"/>
	<path class="st0" d="M76.55,105.06c0.05-0.41,0.09-0.79,0.12-1.16c0.03-0.37,0.05-0.71,0.06-1.03l0.12-5.7l-1.75,6.37
		c-0.02,0.07-0.04,0.18-0.09,0.33c-0.15,0.53-0.25,0.93-0.31,1.19h-3.78c-0.03-0.25-0.06-0.49-0.08-0.71
		c-0.03-0.22-0.05-0.43-0.08-0.64l-0.97-6.36l-0.33,4.33c-0.03,0.41-0.06,0.87-0.08,1.41c-0.03,0.53-0.06,1.19-0.09,1.98h-3.7
		c0.21-1.43,0.4-3.12,0.57-5.09c0.17-1.96,0.31-4.1,0.41-6.39h5.79c0.01,0.25,0.02,0.45,0.03,0.58c0.01,0.13,0.02,0.25,0.04,0.36
		l0.81,5.41l1.25-5.14c0.06-0.25,0.11-0.47,0.16-0.67c0.04-0.2,0.08-0.38,0.11-0.53h5.86c-0.04,0.59-0.07,1.26-0.1,2.01
		c-0.01,0.17-0.01,0.29-0.02,0.36l-0.22,6.55v0.43c0,0.59,0,1.03,0.01,1.32c0.01,0.29,0.02,0.56,0.03,0.8H76.55z"/>
	<path class="st0" d="M90.27,102.51L90.27,102.51l0.48,1.55c0.05,0.18,0.09,0.36,0.12,0.51c0.04,0.16,0.07,0.32,0.09,0.49h4.59
		l-3.65-10.3c-0.09-0.26-0.16-0.48-0.21-0.67c-0.05-0.18-0.09-0.36-0.12-0.51h-5.22c-0.09,0.19-0.18,0.38-0.27,0.57
		c-0.09,0.2-0.22,0.46-0.39,0.78l-5.37,10.12h4.81c0.1-0.3,0.18-0.57,0.26-0.8c0.08-0.23,0.15-0.4,0.2-0.52l0.57-1.24H90.27z
		 M89.66,99.52h-2.47L88.76,96L89.66,99.52z"/>
	<path class="st0" d="M98.62,93.58c0.05,0.21,0.11,0.4,0.15,0.55c0.04,0.15,0.09,0.3,0.14,0.44l0.85,2.41l1.06-2.18
		c0.06-0.13,0.14-0.31,0.23-0.52c0.1-0.22,0.19-0.45,0.29-0.69h4.34l-4.06,7.13l-0.13,2.88v0.24c0,0.3,0,0.53,0,0.71
		c0,0.18,0.01,0.35,0.01,0.52H97l0.02-0.24c0.07-0.9,0.11-1.46,0.12-1.69l0.17-2.57l-3.29-6.97H98.62z"/>
	<path class="st0" d="M104.9,105.06c0.16-1.49,0.29-3.21,0.39-5.16c0.1-1.94,0.17-4.05,0.2-6.32h9.22l-0.14,3.09
		c-0.43-0.04-0.88-0.07-1.34-0.09c-0.45-0.02-0.92-0.04-1.39-0.04h-2.05l-0.08,1.23h2.8c0.06,0,0.21,0,0.44-0.02
		c0.23-0.02,0.49-0.03,0.76-0.05l-0.14,3.14c-0.37-0.02-0.74-0.03-1.11-0.04c-0.36-0.01-0.8-0.01-1.31-0.01h-0.59h-0.99l-0.11,1.59
		c0,0.1-0.01,0.54-0.01,1.32c-0.01,0.55-0.01,1-0.02,1.35H104.9z"/>
	<path class="st0" d="M115.08,105.06c0.15-1.44,0.27-3.12,0.37-5.06c0.1-1.93,0.16-4.07,0.19-6.42h4.72
		c-0.12,0.63-0.22,1.65-0.31,3.07c-0.09,1.42-0.15,3.15-0.19,5.2c0.17,0,0.36,0.01,0.55,0.01c0.2,0,0.5,0,0.9,0
		c0.48,0,0.98-0.01,1.5-0.02c0.53-0.01,1.11-0.03,1.74-0.06l-0.17,3.28H115.08z"/>
	<path class="st0" d="M137.34,103.64L137.34,103.64c1.29-1.12,1.92-2.64,1.92-4.57c0-1.83-0.62-3.23-1.85-4.24
		c-1.24-1-2.98-1.5-5.25-1.5c-2.18,0-3.91,0.56-5.17,1.67c-1.26,1.11-1.89,2.63-1.89,4.55c0,1.81,0.61,3.23,1.83,4.24
		c1.22,1.02,2.92,1.52,5.11,1.52C134.29,105.31,136.06,104.75,137.34,103.64 M130.35,97.31c0.43-0.51,1.04-0.77,1.83-0.77
		c0.79,0,1.4,0.23,1.83,0.68c0.42,0.46,0.63,1.11,0.63,1.97c0,0.91-0.22,1.62-0.65,2.13c-0.43,0.51-1.04,0.76-1.81,0.76
		c-0.81,0-1.42-0.22-1.85-0.67c-0.43-0.45-0.65-1.08-0.65-1.91C129.69,98.56,129.92,97.83,130.35,97.31"/>
	<polygon class="st0" points="149.04,105.06 148.07,98.54 146.37,105.06 141.85,105.06 139.93,93.58 143.73,93.58 144.63,100.14 
		146.31,93.58 150.64,93.58 151.73,100.37 153.46,93.58 157.15,93.58 153.84,105.06 	"/>
	<path class="st0" d="M157.25,105.06c0.16-1.49,0.29-3.21,0.39-5.16c0.11-1.94,0.17-4.05,0.21-6.32h9.98l-0.13,3.03
		c-0.5-0.05-0.98-0.09-1.43-0.11c-0.45-0.02-0.89-0.03-1.3-0.03h-2.81l-0.08,1.4h2.13c0.27,0,1.07-0.03,2.41-0.09h0.1l-0.13,2.99
		c-0.33-0.02-0.67-0.03-1.01-0.04c-0.34-0.01-0.78-0.01-1.3-0.01h-0.71h-1.62l-0.1,1.4h2.43c0.63,0,1.19-0.01,1.68-0.03
		c0.49-0.02,0.97-0.05,1.45-0.09l-0.13,3.06H157.25z"/>
	<path class="st0" d="M168.64,105.06c0.16-1.43,0.29-3.12,0.39-5.08c0.1-1.96,0.17-4.09,0.2-6.4h6.54c0.93,0,1.6,0.04,2.01,0.13
		c0.41,0.09,0.76,0.23,1.05,0.43c0.4,0.27,0.71,0.64,0.93,1.1c0.22,0.46,0.32,0.98,0.32,1.56c0,0.75-0.18,1.39-0.55,1.93
		c-0.36,0.54-0.91,0.97-1.64,1.27c0.21,0.7,0.44,1.47,0.71,2.31c0.26,0.84,0.56,1.76,0.9,2.75h-4.63c-0.19-0.94-0.4-1.94-0.64-2.99
		c-0.23-1.05-0.49-2.2-0.79-3.43l0.17-0.22c0.05,0,0.16,0.01,0.32,0.03c0.16,0.02,0.28,0.02,0.36,0.02c0.48,0,0.85-0.08,1.09-0.25
		c0.24-0.16,0.36-0.4,0.36-0.72c0-0.34-0.11-0.58-0.34-0.73c-0.23-0.15-0.62-0.22-1.16-0.22c-0.11,0-0.24,0.01-0.41,0.03
		c-0.16,0.02-0.34,0.05-0.54,0.08l-0.22,4.65c-0.01,0.35-0.03,0.86-0.04,1.54c-0.01,0.67-0.01,1.41-0.01,2.22H168.64z"/>
	<path class="st0" d="M182.3,101.54L182.3,101.54h0.3c0.13,0,0.22,0.01,0.27,0.03c0.04,0.02,0.08,0.05,0.11,0.09
		c0.03,0.04,0.04,0.08,0.04,0.13c0,0.08-0.03,0.14-0.09,0.19c-0.06,0.04-0.16,0.07-0.32,0.07h-0.33V101.54z M182.3,102.99
		L182.3,102.99v-0.71h0.15c0.09,0,0.17,0.02,0.22,0.06c0.07,0.05,0.16,0.18,0.27,0.39l0.15,0.26h0.33l-0.2-0.33
		c-0.1-0.16-0.18-0.27-0.25-0.33c-0.03-0.03-0.08-0.06-0.14-0.09c0.14-0.01,0.26-0.06,0.35-0.15c0.08-0.09,0.12-0.2,0.12-0.32
		c0-0.09-0.02-0.17-0.07-0.24c-0.05-0.08-0.12-0.14-0.21-0.16c-0.09-0.03-0.22-0.04-0.42-0.04h-0.57v1.66H182.3z M181.95,100.78
		L181.95,100.78c-0.25,0.13-0.44,0.32-0.58,0.57c-0.14,0.25-0.21,0.51-0.21,0.78c0,0.27,0.07,0.52,0.21,0.77
		c0.13,0.25,0.32,0.43,0.57,0.57c0.25,0.14,0.5,0.2,0.77,0.2c0.26,0,0.52-0.07,0.76-0.2c0.24-0.14,0.43-0.32,0.57-0.57
		c0.13-0.25,0.2-0.5,0.2-0.77c0-0.27-0.07-0.53-0.21-0.78c-0.14-0.25-0.33-0.44-0.58-0.57c-0.25-0.14-0.5-0.2-0.76-0.2
		C182.45,100.58,182.2,100.65,181.95,100.78 M183.34,101.01c0.2,0.11,0.36,0.27,0.48,0.47c0.12,0.21,0.18,0.42,0.18,0.65
		c0,0.22-0.06,0.43-0.17,0.64c-0.11,0.2-0.27,0.36-0.48,0.48c-0.2,0.11-0.42,0.17-0.64,0.17c-0.23,0-0.43-0.06-0.64-0.17
		c-0.2-0.12-0.36-0.27-0.47-0.48c-0.12-0.21-0.18-0.42-0.18-0.64c0-0.23,0.06-0.44,0.18-0.65c0.11-0.21,0.27-0.36,0.48-0.47
		c0.2-0.11,0.42-0.17,0.63-0.17C182.93,100.84,183.14,100.9,183.34,101.01"/>
	<path class="st0" d="M66.8,107.28c-0.12,0-0.26,0.05-0.42,0.16c-0.15,0.11-0.29,0.25-0.4,0.42c-0.1,0.14-0.17,0.29-0.23,0.44
		c-0.05,0.15-0.08,0.29-0.08,0.42c0,0.14,0.03,0.24,0.1,0.33c0.08,0.1,0.19,0.15,0.34,0.15c0.07,0,0.14-0.02,0.2-0.04
		c0.06-0.03,0.14-0.07,0.21-0.14c0.07-0.06,0.15-0.15,0.25-0.27c0.06-0.08,0.11-0.13,0.15-0.15c0.06-0.03,0.11-0.04,0.15-0.04
		c0.03,0,0.05,0.01,0.05,0.05c0,0.04-0.03,0.1-0.09,0.19c-0.06,0.1-0.13,0.18-0.21,0.27c-0.3,0.31-0.6,0.47-0.93,0.47
		c-0.19,0-0.34-0.06-0.47-0.19c-0.12-0.12-0.17-0.28-0.17-0.47c0-0.26,0.09-0.53,0.27-0.82c0.21-0.34,0.45-0.61,0.74-0.81
		c0.26-0.18,0.49-0.27,0.71-0.27c0.15,0,0.27,0.04,0.36,0.11c0.1,0.09,0.15,0.21,0.15,0.36c0,0.16-0.07,0.31-0.22,0.44
		c-0.1,0.09-0.19,0.13-0.28,0.13c-0.06,0-0.08-0.02-0.08-0.06c0-0.01,0.01-0.04,0.04-0.08c0.06-0.1,0.1-0.16,0.12-0.21
		c0.02-0.04,0.03-0.09,0.03-0.14c0-0.09-0.03-0.15-0.08-0.2C66.96,107.31,66.89,107.28,66.8,107.28"/>
	<path class="st0" d="M67.92,108.03L67.92,108.03c-0.19,0.14-0.34,0.32-0.47,0.54c-0.12,0.22-0.18,0.41-0.18,0.59
		c0,0.12,0.04,0.23,0.12,0.31c0.08,0.08,0.18,0.12,0.31,0.12c0.14,0,0.29-0.04,0.44-0.12c0.15-0.08,0.3-0.19,0.45-0.34
		c0.14-0.14,0.24-0.29,0.32-0.44c0.08-0.15,0.12-0.3,0.12-0.44c0-0.15-0.04-0.27-0.12-0.35c-0.08-0.08-0.19-0.12-0.34-0.12
		C68.35,107.78,68.14,107.86,67.92,108.03 M68.58,108.11c0.05,0.06,0.07,0.13,0.07,0.23c0,0.09-0.02,0.19-0.07,0.3
		c-0.04,0.12-0.1,0.22-0.17,0.31c-0.08,0.1-0.16,0.17-0.26,0.23c-0.09,0.06-0.19,0.09-0.27,0.09c-0.07,0-0.13-0.02-0.18-0.08
		c-0.05-0.05-0.07-0.12-0.07-0.2c0-0.1,0.02-0.2,0.06-0.31c0.04-0.11,0.09-0.21,0.16-0.31c0.08-0.11,0.17-0.2,0.26-0.26
		c0.09-0.06,0.19-0.09,0.27-0.09C68.47,108.03,68.54,108.06,68.58,108.11"/>
	<path class="st0" d="M72.01,108.63l-0.11,0.25c-0.06,0.15-0.11,0.3-0.13,0.43c-0.01,0.03-0.02,0.06-0.03,0.07
		c-0.01,0.02-0.04,0.04-0.09,0.08c-0.1,0.07-0.18,0.11-0.23,0.11c-0.02,0-0.04-0.01-0.06-0.04c-0.02-0.02-0.03-0.05-0.03-0.08
		c0-0.09,0.05-0.26,0.17-0.51l0.11-0.25c0.06-0.15,0.1-0.25,0.12-0.31c0.02-0.06,0.03-0.11,0.03-0.16c0-0.11-0.06-0.17-0.18-0.17
		c-0.11,0-0.24,0.06-0.38,0.17c-0.14,0.12-0.27,0.27-0.38,0.46c-0.12,0.2-0.21,0.4-0.26,0.6c-0.01,0.04-0.03,0.08-0.05,0.1
		c-0.02,0.03-0.04,0.05-0.09,0.08c-0.09,0.07-0.16,0.1-0.21,0.1c-0.05,0-0.08-0.04-0.08-0.12c0-0.04,0.01-0.08,0.03-0.14
		c0.02-0.06,0.06-0.15,0.12-0.3l0.12-0.28c0.06-0.15,0.11-0.26,0.13-0.33c0.02-0.08,0.04-0.13,0.04-0.18c0-0.11-0.06-0.17-0.17-0.17
		c-0.1,0-0.21,0.05-0.35,0.15c-0.13,0.1-0.25,0.22-0.36,0.38c-0.15,0.22-0.26,0.44-0.32,0.68c-0.01,0.06-0.03,0.1-0.04,0.11
		c-0.01,0.02-0.04,0.04-0.07,0.07c-0.11,0.08-0.19,0.12-0.25,0.12c-0.05,0-0.07-0.04-0.07-0.11c0-0.11,0.13-0.45,0.39-1.01l0.14-0.3
		c0.03-0.06,0.04-0.1,0.05-0.13c0.01-0.05,0.02-0.08,0.04-0.1c0.02-0.02,0.05-0.04,0.11-0.07c0.09-0.04,0.15-0.05,0.21-0.05
		c0.05,0,0.08,0.03,0.08,0.08c0,0.03-0.02,0.07-0.04,0.13l-0.07,0.13c0,0.01,0,0.01,0,0.01c0,0.01,0.01,0.02,0.02,0.02
		c0,0,0.01,0,0.02-0.01c0.11-0.1,0.24-0.19,0.38-0.26c0.14-0.07,0.27-0.11,0.36-0.11c0.09,0,0.16,0.03,0.23,0.1
		c0.06,0.06,0.09,0.14,0.09,0.23v0.04c0,0.02,0,0.03,0,0.04c0,0.02,0,0.02,0.02,0.02c0.01,0,0.03-0.02,0.08-0.05
		c0.3-0.24,0.57-0.36,0.79-0.36c0.09,0,0.17,0.03,0.23,0.09c0.06,0.06,0.08,0.14,0.08,0.25c0,0.07-0.01,0.12-0.02,0.17
		C72.13,108.35,72.09,108.46,72.01,108.63"/>
	<path class="st0" d="M73.36,106.89L73.36,106.89c0.03,0,0.04,0.01,0.06,0.02c0.02,0.02,0.02,0.03,0.02,0.05
		c-0.01,0.06-0.03,0.12-0.06,0.19c-0.03,0.07-0.07,0.12-0.11,0.15c-0.04,0.03-0.09,0.06-0.16,0.09c-0.07,0.03-0.12,0.05-0.15,0.05
		c-0.04,0-0.06-0.02-0.06-0.07c0-0.04,0.02-0.1,0.06-0.18c0.04-0.08,0.08-0.14,0.12-0.18c0.03-0.03,0.07-0.06,0.14-0.09
		C73.28,106.91,73.33,106.89,73.36,106.89 M73.1,108.02l-0.14,0.3c-0.24,0.5-0.38,0.83-0.41,0.99c-0.01,0.04-0.04,0.08-0.09,0.12
		c-0.12,0.09-0.2,0.13-0.24,0.13c-0.02,0-0.04-0.01-0.06-0.03c-0.02-0.02-0.02-0.04-0.02-0.07c0-0.13,0.09-0.4,0.28-0.8l0.23-0.49
		c0.03-0.06,0.06-0.12,0.08-0.19c0.02-0.05,0.04-0.08,0.06-0.1c0.02-0.02,0.05-0.03,0.08-0.05c0.11-0.04,0.18-0.06,0.22-0.06
		c0.05,0,0.07,0.03,0.07,0.08C73.16,107.89,73.14,107.94,73.1,108.02"/>
	<path class="st0" d="M74.72,107.89L74.72,107.89c-0.01,0.03-0.03,0.04-0.04,0.04c-0.01,0-0.02-0.01-0.03-0.03
		c-0.06-0.08-0.16-0.12-0.28-0.12c-0.13,0-0.27,0.04-0.42,0.11c-0.22,0.11-0.41,0.26-0.57,0.48c-0.21,0.27-0.31,0.52-0.31,0.76
		c0,0.14,0.04,0.24,0.11,0.32c0.07,0.08,0.17,0.12,0.29,0.12c0.21,0,0.41-0.08,0.6-0.23c0.02-0.02,0.03-0.02,0.03-0.02
		c0.01,0,0.02,0.01,0.02,0.02c0,0.05,0.01,0.08,0.02,0.11c0.03,0.06,0.07,0.09,0.11,0.09c0.03,0,0.08-0.03,0.16-0.08
		c0.11-0.07,0.17-0.13,0.17-0.18c0-0.01,0-0.02,0-0.03c0-0.01,0-0.03,0-0.04c0-0.09,0.07-0.32,0.22-0.66l0.28-0.65
		c0.14-0.33,0.25-0.54,0.31-0.65c0.03-0.04,0.04-0.08,0.04-0.1c0-0.05-0.03-0.07-0.08-0.07c-0.09,0-0.2,0.03-0.33,0.11L74.72,107.89
		z M74.46,108.31c0,0.08-0.02,0.17-0.07,0.28c-0.05,0.11-0.1,0.21-0.17,0.3c-0.08,0.11-0.18,0.2-0.28,0.26
		c-0.1,0.06-0.21,0.09-0.32,0.09c-0.07,0-0.13-0.02-0.17-0.07c-0.04-0.05-0.07-0.11-0.07-0.18c0-0.08,0.02-0.18,0.06-0.28
		c0.04-0.11,0.1-0.21,0.17-0.31c0.17-0.24,0.36-0.36,0.57-0.36C74.37,108.05,74.46,108.14,74.46,108.31"/>
	<path class="st0" d="M75.9,109.45L75.9,109.45c0,0.04,0.01,0.07,0.03,0.1c0.02,0.03,0.04,0.05,0.07,0.05
		c0.04,0,0.09-0.03,0.16-0.08c0.07-0.05,0.1-0.09,0.1-0.12c0-0.07,0.01-0.13,0.04-0.19l0.25-0.56c0.11-0.23,0.16-0.4,0.16-0.52
		c0-0.05-0.01-0.1-0.04-0.15c-0.03-0.05-0.06-0.09-0.1-0.11c-0.08-0.06-0.2-0.09-0.36-0.09c-0.29,0-0.53,0.07-0.71,0.2
		c-0.09,0.07-0.13,0.12-0.13,0.18c0,0.04,0.02,0.05,0.05,0.05c0.02,0,0.05-0.01,0.08-0.03c0.2-0.11,0.39-0.17,0.57-0.17
		c0.09,0,0.16,0.02,0.21,0.06c0.05,0.04,0.07,0.09,0.07,0.16c0,0.06-0.02,0.11-0.05,0.15c-0.04,0.04-0.08,0.07-0.13,0.07
		c-0.01,0-0.05,0-0.12,0c-0.01,0-0.03,0-0.04,0c-0.16,0-0.32,0.03-0.48,0.08c-0.2,0.07-0.36,0.17-0.49,0.31
		c-0.12,0.14-0.19,0.29-0.19,0.44c0,0.05,0.01,0.09,0.03,0.14c0.02,0.05,0.06,0.08,0.09,0.11c0.06,0.04,0.15,0.07,0.27,0.07
		c0.22,0,0.43-0.08,0.65-0.23C75.91,109.4,75.9,109.43,75.9,109.45 M76.07,108.71c0.05,0.03,0.07,0.08,0.07,0.14
		c0,0.05-0.02,0.1-0.06,0.16c-0.04,0.06-0.09,0.12-0.15,0.16c-0.07,0.05-0.15,0.1-0.23,0.13c-0.09,0.03-0.17,0.05-0.24,0.05
		c-0.07,0-0.12-0.02-0.17-0.05c-0.04-0.04-0.06-0.08-0.06-0.14c0-0.13,0.07-0.24,0.21-0.35c0.06-0.05,0.13-0.08,0.22-0.11
		c0.08-0.03,0.16-0.04,0.24-0.04C75.96,108.66,76.02,108.68,76.07,108.71"/>
	<path class="st0" d="M79.42,107.28c-0.12,0-0.26,0.05-0.42,0.16c-0.15,0.11-0.29,0.25-0.4,0.42c-0.1,0.14-0.17,0.29-0.23,0.44
		c-0.05,0.15-0.08,0.29-0.08,0.42c0,0.14,0.03,0.24,0.1,0.33c0.08,0.1,0.19,0.15,0.34,0.15c0.07,0,0.14-0.02,0.2-0.04
		c0.07-0.03,0.13-0.07,0.21-0.14c0.07-0.06,0.15-0.15,0.25-0.27c0.06-0.08,0.11-0.13,0.15-0.15c0.06-0.03,0.11-0.04,0.15-0.04
		c0.04,0,0.05,0.01,0.05,0.05c0,0.04-0.03,0.1-0.09,0.19c-0.06,0.1-0.13,0.18-0.21,0.27c-0.3,0.31-0.6,0.47-0.92,0.47
		c-0.19,0-0.35-0.06-0.47-0.19c-0.12-0.12-0.18-0.28-0.18-0.47c0-0.26,0.09-0.53,0.27-0.82c0.21-0.34,0.46-0.61,0.74-0.81
		c0.26-0.18,0.49-0.27,0.71-0.27c0.15,0,0.27,0.04,0.36,0.11c0.1,0.09,0.15,0.21,0.15,0.36c0,0.16-0.07,0.31-0.22,0.44
		c-0.1,0.09-0.19,0.13-0.28,0.13c-0.05,0-0.08-0.02-0.08-0.06c0-0.01,0.01-0.04,0.04-0.08c0.06-0.1,0.11-0.16,0.12-0.21
		c0.02-0.04,0.03-0.09,0.03-0.14c0-0.09-0.03-0.15-0.07-0.2C79.58,107.31,79.51,107.28,79.42,107.28"/>
	<path class="st0" d="M80.86,107.74l-0.18,0.41c-0.01,0.02-0.01,0.03-0.01,0.03c0,0.01,0.01,0.02,0.02,0.02
		c0.01,0,0.04-0.01,0.07-0.04c0.3-0.25,0.55-0.37,0.77-0.37c0.1,0,0.17,0.03,0.23,0.08c0.06,0.06,0.09,0.14,0.09,0.23
		c0,0.11-0.04,0.26-0.13,0.46l-0.15,0.34l-0.04,0.11c-0.04,0.11-0.07,0.2-0.08,0.27c-0.01,0.04-0.02,0.08-0.03,0.09
		c-0.01,0.02-0.04,0.04-0.08,0.07c-0.12,0.08-0.19,0.11-0.23,0.11c-0.05,0-0.08-0.04-0.08-0.11c0-0.08,0.03-0.19,0.09-0.33
		l0.19-0.45c0.07-0.16,0.11-0.27,0.13-0.32c0.02-0.05,0.02-0.1,0.02-0.14c0-0.05-0.01-0.08-0.04-0.11
		c-0.03-0.03-0.07-0.05-0.12-0.05c-0.07,0-0.16,0.03-0.25,0.08c-0.09,0.05-0.18,0.12-0.27,0.21c-0.1,0.1-0.2,0.25-0.3,0.44
		c-0.11,0.19-0.18,0.36-0.21,0.5c-0.01,0.05-0.03,0.08-0.04,0.1c-0.01,0.02-0.04,0.04-0.08,0.07c-0.11,0.07-0.18,0.11-0.22,0.11
		c-0.02,0-0.04-0.01-0.06-0.03c-0.02-0.02-0.02-0.05-0.02-0.08c0-0.05,0.02-0.13,0.05-0.22c0.03-0.1,0.11-0.29,0.23-0.58l0.1-0.24
		l0.48-1.08c0.03-0.07,0.06-0.11,0.09-0.12c0.11-0.05,0.21-0.08,0.28-0.08c0.02,0,0.04,0.01,0.06,0.02
		c0.01,0.01,0.02,0.03,0.02,0.05c0,0.02-0.01,0.04-0.03,0.08C81.03,107.38,80.95,107.54,80.86,107.74"/>
	<path class="st0" d="M83.06,106.89L83.06,106.89c0.02,0,0.04,0.01,0.06,0.02c0.02,0.02,0.02,0.03,0.02,0.05
		c0,0.06-0.03,0.12-0.06,0.19c-0.04,0.07-0.07,0.12-0.11,0.15c-0.03,0.03-0.09,0.06-0.16,0.09c-0.07,0.03-0.12,0.05-0.15,0.05
		c-0.04,0-0.06-0.02-0.06-0.07c0-0.04,0.02-0.1,0.06-0.18c0.04-0.08,0.08-0.14,0.12-0.18c0.03-0.03,0.08-0.06,0.14-0.09
		C82.98,106.91,83.03,106.89,83.06,106.89 M82.81,108.02l-0.15,0.3c-0.24,0.5-0.38,0.83-0.4,0.99c-0.01,0.04-0.04,0.08-0.1,0.12
		c-0.12,0.09-0.2,0.13-0.24,0.13c-0.02,0-0.05-0.01-0.06-0.03c-0.02-0.02-0.02-0.04-0.02-0.07c0-0.13,0.1-0.4,0.29-0.8l0.23-0.49
		c0.03-0.06,0.06-0.12,0.08-0.19c0.02-0.05,0.04-0.08,0.06-0.1c0.01-0.02,0.04-0.03,0.08-0.05c0.11-0.04,0.18-0.06,0.22-0.06
		c0.05,0,0.07,0.03,0.07,0.08C82.86,107.89,82.84,107.94,82.81,108.02"/>
	<path class="st0" d="M84.59,108.56l-0.15,0.34c-0.06,0.16-0.11,0.29-0.13,0.38c-0.01,0.04-0.02,0.07-0.03,0.09
		c-0.01,0.02-0.04,0.04-0.07,0.07c-0.12,0.08-0.19,0.12-0.24,0.12c-0.06,0-0.08-0.04-0.08-0.11c0-0.04,0.01-0.1,0.04-0.19
		c0.03-0.09,0.06-0.17,0.09-0.26l0.12-0.29c0.08-0.18,0.13-0.29,0.15-0.35c0.02-0.06,0.03-0.11,0.03-0.15
		c0-0.05-0.02-0.09-0.05-0.12c-0.04-0.03-0.08-0.05-0.13-0.05c-0.07,0-0.15,0.03-0.24,0.08c-0.09,0.05-0.18,0.12-0.27,0.2
		c-0.1,0.11-0.21,0.25-0.31,0.43c-0.1,0.17-0.17,0.34-0.21,0.5c-0.02,0.06-0.03,0.1-0.04,0.11c-0.01,0.01-0.04,0.04-0.08,0.06
		c-0.13,0.09-0.21,0.13-0.24,0.13c-0.02,0-0.04-0.01-0.05-0.03c-0.01-0.02-0.02-0.04-0.02-0.07c0-0.12,0.13-0.46,0.39-1.02
		l0.14-0.29c0.03-0.05,0.05-0.09,0.06-0.13c0.02-0.06,0.04-0.1,0.06-0.12c0.02-0.02,0.05-0.04,0.1-0.05c0.1-0.04,0.17-0.06,0.2-0.06
		c0.06,0,0.08,0.03,0.08,0.08c0,0.03-0.02,0.08-0.05,0.15l-0.06,0.11c0,0.01,0,0.01,0,0.02c0,0.01,0,0.02,0.01,0.02
		c0.01,0,0.02-0.01,0.04-0.03c0.13-0.1,0.26-0.19,0.39-0.25c0.13-0.07,0.25-0.1,0.34-0.1c0.09,0,0.17,0.03,0.23,0.09
		c0.06,0.06,0.08,0.14,0.08,0.24C84.7,108.23,84.66,108.38,84.59,108.56"/>
	<path class="st0" d="M85.67,109.45L85.67,109.45c0,0.04,0.01,0.07,0.03,0.1c0.02,0.03,0.04,0.05,0.07,0.05
		c0.04,0,0.09-0.03,0.16-0.08c0.07-0.05,0.1-0.09,0.1-0.12c0-0.07,0.01-0.13,0.04-0.19l0.25-0.56c0.11-0.23,0.16-0.4,0.16-0.52
		c0-0.05-0.01-0.1-0.04-0.15c-0.02-0.05-0.06-0.09-0.1-0.11c-0.08-0.06-0.2-0.09-0.36-0.09c-0.29,0-0.53,0.07-0.71,0.2
		c-0.09,0.07-0.13,0.12-0.13,0.18c0,0.04,0.02,0.05,0.05,0.05c0.02,0,0.05-0.01,0.08-0.03c0.21-0.11,0.39-0.17,0.57-0.17
		c0.09,0,0.16,0.02,0.21,0.06c0.05,0.04,0.07,0.09,0.07,0.16c0,0.06-0.02,0.11-0.05,0.15c-0.04,0.04-0.07,0.07-0.12,0.07
		c-0.01,0-0.05,0-0.12,0c-0.01,0-0.03,0-0.04,0c-0.16,0-0.32,0.03-0.47,0.08c-0.2,0.07-0.36,0.17-0.48,0.31
		c-0.13,0.14-0.19,0.29-0.19,0.44c0,0.05,0.01,0.09,0.04,0.14c0.02,0.05,0.06,0.08,0.09,0.11c0.06,0.04,0.15,0.07,0.27,0.07
		c0.22,0,0.43-0.08,0.65-0.23C85.67,109.4,85.67,109.43,85.67,109.45 M85.83,108.71c0.05,0.03,0.07,0.08,0.07,0.14
		c0,0.05-0.02,0.1-0.06,0.16c-0.04,0.06-0.09,0.12-0.15,0.16c-0.07,0.05-0.15,0.1-0.23,0.13c-0.09,0.03-0.16,0.05-0.24,0.05
		c-0.07,0-0.12-0.02-0.16-0.05c-0.04-0.04-0.06-0.08-0.06-0.14c0-0.13,0.07-0.24,0.21-0.35c0.06-0.05,0.13-0.08,0.21-0.11
		c0.08-0.03,0.16-0.04,0.24-0.04C85.72,108.66,85.79,108.68,85.83,108.71"/>
	<path class="st0" d="M86.8,109.03c0.06,0,0.11,0.02,0.15,0.06c0.04,0.04,0.06,0.09,0.06,0.15c0,0.05-0.01,0.09-0.04,0.15
		c-0.03,0.05-0.06,0.1-0.09,0.13c-0.07,0.07-0.15,0.11-0.24,0.11c-0.06,0-0.11-0.02-0.14-0.06c-0.04-0.04-0.05-0.09-0.05-0.15
		c0-0.1,0.04-0.19,0.11-0.26C86.63,109.07,86.71,109.03,86.8,109.03"/>
	<path class="st0" d="M87.66,109.03c0.06,0,0.11,0.02,0.15,0.06c0.04,0.04,0.06,0.09,0.06,0.15c0,0.05-0.01,0.09-0.03,0.15
		c-0.03,0.05-0.06,0.1-0.09,0.13c-0.07,0.07-0.15,0.11-0.24,0.11c-0.06,0-0.11-0.02-0.14-0.06c-0.04-0.04-0.05-0.09-0.05-0.15
		c0-0.1,0.04-0.19,0.11-0.26C87.49,109.07,87.57,109.03,87.66,109.03"/>
	<path class="st0" d="M88.52,109.03c0.06,0,0.11,0.02,0.15,0.06c0.04,0.04,0.06,0.09,0.06,0.15c0,0.05-0.01,0.09-0.04,0.15
		c-0.02,0.05-0.05,0.1-0.09,0.13c-0.07,0.07-0.15,0.11-0.24,0.11c-0.06,0-0.11-0.02-0.14-0.06c-0.04-0.04-0.05-0.09-0.05-0.15
		c0-0.1,0.04-0.19,0.11-0.26C88.34,109.07,88.43,109.03,88.52,109.03"/>
	<path class="st0" d="M91.77,107.28c-0.12,0-0.26,0.05-0.42,0.16c-0.15,0.11-0.29,0.25-0.4,0.42c-0.1,0.14-0.17,0.29-0.23,0.44
		c-0.05,0.15-0.08,0.29-0.08,0.42c0,0.14,0.03,0.24,0.1,0.33c0.08,0.1,0.19,0.15,0.33,0.15c0.07,0,0.14-0.02,0.2-0.04
		c0.06-0.03,0.13-0.07,0.21-0.14c0.07-0.06,0.16-0.15,0.25-0.27c0.06-0.08,0.11-0.13,0.15-0.15c0.06-0.03,0.11-0.04,0.15-0.04
		c0.03,0,0.05,0.01,0.05,0.05c0,0.04-0.03,0.1-0.09,0.19c-0.06,0.1-0.13,0.18-0.21,0.27c-0.29,0.31-0.6,0.47-0.92,0.47
		c-0.19,0-0.34-0.06-0.47-0.19c-0.12-0.12-0.18-0.28-0.18-0.47c0-0.26,0.09-0.53,0.27-0.82c0.21-0.34,0.45-0.61,0.74-0.81
		c0.26-0.18,0.49-0.27,0.71-0.27c0.15,0,0.27,0.04,0.36,0.11c0.1,0.09,0.15,0.21,0.15,0.36c0,0.16-0.07,0.31-0.22,0.44
		c-0.1,0.09-0.19,0.13-0.28,0.13c-0.05,0-0.08-0.02-0.08-0.06c0-0.01,0.02-0.04,0.04-0.08c0.06-0.1,0.1-0.16,0.12-0.21
		c0.02-0.04,0.03-0.09,0.03-0.14c0-0.09-0.02-0.15-0.08-0.2C91.92,107.31,91.85,107.28,91.77,107.28"/>
	<path class="st0" d="M92.88,108.03L92.88,108.03c-0.19,0.14-0.35,0.32-0.47,0.54c-0.12,0.22-0.18,0.41-0.18,0.59
		c0,0.12,0.04,0.23,0.12,0.31c0.08,0.08,0.18,0.12,0.3,0.12c0.14,0,0.28-0.04,0.44-0.12c0.15-0.08,0.3-0.19,0.44-0.34
		c0.14-0.14,0.25-0.29,0.32-0.44c0.08-0.15,0.11-0.3,0.11-0.44c0-0.15-0.04-0.27-0.12-0.35c-0.08-0.08-0.19-0.12-0.34-0.12
		C93.32,107.78,93.1,107.86,92.88,108.03 M93.55,108.11c0.05,0.06,0.07,0.13,0.07,0.23c0,0.09-0.02,0.19-0.07,0.3
		c-0.04,0.12-0.1,0.22-0.17,0.31c-0.08,0.1-0.16,0.17-0.26,0.23c-0.1,0.06-0.19,0.09-0.27,0.09c-0.08,0-0.13-0.02-0.18-0.08
		c-0.05-0.05-0.07-0.12-0.07-0.2c0-0.1,0.02-0.2,0.06-0.31c0.04-0.11,0.09-0.21,0.16-0.31c0.08-0.11,0.17-0.2,0.26-0.26
		c0.09-0.06,0.18-0.09,0.27-0.09C93.43,108.03,93.5,108.06,93.55,108.11"/>
	<path class="st0" d="M96.98,108.63l-0.11,0.25c-0.07,0.15-0.11,0.3-0.13,0.43c0,0.03-0.01,0.06-0.03,0.07
		c-0.01,0.02-0.04,0.04-0.09,0.08c-0.1,0.07-0.18,0.11-0.22,0.11c-0.02,0-0.04-0.01-0.06-0.04c-0.02-0.02-0.03-0.05-0.03-0.08
		c0-0.09,0.06-0.26,0.17-0.51l0.11-0.25c0.06-0.15,0.1-0.25,0.13-0.31c0.02-0.06,0.03-0.11,0.03-0.16c0-0.11-0.06-0.17-0.18-0.17
		c-0.11,0-0.24,0.06-0.38,0.17c-0.14,0.12-0.27,0.27-0.39,0.46c-0.12,0.2-0.21,0.4-0.26,0.6c-0.01,0.04-0.02,0.08-0.04,0.1
		c-0.02,0.03-0.05,0.05-0.09,0.08c-0.09,0.07-0.16,0.1-0.21,0.1c-0.05,0-0.08-0.04-0.08-0.12c0-0.04,0.01-0.08,0.03-0.14
		c0.02-0.06,0.06-0.15,0.12-0.3l0.12-0.28c0.06-0.15,0.11-0.26,0.13-0.33c0.02-0.08,0.03-0.13,0.03-0.18c0-0.11-0.06-0.17-0.17-0.17
		c-0.1,0-0.21,0.05-0.34,0.15c-0.13,0.1-0.25,0.22-0.36,0.38c-0.15,0.22-0.25,0.44-0.32,0.68c-0.01,0.06-0.02,0.1-0.04,0.11
		c-0.01,0.02-0.03,0.04-0.07,0.07c-0.11,0.08-0.19,0.12-0.25,0.12c-0.05,0-0.07-0.04-0.07-0.11c0-0.11,0.13-0.45,0.39-1.01l0.14-0.3
		c0.03-0.06,0.04-0.1,0.05-0.13c0.01-0.05,0.02-0.08,0.04-0.1c0.02-0.02,0.05-0.04,0.11-0.07c0.08-0.04,0.15-0.05,0.2-0.05
		c0.06,0,0.08,0.03,0.08,0.08c0,0.03-0.01,0.07-0.04,0.13l-0.06,0.13c0,0.01-0.01,0.01-0.01,0.01c0,0.01,0.01,0.02,0.02,0.02
		c0.01,0,0.01,0,0.02-0.01c0.11-0.1,0.24-0.19,0.38-0.26c0.15-0.07,0.27-0.11,0.36-0.11c0.09,0,0.17,0.03,0.23,0.1
		c0.06,0.06,0.09,0.14,0.09,0.23c0,0.01,0,0.02,0,0.04c0,0.02,0,0.03,0,0.04c0,0.02,0.01,0.02,0.02,0.02c0.01,0,0.04-0.02,0.08-0.05
		c0.3-0.24,0.57-0.36,0.8-0.36c0.09,0,0.17,0.03,0.22,0.09c0.06,0.06,0.08,0.14,0.08,0.25c0,0.07-0.01,0.12-0.02,0.17
		C97.09,108.35,97.05,108.46,96.98,108.63"/>
	<path class="st0" d="M98.32,106.89L98.32,106.89c0.02,0,0.04,0.01,0.06,0.02c0.02,0.02,0.02,0.03,0.02,0.05
		c0,0.06-0.02,0.12-0.06,0.19c-0.03,0.07-0.07,0.12-0.11,0.15c-0.04,0.03-0.09,0.06-0.16,0.09c-0.07,0.03-0.12,0.05-0.15,0.05
		c-0.04,0-0.06-0.02-0.06-0.07c0-0.04,0.02-0.1,0.06-0.18c0.04-0.08,0.08-0.14,0.12-0.18c0.03-0.03,0.07-0.06,0.14-0.09
		C98.24,106.91,98.29,106.89,98.32,106.89 M98.07,108.02l-0.15,0.3c-0.24,0.5-0.38,0.83-0.4,0.99c-0.01,0.04-0.04,0.08-0.1,0.12
		c-0.12,0.09-0.2,0.13-0.24,0.13c-0.02,0-0.04-0.01-0.06-0.03c-0.01-0.02-0.02-0.04-0.02-0.07c0-0.13,0.09-0.4,0.29-0.8l0.23-0.49
		c0.03-0.06,0.05-0.12,0.08-0.19c0.02-0.05,0.04-0.08,0.06-0.1c0.01-0.02,0.04-0.03,0.08-0.05c0.11-0.04,0.18-0.06,0.21-0.06
		c0.05,0,0.07,0.03,0.07,0.08C98.12,107.89,98.11,107.94,98.07,108.02"/>
	<path class="st0" d="M99.68,107.89L99.68,107.89c-0.01,0.03-0.02,0.04-0.04,0.04c-0.01,0-0.02-0.01-0.03-0.03
		c-0.06-0.08-0.16-0.12-0.28-0.12c-0.13,0-0.28,0.04-0.42,0.11c-0.21,0.11-0.4,0.26-0.57,0.48c-0.21,0.27-0.31,0.52-0.31,0.76
		c0,0.14,0.04,0.24,0.11,0.32c0.07,0.08,0.17,0.12,0.29,0.12c0.22,0,0.41-0.08,0.6-0.23c0.02-0.02,0.02-0.02,0.03-0.02
		c0.01,0,0.02,0.01,0.02,0.02c0,0.05,0.01,0.08,0.02,0.11c0.03,0.06,0.06,0.09,0.11,0.09c0.03,0,0.08-0.03,0.16-0.08
		c0.11-0.07,0.17-0.13,0.17-0.18c0-0.01,0-0.02,0-0.03v-0.04c0-0.09,0.07-0.32,0.22-0.66l0.28-0.65c0.14-0.33,0.25-0.54,0.31-0.65
		c0.03-0.04,0.04-0.08,0.04-0.1c0-0.05-0.03-0.07-0.08-0.07c-0.09,0-0.2,0.03-0.33,0.11L99.68,107.89z M99.43,108.31
		c0,0.08-0.02,0.17-0.07,0.28c-0.04,0.11-0.1,0.21-0.17,0.3c-0.08,0.11-0.18,0.2-0.28,0.26c-0.1,0.06-0.21,0.09-0.32,0.09
		c-0.07,0-0.13-0.02-0.17-0.07c-0.04-0.05-0.07-0.11-0.07-0.18c0-0.08,0.02-0.18,0.06-0.28c0.04-0.11,0.1-0.21,0.17-0.31
		c0.17-0.24,0.36-0.36,0.57-0.36C99.34,108.05,99.43,108.14,99.43,108.31"/>
	<path class="st0" d="M100.86,109.45L100.86,109.45c0,0.04,0.01,0.07,0.03,0.1c0.02,0.03,0.04,0.05,0.07,0.05
		c0.04,0,0.09-0.03,0.16-0.08c0.07-0.05,0.11-0.09,0.11-0.12c0-0.07,0.01-0.13,0.03-0.19l0.25-0.56c0.1-0.23,0.16-0.4,0.16-0.52
		c0-0.05-0.01-0.1-0.04-0.15c-0.02-0.05-0.06-0.09-0.1-0.11c-0.08-0.06-0.2-0.09-0.36-0.09c-0.29,0-0.53,0.07-0.71,0.2
		c-0.09,0.07-0.13,0.12-0.13,0.18c0,0.04,0.02,0.05,0.05,0.05c0.02,0,0.05-0.01,0.08-0.03c0.2-0.11,0.39-0.17,0.56-0.17
		c0.09,0,0.16,0.02,0.21,0.06c0.05,0.04,0.07,0.09,0.07,0.16c0,0.06-0.02,0.11-0.05,0.15c-0.04,0.04-0.08,0.07-0.13,0.07
		c-0.01,0-0.05,0-0.12,0c-0.01,0-0.02,0-0.04,0c-0.16,0-0.31,0.03-0.47,0.08c-0.2,0.07-0.36,0.17-0.49,0.31
		c-0.13,0.14-0.19,0.29-0.19,0.44c0,0.05,0.01,0.09,0.04,0.14c0.02,0.05,0.05,0.08,0.09,0.11c0.06,0.04,0.15,0.07,0.27,0.07
		c0.22,0,0.44-0.08,0.65-0.23C100.87,109.4,100.86,109.43,100.86,109.45 M101.03,108.71c0.04,0.03,0.07,0.08,0.07,0.14
		c0,0.05-0.02,0.1-0.06,0.16c-0.04,0.06-0.09,0.12-0.15,0.16c-0.07,0.05-0.15,0.1-0.23,0.13c-0.09,0.03-0.17,0.05-0.24,0.05
		c-0.07,0-0.13-0.02-0.17-0.05c-0.04-0.04-0.06-0.08-0.06-0.14c0-0.13,0.07-0.24,0.21-0.35c0.06-0.05,0.14-0.08,0.22-0.11
		c0.08-0.03,0.16-0.04,0.24-0.04C100.93,108.66,100.99,108.68,101.03,108.71"/>
	<path class="st0" d="M103.84,108.04l0.48,0.12c0.17,0.04,0.29,0.09,0.36,0.15c0.08,0.07,0.12,0.15,0.12,0.25
		c0,0.2-0.17,0.42-0.54,0.66c-0.36,0.24-0.71,0.36-1.06,0.36c-0.19,0-0.33-0.04-0.42-0.12c-0.08-0.07-0.11-0.15-0.11-0.25
		c0-0.11,0.04-0.22,0.11-0.31c0.06-0.07,0.12-0.11,0.19-0.11c0.04,0,0.06,0.02,0.06,0.06c0,0.01,0,0.02,0,0.04
		c-0.01,0.04-0.01,0.07-0.01,0.09c0,0.08,0.03,0.15,0.1,0.2c0.07,0.05,0.16,0.07,0.27,0.07c0.13,0,0.27-0.02,0.41-0.06
		c0.14-0.04,0.27-0.09,0.37-0.16c0.14-0.09,0.21-0.19,0.21-0.29c0-0.09-0.07-0.15-0.2-0.19l-0.56-0.14
		c-0.12-0.03-0.2-0.06-0.26-0.08c-0.06-0.02-0.11-0.06-0.15-0.09c-0.08-0.07-0.12-0.16-0.12-0.28c0-0.23,0.17-0.45,0.5-0.66
		c0.3-0.19,0.62-0.28,0.96-0.28c0.32,0,0.48,0.1,0.48,0.29c0,0.11-0.06,0.22-0.17,0.32c-0.1,0.08-0.18,0.12-0.24,0.12
		c-0.03,0-0.04-0.01-0.04-0.04c0-0.01,0.01-0.03,0.02-0.06c0.02-0.05,0.03-0.1,0.03-0.15c0-0.07-0.03-0.13-0.08-0.16
		c-0.05-0.03-0.13-0.05-0.24-0.05c-0.2,0-0.38,0.05-0.54,0.16c-0.14,0.09-0.22,0.2-0.22,0.32c0,0.07,0.03,0.13,0.07,0.17
		C103.66,107.98,103.73,108.01,103.84,108.04"/>
	<path class="st0" d="M105.82,109.45L105.82,109.45c0,0.04,0.01,0.07,0.03,0.1c0.02,0.03,0.04,0.05,0.07,0.05
		c0.04,0,0.09-0.03,0.16-0.08c0.07-0.05,0.1-0.09,0.1-0.12c0-0.07,0.01-0.13,0.04-0.19l0.25-0.56c0.11-0.23,0.16-0.4,0.16-0.52
		c0-0.05-0.01-0.1-0.04-0.15c-0.02-0.05-0.06-0.09-0.1-0.11c-0.08-0.06-0.2-0.09-0.36-0.09c-0.29,0-0.53,0.07-0.71,0.2
		c-0.09,0.07-0.13,0.12-0.13,0.18c0,0.04,0.02,0.05,0.05,0.05c0.02,0,0.05-0.01,0.08-0.03c0.2-0.11,0.39-0.17,0.57-0.17
		c0.09,0,0.16,0.02,0.21,0.06c0.05,0.04,0.07,0.09,0.07,0.16c0,0.06-0.02,0.11-0.05,0.15c-0.03,0.04-0.07,0.07-0.13,0.07
		c0,0-0.05,0-0.12,0c-0.01,0-0.03,0-0.04,0c-0.16,0-0.32,0.03-0.48,0.08c-0.19,0.07-0.35,0.17-0.48,0.31
		c-0.13,0.14-0.19,0.29-0.19,0.44c0,0.05,0.01,0.09,0.04,0.14c0.02,0.05,0.06,0.08,0.09,0.11c0.06,0.04,0.15,0.07,0.27,0.07
		c0.22,0,0.44-0.08,0.65-0.23C105.82,109.4,105.82,109.43,105.82,109.45 M105.98,108.71c0.04,0.03,0.07,0.08,0.07,0.14
		c0,0.05-0.02,0.1-0.06,0.16c-0.04,0.06-0.09,0.12-0.15,0.16c-0.07,0.05-0.15,0.1-0.23,0.13c-0.09,0.03-0.16,0.05-0.24,0.05
		c-0.07,0-0.13-0.02-0.17-0.05c-0.04-0.04-0.06-0.08-0.06-0.14c0-0.13,0.07-0.24,0.21-0.35c0.06-0.05,0.13-0.08,0.22-0.11
		c0.08-0.03,0.16-0.04,0.24-0.04C105.88,108.66,105.94,108.68,105.98,108.71"/>
	<path class="st0" d="M108.5,108.56l-0.15,0.34c-0.06,0.16-0.11,0.29-0.12,0.38c-0.01,0.04-0.02,0.07-0.03,0.09
		c-0.01,0.02-0.04,0.04-0.07,0.07c-0.12,0.08-0.19,0.12-0.24,0.12c-0.05,0-0.08-0.04-0.08-0.11c0-0.04,0.01-0.1,0.04-0.19
		c0.03-0.09,0.06-0.17,0.09-0.26l0.12-0.29c0.08-0.18,0.13-0.29,0.15-0.35c0.02-0.06,0.03-0.11,0.03-0.15
		c0-0.05-0.02-0.09-0.05-0.12c-0.04-0.03-0.08-0.05-0.13-0.05c-0.07,0-0.15,0.03-0.25,0.08c-0.09,0.05-0.18,0.12-0.27,0.2
		c-0.11,0.11-0.21,0.25-0.31,0.43c-0.1,0.17-0.17,0.34-0.21,0.5c-0.02,0.06-0.03,0.1-0.04,0.11c-0.01,0.01-0.04,0.04-0.08,0.06
		c-0.13,0.09-0.21,0.13-0.25,0.13c-0.02,0-0.04-0.01-0.05-0.03c-0.01-0.02-0.02-0.04-0.02-0.07c0-0.12,0.13-0.46,0.39-1.02
		l0.14-0.29c0.03-0.05,0.05-0.09,0.05-0.13c0.02-0.06,0.04-0.1,0.06-0.12c0.02-0.02,0.05-0.04,0.1-0.05c0.1-0.04,0.17-0.06,0.2-0.06
		c0.06,0,0.08,0.03,0.08,0.08c0,0.03-0.01,0.08-0.05,0.15l-0.06,0.11c0,0.01-0.01,0.01-0.01,0.02c0,0.01,0.01,0.02,0.01,0.02
		c0.01,0,0.02-0.01,0.05-0.03c0.13-0.1,0.26-0.19,0.39-0.25c0.13-0.07,0.25-0.1,0.34-0.1c0.09,0,0.17,0.03,0.23,0.09
		c0.06,0.06,0.08,0.14,0.08,0.24C108.62,108.23,108.58,108.38,108.5,108.56"/>
	<path class="st0" d="M109.58,109.45L109.58,109.45c0,0.04,0.01,0.07,0.03,0.1c0.02,0.03,0.04,0.05,0.07,0.05
		c0.04,0,0.09-0.03,0.16-0.08c0.07-0.05,0.11-0.09,0.11-0.12c0-0.07,0.01-0.13,0.04-0.19l0.25-0.56c0.1-0.23,0.16-0.4,0.16-0.52
		c0-0.05-0.01-0.1-0.04-0.15c-0.02-0.05-0.06-0.09-0.09-0.11c-0.08-0.06-0.2-0.09-0.36-0.09c-0.3,0-0.54,0.07-0.72,0.2
		c-0.09,0.07-0.13,0.12-0.13,0.18c0,0.04,0.02,0.05,0.06,0.05c0.02,0,0.04-0.01,0.08-0.03c0.21-0.11,0.39-0.17,0.57-0.17
		c0.09,0,0.16,0.02,0.21,0.06c0.05,0.04,0.07,0.09,0.07,0.16c0,0.06-0.02,0.11-0.05,0.15c-0.04,0.04-0.08,0.07-0.13,0.07
		c0,0-0.04,0-0.12,0c-0.01,0-0.03,0-0.04,0c-0.16,0-0.32,0.03-0.48,0.08c-0.19,0.07-0.35,0.17-0.48,0.31
		c-0.13,0.14-0.19,0.29-0.19,0.44c0,0.05,0.01,0.09,0.04,0.14c0.02,0.05,0.05,0.08,0.09,0.11c0.06,0.04,0.15,0.07,0.27,0.07
		c0.22,0,0.43-0.08,0.65-0.23C109.58,109.4,109.58,109.43,109.58,109.45 M109.75,108.71c0.05,0.03,0.07,0.08,0.07,0.14
		c0,0.05-0.02,0.1-0.06,0.16c-0.04,0.06-0.09,0.12-0.15,0.16c-0.07,0.05-0.15,0.1-0.23,0.13c-0.09,0.03-0.16,0.05-0.24,0.05
		c-0.07,0-0.12-0.02-0.16-0.05c-0.04-0.04-0.06-0.08-0.06-0.14c0-0.13,0.07-0.24,0.21-0.35c0.06-0.05,0.13-0.08,0.22-0.11
		c0.08-0.03,0.16-0.04,0.23-0.04C109.64,108.66,109.7,108.68,109.75,108.71"/>
	<path class="st0" d="M110.83,108.97L110.83,108.97c0.06,0,0.11,0.02,0.15,0.06c0.04,0.04,0.06,0.09,0.06,0.16
		c0,0.04-0.01,0.09-0.04,0.14c-0.02,0.05-0.06,0.1-0.09,0.13c-0.07,0.07-0.15,0.11-0.24,0.11c-0.06,0-0.1-0.02-0.14-0.06
		c-0.04-0.04-0.06-0.09-0.06-0.15c0-0.1,0.04-0.18,0.11-0.26C110.66,109.01,110.74,108.97,110.83,108.97 M111.34,108.12l-0.09,0.23
		c-0.03,0.08-0.06,0.13-0.07,0.15c-0.02,0.02-0.06,0.05-0.11,0.08c-0.12,0.07-0.19,0.1-0.22,0.1c-0.02,0-0.04-0.01-0.06-0.02
		c-0.02-0.02-0.02-0.03-0.02-0.05c0-0.01,0.01-0.05,0.03-0.09l0.27-0.6c0.12-0.25,0.2-0.43,0.24-0.54c0.05-0.11,0.07-0.21,0.08-0.28
		c0.01-0.05,0.06-0.1,0.14-0.14c0.11-0.06,0.21-0.09,0.28-0.09c0.03,0,0.05,0.01,0.07,0.04c0.02,0.03,0.03,0.05,0.03,0.09
		c0,0.02-0.01,0.05-0.04,0.09C111.67,107.38,111.49,107.73,111.34,108.12"/>
	<path class="st0" d="M60,102.97c0,12.26-10.26,22.2-22.91,22.2c-12.65,0-22.92-9.94-22.92-22.2c0-12.26,10.26-22.2,22.92-22.2
		C49.74,80.77,60,90.72,60,102.97"/>
	<path class="st1" d="M52.08,86.28c0,0,11.96,14.25,2.98,25.71c0,0-6.09,8.44-14.47,9.8c-0.11,0.52-0.35,1.03-0.82,1.49
		c0,0-0.09-0.69-0.43-1.34c-1.05,0.08-2.13,0.03-3.23-0.15c-0.15,0.35-0.27,0.82-0.27,1.41c0,0-0.23-0.9-0.46-1.55
		c-2.7-0.6-5.53-2.1-8.4-4.88c0,0-5.61-6.45-4.42-15.02c-0.4-0.12-0.88-0.23-1.25-0.23c0,0-0.25-0.63,1.6-1.58
		c0.14-0.57,0.32-1.15,0.53-1.73c-0.1-0.78-0.57-1.81-1.88-3.07c0,0-1.09-0.81,0.83-0.81c0,0,5,0.73,2.88-2.79
		c0,0-2.21-2.63-0.79-3.04c0,0,2.01,1.62,5.26,0.81c0,0-0.67-2.02,1.08-2.02c0,0,0.39,0.22,0.28-0.31
		c-3.64-0.56-11.51-0.81-14.77,6.51c0,0-5.63,10.91,1.33,21.44c0,0,6.83,11.6,21.52,10.31c0,0,15.35-0.87,19.95-16.38
		C59.16,108.86,63.65,96.21,52.08,86.28"/>
	<path class="st1" d="M46.53,100.79c0-0.56,2.26-0.89,2.26-0.89c-1.01-0.97-3.72-1.25-3.72-1.25c0-0.61,1.38-1.34,1.38-1.34
		c-1.09-0.48-2.75-0.33-3.77-0.17c0.51,1.54,1.4,3.47,2.68,3.97c0,0,0.08,0.43,0.08,0.95c1.17,0,2.72,0.3,2.72,0.3
		C47.45,100.71,46.53,100.79,46.53,100.79"/>
	<path class="st2" d="M48.72,102.82l-0.62-0.12c-0.02,0-1.53-0.29-2.66-0.3l-0.34,0l0-0.34c0-0.29-0.03-0.55-0.05-0.71
		c-1.31-0.65-2.19-2.57-2.7-4.1l-0.13-0.38l0.39-0.06c1.18-0.18,2.83-0.3,3.96,0.2l0.64,0.28l-0.62,0.33
		c-0.39,0.21-0.82,0.52-1.04,0.76c0.85,0.13,2.63,0.49,3.46,1.28l0.5,0.48l-0.68,0.1c-0.62,0.09-1.25,0.25-1.63,0.4
		c0.39,0.21,0.86,0.66,1.26,1.6L48.72,102.82z M45.77,101.73c0.63,0.03,1.3,0.11,1.78,0.19c-0.5-0.79-1-0.79-1-0.79l-0.35,0.01
		l-0.01-0.35c0-0.54,0.81-0.87,1.71-1.07c-0.93-0.44-2.3-0.67-2.86-0.73l-0.3-0.03v-0.3c0-0.47,0.46-0.91,0.9-1.23
		c-0.82-0.15-1.79-0.09-2.51,0c0.67,1.85,1.5,3.04,2.35,3.38l0.17,0.07l0.03,0.18C45.7,101.07,45.75,101.35,45.77,101.73"/>
	<path class="st1" d="M46.53,100.79c0-0.56,2.26-0.89,2.26-0.89c-1.01-0.97-3.72-1.25-3.72-1.25c0-0.61,1.38-1.34,1.38-1.34
		c-1.09-0.48-2.75-0.33-3.77-0.17c0.51,1.54,1.4,3.47,2.68,3.97c0,0,0.08,0.43,0.08,0.95c1.17,0,2.72,0.3,2.72,0.3
		C47.45,100.71,46.53,100.79,46.53,100.79"/>
	<path class="st1" d="M45.43,101.68L45.43,101.68c0.03,0.5,0.02,1.22-0.27,1.7c0.4,0.21,0.86,0.51,1.33,0.85v-1.53L45.43,101.68z"/>
	<path class="st2" d="M46.82,104.89l-0.54-0.39c-0.5-0.36-0.93-0.64-1.28-0.82l-0.32-0.16l0.18-0.31c0.19-0.32,0.27-0.84,0.23-1.51
		l-0.05-0.87l1.78,1.72V104.89z M45.6,103.24c0.17,0.1,0.35,0.21,0.55,0.34v-0.74l-0.38-0.37C45.73,102.76,45.68,103.02,45.6,103.24
		"/>
	<path class="st1" d="M45.43,101.68L45.43,101.68c0.03,0.5,0.02,1.22-0.27,1.7c0.4,0.21,0.86,0.51,1.33,0.85v-1.53L45.43,101.68z"/>
	<path class="st1" d="M43.8,116.26c0.92-1.85,0-3.1,0-3.1c0,2.63-0.82,2.4-0.82,2.4c-3.18,1.27-1.91-1.86-1.91-1.86
		c0.65-6.01,0-5.79,0-5.79l0.05-1.28c-0.76-0.68-0.92-1.46-0.92-1.46c-1-0.97-2.51-1.05-2.51-1.05c-0.01-0.04-0.03-0.08-0.04-0.12
		c-0.87,1.02-1.8,1.51-2.62,1.71c2.53,3.65,1.95,9.85,1.95,9.85c1.04,0,1.71-1.66,1.71-1.66c0.51,1.29-0.5,2.26-0.5,2.26l0.67,0.64
		c1.26,0.73,1.59-0.72,1.59-0.72c0,0.38-0.19,1-0.37,1.49c2.73,0.96,4.77-0.96,4.77-0.96C44.84,116.26,43.8,116.26,43.8,116.26"/>
	<path class="st2" d="M41.63,118.18c-0.52,0-1.08-0.08-1.67-0.29l-0.32-0.11l0.12-0.32c0.02-0.05,0.04-0.1,0.05-0.15
		c-0.34,0.1-0.72,0.03-1.13-0.21l-0.06-0.05l-0.92-0.89l0.25-0.24c0.02-0.02,0.38-0.38,0.5-0.93c-0.34,0.46-0.84,0.9-1.47,0.9h-0.37
		l0.03-0.37c0.01-0.06,0.53-6.12-1.89-9.63l-0.28-0.4l0.47-0.12c0.9-0.22,1.72-0.76,2.44-1.6l0.38-0.45l0.16,0.47
		c0.49,0.06,1.64,0.3,2.49,1.12l0.08,0.07l0.02,0.1c0,0.01,0.16,0.69,0.81,1.28l0.12,0.11l-0.04,1.26c0.21,0.25,0.51,1.15-0.01,6
		l0,0.05l-0.02,0.04c-0.15,0.38-0.37,1.27-0.08,1.57c0.21,0.21,0.78,0.16,1.55-0.15l0.11-0.04l0.07,0.02
		c0.06-0.03,0.43-0.31,0.43-2.06v-1.03l0.61,0.83c0.04,0.05,0.88,1.24,0.23,3c0.42,0.06,0.88,0.23,0.88,0.66v0.15l-0.11,0.1
		C45,116.92,43.64,118.18,41.63,118.18 M40.51,117.36c1.75,0.48,3.15-0.28,3.76-0.72c-0.14-0.02-0.32-0.04-0.47-0.04h-0.55
		l0.24-0.49c0.13-0.26,0.22-0.51,0.28-0.75c-0.09,0.16-0.19,0.29-0.31,0.38c-0.15,0.11-0.31,0.15-0.43,0.15
		c-1.06,0.41-1.78,0.4-2.21-0.03c-0.01-0.01-0.03-0.03-0.04-0.05v0.26C40.78,116.38,40.69,116.81,40.51,117.36 M39.06,116.53
		c0.25,0.14,0.46,0.17,0.62,0.11c0.26-0.11,0.41-0.5,0.44-0.63l0.66-2.75c0.35-3.44,0.24-4.58,0.16-4.94l-0.22,0.07l0.06-1.62
		c-0.58-0.57-0.81-1.18-0.88-1.43c-0.84-0.75-2.04-0.88-2.2-0.89c-0.64,0.68-1.36,1.17-2.13,1.45c1.93,3.16,1.87,7.74,1.79,9.22
		c0.5-0.28,0.9-1.04,1.02-1.34l0.32-0.79l0.31,0.79c0.42,1.07-0.04,1.95-0.35,2.36L39.06,116.53z"/>
	<path class="st1" d="M43.8,116.26c0.92-1.85,0-3.1,0-3.1c0,2.63-0.82,2.4-0.82,2.4c-3.18,1.27-1.91-1.86-1.91-1.86
		c0.65-6.01,0-5.79,0-5.79l0.05-1.28c-0.76-0.68-0.92-1.46-0.92-1.46c-1-0.97-2.51-1.05-2.51-1.05c-0.01-0.04-0.03-0.08-0.04-0.12
		c-0.87,1.02-1.8,1.51-2.62,1.71c2.53,3.65,1.95,9.85,1.95,9.85c1.04,0,1.71-1.66,1.71-1.66c0.51,1.29-0.5,2.26-0.5,2.26l0.67,0.64
		c1.26,0.73,1.59-0.72,1.59-0.72c0,0.38-0.19,1-0.37,1.49c2.73,0.96,4.77-0.96,4.77-0.96C44.84,116.26,43.8,116.26,43.8,116.26"/>
	<path class="st3" d="M40.78,106.07c0,0-0.42,1.63,0,2.04l1.89-0.69C42.67,107.42,40.78,106.7,40.78,106.07"/>
	<path class="st3" d="M44.18,107.84c0,0,0.61,1.54,0,2.13c0,0,0.97,0.6,1.45-0.64C45.62,109.33,44.64,107.84,44.18,107.84"/>
	<path class="st1" d="M34.77,115.19c-1.75-8.41-3.67-8.25-3.67-8.25c-2.51-1.78-2.59-3.8-2.59-3.8c-2.3-2.23,0-5.5,0-5.5
		c-1.67-3.72,2.25-5.66,2.25-5.66s-0.17-1.86-1-2.67c-3.25,0.81-5.26-0.81-5.26-0.81c-1.41,0.41,0.79,3.04,0.79,3.04
		c2.13,3.52-2.88,2.79-2.88,2.79c-1.93,0-0.83,0.81-0.83,0.81c3.17,3.07,1.42,4.77,1.42,4.77c-1.93,0.97-1.67,1.62-1.67,1.62
		c0.75,0,2,0.49,2,0.49c3.17,1.29,2,3.07,2,3.07c-1.28,1.26-0.91,1.7-0.91,1.7c2.75-0.4,3.93,1.13,3.93,1.13
		c4.01,1.62,2.67,3.72,2.67,3.72c-0.59,1.62,0,1.62,0,1.62c1.25,0,1.42,1.38,1.42,1.38c1.38,1.33-0.75,4.04-0.75,4.04
		c2.65,0.51,3.43,2.34,3.43,2.34c0.24,0.25,0.75,2.19,0.75,2.19c0-1.46,0.75-2.19,0.75-2.19c2.76-1.13,3.17,2.27,3.17,2.27
		c2-1.94,0-4.94,0-4.94C35.93,120.12,34.77,115.19,34.77,115.19"/>
	<path class="st2" d="M36.19,125.84l-0.66-2.56c-0.22-0.85-0.54-1.88-0.67-2.04l-0.05-0.05l-0.02-0.05
		c-0.03-0.07-0.76-1.68-3.18-2.14l-0.54-0.1l0.34-0.44c0.02-0.02,1.91-2.5,0.78-3.59l-0.09-0.08l-0.01-0.12
		c-0.01-0.11-0.16-1.08-1.08-1.08c-0.13,0-0.32-0.07-0.45-0.25c-0.24-0.34-0.2-0.92,0.13-1.82l0.03-0.07
		c0.01-0.02,0.3-0.5,0.08-1.14c-0.26-0.78-1.16-1.51-2.59-2.09l-0.09-0.03l-0.06-0.07c-0.04-0.05-1.11-1.37-3.61-1l-0.19,0.03
		l-0.12-0.14c-0.13-0.16-0.46-0.78,0.9-2.13c0.05-0.1,0.23-0.48,0.08-0.96c-0.19-0.6-0.86-1.15-1.94-1.59
		c-0.33-0.13-1.32-0.46-1.87-0.46H21.1l-0.08-0.21c-0.09-0.22-0.21-1,1.77-2.02c0.09-0.11,0.36-0.48,0.35-1.11
		c-0.01-0.93-0.63-2.01-1.78-3.13c-0.13-0.1-0.54-0.46-0.4-0.87c0.16-0.47,0.86-0.53,1.45-0.53l0.05,0c0.6,0.09,2.43,0.18,2.9-0.53
		c0.3-0.45-0.02-1.18-0.34-1.72c-0.3-0.37-1.58-1.97-1.28-2.94c0.07-0.21,0.23-0.5,0.67-0.62l0.17-0.05l0.14,0.11
		c0.08,0.06,1.93,1.5,4.97,0.75l0.18-0.05l0.13,0.13c0.91,0.89,1.09,2.8,1.1,2.88l0.02,0.23l-0.21,0.1
		c-0.15,0.07-3.61,1.84-2.09,5.22l0.08,0.17l-0.11,0.16c-0.09,0.12-2.1,3.07-0.04,5.07l0.1,0.09l0,0.14c0,0.07,0.11,1.85,2.37,3.48
		c0.59,0.09,2.32,1.01,3.88,8.5c0.03,0.1,0.59,2.32,2.09,3.05c0.7,0.34,1.53,0.3,2.45-0.13l0.26-0.12l0.16,0.24
		c0.02,0.03,2.13,3.25-0.05,5.37l-0.49,0.47l-0.08-0.67c0-0.01-0.2-1.5-1.1-2.02c-0.41-0.24-0.93-0.24-1.55-0.01
		c-0.14,0.17-0.61,0.79-0.61,1.9V125.84z M37.64,120.44c0.38,0,0.73,0.09,1.04,0.28c0.72,0.42,1.08,1.22,1.26,1.81
		c0.87-1.39,0.04-3.13-0.31-3.76c-1,0.4-1.93,0.4-2.75,0c-1.81-0.88-2.43-3.4-2.45-3.51l0-0.01c-1.54-7.38-3.16-7.94-3.33-7.98
		l-0.14,0.03l-0.07-0.1c-2.26-1.61-2.65-3.41-2.72-3.92c-2.03-2.1-0.49-4.98-0.06-5.69c-1.38-3.34,1.45-5.32,2.27-5.81
		c-0.06-0.45-0.26-1.51-0.75-2.11c-2.77,0.62-4.63-0.42-5.19-0.8c-0.06,0.04-0.07,0.08-0.08,0.11c-0.14,0.47,0.6,1.64,1.17,2.33
		l0.03,0.04c0.63,1.04,0.74,1.87,0.34,2.47c-0.77,1.16-3.15,0.88-3.53,0.83c-0.43,0-0.64,0.05-0.74,0.08
		c0.04,0.04,0.09,0.09,0.13,0.12l0.03,0.03c1.33,1.29,2,2.52,2,3.66c0,1.02-0.56,1.58-0.59,1.6l-0.04,0.04l-0.05,0.02
		c-0.89,0.45-1.25,0.8-1.4,1.01c0.76,0.11,1.65,0.46,1.7,0.47c1.3,0.53,2.09,1.21,2.34,2.03c0.26,0.85-0.16,1.51-0.18,1.54
		l-0.05,0.06c-0.54,0.53-0.74,0.88-0.82,1.08c2.34-0.21,3.52,0.92,3.8,1.23c1.62,0.67,2.6,1.51,2.91,2.49
		c0.27,0.84-0.05,1.49-0.14,1.66c-0.27,0.75-0.24,1.05-0.22,1.14c1.08,0.05,1.53,0.97,1.64,1.55c1.1,1.2,0.06,3.13-0.5,3.98
		c2.21,0.61,3.02,2.1,3.15,2.38c0.12,0.17,0.25,0.51,0.38,0.9c0.24-0.62,0.57-0.94,0.59-0.97l0.05-0.05l0.06-0.02
		C36.89,120.53,37.28,120.44,37.64,120.44"/>
	<path class="st1" d="M34.77,115.19c-1.75-8.41-3.67-8.25-3.67-8.25c-2.51-1.78-2.59-3.8-2.59-3.8c-2.3-2.23,0-5.5,0-5.5
		c-1.67-3.72,2.25-5.66,2.25-5.66s-0.17-1.86-1-2.67c-3.25,0.81-5.26-0.81-5.26-0.81c-1.41,0.41,0.79,3.04,0.79,3.04
		c2.13,3.52-2.88,2.79-2.88,2.79c-1.93,0-0.83,0.81-0.83,0.81c3.17,3.07,1.42,4.77,1.42,4.77c-1.93,0.97-1.67,1.62-1.67,1.62
		c0.75,0,2,0.49,2,0.49c3.17,1.29,2,3.07,2,3.07c-1.28,1.26-0.91,1.7-0.91,1.7c2.75-0.4,3.93,1.13,3.93,1.13
		c4.01,1.62,2.67,3.72,2.67,3.72c-0.59,1.62,0,1.62,0,1.62c1.25,0,1.42,1.38,1.42,1.38c1.38,1.33-0.75,4.04-0.75,4.04
		c2.65,0.51,3.43,2.34,3.43,2.34c0.24,0.25,0.75,2.19,0.75,2.19c0-1.46,0.75-2.19,0.75-2.19c2.76-1.13,3.17,2.27,3.17,2.27
		c2-1.94,0-4.94,0-4.94C35.93,120.12,34.77,115.19,34.77,115.19"/>
	<path class="st2" d="M39.32,113.57c-1.27-2.43-0.81-6.18-0.76-6.51c-0.01-1.56-1.3-2.4-1.31-2.4l0.27-0.43
		c0.06,0.04,1.55,1,1.55,2.85l0,0.03c-0.01,0.04-0.52,3.88,0.71,6.23L39.32,113.57z"/>
	<path class="st1" d="M58.97,110.99c0,0-0.88-2.8-5.42-2.11c0,0-1.17-1.46-3.26-1.46c0,0-3.21-3.04-5.14-4.04
		c-0.32,0.53-0.97,0.78-2.25,0.12l-0.71-1.74l-2.92-0.81c0,0-1.67-2.02-4.42-2.99c0,0-2.93,0.32-4.09-5.99c0,0-3.92,1.94-2.25,5.66
		c0,0-2.3,3.28,0,5.5c0,0,0.08,2.02,2.59,3.8c0,0,1.92-0.16,3.67,8.25c0,0,1.17,4.94,5.01,3.16c0,0,0.67-1.54,0.67-2.26
		c0,0-0.33,1.45-1.59,0.72l-0.67-0.64c0,0,1-0.97,0.5-2.26c0,0-0.66,1.66-1.71,1.66c0,0,0.57-6.2-1.95-9.85
		c-1.48,0.37-2.64-0.17-2.64-0.17c3.21-1.5,3.21-3.11,3.21-3.11c1.84,0,2.09,1.53,2.09,1.53c-0.01,0.02-0.03,0.03-0.04,0.04
		c0.01,0.04,0.03,0.08,0.04,0.12c0,0,1.5,0.08,2.51,1.05c0,0,0.33,1.62,2.3,2.23c0,0,1.79-0.37,3.05,1.57c0,0,0.75,1.21,1.25,1.21
		c0,0-2.68,1.7-1.34,5.67c0,0,0.08,1.45-1.34,2.82c0,0-2.96,3.93,1.25,8.01c0,0-3.01-3.64,0-7.52c0,0,2.34-1.46,0.84-4.36
		c0,0-0.41-3.97,1.5-3.97c0,0,1.17,2.5,2.92,0.81c0,0,1.5,1.05,3.09-1.37c0,0,4.51-2.51,4.51,2.42c0,0-0.42,1.78-2,2.58
		c0,0-2.22,1.74,0,3.89c0,0,0.88,1.41-0.66,2.91c0,0,2.41-0.24,0.66-4.2c0,0-0.66-2.59,2.08-3.07
		C58.3,114.79,60.06,113.57,58.97,110.99"/>
	<path class="st2" d="M45.13,126.92c-4.38-4.24-1.32-8.41-1.28-8.45l0.03-0.04c1.17-1.13,1.24-2.29,1.24-2.52
		c-1.03-3.11,0.31-4.93,1.06-5.65c-0.4-0.31-0.75-0.84-0.93-1.11c-1.1-1.7-2.63-1.43-2.69-1.42l-0.08,0.02l-0.08-0.02
		c-1.85-0.57-2.38-1.96-2.5-2.37c-0.9-0.81-2.21-0.89-2.22-0.89l-0.24-0.01l-0.07-0.23c-0.01-0.03-0.02-0.06-0.03-0.09l-0.07-0.2
		l0.05-0.06c-0.1-0.31-0.44-0.98-1.44-1.08c-0.15,0.54-0.69,1.61-2.57,2.67c0.43,0.07,1,0.1,1.64-0.06l0.23-0.06l0.13,0.19
		c2.19,3.16,2.12,8.06,2.04,9.6c0.5-0.28,0.9-1.04,1.02-1.34l0.32-0.79l0.31,0.79c0.42,1.07-0.04,1.95-0.35,2.36l0.41,0.4
		c0.25,0.14,0.46,0.17,0.62,0.11c0.26-0.11,0.41-0.5,0.44-0.63l0.67-2.78l0,2.86c0,0.77-0.62,2.23-0.69,2.4l-0.05,0.12l-0.12,0.05
		c-1.11,0.52-2.13,0.56-3.03,0.12c-1.81-0.88-2.43-3.4-2.45-3.51c-1.54-7.39-3.16-7.95-3.33-7.99l-0.14,0.03l-0.07-0.1
		c-2.27-1.61-2.65-3.41-2.72-3.92c-2.03-2.1-0.49-4.98-0.06-5.69c-1.6-3.86,2.44-5.91,2.48-5.93l0.4-0.2l0.08,0.44
		c1.1,5.93,3.7,5.72,3.73,5.71l0.08-0.01l0.07,0.03c2.52,0.89,4.14,2.61,4.5,3.01l2.98,0.83l0.73,1.77c1.29,0.63,1.59,0.12,1.7-0.05
		l0.16-0.27l0.28,0.15c1.78,0.93,4.55,3.48,5.12,4.01c1.76,0.05,2.88,1.05,3.25,1.43c4.49-0.6,5.52,2.08,5.61,2.35
		c1.17,2.79-0.77,4.18-0.79,4.2l-0.06,0.04l-0.07,0.01c-0.73,0.13-1.26,0.43-1.56,0.9c-0.45,0.7-0.29,1.58-0.26,1.73
		c0.73,1.66,0.85,2.93,0.36,3.77c-0.46,0.79-1.27,0.88-1.31,0.88l-0.96,0.1l0.69-0.67c1.21-1.18,0.73-2.26,0.63-2.46
		c-0.74-0.73-1.09-1.5-1.05-2.29c0.06-1.23,1.07-2.04,1.11-2.07l0.06-0.04c1.31-0.67,1.75-2.08,1.81-2.32
		c-0.01-1.27-0.32-2.09-0.94-2.46c-1.02-0.6-2.64,0.15-2.99,0.33c-0.64,0.94-1.34,1.5-2.1,1.64c-0.51,0.1-0.92-0.02-1.17-0.12
		c-0.51,0.42-1.03,0.59-1.55,0.49c-0.83-0.15-1.39-0.96-1.62-1.35c-0.17,0.04-0.3,0.12-0.43,0.26c-0.64,0.71-0.62,2.53-0.55,3.25
		c1.43,2.85-0.56,4.44-0.93,4.71c-2.75,3.6-0.09,6.92,0.03,7.06L45.13,126.92z M44.37,118.89c-0.18,0.24-1.58,2.31-0.59,4.9
		c-0.22-1.38-0.03-3.1,1.32-4.84l0.04-0.05l0.05-0.03c0.08-0.05,2.05-1.34,0.72-3.92l-0.03-0.06l-0.01-0.06
		c-0.01-0.11-0.27-2.74,0.72-3.84c0.3-0.33,0.68-0.5,1.12-0.5h0.21l0.09,0.2c0.14,0.29,0.63,1.07,1.25,1.19
		c0.36,0.06,0.74-0.1,1.13-0.48l0.2-0.19l0.23,0.16c0.01,0.01,0.38,0.25,0.91,0.14c0.58-0.12,1.17-0.61,1.7-1.42l0.05-0.07
		l0.07-0.04c0.08-0.04,1.66-0.91,3.04-0.62c-0.73-0.23-1.7-0.32-2.99-0.12l-0.19,0.03l-0.12-0.15c-0.01-0.01-1.11-1.33-2.99-1.33
		h-0.13l-0.1-0.09c-0.03-0.03-2.93-2.76-4.81-3.85c-0.4,0.43-1.15,0.68-2.5-0.02l-0.11-0.06l-0.7-1.7l-2.87-0.8l-0.07-0.08
		c-0.02-0.02-1.62-1.93-4.21-2.87c-0.52,0.01-3.12-0.24-4.28-5.8c-0.9,0.58-2.93,2.26-1.7,4.99l0.08,0.17l-0.11,0.16
		c-0.09,0.12-2.1,3.07-0.04,5.07l0.1,0.09l0.01,0.14c0,0.07,0.11,1.85,2.37,3.48c0.59,0.09,2.33,1.01,3.89,8.51
		c0,0.01,0.56,2.31,2.09,3.05c0.67,0.33,1.46,0.3,2.33-0.07c0.08-0.2,0.19-0.48,0.3-0.78c-0.34,0.1-0.72,0.03-1.13-0.21l-0.06-0.05
		l-0.92-0.89l0.25-0.24c0.02-0.02,0.38-0.38,0.5-0.93c-0.34,0.46-0.84,0.9-1.47,0.9h-0.37l0.03-0.37c0.01-0.06,0.51-5.91-1.77-9.44
		c-1.46,0.29-2.58-0.23-2.63-0.25l-0.66-0.31l0.66-0.31c2.93-1.37,3.02-2.8,3.02-2.81l0.01-0.33l0.33-0.01c1.6,0,2.26,1.09,2.4,1.73
		c0.52,0.08,1.61,0.33,2.42,1.11l0.08,0.07l0.02,0.1c0.01,0.06,0.32,1.39,1.99,1.95c0.42-0.05,2.09-0.14,3.3,1.74
		c0.33,0.54,0.8,1.05,0.97,1.06l1.04,0.06l-0.86,0.56c-0.1,0.06-2.43,1.62-1.2,5.27l0.02,0.09
		C45.79,115.89,45.86,117.43,44.37,118.89 M56.12,115.84c-0.23,0.28-0.52,0.73-0.55,1.27c-0.02,0.49,0.17,0.99,0.58,1.48
		c-0.07-0.19-0.15-0.38-0.24-0.59l-0.02-0.05C55.88,117.89,55.61,116.81,56.12,115.84 M57.54,109.78c0.68,0.55,1.02,1.52,1.02,2.91
		l-0.01,0.08c-0.01,0.06-0.25,1.02-1,1.88c0.19-0.07,0.39-0.12,0.61-0.17c0.26-0.22,1.37-1.29,0.5-3.35l-0.01-0.03
		C58.63,111.03,58.38,110.33,57.54,109.78"/>
	<path class="st1" d="M58.97,110.99c0,0-0.88-2.8-5.42-2.11c0,0-1.17-1.46-3.26-1.46c0,0-3.21-3.04-5.14-4.04
		c-0.32,0.53-0.97,0.78-2.25,0.12l-0.71-1.74l-2.92-0.81c0,0-1.67-2.02-4.42-2.99c0,0-2.93,0.32-4.09-5.99c0,0-3.92,1.94-2.25,5.66
		c0,0-2.3,3.28,0,5.5c0,0,0.08,2.02,2.59,3.8c0,0,1.92-0.16,3.67,8.25c0,0,1.17,4.94,5.01,3.16c0,0,0.67-1.54,0.67-2.26
		c0,0-0.33,1.45-1.59,0.72l-0.67-0.64c0,0,1-0.97,0.5-2.26c0,0-0.66,1.66-1.71,1.66c0,0,0.57-6.2-1.95-9.85
		c-1.48,0.37-2.64-0.17-2.64-0.17c3.21-1.5,3.21-3.11,3.21-3.11c1.84,0,2.09,1.53,2.09,1.53c-0.01,0.02-0.03,0.03-0.04,0.04
		c0.01,0.04,0.03,0.08,0.04,0.12c0,0,1.5,0.08,2.51,1.05c0,0,0.33,1.62,2.3,2.23c0,0,1.79-0.37,3.05,1.57c0,0,0.75,1.21,1.25,1.21
		c0,0-2.68,1.7-1.34,5.67c0,0,0.08,1.45-1.34,2.82c0,0-2.96,3.93,1.25,8.01c0,0-3.01-3.64,0-7.52c0,0,2.34-1.46,0.84-4.36
		c0,0-0.41-3.97,1.5-3.97c0,0,1.17,2.5,2.92,0.81c0,0,1.5,1.05,3.09-1.37c0,0,4.51-2.51,4.51,2.42c0,0-0.42,1.78-2,2.58
		c0,0-2.22,1.74,0,3.89c0,0,0.88,1.41-0.66,2.91c0,0,2.41-0.24,0.66-4.2c0,0-0.66-2.59,2.08-3.07
		C58.3,114.79,60.06,113.57,58.97,110.99"/>
	<path class="st3" d="M35.6,102.41c0,0,0,1.62-3.21,3.11c0,0,2.84,1.33,5.3-1.58C37.68,103.94,37.43,102.41,35.6,102.41"/>
	<path class="st1" d="M42.29,102.01c-0.1-0.11-0.2-0.21-0.31-0.3l-2.39-0.66c0.05,0.08,3.31,5.92,3.31,2.83
		c0-0.15-0.01-0.3-0.03-0.43L42.29,102.01z"/>
	<path class="st2" d="M42.54,104.86c-0.9,0-2.81-3.37-3.03-3.77l-0.1-0.18l2.61,0.73c0.12,0.09,0.23,0.2,0.33,0.31l0.01,0.02
		l0.59,1.45c0.02,0.14,0.03,0.29,0.03,0.44c0,0.59-0.12,0.91-0.36,0.97C42.6,104.85,42.57,104.86,42.54,104.86 M39.77,101.18
		c0.85,1.5,2.28,3.64,2.82,3.5c0.15-0.04,0.24-0.33,0.24-0.81c0-0.15-0.01-0.28-0.03-0.41l-0.57-1.41c-0.08-0.1-0.18-0.19-0.28-0.27
		L39.77,101.18z"/>
	<path class="st1" d="M42.29,102.01c-0.1-0.11-0.2-0.21-0.31-0.3l-2.39-0.66c0.05,0.08,3.31,5.92,3.31,2.83
		c0-0.15-0.01-0.3-0.03-0.43L42.29,102.01z"/>
	<path class="st2" d="M42.56,105.11c-0.95,0-2.44-2.41-3.26-3.9l-0.39-0.71l3.23,0.9l0.05,0.04c0.13,0.1,0.25,0.22,0.36,0.34
		l0.04,0.04l0.63,1.57c0.02,0.15,0.03,0.31,0.03,0.48c0,0.29,0,1.08-0.55,1.22C42.65,105.1,42.6,105.11,42.56,105.11 M40.3,101.59
		c0.9,1.49,1.84,2.72,2.2,2.84c0.03-0.06,0.07-0.21,0.07-0.55c0-0.12-0.01-0.24-0.02-0.35L42,102.19c-0.06-0.06-0.12-0.12-0.18-0.18
		L40.3,101.59z"/>
	<path class="st1" d="M42.29,102.01c-0.1-0.11-0.2-0.21-0.31-0.3l-2.39-0.66c0.05,0.08,3.31,5.92,3.31,2.83
		c0-0.15-0.01-0.3-0.03-0.43L42.29,102.01z"/>
	<path class="st1" d="M27.33,75.56c0,0,1.51,5.18,3.09,7.6c0,0,2.84,5.18,2.84,1.54c0,0-0.17-7.93,0.66-10.19
		c0,0-0.83,6.23,0.51,7.53l0.62-0.61c0,0-0.38,7.64,2.05,5.3c0,0,1.67,7.68,5.01,8.33c0,0,1,5.17,3.25,6.06c0,0,0.76,4.04-2.46,2.39
		l-0.71-1.74l-2.92-0.81c0,0-1.67-2.02-4.42-2.99c0,0-2.93,0.32-4.09-5.99c0,0-0.17-1.86-1-2.67c0,0-0.67-2.02,1.08-2.02
		c0,0,1.75,0.98-3.17-6.14l1.42,0.57C29.08,81.71,27.33,77.26,27.33,75.56"/>
	<path class="st2" d="M44.23,104.24c-0.42,0-0.91-0.15-1.48-0.44l-0.11-0.06l-0.7-1.7l-2.87-0.8l-0.07-0.08
		c-0.02-0.02-1.62-1.93-4.21-2.87c-0.53,0.01-3.26-0.25-4.38-6.27l0-0.03c0-0.02-0.17-1.74-0.9-2.46l-0.06-0.06l-0.03-0.08
		c-0.04-0.12-0.38-1.2,0.14-1.91c0.26-0.35,0.66-0.54,1.2-0.55c-0.13-0.45-0.73-1.78-3.38-5.61l-0.64-0.92l1.74,0.7
		C28,79.76,27,76.89,27,75.56v-2.37l0.66,2.27c0.01,0.05,1.51,5.16,3.05,7.51l0.01,0.02c0.77,1.4,1.75,2.66,2.06,2.66h0
		c-0.01-0.01,0.14-0.16,0.14-0.96c-0.01-0.32-0.16-8.01,0.69-10.31l1.06-2.88l-0.41,3.04c-0.29,2.15-0.45,5.74,0.21,6.97l0.96-0.94
		l-0.04,0.86c-0.12,2.36,0.15,5.08,0.79,5.37c0.2,0.09,0.51-0.17,0.68-0.33l0.44-0.42l0.13,0.59c0.02,0.07,1.66,7.47,4.74,8.07
		l0.22,0.04l0.04,0.22c0.27,1.39,1.34,5.14,3.04,5.81l0.17,0.07l0.03,0.18c0.04,0.22,0.38,2.18-0.62,2.92
		C44.84,104.15,44.56,104.24,44.23,104.24 M43.17,103.26c0.5,0.24,1.13,0.45,1.5,0.18c0.5-0.37,0.46-1.52,0.39-2.08
		c-2.03-1.01-3.02-5.03-3.23-6.02c-2.89-0.82-4.49-6.28-4.93-8.02c-0.35,0.21-0.68,0.25-0.99,0.11c-1.12-0.51-1.23-3.56-1.21-5.18
		l-0.26,0.25l-0.24-0.23c-0.27-0.26-0.46-0.68-0.59-1.19c-0.04,1.96-0.01,3.57-0.01,3.6c0,0.63-0.07,1.47-0.65,1.62
		c-0.9,0.23-2.15-1.76-2.81-2.98c-0.21-0.32-0.42-0.69-0.62-1.09l-0.93-0.37c3.38,4.98,3,5.4,2.77,5.65
		c-0.16,0.17-0.39,0.18-0.58,0.11c-0.31,0.01-0.52,0.1-0.65,0.27c-0.24,0.34-0.14,0.95-0.07,1.23c0.82,0.88,1.02,2.6,1.04,2.8
		c1.09,5.86,3.7,5.7,3.73,5.7l0.07-0.01l0.07,0.02c2.52,0.89,4.14,2.61,4.5,3.01l2.98,0.83L43.17,103.26z"/>
	<path class="st1" d="M27.33,75.56c0,0,1.51,5.18,3.09,7.6c0,0,2.84,5.18,2.84,1.54c0,0-0.17-7.93,0.66-10.19
		c0,0-0.83,6.23,0.51,7.53l0.62-0.61c0,0-0.38,7.64,2.05,5.3c0,0,1.67,7.68,5.01,8.33c0,0,1,5.17,3.25,6.06c0,0,0.76,4.04-2.46,2.39
		l-0.71-1.74l-2.92-0.81c0,0-1.67-2.02-4.42-2.99c0,0-2.93,0.32-4.09-5.99c0,0-0.17-1.86-1-2.67c0,0-0.67-2.02,1.08-2.02
		c0,0,1.75,0.98-3.17-6.14l1.42,0.57C29.08,81.71,27.33,77.26,27.33,75.56"/>
	<path class="st2" d="M22.23,94.55c-1.59-0.79-3.53-2.45-3.76-4.51l0.5-0.05c0.17,1.53,1.53,3.15,3.48,4.12L22.23,94.55z"/>
	<path class="st2" d="M20.81,103.26c-1.04,0-2.1-0.44-3.14-1.3c-1.17-0.98-2.3-2.51-3.03-4.12l0.46-0.21
		c0.69,1.54,1.77,3.01,2.89,3.94c1.43,1.19,2.83,1.48,4.16,0.88l0.21,0.46C21.86,103.15,21.34,103.26,20.81,103.26"/>
	<path class="st2" d="M17.98,113.25c-0.52,0-1.05-0.06-1.57-0.18l0.11-0.49c1.83,0.41,3.68,0.04,4.82-0.97
		c0.91-0.81,1.33-1.97,1.19-3.36l0.5-0.05c0.15,1.56-0.32,2.87-1.36,3.79C20.75,112.81,19.41,113.25,17.98,113.25"/>
	<path class="st2" d="M25.79,122.61l-0.25-0.44c1.58-0.88,2-2.45,2.15-4.53l0.51,0.04C28.06,119.61,27.68,121.55,25.79,122.61"/>
	<path class="st2" d="M38.2,125.4l-0.48-0.16c0.32-0.96,0.29-2.12-0.07-3.19l0.48-0.16C38.53,123.06,38.56,124.34,38.2,125.4"/>
	<path class="st2" d="M48.01,122.46c-0.02-1.34-0.18-2.33-0.89-3.15l0.38-0.33c0.8,0.93,0.98,2.06,1.01,3.47L48.01,122.46z"/>
	<path class="st2" d="M54.67,117.1c-0.31-0.98-0.98-1.83-1.89-2.38l0.26-0.43c1.01,0.62,1.76,1.56,2.11,2.66L54.67,117.1z"/>
	<path class="st2" d="M59.87,104.83c-0.47-0.18-0.99-0.27-1.58-0.29l0.02-0.51c0.65,0.02,1.22,0.13,1.75,0.32L59.87,104.83z"/>
	<path class="st2" d="M57.8,97.33l-0.25-0.44c0.46-0.25,1-0.38,1.59-0.36l-0.02,0.51C58.63,97.02,58.17,97.12,57.8,97.33"/>
	<path class="st2" d="M55.14,90.96l-0.2-0.46c0.29-0.13,0.63-0.21,1.04-0.25l0.05,0.5C55.67,90.79,55.38,90.86,55.14,90.96"/>
</g>
</svg>
