<?xml version="1.0" encoding="utf-8"?>
<!-- Generator: Adobe Illustrator 28.0.0, SVG Export Plug-In . SVG Version: 6.00 Build 0)  -->
<svg version="1.1" id="Layer_1" xmlns="http://www.w3.org/2000/svg" xmlns:xlink="http://www.w3.org/1999/xlink" x="0px" y="0px"
	 viewBox="0 0 198.43 198.43" style="enable-background:new 0 0 198.43 198.43;" xml:space="preserve">
<style type="text/css">
	.st0{fill-rule:evenodd;clip-rule:evenodd;fill:#EC1C24;}
	.st1{fill-rule:evenodd;clip-rule:evenodd;fill:#FFFFFF;}
</style>
<g>
	<polygon class="st0" points="92.57,96.17 113.36,75.92 134.15,96.17 131.48,96.17 131.48,100.15 133.76,100.15 129.87,105.75 
		127.45,105.75 127.45,108.78 113.36,122.51 100.24,109.73 101.91,109.73 101.91,105.75 100.07,105.75 93.62,96.59 93.33,96.17 	"/>
	<g>
		<path class="st1" d="M117.02,108.75h9.82v-2.01h-2.03c-0.58,0-1.05-0.47-1.05-1.05v-5.39c0-0.58,0.47-1.14,1.05-1.14h2.03v-2.02
			h-7.15h-2.3h-0.08l-3.16,6.07l-3.5-6.07h-1.87h-2.23h-4.02v2.02h0.92c0.58,0,1.05,0.56,1.05,1.14v5.39c0,0.58-0.47,1.05-1.05,1.05
			h-0.92v2.01h6.36v-2.01h-0.32c-0.58,0-1.05-0.47-1.05-1.05v-3.84l3.99,6.9h2.6h0.42h0.17h0.12l3.86-7.4v4.34
			c0,0.58-0.48,1.05-1.06,1.05h-0.58V108.75z"/>
		<path class="st0" d="M90.08,106.75h2.13l-0.96-1.37h-6.19l-0.95,1.37h3.54v2.01h-9.02v-2.01h1.95l4.78-6.89
			c0.26-0.4-0.02-0.69-0.37-0.69h-2.32v-2.01h9.95l6.74,9.59h1.37v2.01H90.08V106.75z M89.83,103.37l-1.71-2.43l-1.68,2.43H89.83z"
			/>
		<path class="st0" d="M174.62,108.75h9.63v-2.01h-1.33c-0.58,0-1.05-0.47-1.05-1.05v-5.39c0-0.58,0.47-1.14,1.05-1.14h1.33v-2.02
			h-9.63v2.02h1.33c0.58,0,1.05,0.56,1.05,1.14v5.39c0,0.58-0.47,1.05-1.05,1.05h-1.33V108.75z"/>
		<path class="st0" d="M39.76,108.75h6.4v0H58.2v0v-2.01v-2.13h-3.33v0.6c0,1.07-0.55,1.53-1.6,1.53h-3.8h-1.33
			c-0.58,0-1.05-0.47-1.05-1.05v-1.73h8.51v-2.01h-8.51v-1.64c0-0.58,0.47-1.14,1.05-1.14h1.33v-0.01h3.82
			c1.02,0,1.58,0.61,1.58,1.6v0.53h3.33v-2.13v-2.01h-3.33h-8.7v0h-6.4v2.02h0.99c0.58,0,1.05,0.56,1.05,1.14v5.39
			c0,0.58-0.47,1.05-1.05,1.05h-0.99V108.75z"/>
		<polygon class="st0" points="153.3,106.75 158.98,103.39 153.27,99.16 151.67,99.16 151.67,97.15 152.82,97.15 158.23,97.15 
			158.7,97.15 163.51,100.71 166.13,99.16 162.44,99.16 162.44,97.15 173.12,97.15 173.12,99.16 171.32,99.16 165.82,102.42 
			171.67,106.75 173.33,106.75 173.33,108.75 172.06,108.75 166.44,108.75 166.24,108.75 161.29,105.09 158.49,106.75 
			162.25,106.75 162.25,108.75 151.85,108.75 151.85,106.75 		"/>
		<path class="st0" d="M140.09,106.75h2.13l-0.96-1.37h-6.19l-0.95,1.37h3.54v2.01h-9.02v-2.01h1.95l4.78-6.89
			c0.26-0.4-0.02-0.69-0.37-0.69h-2.33v-2.01h9.95l6.74,9.59h1.37v2.01h-10.64V106.75z M139.85,103.37l-1.71-2.43l-1.68,2.43H139.85
			z"/>
		<path class="st0" d="M28.68,108.75h9.82v-2.01h-2.03c-0.58,0-1.05-0.47-1.05-1.05v-5.39c0-0.58,0.47-1.14,1.05-1.14h2.03v-2.02
			h-7.15h-2.3h-0.08l-3.16,6.07l-3.5-6.07h-1.87H18.2h-4.02v2.02h0.92c0.58,0,1.05,0.56,1.05,1.14v5.39c0,0.58-0.47,1.05-1.05,1.05
			h-0.92v2.01h6.36v-2.01h-0.32c-0.58,0-1.05-0.47-1.05-1.05v-3.84l3.99,6.9h2.6h0.42h0.17h0.12l3.86-7.4v4.34
			c0,0.58-0.47,1.05-1.05,1.05h-0.58V108.75z"/>
		<path class="st0" d="M74.63,97.15h4.22v4.17c0,0,0,0.01,0,0.01l-2.97,0c-0.76-1.36-2.74-2.34-4.6-2.34
			c-3.15,0-5.23,1.85-5.23,3.99c0,2.14,2.24,3.99,5.16,3.99c1.56,0,3.31-0.87,3.31-2.18c0-0.4-0.27-0.61-0.54-0.61
			c-0.27,0-0.59,0.2-0.59,0.61h-3.54v-2.62h9.04v3.16c-1.1,2.19-5.31,3.86-9.17,3.86c-5.69,0-10.33-1.93-10.33-6.21
			c0-2.14,1.16-3.68,3.03-4.69c1.87-1.01,4.45-1.48,7.3-1.48c1.63,0,3.33,0.26,4.82,0.93L74.63,97.15z"/>
	</g>
</g>
</svg>
