<?xml version="1.0" encoding="utf-8"?>
<!-- Generator: Adobe Illustrator 28.0.0, SVG Export Plug-In . SVG Version: 6.00 Build 0)  -->
<svg version="1.1" id="Layer_1" xmlns="http://www.w3.org/2000/svg" xmlns:xlink="http://www.w3.org/1999/xlink" x="0px" y="0px"
	 viewBox="0 0 198.43 198.43" style="enable-background:new 0 0 198.43 198.43;" xml:space="preserve">
<style type="text/css">
	.st0{fill-rule:evenodd;clip-rule:evenodd;fill:#386097;}
	.st1{fill-rule:evenodd;clip-rule:evenodd;fill:#E5352F;}
</style>
<g>
	<path class="st0" d="M74.67,101.86C74.67,101.86,74.67,101.85,74.67,101.86c0-0.95-0.78-1.72-1.75-1.72H64.9
		c-0.97,0-1.75,0.77-1.75,1.71c0,0.95,0.78,1.71,1.75,1.71h4.64c-0.92,1.73-2.77,2.91-4.91,2.91c-3.06,0-5.54-2.42-5.54-5.4
		c0-2.98,2.48-5.4,5.54-5.4c1.66,0,2.99,0.54,3.99,1.65c0.41,0.54,1.04,0.89,1.75,0.89c1.22,0,2.21-1.03,2.21-2.3
		c0-0.56-0.2-1.07-0.52-1.47l0,0c-0.01-0.01-0.02-0.03-0.04-0.05c-0.08-0.09-0.16-0.18-0.25-0.26c-1.83-1.79-4.35-2.9-7.14-2.9
		c-5.57,0-10.08,4.41-10.08,9.84c0,5.44,4.51,9.84,10.08,9.84c5.19,0,9.46-3.84,10.02-8.76c0.01-0.07,0.02-0.15,0.02-0.22
		C74.67,101.9,74.68,101.88,74.67,101.86L74.67,101.86z"/>
	<path class="st0" d="M112.94,106.68c0,2.33-1.89,4.23-4.23,4.23H98.05c-2.33,0-4.23-1.89-4.23-4.23V86.09
		c0-2.33,1.89-4.23,4.23-4.23h10.67c2.33,0,4.23,1.89,4.23,4.23V106.68z"/>
	<path class="st0" d="M147.85,112.05c-1.23,0-2.22,0.99-2.22,2.22c0,1.23,0.99,2.22,2.22,2.22h32.74c1.23,0,2.22-0.99,2.22-2.22
		c0-1.22-0.99-2.22-2.22-2.22H147.85z"/>
	<path class="st0" d="M131.76,99.71c-0.68-0.27-1.45-0.1-1.95,0.43l-1.47,1.57l-6.76-5.25l5.19-5.31l1.29,1.21
		c0.51,0.48,1.27,0.62,1.91,0.33c0.65-0.28,1.07-0.92,1.07-1.62l-0.01-7.25c0-0.97-0.78-1.81-1.75-1.82h-7.82
		c-0.73-0.01-1.39,0.38-1.66,1.05c-0.28,0.68-0.1,1.45,0.43,1.95l1.22,1.15l-6.96,6.96l0.13,7.34l8.45,6.86l-0.62,0.65
		c-0.48,0.51-0.62,1.27-0.33,1.92c0.28,0.65,0.92,1.06,1.62,1.06h7.25c0.97,0,1.81-0.78,1.82-1.75v-7.81
		C132.82,100.65,132.43,99.99,131.76,99.71"/>
	<path class="st0" d="M175.53,91.36c-1.14-0.44-2.42,0.15-2.86,1.32l-3.36,9.26l-3.02-9.19c-0.26-0.78-0.89-1.32-1.62-1.49
		c-0.01,0-0.01,0-0.02,0c-0.06-0.01-0.12-0.02-0.18-0.03c-0.02,0-0.04-0.01-0.06-0.01c-0.05-0.01-0.09-0.01-0.14-0.01
		c-0.03,0-0.06,0-0.1,0c-0.03,0-0.06,0-0.1,0c-0.05,0-0.09,0-0.14,0.01c-0.02,0-0.04,0-0.06,0.01c-0.06,0.01-0.12,0.02-0.18,0.03
		c-0.01,0-0.01,0-0.02,0c-0.73,0.17-1.36,0.71-1.62,1.49l-3.02,9.19l-3.36-9.26c-0.43-1.17-1.71-1.76-2.85-1.32
		c-1.15,0.44-1.73,1.75-1.29,2.91l5.55,15.14c0.3,0.82,1.02,1.35,1.82,1.45h0.01c0.06,0.01,0.13,0.01,0.19,0.01
		c0.04,0,0.08,0,0.11,0c0.03,0,0.06,0,0.09,0c0.88-0.05,1.68-0.64,1.97-1.54l2.89-8.76l2.89,8.76c0.3,0.9,1.09,1.49,1.97,1.54
		c0.03,0,0.06,0,0.08,0c0.04,0,0.08,0,0.11,0c0.07,0,0.13-0.01,0.19-0.01h0.01c0.8-0.09,1.52-0.63,1.82-1.45l5.55-15.14
		C177.26,93.11,176.68,91.8,175.53,91.36"/>
	<path class="st1" d="M143.61,115.06l6.48-20.95c0.37-1.17-0.28-2.42-1.46-2.79c-1.17-0.37-2.42,0.28-2.79,1.46l-4.22,12.23
		l-4.35-12.23c-0.37-1.17-1.62-1.82-2.79-1.46c-1.17,0.37-1.83,1.62-1.46,2.79l5.59,18H16.46c-1.23,0-2.23,0.99-2.23,2.22
		c0,1.23,1.35,2.22,2.58,2.22h124.7c0.96,0,1.78-0.61,2.09-1.47L143.61,115.06z"/>
	<path class="st0" d="M25.4,101.67l-2.51-8.03c-0.01-0.04-0.02-0.07-0.03-0.11l-0.02-0.08l0,0c-0.48-1.3-1.78-2.24-3.3-2.24
		c-1.83,0-3.33,1.35-3.49,3.06l-0.01,0l-0.01,0l-1.83,14.1c-0.16,1.21,0.74,2.32,2.01,2.47c1.27,0.15,2.42-0.71,2.58-1.93l1.19-8.8
		l2.83,8.76c0.27,1.13,1.33,1.98,2.59,1.98c0,0,0,0,0,0c0,0,0,0,0,0c1.26-0.01,2.32-0.85,2.59-1.98l2.83-8.76l1.19,8.8
		c0.16,1.21,1.31,2.08,2.58,1.93c1.27-0.15,2.17-1.26,2.01-2.47l-1.83-14.1l-0.01,0l-0.01,0c-0.16-1.72-1.66-3.06-3.49-3.06
		c-1.53,0-2.82,0.94-3.3,2.24l-0.01,0l-0.02,0.08c-0.01,0.04-0.02,0.07-0.03,0.11L25.4,101.67z"/>
	<path class="st0" d="M42.21,91.58c-2.45,0-4.43,1.89-4.43,4.25v10.41c0,2.35,1.98,4.26,4.43,4.26h0.01h11.34
		c1.22,0,2.21-0.95,2.21-2.12c0-0.37-0.1-0.71-0.27-1.02c-0.12-0.15-0.23-0.3-0.34-0.45c-0.4-0.41-0.97-0.67-1.61-0.67H43.25v-3.55
		h10.13c-0.1-0.57-0.15-1.15-0.15-1.74c0-0.51,0.04-1.02,0.12-1.52h-10.1v-3.59h10.14c1.22,0,2.21-0.95,2.21-2.13
		c0-1.17-0.99-2.14-2.21-2.14H42.21z"/>
	<path class="st0" d="M178.14,93.46v15.25c0,1.22,0.99,2.22,2.22,2.22c1.22,0,2.22-0.99,2.22-2.22V93.46c0-1.22-0.99-2.22-2.22-2.22
		C179.14,91.25,178.14,92.24,178.14,93.46"/>
	<path class="st0" d="M92.71,108.07l-4.03-13.19c-0.7-2.11-2.78-3.66-5.24-3.66c-2.33,0-4.32,1.37-5.11,3.3
		c-0.06,0.12-0.12,0.24-0.16,0.37l-4.03,13.18c-0.36,1.18,0.35,2.41,1.6,2.75c1.24,0.34,2.55-0.33,2.91-1.51l0.71-2.33h8.14
		l0.71,2.33c0.36,1.18,1.67,1.85,2.91,1.51C92.36,110.48,93.07,109.25,92.71,108.07 M80.4,103.57l2.19-7.15l0.02,0.01
		c0-0.04,0.01-0.07,0.01-0.11l0.05-0.18c0-0.01,0.01-0.02,0.01-0.04c0.13-0.27,0.41-0.46,0.75-0.46c0.36,0,0.66,0.22,0.78,0.52
		l2.25,7.4H80.4z"/>
	<path class="st1" d="M178.79,86.93c-0.78-0.6-1.54-1.21-2.32-1.82c0.97-0.06,1.95-0.12,2.92-0.18c0.32-0.98,0.65-1.95,0.98-2.93
		c0.32,0.98,0.65,1.95,0.97,2.93c0.96,0.06,1.93,0.11,2.9,0.16c-0.77,0.62-1.52,1.23-2.28,1.84c0.29,0.97,0.58,1.95,0.87,2.92
		c-0.82-0.56-1.66-1.12-2.47-1.68c-0.78,0.56-1.57,1.12-2.35,1.67C178.28,88.89,178.53,87.91,178.79,86.93"/>
</g>
</svg>
