<?xml version="1.0" encoding="utf-8"?>
<!-- Generator: Adobe Illustrator 28.0.0, SVG Export Plug-In . SVG Version: 6.00 Build 0)  -->
<svg version="1.1" id="Layer_1" xmlns="http://www.w3.org/2000/svg" xmlns:xlink="http://www.w3.org/1999/xlink" x="0px" y="0px"
	 viewBox="0 0 198.43 198.43" style="enable-background:new 0 0 198.43 198.43;" xml:space="preserve">
<style type="text/css">
	.st0{fill-rule:evenodd;clip-rule:evenodd;fill:#ECD23D;}
	.st1{fill-rule:evenodd;clip-rule:evenodd;fill:#151515;}
</style>
<g>
	<rect x="14.17" y="110.61" class="st0" width="170.08" height="13.82"/>
	<polygon class="st1" points="46.81,95.04 59.96,95.04 59.41,88.77 46.81,88.77 46.81,80.72 61.9,80.72 61.34,74.45 39.15,74.45 
		39.15,110.6 61.85,110.6 61.3,104.33 46.81,104.33 	"/>
	<g>
		<path class="st1" d="M71.65,84.55c-7.36,0-11.76,4.58-11.76,12.26c0,9.12,4.96,14.34,13.6,14.34c2.33,0,4.75-0.38,7.18-1.13
			l0.65-0.2v-5.36l-1.22,0.43c-1.07,0.37-2.24,0.55-3.67,0.55c-6.51,0-8.82-5.18-8.82-9.62c0-2.68,0.95-5.54,3.6-5.54
			c1.24,0,2.66,0.44,2.66,3.85v1.2l7.71-0.55v-0.65C81.57,87.95,78.05,84.55,71.65,84.55"/>
		<path class="st1" d="M95.27,85.65v10.61c0,3.54-1.61,7.88-4.65,7.88c-1.1,0-1.51-0.09-1.51-4.6V85.09l-7.36,0.55v16.77
			c0,6.43,3.79,8.73,7.34,8.73c2.97,0,4.93-1.36,6.19-2.82v2.27h7.36V85.09L95.27,85.65z"/>
		<path class="st1" d="M115.91,100.19c-0.21,2.28-1.2,5.23-3.95,5.23c-1.39,0-2.01-0.59-2.01-1.91
			C109.94,101.18,113.34,100.35,115.91,100.19 M113.54,84.55c-6.21,0-9.92,3.15-9.92,8.43v0.92h7.21v-0.92
			c0-2.43,1.54-2.71,2.71-2.71c1.49,0,2.41,0.57,2.41,3.4v1.44c-3.89,0.13-13.22,0.82-13.22,8.9c0,4.2,3.24,7.14,7.88,7.14
			c2.53,0,4.21-0.73,5.34-1.69v1.14h7.11V92.83C123.07,89.05,121.42,84.55,113.54,84.55"/>
		<path class="st1" d="M137.24,97.85c0,3.57-1.01,7.18-3.25,7.18c-0.78,0-3.15,0-3.15-7.18c0-5.1,0.91-7.18,3.15-7.18
			C136.68,90.67,137.24,94.57,137.24,97.85 M137.24,74.55v11.87c-1.37-1.21-3.11-1.87-5.09-1.87c-5.65,0-9.03,4.97-9.03,13.3
			c0,10.99,4.91,13.3,9.03,13.3c2.01,0,3.82-0.97,5.09-2.13v1.59h7.36V73.99L137.24,74.55z"/>
		<path class="st1" d="M156.03,90.27c2.63,0,3.65,2.13,3.65,7.58c0,5.45-1.02,7.58-3.65,7.58c-2.63,0-3.65-2.12-3.65-7.58
			C152.38,92.39,153.4,90.27,156.03,90.27 M156.04,84.55c-7.22,0-11.36,4.85-11.36,13.3s4.14,13.3,11.36,13.3s11.36-4.85,11.36-13.3
			S163.26,84.55,156.04,84.55"/>
		<path class="st1" d="M181.64,84.55c-3.53,0-5.53,1.38-6.83,2.93v-2.38l-7.36,0.55v24.96h7.36V99.29c0-5.26,1.79-7.13,6.83-7.13
			h1.01l-0.55-7.61H181.64z"/>
		<polygon class="st1" points="65.74,74.45 67.2,74.45 68.94,79.45 68.96,79.45 70.71,74.45 72.15,74.45 72.15,80.71 71.18,80.71 
			71.18,75.77 71.16,75.77 69.44,80.71 68.46,80.71 66.73,75.77 66.71,75.77 66.71,80.71 65.74,80.71 		"/>
		<path class="st1" d="M72.71,74.45h1.01v1h-1.01V74.45z M72.71,76.39h1.01v4.32h-1.01V76.39z"/>
		<path class="st1" d="M74.29,76.39h1.01v0.81h0.02c0.14-0.33,0.48-0.91,1.28-0.91c0.64,0,1.17,0.44,1.17,1.42v3h-1.01v-2.47
			c0-0.88-0.09-1.01-0.44-1.01c-0.68,0-1.02,0.93-1.02,1.61v1.87h-1.01V76.39z"/>
		<path class="st1" d="M78.37,74.45h1.01v1h-1.01V74.45z M78.37,76.39h1.01v4.32h-1.01V76.39z"/>
		<path class="st1" d="M82.36,77.31c-0.11-0.05-0.52-0.29-0.96-0.29c-0.31,0-0.67,0.15-0.67,0.4c0,0.57,1.9,0.86,1.9,2.1
			c0,0.89-0.68,1.3-1.63,1.3c-0.59,0-0.94-0.11-1.14-0.17v-0.87c0.29,0.13,0.69,0.26,1.1,0.26c0.24,0,0.74-0.04,0.74-0.39
			c0-0.51-1.86-0.94-1.86-2.08c0-0.81,0.62-1.27,1.55-1.27c0.43,0,0.77,0.11,0.98,0.16V77.31z"/>
		<path class="st1" d="M85.59,80.74c-0.27,0.05-0.55,0.07-0.83,0.07c-1.14,0-1.33-0.54-1.33-1.19v-2.53h-0.84v-0.7h0.84v-1.03
			l1.01-0.61v1.63h1.28v0.7h-1.28v2.04c0,0.52,0.06,0.97,0.68,0.97c0.16,0,0.32-0.04,0.46-0.07V80.74z"/>
		<path class="st1" d="M89.06,79.94c-0.18,0.06-0.51,0.16-0.83,0.16c-1.22,0-1.63-1.22-1.63-1.82h2.56v-0.25
			c0-1.05-0.54-1.75-1.64-1.75c-1.31,0-1.85,0.83-1.85,2.03c0,1.59,0.78,2.49,2.18,2.49c0.46,0,0.84-0.05,1.21-0.17V79.94z
			 M86.64,77.68c0.03-0.25,0.23-0.74,0.82-0.74c0.63,0,0.76,0.47,0.76,0.74H86.64z"/>
		<path class="st1" d="M89.58,76.39h1.01v0.8h0.02c0.24-0.42,0.53-0.9,1.4-0.9v1.05c-1.02,0-1.42,0.43-1.42,1.47v1.9h-1.01V76.39z"
			/>
		<path class="st1" d="M92.39,74.45h1.01v1h-1.01V74.45z M92.39,76.39h1.01v4.32h-1.01V76.39z"/>
		<path class="st1" d="M95.7,80.81c1.24,0,1.91-0.84,1.91-2.26c0-1.42-0.66-2.26-1.91-2.26c-1.24,0-1.91,0.84-1.91,2.26
			C93.79,79.97,94.46,80.81,95.7,80.81 M94.87,78.55c0-0.81,0.11-1.55,0.84-1.55c0.73,0,0.83,0.74,0.83,1.55
			c0,0.81-0.11,1.55-0.83,1.55C94.97,80.11,94.87,79.36,94.87,78.55"/>
		<path class="st1" d="M102.46,80.71h1.01v-6.26h-1.01v2.46h-0.02c-0.13-0.22-0.44-0.62-1.08-0.62c-1.03,0-1.48,1.01-1.48,2.26
			c0,1.21,0.33,2.26,1.48,2.26c0.54,0,0.99-0.45,1.08-0.7h0.02V80.71z M100.96,78.55c0-0.72,0.08-1.48,0.74-1.48
			c0.58,0,0.76,0.68,0.76,1.48c0,0.69-0.2,1.48-0.76,1.48C101.07,80.03,100.96,79.23,100.96,78.55"/>
		<path class="st1" d="M107.22,79.94c-0.18,0.06-0.51,0.16-0.83,0.16c-1.22,0-1.62-1.22-1.62-1.82h2.56v-0.25
			c0-1.05-0.54-1.75-1.64-1.75c-1.31,0-1.85,0.83-1.85,2.03c0,1.59,0.78,2.49,2.18,2.49c0.46,0,0.84-0.05,1.21-0.17V79.94z
			 M104.8,77.68c0.03-0.25,0.23-0.74,0.82-0.74c0.63,0,0.76,0.47,0.76,0.74H104.8z"/>
		<polygon class="st1" points="110.84,75.26 109.27,75.26 109.27,74.45 113.47,74.45 113.47,75.26 111.9,75.26 111.9,80.71 
			110.84,80.71 		"/>
		<path class="st1" d="M114.93,79.91h-0.02c-0.14,0.33-0.49,0.91-1.28,0.91c-0.63,0-1.17-0.43-1.17-1.43v-3h1.01v2.47
			c0,0.88,0.09,1.01,0.44,1.01c0.67,0,1.02-0.92,1.02-1.61v-1.87h1.01v4.32h-1.01V79.91z"/>
		<path class="st1" d="M116.48,76.39h1.01v0.8h0.02c0.24-0.42,0.53-0.9,1.4-0.9v1.05c-1.02,0-1.42,0.43-1.42,1.47v1.9h-1.01V76.39z"
			/>
		<path class="st1" d="M119.24,74.45h1.01v1h-1.01V74.45z M119.24,76.39h1.01v4.32h-1.01V76.39z"/>
		<path class="st1" d="M123.19,77.31c-0.11-0.05-0.52-0.29-0.96-0.29c-0.31,0-0.67,0.15-0.67,0.4c0,0.57,1.9,0.86,1.9,2.1
			c0,0.89-0.68,1.3-1.63,1.3c-0.59,0-0.94-0.11-1.14-0.17v-0.87c0.29,0.13,0.69,0.26,1.1,0.26c0.25,0,0.74-0.04,0.74-0.39
			c0-0.51-1.86-0.94-1.86-2.08c0-0.81,0.62-1.27,1.55-1.27c0.43,0,0.77,0.11,0.98,0.16V77.31z"/>
		<path class="st1" d="M123.77,76.39h1.01v0.66h0.02c0.12-0.27,0.43-0.76,1.14-0.76c0.52,0,0.96,0.26,1.09,0.86h0.02
			c0.13-0.33,0.53-0.86,1.22-0.86c0.63,0,1.17,0.44,1.17,1.42v3h-1.01v-2.47c0-0.88-0.09-1.01-0.44-1.01
			c-0.58,0-0.87,0.93-0.87,1.61v1.87h-1.01v-2.47c0-0.88-0.09-1.01-0.44-1.01c-0.58,0-0.87,0.93-0.87,1.61v1.87h-1.01V76.39z"/>
		<path class="st1" d="M131.62,80.81c1.24,0,1.91-0.84,1.91-2.26c0-1.42-0.66-2.26-1.91-2.26c-1.24,0-1.91,0.84-1.91,2.26
			C129.72,79.97,130.38,80.81,131.62,80.81 M130.79,78.55c0-0.81,0.11-1.55,0.83-1.55c0.73,0,0.84,0.74,0.84,1.55
			c0,0.81-0.11,1.55-0.84,1.55C130.89,80.11,130.79,79.36,130.79,78.55"/>
		<polygon class="st1" points="65.74,74.45 67.2,74.45 68.94,79.45 68.96,79.45 70.71,74.45 72.15,74.45 72.15,80.71 71.18,80.71 
			71.18,75.77 71.16,75.77 69.44,80.71 68.46,80.71 66.73,75.77 66.71,75.77 66.71,80.71 65.74,80.71 		"/>
		<path class="st1" d="M72.71,74.45h1.01v1h-1.01V74.45z M72.71,76.39h1.01v4.32h-1.01V76.39z"/>
		<path class="st1" d="M74.29,76.39h1.01v0.81h0.02c0.14-0.33,0.48-0.91,1.28-0.91c0.64,0,1.17,0.44,1.17,1.42v3h-1.01v-2.47
			c0-0.88-0.09-1.01-0.44-1.01c-0.68,0-1.02,0.93-1.02,1.61v1.87h-1.01V76.39z"/>
		<path class="st1" d="M78.37,74.45h1.01v1h-1.01V74.45z M78.37,76.39h1.01v4.32h-1.01V76.39z"/>
		<path class="st1" d="M82.36,77.31c-0.11-0.05-0.52-0.29-0.96-0.29c-0.31,0-0.67,0.15-0.67,0.4c0,0.57,1.9,0.86,1.9,2.1
			c0,0.89-0.68,1.3-1.63,1.3c-0.59,0-0.94-0.11-1.14-0.17v-0.87c0.29,0.13,0.69,0.26,1.1,0.26c0.24,0,0.74-0.04,0.74-0.39
			c0-0.51-1.86-0.94-1.86-2.08c0-0.81,0.62-1.27,1.55-1.27c0.43,0,0.77,0.11,0.98,0.16V77.31z"/>
		<path class="st1" d="M85.59,80.74c-0.27,0.05-0.55,0.07-0.83,0.07c-1.14,0-1.33-0.54-1.33-1.19v-2.53h-0.84v-0.7h0.84v-1.03
			l1.01-0.61v1.63h1.28v0.7h-1.28v2.04c0,0.52,0.06,0.97,0.68,0.97c0.16,0,0.32-0.04,0.46-0.07V80.74z"/>
		<path class="st1" d="M89.06,79.94c-0.18,0.06-0.51,0.16-0.83,0.16c-1.22,0-1.63-1.22-1.63-1.82h2.56v-0.25
			c0-1.05-0.54-1.75-1.64-1.75c-1.31,0-1.85,0.83-1.85,2.03c0,1.59,0.78,2.49,2.18,2.49c0.46,0,0.84-0.05,1.21-0.17V79.94z
			 M86.64,77.68c0.03-0.25,0.23-0.74,0.82-0.74c0.63,0,0.76,0.47,0.76,0.74H86.64z"/>
		<path class="st1" d="M89.58,76.39h1.01v0.8h0.02c0.24-0.42,0.53-0.9,1.4-0.9v1.05c-1.02,0-1.42,0.43-1.42,1.47v1.9h-1.01V76.39z"
			/>
		<path class="st1" d="M92.39,74.45h1.01v1h-1.01V74.45z M92.39,76.39h1.01v4.32h-1.01V76.39z"/>
		<path class="st1" d="M95.7,80.81c1.24,0,1.91-0.84,1.91-2.26c0-1.42-0.66-2.26-1.91-2.26c-1.24,0-1.91,0.84-1.91,2.26
			C93.79,79.97,94.46,80.81,95.7,80.81 M94.87,78.55c0-0.81,0.11-1.55,0.84-1.55c0.73,0,0.83,0.74,0.83,1.55
			c0,0.81-0.11,1.55-0.83,1.55C94.97,80.11,94.87,79.36,94.87,78.55"/>
		<path class="st1" d="M102.46,80.71h1.01v-6.26h-1.01v2.46h-0.02c-0.13-0.22-0.44-0.62-1.08-0.62c-1.03,0-1.48,1.01-1.48,2.26
			c0,1.21,0.33,2.26,1.48,2.26c0.54,0,0.99-0.45,1.08-0.7h0.02V80.71z M100.96,78.55c0-0.72,0.08-1.48,0.74-1.48
			c0.58,0,0.76,0.68,0.76,1.48c0,0.69-0.2,1.48-0.76,1.48C101.07,80.03,100.96,79.23,100.96,78.55"/>
		<path class="st1" d="M107.22,79.94c-0.18,0.06-0.51,0.16-0.83,0.16c-1.22,0-1.62-1.22-1.62-1.82h2.56v-0.25
			c0-1.05-0.54-1.75-1.64-1.75c-1.31,0-1.85,0.83-1.85,2.03c0,1.59,0.78,2.49,2.18,2.49c0.46,0,0.84-0.05,1.21-0.17V79.94z
			 M104.8,77.68c0.03-0.25,0.23-0.74,0.82-0.74c0.63,0,0.76,0.47,0.76,0.74H104.8z"/>
		<polygon class="st1" points="110.84,75.26 109.27,75.26 109.27,74.45 113.47,74.45 113.47,75.26 111.9,75.26 111.9,80.71 
			110.84,80.71 		"/>
		<path class="st1" d="M114.93,79.91h-0.02c-0.14,0.33-0.49,0.91-1.28,0.91c-0.63,0-1.17-0.43-1.17-1.43v-3h1.01v2.47
			c0,0.88,0.09,1.01,0.44,1.01c0.67,0,1.02-0.92,1.02-1.61v-1.87h1.01v4.32h-1.01V79.91z"/>
		<path class="st1" d="M116.48,76.39h1.01v0.8h0.02c0.24-0.42,0.53-0.9,1.4-0.9v1.05c-1.02,0-1.42,0.43-1.42,1.47v1.9h-1.01V76.39z"
			/>
		<path class="st1" d="M119.24,74.45h1.01v1h-1.01V74.45z M119.24,76.39h1.01v4.32h-1.01V76.39z"/>
		<path class="st1" d="M123.19,77.31c-0.11-0.05-0.52-0.29-0.96-0.29c-0.31,0-0.67,0.15-0.67,0.4c0,0.57,1.9,0.86,1.9,2.1
			c0,0.89-0.68,1.3-1.63,1.3c-0.59,0-0.94-0.11-1.14-0.17v-0.87c0.29,0.13,0.69,0.26,1.1,0.26c0.25,0,0.74-0.04,0.74-0.39
			c0-0.51-1.86-0.94-1.86-2.08c0-0.81,0.62-1.27,1.55-1.27c0.43,0,0.77,0.11,0.98,0.16V77.31z"/>
		<path class="st1" d="M123.77,76.39h1.01v0.66h0.02c0.12-0.27,0.43-0.76,1.14-0.76c0.52,0,0.96,0.26,1.09,0.86h0.02
			c0.13-0.33,0.53-0.86,1.22-0.86c0.63,0,1.17,0.44,1.17,1.42v3h-1.01v-2.47c0-0.88-0.09-1.01-0.44-1.01
			c-0.58,0-0.87,0.93-0.87,1.61v1.87h-1.01v-2.47c0-0.88-0.09-1.01-0.44-1.01c-0.58,0-0.87,0.93-0.87,1.61v1.87h-1.01V76.39z"/>
		<path class="st1" d="M131.62,80.81c1.24,0,1.91-0.84,1.91-2.26c0-1.42-0.66-2.26-1.91-2.26c-1.24,0-1.91,0.84-1.91,2.26
			C129.72,79.97,130.38,80.81,131.62,80.81 M130.79,78.55c0-0.81,0.11-1.55,0.83-1.55c0.73,0,0.84,0.74,0.84,1.55
			c0,0.81-0.11,1.55-0.84,1.55C130.89,80.11,130.79,79.36,130.79,78.55"/>
		<path class="st0" d="M156.03,90.27c2.63,0,3.65,2.13,3.65,7.58c0,5.45-1.02,7.58-3.65,7.58c-2.63,0-3.65-2.12-3.65-7.58
			C152.38,92.39,153.4,90.27,156.03,90.27"/>
	</g>
</g>
</svg>
