<?xml version="1.0" encoding="utf-8"?>
<!-- Generator: Adobe Illustrator 28.0.0, SVG Export Plug-In . SVG Version: 6.00 Build 0)  -->
<svg version="1.1" id="Layer_1" xmlns="http://www.w3.org/2000/svg" xmlns:xlink="http://www.w3.org/1999/xlink" x="0px" y="0px"
	 viewBox="0 0 198.43 198.43" style="enable-background:new 0 0 198.43 198.43;" xml:space="preserve">
<style type="text/css">
	.st0{fill-rule:evenodd;clip-rule:evenodd;fill:#151515;}
</style>
<g>
	<rect x="58.94" y="87.57" class="st0" width="8.01" height="23.29"/>
	<polygon class="st0" points="79.94,110.86 70.95,110.86 79.6,98.76 71.8,87.57 80.79,87.57 84.25,93.52 87.75,87.57 96.73,87.57 
		88.49,98.76 96.8,110.86 87.81,110.86 83.87,104.32 	"/>
	<polygon class="st0" points="98.88,87.57 116.65,87.57 116.65,89.44 108.92,89.44 108.92,110.86 106.61,110.86 106.61,89.44 
		98.88,89.44 	"/>
	<polygon class="st0" points="139.82,107.75 139.89,107.75 145.21,87.57 147.59,87.57 141.17,110.86 138.63,110.86 132.96,90.28 
		132.9,90.28 127.23,110.86 124.69,110.86 118.38,87.57 120.69,87.57 125.94,107.75 126.01,107.75 131.68,87.57 134.25,87.57 	"/>
	<g>
		<path class="st0" d="M151.4,99.24c0,6.69,3.83,12.23,11.37,12.23c7.53,0,11.39-5.54,11.39-12.23c0-6.82-3.86-12.29-11.5-12.29
			C155.37,86.95,151.36,92.45,151.4,99.24 M162.8,109.59c-6.38,0-9.1-4.85-9.1-10.35c0-5.4,2.75-10.42,9.03-10.42
			c5.63,0,9.13,3.95,9.13,10.42C171.86,104.68,169.15,109.59,162.8,109.59"/>
		<polygon class="st0" points="24.26,110.86 24.26,87.57 33.93,87.57 38.25,102.09 42.55,87.57 52.22,87.57 52.22,110.86 
			45.03,110.86 45.03,103.74 45.13,100.11 45.54,95.91 45.47,95.91 41.03,110.86 35.46,110.86 31.01,95.91 30.95,95.91 31.29,99.34 
			31.46,102.96 31.46,110.86 		"/>
	</g>
</g>
</svg>
