<?xml version="1.0" encoding="utf-8"?>
<!-- Generator: Adobe Illustrator 28.0.0, SVG Export Plug-In . SVG Version: 6.00 Build 0)  -->
<svg version="1.1" id="Layer_1" xmlns="http://www.w3.org/2000/svg" xmlns:xlink="http://www.w3.org/1999/xlink" x="0px" y="0px"
	 viewBox="0 0 198.43 198.43" style="enable-background:new 0 0 198.43 198.43;" xml:space="preserve">
<style type="text/css">
	.st0{fill-rule:evenodd;clip-rule:evenodd;fill:#E66F36;}
	.st1{fill-rule:evenodd;clip-rule:evenodd;fill:#151515;}
</style>
<g>
	<path class="st0" d="M63.78,109.2c0,1.37-1.11,2.48-2.48,2.48c-1.37,0-2.48-1.11-2.48-2.48s1.11-2.48,2.48-2.48
		C62.67,106.72,63.78,107.83,63.78,109.2"/>
	<path class="st0" d="M50.66,102.78c1.97-1.03,3.17-3.03,3.4-5.08c0.28-2.48-0.79-4.18-2.43-5.28c-1.68-1.12-3.98-1.59-6.07-1.6
		l-5.98,0v16.93l-4.5-17.79l-7.73,12.14l-7.73-12.14l-5.45,21.55h5.85l1.93-7.63l5.39,7.55l5.39-7.55l1.93,7.63h10.96v-5.73
		l4.72,5.73h7.51L50.66,102.78z M45.63,99.54v-3.87C48.81,95.67,48.81,99.54,45.63,99.54"/>
	<path class="st1" d="M184.23,104.4c-0.1-1.26-0.53-2.52-1.31-3.65c-0.78-1.13-1.92-2.12-3.44-2.83c-2.34-1.1-4.13-1.68-5.34-2.16
		c-1.21-0.48-1.84-0.84-1.87-1.48c-0.01-0.32,0.07-0.58,0.23-0.79c0.15-0.21,0.37-0.37,0.61-0.49c0.26-0.12,0.51-0.21,0.75-0.26
		c0.24-0.05,0.47-0.06,0.69-0.05c1.31,0.08,2.14,0.82,2.64,1.54c0.5,0.71,0.67,1.39,0.7,1.39c0.99-0.53,1.98-1.07,2.98-1.6
		c0.99-0.53,1.98-1.07,2.97-1.6c-0.51-1.06-1.14-1.96-1.87-2.72c-0.73-0.76-1.55-1.37-2.45-1.83c-0.9-0.47-1.89-0.78-2.93-0.96
		c-1.04-0.18-2.14-0.21-3.29-0.11c-1.03,0.09-2.04,0.32-2.98,0.67c-0.94,0.35-1.81,0.83-2.57,1.43c-0.83,0.66-1.52,1.47-2,2.42
		c-0.48,0.95-0.75,2.05-0.75,3.28c0,2.17,1.44,3.82,2.88,4.93c1.44,1.11,2.88,1.68,2.88,1.68l2.13,0.93l2.13,0.93
		c0,0,0.44,0.17,0.89,0.53c0.45,0.36,0.89,0.91,0.89,1.66c0,0.76-0.37,1.36-0.91,1.78c-0.54,0.42-1.24,0.65-1.9,0.65
		c-1.35-0.06-2.11-0.71-2.54-1.6c-0.43-0.89-0.53-2.02-0.57-3.06l-3.62,0.7l-3.62,0.7c0,0-0.07,0.75,0.05,1.75
		c0.04,0.34,0.1,0.71,0.19,1.09l-7.57-8.63l11.9-11.76h-9.66l-7.31,7.22v-7.22h-6.99v9.31c-2-5.41-7.68-9.31-14.38-9.31
		c-6.86,0-12.66,4.09-14.52,9.7c-1.86-5.61-7.66-9.7-14.52-9.7c-8.36,0-15.15,6.08-15.15,13.58c0,0.11,0,0.22,0,0.33
		c-0.48-0.6-1.35-1.29-2.09-1.73c0.46-0.64,1.19-2.25,1.19-4.01c-0.01-5.08-4.42-8.17-9.08-8.17h-7.8v24.62h16.39
		c1.17-0.9,2.58-2.33,2.94-5.06c1.11,2.02,2.77,3.76,4.8,5.06h17.6c2.71-1.73,4.75-4.25,5.72-7.17c0.97,2.93,3.01,5.44,5.72,7.17
		h17.6c2.58-1.66,4.56-4.02,5.58-6.78v6.78h6.99v-7.91l6.94,7.91h9.42l-0.01-0.01h13.33c0.85-0.66,1.6-1.56,2.29-2.81
		c0.39-0.71,0.67-1.43,0.84-2.15C184.23,105.82,184.29,105.1,184.23,104.4 M75.14,94.27c1.5,0,2.22,0.85,2.2,1.71
		c-0.01,0.85-0.7,1.71-2.2,1.71V94.27z M77.13,107.94h-1.99v-4.31l1.99,0c1.84,0,2.61,1.08,2.59,2.16
		C79.7,106.87,78.9,107.94,77.13,107.94 M100.84,107.79c-4.51,0-8.17-3.28-8.17-7.32c0-4.05,3.66-7.33,8.17-7.33
		c4.51,0,8.17,3.28,8.17,7.33C109.01,104.51,105.35,107.79,100.84,107.79 M129.88,107.61c-4.41,0-7.98-3.2-7.98-7.15
		c0-3.95,3.57-7.15,7.98-7.15c4.4,0,7.98,3.2,7.98,7.15C137.86,104.41,134.29,107.61,129.88,107.61"/>
</g>
</svg>
