<?xml version="1.0" encoding="utf-8"?>
<!-- Generator: Adobe Illustrator 28.0.0, SVG Export Plug-In . SVG Version: 6.00 Build 0)  -->
<svg version="1.1" id="Layer_1" xmlns="http://www.w3.org/2000/svg" xmlns:xlink="http://www.w3.org/1999/xlink" x="0px" y="0px"
	 viewBox="0 0 198.43 198.43" style="enable-background:new 0 0 198.43 198.43;" xml:space="preserve">
<style type="text/css">
	.st0{fill-rule:evenodd;clip-rule:evenodd;fill:#F4FD3F;}
	.st1{fill-rule:evenodd;clip-rule:evenodd;fill:#E68C36;}
	.st2{fill-rule:evenodd;clip-rule:evenodd;fill:#E6352F;}
	.st3{fill-rule:evenodd;clip-rule:evenodd;fill:#F3C7DF;}
	.st4{fill-rule:evenodd;clip-rule:evenodd;fill:#3670A5;}
	.st5{fill-rule:evenodd;clip-rule:evenodd;fill:#9BD8EB;}
	.st6{fill-rule:evenodd;clip-rule:evenodd;fill:#4FB446;}
	.st7{fill-rule:evenodd;clip-rule:evenodd;fill:#CDE740;}
	.st8{fill-rule:evenodd;clip-rule:evenodd;fill:#316489;}
</style>
<g>
	<rect x="90.72" y="74.24" class="st0" width="16.64" height="6.61"/>
	<polygon class="st1" points="102.49,69.06 90.72,80.85 86.06,76.18 97.82,64.39 	"/>
	<rect x="84.12" y="64.17" class="st2" width="6.59" height="16.67"/>
	<polygon class="st3" points="78.95,69.06 90.72,80.85 86.06,85.52 74.29,73.73 	"/>
	<rect x="74.08" y="80.85" class="st4" width="16.64" height="6.61"/>
	<polygon class="st5" points="78.95,92.64 90.72,80.85 95.38,85.52 83.61,97.31 	"/>
	<rect x="90.72" y="80.85" class="st6" width="6.59" height="16.68"/>
	<polygon class="st7" points="102.49,92.64 90.72,80.85 95.38,76.18 107.15,87.97 	"/>
	<rect x="90.72" y="74.24" class="st0" width="16.64" height="6.61"/>
	<polygon class="st1" points="102.49,69.06 90.72,80.85 86.06,76.18 97.82,64.39 	"/>
	<rect x="84.12" y="64.17" class="st2" width="6.59" height="16.67"/>
	<polygon class="st3" points="78.95,69.06 90.72,80.85 86.06,85.52 74.29,73.73 	"/>
	<rect x="74.08" y="80.85" class="st4" width="16.64" height="6.61"/>
	<polygon class="st5" points="78.95,92.64 90.72,80.85 95.38,85.52 83.61,97.31 	"/>
	<rect x="90.72" y="80.85" class="st6" width="6.59" height="16.68"/>
	<polygon class="st7" points="102.49,92.64 90.72,80.85 95.38,76.18 107.15,87.97 	"/>
	<rect x="90.72" y="74.24" class="st0" width="16.64" height="6.61"/>
	<polygon class="st1" points="102.49,69.06 90.72,80.85 86.06,76.18 97.82,64.39 	"/>
	<rect x="84.12" y="64.17" class="st2" width="6.59" height="16.67"/>
	<polygon class="st3" points="78.95,69.06 90.72,80.85 86.06,85.52 74.29,73.73 	"/>
	<rect x="74.08" y="80.85" class="st4" width="16.64" height="6.61"/>
	<polygon class="st5" points="78.95,92.64 90.72,80.85 95.38,85.52 83.61,97.31 	"/>
	<rect x="90.72" y="80.85" class="st6" width="6.59" height="16.68"/>
	<polygon class="st7" points="102.49,92.64 90.72,80.85 95.38,76.18 107.15,87.97 	"/>
	<rect x="90.72" y="74.24" class="st0" width="16.64" height="6.61"/>
	<polygon class="st1" points="102.49,69.06 90.72,80.85 86.06,76.18 97.82,64.39 	"/>
	<rect x="84.12" y="64.17" class="st2" width="6.59" height="16.67"/>
	<polygon class="st3" points="78.95,69.06 90.72,80.85 86.06,85.52 74.29,73.73 	"/>
	<rect x="74.08" y="80.85" class="st4" width="16.64" height="6.61"/>
	<polygon class="st5" points="78.95,92.64 90.72,80.85 95.38,85.52 83.61,97.31 	"/>
	<rect x="90.72" y="80.85" class="st6" width="6.59" height="16.68"/>
	<polygon class="st7" points="102.49,92.64 90.72,80.85 95.38,76.18 107.15,87.97 	"/>
	<g>
		<path class="st8" d="M68.01,133.78h-6.3l-0.12-3.7c-2.05,2.78-4.76,4.17-8.12,4.17c-3.96,0-5.94-2.53-5.94-7.58v-16.54h6.53v15.95
			c0,2.08,0.89,3.12,2.68,3.12c2.03,0,3.6-0.72,4.69-2.16v-16.91h6.58V133.78z"/>
		<rect x="68.14" y="103.21" class="st8" width="6.53" height="31.04"/>
		<path class="st8" d="M90.4,114.43h-6.26v12.18c0,1.24,0.19,2.12,0.58,2.64c0.44,0.63,1.25,0.95,2.43,0.95
			c1.03,0,2.05-0.16,3.07-0.47v3.68c-1.37,0.56-3.23,0.84-5.59,0.84c-2.34,0-4.12-0.78-5.34-2.34c-1.12-1.41-1.68-3.32-1.68-5.74
			v-11.74h-2.8v-3.34l3.05-0.16l2.19-7.9h4.09v7.9h6.26V114.43z"/>
		<path class="st8" d="M97.3,134.25L97.3,134.25h-6.58v-23.66h6.58V134.25z M97.44,105.31c0,0.99-0.33,1.82-1,2.49
			c-0.66,0.67-1.48,1.01-2.46,1.01c-0.97,0-1.79-0.34-2.46-1.02c-0.66-0.68-1-1.51-1-2.48c0-0.96,0.34-1.78,1.01-2.45
			c0.67-0.67,1.49-1.01,2.45-1.01c0.96,0,1.77,0.34,2.45,1.01C97.1,103.54,97.44,104.35,97.44,105.31"/>
		<rect x="118.1" y="103.21" class="st8" width="6.53" height="31.04"/>
		<path class="st8" d="M139.37,126.05L139.37,126.05v-0.64c0-2.92-1.33-4.39-3.98-4.39c-2.67,0-4,1.48-4,4.43v0.64
			c0,2.68,1.35,4.02,4.04,4.02c1.2,0,2.16-0.37,2.87-1.11C139.01,128.25,139.37,127.27,139.37,126.05 M145.67,133.97h-6.16
			l-0.14-3.08c-0.57,1.12-1.53,1.98-2.86,2.59c-1.16,0.52-2.43,0.78-3.82,0.78c-5.28,0-7.92-2.65-7.92-7.96v-0.41
			c0-2.78,0.99-4.9,2.98-6.34c1.74-1.29,4.06-1.93,6.95-1.93c2.15,0,3.71,0.47,4.67,1.42v-2.31c0-1-0.49-1.75-1.46-2.27
			c-0.78-0.41-1.72-0.61-2.8-0.61c-2.61,0-4.89,0.56-6.85,1.67v-4.04c2.64-1.07,5.46-1.6,8.47-1.6c3.05,0,5.29,0.68,6.73,2.03
			c1.48,1.4,2.22,3.61,2.22,6.64V133.97z"/>
		<polygon class="st8" points="165.46,134.25 145.8,134.25 145.8,129.87 157.87,114.8 146.01,114.8 146.01,110.59 164.93,110.59 
			164.93,114.95 152.48,130.04 165.46,130.04 		"/>
		<path class="st8" d="M177.95,126.05L177.95,126.05v-0.64c0-2.92-1.33-4.39-3.98-4.39c-2.67,0-4,1.48-4,4.43v0.64
			c0,2.68,1.35,4.02,4.04,4.02c1.2,0,2.16-0.37,2.87-1.11C177.6,128.25,177.95,127.27,177.95,126.05 M184.25,133.97h-6.16
			l-0.14-3.08c-0.57,1.12-1.53,1.98-2.86,2.59c-1.16,0.52-2.43,0.78-3.82,0.78c-5.28,0-7.92-2.65-7.92-7.96v-0.41
			c0-2.78,0.99-4.9,2.98-6.34c1.74-1.29,4.06-1.93,6.95-1.93c2.15,0,3.71,0.47,4.67,1.42v-2.31c0-1-0.49-1.75-1.46-2.27
			c-0.78-0.41-1.72-0.61-2.8-0.61c-2.61,0-4.89,0.56-6.85,1.67v-4.04c2.64-1.07,5.46-1.6,8.47-1.6c3.05,0,5.29,0.68,6.73,2.03
			c1.48,1.4,2.22,3.61,2.22,6.64V133.97z"/>
		<polygon class="st8" points="47.39,134.25 41,134.25 41,116.45 31.49,134.25 27.88,134.25 18.98,116.45 18.98,134.25 
			14.17,134.25 14.17,103.21 19.3,103.21 30.94,125.77 42.78,103.21 47.39,103.21 		"/>
		<path class="st8" d="M110.83,114.16L110.83,114.16v-2.99c0-2.31-1.42-3.47-4.25-3.47h-2.19v9.72h2.56c1.1,0,2-0.26,2.7-0.78
			C110.44,116.04,110.83,115.22,110.83,114.16 M117.97,113.71c0,5.31-3.12,7.97-9.36,7.97h-4.22v12.58h-6.95v-31.04h11.62
			c2.76,0,4.91,0.64,6.43,1.91c1.66,1.39,2.48,3.43,2.48,6.13V113.71z"/>
	</g>
</g>
</svg>
