<?xml version="1.0" encoding="utf-8"?>
<!-- Generator: Adobe Illustrator 28.0.0, SVG Export Plug-In . SVG Version: 6.00 Build 0)  -->
<svg version="1.1" id="Layer_1" xmlns="http://www.w3.org/2000/svg" xmlns:xlink="http://www.w3.org/1999/xlink" x="0px" y="0px"
	 viewBox="0 0 198.43 198.43" style="enable-background:new 0 0 198.43 198.43;" xml:space="preserve">
<style type="text/css">
	.st0{fill-rule:evenodd;clip-rule:evenodd;fill:#FFD200;}
	.st1{fill:none;stroke:#F1F1F2;stroke-width:0.931;stroke-miterlimit:10;}
	.st2{fill-rule:evenodd;clip-rule:evenodd;fill:#00529B;}
	.st3{fill-rule:evenodd;clip-rule:evenodd;fill:#FFFFFF;}
	.st4{fill:#00529B;}
</style>
<g>
	<path class="st0" d="M30.78,60.88c8.47-4.38,130.84-4.22,136.8-0.66c5.96,3.56,5.34,7.68,6.06,10.69
		c0.72,3.01,0.72,17.39-0.23,21.09c-0.47,1.81-1.77,7.68-5.35,9.04c-4.33,1.64-26.53,2.33-40.36,2.33c-14.8,0-84.87-0.04-91.86-1.41
		c-6.98-1.37-9.01-2.27-10.65-11.87C23.67,81.08,23.12,64.84,30.78,60.88"/>
	<path class="st1" d="M30.78,60.88c8.47-4.38,130.84-4.22,136.8-0.66c5.96,3.56,5.34,7.68,6.06,10.69
		c0.72,3.01,0.72,17.39-0.23,21.09c-0.47,1.81-1.77,7.68-5.35,9.04c-4.33,1.64-26.53,2.33-40.36,2.33c-14.8,0-84.87-0.04-91.86-1.41
		c-6.98-1.37-9.01-2.27-10.65-11.87C23.67,81.08,23.12,64.84,30.78,60.88"/>
	<path class="st2" d="M25.34,90.61c-0.14-1.46,54.97-3.53,74.01-3.53c31.97,0,73.64,2.82,74.36,3.53c0.19,0.18-1.34,9.21-6.01,10.52
		c-9.9,2.78-61.13,2.19-61.13,2.19c2.88-0.07-67.03,0.75-75.27-2.17C27.04,99.63,25.69,94.28,25.34,90.61"/>
	<path class="st3" d="M67.56,98.72h-1.19l-0.82-1.9h-3.62l-0.82,1.9h-1.13l3.05-6.83h1.48L67.56,98.72z M65.22,96.04l-1.47-3.35
		l-1.47,3.35H65.22z"/>
	<path class="st3" d="M75.5,98.19c-0.43,0.17-0.91,0.33-1.42,0.45c-0.51,0.13-1.01,0.19-1.49,0.19c-0.62,0-1.19-0.08-1.7-0.23
		c-0.52-0.15-0.96-0.37-1.32-0.67c-0.37-0.3-0.65-0.68-0.85-1.13c-0.2-0.45-0.3-0.98-0.3-1.59c0-1.11,0.37-1.99,1.11-2.64
		c0.74-0.64,1.76-0.96,3.06-0.96c0.45,0,0.91,0.05,1.39,0.14c0.47,0.09,0.98,0.26,1.53,0.48v1.1h-0.1
		c-0.11-0.07-0.27-0.17-0.48-0.29c-0.21-0.12-0.42-0.22-0.62-0.3c-0.25-0.1-0.52-0.18-0.84-0.24c-0.31-0.06-0.66-0.1-1.06-0.1
		c-0.89,0-1.59,0.25-2.11,0.75c-0.52,0.5-0.78,1.18-0.78,2.03c0,0.9,0.27,1.6,0.81,2.1c0.54,0.5,1.28,0.75,2.21,0.75
		c0.34,0,0.68-0.03,1.02-0.09c0.34-0.06,0.64-0.14,0.89-0.23v-1.71h-2.13V95.2h3.18V98.19z"/>
	<path class="st3" d="M83.73,98.63h-1.34l-2.6-2.7h-1.46v2.7h-1.03v-6.8h2.18c0.47,0,0.86,0.03,1.17,0.08
		c0.31,0.06,0.59,0.15,0.85,0.29c0.28,0.16,0.5,0.35,0.66,0.59c0.16,0.24,0.24,0.54,0.24,0.9c0,0.49-0.14,0.9-0.42,1.23
		c-0.28,0.33-0.67,0.58-1.16,0.75L83.73,98.63z M81.32,93.74c0-0.19-0.04-0.37-0.12-0.52c-0.08-0.15-0.21-0.28-0.39-0.38
		c-0.15-0.09-0.33-0.15-0.53-0.18c-0.21-0.03-0.45-0.05-0.72-0.05h-1.22v2.57h1.04c0.33,0,0.61-0.03,0.86-0.08
		c0.25-0.05,0.45-0.14,0.62-0.28c0.16-0.13,0.27-0.27,0.35-0.44C81.28,94.21,81.32,94,81.32,93.74"/>
	<path class="st3" d="M132.7,98.66h-1.34l-2.6-2.7h-1.45v2.7h-1.03v-6.8h2.18c0.47,0,0.86,0.03,1.17,0.08
		c0.31,0.05,0.59,0.15,0.85,0.29c0.28,0.16,0.5,0.35,0.66,0.59c0.16,0.24,0.24,0.54,0.24,0.9c0,0.49-0.14,0.9-0.42,1.23
		c-0.28,0.33-0.67,0.58-1.16,0.75L132.7,98.66z M130.29,93.77c0-0.19-0.04-0.37-0.12-0.52c-0.08-0.15-0.21-0.28-0.39-0.38
		c-0.15-0.09-0.33-0.15-0.53-0.18c-0.2-0.04-0.45-0.05-0.73-0.05h-1.21v2.57h1.04c0.33,0,0.61-0.03,0.86-0.08
		c0.24-0.05,0.45-0.14,0.62-0.28c0.16-0.13,0.27-0.27,0.35-0.44C130.25,94.24,130.29,94.03,130.29,93.77"/>
	<path class="st3" d="M95.09,97.96c-0.21,0.07-0.4,0.14-0.57,0.2c-0.17,0.06-0.39,0.13-0.66,0.2c-0.23,0.06-0.48,0.11-0.76,0.15
		c-0.27,0.04-0.57,0.06-0.9,0.06c-0.62,0-1.18-0.07-1.68-0.2c-0.5-0.14-0.94-0.35-1.31-0.64c-0.36-0.29-0.65-0.65-0.86-1.09
		c-0.21-0.44-0.31-0.95-0.31-1.53c0-0.55,0.1-1.05,0.3-1.48c0.2-0.44,0.48-0.8,0.86-1.1c0.36-0.29,0.8-0.51,1.31-0.67
		c0.51-0.15,1.08-0.23,1.7-0.23c0.46,0,0.91,0.04,1.37,0.13c0.45,0.09,0.96,0.24,1.51,0.46v1.06H95c-0.47-0.31-0.93-0.54-1.39-0.68
		c-0.46-0.14-0.95-0.21-1.48-0.21c-0.43,0-0.82,0.05-1.16,0.17c-0.35,0.11-0.65,0.28-0.92,0.51c-0.26,0.23-0.47,0.51-0.61,0.86
		c-0.15,0.34-0.22,0.74-0.22,1.19c0,0.47,0.08,0.88,0.24,1.22c0.16,0.34,0.37,0.62,0.63,0.83c0.27,0.22,0.58,0.39,0.93,0.49
		c0.36,0.11,0.73,0.16,1.13,0.16c0.55,0,1.05-0.07,1.53-0.22c0.48-0.15,0.92-0.37,1.34-0.66h0.08V97.96z"/>
	<path class="st3" d="M103.36,95.88c0,0.5-0.07,0.93-0.2,1.3c-0.13,0.37-0.35,0.68-0.66,0.92c-0.29,0.23-0.63,0.4-1.02,0.51
		c-0.39,0.11-0.84,0.16-1.36,0.16c-0.53,0-0.99-0.06-1.38-0.17c-0.39-0.11-0.72-0.28-0.99-0.5c-0.31-0.25-0.53-0.55-0.66-0.91
		c-0.14-0.36-0.2-0.79-0.2-1.31l0-4.1h1.12v4.15c0,0.37,0.03,0.66,0.09,0.88c0.06,0.22,0.17,0.41,0.31,0.59
		c0.17,0.2,0.39,0.35,0.68,0.45c0.28,0.1,0.63,0.15,1.03,0.15c0.4,0,0.75-0.05,1.03-0.15c0.28-0.1,0.51-0.25,0.68-0.45
		c0.15-0.18,0.25-0.37,0.31-0.6c0.06-0.23,0.09-0.51,0.09-0.84v-4.17h1.12V95.88z"/>
	<path class="st3" d="M124.22,95.91c0,0.5-0.07,0.93-0.2,1.3c-0.13,0.37-0.35,0.68-0.66,0.92c-0.29,0.23-0.63,0.4-1.02,0.51
		c-0.39,0.11-0.84,0.16-1.36,0.16c-0.53,0-0.99-0.06-1.38-0.17c-0.39-0.11-0.72-0.28-0.99-0.5c-0.31-0.25-0.53-0.56-0.66-0.91
		c-0.14-0.36-0.2-0.79-0.2-1.31v-4.1h1.12v4.15c0,0.37,0.03,0.66,0.09,0.88c0.06,0.21,0.17,0.41,0.31,0.59
		c0.16,0.2,0.39,0.35,0.68,0.45c0.28,0.1,0.63,0.15,1.03,0.15c0.4,0,0.75-0.05,1.03-0.15c0.28-0.1,0.51-0.25,0.68-0.45
		c0.15-0.17,0.25-0.37,0.31-0.6c0.06-0.23,0.09-0.51,0.09-0.84v-4.17h1.12V95.91z"/>
	<polygon class="st3" points="110.53,98.69 105.75,98.69 105.75,91.89 106.76,91.89 106.76,97.89 110.53,97.89 	"/>
	<polygon class="st3" points="116.33,92.72 113.54,92.72 113.54,98.75 112.5,98.75 112.5,92.72 109.71,92.72 109.71,91.92 
		116.33,91.92 	"/>
	<polygon class="st3" points="138.44,98.6 133.82,98.6 133.82,91.84 138.44,91.84 138.44,92.92 135.14,92.92 135.14,94.7 
		138.44,94.7 138.44,95.7 135.14,95.7 135.14,97.67 138.44,97.67 	"/>
	<rect x="84.98" y="91.81" class="st3" width="1.05" height="6.76"/>
	<path class="st2" d="M53.44,67.09c-0.84,0.59-6.84,4.77-6.35,11.05c0,0-0.17,0.25,0.18,0.25c0.35,0,6.98-6.55,7.77-7.06
		c0.1-0.06,0.18-0.1,0.26-0.12c-0.01-0.09-0.01-0.18-0.01-0.25C55.29,69.94,54.84,68.38,53.44,67.09"/>
	<path class="st2" d="M37.76,71.32c0.79,0.51,7.43,7.06,7.77,7.06c0.35,0,0.18-0.25,0.18-0.25c0.47-5.99-4.96-10.06-6.2-10.94
		c-1.04,1.11-1.59,2.53-1.83,4.09C37.71,71.3,37.74,71.31,37.76,71.32"/>
	<path class="st2" d="M40.37,66.5c0.79,0.55,4.19,3.97,4.65,4.47c0.47,0.5,0.51,0.37,0.65,0c0.14-0.37-0.14-4.84-0.28-5.8
		c-0.02-0.11-0.03-0.2-0.04-0.28c-2.22,0.13-3.85,0.7-5.03,1.58C40.34,66.48,40.36,66.49,40.37,66.5"/>
	<path class="st2" d="M45.76,83.05c-0.07-1.71-0.9-2.81-1.74-4.25c-0.98-1.65-6.02-5.99-6.34-6.06c-0.04-0.01-0.08-0.03-0.12-0.05
		c-0.4,6.84,1.48,10.54,8.22,10.74C45.77,83.32,45.76,83.2,45.76,83.05"/>
	<path class="st2" d="M47.13,70.97c0.14,0.37,0.19,0.5,0.65,0c0.47-0.5,3.86-3.93,4.65-4.47c0.05-0.03,0.09-0.06,0.14-0.08
		c-1.19-0.78-2.84-1.37-5.12-1.52c-0.01,0.08-0.03,0.17-0.04,0.28C47.27,66.13,46.99,70.6,47.13,70.97"/>
	<path class="st2" d="M55.13,72.75c-0.27,0.18-5.5,4.62-6.34,6.06c-0.84,1.44-1.67,2.53-1.74,4.25c0,0.14-0.01,0.27-0.01,0.38
		c8.99-0.34,8.75-7.38,8.4-10.87C55.34,72.65,55.23,72.69,55.13,72.75"/>
	<path class="st2" d="M158.11,74.48c0,1.43-0.01,2.05-0.87,3.18c-0.36,0.36-1.07,0.8-1.43,0.8h-0.41v-6.89h1.4
		c0.19,0,0.33,0.05,0.48,0.13C158.13,72.1,158.11,73.68,158.11,74.48 M152.17,69.97v10.07h5.67c1.08,0,1.89-0.26,2.43-0.8
		c0.81-0.79,1.08-1.59,1.35-2.65v-1.59c0-3.44-1.08-5.3-3.51-5.3h-5.95V69.97z"/>
	<polygon class="st2" points="150.82,69.71 150.82,80.04 147.85,80.04 144.6,75.01 144.6,80.04 141.63,80.04 141.36,79.78 
		141.36,69.71 143.89,69.71 144.06,69.97 147.31,75.01 147.31,69.71 	"/>
	<path class="st2" d="M134.6,76.07l1.08-3.98l1.08,3.98H134.6z M133.33,69.71l-2.85,10.34h3.31l0.54-2.12h2.7l0.54,2.12h3.31
		l-2.84-10.34H133.33z"/>
	<polygon class="st2" points="117.31,69.71 120.55,69.71 120.55,78.19 122.99,78.19 122.99,80.04 117.31,80.04 	"/>
	<polygon class="st2" points="127.58,78.19 130.28,78.19 130.28,78.45 129.74,80.04 124.33,80.04 124.06,79.78 124.06,69.71 
		127.58,69.71 	"/>
	<path class="st2" d="M113.25,69.71h-2.03h-2.03c-1.89,0-2.97,1.72-2.97,5.17c0,1.97,0.34,5.17,2.97,5.17h2.03h2.03
		c2.64,0,2.97-3.2,2.97-5.17C116.23,71.43,115.15,69.71,113.25,69.71 M112.76,74.69c0,2.03-0.01,3.92-1.54,3.94h-0.02
		c-1.54,0-1.52-1.9-1.52-3.94c0-1.07-0.07-3.56,1.51-3.56h0.03C112.79,71.15,112.76,73.21,112.76,74.69"/>
	<polygon class="st2" points="102.18,69.71 102.18,73.95 99.2,73.95 99.2,69.71 95.96,69.71 95.96,80.04 99.2,80.04 99.2,75.8 
		102.18,75.8 102.18,80.04 105.42,80.04 105.42,69.71 	"/>
	<polygon class="st2" points="81.37,69.71 81.64,69.97 82.72,76.07 83.53,69.97 83.8,69.71 86.5,69.71 86.77,69.97 87.85,76.07 
		88.94,69.97 88.94,69.71 91.64,69.71 91.91,69.97 90.02,80.04 86.5,80.04 85.15,73.68 84.07,80.04 80.29,80.04 78.4,69.97 
		78.67,69.71 	"/>
	<path class="st2" d="M69.75,75.01v-0.2v-0.2c0,0.01,0,0.01,0,0.02c0.06-3.2,0.88-4.92,2.7-4.92h4.87l0.27,0.27l0.27,1.32
		l-0.27,0.26h-3.51c-0.54,0-0.81,0.8-0.81,2.38h4.05v0.8v0.13v0.82h-4.05c0,1.63,0.27,2.44,0.81,2.44h3.75v1.63v0.27h-5.38
		c-1.82,0-2.64-1.76-2.7-5.05C69.75,75,69.75,75,69.75,75.01"/>
	<polygon class="st2" points="59.48,69.97 62.45,69.97 65.43,75.01 65.43,69.97 68.67,69.97 68.67,80.31 66.14,80.31 65.97,80.04 
		62.72,75.01 62.72,80.04 62.72,80.31 59.48,80.31 	"/>
	<rect x="28.24" y="112.45" class="st4" width="2.46" height="9.83"/>
	<path class="st4" d="M34.83,115.64v0.94c0.62-0.72,1.34-1.08,2.17-1.08c0.69,0,1.27,0.22,1.73,0.66c0.46,0.44,0.7,1.07,0.7,1.9
		v4.23h-2.1v-4.05c0-0.89-0.35-1.33-1.04-1.33c-0.49,0-0.98,0.37-1.46,1.1v4.29h-2.1v-6.64H34.83z"/>
	<path class="st4" d="M47.95,115.64v1.4h-0.95c0.22,0.38,0.33,0.74,0.33,1.1c0,0.52-0.19,0.99-0.58,1.43
		c-0.39,0.44-0.96,0.7-1.71,0.78c-0.76,0.08-1.18,0.16-1.28,0.23c-0.1,0.07-0.15,0.17-0.15,0.29c0,0.12,0.07,0.21,0.2,0.28
		c0.13,0.07,0.65,0.15,1.56,0.23c0.91,0.08,1.54,0.31,1.89,0.71c0.36,0.4,0.53,0.82,0.53,1.28c0,0.73-0.3,1.28-0.91,1.66
		c-0.6,0.38-1.48,0.57-2.62,0.57c-1.17,0-2.05-0.18-2.65-0.53c-0.6-0.35-0.9-0.82-0.9-1.4c0-0.81,0.59-1.37,1.78-1.69
		c-0.54-0.16-0.8-0.45-0.8-0.87c0-0.49,0.4-0.82,1.21-1.01c-0.54-0.09-0.99-0.33-1.34-0.7c-0.35-0.38-0.53-0.82-0.53-1.34
		c0-0.64,0.25-1.2,0.76-1.69s1.25-0.73,2.22-0.73H47.95z M44.35,124.36c0.45,0,0.81-0.08,1.09-0.25c0.28-0.16,0.42-0.36,0.42-0.59
		c0-0.49-0.54-0.73-1.63-0.73c-0.49,0-0.88,0.07-1.16,0.21c-0.28,0.14-0.42,0.33-0.42,0.57C42.63,124.1,43.2,124.36,44.35,124.36
		 M44.17,116.88c-0.34,0-0.63,0.12-0.86,0.35c-0.23,0.23-0.35,0.52-0.35,0.86c0,0.32,0.12,0.6,0.36,0.84
		c0.24,0.24,0.52,0.36,0.85,0.36c0.33,0,0.61-0.12,0.84-0.37c0.23-0.25,0.35-0.55,0.35-0.89c0-0.31-0.11-0.58-0.34-0.81
		C44.8,116.99,44.52,116.88,44.17,116.88"/>
	<path class="st4" d="M48.81,121.16c0-0.34,0.12-0.64,0.37-0.88c0.25-0.25,0.54-0.37,0.89-0.37c0.35,0,0.65,0.12,0.89,0.37
		c0.25,0.25,0.37,0.54,0.37,0.88c0,0.35-0.12,0.64-0.37,0.89c-0.25,0.24-0.54,0.37-0.89,0.37c-0.34,0-0.64-0.12-0.89-0.37
		C48.94,121.8,48.81,121.51,48.81,121.16"/>
	<path class="st4" d="M58.35,112.45v8.92c0,2.52-1.16,3.78-3.49,3.78c-0.22,0-0.46-0.01-0.72-0.04v-1.93
		c0.13,0.02,0.26,0.04,0.37,0.04c0.92,0,1.38-0.6,1.38-1.81v-8.97H58.35z"/>
	<path class="st4" d="M60.11,121.16c0-0.34,0.12-0.64,0.37-0.88c0.25-0.25,0.54-0.37,0.89-0.37c0.35,0,0.65,0.12,0.89,0.37
		c0.25,0.25,0.37,0.54,0.37,0.88c0,0.35-0.12,0.64-0.37,0.89c-0.25,0.24-0.54,0.37-0.89,0.37c-0.34,0-0.64-0.12-0.89-0.37
		C60.24,121.8,60.11,121.51,60.11,121.16"/>
	<polygon class="st4" points="74.3,120.48 74.3,122.29 67.04,122.29 67.04,112.45 74.2,112.45 74.2,114.26 69.49,114.26 
		69.49,116.32 73.99,116.32 73.99,118.12 69.49,118.12 69.49,120.48 	"/>
	<path class="st4" d="M80.53,115.99v1.48c-0.8-0.49-1.54-0.73-2.22-0.73c-0.5,0-0.76,0.17-0.76,0.51c0,0.09,0.05,0.18,0.16,0.26
		c0.11,0.09,0.51,0.27,1.22,0.55c0.71,0.28,1.2,0.6,1.5,0.97c0.29,0.37,0.44,0.77,0.44,1.2c0,0.69-0.24,1.22-0.71,1.6
		c-0.47,0.38-1.14,0.56-2.01,0.56c-0.89,0-1.69-0.16-2.39-0.49v-1.47c0.86,0.38,1.57,0.56,2.15,0.56c0.68,0,1.02-0.16,1.02-0.49
		c0-0.13-0.06-0.25-0.19-0.36c-0.13-0.11-0.55-0.31-1.26-0.59c-0.71-0.28-1.2-0.58-1.47-0.92c-0.26-0.33-0.4-0.7-0.4-1.11
		c0-0.61,0.25-1.1,0.76-1.48c0.51-0.38,1.17-0.57,2-0.57C79.17,115.5,79.89,115.67,80.53,115.99"/>
	<path class="st4" d="M84.17,115.64v0.58c0.56-0.48,1.19-0.72,1.91-0.72c0.87,0,1.6,0.33,2.19,0.98c0.6,0.65,0.9,1.45,0.9,2.4
		c0,1.07-0.3,1.92-0.9,2.56c-0.6,0.64-1.39,0.97-2.38,0.97c-0.61,0-1.18-0.15-1.71-0.46v3.65h-2.1v-9.96H84.17z M84.17,117.52v3.05
		c0.4,0.29,0.8,0.44,1.21,0.44c0.51,0,0.91-0.18,1.21-0.55c0.3-0.36,0.45-0.86,0.45-1.47c0-0.63-0.14-1.13-0.41-1.48
		c-0.28-0.35-0.66-0.53-1.16-0.53C85.05,116.99,84.62,117.17,84.17,117.52"/>
	<path class="st4" d="M90.47,113.48c0-0.32,0.11-0.59,0.34-0.82c0.23-0.23,0.5-0.34,0.81-0.34c0.32,0,0.59,0.11,0.82,0.34
		c0.23,0.23,0.34,0.5,0.34,0.82c0,0.31-0.11,0.59-0.34,0.81c-0.23,0.23-0.5,0.34-0.82,0.34c-0.32,0-0.59-0.11-0.81-0.34
		C90.58,114.07,90.47,113.8,90.47,113.48 M92.68,122.29h-2.1v-6.64h2.1V122.29z"/>
	<path class="st4" d="M96.55,115.64v0.94c0.62-0.72,1.34-1.08,2.17-1.08c0.69,0,1.27,0.22,1.73,0.66c0.46,0.44,0.7,1.07,0.7,1.9
		v4.23h-2.1v-4.05c0-0.89-0.35-1.33-1.04-1.33c-0.49,0-0.98,0.37-1.46,1.1v4.29h-2.1v-6.64H96.55z"/>
	<path class="st4" d="M106.32,115.5c1.04,0,1.93,0.31,2.66,0.92c0.73,0.61,1.09,1.46,1.09,2.55c0,1.09-0.37,1.94-1.11,2.54
		c-0.74,0.6-1.62,0.9-2.64,0.9c-1.11,0-2.01-0.32-2.71-0.96c-0.7-0.64-1.05-1.47-1.05-2.5c0-1.04,0.36-1.88,1.08-2.51
		C104.35,115.82,105.24,115.5,106.32,115.5 M106.32,121.17c1,0,1.5-0.75,1.5-2.26c0-1.44-0.5-2.16-1.5-2.16
		c-0.48,0-0.86,0.19-1.13,0.57c-0.27,0.38-0.41,0.93-0.41,1.64C104.79,120.43,105.3,121.17,106.32,121.17"/>
	<path class="st4" d="M125.8,120.65v1.16c-0.7,0.4-1.35,0.61-1.96,0.61c-0.66,0-1.05-0.25-1.17-0.75c-0.73,0.5-1.46,0.75-2.19,0.75
		c-0.52,0-0.96-0.16-1.32-0.49s-0.54-0.71-0.54-1.14c0-0.58,0.19-1.04,0.56-1.4c0.37-0.35,1.51-0.81,3.4-1.37
		c0.05-0.74-0.34-1.11-1.16-1.11c-0.89,0-1.71,0.37-2.46,1.11v-1.7c0.88-0.54,1.84-0.81,2.89-0.81c1.88,0,2.82,0.67,2.82,2.02v3.03
		c0,0.31,0.12,0.47,0.35,0.47C125.19,121.02,125.45,120.9,125.8,120.65 M122.57,120.67v-1.61c-0.7,0.24-1.18,0.47-1.44,0.66
		c-0.26,0.2-0.39,0.44-0.39,0.74c0,0.19,0.07,0.36,0.2,0.5c0.13,0.14,0.29,0.21,0.48,0.21C121.81,121.17,122.2,121.01,122.57,120.67
		"/>
	<polygon class="st4" points="139.44,112.45 134.07,120.48 139.44,120.48 139.44,122.29 129.88,122.29 135.29,114.26 130.25,114.26 
		130.25,112.45 	"/>
	<path class="st4" d="M140.6,121.16c0-0.34,0.12-0.64,0.37-0.88c0.25-0.25,0.54-0.37,0.89-0.37c0.35,0,0.65,0.12,0.89,0.37
		c0.25,0.25,0.37,0.54,0.37,0.88c0,0.35-0.12,0.64-0.37,0.89c-0.25,0.24-0.54,0.37-0.89,0.37c-0.34,0-0.64-0.12-0.89-0.37
		C140.73,121.8,140.6,121.51,140.6,121.16"/>
	<path class="st4" d="M154.19,113.09v1.92c-1.31-0.59-2.35-0.88-3.13-0.88c-0.44,0-0.79,0.07-1.05,0.22
		c-0.26,0.15-0.39,0.34-0.39,0.59c0,0.19,0.09,0.37,0.28,0.53c0.19,0.17,0.65,0.39,1.38,0.65c0.73,0.27,1.31,0.52,1.75,0.75
		c0.44,0.23,0.81,0.55,1.13,0.97c0.32,0.42,0.48,0.95,0.48,1.58c0,0.91-0.35,1.64-1.04,2.17c-0.69,0.54-1.61,0.81-2.74,0.81
		c-1.22,0-2.41-0.32-3.56-0.95v-2.12c0.66,0.44,1.24,0.76,1.75,0.96c0.51,0.2,1.05,0.3,1.62,0.3c0.96,0,1.45-0.3,1.45-0.91
		c0-0.21-0.1-0.4-0.29-0.58c-0.19-0.18-0.66-0.41-1.39-0.67c-0.74-0.26-1.32-0.51-1.75-0.73c-0.43-0.23-0.8-0.55-1.11-0.96
		c-0.31-0.42-0.47-0.95-0.47-1.6c0-0.84,0.34-1.53,1.02-2.04c0.68-0.52,1.59-0.78,2.74-0.78
		C151.9,112.33,153.02,112.58,154.19,113.09"/>
	<path class="st4" d="M155.82,121.16c0-0.34,0.12-0.64,0.37-0.88c0.25-0.25,0.54-0.37,0.89-0.37c0.35,0,0.65,0.12,0.89,0.37
		c0.25,0.25,0.37,0.54,0.37,0.88c0,0.35-0.12,0.64-0.37,0.89c-0.25,0.24-0.54,0.37-0.89,0.37c-0.34,0-0.64-0.12-0.89-0.37
		C155.94,121.8,155.82,121.51,155.82,121.16"/>
	<path class="st4" d="M165.91,112.45l4.38,9.83h-2.64l-0.81-1.94h-4.41l-0.74,1.94h-2.6l3.98-9.83H165.91z M166.12,118.63l-1.6-3.82
		l-1.45,3.82H166.12z"/>
	<path class="st4" d="M116.59,116v1.48c-0.8-0.49-1.54-0.73-2.22-0.73c-0.5,0-0.76,0.17-0.76,0.51c0,0.09,0.05,0.18,0.16,0.26
		c0.11,0.09,0.51,0.27,1.22,0.55c0.71,0.28,1.2,0.6,1.5,0.97c0.29,0.37,0.44,0.77,0.44,1.2c0,0.69-0.24,1.22-0.71,1.6
		c-0.47,0.38-1.14,0.56-2.01,0.56c-0.89,0-1.69-0.16-2.39-0.49v-1.47c0.86,0.38,1.57,0.56,2.15,0.56c0.68,0,1.02-0.16,1.02-0.49
		c0-0.13-0.06-0.25-0.19-0.36c-0.13-0.11-0.55-0.31-1.26-0.59c-0.71-0.28-1.2-0.58-1.47-0.92c-0.26-0.33-0.4-0.7-0.4-1.11
		c0-0.61,0.25-1.1,0.76-1.48c0.51-0.38,1.17-0.57,2-0.57C115.23,115.51,115.95,115.67,116.59,116"/>
	<rect x="106.78" y="132.71" class="st4" width="1.78" height="8.04"/>
	<path class="st4" d="M112.43,140.86l1.86-3.02c-0.18,0.05-0.37,0.07-0.55,0.07c-0.6,0-1.12-0.25-1.55-0.74
		c-0.43-0.49-0.65-1.09-0.65-1.79c0-0.79,0.26-1.45,0.77-1.98c0.52-0.53,1.15-0.8,1.91-0.8c0.76,0,1.4,0.27,1.9,0.8
		c0.51,0.53,0.76,1.2,0.76,2c0,0.95-0.35,2-1.06,3.15l-1.42,2.3H112.43z M114.19,136.54c0.26,0,0.47-0.11,0.64-0.34
		c0.17-0.23,0.26-0.51,0.26-0.86c0-0.38-0.08-0.68-0.24-0.9c-0.16-0.22-0.38-0.33-0.66-0.33c-0.27,0-0.49,0.11-0.66,0.34
		c-0.18,0.23-0.26,0.52-0.26,0.87c0,0.36,0.09,0.65,0.26,0.88C113.7,136.43,113.92,136.54,114.19,136.54"/>
	<path class="st4" d="M119.88,137.29v-1.42c0.33,0,0.6-0.09,0.81-0.28c0.2-0.19,0.3-0.41,0.3-0.67c0-0.27-0.11-0.49-0.32-0.67
		c-0.22-0.18-0.49-0.26-0.82-0.26c-0.45,0-0.94,0.13-1.48,0.39v-1.42c0.54-0.23,1.15-0.35,1.84-0.35c0.77,0,1.39,0.18,1.86,0.55
		c0.48,0.37,0.72,0.84,0.72,1.42c0,0.8-0.4,1.42-1.19,1.86c0.94,0.37,1.41,1.06,1.41,2.07c0,0.71-0.26,1.28-0.78,1.71
		s-1.22,0.64-2.09,0.64c-0.71,0-1.37-0.15-1.97-0.45v-1.56c0.61,0.43,1.18,0.64,1.7,0.64c0.37,0,0.68-0.1,0.91-0.3
		c0.23-0.2,0.35-0.45,0.35-0.77c0-0.31-0.11-0.58-0.34-0.79C120.57,137.41,120.26,137.3,119.88,137.29"/>
	<path class="st4" d="M129.42,132.61v4.88h0.54v1.28h-0.54v1.98h-1.78v-1.98h-3.15v-1.28l3.79-4.88H129.42z M125.9,137.49h1.73v-2.2
		L125.9,137.49z"/>
	<path class="st4" d="M68.57,132.78h3.53c1.36,0,2.44,0.37,3.23,1.12c0.79,0.74,1.19,1.71,1.19,2.89c0,1.24-0.4,2.21-1.21,2.92
		c-0.8,0.71-1.95,1.06-3.44,1.06h-3.3V132.78z M70.56,134.25v5.05h1.3c0.84,0,1.49-0.23,1.94-0.69c0.45-0.46,0.67-1.07,0.67-1.83
		c0-0.78-0.23-1.4-0.68-1.85c-0.45-0.45-1.1-0.68-1.95-0.68H70.56z"/>
	<polygon class="st4" points="82.58,139.54 82.58,140.7 77.91,140.7 77.91,134.38 82.52,134.38 82.52,135.54 79.49,135.54 
		79.49,136.86 82.38,136.86 82.38,138.02 79.49,138.02 79.49,139.54 	"/>
	<path class="st4" d="M88.08,134.79v1.23c-0.84-0.38-1.51-0.56-2.01-0.56c-0.28,0-0.51,0.05-0.68,0.14
		c-0.17,0.09-0.25,0.22-0.25,0.38c0,0.12,0.06,0.24,0.18,0.34c0.12,0.11,0.42,0.25,0.88,0.42c0.47,0.17,0.84,0.33,1.12,0.48
		c0.28,0.15,0.52,0.36,0.73,0.62c0.2,0.27,0.31,0.61,0.31,1.02c0,0.58-0.22,1.05-0.67,1.4c-0.45,0.35-1.03,0.52-1.76,0.52
		c-0.79,0-1.55-0.2-2.28-0.61v-1.36c0.42,0.28,0.8,0.49,1.12,0.62c0.33,0.13,0.67,0.19,1.04,0.19c0.62,0,0.93-0.19,0.93-0.58
		c0-0.13-0.06-0.26-0.19-0.37c-0.12-0.12-0.42-0.26-0.9-0.43c-0.47-0.17-0.85-0.33-1.12-0.47c-0.28-0.14-0.52-0.35-0.72-0.62
		c-0.2-0.27-0.3-0.61-0.3-1.03c0-0.54,0.22-0.98,0.66-1.31c0.44-0.33,1.02-0.5,1.76-0.5C86.62,134.3,87.33,134.46,88.08,134.79"/>
	<path class="st4" d="M89.38,134.38h2.79c1.08,0,1.93,0.29,2.56,0.88c0.63,0.59,0.94,1.35,0.94,2.28c0,0.98-0.32,1.75-0.95,2.31
		c-0.64,0.56-1.54,0.84-2.72,0.84h-2.61V134.38z M90.96,135.54v4h1.03c0.67,0,1.18-0.18,1.53-0.55c0.35-0.37,0.53-0.85,0.53-1.45
		c0-0.62-0.18-1.11-0.54-1.47c-0.36-0.36-0.87-0.54-1.54-0.54H90.96z"/>
	<polygon class="st4" points="101.52,139.54 101.52,140.7 96.85,140.7 96.85,134.38 101.46,134.38 101.46,135.54 98.43,135.54 
		98.43,136.86 101.32,136.86 101.32,138.02 98.43,138.02 98.43,139.54 	"/>
</g>
</svg>
