<?xml version="1.0" encoding="utf-8"?>
<!-- Generator: Adobe Illustrator 28.0.0, SVG Export Plug-In . SVG Version: 6.00 Build 0)  -->
<svg version="1.1" id="Layer_1" xmlns="http://www.w3.org/2000/svg" xmlns:xlink="http://www.w3.org/1999/xlink" x="0px" y="0px"
	 viewBox="0 0 198.43 198.43" style="enable-background:new 0 0 198.43 198.43;" xml:space="preserve">
<style type="text/css">
	.st0{fill:#0A7E8E;}
	.st1{clip-path:url(#SVGID_00000156551126227933843310000015692371432066561437_);fill:#FFFFFF;}
	.st2{clip-path:url(#SVGID_00000156551126227933843310000015692371432066561437_);fill:#0A7E8E;}
</style>
<g>
	<rect x="14.17" y="80.36" class="st0" width="170.08" height="37.71"/>
	<g>
		<defs>
			<rect id="SVGID_1_" x="14.17" y="80.36" width="170.08" height="37.71"/>
		</defs>
		<clipPath id="SVGID_00000132083451943088450910000007597269242743094698_">
			<use xlink:href="#SVGID_1_"  style="overflow:visible;"/>
		</clipPath>
		<path style="clip-path:url(#SVGID_00000132083451943088450910000007597269242743094698_);fill:#FFFFFF;" d="M81.48,92.71
			c0,1.85,1.5,3.35,3.35,3.35c1.85,0,3.35-1.5,3.35-3.35c0-1.85-1.5-3.35-3.35-3.35C82.98,89.37,81.48,90.87,81.48,92.71
			 M82.91,92.71L82.91,92.71c0-1.06,0.86-1.92,1.92-1.92c1.06,0,1.92,0.86,1.92,1.92c0,1.06-0.86,1.92-1.92,1.92
			C83.77,94.63,82.91,93.77,82.91,92.71"/>
		
			<rect x="102.95" y="89.48" style="clip-path:url(#SVGID_00000132083451943088450910000007597269242743094698_);fill:#FFFFFF;" width="1.38" height="6.46"/>
		<polygon style="clip-path:url(#SVGID_00000132083451943088450910000007597269242743094698_);fill:#FFFFFF;" points="99.2,90.86 
			101.39,90.86 101.39,89.49 95.63,89.49 95.63,90.86 97.82,90.86 97.82,95.94 99.2,95.94 		"/>
		<path style="clip-path:url(#SVGID_00000132083451943088450910000007597269242743094698_);fill:#FFFFFF;" d="M118.3,95.84
			l-2.72-5.51c-0.25-0.5-0.78-0.85-1.38-0.85c-0.61,0-1.14,0.35-1.39,0.86l-1.7,3.34c-0.51,0.9-1.59,0.86-1.59,0.86h-0.59
			c-1,0-1.81-0.82-1.81-1.83c0-1.01,0.81-1.83,1.81-1.83h1.9v-1.4h-1.9c-1.76,0-3.19,1.45-3.19,3.23c0,1.78,1.43,3.23,3.19,3.23
			h0.58c0.26,0.01,1.91,0.01,2.8-1.55l1.57-3.01c0.06-0.12,0.18-0.19,0.32-0.19c0.15,0,0.28,0.09,0.33,0.21l2.21,4.47l0.04,0.08
			h1.57L118.3,95.84z"/>
		<path style="clip-path:url(#SVGID_00000132083451943088450910000007597269242743094698_);fill:#FFFFFF;" d="M91.92,89.49h-2.55
			v1.38h2.55c0.59,0,1.08,0.37,1.08,0.82c0,0.44-0.49,0.82-1.08,0.82h-1.24c-0.2,0-0.41,0.04-0.6,0.14c-0.45,0.23-0.71,0.7-0.7,1.17
			v2.13h1.38v-1.77c0-0.11,0.07-0.22,0.18-0.27c0.04-0.02,0.09-0.03,0.14-0.03h0.85c1.36,0,2.46-0.98,2.46-2.19
			C94.37,90.47,93.27,89.49,91.92,89.49"/>
		<path style="clip-path:url(#SVGID_00000132083451943088450910000007597269242743094698_);fill:#FFFFFF;" d="M129.2,97
			c-1.22,0-2.21,0.99-2.21,2.21c0,1.22,0.99,2.21,2.21,2.21s2.2-0.99,2.2-2.21C131.4,97.99,130.42,97,129.2,97"/>
		<path style="clip-path:url(#SVGID_00000132083451943088450910000007597269242743094698_);fill:#FFFFFF;" d="M155.01,90.25
			c-1.58-5.82-27.13-8.87-30.6,4.57c-3.17,12.29,3.02,18.32,10.13,18.32C143.36,113.13,157.06,97.8,155.01,90.25 M129.2,103.12
			c-2.16,0-3.91-1.75-3.91-3.91c0-2.16,1.75-3.91,3.91-3.91c2.16,0,3.91,1.75,3.91,3.91C133.11,101.36,131.35,103.12,129.2,103.12
			 M146.22,102.99l-2.59-5.25c-0.07-0.15-0.22-0.25-0.4-0.25c-0.17,0-0.32,0.1-0.39,0.24l-1.87,3.64h2.19l-0.83,1.62h-5.93
			c-1.31,0-2.38-1.07-2.38-2.38v-5.17h1.71v5.09c0,0.46,0.37,0.84,0.84,0.84h2.48l2.51-4.88c0.3-0.62,0.94-1.05,1.68-1.05
			c0.73,0,1.36,0.42,1.67,1.03l3.22,6.53H146.22z"/>
		<path style="clip-path:url(#SVGID_00000132083451943088450910000007597269242743094698_);fill:#0A7E8E;" d="M129.2,95.3
			c-2.16,0-3.91,1.75-3.91,3.91c0,2.16,1.75,3.91,3.91,3.91c2.16,0,3.91-1.75,3.91-3.91C133.11,97.05,131.36,95.3,129.2,95.3
			 M129.2,101.41c-1.22,0-2.21-0.99-2.21-2.21c0-1.22,0.99-2.21,2.21-2.21s2.2,0.99,2.2,2.21
			C131.4,100.42,130.42,101.41,129.2,101.41"/>
		<path style="clip-path:url(#SVGID_00000132083451943088450910000007597269242743094698_);fill:#FFFFFF;" d="M43.21,98.32v6.19
			c0,0.13,0.01,1.43,0.95,2.37c0.41,0.42,1.16,0.91,2.38,0.91h3.44v-2.11h-3.44c-1.05,0-1.22-0.74-1.22-1.18v-6.18H43.21z"/>
		<path style="clip-path:url(#SVGID_00000132083451943088450910000007597269242743094698_);fill:#FFFFFF;" d="M50.05,103.04
			c0,2.74,2.23,4.97,4.97,4.97c2.74,0,4.97-2.23,4.97-4.97c0-2.74-2.23-4.97-4.97-4.97C52.28,98.07,50.05,100.3,50.05,103.04
			 M52.16,103.04L52.16,103.04c0-1.58,1.29-2.87,2.87-2.87c1.58,0,2.87,1.29,2.87,2.87c0,1.58-1.29,2.87-2.87,2.87
			C53.44,105.91,52.16,104.62,52.16,103.04"/>
		<path style="clip-path:url(#SVGID_00000132083451943088450910000007597269242743094698_);fill:#FFFFFF;" d="M77.02,99.71
			l0.02,0.04c-0.55-1.22-1.69-1.46-2.31-1.42c-1.17,0.06-1.86,0.95-2.08,1.48l0.02-0.05l-3.99,8.04h2.35l3.47-7
			c0,0,0.09-0.24,0.37-0.24c0,0,0.25,0,0.34,0.24l3.47,6.99h2.35L77.02,99.71z"/>
		<path style="clip-path:url(#SVGID_00000132083451943088450910000007597269242743094698_);fill:#FFFFFF;" d="M93.24,98.32v9.47h4
			c2.8,0,5.07-2.12,5.07-4.73c0-2.61-2.27-4.73-5.07-4.73H93.24z M97.24,100.41L97.24,100.41c1.64,0,2.98,1.19,2.98,2.65
			c0,1.46-1.34,2.65-2.98,2.65h-1.91v-5.3H97.24z"/>
		<path style="clip-path:url(#SVGID_00000132083451943088450910000007597269242743094698_);fill:#FFFFFF;" d="M89.33,104.57
			l-3.79-4.94c-1.11-1.55-2.37-1.29-2.37-1.29c-0.95,0.11-1.65,0.92-1.67,1.88l0,7.57h2.12v-7.22l4.91,6.46
			c0.26,0.45,0.78,0.76,1.37,0.76c0.86,0,1.55-0.64,1.55-1.42v-8.04h-2.12V104.57z"/>
		<path style="clip-path:url(#SVGID_00000132083451943088450910000007597269242743094698_);fill:#FFFFFF;" d="M63.5,98.33
			c-3.14,0-2.95,2.09-2.95,2.09c0,0.52,0.17,1.15,0.73,1.7l3.06,2.82c0,0,0.27,0.23,0.17,0.48c0,0-0.11,0.24-0.61,0.25h-3.38v2.11
			h3.13c1.42,0.01,2.95-0.56,3.14-1.96c0.01-0.11,0.02-0.21,0.02-0.31c0-0.72-0.34-1.42-0.99-2.06l-2.34-2.16
			c-0.42-0.36-0.31-0.63-0.31-0.63c0.08-0.26,0.54-0.23,0.54-0.23h2.87v-2.1H63.5z"/>
		<path style="clip-path:url(#SVGID_00000132083451943088450910000007597269242743094698_);fill:#FFFFFF;" d="M115.8,98.33
			c-3.14,0-2.95,2.09-2.95,2.09c0,0.52,0.17,1.15,0.73,1.7l3.06,2.82c0,0,0.27,0.23,0.17,0.48c0,0-0.11,0.24-0.61,0.25h-3.38v2.11
			h3.14c1.42,0.01,2.95-0.56,3.14-1.96c0.01-0.11,0.02-0.21,0.02-0.31c0-0.72-0.34-1.42-0.99-2.06l-2.34-2.16
			c-0.42-0.36-0.31-0.63-0.31-0.63c0.08-0.26,0.54-0.23,0.54-0.23h2.87v-2.1H115.8z"/>
		<path style="clip-path:url(#SVGID_00000132083451943088450910000007597269242743094698_);fill:#FFFFFF;" d="M107.06,105.68
			c-1.24,0-1.44-0.74-1.45-1.18v-0.43h5.43v-2.11h-5.43v-1.53h5.43v-2.11h-7.54v6.18c0,0.13,0.01,1.37,0.94,2.31
			c0.44,0.45,1.25,0.98,2.61,0.98h3.98v-2.11H107.06z"/>
	</g>
</g>
</svg>
