<?xml version="1.0" encoding="utf-8"?>
<!-- Generator: Adobe Illustrator 28.0.0, SVG Export Plug-In . SVG Version: 6.00 Build 0)  -->
<svg version="1.1" id="Layer_1" xmlns="http://www.w3.org/2000/svg" xmlns:xlink="http://www.w3.org/1999/xlink" x="0px" y="0px"
	 viewBox="0 0 198.43 198.43" style="enable-background:new 0 0 198.43 198.43;" xml:space="preserve">
<style type="text/css">
	.st0{fill:#FFF56D;}
	
		.st1{clip-path:url(#SVGID_00000008110945256249523500000013405184552736925097_);fill:none;stroke:#363639;stroke-width:0.437;stroke-linecap:round;stroke-linejoin:round;stroke-miterlimit:2.414;}
	
		.st2{clip-path:url(#SVGID_00000008110945256249523500000013405184552736925097_);fill-rule:evenodd;clip-rule:evenodd;fill:#ED1D24;}
	
		.st3{clip-path:url(#SVGID_00000008110945256249523500000013405184552736925097_);fill-rule:evenodd;clip-rule:evenodd;fill:#231F20;}
	
		.st4{clip-path:url(#SVGID_00000008110945256249523500000013405184552736925097_);fill-rule:evenodd;clip-rule:evenodd;fill:#FFFFFF;}
</style>
<rect x="14.25" y="41.61" class="st0" width="169.93" height="115.21"/>
<g>
	<defs>
		<rect id="SVGID_1_" x="14.17" y="41.54" width="170.08" height="115.35"/>
	</defs>
	<clipPath id="SVGID_00000148650585913368435580000009525607723282580881_">
		<use xlink:href="#SVGID_1_"  style="overflow:visible;"/>
	</clipPath>
	
		<rect x="14.25" y="41.61" style="clip-path:url(#SVGID_00000148650585913368435580000009525607723282580881_);fill:none;stroke:#363639;stroke-width:0.437;stroke-linecap:round;stroke-linejoin:round;stroke-miterlimit:2.414;" width="169.93" height="115.21"/>
	
		<path style="clip-path:url(#SVGID_00000148650585913368435580000009525607723282580881_);fill-rule:evenodd;clip-rule:evenodd;fill:#ED1D24;" d="
		M99.76,59.49l54.45,9.02c2.48,0.37,4.6,1.38,6.53,3.04c1.93,1.75,3.22,3.59,3.95,6.08l9.93,32.4c0.74,2.39,0.74,4.69,0.09,7.09
		c-0.64,2.39-1.75,4.33-3.59,5.98c-1.84,1.75-3.86,2.76-6.25,3.22l-65.67,12.61l-65.67-12.61c-2.39-0.46-4.41-1.47-6.25-3.22
		c-1.84-1.66-2.94-3.59-3.59-5.98c-0.64-2.39-0.64-4.69,0.09-7.09l9.93-32.4c0.74-2.49,2.02-4.33,3.95-6.08
		c1.93-1.66,4.05-2.67,6.53-3.04l54.45-9.02H99.76z"/>
	
		<path style="clip-path:url(#SVGID_00000148650585913368435580000009525607723282580881_);fill-rule:evenodd;clip-rule:evenodd;fill:#231F20;" d="
		M99.21,66.86l-53.8,8.84c-1.1,0.18-2.02,0.64-2.94,1.38c-0.83,0.74-1.38,1.56-1.75,2.67l-9.93,32.5c-0.37,1.01-0.37,1.93-0.09,2.95
		c0.28,1.01,0.83,1.84,1.56,2.58c0.83,0.74,1.66,1.2,2.67,1.38l64.29,12.34l64.29-12.34c1.01-0.18,1.84-0.64,2.67-1.38
		c0.74-0.74,1.29-1.57,1.56-2.58c0.28-1.01,0.28-1.93-0.09-2.95l-9.93-32.5c-0.37-1.1-0.92-1.93-1.75-2.67
		c-0.92-0.74-1.84-1.2-2.94-1.38L99.21,66.86z"/>
	
		<path style="clip-path:url(#SVGID_00000148650585913368435580000009525607723282580881_);fill-rule:evenodd;clip-rule:evenodd;fill:#FFFFFF;" d="
		M106.66,90.7c-0.09,0.09-0.18,0-0.28-0.09c-0.18-0.18-0.28-0.46-0.46-0.74c-1.2-1.47-3.13-2.67-5.06-2.67
		c-0.74,0-1.66,0.37-1.66,1.29v6.72c0,0.83,0.28,0.92,0.74,0.83c0.83-0.09,1.75-0.55,2.48-1.1c0.28-0.18,0.83-0.46,0.83,0.46v3.13
		c0,0.46-0.46,0.28-0.74,0.09c-0.37-0.37-0.55-0.64-1.01-0.83c-0.46-0.18-0.83-0.18-1.2-0.28c-1.1,0-1.1,0.37-1.1,0.83v7.73
		c0,0.37,0.09,0.55,0.28,0.64c0.55,0.55,1.56,0.55,2.21,0.28c1.29-0.28,2.48-1.29,3.31-2.3c0.64-0.83,1.2-1.66,1.66-2.49
		c0.18-0.18,0.28-0.46,0.55-0.46c0.09,0,0.18,0,0.28,0.09c0.09,0.18,0.09,0.46,0,0.64l-1.47,5.71c0,0.46-0.37,0.64-0.92,0.64H94.8
		c-0.64,0-0.64-0.46-0.64-0.55c0.18-0.55,1.56-1.2,1.66-2.67v-16.2c0-0.28,0-0.55-0.09-0.92c-0.28-0.64-0.74-1.38-1.01-2.12
		c-0.37-0.74,0.09-0.74,0.46-0.74l9.56-0.09c0.37,0,0.74,0.37,0.83,0.64l1.2,3.59C106.94,90.33,106.94,90.61,106.66,90.7
		 M113.38,91.34c-0.09,0-0.09,0.09-0.18,0.28v0.28l0.09,10.4c0,1.75,0.28,3.5,0.64,5.34c0.09,0.37,0.83,1.1-0.18,1.01l-2.85,0.09
		c-0.37,0-0.74-0.18-0.37-0.74c0.37-0.55,0.55-1.01,0.83-1.56c0.55-1.29,0.46-2.76,0.55-4.23c0.28-3.22,0.18-6.54,0.09-9.85
		c0-1.2,0.18-2.39,0-3.5c-0.18-0.92-0.74-1.66-1.1-2.49c-0.09-0.37-0.28-0.83,0.55-0.83h2.76c0.83,0,1.01,0.64,1.29,1.2l6.44,12.61
		c0.09,0.18,0.55,0.92,0.55-0.09l-0.09-9.11c-0.09-1.29-0.46-2.58-1.1-3.87c-0.18-0.46-0.18-0.74,0.55-0.83h2.21
		c0.28,0,0.92-0.09,0.55,0.74c-0.18,0.37-0.28,0.74-0.37,1.1c-0.74,6.9-0.64,13.81-0.46,20.71c0,0.37-0.09,0.83-0.55,0.92
		c-0.55,0.09-0.83-0.18-1.01-0.55l-7.91-15.56l-0.55-1.1C113.65,91.53,113.47,91.34,113.38,91.34 M147.31,95.21
		c0.37,0,0.74-0.09,1.1-0.09c1.29-0.28,2.39-1.01,2.67-2.85c0.18-0.92,0.18-1.84,0.09-2.76c-0.28-1.29-0.92-2.12-1.84-2.39
		c-0.46-0.09-1.01-0.09-1.47-0.09c-1.01,0-1.29,0.46-1.29,1.29v6.08C146.58,94.75,146.67,95.12,147.31,95.21 M92.59,91.53
		c-0.46,0.18-1.56-1.38-2.39-2.03c-0.64-0.55-1.2-1.01-1.84-1.38c-0.92-0.55-2.48-1.1-3.22,0.28c-0.55,0.92,0.18,2.21,0.74,3.04
		l6.16,9.11c0.83,1.29,1.47,2.58,1.29,4.42c-0.09,0.55-0.18,1.01-0.46,1.56c-0.83,1.57-2.58,2.21-4.14,2.03
		c-0.74-0.09-1.56-0.28-2.3-0.55c-0.28-0.18-0.55-0.37-0.92-0.28c-0.46,0.09-0.64,0.83-1.2,1.01c-0.37,0.09-0.74-0.37-0.83-0.74
		l-1.38-5.8c-0.09-0.09-0.09-0.18,0-0.28c0-0.09,0-0.18,0.09-0.18h0.37c0.09,0.09,0.18,0.18,0.28,0.28
		c0.09,0.09,0.28,0.28,0.37,0.37c0.74,1.1,1.66,4.14,4.87,4.33c0.92,0.09,2.02-0.37,1.75-1.84c-0.18-1.29-1.1-2.21-1.84-3.22
		l-5.89-8.56c-0.74-1.01-1.2-2.3-1.1-3.59c0.09-1.84,2.21-3.59,3.95-3.77c1.1-0.09,2.21,0,3.31,0.18c0.28,0.09,0.64,0,0.83-0.28
		c0.37-0.37,0.92-0.55,1.47,0.55l1.66,3.41C92.5,90.15,93.14,91.25,92.59,91.53 M66.75,108.83h-4.23c-1.2,0-0.83-0.46-0.64-0.74
		c0.28-0.46,0.74-1.2,0.83-2.21l-0.09-17.4c0-0.74-0.37-1.84-0.55-2.12c-0.18-0.18-0.64-0.83,0.37-0.83h4.23
		c0.83,0,0.46,0.55,0.37,0.83c-0.64,0.64-0.74,2.03-0.74,2.39v17.31c0.09,0.64,0.46,1.38,0.83,2.03
		C67.3,108.37,67.76,108.74,66.75,108.83 M68.68,85.82c0.09-0.09,0.18-0.09,0.28-0.18h0.37h4.05c0.28,0,0.74,0,0.64,0.37
		c0,0.18-0.09,0.28-0.09,0.37c-0.37,0.74-0.55,1.56-0.55,2.39v17.12c0,0.55,0.09,1.01,0.83,1.1c2.12,0.28,2.85-0.64,3.68-1.75
		c0.55-0.92,1.01-1.84,1.29-2.85c0.09-0.28,0.18-0.83,0.55-0.83c0.55,0.09,0.37,0.55,0.37,0.83l-1.75,5.8
		c-0.09,0.28-0.46,0.55-0.83,0.55h-7.63c-1.01,0-0.74-0.37-0.55-0.64c0.09-0.37,0.28-0.64,0.28-0.92l-0.09-18.41
		c0-0.92-0.28-1.56-0.74-2.49C68.68,86.09,68.68,85.91,68.68,85.82 M153.93,99.07c0.28,1.38,0.09,3.22,0.09,4.88
		c0.09,1.38,0.55,2.67,1.01,4.05c0.09,0.28,0.28,0.64-0.55,0.64l-2.12,0.09c-1.01-0.18-1.47-0.74-1.56-1.47
		c-0.46-1.38-0.55-3.96-0.55-5.98c-0.09-0.74-0.09-1.57-0.37-2.3c-0.37-1.29-1.47-1.56-2.39-1.56c-0.64,0-0.83,0-0.83,0.74v7.64
		c0,0.64,0.55,1.38,0.92,2.03c0.09,0.18,0.09,0.28,0.18,0.37v0.28c0,0.09-0.09,0.09-0.18,0.18h-0.37h-4.41h-0.28
		c-0.09-0.09-0.18-0.09-0.18-0.18c-0.09,0-0.09-0.09,0-0.18c0-0.09,0.09-0.18,0.09-0.28c0.28-0.46,0.83-1.56,0.83-2.03l-0.09-17.31
		c0-0.37,0-0.74-0.18-1.2c-0.18-0.37-0.55-0.83-0.83-1.29c0-0.09-0.09-0.28-0.09-0.37s0-0.18,0.09-0.28c0,0,0.18-0.09,0.28-0.09
		h0.37h7.54c1.38,0.09,2.94,0.83,3.68,2.03c0.92,1.47,1.1,3.13,0.74,5.34c-0.09,0.64-0.28,1.29-0.64,1.84
		c-0.37,0.64-0.92,1.2-1.47,1.66c-0.64,0.37-0.55,0.46,0,0.92C152.65,97.33,153.66,97.88,153.93,99.07 M52.58,95.76
		c0.55,0,1.1,0,1.66-0.18c1.1-0.28,2.12-1.2,2.39-2.58c0.09-1.01,0-2.03-0.18-3.04c-0.18-1.01-0.92-2.3-1.93-2.49h-1.38
		c-0.55,0.09-1.2,0.37-1.2,1.29v6.26C51.94,95.39,52.03,95.76,52.58,95.76 M47.53,86c0.09-0.28,0.55-0.09,0.92-0.09h4.32
		c2.12,0,4.69-0.09,5.98,1.47c1.38,1.66,1.66,3.5,1.47,5.34c-0.18,2.12-1.93,4.51-4.05,5.06c-1.1,0.37-2.21,0.46-3.31,0.46
		c-0.92-0.09-0.92,0.18-0.92,0.64v6.72c0,0.37,0,0.74,0.09,1.1c0.28,0.55,0.55,1.1,0.83,1.56c0.18,0.28,0.46,0.83-0.37,0.83h-4.14
		c-1.2,0-0.64-0.64-0.55-0.74c0.28-0.83,0.64-1.38,0.64-2.58c0-4.05,0-14.08-0.09-17.12c0-0.28,0-0.55-0.09-0.83
		c-0.18-0.46-0.46-0.92-0.64-1.29C47.53,86.37,47.43,86.19,47.53,86 M139.31,90.7c-0.09,0.09-0.18,0-0.28-0.09
		c-0.18-0.18-0.37-0.46-0.55-0.74c-1.1-1.47-3.13-2.67-4.97-2.67c-0.74,0-1.66,0.37-1.75,1.29l-0.09,6.72
		c0.09,0.83,0.46,0.92,0.83,0.83c0.92-0.09,1.84-0.55,2.58-1.1c0.28-0.18,0.83-0.46,0.83,0.46v3.13c0,0.46-0.46,0.28-0.74,0.09
		c-0.37-0.37-0.64-0.64-1.1-0.83c-0.37-0.18-0.74-0.18-1.1-0.28c-1.2,0-1.2,0.37-1.29,0.83l0.18,7.73c0,0.37,0.09,0.55,0.28,0.64
		c0.55,0.55,1.47,0.55,2.21,0.28c1.29-0.28,2.39-1.29,3.31-2.3c0.64-0.83,1.2-1.66,1.66-2.49c0.09-0.18,0.28-0.46,0.55-0.46
		c0.09,0,0.18,0,0.28,0.09c0.09,0.18,0.09,0.46,0,0.64l-1.47,5.71c-0.09,0.46-0.46,0.55-1.1,0.55l-10.21,0.09
		c-0.64,0-0.64-0.46-0.64-0.55c0.18-0.55,1.56-1.2,1.56-2.67v-16.2c0-0.28,0.09-0.55-0.09-0.92c-0.28-0.64-0.64-1.38-1.01-2.12
		c-0.28-0.74,0.18-0.74,0.46-0.74l9.75-0.09c0.37,0,0.64,0.37,0.83,0.64l1.2,3.59C139.59,90.33,139.59,90.61,139.31,90.7"/>
</g>
</svg>
