<?xml version="1.0" encoding="utf-8"?>
<!-- Generator: Adobe Illustrator 28.0.0, SVG Export Plug-In . SVG Version: 6.00 Build 0)  -->
<svg version="1.1" id="Layer_1" xmlns="http://www.w3.org/2000/svg" xmlns:xlink="http://www.w3.org/1999/xlink" x="0px" y="0px"
	 viewBox="0 0 200 200" style="enable-background:new 0 0 200 200;" xml:space="preserve">
<style type="text/css">
	.st0{fill-rule:evenodd;clip-rule:evenodd;fill:#2C4791;}
	
		.st1{clip-path:url(#SVGID_00000102512875394801476120000000969349625375430035_);fill:url(#SVGID_00000004521921892905038640000012502857634699796646_);}
</style>
<g>
	<path id="primax-xvg" class="st0" d="M59.9,99.3v5.9h4c1.5,0,2.8-1.3,2.8-2.8v-0.3c0-1.5-1.3-2.8-2.8-2.8L59.9,99.3L59.9,99.3z M81,99v5.6h4.4
		c1.4,0,2.6-1.2,2.6-2.6v-0.3c0-1.4-1.2-2.6-2.6-2.6L81,99L81,99z M75.2,94.5H87c3.8,0,6.9,3.1,6.9,6.9v0.8c0,2.6-1.4,4.8-3.6,6
		l3.4,7.4h-6.2l-3-6.6H81v6.6h-5.8V94.5z M97.7,94.5h5.8v21.1h-5.8V94.5z M108.2,94.5h6.5l6.1,14.9l6.1-14.9h6.9v21.1h-5.5v-12
		l-4.9,12h-5.1l-4.6-11.1v11.1h-5.5L108.2,94.5L108.2,94.5z M149,108.4l-2.2-7l-2.2,7H149z M143.1,94.5h7.2l6.7,21.1h-5.8l-0.9-2.8
		H143l-0.9,2.8h-5.8L143.1,94.5z M173.4,94.5h6.4l-7.5,10.5l7.6,10.7h-6.4l-4.4-6.1l-4.4,6.1h-6.4L166,105l-7.5-10.5h6.4l4.2,6
		L173.4,94.5z M54.1,94.5H65c4,0,7.3,3.3,7.3,7.3v0.9c0,4-3.3,7.3-7.3,7.3h-5.1v5.7h-5.8L54.1,94.5L54.1,94.5z"/>
	<g>
		<g>
			<defs>
				<path id="SVGID_1_" d="M47.6,115.8l-5.1-7.3c-1,1.7-2.5,4.5-3.9,8.8c2.1,0.6,3.9,0.8,5.2,0.8c1.6,0,2.6-0.2,2.9-0.3
					c0.6-0.1,1-0.6,1-1.3C47.9,116.3,47.8,116,47.6,115.8 M57.1,81.9c-0.1,0-0.2,0-0.3,0c-8.4,2.6-37,14.3-36.8,23.7
					c0,4.8,5.6,7.1,9.9,8.9c3-4.2,6-8.1,8.9-11.5l-5.5-7.9h6.4c0.8,0,1.5,0.4,2,1l1.4,2c8.1-9.1,14.1-14.1,14.7-14.6
					c0.2-0.2,0.3-0.4,0.3-0.7C58,82.4,57.7,81.9,57.1,81.9"/>
			</defs>
			<clipPath id="SVGID_00000137117700126203471240000010494954373660199597_">
				<use xlink:href="#SVGID_1_"  style="overflow:visible;"/>
			</clipPath>
			
				<radialGradient id="SVGID_00000137843063705152256340000009445223905009968821_" cx="-524.5284" cy="-164.9135" r="0.4666" gradientTransform="matrix(61.673 -4.151859e-05 4.151859e-05 61.673 32369.1387 10276.6387)" gradientUnits="userSpaceOnUse">
				<stop  offset="0" style="stop-color:#F4B31A"/>
				<stop  offset="1.962750e-03" style="stop-color:#F4B31A"/>
				<stop  offset="0.2047" style="stop-color:#F1A51D"/>
				<stop  offset="0.4664" style="stop-color:#EB8C22"/>
				<stop  offset="1" style="stop-color:#E87924"/>
			</radialGradient>
			
				<rect x="19.9" y="81.9" style="clip-path:url(#SVGID_00000137117700126203471240000010494954373660199597_);fill:url(#SVGID_00000137843063705152256340000009445223905009968821_);" width="38.2" height="36.1"/>
		</g>
	</g>
</g>
</svg>
