<?xml version="1.0" encoding="utf-8"?>
<!-- Generator: Adobe Illustrator 28.0.0, SVG Export Plug-In . SVG Version: 6.00 Build 0)  -->
<svg version="1.1" id="Layer_1" xmlns="http://www.w3.org/2000/svg" xmlns:xlink="http://www.w3.org/1999/xlink" x="0px" y="0px"
	 viewBox="0 0 198.43 198.43" style="enable-background:new 0 0 198.43 198.43;" xml:space="preserve">
<style type="text/css">
	.st0{fill:#807F83;}
	.st1{clip-path:url(#SVGID_00000081616362775787668310000006485263896896171393_);fill:#FFFFFF;}
	.st2{clip-path:url(#SVGID_00000081616362775787668310000006485263896896171393_);fill:#B1005D;}
</style>
<g>
	<rect x="14.17" y="82.86" class="st0" width="170.08" height="32.71"/>
	<g>
		<defs>
			<rect id="SVGID_1_" x="14.17" y="82.86" width="170.08" height="32.71"/>
		</defs>
		<clipPath id="SVGID_00000183210043503422774520000001717343013035173288_">
			<use xlink:href="#SVGID_1_"  style="overflow:visible;"/>
		</clipPath>
		<path style="clip-path:url(#SVGID_00000183210043503422774520000001717343013035173288_);fill:#FFFFFF;" d="M57.65,90.4
			c-4.91,0-8.9,3.89-8.9,8.85c0,4.86,3.96,8.78,8.83,8.78c4.93,0,8.85-3.99,8.85-8.92C66.43,94.32,62.44,90.4,57.65,90.4
			 M32.45,100.25c1.06-1.04,1.63-2.48,1.63-3.97c0-1.75-0.66-3.35-2.08-4.39c-1.25-0.92-2.98-1.11-4.49-1.11h-7.43v2.53h2.53
			l0,11.79l-2.52,0.01l-0.01,2.53h8.28l-0.01-2.53l-2.53,0.01l0-3.31h2.33C29.85,101.8,31.22,101.5,32.45,100.25 M44.37,101.59
			c2.55-0.21,4.18-2.65,4.18-5.08c0-1.72-0.69-3.31-2.01-4.44c-1.32-1.13-2.76-1.3-4.42-1.3h-8.54v2.53h2.53v11.8h-2.55l0.02,2.53
			h8.27v-2.56h-2.51l0-5.02l5.53,7.58h4.9l0-2.53l-2.84,0L44.37,101.59z M73.62,90.77h-8.85v2.53h2.53v11.8h-2.53v2.53h8.85
			c2.48,0,4.44-0.62,6.12-2.51c1.44-1.61,2.17-3.73,2.17-5.88c0-2.34-0.76-4.6-2.38-6.25C77.82,91.27,75.98,90.77,73.62,90.77
			 M109.01,100.25c-0.5-0.74-1.22-1.3-2.16-1.68c0.73-0.35,1.28-0.83,1.65-1.43c0.37-0.6,0.55-1.32,0.55-2.17
			c0-0.86-0.2-1.63-0.59-2.3c-0.4-0.68-0.91-1.16-1.53-1.45c-0.62-0.29-1.5-0.44-2.64-0.44H79.95l-0.01,2.53h2.75v8.42
			c0,1.84,0.31,3.33,1.71,4.68c1.23,1.18,2.77,1.56,4.43,1.56c1.71,0,3.32-0.45,4.55-1.7c1.28-1.3,1.56-2.69,1.56-4.44v-8.5h3.53
			v11.45h-1.82v2.8h7.99c1.13,0,2.08-0.22,2.86-0.66c0.78-0.44,1.35-1.03,1.72-1.75c0.36-0.73,0.54-1.52,0.54-2.37
			C109.77,101.83,109.51,100.98,109.01,100.25 M101.66,93.58h1.85c0.79,0,1.37,0.12,1.72,0.34c0.56,0.35,0.84,0.88,0.84,1.58
			c0,0.64-0.2,1.13-0.6,1.49c-0.4,0.35-1.06,0.53-1.98,0.53h-1.83V93.58z M105.86,104.17c-0.45,0.41-1.2,0.61-2.24,0.61h-1.96v-4.67
			h2c0.98,0,1.7,0.22,2.17,0.65c0.47,0.44,0.71,1,0.71,1.7C106.54,103.2,106.32,103.77,105.86,104.17 M144.73,90.78h-6.83v2.67h1.82
			v8.61l-8.09-11.28h-4.68v2.67h1.82v11.46h-2.85l-5.82-14.13h-5.62v2.67h1.85l-4.81,11.46h-1.8v2.67h6.87v-2.33h-1.91l0.93-2.55
			h5.95l0.96,2.5l-1.85,0.04v2.33h13.11v-2.67h-1.82v-8.4l7.99,11.07h2.96V93.45h1.82V90.78z M116.51,100.24l2.1-5.76l2.1,5.76
			H116.51z M155.53,104.05c-0.84,0.49-1.75,0.73-2.73,0.73c-1.53,0-2.83-0.55-3.91-1.64c-1.08-1.09-1.61-2.43-1.61-4.02
			c0-0.99,0.24-1.92,0.72-2.79c0.48-0.87,1.16-1.55,2.03-2.03c0.87-0.48,1.8-0.72,2.78-0.72c0.93,0,1.82,0.21,2.66,0.64
			c0.85,0.43,1.54,1.07,2.07,1.94h3.01v-5.38h-2.63v1.71c-0.71-0.7-1.5-1.22-2.37-1.57c-0.86-0.35-1.81-0.52-2.83-0.52
			c-1.49,0-2.93,0.39-4.31,1.17c-1.38,0.78-2.45,1.84-3.22,3.2c-0.77,1.36-1.15,2.81-1.15,4.36c0,1.56,0.39,3.04,1.16,4.42
			c0.78,1.39,1.87,2.47,3.27,3.25c1.4,0.78,2.84,1.17,4.32,1.17c1.17,0,2.35-0.26,3.53-0.78c1.18-0.52,2.23-1.31,3.13-2.36
			c0.65-0.76,1.15-1.66,1.52-2.71h-3.48C157.03,102.91,156.37,103.56,155.53,104.05 M177.22,94.81c-0.75-1.37-1.81-2.45-3.2-3.24
			c-1.39-0.79-2.84-1.18-4.36-1.18c-1.51,0-2.95,0.39-4.33,1.17c-1.38,0.78-2.45,1.86-3.22,3.24c-0.77,1.39-1.16,2.84-1.16,4.37
			c0,1.54,0.39,3,1.16,4.39c0.77,1.39,1.85,2.47,3.22,3.24c1.38,0.77,2.82,1.16,4.32,1.16c1.51,0,2.96-0.39,4.36-1.18
			c1.39-0.79,2.46-1.88,3.22-3.27c0.75-1.39,1.13-2.85,1.13-4.37C178.34,97.63,177.97,96.19,177.22,94.81 M173.5,103.15
			c-1.08,1.09-2.36,1.63-3.86,1.63c-1.5,0-2.79-0.54-3.86-1.63c-1.07-1.09-1.61-2.41-1.61-3.97c0-1.56,0.54-2.88,1.61-3.97
			c1.07-1.09,2.36-1.63,3.86-1.63c1.5,0,2.79,0.54,3.86,1.62c1.07,1.08,1.61,2.39,1.61,3.95
			C175.12,100.72,174.58,102.06,173.5,103.15"/>
		<path style="clip-path:url(#SVGID_00000183210043503422774520000001717343013035173288_);fill:#B1005D;" d="M85.97,93.31v8.09
			c0,0.8,0.02,1.65,0.51,2.36c0.53,0.78,1.42,1.18,2.36,1.18c0.87,0,1.66-0.33,2.21-1.02c0.58-0.73,0.63-1.65,0.63-2.53v-8.09H85.97
			z M44.2,94.24c-0.71-0.59-1.49-0.59-2.39-0.59h-2.47v6.1h1.99c0.99,0,1.96-0.05,2.81-0.69c0.76-0.59,1.16-1.49,1.16-2.43
			C45.31,95.73,44.93,94.81,44.2,94.24 M29.78,94.22c-0.68-0.5-1.39-0.52-2.17-0.52h-1.79v5.2h1.93c0.8,0,1.54-0.02,2.17-0.57
			c0.61-0.52,0.92-1.28,0.92-2.05C30.84,95.45,30.44,94.67,29.78,94.22 M57.63,93.61c-3.07,0-5.57,2.45-5.57,5.55
			c0,3.11,2.41,5.66,5.52,5.66c3.14,0,5.55-2.57,5.55-5.69C63.13,96.11,60.65,93.61,57.63,93.61 M73.27,93.63h-2.57v11.09h2.53
			c1.6,0,3-0.21,4.11-1.49c0.92-1.06,1.37-2.62,1.37-3.99c0-1.51-0.42-3.16-1.46-4.27C76.07,93.8,74.82,93.63,73.27,93.63"/>
	</g>
</g>
</svg>
