<?xml version="1.0" encoding="utf-8"?>
<!-- Generator: Adobe Illustrator 28.0.0, SVG Export Plug-In . SVG Version: 6.00 Build 0)  -->
<svg version="1.1" id="Layer_1" xmlns="http://www.w3.org/2000/svg" xmlns:xlink="http://www.w3.org/1999/xlink" x="0px" y="0px"
	 viewBox="0 0 198.43 198.43" style="enable-background:new 0 0 198.43 198.43;" xml:space="preserve">
<style type="text/css">
	.st0{fill:#10151E;}
	.st1{fill:#E8639D;}
	.st2{fill:#F4AF7C;}
	.st3{fill:#F29027;}
	.st4{fill:#F07322;}
	.st5{fill:#F9B529;}
	.st6{fill:#F05622;}
	.st7{fill:#F28823;}
	.st8{fill:#EF4723;}
	.st9{fill:#EF6223;}
	.st10{fill:#ED3523;}
	.st11{fill:#C84C27;}
	.st12{fill:#C92A27;}
</style>
<g>
	<g>
		<path class="st0" d="M38.31,117.39c0.76,0.03,1.1,0.03,1.57,0.03c5.78,0,8.88-3.6,8.88-10.5c0-5.84-2.53-8.95-7.21-8.95
			c-0.78,0-1.6,0.1-3.24,0.3V117.39z M125.77,94.88c-4.83,0.78-7.29,4.34-7.29,10.62c0,6.31,3.29,10.52,8.32,10.52
			c2.35,0,4.48-0.78,8.95-2.96v5.09c-5.37,2.47-8.53,3.24-12.87,3.24c-4.69,0-7.98-1.24-10.67-3.99c-2.77-2.76-4.15-6.4-4.15-10.47
			c0-9.03,6.69-15.14,16.45-15.14c6.48,0,10.95,2.97,10.95,7.31c0,2.81-2.08,4.74-5.16,4.74c-1.58,0-2.88-0.43-4.54-1.38V94.88z
			 M101.96,106.93c4.32-5.45,5.85-7.64,5.85-10.33c0-2.67-2.11-4.81-4.94-4.81c-1.74,0-3.31,0.82-4.08,1.68v11.11l-7.09,9.43V92.49
			h-6.74l-11.2,18.56V92.49h-3.88l-10.17,2.48v2.59l5.55,0.55v22.79h7.17l10.74-17.65v17.65h7.85L101.96,106.93z M38.31,129.84
			l4.65,1.03l-0.01,2.63H24.73v-2.63l4.15-1.03V97.98h-4.61v-2.74l11.15-3.38h2.9v3.81c5.23-3.11,7.02-3.66,9.7-3.66
			c6.19,0,10.76,5.71,10.76,13.61c0,9.14-6.09,15.29-15.7,15.29c-1.09,0-2.89-0.06-4.75-0.29v9.27V129.84z"/>
		<rect x="167.08" y="54.64" class="st1" width="7.08" height="13.96"/>
		<rect x="147.48" y="25.19" class="st2" width="5.48" height="8.5"/>
		<rect x="119.64" y="19.73" class="st3" width="27.84" height="5.45"/>
		<polygon class="st4" points="119.64,54.64 119.64,25.19 147.48,25.19 147.48,33.69 119.64,33.69 		"/>
		<rect x="152.96" y="33.69" class="st5" width="14.12" height="20.95"/>
		<rect x="152.96" y="54.64" class="st6" width="14.12" height="13.96"/>
		<rect x="147.48" y="33.69" class="st7" width="5.48" height="20.95"/>
		<rect x="147.48" y="54.64" class="st8" width="5.48" height="13.96"/>
		<polygon class="st9" points="147.48,54.64 137.06,54.64 137.06,47.65 119.64,47.65 119.64,54.64 119.64,33.69 147.48,33.69 		"/>
		<rect x="137.06" y="54.64" class="st10" width="10.43" height="13.96"/>
		<rect x="119.64" y="47.65" class="st11" width="17.42" height="6.99"/>
		<rect x="119.64" y="54.64" class="st12" width="17.42" height="13.96"/>
		<rect x="91.72" y="68.6" class="st12" width="27.92" height="6.97"/>
	</g>
</g>
</svg>
