<?xml version="1.0" encoding="utf-8"?>
<!-- Generator: Adobe Illustrator 28.0.0, SVG Export Plug-In . SVG Version: 6.00 Build 0)  -->
<svg version="1.1" id="Layer_1" xmlns="http://www.w3.org/2000/svg" xmlns:xlink="http://www.w3.org/1999/xlink" x="0px" y="0px"
	 viewBox="0 0 198.43 198.43" style="enable-background:new 0 0 198.43 198.43;" xml:space="preserve">
<style type="text/css">
	.st0{fill-rule:evenodd;clip-rule:evenodd;fill:#4D4D4D;}
	.st1{fill:none;stroke:#010101;stroke-width:0.179;stroke-miterlimit:22.926;}
	.st2{fill-rule:evenodd;clip-rule:evenodd;fill:#676767;}
	.st3{fill-rule:evenodd;clip-rule:evenodd;fill:#E5E5E5;}
</style>
<g>
	<path class="st0" d="M107.36,117.76l22.3-38.01l-21.68-38.16L91.09,41.6L68.76,79.42l21.85,38.29L107.36,117.76z M99.37,62.46
		l9.97,17.19l-10.23,17.3l-9.93-17.39L99.37,62.46z"/>
	<path class="st1" d="M107.36,117.76l22.3-38.01l-21.68-38.16L91.09,41.6L68.76,79.42l21.85,38.29L107.36,117.76z M99.37,62.46
		l9.97,17.19l-10.23,17.3l-9.93-17.39L99.37,62.46z"/>
	<g>
		<path class="st2" d="M49.83,132.88l0,1.8h0.91c0.81,0,1.48,0.3,1.48,1.2v17.9c0,0.68-0.79,0.95-1.34,0.95h-1.05v1.8h19.69v-7.16
			h-3.81l0.01,2.86c0,0.93-0.39,2.5-1.44,2.5h-3.99c-0.47,0-0.99-0.65-0.99-1.1v-7.75c0-0.49,0.45-0.7,0.88-0.7
			c0.27-0.01,0.55-0.01,0.83,0.01c0.61,0.03,1.11,0.67,1.11,1.23v1.24h3.42v-7.16h-3.41v1.24c-0.05,0.59-0.49,1.24-1.13,1.24h-0.97
			c-0.64,0-0.73-0.65-0.73-1.14v-6.33c0-0.65,0.73-0.84,1.24-0.84h3.73c0.62,0.03,0.89,0.64,0.9,1.17l0.01,3.05l3.52-0.01v-6.01
			H49.83z"/>
		<path class="st2" d="M71.09,132.88v1.8h1.4c0.7,0.04,1,0.67,1,1.25v17.8c0,0.65-0.75,1-1.29,1h-1.11v1.8h7.79v-1.8h-1.4
			c-0.46,0-0.94-0.62-0.94-1.07l-0.05-11.76l7.83,14.58h6.88l-0.04-20.83c0-0.13,0.05-0.26,0.13-0.39c0.08-0.12,0.18-0.25,0.3-0.34
			c0.12-0.1,0.25-0.17,0.36-0.19c0.16-0.04,0.32-0.05,0.49-0.05l1.05,0.02v-1.82h-7.7l-0.01,1.79l0.57,0.01l0.81,0.01
			c0.14,0.01,0.27,0.06,0.41,0.14c0.12,0.06,0.23,0.14,0.32,0.25c0.1,0.11,0.17,0.22,0.21,0.34c0.05,0.14,0.07,0.29,0.07,0.44v11.9
			l-8.35-14.87H71.09z"/>
		<path class="st2" d="M129.73,132.8l-0.01,1.8l0.57,0.01l0.81,0.01c0.12,0.01,0.24,0.05,0.36,0.11c0.13,0.08,0.23,0.18,0.34,0.3
			c0.12,0.14,0.2,0.27,0.24,0.42c0.04,0.14,0.03,0.29,0.03,0.43l-0.08,15.91c-0.03,1.18-1.79,2.2-2.77,2.4
			c-0.62,0.12-1.25,0.14-1.88,0.03c-0.96-0.17-2.72-1.19-2.73-2.34l-0.17-16.2c0-0.58,0.62-1,1.15-1h1.23l0-1.8H115.1l0.01,1.8
			l1.34,0.01c0.6,0,1,0.68,1,1.21l0.03,15.11c0.52,3.45,2.65,4.89,5.86,5.54c1.44,0.29,2.88,0.35,4.31,0.22
			c1.7-0.16,3.56-0.76,4.92-1.84c1.59-1.27,1.93-2.76,1.94-4.65l0-14.72c0-0.14,0.07-0.27,0.17-0.41c0.08-0.12,0.18-0.23,0.29-0.32
			c0.12-0.1,0.23-0.16,0.36-0.19c0.16-0.03,0.32-0.03,0.49-0.03l1.07,0.02v-1.83H129.73z"/>
		<path class="st2" d="M138.55,132.88v1.8h0.56l0.83,0.01c0.13,0,0.26,0.05,0.39,0.13c0.12,0.07,0.23,0.17,0.33,0.29
			c0.1,0.11,0.16,0.23,0.19,0.36c0.04,0.16,0.05,0.32,0.05,0.49l0.03,17.84c0,0.12-0.04,0.25-0.1,0.36c-0.06,0.1-0.15,0.21-0.25,0.3
			c-0.12,0.1-0.25,0.19-0.39,0.23c-0.14,0.05-0.29,0.06-0.44,0.06h-0.91l0,1.8h18.28v-7.21h-3.8c0.01,1.31,0.07,2.75-0.14,4.05
			c-0.04,0.22-0.15,0.44-0.28,0.66c-0.07,0.12-0.16,0.24-0.26,0.34c-0.11,0.12-0.24,0.2-0.38,0.26c-0.15,0.07-0.31,0.1-0.46,0.1
			h-2.87c-0.12,0-0.25-0.04-0.37-0.11c-0.12-0.07-0.25-0.18-0.35-0.3c-0.1-0.12-0.18-0.25-0.21-0.36c-0.04-0.14-0.04-0.28-0.04-0.42
			l-0.04-17.84c0-0.14,0.06-0.27,0.14-0.42c0.07-0.12,0.17-0.24,0.28-0.34c0.12-0.11,0.24-0.18,0.38-0.22
			c0.16-0.04,0.31-0.05,0.46-0.05h1.12l-0.01-1.8H138.55z"/>
		<path class="st2" d="M158.05,139.78c0-1.28-0.04-2.57,0.22-3.83c0.03-0.14,0.1-0.27,0.17-0.41c0.07-0.12,0.16-0.25,0.28-0.36
			c0.14-0.12,0.28-0.22,0.42-0.29c0.24-0.11,0.49-0.14,0.73-0.17c0.16-0.02,0.31-0.05,0.47-0.05h0.58l-0.01,19.13
			c0,0.12-0.03,0.23-0.1,0.34c-0.06,0.1-0.14,0.2-0.24,0.28c-0.14,0.11-0.29,0.22-0.44,0.27c-0.13,0.04-0.28,0.05-0.42,0.05h-1.2
			v1.8h11.79l0.01-1.8h-0.54c-0.29,0-0.57,0.01-0.86-0.03c-0.14-0.02-0.27-0.07-0.41-0.16c-0.13-0.08-0.25-0.18-0.35-0.31
			c-0.1-0.12-0.18-0.24-0.2-0.36c-0.03-0.16-0.03-0.31-0.03-0.46v-18.74h1.24c0.32,0,1,0.56,1.16,0.84
			c0.29,0.51,0.43,1.15,0.43,1.71l-0.01,2.55h3.42v-6.9h-19.54v6.9H158.05z"/>
		<path class="st2" d="M41.69,144.87c0.58,0,1.27-0.14,1.89-0.42c1.94-0.86,2.66-3.24,2.66-5.19c0-1.05-0.18-2.08-0.57-3.14
			c-0.98-2.81-3.3-3.25-6.12-3.25H24.26v1.8h1.08c0.83,0,1.31,0.64,1.31,1.42c0,5.92,0,11.84,0.01,17.76c0,0.61-0.72,0.88-1.23,0.88
			h-1.17v1.8H36.1v-1.8h-1.15c-0.74,0-1.29-0.4-1.29-1.17v-8.5l0.6,0c0.44,0.02,0.91,0.45,1.08,0.83l4.71,10.65h8.22v-1.8h-0.29
			c-0.4-0.03-0.7-0.07-0.91-0.44L41.69,144.87z M33.67,134.68h1.97c0.86,0,1.51,0.05,2.09,0.74c0.49,0.6,0.77,1.28,0.92,2.05
			c0.17,0.86,0.18,1.72,0.07,2.58c-0.1,0.82-0.4,1.82-0.95,2.46c-0.58,0.66-1.21,0.72-2.05,0.72l-2.04,0V134.68z"/>
		<path class="st2" d="M102.57,137.4c0.8,2.81,1.6,5.62,2.4,8.42h-4.75C101,143.01,101.79,140.21,102.57,137.4 M116.86,156.54
			l0.01-1.8l-0.99-0.01c-0.57,0.01-1.05-0.16-1.21-0.7l-6.21-21.15h-10.4l-0.01,1.8h1.53c0.65,0,1.22,0.4,0.97,1.2L95,154.14
			c-0.12,0.4-0.48,0.6-0.87,0.6h-1.27v1.8h7.2v-1.8h-1.38c-0.43,0-0.79-0.42-0.68-0.84l1.53-5.83h6.06l1.59,5.86
			c0.11,0.42-0.24,0.82-0.66,0.82h-1.43l0,1.8H116.86z"/>
		<path class="st3" d="M105.6,45.97c-0.04,0.07-19.67,33.48-19.67,33.48h1.96l-0.06,0.1L99.1,99.28l11.6-19.62l-0.01-0.02l1.85,0.02
			L100.76,58.8l5.47-12.43C106.85,44.97,106.27,44.81,105.6,45.97 M128.23,79.87h-15.4l-20.1,34.02c-0.53,0.83-1.19,0.55-0.78-0.34
			l5.76-12.93L85.63,79.54H70.18l-0.06-0.11l21.64-36.66l15.54-0.01l21.01,36.98L128.23,79.87z"/>
	</g>
</g>
</svg>
