<?xml version="1.0" encoding="utf-8"?>
<!-- Generator: Adobe Illustrator 28.0.0, SVG Export Plug-In . SVG Version: 6.00 Build 0)  -->
<svg version="1.1" id="Layer_1" xmlns="http://www.w3.org/2000/svg" xmlns:xlink="http://www.w3.org/1999/xlink" x="0px" y="0px"
	 viewBox="0 0 198.43 198.43" style="enable-background:new 0 0 198.43 198.43;" xml:space="preserve">
<style type="text/css">
	.st0{fill:none;stroke:#1B1918;stroke-width:0.043;}
	.st1{fill:#58536C;}
	.st2{fill:#F8A941;}
	.st3{fill:#5974A0;}
	
		.st4{clip-path:url(#SVGID_00000101095688242135983130000001662355022963095969_);fill-rule:evenodd;clip-rule:evenodd;fill:#FFFFFF;}
	
		.st5{clip-path:url(#SVGID_00000101095688242135983130000001662355022963095969_);fill-rule:evenodd;clip-rule:evenodd;fill:#5974A0;}
	
		.st6{clip-path:url(#SVGID_00000101095688242135983130000001662355022963095969_);fill-rule:evenodd;clip-rule:evenodd;fill:#7BB61A;}
</style>
<g>
	<rect x="14.17" y="73.61" class="st0" width="170.03" height="51.18"/>
</g>
<rect x="14.18" y="73.64" class="st1" width="42.11" height="42.25"/>
<rect x="56.29" y="102.59" class="st2" width="127.96" height="13.3"/>
<rect x="56.29" y="73.64" class="st3" width="127.96" height="28.95"/>
<g>
	<defs>
		<rect id="SVGID_1_" x="14.17" y="73.64" width="170.08" height="51.15"/>
	</defs>
	<clipPath id="SVGID_00000084510553284952953340000010481547340863258784_">
		<use xlink:href="#SVGID_1_"  style="overflow:visible;"/>
	</clipPath>
	
		<path style="clip-path:url(#SVGID_00000084510553284952953340000010481547340863258784_);fill-rule:evenodd;clip-rule:evenodd;fill:#FFFFFF;" d="
		M66.35,94.47h-0.29c-0.58,0-1.01-0.13-1.27-0.38c-0.27-0.25-0.4-0.66-0.4-1.22v-3.65c0.09,0,0.21,0,0.38,0.01
		c0.16,0.01,0.28,0.01,0.37,0.01c0.25,0,0.57-0.01,0.95-0.02c0.38-0.01,0.63-0.02,0.76-0.02c0.16,0,0.29,0.01,0.4,0.05
		c0.1,0.03,0.18,0.08,0.23,0.14c0.14,0.18,0.5,0.75,1.06,1.72c0.57,0.97,1.12,1.79,1.68,2.46c0.47,0.55,1.01,0.97,1.6,1.26
		c0.59,0.28,1.24,0.43,1.93,0.43h0.29l0.04-0.44c-0.46-0.06-0.97-0.39-1.54-1c-0.57-0.61-1.29-1.62-2.19-3.04l-1.33-2.12
		c0.96-0.32,1.69-0.78,2.18-1.38c0.49-0.6,0.74-1.31,0.74-2.15c0-1.36-0.55-2.37-1.65-3.03c-1.1-0.66-2.79-0.99-5.07-0.99h-4.73
		v0.48h0.22c0.61,0,1.05,0.13,1.33,0.39c0.28,0.26,0.42,0.67,0.42,1.24v9.68c0,0.57-0.14,0.98-0.41,1.23
		c-0.27,0.25-0.72,0.38-1.34,0.38h-0.22v0.48h5.88V94.47z M64.6,81.71c0.07,0,0.18,0,0.32,0c0.13,0,0.29,0,0.48,0.01
		c0.19,0.01,0.32,0.01,0.39,0.01c1.24,0,2.19,0.31,2.86,0.93c0.67,0.62,1.01,1.51,1.01,2.67c0,1.08-0.32,1.92-0.97,2.53
		c-0.65,0.61-1.55,0.92-2.71,0.92h-1.59v-7.05C64.45,81.72,64.52,81.72,64.6,81.71"/>
	
		<path style="clip-path:url(#SVGID_00000084510553284952953340000010481547340863258784_);fill-rule:evenodd;clip-rule:evenodd;fill:#FFFFFF;" d="
		M81.43,87.23c-0.9-0.89-2.01-1.34-3.35-1.34c-1.35,0-2.49,0.44-3.4,1.31c-0.91,0.88-1.37,1.97-1.37,3.28
		c0,1.35,0.45,2.48,1.34,3.37c0.89,0.9,2.01,1.34,3.35,1.34c1.36,0,2.49-0.44,3.4-1.32c0.91-0.88,1.36-1.98,1.36-3.3
		C82.78,89.24,82.33,88.12,81.43,87.23 M80.3,93.71c-0.49,0.62-1.16,0.92-2.01,0.92c-0.96,0-1.75-0.44-2.37-1.33
		C75.31,92.41,75,91.25,75,89.81c0-1.04,0.25-1.87,0.75-2.5c0.5-0.62,1.15-0.93,1.96-0.93c0.98,0,1.78,0.44,2.4,1.32
		c0.62,0.88,0.92,2.04,0.92,3.47C81.03,92.25,80.79,93.09,80.3,93.71"/>
	
		<path style="clip-path:url(#SVGID_00000084510553284952953340000010481547340863258784_);fill-rule:evenodd;clip-rule:evenodd;fill:#FFFFFF;" d="
		M86.17,96.77l0.65-1.64l-3.16-6.81c-0.29-0.63-0.57-1.06-0.84-1.3c-0.27-0.24-0.61-0.37-1.01-0.39l-0.03-0.44h4.39v0.44
		c-0.45,0.02-0.76,0.08-0.93,0.18c-0.17,0.1-0.25,0.27-0.25,0.52c0,0.07,0.01,0.15,0.04,0.25c0.03,0.1,0.07,0.21,0.12,0.31
		l2.48,5.29l1.79-4.64c0.12-0.31,0.2-0.55,0.25-0.71c0.04-0.16,0.07-0.3,0.07-0.43c0-0.27-0.1-0.47-0.29-0.59
		c-0.2-0.12-0.53-0.19-0.99-0.2V86.2h3.59l-0.02,0.44c-0.42,0.09-0.75,0.24-0.99,0.45c-0.24,0.21-0.47,0.6-0.7,1.17L86.46,98
		c-0.33,0.85-0.63,1.41-0.91,1.7c-0.27,0.29-0.61,0.44-1,0.44c-0.27,0-0.49-0.07-0.65-0.21c-0.16-0.14-0.24-0.32-0.24-0.54
		c0-0.3,0.28-0.56,0.85-0.77c0.11-0.04,0.21-0.07,0.27-0.1c0.3-0.11,0.55-0.29,0.75-0.54C85.74,97.73,85.95,97.33,86.17,96.77"/>
	
		<path style="clip-path:url(#SVGID_00000084510553284952953340000010481547340863258784_);fill-rule:evenodd;clip-rule:evenodd;fill:#FFFFFF;" d="
		M96.06,94.87c0.2,0.23,0.47,0.34,0.8,0.34c0.26,0,0.56-0.1,0.9-0.3c0.33-0.2,0.74-0.52,1.2-0.96l-0.11-0.31
		c-0.22,0.14-0.41,0.23-0.57,0.3c-0.17,0.06-0.32,0.1-0.46,0.1c-0.21,0-0.36-0.07-0.44-0.21c-0.08-0.14-0.12-0.46-0.12-0.96v-3.95
		c0-0.74-0.06-1.27-0.19-1.57c-0.13-0.3-0.34-0.58-0.64-0.83c-0.23-0.19-0.49-0.33-0.79-0.44c-0.3-0.1-0.61-0.15-0.93-0.15
		c-0.84,0-1.6,0.28-2.29,0.85c-0.69,0.57-1.04,1.19-1.04,1.87v0.09l1.53-0.63c-0.01-0.04-0.01-0.08-0.01-0.12v-0.19
		c0-0.37,0.11-0.65,0.32-0.85c0.22-0.2,0.52-0.3,0.91-0.3c0.57,0,0.97,0.16,1.21,0.49c0.24,0.33,0.36,0.9,0.36,1.73v1.58
		c-0.62,0.28-1.32,0.55-2.09,0.82c-0.77,0.27-1.21,0.43-1.3,0.47c-0.35,0.14-0.63,0.36-0.82,0.65c-0.2,0.29-0.29,0.63-0.29,1
		c0,0.57,0.17,1.01,0.52,1.33c0.35,0.32,0.83,0.48,1.45,0.48c0.45,0,0.89-0.11,1.3-0.32c0.42-0.21,0.83-0.54,1.23-0.97
		C95.73,94.32,95.86,94.64,96.06,94.87 M94.67,94.14c-0.31,0.15-0.6,0.23-0.87,0.23c-0.33,0-0.61-0.11-0.83-0.35
		c-0.22-0.23-0.33-0.52-0.33-0.86c0-0.25,0.06-0.47,0.17-0.67c0.11-0.2,0.27-0.35,0.46-0.45c0.07-0.03,0.21-0.09,0.43-0.18
		c0.74-0.3,1.41-0.62,2-0.93v2.54C95.33,93.76,94.99,93.99,94.67,94.14"/>
	
		<path style="clip-path:url(#SVGID_00000084510553284952953340000010481547340863258784_);fill-rule:evenodd;clip-rule:evenodd;fill:#FFFFFF;" d="
		M99.77,93.2V82.63c0-0.34-0.08-0.58-0.24-0.73c-0.16-0.15-0.52-0.29-1.07-0.44v-0.4l2.76-0.97h0.17V93.2
		c0,0.51,0.09,0.86,0.27,1.03c0.18,0.18,0.52,0.27,1.01,0.27l0.03,0.44h-4.24v-0.44c0.51-0.01,0.85-0.11,1.04-0.28
		C99.68,94.05,99.77,93.71,99.77,93.2"/>
	
		<path style="clip-path:url(#SVGID_00000084510553284952953340000010481547340863258784_);fill-rule:evenodd;clip-rule:evenodd;fill:#FFFFFF;" d="
		M117.04,84.87l-0.58,0.02c-0.54-1.18-1.24-2.07-2.1-2.67c-0.86-0.6-1.85-0.9-2.98-0.9c-0.76,0-1.52,0.15-2.26,0.44
		c-0.74,0.29-1.37,0.69-1.89,1.19c-0.55,0.55-0.97,1.22-1.27,1.99c-0.3,0.77-0.45,1.59-0.45,2.46c0,2.13,0.58,3.87,1.74,5.22
		c1.16,1.35,2.65,2.02,4.47,2.02c1.12,0,2.14-0.27,3.04-0.81c0.9-0.54,1.68-1.34,2.34-2.4l0.5,0.06l-1.4,3.2h-0.26
		c-0.45,0-1.16,0.1-2.13,0.29c-0.97,0.2-1.73,0.29-2.27,0.29c-1.16,0-2.2-0.15-3.14-0.45c-0.93-0.3-1.76-0.74-2.48-1.34
		c-0.8-0.65-1.41-1.42-1.83-2.32c-0.42-0.9-0.63-1.86-0.63-2.9c0-0.78,0.13-1.55,0.39-2.31c0.26-0.75,0.64-1.46,1.14-2.13
		c0.72-0.96,1.63-1.71,2.72-2.25c1.09-0.54,2.25-0.81,3.49-0.81c0.51,0,1.09,0.05,1.72,0.16c0.63,0.1,1.5,0.3,2.6,0.57
		c0.05,0.01,0.13,0.03,0.23,0.05c0.28,0.06,0.5,0.09,0.64,0.09c0.07,0,0.15-0.01,0.22-0.02c0.07-0.01,0.15-0.03,0.22-0.05
		L117.04,84.87z"/>
	
		<path style="clip-path:url(#SVGID_00000084510553284952953340000010481547340863258784_);fill-rule:evenodd;clip-rule:evenodd;fill:#FFFFFF;" d="
		M122.51,94.87c0.2,0.23,0.47,0.34,0.8,0.34c0.26,0,0.56-0.1,0.9-0.3c0.33-0.2,0.74-0.52,1.2-0.96l-0.11-0.31
		c-0.22,0.14-0.41,0.23-0.57,0.3c-0.17,0.06-0.32,0.1-0.46,0.1c-0.21,0-0.36-0.07-0.44-0.21c-0.08-0.14-0.12-0.46-0.12-0.96v-3.95
		c0-0.74-0.06-1.27-0.19-1.57c-0.13-0.3-0.34-0.58-0.64-0.83c-0.23-0.19-0.49-0.33-0.79-0.44c-0.3-0.1-0.61-0.15-0.93-0.15
		c-0.84,0-1.6,0.28-2.29,0.85c-0.69,0.57-1.04,1.19-1.04,1.87v0.09l1.53-0.63c-0.01-0.04-0.01-0.08-0.01-0.12v-0.19
		c0-0.37,0.11-0.65,0.32-0.85c0.22-0.2,0.52-0.3,0.91-0.3c0.57,0,0.97,0.16,1.21,0.49c0.24,0.33,0.36,0.9,0.36,1.73v1.58
		c-0.62,0.28-1.32,0.55-2.09,0.82c-0.77,0.27-1.21,0.43-1.3,0.47c-0.35,0.14-0.63,0.36-0.82,0.65c-0.2,0.29-0.29,0.63-0.29,1
		c0,0.57,0.17,1.01,0.52,1.33c0.35,0.32,0.83,0.48,1.45,0.48c0.45,0,0.89-0.11,1.3-0.32c0.42-0.21,0.83-0.54,1.23-0.97
		C122.18,94.32,122.3,94.64,122.51,94.87 M121.12,94.14c-0.31,0.15-0.6,0.23-0.87,0.23c-0.33,0-0.61-0.11-0.83-0.35
		c-0.22-0.23-0.33-0.52-0.33-0.86c0-0.25,0.06-0.47,0.17-0.67c0.11-0.2,0.27-0.35,0.46-0.45c0.07-0.03,0.21-0.09,0.43-0.18
		c0.74-0.3,1.41-0.62,2-0.93v2.54C121.77,93.76,121.43,93.99,121.12,94.14"/>
	
		<path style="clip-path:url(#SVGID_00000084510553284952953340000010481547340863258784_);fill-rule:evenodd;clip-rule:evenodd;fill:#FFFFFF;" d="
		M126.12,93.2v-5.09c0-0.33-0.08-0.57-0.24-0.72c-0.16-0.15-0.52-0.29-1.07-0.44v-0.4l2.78-0.87h0.14v2.18l0.87-1.09
		c0.05-0.05,0.11-0.14,0.19-0.24c0.3-0.39,0.58-0.59,0.83-0.59c0.18,0,0.5,0.08,0.95,0.24c0.45,0.16,0.83,0.25,1.14,0.26l-0.56,1.34
		h-0.04c-0.23,0-0.56-0.09-0.97-0.28c-0.42-0.19-0.73-0.28-0.93-0.28c-0.15,0-0.28,0.04-0.41,0.12c-0.12,0.08-0.3,0.26-0.55,0.55
		l-0.53,0.62v4.68c0,0.51,0.09,0.85,0.28,1.03c0.19,0.18,0.53,0.27,1.03,0.28v0.44h-4.23v-0.44c0.5-0.01,0.84-0.11,1.03-0.28
		C126.03,94.05,126.12,93.71,126.12,93.2"/>
	
		<path style="clip-path:url(#SVGID_00000084510553284952953340000010481547340863258784_);fill-rule:evenodd;clip-rule:evenodd;fill:#FFFFFF;" d="
		M132.52,93.2v-5.09c0-0.33-0.08-0.57-0.24-0.72c-0.16-0.15-0.52-0.29-1.07-0.44v-0.4l2.76-0.87h0.17v7.52
		c0,0.51,0.09,0.86,0.27,1.03c0.18,0.17,0.52,0.27,1.03,0.28l0.01,0.44h-4.24v-0.44c0.51-0.01,0.85-0.11,1.04-0.28
		C132.43,94.05,132.52,93.71,132.52,93.2 M133.23,80.91c0.3,0,0.55,0.08,0.75,0.24c0.2,0.16,0.3,0.35,0.3,0.58
		c0,0.23-0.1,0.42-0.3,0.58c-0.2,0.16-0.45,0.23-0.75,0.23c-0.29,0-0.54-0.08-0.75-0.24c-0.21-0.16-0.31-0.35-0.31-0.57
		c0-0.23,0.1-0.42,0.3-0.58C132.68,80.99,132.93,80.91,133.23,80.91"/>
	
		<path style="clip-path:url(#SVGID_00000084510553284952953340000010481547340863258784_);fill-rule:evenodd;clip-rule:evenodd;fill:#FFFFFF;" d="
		M137.83,95.04c0.49,0.07,0.95,0.11,1.4,0.11c1.02,0,1.83-0.11,2.45-0.31c0.62-0.21,1.17-0.56,1.66-1.06
		c0.47-0.47,0.83-1.02,1.07-1.63c0.24-0.61,0.36-1.28,0.36-2c0-1.2-0.34-2.19-1.02-2.99c-0.68-0.79-1.52-1.19-2.52-1.19
		c-0.49,0-1,0.12-1.55,0.35c-0.55,0.23-1.13,0.59-1.76,1.07V80.1h-0.14L135,81.07l0.02,0.4c0.54,0.14,0.89,0.29,1.05,0.43
		c0.16,0.15,0.24,0.39,0.24,0.74v12.08C136.84,94.86,137.35,94.97,137.83,95.04 M139.22,87.29c0.42-0.16,0.82-0.24,1.22-0.24
		c0.83,0,1.52,0.34,2.05,1.02c0.53,0.68,0.8,1.57,0.8,2.65c0,1.15-0.29,2.08-0.86,2.78c-0.57,0.71-1.31,1.06-2.22,1.06
		c-0.76,0-1.33-0.23-1.72-0.69c-0.39-0.46-0.58-1.14-0.58-2.03v-3.84C138.37,87.69,138.8,87.45,139.22,87.29"/>
	
		<path style="clip-path:url(#SVGID_00000084510553284952953340000010481547340863258784_);fill-rule:evenodd;clip-rule:evenodd;fill:#FFFFFF;" d="
		M147.32,95.04c0.49,0.07,0.95,0.11,1.4,0.11c1.02,0,1.83-0.11,2.45-0.31c0.62-0.21,1.17-0.56,1.66-1.06
		c0.47-0.47,0.83-1.02,1.07-1.63c0.24-0.61,0.36-1.28,0.36-2c0-1.2-0.34-2.19-1.02-2.99c-0.68-0.79-1.52-1.19-2.52-1.19
		c-0.49,0-1,0.12-1.55,0.35c-0.54,0.23-1.13,0.59-1.76,1.07V80.1h-0.14l-2.78,0.97l0.02,0.4c0.54,0.14,0.89,0.29,1.05,0.43
		c0.16,0.15,0.24,0.39,0.24,0.74v12.08C146.32,94.86,146.83,94.97,147.32,95.04 M148.7,87.29c0.42-0.16,0.82-0.24,1.22-0.24
		c0.83,0,1.52,0.34,2.05,1.02c0.53,0.68,0.8,1.57,0.8,2.65c0,1.15-0.29,2.08-0.86,2.78c-0.57,0.71-1.31,1.06-2.22,1.06
		c-0.76,0-1.33-0.23-1.72-0.69c-0.39-0.46-0.58-1.14-0.58-2.03v-3.84C147.85,87.69,148.29,87.45,148.7,87.29"/>
	
		<path style="clip-path:url(#SVGID_00000084510553284952953340000010481547340863258784_);fill-rule:evenodd;clip-rule:evenodd;fill:#FFFFFF;" d="
		M161.33,93.76c-0.45,0.22-0.9,0.33-1.36,0.33c-0.96,0-1.74-0.37-2.34-1.11c-0.6-0.74-0.9-1.71-0.9-2.92c0-0.15,0.01-0.3,0.02-0.44
		c0.01-0.15,0.03-0.3,0.05-0.45h6.33v-0.4c-0.01-0.01-0.02-0.03-0.03-0.05c-1.05-1.88-2.25-2.82-3.59-2.82
		c-1.23,0-2.23,0.44-3.03,1.33c-0.79,0.89-1.19,2.03-1.19,3.42c0,1.33,0.37,2.42,1.1,3.28c0.73,0.86,1.66,1.29,2.77,1.29
		c0.68,0,1.32-0.18,1.93-0.55c0.61-0.37,1.22-0.94,1.82-1.72l-0.2-0.24C162.24,93.19,161.78,93.53,161.33,93.76 M157.67,87.04
		c0.38-0.4,0.85-0.6,1.41-0.6c0.57,0,1.05,0.21,1.43,0.62c0.39,0.41,0.62,0.97,0.71,1.67h-4.33
		C157.03,88.01,157.29,87.44,157.67,87.04"/>
	
		<path style="clip-path:url(#SVGID_00000084510553284952953340000010481547340863258784_);fill-rule:evenodd;clip-rule:evenodd;fill:#FFFFFF;" d="
		M168.05,94.87c0.2,0.23,0.47,0.34,0.8,0.34c0.26,0,0.56-0.1,0.9-0.3c0.34-0.2,0.74-0.52,1.2-0.96l-0.11-0.31
		c-0.22,0.14-0.41,0.23-0.57,0.3c-0.17,0.06-0.32,0.1-0.46,0.1c-0.21,0-0.36-0.07-0.44-0.21c-0.08-0.14-0.12-0.46-0.12-0.96v-3.95
		c0-0.74-0.06-1.27-0.19-1.57c-0.13-0.3-0.34-0.58-0.64-0.83c-0.23-0.19-0.49-0.33-0.79-0.44c-0.3-0.1-0.61-0.15-0.93-0.15
		c-0.84,0-1.6,0.28-2.29,0.85s-1.04,1.19-1.04,1.87v0.09l1.53-0.63c-0.01-0.04-0.01-0.08-0.01-0.12v-0.19
		c0-0.37,0.11-0.65,0.32-0.85c0.22-0.2,0.52-0.3,0.91-0.3c0.57,0,0.97,0.16,1.21,0.49c0.24,0.33,0.36,0.9,0.36,1.73v1.58
		c-0.62,0.28-1.32,0.55-2.09,0.82c-0.77,0.27-1.2,0.43-1.3,0.47c-0.35,0.14-0.63,0.36-0.82,0.65c-0.2,0.29-0.29,0.63-0.29,1
		c0,0.57,0.17,1.01,0.52,1.33c0.35,0.32,0.83,0.48,1.45,0.48c0.45,0,0.89-0.11,1.3-0.32c0.42-0.21,0.83-0.54,1.23-0.97
		C167.73,94.32,167.85,94.64,168.05,94.87 M166.67,94.14c-0.31,0.15-0.6,0.23-0.87,0.23c-0.33,0-0.61-0.11-0.83-0.35
		c-0.22-0.23-0.34-0.52-0.34-0.86c0-0.25,0.06-0.47,0.17-0.67c0.11-0.2,0.27-0.35,0.46-0.45c0.07-0.03,0.21-0.09,0.43-0.18
		c0.74-0.3,1.41-0.62,2-0.93v2.54C167.32,93.76,166.98,93.99,166.67,94.14"/>
	
		<path style="clip-path:url(#SVGID_00000084510553284952953340000010481547340863258784_);fill-rule:evenodd;clip-rule:evenodd;fill:#FFFFFF;" d="
		M177.74,91.88l0.04-1.49c0-0.09,0-0.22,0.01-0.39c0.01-0.17,0.01-0.29,0.01-0.38c0-1.12-0.12-1.89-0.37-2.31
		c-0.24-0.42-0.66-0.62-1.26-0.62c-0.32,0-0.71,0.1-1.16,0.29c-0.46,0.2-1.03,0.51-1.73,0.95v5.25c0,0.51,0.09,0.85,0.27,1.02
		c0.18,0.18,0.53,0.27,1.04,0.28v0.44h-4.23v-0.44c0.5-0.01,0.84-0.11,1.03-0.28c0.19-0.18,0.28-0.52,0.28-1.02v-5.09
		c0-0.33-0.08-0.57-0.24-0.72c-0.16-0.15-0.52-0.29-1.07-0.44v-0.4l2.78-0.87h0.14v1.7c0.89-0.55,1.63-0.95,2.24-1.2
		c0.61-0.24,1.14-0.36,1.61-0.36c0.84,0,1.43,0.26,1.79,0.77c0.35,0.51,0.53,1.41,0.53,2.68c0,0.28,0,0.49-0.01,0.63
		c0,0.15-0.01,0.29-0.03,0.43l-0.08,1.73c0,0.07,0,0.16-0.01,0.28c-0.02,0.43-0.03,0.72-0.03,0.88c0,0.51,0.11,0.85,0.33,1.01
		c0.22,0.16,0.64,0.25,1.26,0.25l0.01,0.44h-4.72v-0.44h0.1c0.53,0,0.89-0.17,1.1-0.5C177.58,93.68,177.7,92.97,177.74,91.88"/>
	
		<rect x="61" y="106.15" style="clip-path:url(#SVGID_00000084510553284952953340000010481547340863258784_);fill-rule:evenodd;clip-rule:evenodd;fill:#5974A0;" width="0.87" height="6.2"/>
	
		<path style="clip-path:url(#SVGID_00000084510553284952953340000010481547340863258784_);fill-rule:evenodd;clip-rule:evenodd;fill:#5974A0;" d="
		M67.98,112.35v-6.2h1.09l2.7,4.83c0.04,0.07,0.08,0.18,0.14,0.32c0.05,0.14,0.11,0.31,0.17,0.51c-0.04-0.23-0.07-0.43-0.09-0.61
		c-0.02-0.18-0.03-0.34-0.03-0.47v-4.58h0.8v6.2h-1.07l-2.75-4.87c-0.04-0.06-0.08-0.16-0.13-0.29c-0.05-0.14-0.11-0.32-0.17-0.54
		c0.04,0.33,0.08,0.59,0.09,0.77c0.02,0.18,0.03,0.31,0.03,0.39v4.55H67.98z"/>
	
		<polygon style="clip-path:url(#SVGID_00000084510553284952953340000010481547340863258784_);fill-rule:evenodd;clip-rule:evenodd;fill:#5974A0;" points="
		78.16,106.87 78.16,106.15 82.52,106.15 82.52,106.87 80.78,106.87 80.78,112.35 79.9,112.35 79.9,106.87 	"/>
	
		<polygon style="clip-path:url(#SVGID_00000084510553284952953340000010481547340863258784_);fill-rule:evenodd;clip-rule:evenodd;fill:#5974A0;" points="
		87.93,112.35 87.93,106.15 91.3,106.15 91.3,106.82 88.8,106.82 88.8,108.79 91.16,108.79 91.16,109.49 88.8,109.49 88.8,111.64 
		91.38,111.64 91.38,112.35 	"/>
	
		<path style="clip-path:url(#SVGID_00000084510553284952953340000010481547340863258784_);fill-rule:evenodd;clip-rule:evenodd;fill:#5974A0;" d="
		M98.15,112.35v-2.75h0.5c0.3,0,0.53,0.05,0.69,0.16c0.16,0.11,0.3,0.29,0.41,0.55l0.82,2.03h0.93l-0.94-2.23
		c-0.13-0.3-0.25-0.5-0.36-0.62c-0.12-0.12-0.27-0.2-0.45-0.25c0.44-0.09,0.77-0.27,1.01-0.53c0.23-0.26,0.35-0.59,0.35-0.98
		c0-0.53-0.18-0.92-0.54-1.19c-0.36-0.27-0.89-0.4-1.6-0.4h-1.67v6.2H98.15z M99.86,107.07c0.23,0.17,0.34,0.43,0.34,0.79
		c0,0.33-0.12,0.6-0.37,0.79c-0.25,0.19-0.59,0.29-1.02,0.29h-0.67v-2.11h0.64C99.28,106.82,99.63,106.9,99.86,107.07"/>
	
		<path style="clip-path:url(#SVGID_00000084510553284952953340000010481547340863258784_);fill-rule:evenodd;clip-rule:evenodd;fill:#5974A0;" d="
		M106.96,112.35v-6.2h1.09l2.7,4.83c0.04,0.07,0.08,0.18,0.14,0.32c0.05,0.14,0.11,0.31,0.17,0.51c-0.04-0.23-0.07-0.43-0.09-0.61
		c-0.02-0.18-0.03-0.34-0.03-0.47v-4.58h0.8v6.2h-1.07l-2.75-4.87c-0.03-0.06-0.08-0.16-0.13-0.29c-0.05-0.14-0.1-0.32-0.17-0.54
		c0.04,0.33,0.08,0.59,0.09,0.77c0.02,0.18,0.03,0.31,0.03,0.39v4.55H106.96z"/>
	
		<path style="clip-path:url(#SVGID_00000084510553284952953340000010481547340863258784_);fill-rule:evenodd;clip-rule:evenodd;fill:#5974A0;" d="
		M117.98,112.35l0.6-1.59h2.95l0.6,1.59h0.94l-2.43-6.2h-1.06l-2.48,6.2H117.98z M118.86,110.07l1.23-3.16l1.19,3.16H118.86z"/>
	
		<polygon style="clip-path:url(#SVGID_00000084510553284952953340000010481547340863258784_);fill-rule:evenodd;clip-rule:evenodd;fill:#5974A0;" points="
		127.3,106.87 127.3,106.15 131.65,106.15 131.65,106.87 129.91,106.87 129.91,112.35 129.04,112.35 129.04,106.87 	"/>
	
		<rect x="137.07" y="106.15" style="clip-path:url(#SVGID_00000084510553284952953340000010481547340863258784_);fill-rule:evenodd;clip-rule:evenodd;fill:#5974A0;" width="0.87" height="6.2"/>
	
		<path style="clip-path:url(#SVGID_00000084510553284952953340000010481547340863258784_);fill-rule:evenodd;clip-rule:evenodd;fill:#5974A0;" d="
		M144.49,106.89c-0.51,0.57-0.76,1.36-0.76,2.36c0,1,0.25,1.79,0.76,2.36c0.51,0.57,1.19,0.86,2.06,0.86c0.87,0,1.56-0.29,2.06-0.86
		c0.5-0.57,0.76-1.36,0.76-2.36c0-1-0.25-1.78-0.76-2.36c-0.51-0.57-1.19-0.86-2.06-0.86C145.68,106.03,144.99,106.32,144.49,106.89
		 M147.94,107.41c0.35,0.46,0.53,1.07,0.53,1.83c0,0.77-0.18,1.38-0.53,1.83c-0.35,0.46-0.82,0.68-1.4,0.68
		c-0.58,0-1.04-0.23-1.39-0.68c-0.35-0.46-0.52-1.07-0.52-1.83c0-0.76,0.17-1.37,0.52-1.83c0.35-0.46,0.81-0.69,1.39-0.69
		C147.12,106.72,147.59,106.95,147.94,107.41"/>
	
		<path style="clip-path:url(#SVGID_00000084510553284952953340000010481547340863258784_);fill-rule:evenodd;clip-rule:evenodd;fill:#5974A0;" d="
		M155.16,112.35v-6.2h1.09l2.7,4.83c0.04,0.07,0.08,0.18,0.14,0.32c0.05,0.14,0.11,0.31,0.17,0.51c-0.04-0.23-0.07-0.43-0.09-0.61
		c-0.02-0.18-0.03-0.34-0.03-0.47v-4.58h0.8v6.2h-1.07l-2.75-4.87c-0.04-0.06-0.08-0.16-0.13-0.29c-0.05-0.14-0.11-0.32-0.17-0.54
		c0.04,0.33,0.07,0.59,0.09,0.77c0.02,0.18,0.03,0.31,0.03,0.39v4.55H155.16z"/>
	
		<path style="clip-path:url(#SVGID_00000084510553284952953340000010481547340863258784_);fill-rule:evenodd;clip-rule:evenodd;fill:#5974A0;" d="
		M166.19,112.35l0.6-1.59h2.95l0.6,1.59h0.94l-2.43-6.2h-1.06l-2.48,6.2H166.19z M167.06,110.07l1.23-3.16l1.19,3.16H167.06z"/>
	
		<polygon style="clip-path:url(#SVGID_00000084510553284952953340000010481547340863258784_);fill-rule:evenodd;clip-rule:evenodd;fill:#5974A0;" points="
		176.51,112.35 176.51,106.15 177.38,106.15 177.38,111.63 179.86,111.63 179.86,112.35 	"/>
	
		<polygon style="clip-path:url(#SVGID_00000084510553284952953340000010481547340863258784_);fill-rule:evenodd;clip-rule:evenodd;fill:#FFFFFF;" points="
		35.15,79.21 30.51,83.8 32.18,86.14 27.68,88.11 24.67,86.05 26.37,83.89 21.11,80.07 21.97,89.19 48.37,89.19 49.23,80.07 
		43.96,83.89 45.67,86.05 42.66,88.11 38.16,86.14 39.82,83.8 	"/>
	
		<path style="clip-path:url(#SVGID_00000084510553284952953340000010481547340863258784_);fill-rule:evenodd;clip-rule:evenodd;fill:#FFFFFF;" d="
		M35.15,110.72l11.33-4.4l1.17-9.39l-4.81,3.46c3.73,2.29,1.35,4.09,0.23,4.14h-4.9l-0.01-10.56h9.82l0.27-3.06H22.1l0.27,3.06h9.81
		v10.56h-4.9c-1.12-0.05-3.51-1.84,0.23-4.14l-4.81-3.46l1.17,9.39L35.15,110.72z"/>
	
		<path style="clip-path:url(#SVGID_00000084510553284952953340000010481547340863258784_);fill-rule:evenodd;clip-rule:evenodd;fill:#7BB61A;" d="
		M154.68,117.46c-0.01-0.18-0.16-0.24-0.29-0.24c-0.1,0-0.27,0.03-0.27,0.2c0,0.1,0.07,0.13,0.14,0.15l0.33,0.08
		c0.15,0.04,0.26,0.13,0.26,0.31c0,0.27-0.26,0.35-0.45,0.35c-0.22,0-0.3-0.06-0.35-0.11c-0.1-0.09-0.12-0.19-0.12-0.29h0.15
		c0,0.21,0.17,0.27,0.32,0.27c0.11,0,0.3-0.03,0.3-0.2c0-0.12-0.06-0.16-0.25-0.21l-0.24-0.05c-0.08-0.02-0.25-0.07-0.25-0.27
		c0-0.18,0.12-0.36,0.4-0.36c0.41,0,0.45,0.24,0.45,0.37H154.68z"/>
	
		<path style="clip-path:url(#SVGID_00000084510553284952953340000010481547340863258784_);fill-rule:evenodd;clip-rule:evenodd;fill:#7BB61A;" d="
		M156.01,118.28v-0.68c0-0.03,0-0.18,0-0.29h0l-0.33,0.97h-0.16l-0.33-0.97h0c0,0.11,0,0.25,0,0.29v0.68h-0.15v-1.16h0.23l0.33,0.98
		h0l0.33-0.98h0.22v1.16H156.01z"/>
	
		<path style="clip-path:url(#SVGID_00000084510553284952953340000010481547340863258784_);fill-rule:evenodd;clip-rule:evenodd;fill:#7BB61A;" d="
		M153.34,123.31c0,0.29,0.23,0.53,0.52,0.53c0.29,0,0.52-0.23,0.52-0.53c0-0.29-0.23-0.52-0.52-0.52
		C153.57,122.79,153.34,123.02,153.34,123.31 M148.6,123.45c0.34,0.22,0.73,0.34,1.17,0.34c0.93,0,1.55-0.56,1.55-1.28
		c0-0.47-0.27-0.72-0.76-1.02l-0.53-0.33c-0.43-0.27-0.66-0.47-0.66-0.82c0-0.39,0.3-0.68,0.64-0.68c0.44,0,0.71,0.31,0.95,0.98h0.2
		l-0.06-0.89c-0.36-0.2-0.71-0.3-1.04-0.3c-0.82,0-1.37,0.51-1.37,1.19c0,0.5,0.3,0.84,0.93,1.18l0.45,0.25
		c0.35,0.19,0.52,0.44,0.52,0.74c0,0.48-0.31,0.8-0.76,0.8c-0.51,0-0.93-0.43-1.09-1.2l-0.2,0.02L148.6,123.45z M146.23,120.61
		l-1.8,0.05c0.14-0.63,0.53-0.99,0.98-0.99C145.82,119.66,146.11,119.99,146.23,120.61 M147.13,122.64c-0.3,0.38-0.7,0.58-1.17,0.58
		c-0.91,0-1.63-0.77-1.63-1.87c0-0.18,0.02-0.35,0.06-0.51c0.83,0,1.75,0.02,2.77,0.05c-0.05-0.89-0.64-1.44-1.56-1.44
		c-1.13,0-2.04,0.98-2.04,2.25c0,1.22,0.87,2.1,1.93,2.1c0.7,0,1.31-0.36,1.78-1.05L147.13,122.64z M140.13,123.74
		c0.36-0.01,0.73-0.01,1.1-0.01c0.39,0,0.77,0,1.16,0.01v-0.16c-0.74-0.04-0.77-0.24-0.77-0.88v-4.47c0-0.26,0.01-0.66,0.02-1.22
		l-0.1-0.05l-1.09,0.4v0.07l0.15,0.14c0.28,0.26,0.3,0.49,0.3,0.82v4.09c0,0.81-0.05,1.03-0.77,1.09V123.74z M135.56,121.92
		l0.01-1.78c0.31-0.13,0.61-0.2,0.89-0.2c0.96,0,1.68,0.78,1.68,1.88c0,1.05-0.58,1.69-1.43,1.69c-0.8,0-1.15-0.51-1.15-1.55V121.92
		z M134.85,123.43c0.5,0.24,0.98,0.37,1.51,0.37c1.48,0,2.58-1.02,2.58-2.36c0-1.14-0.81-1.99-1.81-1.99
		c-0.44,0-0.97,0.17-1.56,0.53l0.06-2.99l-0.05-0.05l-1.19,0.44v0.06l0.23,0.17c0.25,0.18,0.26,0.41,0.26,0.82L134.85,123.43z
		 M131.66,121.61l-0.02,1.4c-0.22,0.24-0.44,0.37-0.68,0.37c-0.4,0-0.66-0.29-0.66-0.79c0-0.07,0.03-0.17,0.06-0.3L131.66,121.61z
		 M133.22,123.46c-0.75-0.13-0.87-0.35-0.87-0.97v-0.08l0.02-1.28v-0.08c0-1.06-0.34-1.59-1.11-1.59c-0.31,0-0.8,0.24-1.38,0.73
		c-0.29,0.25-0.43,0.42-0.43,0.53c0,0.08,0.06,0.12,0.2,0.12c0.04,0,0.07-0.01,0.11-0.01l0.39-0.03l-0.01-0.35v-0.03
		c0-0.33,0.18-0.47,0.64-0.47c0.64,0,0.89,0.38,0.89,1.21c0,0.07-0.01,0.15-0.01,0.23l-2.08,0.98c-0.05,0.14-0.06,0.29-0.06,0.43
		c0,0.58,0.41,0.99,0.96,0.99c0.35,0,0.75-0.19,1.17-0.59c0.03,0.39,0.21,0.57,0.57,0.57c0.2,0,0.54-0.06,0.99-0.19L133.22,123.46z
		 M126.81,121.31l0.01,1.39c-0.33,0.39-0.67,0.58-1.06,0.58c-0.82,0-1.48-0.75-1.48-1.8c0-1.12,0.5-1.76,1.29-1.76
		C126.45,119.71,126.8,120.24,126.81,121.31 M126.84,123.86l1.52-0.35l-0.04-0.16c-0.17,0.05-0.31,0.06-0.41,0.06
		c-0.31,0-0.38-0.18-0.39-0.91l-0.03-3.67c0-0.17,0.01-0.78,0.02-1.83l-0.08-0.05l-1.23,0.37v0.06l0.21,0.15
		c0.34,0.23,0.36,0.34,0.36,0.74v0.13l0.01,1.12c-0.3-0.05-0.56-0.07-0.78-0.07c-1.47,0-2.53,1.02-2.53,2.34
		c0,1.18,0.8,2.01,1.76,2.01c0.53,0,1.04-0.29,1.6-0.83L126.84,123.86z M120.55,117.54c0,0.29,0.18,0.47,0.47,0.47
		c0.27,0,0.47-0.19,0.47-0.47c0-0.27-0.2-0.47-0.47-0.47C120.75,117.07,120.55,117.27,120.55,117.54 M119.94,123.74
		c0.4-0.01,0.78-0.01,1.15-0.01c0.38,0,0.74,0,1.08,0.01v-0.16c-0.72-0.06-0.75-0.23-0.75-0.88v-2.37c0-0.18,0.01-0.46,0.02-0.85
		l-0.1-0.04l-1.23,0.46v0.07l0.19,0.16c0.38,0.29,0.4,0.49,0.4,0.86v1.54c0,0.79,0,1-0.76,1.05V123.74z M116.57,123.87h0.17
		c0.12-0.3,0.25-0.61,0.39-0.93l0.96-2.22c0.29-0.66,0.46-1.01,0.97-1.04v-0.16c-0.27,0-0.54,0.01-0.83,0.01
		c-0.29,0-0.57-0.01-0.87-0.01v0.16c0.42,0.04,0.63,0.15,0.63,0.38c0,0.12-0.19,0.7-0.6,1.73l-0.45,1.13l-0.87-2.16
		c-0.16-0.4-0.22-0.65-0.22-0.74c0-0.23,0.17-0.31,0.55-0.34v-0.16c-0.35,0-0.69,0.01-1.02,0.01c-0.33,0-0.64-0.01-0.96-0.01v0.16
		c0.48,0.04,0.6,0.3,0.82,0.85L116.57,123.87z M111.28,123.74c0.36-0.01,0.73-0.01,1.1-0.01c0.39,0,0.77,0,1.16,0.01v-0.16
		c-0.74-0.04-0.77-0.24-0.77-0.88v-4.47c0-0.26,0.01-0.66,0.02-1.22l-0.1-0.05l-1.09,0.4v0.07l0.15,0.14
		c0.28,0.26,0.3,0.49,0.3,0.82v4.09c0,0.81-0.05,1.03-0.77,1.09V123.74z M105.46,121.62c0,1.31,0.91,2.18,2.31,2.18
		c1.33,0,2.31-0.93,2.31-2.18c0-1.31-0.91-2.17-2.31-2.17C106.45,119.45,105.46,120.38,105.46,121.62 M107.77,119.64
		c0.8,0,1.44,0.78,1.44,1.98c0,1.26-0.6,1.97-1.44,1.97c-0.8,0-1.44-0.76-1.44-1.97C106.34,120.36,106.94,119.64,107.77,119.64
		 M99.64,120.03l0.15,0.1c0.29,0.19,0.33,0.43,0.33,0.75v1.88c0,0.6-0.09,0.76-0.71,0.83v0.16c0.36-0.01,0.72-0.01,1.09-0.01
		c0.37,0,0.74,0,1.1,0.01v-0.16c-0.73-0.09-0.76-0.18-0.76-0.83v-2.41c0.39-0.29,0.75-0.41,1.1-0.41c0.8,0,1.03,0.47,1.03,1.43v1.27
		c0,0.73-0.05,0.88-0.74,0.95v0.16c0.36-0.01,0.71-0.01,1.07-0.01c0.36,0,0.72,0,1.07,0.01v-0.16c-0.68-0.09-0.68-0.21-0.68-0.86
		v-1.77c0-1.01-0.32-1.5-1.12-1.5c-0.51,0-1.06,0.25-1.73,0.73l0.08-0.72l-0.08-0.05l-1.19,0.56V120.03z M96.64,117.54
		c0,0.29,0.18,0.47,0.47,0.47c0.27,0,0.47-0.19,0.47-0.47c0-0.27-0.2-0.47-0.47-0.47C96.84,117.07,96.64,117.27,96.64,117.54
		 M96.03,123.74c0.4-0.01,0.78-0.01,1.15-0.01c0.38,0,0.74,0,1.08,0.01v-0.16c-0.72-0.06-0.75-0.23-0.75-0.88v-2.37
		c0-0.18,0.01-0.46,0.02-0.85l-0.1-0.04l-1.23,0.46v0.07l0.19,0.16c0.38,0.29,0.41,0.49,0.41,0.86v1.54c0,0.79,0,1-0.76,1.05V123.74
		z M88.8,123.45c0.34,0.22,0.73,0.34,1.17,0.34c0.93,0,1.55-0.56,1.55-1.28c0-0.47-0.27-0.72-0.76-1.02l-0.53-0.33
		c-0.43-0.27-0.66-0.47-0.66-0.82c0-0.39,0.3-0.68,0.64-0.68c0.44,0,0.71,0.31,0.95,0.98h0.2l-0.06-0.89
		c-0.36-0.2-0.71-0.3-1.04-0.3c-0.82,0-1.37,0.51-1.37,1.19c0,0.5,0.3,0.84,0.93,1.18l0.45,0.25c0.35,0.19,0.52,0.44,0.52,0.74
		c0,0.48-0.31,0.8-0.76,0.8c-0.51,0-0.93-0.43-1.09-1.2l-0.2,0.02L88.8,123.45z M86.43,120.61l-1.8,0.05
		c0.14-0.63,0.53-0.99,0.99-0.99C86.02,119.66,86.32,119.99,86.43,120.61 M87.34,122.64c-0.3,0.38-0.7,0.58-1.17,0.58
		c-0.91,0-1.63-0.77-1.63-1.87c0-0.18,0.02-0.35,0.06-0.51c0.83,0,1.75,0.02,2.77,0.05c-0.05-0.89-0.64-1.44-1.57-1.44
		c-1.13,0-2.04,0.98-2.04,2.25c0,1.22,0.87,2.1,1.93,2.1c0.7,0,1.31-0.36,1.78-1.05L87.34,122.64z M77.94,120.03l0.15,0.1
		c0.29,0.19,0.33,0.43,0.33,0.75v1.88c0,0.6-0.09,0.76-0.71,0.83v0.16c0.36-0.01,0.72-0.01,1.09-0.01c0.37,0,0.74,0,1.1,0.01v-0.16
		c-0.73-0.09-0.76-0.18-0.76-0.83v-2.41c0.39-0.29,0.75-0.41,1.1-0.41c0.8,0,1.03,0.47,1.03,1.43v1.27c0,0.73-0.05,0.88-0.74,0.95
		v0.16c0.36-0.01,0.71-0.01,1.07-0.01s0.72,0,1.07,0.01v-0.16c-0.68-0.09-0.68-0.21-0.68-0.86v-1.77c0-1.01-0.32-1.5-1.12-1.5
		c-0.51,0-1.06,0.25-1.73,0.73l0.08-0.72l-0.08-0.05l-1.19,0.56V120.03z M71.89,121.62c0,1.31,0.91,2.18,2.31,2.18
		c1.33,0,2.31-0.93,2.31-2.18c0-1.31-0.91-2.17-2.31-2.17C72.88,119.45,71.89,120.38,71.89,121.62 M74.2,119.64
		c0.8,0,1.44,0.78,1.44,1.98c0,1.26-0.6,1.97-1.44,1.97c-0.8,0-1.44-0.76-1.44-1.97C72.77,120.36,73.37,119.64,74.2,119.64
		 M69,117.54c0,0.29,0.18,0.47,0.47,0.47c0.27,0,0.47-0.19,0.47-0.47c0-0.27-0.2-0.47-0.47-0.47C69.2,117.07,69,117.27,69,117.54
		 M68.39,123.74c0.4-0.01,0.78-0.01,1.15-0.01c0.38,0,0.74,0,1.08,0.01v-0.16c-0.72-0.06-0.75-0.23-0.75-0.88v-2.37
		c0-0.18,0.01-0.46,0.02-0.85l-0.1-0.04l-1.23,0.46v0.07l0.19,0.16c0.38,0.29,0.4,0.49,0.4,0.86v1.54c0,0.79,0,1-0.76,1.05V123.74z
		 M67.14,122.89c-0.33,0.24-0.63,0.35-0.98,0.35c-0.99,0-1.74-0.77-1.74-1.93c0-0.94,0.5-1.56,1.09-1.56c0.33,0,0.57,0.22,0.9,0.48
		c0.11,0.08,0.22,0.13,0.31,0.13c0.22,0,0.4-0.17,0.4-0.4c0-0.28-0.37-0.49-0.98-0.49c-1.48,0-2.49,0.97-2.49,2.32
		c0,1.13,0.89,2.02,1.95,2.02c0.63,0,1.15-0.25,1.65-0.76L67.14,122.89z M60.96,121.61l-0.02,1.4c-0.22,0.24-0.44,0.37-0.68,0.37
		c-0.4,0-0.66-0.29-0.66-0.79c0-0.07,0.03-0.17,0.06-0.3L60.96,121.61z M62.52,123.46c-0.75-0.13-0.87-0.35-0.87-0.97v-0.08
		l0.02-1.28v-0.08c0-1.06-0.34-1.59-1.11-1.59c-0.31,0-0.8,0.24-1.38,0.73c-0.29,0.25-0.43,0.42-0.43,0.53
		c0,0.08,0.06,0.12,0.2,0.12c0.04,0,0.07-0.01,0.11-0.01l0.39-0.03l-0.01-0.35v-0.03c0-0.33,0.18-0.47,0.64-0.47
		c0.64,0,0.89,0.38,0.89,1.21c0,0.07-0.01,0.15-0.01,0.23l-2.08,0.98c-0.05,0.14-0.06,0.29-0.06,0.43c0,0.58,0.41,0.99,0.96,0.99
		c0.35,0,0.75-0.19,1.17-0.59c0.03,0.39,0.21,0.57,0.57,0.57c0.2,0,0.54-0.06,0.99-0.19L62.52,123.46z M57.35,122.89
		c-0.33,0.24-0.64,0.35-0.98,0.35c-0.99,0-1.74-0.77-1.74-1.93c0-0.94,0.5-1.56,1.09-1.56c0.33,0,0.57,0.22,0.9,0.48
		c0.11,0.08,0.22,0.13,0.31,0.13c0.22,0,0.4-0.17,0.4-0.4c0-0.28-0.37-0.49-0.99-0.49c-1.48,0-2.49,0.97-2.49,2.32
		c0,1.13,0.89,2.02,1.95,2.02c0.63,0,1.15-0.25,1.65-0.76L57.35,122.89z M51.17,121.61l-0.02,1.4c-0.22,0.24-0.44,0.37-0.68,0.37
		c-0.4,0-0.66-0.29-0.66-0.79c0-0.07,0.03-0.17,0.06-0.3L51.17,121.61z M52.73,123.46c-0.75-0.13-0.87-0.35-0.87-0.97v-0.08
		l0.02-1.28v-0.08c0-1.06-0.34-1.59-1.11-1.59c-0.31,0-0.8,0.24-1.38,0.73c-0.29,0.25-0.43,0.42-0.43,0.53
		c0,0.08,0.06,0.12,0.2,0.12c0.04,0,0.07-0.01,0.11-0.01l0.39-0.03l-0.01-0.35v-0.03c0-0.33,0.18-0.47,0.64-0.47
		c0.64,0,0.89,0.38,0.89,1.21c0,0.07-0.01,0.15-0.01,0.23l-2.08,0.98c-0.05,0.14-0.06,0.29-0.06,0.43c0,0.58,0.41,0.99,0.96,0.99
		c0.35,0,0.75-0.19,1.17-0.59c0.03,0.39,0.21,0.57,0.57,0.57c0.2,0,0.54-0.06,0.99-0.19L52.73,123.46z M45.68,124.08h0.1
		c0.37-0.94,0.58-1.49,0.65-1.67l1.16-2.8c0.58-1.4,0.95-2.12,1.71-2.12h0.05v-0.17c-0.41,0.01-0.84,0.01-1.28,0.01
		s-0.89,0-1.37-0.01v0.17c0.72,0.04,1.03,0.18,1.03,0.59c0,0.29-0.17,0.8-0.48,1.56l-1.23,3.02l-1.24-3.02
		c-0.37-0.9-0.52-1.45-0.52-1.64c0-0.34,0.3-0.51,0.93-0.52v-0.17c-0.52,0.01-1.04,0.01-1.54,0.01s-0.98,0-1.45-0.01v0.17
		c0.7,0.03,0.97,0.48,1.31,1.32L45.68,124.08z"/>
</g>
</svg>
