<?xml version="1.0" encoding="utf-8"?>
<!-- Generator: Adobe Illustrator 28.0.0, SVG Export Plug-In . SVG Version: 6.00 Build 0)  -->
<svg version="1.1" id="Layer_1" xmlns="http://www.w3.org/2000/svg" xmlns:xlink="http://www.w3.org/1999/xlink" x="0px" y="0px"
	 viewBox="0 0 571.2 185.1" style="enable-background:new 0 0 571.2 185.1;" xml:space="preserve">
<style type="text/css">
	.st0{fill:#EB2227;}
	.st1{fill:#E90F8B;}
	.st2{fill:#A54785;}
	.st3{fill:#9994C8;}
	.st4{fill:#2AABE2;}
	.st5{fill:#03A550;}
	.st6{fill:#FCEE21;}
	.st7{fill:#F48120;}
</style>
<g>
	<path d="M198.8,162.7L198.8,162.7c1.9-3.7,4.9-5.6,7.5-5.6c0.2,0,0.3,0.1,0.3,0.1c0,0.1,0,0.2-0.1,0.3l-1.3,2.4
		c0,0.1-0.1,0.2-0.2,0.2c-0.1,0-0.3-0.1-0.6-0.2c-0.3-0.1-0.7-0.3-1.2-0.3c-2.3,0-4.1,3.1-4.7,6l-1,5.2c0,0.3-0.1,1.4-0.1,2.1
		c0,1.1,0.2,1.5,1.3,1.7c0.2,0,0.4,0.2,0.4,0.2c0,0.1-0.2,0.1-0.4,0.1c-0.3,0-2-0.1-3.1-0.1c-0.9,0-2.7,0.1-2.9,0.1
		c-0.1,0-0.2,0-0.2-0.2c0-0.1,0.1-0.2,0.3-0.2c0.7-0.2,1.7-0.8,2.3-5l1.4-8.3c0.1-0.4,0.1-0.8,0.1-1.2c0-0.9-0.3-1.1-0.9-1.5
		c-0.1-0.1-0.2-0.1-0.2-0.2c0-0.2,0.3-0.2,0.5-0.3l3.6-0.6L198.8,162.7z"/>
	<path d="M227.2,164.7c0,6.2-5.5,10.7-11.9,10.7c-4.5,0-9-2.9-9-7.6c0-6.2,5.5-10.7,11.9-10.7C222.7,157.1,227.2,160,227.2,164.7
		 M209.4,168.6c0,3.7,1.8,6.2,5.9,6.2c6.4,0,8.7-5.9,8.7-10.9c0-3.7-1.8-6.2-5.9-6.2C211.8,157.7,209.4,163.6,209.4,168.6"/>
	<path d="M230.4,159.2l0.1-0.7c2.6-0.2,4.6-3,5.8-4.9c0.1-0.1,0.1-0.3,0.3-0.3c0.1,0,0.1,0.1,0.1,0.1c0,0.1,0,0.2,0,0.3l-0.9,4.6
		h3.5l-0.2,0.9h-3.5l-1.2,8.1c-0.2,1.7-0.5,3.6-0.5,4.7c0,1.9,0.7,2.2,1.5,2.6c0.2,0.1,0.4,0.1,0.4,0.2c0,0.1-0.1,0.2-0.3,0.2
		c-0.2,0-0.9-0.1-1.8-0.1c-0.9,0-1.4,0.1-1.7,0.1c-0.5,0-0.8-0.8-0.8-1.4c0-0.7,0-1.3,0.1-1.7l1.9-12.7H230.4z"/>
	<path d="M260.2,157.6l-1.4,7.5c-0.4,2.2-0.8,4.9-0.8,7.2c0,1,0.1,1.7,0.8,2.2c0.1,0.1,0.3,0.1,0.3,0.3c0,0.1-0.1,0.2-0.2,0.2h-3.2
		c-0.2-1.3-0.3-4-0.2-5.9h-0.1c-1.8,3.7-4.2,6.4-9,6.4c-3.5,0-5.8-1.9-5.8-5.4c0-1,0.2-2.1,0.4-3.2l1.1-5.3c0.1-0.5,0.2-0.9,0.2-1.2
		c0-0.6-0.3-1.1-1-1.4c-0.2-0.1-0.3-0.2-0.3-0.3c0-0.1,0.3-0.2,0.5-0.3l4.1-0.7l-2.1,10.9c-0.1,0.6-0.2,1.2-0.2,1.8
		c0,2.4,1.8,4.2,4.4,4.2c5.9,0,7.9-8,8.8-12.1l0.9-4.4L260.2,157.6z"/>
	<path d="M266.6,154.7c0.1-0.3,0.1-0.6,0.1-0.9c0-1.3-0.4-1.5-1.1-1.8c-0.2-0.1-0.3-0.2-0.3-0.2c0-0.1,0-0.1,0.1-0.1l4.2-0.9l-3,21
		c0,0.3-0.1,0.8-0.1,1.2c0,0.7,0.4,1.3,1.1,1.5c0.4,0.1,0.6,0.3,0.6,0.3c0,0.1-0.1,0.2-0.3,0.2c-0.3,0-1.7-0.1-3.3-0.1
		c-1.5,0-2.9,0.1-3.1,0.1c-0.2,0-0.2,0-0.2-0.2c0-0.1,0.1-0.2,0.3-0.3c1.1-0.5,1.7-0.9,2-2.7L266.6,154.7z"/>
	<path d="M290.1,165.3c-0.6,2.4-0.9,4.7-0.9,7c0,1,0.2,1.7,0.8,2.2c0.1,0.1,0.3,0.1,0.3,0.3c0,0.1-0.1,0.2-0.2,0.2h-3.2
		c-0.2-0.3-0.2-3.5-0.2-5.1h-0.1c-1.6,3.2-3.8,5.6-7.8,5.6c-4.5,0-7.1-3-7.1-7.1c0-7,6.6-11.3,13.5-11.3c2.1,0,4.7,0.5,6.6,1.3
		L290.1,165.3z M288.9,158.9c-1.1-0.9-3-1.3-4.4-1.3c-6.7,0-9.7,5.9-9.7,11.6c0,2.5,1.1,5.3,4.2,5.3c6.2,0,8.2-7.7,9.2-12.3
		L288.9,158.9z"/>
	<path d="M310.4,161.1c-0.1,0.2-0.2,0.4-0.3,0.4c-0.1,0-0.2-0.2-0.2-0.4c-0.7-2.1-2.6-3.5-4.1-3.5c-5.9,0-8.7,5.9-8.7,10.9
		c0,3.1,2,6.2,6.2,6.2c2.7,0,5.2-1.5,7.1-3.2l0.4,0.5c-2,2.1-4.8,3.3-7.7,3.3c-5.1,0-9.2-2.4-9.2-7.6c0-6.2,5.9-10.7,11.9-10.7
		c2.2,0,4.5,0.4,6,1.3L310.4,161.1z"/>
	<path d="M316.1,161.6c0-0.2,0.1-0.7,0.1-0.9c0-1.2-0.4-1.5-1.1-1.7c-0.1-0.1-0.2-0.1-0.2-0.2c0-0.1,0.1-0.2,0.2-0.2l4.2-1.1
		l-2,14.4c-0.1,0.4-0.1,0.8-0.1,1.1c0,1,1,1.4,1.3,1.6c0.2,0.1,0.3,0.2,0.3,0.2c0,0.1-0.1,0.1-0.3,0.1c-0.2,0-2-0.1-3.2-0.1
		c-1,0-2.8,0.1-3.1,0.1c-0.2,0-0.2-0.1-0.2-0.1c0-0.1,0.1-0.2,0.2-0.2c1.3-0.7,1.8-0.9,2.2-3.4L316.1,161.6z M318.7,151.9
		c0.8,0,1.4,0.6,1.4,1.4c0,0.9-1,1.6-1.9,1.6c-0.8,0-1.4-0.6-1.4-1.4C316.7,152.6,317.7,151.9,318.7,151.9"/>
	<path d="M343.4,164.7c0,6.2-5.5,10.7-11.9,10.7c-4.5,0-9-2.9-9-7.6c0-6.2,5.5-10.7,11.9-10.7C338.9,157.1,343.4,160,343.4,164.7
		 M325.7,168.6c0,3.7,1.8,6.2,5.9,6.2c6.4,0,8.7-5.9,8.7-10.9c0-3.7-1.8-6.2-5.9-6.2C328,157.7,325.7,163.6,325.7,168.6
		 M333.2,155.5l4.8-4.5c0.7-0.7,1.1-1.1,1.9-1.1c0.6,0,1.1,0.5,1.1,1c0,0.7-0.5,1.1-1.1,1.5l-5.5,3.2H333.2z"/>
	<path d="M350.3,162.8L350.3,162.8c1.7-3.3,4.8-5.7,8.8-5.7c3.3,0,6.4,1.6,6.3,5.2c0,0.4,0,1-0.1,1.5l-1.1,8.2
		c-0.1,0.5-0.1,0.8-0.1,1.2c0,1,0.4,1.2,1.1,1.4c0.2,0.1,0.3,0.2,0.3,0.3c0,0.1-0.1,0.1-0.2,0.1c-0.2,0-2-0.1-3-0.1
		c-1.9,0-2.4,0.1-2.6,0.1c-0.3,0-0.3,0-0.3-0.2c0-0.1,0.2-0.3,0.5-0.4c1.1-0.5,1.5-1.8,1.9-4.2l0.8-5.1c0.1-0.7,0.2-1.5,0.2-2.4
		c0-3.4-2-4.9-4.9-4.9c-3.6,0-6.8,3.9-7.4,7.2l-1.3,6.3c-0.1,0.4-0.1,0.8-0.1,1.3c0,1.3,0.5,1.6,1.1,1.9c0.1,0.1,0.3,0.1,0.3,0.2
		c0,0.1-0.2,0.2-0.3,0.2c-0.3,0-1.8-0.1-2.8-0.1c-1.3,0-2.7,0.1-2.9,0.1c-0.1,0-0.2,0-0.2-0.2c0-0.1,0.1-0.2,0.3-0.3
		c1.3-0.4,1.9-1.7,2.1-3.2l1.8-10.3c0-0.2,0.1-0.5,0.1-0.7c0-0.9-0.8-1.3-1.3-1.4c-0.1,0-0.2-0.1-0.2-0.2c0-0.1,0.1-0.2,0.2-0.2
		l4.3-0.9L350.3,162.8z"/>
	<path d="M384.5,162.9L384.5,162.9c1.9-3.2,4.1-5.8,8.3-5.8c4.8,0,8.1,3.3,8.1,7.9c0,6.6-6.5,10.5-12.8,10.5c-1.9,0-3.7-0.4-5.2-0.9
		l-0.6,3.6c-0.1,0.4-0.1,0.9-0.1,1.5c0,1.1,0.7,1.4,1.7,1.5c0.3,0,0.4,0.1,0.4,0.2c0,0.1-0.1,0.2-0.2,0.2c-1.2,0-2.3-0.1-3.5-0.1
		c-1.1,0-2.2,0.1-3.3,0.1c-0.2,0-0.3,0-0.3-0.2c0-0.1,0.1-0.1,0.4-0.2c1.2-0.4,1.7-0.6,2.3-4.2l2.5-13.8c0.2-1.1,0.2-2,0.2-2.4
		c0-1.2-0.4-1.5-1.2-1.8c-0.1,0-0.2-0.1-0.2-0.2c0-0.1,0.1-0.1,0.2-0.2l4.4-0.9L384.5,162.9z M383,172.8c0.6,1.2,3.1,2.1,5.2,2.1
		c6.4,0,9.5-5.9,9.5-11.3c0-3.1-1.7-5.8-5.2-5.8c-5.1,0-8,6-8.6,9.5L383,172.8z"/>
	<path d="M423.5,157.6l-1.4,7.5c-0.4,2.2-0.8,4.9-0.8,7.2c0,1,0.1,1.7,0.8,2.2c0.1,0.1,0.3,0.1,0.3,0.3c0,0.1-0.1,0.2-0.2,0.2H419
		c-0.2-1.3-0.3-4-0.2-5.9h-0.1c-1.8,3.7-4.2,6.4-9,6.4c-3.5,0-5.8-1.9-5.8-5.4c0-1,0.2-2.1,0.4-3.2l1.1-5.3c0.1-0.5,0.2-0.9,0.2-1.2
		c0-0.6-0.4-1.1-1-1.4c-0.2-0.1-0.3-0.2-0.3-0.3c0-0.1,0.3-0.2,0.5-0.3l4.1-0.7l-2.1,10.9c-0.1,0.6-0.2,1.2-0.2,1.8
		c0,2.4,1.8,4.2,4.4,4.2c5.9,0,7.9-8,8.8-12.1l0.9-4.4L423.5,157.6z"/>
	<path d="M430.8,162.9L430.8,162.9c1.9-3.2,4.3-5.8,8.5-5.8c4.5,0,7.9,3.5,7.9,7.7c0,6.7-6.4,10.6-12.9,10.6c-2.4,0-5.6-0.9-7.7-1.9
		l3.3-18.8c0.1-0.3,0.1-0.7,0.1-1c0-0.9-0.3-1.3-1.1-1.4c-0.3-0.1-0.3-0.2-0.3-0.3c0-0.1,0-0.2,0.1-0.2l4.4-1L430.8,162.9z
		 M429.2,172.9c1.4,1.3,3.3,1.9,5.2,1.9c6.4,0,9.5-5.9,9.5-11.3c0-3.1-1.7-5.8-5.2-5.8c-4.7,0-7.4,5.2-8.4,8.9L429.2,172.9z"/>
	<path d="M453.3,154.7c0.1-0.3,0.1-0.6,0.1-0.9c0-1.3-0.4-1.5-1.1-1.8c-0.2-0.1-0.3-0.2-0.3-0.2c0-0.1,0-0.1,0.1-0.1l4.2-0.9l-3,21
		c0,0.3-0.1,0.8-0.1,1.2c0,0.7,0.4,1.3,1.1,1.5c0.4,0.1,0.6,0.3,0.6,0.3c0,0.1-0.1,0.2-0.3,0.2c-0.3,0-1.7-0.1-3.3-0.1
		c-1.5,0-2.9,0.1-3.1,0.1c-0.2,0-0.2,0-0.2-0.2c0-0.1,0.1-0.2,0.3-0.3c1.1-0.5,1.7-0.9,2-2.7L453.3,154.7z"/>
	<path d="M461.2,161.6c0-0.2,0.1-0.7,0.1-0.9c0-1.2-0.4-1.5-1.1-1.7c-0.1-0.1-0.2-0.1-0.2-0.2c0-0.1,0.1-0.2,0.2-0.2l4.2-1.1
		l-2,14.4c-0.1,0.4-0.1,0.8-0.1,1.1c0,1,1,1.4,1.3,1.6c0.2,0.1,0.3,0.2,0.3,0.2c0,0.1-0.1,0.1-0.3,0.1c-0.2,0-2-0.1-3.2-0.1
		c-1,0-2.8,0.1-3.1,0.1c-0.2,0-0.2-0.1-0.2-0.1c0-0.1,0.1-0.2,0.2-0.2c1.3-0.7,1.8-0.9,2.2-3.4L461.2,161.6z M463.7,151.9
		c0.8,0,1.4,0.6,1.4,1.4c0,0.9-1,1.6-1.9,1.6c-0.8,0-1.4-0.6-1.4-1.4C461.8,152.6,462.8,151.9,463.7,151.9"/>
	<path d="M484.1,161.1c-0.1,0.2-0.2,0.4-0.3,0.4c-0.1,0-0.2-0.2-0.2-0.4c-0.7-2.1-2.6-3.5-4.1-3.5c-5.9,0-8.7,5.9-8.7,10.9
		c0,3.1,2,6.2,6.2,6.2c2.7,0,5.2-1.5,7.1-3.2l0.4,0.5c-2,2.1-4.8,3.3-7.7,3.3c-5.1,0-9.2-2.4-9.2-7.6c0-6.2,5.9-10.7,11.9-10.7
		c2.2,0,4.5,0.4,6,1.3L484.1,161.1z"/>
	<path d="M489.8,161.6c0-0.2,0.1-0.7,0.1-0.9c0-1.2-0.4-1.5-1.1-1.7c-0.1-0.1-0.2-0.1-0.2-0.2c0-0.1,0.1-0.2,0.2-0.2l4.2-1.1
		l-2,14.4c-0.1,0.4-0.1,0.8-0.1,1.1c0,1,1,1.4,1.3,1.6c0.2,0.1,0.3,0.2,0.3,0.2c0,0.1-0.1,0.1-0.3,0.1c-0.2,0-2-0.1-3.2-0.1
		c-1,0-2.8,0.1-3.1,0.1c-0.2,0-0.2-0.1-0.2-0.1c0-0.1,0.1-0.2,0.2-0.2c1.3-0.7,1.8-0.9,2.2-3.4L489.8,161.6z M492.3,151.9
		c0.8,0,1.4,0.6,1.4,1.4c0,0.9-1,1.6-1.9,1.6c-0.8,0-1.4-0.6-1.4-1.4C490.4,152.6,491.4,151.9,492.3,151.9"/>
	<path d="M496.9,159.2l0.1-0.7c2.6-0.2,4.6-3,5.8-4.9c0.1-0.1,0.1-0.3,0.3-0.3c0.1,0,0.1,0.1,0.1,0.1c0,0.1,0,0.2,0,0.3l-0.9,4.6
		h3.5l-0.2,0.9H502l-1.2,8.1c-0.2,1.7-0.5,3.6-0.5,4.7c0,1.9,0.7,2.2,1.5,2.6c0.2,0.1,0.4,0.1,0.4,0.2c0,0.1-0.1,0.2-0.3,0.2
		c-0.2,0-0.9-0.1-1.8-0.1c-0.9,0-1.4,0.1-1.7,0.1c-0.5,0-0.8-0.8-0.8-1.4c0-0.7,0-1.3,0.1-1.7l1.9-12.7H496.9z"/>
	<path d="M524.8,165.3c-0.6,2.4-0.9,4.7-0.9,7c0,1,0.2,1.7,0.8,2.2c0.1,0.1,0.3,0.1,0.3,0.3c0,0.1-0.1,0.2-0.2,0.2h-3.2
		c-0.2-0.3-0.2-3.5-0.2-5.1h-0.1c-1.6,3.2-3.8,5.6-7.8,5.6c-4.5,0-7.1-3-7.1-7.1c0-7,6.6-11.3,13.5-11.3c2.1,0,4.7,0.5,6.6,1.3
		L524.8,165.3z M523.6,158.9c-1.1-0.9-3-1.3-4.4-1.3c-6.7,0-9.7,5.9-9.7,11.6c0,2.5,1.1,5.3,4.2,5.3c6.2,0,8.2-7.7,9.2-12.3
		L523.6,158.9z"/>
	<path d="M533.5,162.7L533.5,162.7c1.9-3.7,4.9-5.6,7.5-5.6c0.2,0,0.3,0.1,0.3,0.1c0,0.1,0,0.2-0.1,0.3L540,160
		c0,0.1-0.1,0.2-0.2,0.2c-0.1,0-0.3-0.1-0.6-0.2c-0.3-0.1-0.7-0.3-1.2-0.3c-2.3,0-4.1,3.1-4.7,6l-1,5.2c0,0.3-0.1,1.4-0.1,2.1
		c0,1.1,0.2,1.5,1.3,1.7c0.2,0,0.3,0.2,0.3,0.2c0,0.1-0.2,0.1-0.3,0.1c-0.3,0-2-0.1-3.1-0.1c-0.9,0-2.7,0.1-2.9,0.1
		c-0.1,0-0.2,0-0.2-0.2c0-0.1,0.1-0.2,0.3-0.2c0.7-0.2,1.7-0.8,2.3-5l1.4-8.3c0.1-0.4,0.1-0.8,0.1-1.2c0-0.9-0.3-1.1-0.9-1.5
		c-0.1-0.1-0.2-0.1-0.2-0.2c0-0.2,0.3-0.2,0.5-0.3l3.6-0.6L533.5,162.7z"/>
	<path d="M544.3,161.6c0-0.2,0.1-0.7,0.1-0.9c0-1.2-0.4-1.5-1.1-1.7c-0.1-0.1-0.2-0.1-0.2-0.2c0-0.1,0.1-0.2,0.2-0.2l4.2-1.1
		l-2,14.4c-0.1,0.4-0.1,0.8-0.1,1.1c0,1,1,1.4,1.3,1.6c0.2,0.1,0.3,0.2,0.3,0.2c0,0.1-0.1,0.1-0.3,0.1c-0.2,0-2-0.1-3.2-0.1
		c-1,0-2.8,0.1-3.1,0.1c-0.2,0-0.2-0.1-0.2-0.1c0-0.1,0.1-0.2,0.2-0.2c1.3-0.7,1.8-0.9,2.2-3.4L544.3,161.6z M546.8,151.9
		c0.8,0,1.4,0.6,1.4,1.4c0,0.9-1,1.6-1.9,1.6c-0.8,0-1.4-0.6-1.4-1.4C544.9,152.6,545.9,151.9,546.8,151.9"/>
	<path d="M569,165.3c-0.6,2.4-0.9,4.7-0.9,7c0,1,0.2,1.7,0.8,2.2c0.1,0.1,0.3,0.1,0.3,0.3c0,0.1-0.1,0.2-0.2,0.2h-3.2
		c-0.2-0.3-0.2-3.5-0.2-5.1h-0.1c-1.6,3.2-3.8,5.6-7.8,5.6c-4.5,0-7.1-3-7.1-7.1c0-7,6.6-11.3,13.5-11.3c2.1,0,4.7,0.5,6.6,1.3
		L569,165.3z M567.8,158.9c-1.1-0.9-3-1.3-4.4-1.3c-6.7,0-9.7,5.9-9.7,11.6c0,2.5,1.1,5.3,4.2,5.3c6.2,0,8.2-7.7,9.2-12.3
		L567.8,158.9z"/>
	<path d="M271.1,90.7V92c-6.5-0.3-12-0.3-16.6-0.3c-4.4,0-9.6,0-15.6,0.3v-1.3c7.1-1.4,7.4-7.6,7.4-21.8V35.5c0-4.5-1.7-6.7-6.1-7.9
		v-1.4c7.5,0.2,13,0.2,16.8,0.2h10.9c26.9,0,40.2,2.9,40.2,15.9c0,8.7-9.2,14.7-25.6,15.3c11.4,0.9,17.4,5.2,21.6,15
		c3.8,8.8,5.6,15.2,12.7,17.9v1.3c-10.2-0.2-18.6-0.2-25.2-0.2c-4.6-8.1-5.1-17.6-9.6-24.9c-3.5-5.7-8.5-8.2-16-8.2
		c-0.7,0-1.6,0.1-2.3,0.1V69C263.6,83.2,264.1,89.2,271.1,90.7 M270.9,55.5c11.6,0,18-4.8,18-13c0-8.5-6.3-12.7-18.8-12.7
		c-1.7,0-4,0-6.7,0.1v25.4C266.8,55.4,269.2,55.5,270.9,55.5"/>
	<path d="M338.4,79.1c2.7,6.6,8.5,10.1,17.3,10.1c13.9,0,21.4-8.1,21.4-23.4v-9.7c0-17.2-0.6-25.3-11.4-28.7v-1.3
		c5.3,0.2,9.4,0.3,12.5,0.3c4,0,8.8-0.1,14.2-0.3v1.2c-10.9,3.5-11.5,11.9-11.5,28.8v9.2c0,19.2-9.7,28.3-30.6,28.3
		c-11.4,0-19.5-2.2-24.9-6.9c-5.7-5-6.8-11.7-6.8-21.7c0-6.4,0.3-11.4,0.3-14.9V35.3c0-4.5-1.8-6.7-6.3-7.9v-1.4
		c5.1,0.3,10,0.4,14.5,0.4c4.8,0,9.9-0.1,15.5-0.4v1.4c-4.5,0.8-6.3,3.2-6.3,7.9v21.9C336.4,68.7,337,75.9,338.4,79.1"/>
	<path d="M385.2,90.9c7.1-1.6,7.2-7.6,7.2-20.8V69V35.7c0-5.2-1.7-7.7-6-8.3v-1.1c4.9,0.1,9.2,0.1,12.6,0.1c8.7,0,15.5-0.2,20.9-0.2
		c21.9,0,32.7,4.3,32.7,14.9c0,8.4-7.5,13.4-22.5,15c18.9,1,28.5,6.8,28.5,17.2c0,12.5-11.8,18.6-35.3,18.6
		c-5.9,0-13.5-0.3-22.8-0.3c-5.3,0-10.3,0.1-15.2,0.3V90.9z M415.4,55.3c12.8,0,18.8-3.9,18.8-13.3c0-8.8-6.1-12.3-18.9-12.3
		c-1,0-2.9,0.1-5.7,0.3v25.1C412.1,55.2,414,55.3,415.4,55.3 M409.6,69.1v2.2c0,13.6,0.3,17.2,11.6,17.2c12,0,17.9-4.9,17.9-14.7
		c0-11.4-6.1-15.3-20.7-15.3c-1.8,0-4.7,0.1-8.8,0.3V69.1z"/>
	<path d="M492.2,90.7V92c-6.8-0.3-12.5-0.3-17.2-0.3c-4.5,0-9.9,0-16.2,0.3v-1.3c7.4-1.5,7.7-7.6,7.7-21.8V35.3
		c0-4.5-1.7-6.7-6.4-7.9v-1.4c5.3,0.3,10.3,0.4,14.8,0.4c4.8,0,10-0.1,15.8-0.4v1.4c-4.6,0.9-6.5,3.2-6.5,7.9V69
		C484.4,83.3,484.9,89.1,492.2,90.7"/>
	<path d="M504.7,33.4c7-5.7,16.2-8.9,27-8.9c11,0,19.9,2.8,27.2,9c8.1,6.8,12.3,15.3,12.3,25.4c0,9.9-4.2,18.4-12.5,25.6
		c-6.8,5.8-16.2,9.2-26.8,9.2c-10.9,0-20.6-3.5-27.5-9.4c-7.6-6.5-11.9-15.6-11.9-25.4C492.5,48.7,496.7,40.1,504.7,33.4 M551.4,59
		c0-20.9-6.1-31.2-19.6-31.2c-13.7,0-19.5,10.3-19.5,31.2c0,21,5.9,31.3,19.5,31.3C545.1,90.3,551.4,79.9,551.4,59"/>
	<path d="M261.3,137.9c2.6-1,5.2-4.6,8.4-10.5l11.5-21.4h0.4l12,21.2c3.8,6.7,6,10.5,8.2,10.8v0.6c-2.8-0.1-5.1-0.2-7.1-0.2
		c-2.3,0-5.5,0-9.5,0.2v-0.6c1.6-0.2,2.3-0.7,2.3-2c0-1.1-0.8-3.3-2.6-6.6l-1.7-3.4h-10.3l-0.8,1.7c-1.6,3.2-2.5,5.5-2.5,7
		c0,1.8,1.3,3.1,3.7,3.4v0.6c-2.5-0.1-4.6-0.2-6.1-0.2c-1.6,0-3.6,0-5.8,0.2V137.9z M278.1,115.6l-4.4,8.8h8.7L278.1,115.6z"/>
	<path d="M302.6,127.1h0.6c1.3,6.8,5.5,10.5,11.9,10.5c5.4,0,8.5-2.5,8.5-6.5c0-3.6-3.3-4.4-9-5.5c-4.4-0.8-7.7-1.5-10-3.4
		c-1.8-1.6-2.9-3.8-2.9-6.2c0-5.8,5.8-10.1,15.4-10.1c4.7,0,9.3,0.9,13.1,2.6l-2.4,7.7h-0.7c-1.4-5.7-4.7-8.6-9.9-8.6
		c-4.7,0-7.6,2.4-7.6,5.5c0,1.3,0.6,2.4,1.7,3.3c1.8,1.4,5.2,1.6,9.8,2.4c7,1.3,10.4,4.2,10.4,9.2c0,6.3-6.2,11.2-16.2,11.2
		c-6.1,0-11.5-1.2-15.7-3.2L302.6,127.1z"/>
	<path d="M339.1,110.2c3.4-2.8,7.9-4.3,13.3-4.3c5.4,0,9.8,1.4,13.4,4.3c4,3.3,6,7.4,6,12.3c0,4.8-2,8.9-6.1,12.3
		c-3.3,2.8-7.9,4.4-13.2,4.4c-5.4,0-10.1-1.7-13.5-4.5c-3.7-3.2-5.8-7.5-5.8-12.3C333.1,117.6,335.2,113.4,339.1,110.2 M362,122.6
		c0-10.1-3-15.1-9.6-15.1c-6.7,0-9.6,5-9.6,15.1c0,10.2,2.9,15.1,9.6,15.1C359,137.7,362,132.7,362,122.6"/>
	<path d="M392.7,139.3c-5.4,0-10.1-1.6-13.6-4.3c-4.1-3.2-6-7.2-6-12.6c0-9.8,8-16.5,20.2-16.5c5,0,9.6,1.2,13.8,3.6l-2.5,7.6
		l-0.7-0.1c-1-6.2-4.5-9.4-10-9.4c-6.7,0-11.1,5.2-11.1,14.5c0,9.9,4.2,15.4,11.2,15.4c6,0,9.3-3.6,10.5-10.9l0.7,0l2.8,8.3
		C403.6,137.9,398.6,139.3,392.7,139.3"/>
	<path d="M424,137.9v0.6c-3.3-0.1-6.1-0.1-8.4-0.1c-2.2,0-4.9,0-7.9,0.1v-0.6c3.6-0.7,3.8-3.6,3.8-10.5v-16.2c0-2.2-0.8-3.3-3.1-3.8
		v-0.7c2.6,0.1,5.1,0.2,7.3,0.2c2.4,0,4.9,0,7.8-0.2v0.7c-2.3,0.4-3.2,1.6-3.2,3.8v16.2C420.2,134.3,420.4,137.1,424,137.9"/>
	<path d="M421.9,137.9c2.6-1,5.2-4.6,8.4-10.5l11.5-21.4h0.4l12,21.2c3.8,6.7,6,10.5,8.2,10.8v0.6c-2.8-0.1-5.1-0.2-7.1-0.2
		c-2.3,0-5.5,0-9.5,0.2v-0.6c1.6-0.2,2.3-0.7,2.3-2c0-1.1-0.8-3.3-2.6-6.6l-1.7-3.4h-10.3l-0.8,1.7c-1.6,3.2-2.5,5.5-2.5,7
		c0,1.8,1.3,3.1,3.7,3.4v0.6c-2.5-0.1-4.6-0.2-6.1-0.2c-1.6,0-3.6,0-5.8,0.2V137.9z M438.7,115.6l-4.3,8.8h8.7L438.7,115.6z"/>
	<path d="M460.2,138c3.6-0.8,3.6-3.8,3.6-10.6v-16c0-2.5-0.8-3.7-3-4v-0.5c2.4,0,4.5,0,6.2,0c3.8,0,6.8-0.1,8.9-0.1
		c6.4,0,11.3,0.6,15.4,3.2c4.4,2.8,6.7,6.9,6.7,11.9c0,4.4-1.6,8.4-4.2,11c-4.3,4.4-9.4,5.7-17,5.7c-2.9,0-6-0.2-9.5-0.2
		c-1.9,0-4.3,0-7.1,0.1V138z M472.3,127.2c0,3.8,0.1,6.3,0.4,7.5c0.5,1.8,1.9,2.1,4.9,2.1c6.7,0,10.7-5.2,10.7-14.5
		c0-9.7-3.6-14-11.6-14c-1.4,0-2.9,0.1-4.4,0.2V127.2z"/>
	<path d="M505.4,110.2c3.4-2.8,7.9-4.3,13.3-4.3c5.4,0,9.8,1.4,13.4,4.3c4,3.3,6,7.4,6,12.3c0,4.8-2,8.9-6.1,12.3
		c-3.3,2.8-7.9,4.4-13.2,4.4c-5.4,0-10.1-1.7-13.5-4.5c-3.7-3.2-5.8-7.5-5.8-12.3C499.4,117.6,501.4,113.4,505.4,110.2 M528.3,122.6
		c0-10.1-3-15.1-9.6-15.1c-6.7,0-9.6,5-9.6,15.1c0,10.2,2.9,15.1,9.6,15.1C525.2,137.7,528.3,132.7,528.3,122.6"/>
	<path d="M541,127.1h0.6c1.3,6.8,5.5,10.5,11.9,10.5c5.4,0,8.5-2.5,8.5-6.5c0-3.6-3.3-4.4-9-5.5c-4.4-0.8-7.7-1.5-10-3.4
		c-1.8-1.6-2.9-3.8-2.9-6.2c0-5.8,5.8-10.1,15.4-10.1c4.7,0,9.3,0.9,13.1,2.6l-2.4,7.7h-0.7c-1.4-5.7-4.7-8.6-9.9-8.6
		c-4.7,0-7.6,2.4-7.6,5.5c0,1.3,0.6,2.4,1.7,3.3c1.8,1.4,5.2,1.6,9.8,2.4c7,1.3,10.4,4.2,10.4,9.2c0,6.3-6.2,11.2-16.2,11.2
		c-6.1,0-11.5-1.2-15.7-3.2L541,127.1z"/>
	<path d="M197.8,84.5c0-10.7,7.7-18.9,18.5-18.9c9.8,0,16.4,6.3,16.4,15.3c0,7.9-5.1,13.5-15.3,17.1c5.6,6.9,11.9,13.7,18.5,20.7
		c0.7-2.3,1-4.2,1-5.8c0-6.1-3.2-9.7-9.7-10.7v-1.4h22.1c-0.2,6.9-2.8,14.3-8.4,22.7c6.3,6.6,12.4,11.2,18.3,13.6v1.5
		c-6-0.1-11.3-0.2-15.9-0.2c-2.8,0-5.4,0-7.7,0.1l-3.5-3.9c-6,4.1-12.2,6-19,6c-15.1,0-24-7.9-24-19.3c0-7.9,5.2-14.3,15.6-19
		C200.1,96.4,197.8,90.5,197.8,84.5 M207.3,106c-1.8,2.1-2.7,5.5-2.7,10.1c0,10.2,7.2,18.4,15.8,18.4c3.4,0,6.3-0.8,8.6-2.8
		C220.3,122.6,213.1,113.9,207.3,106 M220.6,80.7c0-6.5-3-10.9-6.8-10.9c-3.7,0-6.4,3.6-6.4,9c0,5.5,2.6,10.2,7.3,16.3
		C218.6,92.1,220.6,87.1,220.6,80.7"/>
	<path class="st0" d="M94.2,92.7c8.9-2.2,21.9-2.6,33.5-1.9c14.4,0.3,26.4,6.2,38.4,12.4v48.3c-6-14.4-15.6-27.7-28.8-38.7
		C125.2,100.6,110.1,94.5,94.2,92.7"/>
	<path class="st1" d="M94,93.1c7.9,4.7,17.2,13.6,24.9,22.2c9.8,10.4,14,22.9,17.9,35.7l-34.9,34.1c6.2-14.3,9.1-30.6,7.8-47.6
		C110,120.5,103.8,105.6,94,93.1"/>
	<path class="st2" d="M93.3,93.2c2.2,8.8,2.4,21.7,1.6,33c-0.5,14.2-6.6,25.9-13.1,37.7l-49.1-0.4c14.6-5.8,28.4-15.2,39.7-28.1
		C84.9,123.6,91.3,108.8,93.3,93.2"/>
	<path class="st3" d="M93.3,93.2c-4.8,7.7-13.8,17-22.5,24.5c-10.5,9.7-23.3,13.8-36.2,17.6L0,100.8c14.5,6.1,31,9,48.2,7.7
		C65.5,108.9,80.6,102.8,93.3,93.2"/>
	<path class="st4" d="M92.7,92.6c-8.9,2.2-21.9,2.6-33.5,2c-14.4-0.3-26.4-6.2-38.4-12.4V33.7C26.9,48,36.3,61.5,49.6,72.4
		C61.7,84.6,76.8,90.7,92.7,92.6"/>
	<path class="st5" d="M92.7,91.9c-7.9-4.7-17.3-13.5-25-22.1C57.8,59.6,53.6,47,49.6,34.3L84.4,0c-6.1,14.3-9,30.6-7.5,47.6
		C76.6,64.6,82.8,79.5,92.7,91.9"/>
	<path class="st6" d="M93.3,91.9c-2-8.8-1.9-21.7-0.9-33.1c0.8-14.2,7.1-25.8,13.8-37.4l50.3,0.1c-14.8,5.5-30,15.8-41.5,28.5
		C102.4,61.6,95.7,76.3,93.3,91.9"/>
	<path class="st7" d="M94,92.2c4.7-7.8,13.7-17.1,22.3-24.7c10.4-9.8,23.1-14,36.1-17.9l34.8,34.2c-14.6-6-31.1-8.8-48.3-7.3
		C121.6,76.3,106.6,82.5,94,92.2"/>
</g>
</svg>
