<?xml version="1.0" encoding="utf-8"?>
<!-- Generator: Adobe Illustrator 28.0.0, SVG Export Plug-In . SVG Version: 6.00 Build 0)  -->
<svg version="1.1" id="Layer_1" xmlns="http://www.w3.org/2000/svg" xmlns:xlink="http://www.w3.org/1999/xlink" x="0px" y="0px"
	 viewBox="0 0 198.43 198.43" style="enable-background:new 0 0 198.43 198.43;" xml:space="preserve">
<style type="text/css">
	.st0{fill-rule:evenodd;clip-rule:evenodd;fill:#084831;}
	.st1{fill-rule:evenodd;clip-rule:evenodd;fill:#FFFFFF;}
	.st2{fill-rule:evenodd;clip-rule:evenodd;fill:#F9E543;}
</style>
<g>
	<path class="st0" d="M58.03,83.6h29.66c4.25,0,5.56,0.73,6.41,1.43c0.36,0.29,0.35,0.44,0.41-0.07c0.03-0.34,0.07-0.6,0.11-0.94
		c0.04-0.35,0.06-0.42,0.42-0.42h54.15c0.48,0,0.55,0.03,0.61,0.5c0.24,1.61,0.46,3.25,0.7,4.87c0.08,0.57,0.04,0.66,0.4,0.23
		c3.18-3.74,7.38-6.01,11.18-5.65c0.55,0.05,0.46,0.07,0.63-0.46c0.59-1.83,1.13-3.49,1.72-5.31c0.23-0.71,0.24-0.71,0.61-0.1
		c2.84,4.64,5.66,9.21,8.49,13.84c0.79,1.29,0.99,1.15-0.42,1.73c-4.87,2-9.34,3.85-14.2,5.86c-1.14,0.47-1.38,0.57-1.01-0.61
		c0.13-0.41,0.34-0.88,0.25-0.94c-0.05-0.03-0.21,0.09-0.55,0.47c-3,3.32-4.91,6.63-6.19,9.94c-0.28,0.72-0.33,0.58,0.44,0.58h2.88
		c1.17,0,1.66,0.65,1.66,1.69v3.1c0,1.6-0.81,2.16-2.02,2.16h-27.32c-0.93,0-0.96,0.06-0.81-0.85c0.15-0.98,0.31-1.97,0.46-2.94
		c0.06-0.33,0.18-0.42-0.18-0.42h-0.26c-0.29,0-0.3,0.22-0.43,0.46c-0.5,0.95-1.01,1.89-1.51,2.84c-0.51,0.95-0.44,0.92-1.52,0.92
		H92.06c-1.11,0-1.06-0.02-0.94-1.11c0.07-0.62,0.11-0.98,0.18-1.6c0.11-0.91,0.02-0.74-0.54-0.29c-2.87,2.36-6.72,2.99-10.9,2.99
		H68.41c-1,0-1.06-0.03-0.75-0.94c0.13-0.41,0.27-0.82,0.4-1.22c-2.83,2-6.03,2.86-9.1,2.86c-3.57,0-6.79-1.5-8.13-4.26
		c-4.97,4.63-12.75,4.82-15.08,3.64c-0.63,1.79-1.24,3.57-1.88,5.37c-0.13,0.3-0.26,0.31-0.47-0.01c-2.99-4.94-5.95-9.83-8.93-14.77
		c-0.41-0.66-0.21-0.7,0.53-1.02c3.96-1.67,7.92-3.33,11.89-5c0.58-0.24,0.56-0.16,0.42-0.75c-1.67-7.2,1.68-12.2,6.25-14.51
		c4.35-2.2,9.81-1.95,13.12,0.14c0.45,0.29,0.4,0.39,0.57-0.14c0.1-0.31,0.2-0.62,0.31-0.94C57.69,83.6,57.64,83.6,58.03,83.6"/>
	<path class="st1" d="M149.92,111.11h1.77v0.29h-0.69v1.69h-0.38v-1.69h-0.7V111.11z M151.96,111.11h0.55l0.54,1.59l0.56-1.59h0.55
		v1.99h-0.36v-1.64l-0.56,1.64h-0.37l-0.55-1.64v1.64h-0.35V111.11z"/>
	<path class="st1" d="M59.25,86.18h7.15c-2,6.09-4.2,12.79-6.21,18.88c-0.88,2.69,2.72,2.69,3.63-0.06c2-6.08,4.19-12.75,6.19-18.82
		h7.4c-2.06,6.25-4.03,12.27-6.09,18.52c-1.76,5.35-6.36,9.14-12.14,9.14c-5.77,0-7.78-3.81-6.01-9.16
		C55.22,98.44,57.2,92.43,59.25,86.18 M27.76,106.85c3.23-1.36,6.45-2.72,9.68-4.08c-0.38,1.16-0.76,2.33-1.15,3.49
		c1.55,1.02,5.99,1.61,6.75-0.71c0.56-1.29-0.63-2.66-1.79-4.39c-1.37-2.03-2.74-4.53-1.65-7.85c1.54-4.69,5.62-7.39,9.92-7.48
		c2.25-0.05,4.66,0.58,6.67,1.95c-0.87,1.8-1.81,3.73-2.69,5.53c-1.6-1.14-5.02-2.09-6.21,0.18c-1.28,2.46,1.54,5.15,2.75,6.97
		c1.74,2.62,1.79,5.09,0.82,7.15c-1.63,3.48-6.14,5.85-10.45,5.93c-2.34,0.04-4.2-0.37-6.28-0.71c-0.34,1.03-0.67,2.05-1.01,3.07
		C31.34,112.88,29.55,109.86,27.76,106.85 M79.65,86.18h10.03c7.38,0,5.97,10.41-0.1,13.03c7.4,5.45,0.6,14.02-7.59,14.02H70.75
		C73.72,104.22,76.68,95.2,79.65,86.18 M84.59,92.11h2c1.27,0,1.94,1.01,1.49,2.25l-0.1,0.27c-0.45,1.24-1.84,2.25-3.11,2.25H83.2
		L84.59,92.11z M81.56,102.54h2c1.27,0,2.14,0.98,1.94,2.17l-0.04,0.26c-0.2,1.19-1.39,2.18-2.66,2.18h-2.57L81.56,102.54z"/>
	<path class="st2" d="M140.92,86.18h6.55c0.48,3.33,0.95,6.67,1.44,10.01c4.7-6.87,8.71-10.76,15.75-10.01c0.33-1,0.66-2,0.99-3
		c1.69,2.76,3.39,5.52,5.09,8.28c-3.03,1.27-6.04,2.54-9.07,3.82c0.36-1.09,0.72-2.19,1.08-3.28c-1.7-1.4-11,4.66-15.83,21.23h-7.55
		c1.31-3.97,2.61-7.94,3.92-11.91C142.48,96.28,141.7,91.23,140.92,86.18 M130.18,86.18h9.58l-3.13,27.05h-7.12l0.75-4.52h-5.68
		l-2.43,4.52h-6.47L130.18,86.18z M132.82,93.34l-1.68,10.11h-3.75L132.82,93.34z M97.05,86.18l-3.15,27.05h6.85l7.98-17.15
		l-2.85,17.15h6.62l14.5-27.05h-6.95l-7.84,16.81l2.79-16.81H109l-8.14,16.97l2.85-16.97H97.05z"/>
</g>
</svg>
