<?xml version="1.0" encoding="utf-8"?>
<!-- Generator: Adobe Illustrator 28.0.0, SVG Export Plug-In . SVG Version: 6.00 Build 0)  -->
<svg version="1.1" id="Layer_1" xmlns="http://www.w3.org/2000/svg" xmlns:xlink="http://www.w3.org/1999/xlink" x="0px" y="0px"
	 viewBox="0 0 198.43 198.43" style="enable-background:new 0 0 198.43 198.43;" xml:space="preserve">
<style type="text/css">
	.st0{fill:#020000;}
	.st1{fill:#E23434;}
</style>
<g>
	<path class="st0" d="M32.36,98.3c1.23,0.52,2.15,1.21,2.77,2.08c0.62,0.86,0.93,1.89,0.93,3.07c0,1.73-0.55,3.12-1.65,4.18
		c-1.1,1.06-2.56,1.58-4.38,1.58c-1.48,0-2.73-0.38-3.73-1.14c-1-0.76-1.68-1.83-2.03-3.23l2.03-1c0.27,1.14,0.73,2,1.36,2.59
		c0.63,0.59,1.42,0.88,2.37,0.88c1.12,0,2.03-0.32,2.73-0.97c0.69-0.65,1.04-1.49,1.04-2.52c0-0.84-0.24-1.57-0.73-2.19
		c-0.48-0.62-1.22-1.14-2.19-1.57l-2.29-0.98c-1.25-0.52-2.19-1.19-2.8-2.01c-0.61-0.82-0.92-1.8-0.92-2.95
		c0-1.33,0.5-2.44,1.49-3.31c0.99-0.87,2.26-1.31,3.81-1.31c1.13,0,2.11,0.24,2.94,0.72c0.83,0.48,1.47,1.18,1.94,2.12l-1.85,1.18
		c-0.42-0.73-0.89-1.27-1.42-1.62s-1.12-0.53-1.78-0.53c-0.84,0-1.53,0.26-2.07,0.77c-0.54,0.51-0.8,1.17-0.8,1.96
		c0,0.67,0.21,1.24,0.62,1.73c0.41,0.49,1.05,0.92,1.92,1.3L32.36,98.3z"/>
	<path class="st0" d="M111.42,89.2l8.57,19.53h-2.43l-2.45-5.76h-7.36l-2.45,5.76h-2.43L111.42,89.2z M111.42,94.14l-3,6.92h6
		L111.42,94.14z"/>
	<path class="st0" d="M165.59,89.2l8.57,19.53h-2.43l-2.44-5.76h-7.36l-2.45,5.76h-2.43L165.59,89.2z M165.59,94.14l-3,6.92h6
		L165.59,94.14z"/>
	<path class="st0" d="M140.71,98.3c1.23,0.52,2.15,1.21,2.77,2.08c0.62,0.86,0.93,1.89,0.93,3.07c0,1.73-0.55,3.12-1.65,4.18
		c-1.1,1.06-2.56,1.58-4.38,1.58c-1.48,0-2.73-0.38-3.73-1.14c-1-0.76-1.68-1.83-2.03-3.23l2.03-1c0.27,1.14,0.73,2,1.36,2.59
		c0.63,0.59,1.42,0.88,2.37,0.88c1.12,0,2.03-0.32,2.73-0.97c0.7-0.65,1.04-1.49,1.04-2.52c0-0.84-0.24-1.57-0.73-2.19
		c-0.48-0.62-1.22-1.14-2.19-1.57l-2.29-0.98c-1.25-0.52-2.18-1.19-2.8-2.01c-0.61-0.82-0.92-1.8-0.92-2.95
		c0-1.33,0.5-2.44,1.49-3.31c1-0.87,2.27-1.31,3.81-1.31c1.13,0,2.11,0.24,2.94,0.72c0.83,0.48,1.47,1.18,1.94,2.12l-1.85,1.18
		c-0.42-0.73-0.89-1.27-1.42-1.62c-0.52-0.35-1.12-0.53-1.78-0.53c-0.84,0-1.53,0.26-2.07,0.77c-0.54,0.51-0.8,1.17-0.8,1.96
		c0,0.67,0.21,1.24,0.62,1.73c0.41,0.49,1.05,0.92,1.92,1.3L140.71,98.3z"/>
	<path class="st0" d="M52.41,101.63c0,1.9,0.39,3.29,1.17,4.18c0.78,0.89,2.01,1.33,3.68,1.33c1.67,0,2.9-0.44,3.68-1.33
		c0.78-0.89,1.17-2.28,1.17-4.18V89.94h2.18v11.69c0,2.54-0.58,4.44-1.75,5.7c-1.17,1.26-2.93,1.89-5.28,1.89
		c-2.36,0-4.12-0.63-5.29-1.89c-1.17-1.26-1.75-3.16-1.75-5.7v-0.9h2.19V101.63z"/>
	<rect x="50.21" y="97.13" class="st1" width="2.19" height="1.8"/>
	<rect x="50.21" y="93.54" class="st1" width="2.19" height="1.8"/>
	<rect x="50.21" y="89.94" class="st1" width="2.19" height="1.8"/>
	<polygon class="st0" points="87.69,89.91 90.51,89.91 81.65,98.67 90.82,108.74 87.91,108.74 80.17,100.1 79.65,100.62 
		79.65,108.74 77.54,108.74 77.54,89.91 79.65,89.91 79.65,97.97 	"/>
</g>
</svg>
