<?xml version="1.0" encoding="utf-8"?>
<!-- Generator: Adobe Illustrator 28.0.0, SVG Export Plug-In . SVG Version: 6.00 Build 0)  -->
<svg version="1.1" id="Layer_1" xmlns="http://www.w3.org/2000/svg" xmlns:xlink="http://www.w3.org/1999/xlink" x="0px" y="0px"
	 viewBox="0 0 198.43 198.43" style="enable-background:new 0 0 198.43 198.43;" xml:space="preserve">
<style type="text/css">
	.st0{fill-rule:evenodd;clip-rule:evenodd;fill:#080706;}
	.st1{fill-rule:evenodd;clip-rule:evenodd;fill:#E6352F;}
	.st2{fill:none;stroke:#151515;stroke-width:0.6402;stroke-miterlimit:10;}
	.st3{fill:none;stroke:#151515;stroke-width:0.6829;stroke-miterlimit:10;}
	.st4{fill-rule:evenodd;clip-rule:evenodd;fill:#F0E73F;}
	.st5{fill:none;stroke:#151515;stroke-width:0.352;stroke-miterlimit:10;}
</style>
<g>
	<path class="st0" d="M104.18,89.47c-1.48,0-2.61,0.93-3.41,2.14c-0.8,1.22-1.28,2.73-1.44,3.89c-0.44,3.07,0.06,6.7,1.49,9.51
		c1.12,2.21,2.94,4.05,5.78,4.81c0.43,0.11,0.97,0.24,0.97,0.24l0.88-3.68c0.03,0-3.52-0.41-5.61-2.4c-1.6-1.54-1.9-4.82-1.82-4.82
		c3.34,5.42,8.07,3.99,8.07,3.99l0.85-3.57c0.05,0-2.43-0.11-3.61-0.36c-1.56-0.32-2.08-0.99-2.05-0.99
		c1.62-0.07,3.32-0.52,4.64-1.44c2.7-1.88,3.1-4.26,3.49-7.11h-3.8c-0.15,5.27-3.36,6.15-3.36,6.15c0.38-0.31,0.77-0.74,1.1-1.23
		c0.69-1.01,0.86-2.29,0.5-3.32C106.5,90.25,105.61,89.48,104.18,89.47"/>
	<path class="st1" d="M31.23,90.36L31.23,90.36l1.43-4c-1.4-0.28-2.89-0.48-4.47-0.48c-5.96,0-8.23,3.48-8.74,4.65
		c-1.76,3.98,3.56,6.01,2.68,7.97c-0.5,1.17-2.19,1.32-3.05,1.32c-1.53,0-2.91-0.53-4.02-1.12l-1.46,4.2
		c1.56,0.3,3.22,0.56,4.97,0.56c5.62,0,8.32-3.21,9.07-4.94c1.66-3.76-3.73-5.65-2.83-7.66c0.49-1.07,2.17-1.36,2.98-1.36
		C29.09,89.51,30.25,89.89,31.23,90.36"/>
	<path class="st2" d="M31.23,90.36L31.23,90.36l1.43-4c-1.4-0.28-2.89-0.48-4.47-0.48c-5.96,0-8.23,3.48-8.74,4.65
		c-1.76,3.98,3.56,6.01,2.68,7.97c-0.5,1.17-2.19,1.32-3.05,1.32c-1.53,0-2.91-0.53-4.02-1.12l-1.46,4.2
		c1.56,0.3,3.22,0.56,4.97,0.56c5.62,0,8.32-3.21,9.07-4.94c1.66-3.76-3.73-5.65-2.83-7.66c0.49-1.07,2.17-1.36,2.98-1.36
		C29.09,89.51,30.25,89.89,31.23,90.36z"/>
	<path class="st1" d="M38.72,101.37L38.72,101.37l-0.74,1.68h4.93c2.01-4.37,4.16-8.78,6.52-13.17h-5.19
		c-1.24,2.62-2.62,5.66-3.62,7.14c-0.79,1.19-1.97,2.25-3.35,2.25c-1.47,0-1.42-1.09-0.89-2.36c1.02-2.32,2.43-4.67,3.57-7.03H34.7
		c-1.15,2.62-4.27,8.64-4.62,9.49c-0.98,2.21-0.68,4,3.04,4c1.93,0,3.8-0.46,5.58-2.05L38.72,101.37z"/>
	<path class="st2" d="M38.72,101.37L38.72,101.37l-0.74,1.68h4.93c2.01-4.37,4.16-8.78,6.52-13.17h-5.19
		c-1.24,2.62-2.62,5.66-3.62,7.14c-0.79,1.19-1.97,2.25-3.35,2.25c-1.47,0-1.42-1.09-0.89-2.36c1.02-2.32,2.43-4.67,3.57-7.03H34.7
		c-1.15,2.62-4.27,8.64-4.62,9.49c-0.98,2.21-0.68,4,3.04,4c1.93,0,3.8-0.46,5.58-2.05L38.72,101.37z"/>
	<path class="st1" d="M56.28,93.74c0.71-0.17,1.41-0.3,2.08-0.3c2,0,2.48,1.27,1.64,3.23c-0.69,1.63-2.29,3.65-4.2,3.65
		c-1.84,0-1.82-1.81-1.16-3.4C55.11,95.85,55.65,94.78,56.28,93.74 M73.53,94.97c0.66-1.14,2.01-2.33,3.49-2.33
		c1.32,0,1.62,0.79,0.93,2.33H73.53z M81.73,97.36c0.45-0.66,0.78-1.3,1.08-1.96c1.64-3.68,0.09-5.7-4.41-5.7
		c-7.3,0-10.54,5.94-11.19,7.32c-2.3,5.16,0.95,6.43,5.31,6.43c1.58,0,3.29-0.18,4.99-0.5l2.3-3.68c-1.72,0.42-3.55,0.87-5.17,0.87
		c-1.81,0-3.28-0.74-2.35-2.77H81.73z M48.69,109.96c1.07-2.53,2.27-5.08,3.44-7.62c0.89,1.13,2.31,1.7,4.08,1.7
		c3.88,0,7.33-3.63,8.84-7.18c1.58-3.72,1.21-7.13-4.31-7.13c-3.03,0-5.56,0.29-8.16,0.7c-2.77,6.51-5.93,13.03-9.23,19.53H48.69z"
		/>
	<path class="st3" d="M56.28,93.74c0.71-0.17,1.41-0.3,2.08-0.3c2,0,2.48,1.27,1.64,3.23c-0.69,1.63-2.29,3.65-4.2,3.65
		c-1.84,0-1.82-1.81-1.16-3.4C55.11,95.85,55.65,94.78,56.28,93.74z M73.53,94.97c0.66-1.14,2.01-2.33,3.49-2.33
		c1.32,0,1.62,0.79,0.93,2.33H73.53z M81.73,97.36c0.45-0.66,0.78-1.3,1.08-1.96c1.64-3.68,0.09-5.7-4.41-5.7
		c-7.3,0-10.54,5.94-11.19,7.32c-2.3,5.16,0.95,6.43,5.31,6.43c1.58,0,3.29-0.18,4.99-0.5l2.3-3.68c-1.72,0.42-3.55,0.87-5.17,0.87
		c-1.81,0-3.28-0.74-2.35-2.77H81.73z M48.69,109.96c1.07-2.53,2.27-5.08,3.44-7.62c0.89,1.13,2.31,1.7,4.08,1.7
		c3.88,0,7.33-3.63,8.84-7.18c1.58-3.72,1.21-7.13-4.31-7.13c-3.03,0-5.56,0.29-8.16,0.7c-2.77,6.51-5.93,13.03-9.23,19.53H48.69z"
		/>
	<path class="st1" d="M92.73,91.43L92.73,91.43l0.72-1.51h-4.99c-2.65,5.94-4.5,9.53-6.4,13.1h5.23c1.43-3.21,2.45-5.44,3.38-6.78
		c1.04-1.49,2.65-2.46,4.27-2.46c0.47,0,0.9,0.13,1.28,0.26l1.74-4.19c-0.31-0.11-0.68-0.13-1.04-0.13c-1.32,0-2.86,0.73-4.12,1.67
		L92.73,91.43z"/>
	<path class="st2" d="M92.73,91.43L92.73,91.43l0.72-1.51h-4.99c-2.65,5.94-4.5,9.53-6.4,13.1h5.23c1.43-3.21,2.45-5.44,3.38-6.78
		c1.04-1.49,2.65-2.46,4.27-2.46c0.47,0,0.9,0.13,1.28,0.26l1.74-4.19c-0.31-0.11-0.68-0.13-1.04-0.13c-1.32,0-2.86,0.73-4.12,1.67
		L92.73,91.43z"/>
	<path class="st4" d="M169.51,96.53L169.51,96.53c-0.89,3.81,1.52,6.88,5.38,6.88c3.86,0,7.71-3.08,8.61-6.88
		c0.89-3.78-1.52-6.86-5.38-6.86C174.25,89.66,170.4,92.74,169.51,96.53 M175.92,99.03L175.92,99.03c-1.4,0-2.27-1.12-1.95-2.5
		c0.32-1.37,1.72-2.49,3.13-2.49c1.4,0,2.27,1.12,1.95,2.49C178.72,97.91,177.33,99.03,175.92,99.03 M163.13,97.5
		c-0.61,0.88-1.66,1.49-2.72,1.49c-1.42,0-2.31-1.13-1.99-2.51c0.34-1.38,1.76-2.49,3.18-2.49c1.15,0,1.96,0.71,2.06,1.72l4.11-3.2
		c-0.87-1.77-2.71-2.93-5.11-2.93c-3.93,0-7.85,3.09-8.75,6.9c-0.9,3.82,1.54,6.91,5.47,6.91c2.36,0,4.7-1.11,6.41-2.82L163.13,97.5
		z M148.61,98.71c1.23,0,2.45-0.97,2.73-2.16c0.28-1.18-0.48-2.15-1.71-2.15s-2.45,0.97-2.75,2.15
		C146.61,97.75,147.38,98.71,148.61,98.71 M146.65,89.64L146.65,89.64h-4.66l-0.18,0.71c-0.69-0.27-1.48-0.42-2.33-0.42
		c-3.82,0-7.61,2.9-8.5,6.48c-0.88,3.58,1.49,6.49,5.3,6.49c0.86,0,1.72-0.14,2.55-0.41l-0.13,0.5h4.66L146.65,89.64z M137.3,98.77
		L137.3,98.77c-1.38,0-2.25-1.06-1.93-2.36c0.32-1.29,1.71-2.35,3.09-2.35c1.38,0,2.24,1.06,1.93,2.35
		C140.07,97.71,138.69,98.77,137.3,98.77 M128.42,96.62L128.42,96.62c0.89-3.78-1.52-6.88-5.38-6.88c-0.57,0-1.14,0.08-1.69,0.2
		l0.08-0.33h-5.39l-4.78,20.35h5.39l1.56-6.66c0.5,0.13,1.04,0.2,1.61,0.2C123.68,103.51,127.53,100.43,128.42,96.62 M120.84,99.13
		L120.84,99.13c-1.41,0-2.29-1.12-1.97-2.51c0.33-1.37,1.73-2.49,3.14-2.49c1.4,0,2.27,1.12,1.95,2.49
		C123.65,98.01,122.24,99.13,120.84,99.13"/>
	<path class="st5" d="M169.51,96.53L169.51,96.53c-0.89,3.81,1.52,6.88,5.38,6.88c3.86,0,7.71-3.08,8.61-6.88
		c0.89-3.78-1.52-6.86-5.38-6.86C174.25,89.66,170.4,92.74,169.51,96.53z M175.92,99.03L175.92,99.03c-1.4,0-2.27-1.12-1.95-2.5
		c0.32-1.37,1.72-2.49,3.13-2.49c1.4,0,2.27,1.12,1.95,2.49C178.72,97.91,177.33,99.03,175.92,99.03z M163.13,97.5
		c-0.61,0.88-1.66,1.49-2.72,1.49c-1.42,0-2.31-1.13-1.99-2.51c0.34-1.38,1.76-2.49,3.18-2.49c1.15,0,1.96,0.71,2.06,1.72l4.11-3.2
		c-0.87-1.77-2.71-2.93-5.11-2.93c-3.93,0-7.85,3.09-8.75,6.9c-0.9,3.82,1.54,6.91,5.47,6.91c2.36,0,4.7-1.11,6.41-2.82L163.13,97.5
		z M148.61,98.71c1.23,0,2.45-0.97,2.73-2.16c0.28-1.18-0.48-2.15-1.71-2.15s-2.45,0.97-2.75,2.15
		C146.61,97.75,147.38,98.71,148.61,98.71z M146.65,89.64L146.65,89.64h-4.66l-0.18,0.71c-0.69-0.27-1.48-0.42-2.33-0.42
		c-3.82,0-7.61,2.9-8.5,6.48c-0.88,3.58,1.49,6.49,5.3,6.49c0.86,0,1.72-0.14,2.55-0.41l-0.13,0.5h4.66L146.65,89.64z M137.3,98.77
		L137.3,98.77c-1.38,0-2.25-1.06-1.93-2.36c0.32-1.29,1.71-2.35,3.09-2.35c1.38,0,2.24,1.06,1.93,2.35
		C140.07,97.71,138.69,98.77,137.3,98.77z M128.42,96.62L128.42,96.62c0.89-3.78-1.52-6.88-5.38-6.88c-0.57,0-1.14,0.08-1.69,0.2
		l0.08-0.33h-5.39l-4.78,20.35h5.39l1.56-6.66c0.5,0.13,1.04,0.2,1.61,0.2C123.68,103.51,127.53,100.43,128.42,96.62z M120.84,99.13
		L120.84,99.13c-1.41,0-2.29-1.12-1.97-2.51c0.33-1.37,1.73-2.49,3.14-2.49c1.4,0,2.27,1.12,1.95,2.49
		C123.65,98.01,122.24,99.13,120.84,99.13z"/>
</g>
</svg>
