<?xml version="1.0" encoding="utf-8"?>
<!-- Generator: Adobe Illustrator 28.0.0, SVG Export Plug-In . SVG Version: 6.00 Build 0)  -->
<svg version="1.1" id="Capa_1" xmlns="http://www.w3.org/2000/svg" xmlns:xlink="http://www.w3.org/1999/xlink" x="0px" y="0px"
	 viewBox="0 0 200 200" style="enable-background:new 0 0 200 200;" xml:space="preserve">
<style type="text/css">
	.st0{fill:#BF0411;}
</style>
<g>
	<path class="st0" d="M27.9,97.7h2.8v-3.2c0,0-10-1.9-14,0.4c0,0-1.8,1.1-1.8,3.4c0,0-0.4,2.3,3.5,3.2c0,0,0.7,0.1,1.5,0.2l4.7,0.4
		c0,0,1.2,0.1,1.2,0.8c0,0,0,0.6-0.9,0.8c0,0-2.4,0.4-5.2,0c0,0-1.4-0.2-1.6-1.8h-2.8v3.4c0,0,5,1.9,11.1,0.8c0,0,4.5-0.5,5.3-3.4
		c0,0,0.7-2.3-0.9-3.6c0,0-0.7-0.7-2.3-0.9c0,0-2.5-0.4-6.2-0.5c0,0-0.9,0.1-1-0.6c0,0,0.2-0.7,0.7-0.8c0,0,0.8-0.3,2.4-0.3
		C24.3,96,27.9,95.8,27.9,97.7z"/>
	<path class="st0" d="M31.5,93.9h7.9v7.3c0,0,0.4,1.8,2.4,1.7c0,0,3.6,0.2,4-3.3v-2.8c0,0,0-0.5-0.5-0.5h-1.6v-2.4h7.5v8.6
		c0,0,0.1,1.6,2.1,1.4v2.5h-7.4v-1.8c0,0-3.1,2.2-6.5,2.1c0,0-4.5,0.3-5.7-4.1v-4.9c0,0,0.2-1.1-1-1.4h-1.2L31.5,93.9L31.5,93.9z"/>
	<path class="st0" d="M68.5,93.9c3.7,0.2,3.7,3.8,3.7,3.8c-0.2,3.9-3.9,4-3.9,4h-6.7v1.5c0.3,0.6,1.7,0.7,1.7,0.7h0.5v2.5h-10V104
		c2.1,0.1,2.6-1.9,2.6-1.9v-4.3c0-1-1.4-1.4-1.4-1.4h-1.1v-2.4H68.5z M61.6,96.3v3h3.6c0,0,1.3,0,1.4-1.5c0,0,0.2-1.1-1.4-1.5
		L61.6,96.3L61.6,96.3z"/>
	<path class="st0" d="M72.1,93.9v2.5h1.5c0,0,0.9,0,0.9,1.3v5c0,0,0,1.1-1.2,1.2h-1.2v2.4h17.5v-4.6h-2.5v1c0,0,0,1-1.2,1.2h-6.1
		v-2.6h6.9V99h-6.9v-2.5h5.9c0,0,1.2,0,1.3,1.3v0.8h2.5v-4.6H72.1z"/>
	<path class="st0" d="M101.9,96.3c1.5,0.3,1.4,1.5,1.4,1.5c-0.1,1.5-1.4,1.5-1.4,1.5h-3.6v-3H101.9z M90.4,93.9v2.4h1.2
		c0,0,1.4,0.3,1.4,1.4v4.3c0,0-0.2,2-2.6,2.1v2.3h8.9v-2.5c0,0-1,0.2-1.4-0.9v-1.3c0,0,0.6-0.2,2.6,1.9l2.8,2.8h5.7V104
		c0,0-1.1,0.1-2-0.7l-1.5-1.6c0,0,3.8,0,4-4c0,0,0.1-3.4-3.7-3.8C105.8,93.9,90.4,93.9,90.4,93.9z"/>
	<path class="st0" d="M109.4,93.9v2.5h1.2c0,0,1-0.2,1,1v5.5c0,0-0.2,1-1.1,1h-1.1v2.4h6.8v-2h-0.5c0,0-0.9-0.1-1-1.1v-4l3.7,7.1h3
		l3.7-7v3.8c0,0,0.2,1-0.8,1.1h-1v2.1h9.3V104h-1.5c0,0-0.9,0.1-1-0.8v-5.5c0,0,0-0.9,0.9-0.9h1.2v-2.9h-8.7l-2.7,5.7l-2.6-5.7
		H109.4z"/>
	<path class="st0" d="M146.4,93.9l4.9,8.6c1.2,1.8,2.2,1.5,2.2,1.5v2.4h-9.3V104h1c0.5-0.2,0.4-0.6,0.4-0.6
		c-0.1-0.5-0.5-0.5-0.5-0.5h-5.1c-0.4,0-0.5,0.5-0.5,0.5c0,0.5,0.5,0.6,0.5,0.6h0.9v2.4h-7.8v-2.1c1.3-0.2,2.1-1,2.1-1l4-5.1
		c0.6-0.6,0.5-1,0.5-1c0-0.7-0.7-0.8-0.7-0.8h-1.5v-2.5H146.4z M141.3,100.8h3.5l-1.7-2.5L141.3,100.8z"/>
	<path class="st0" d="M154.3,93.9v2.4h1.1c0,0,0.8-0.2,1.6,0.5l3.8,3.5l-5,3.2c0,0-0.4,0.5-0.8,0.4h-0.7v2.4h8.9v-2.4h-1
		c0,0-0.9-0.5-0.1-1.1l1-0.5l3.7,3.9h7.3V104h-0.6c0,0-0.4,0-0.8-0.3l-4.8-4l4.3-2.7c0,0,0.7-0.6,1.8-0.5v-2.6h-9.3v2.4h0.7
		c0,0,0.6,0.1,0.6,0.6c0,0,0.1,0.3-0.3,0.4l-0.6,0.4l-3.8-3.8H154.3z"/>
	<path class="st0" d="M174.8,93.9v2.4c0,0,2.3,0,2.3,1.9v4.3c0,0-0.1,1.5-2.3,1.4v2.4H185v-2.4c0,0-2.2,0.1-2.4-1.7v-4.3
		c0,0,0-1.7,2.4-1.7v-2.5H174.8z"/>
</g>
</svg>
