<?xml version="1.0" encoding="utf-8"?>
<!-- Generator: Adobe Illustrator 28.0.0, SVG Export Plug-In . SVG Version: 6.00 Build 0)  -->
<svg version="1.1" id="Layer_1" xmlns="http://www.w3.org/2000/svg" xmlns:xlink="http://www.w3.org/1999/xlink" x="0px" y="0px"
	 viewBox="0 0 198.43 198.43" style="enable-background:new 0 0 198.43 198.43;" xml:space="preserve">
<style type="text/css">
	.st0{fill-rule:evenodd;clip-rule:evenodd;fill:#343F6F;}
	.st1{fill-rule:evenodd;clip-rule:evenodd;fill:#E7348E;}
	.st2{fill-rule:evenodd;clip-rule:evenodd;fill:#FFFDFC;}
	.st3{fill-rule:evenodd;clip-rule:evenodd;fill:#151515;}
	.st4{fill-rule:evenodd;clip-rule:evenodd;fill:#EFE03E;}
</style>
<g>
	<path class="st0" d="M183,79.42H14.17V89.8h1.26c2.94,0,5.33,2.39,5.33,5.33c0,2.94-2.39,5.34-5.33,5.34h-1.26V119h170.08v-18.53
		H183c-2.94,0-5.34-2.39-5.34-5.34c0-2.94,2.39-5.33,5.34-5.33h1.26V79.42H183z"/>
	<path class="st1" d="M21.92,116.36h-1.08v-2.5c0-0.61-0.27-0.81-0.59-0.81c-0.54,0-0.74,0.36-0.74,0.84v2.47h-1.08v-2.48
		c0-0.35,0-0.84-0.65-0.84c-0.51,0-0.67,0.36-0.67,0.81v2.51h-1.08v-4.12h1.04v0.6h0.02c0.14-0.27,0.44-0.71,1.17-0.71
		c0.6,0,0.87,0.22,1.15,0.66c0.14-0.2,0.44-0.66,1.1-0.66c0.81,0,1.43,0.47,1.43,1.38V116.36z"/>
	<path class="st1" d="M30.43,116.36h-1.04v-0.58h-0.02c-0.25,0.44-0.68,0.69-1.25,0.69c-0.81,0-1.4-0.46-1.4-1.52v-2.71h1.08v2.55
		c0,0.63,0.37,0.76,0.7,0.76c0.36,0,0.84-0.2,0.84-0.94v-2.38h1.08V116.36z"/>
	<path class="st1" d="M38.93,114.86c-0.04,0.43-0.37,1.61-1.88,1.61c-1.55,0-1.9-1.18-1.9-2.05c0-1.33,0.58-2.28,1.97-2.28
		c0.65,0,1.72,0.3,1.82,1.58h-1.1c-0.05-0.27-0.22-0.7-0.72-0.67c-0.68,0-0.86,0.68-0.86,1.19c0,0.45,0.02,1.34,0.84,1.34
		c0.55,0,0.74-0.53,0.74-0.72H38.93z"/>
	<path class="st1" d="M47.29,116.36H46.2v-2.5c0-0.3-0.02-0.81-0.7-0.81c-0.48,0-0.85,0.33-0.85,0.95v2.36h-1.08v-5.56h1.08v1.97
		h0.02c0.14-0.34,0.6-0.64,1.19-0.64c0.81,0,1.43,0.47,1.43,1.38V116.36z"/>
	<path class="st1" d="M54.11,113.05c-0.83,0-0.99,0.73-0.99,1.25s0.16,1.25,0.99,1.25c0.84,0,0.99-0.73,0.99-1.25
		S54.94,113.05,54.11,113.05 M54.11,116.47c-1.11,0-2.11-0.68-2.11-2.17c0-1.49,1-2.17,2.11-2.17c1.11,0,2.11,0.68,2.11,2.17
		C56.21,115.79,55.21,116.47,54.11,116.47"/>
	<path class="st1" d="M72.91,116.36h-1.08v-2.5c0-0.61-0.27-0.81-0.59-0.81c-0.54,0-0.74,0.36-0.74,0.84v2.47h-1.09v-2.48
		c0-0.35,0-0.84-0.65-0.84c-0.51,0-0.67,0.36-0.67,0.81v2.51h-1.08v-4.12h1.04v0.6h0.02c0.14-0.27,0.44-0.71,1.17-0.71
		c0.6,0,0.87,0.22,1.15,0.66c0.14-0.2,0.44-0.66,1.1-0.66c0.81,0,1.43,0.47,1.43,1.38V116.36z"/>
	<path class="st1" d="M79.83,111.68h-0.78l0.73-1.13h1.19L79.83,111.68z M80.13,114.35c-0.11,0.08-0.29,0.16-0.74,0.22
		c-0.4,0.07-0.74,0.17-0.74,0.62c0,0.38,0.29,0.5,0.5,0.5c0.48,0,0.97-0.31,0.97-0.81V114.35z M81.18,115.55
		c0,0.49,0.11,0.6,0.24,0.64v0.16h-1.17c-0.06-0.19-0.08-0.26-0.1-0.49c-0.25,0.26-0.6,0.6-1.33,0.6c-0.62,0-1.25-0.35-1.25-1.2
		c0-0.8,0.51-1.22,1.2-1.32l0.97-0.15c0.17-0.02,0.38-0.09,0.38-0.32c0-0.46-0.43-0.48-0.71-0.48c-0.54,0-0.63,0.33-0.66,0.57H77.7
		c0.13-1.26,1-1.44,1.84-1.44c0.58,0,1.64,0.18,1.64,1.19V115.55z"/>
	<path class="st1" d="M88.43,113.5c-0.05-0.26-0.14-0.54-0.73-0.54c-0.59,0-0.67,0.22-0.67,0.4c0,0.65,2.58,0.18,2.58,1.7
		c0,1.2-1.16,1.42-1.8,1.42c-0.94,0-1.95-0.32-1.98-1.42h1.11c0,0.35,0.22,0.6,0.9,0.6c0.56,0,0.69-0.27,0.69-0.43
		c0-0.69-2.56-0.17-2.56-1.71c0-0.6,0.38-1.38,1.66-1.38c0.81,0,1.77,0.2,1.85,1.36H88.43z"/>
	<path class="st1" d="M102.26,115.55c0.51,0,0.9-0.39,0.9-1.23c0-1.14-0.7-1.25-0.93-1.25c-0.42,0-0.91,0.26-0.91,1.31
		C101.33,115.11,101.61,115.55,102.26,115.55 M104.22,112.24v5.72h-1.08v-2.11h-0.02c-0.22,0.42-0.63,0.62-1.17,0.62
		c-1.29,0-1.74-1.21-1.74-2.08c0-1.15,0.53-2.25,1.8-2.25c0.7,0,1,0.45,1.15,0.72h0.02v-0.61H104.22z"/>
	<path class="st1" d="M112.85,116.36h-1.04v-0.58h-0.02c-0.25,0.44-0.68,0.69-1.25,0.69c-0.81,0-1.4-0.46-1.4-1.52v-2.71h1.08v2.55
		c0,0.63,0.37,0.76,0.7,0.76c0.35,0,0.83-0.2,0.83-0.94v-2.38h1.09V116.36z"/>
	<path class="st1" d="M120.28,113.89c-0.06-0.67-0.49-0.87-0.84-0.87c-0.51,0-0.78,0.32-0.84,0.87H120.28z M121.35,115.15
		c-0.29,0.99-1.11,1.32-1.81,1.32c-1.16,0-2.05-0.56-2.05-2.25c0-0.5,0.17-2.08,1.97-2.08c0.81,0,1.94,0.39,1.94,2.27v0.19h-2.83
		c0.03,0.31,0.09,1.01,0.97,1.01c0.3,0,0.61-0.16,0.7-0.45H121.35z"/>
	<path class="st1" d="M135.88,116.36h-1.04v-0.58h-0.02c-0.25,0.44-0.68,0.69-1.25,0.69c-0.81,0-1.4-0.46-1.4-1.52v-2.71h1.08v2.55
		c0,0.63,0.37,0.76,0.7,0.76c0.36,0,0.84-0.2,0.84-0.94v-2.38h1.08V116.36z"/>
	<path class="st1" d="M144.56,116.36h-1.08v-2.5c0-0.3-0.02-0.81-0.7-0.81c-0.48,0-0.85,0.33-0.85,0.95v2.36h-1.08v-4.12h1.04v0.6
		h0.02c0.15-0.25,0.46-0.71,1.24-0.71c0.8,0,1.43,0.47,1.43,1.38V116.36z"/>
	<path class="st1" d="M159.16,114.86c-0.04,0.43-0.37,1.61-1.88,1.61c-1.55,0-1.9-1.18-1.9-2.05c0-1.33,0.58-2.28,1.97-2.28
		c0.65,0,1.72,0.3,1.82,1.58h-1.1c-0.05-0.27-0.22-0.7-0.72-0.67c-0.68,0-0.86,0.68-0.86,1.19c0,0.45,0.02,1.34,0.84,1.34
		c0.55,0,0.74-0.53,0.74-0.72H159.16z"/>
	<path class="st1" d="M164.98,116.36h-1.08v-4.12h1.08V116.36z M164.98,111.75h-1.08v-1.01h1.08V111.75z"/>
	<path class="st1" d="M173.69,116.36h-1.08v-2.5c0-0.3-0.02-0.81-0.7-0.81c-0.48,0-0.85,0.33-0.85,0.95v2.36h-1.08v-4.12h1.04v0.6
		h0.02c0.15-0.25,0.46-0.71,1.24-0.71c0.8,0,1.43,0.47,1.43,1.38V116.36z"/>
	<path class="st1" d="M181.12,113.89c-0.06-0.67-0.49-0.87-0.84-0.87c-0.51,0-0.78,0.32-0.84,0.87H181.12z M182.18,115.15
		c-0.29,0.99-1.11,1.32-1.81,1.32c-1.16,0-2.05-0.56-2.05-2.25c0-0.5,0.17-2.08,1.97-2.08c0.81,0,1.94,0.39,1.94,2.27v0.19h-2.83
		c0.03,0.31,0.09,1.01,0.97,1.01c0.3,0,0.61-0.16,0.7-0.45H182.18z"/>
	<path class="st1" d="M15.43,80.68v7.87c3.64,0,6.59,2.96,6.59,6.59c0,3.64-2.95,6.59-6.59,6.59v7.87H183v-7.87
		c-3.64,0-6.59-2.95-6.59-6.59c0-3.64,2.95-6.59,6.59-6.59v-7.87H15.43z"/>
	<path class="st1" d="M31.3,93.48l-1.39-0.19c-0.55-0.11-2.24-0.44-2.24-2.14c0-1.08,1.01-2.68,3.16-2.68c0.86,0,1.78,0.3,2.68,0.83
		v1.82h2.83v-6.59h-0.2h-2.63v0.69c-0.83-0.43-1.79-0.69-2.78-0.69c-3.71,0-5.92,3.37-5.92,6.62c0,1.8,0.61,3.39,1.72,4.5
		c1.34,1.32,3.09,1.48,4.79,1.63l0.8,0.07c1.74,0.18,1.94,1.11,1.94,1.8c0,1.58-1.23,2.47-3.38,2.47c-1.16,0-2.32-0.45-3.46-1.29
		v-1.67h-2.83v6.89h2.83v-1.08c0.62,0.39,1.75,1.08,3.46,1.08c3.64,0,6.19-2.64,6.19-6.41c0-1.12-0.25-2.23-0.67-3.07
		C35.07,93.89,33.15,93.68,31.3,93.48"/>
	<path class="st1" d="M46.4,84.91v3.97h2.48v8.55c0,2.69-0.48,4.14-3.04,4.14c-2.88,0-2.88-2.24-2.88-3.57v-9.13h2.42v-3.97h-7.31
		v3.97h2.06v8.83c0,2.38,0.16,5.04,2.13,6.65c1.21,0.99,2.29,1.18,3.63,1.18c1.1,0,2.2-0.31,3.27-0.93
		c1.88-1.09,2.55-3.91,2.55-6.19v-9.54h2.01v-3.97h-0.2H46.4z"/>
	<path class="st1" d="M60.28,88.88h2.17c0.58,0,1.41,0.08,2.05,0.47c0.76,0.45,1.23,1.38,1.23,2.42c0,1.62-0.85,2.22-1.02,2.33
		c-0.76,0.45-1.67,0.45-2.55,0.45h-1.88V88.88z M67.32,87.16c-1.26-1.86-3.34-2.25-4.86-2.25H55.6h-0.2v3.97h2.06v12.28h-2.08v3.97
		h8.13v-3.97h-3.22v-2.64h2.88c3.13,0,5.4-2.8,5.4-6.65C68.56,89.98,68.14,88.39,67.32,87.16"/>
	<polygon class="st1" points="69.64,84.91 69.64,88.88 71.68,88.88 71.68,101.16 69.59,101.16 69.59,105.13 83.26,105.13 
		83.26,98.24 80.4,98.24 80.4,101.16 74.51,101.16 74.51,96.82 76.89,96.82 76.89,98.04 78.74,98.04 78.74,91.66 76.89,91.66 
		76.89,92.88 74.51,92.88 74.51,88.88 80.4,88.88 80.4,91.9 83.26,91.9 83.26,84.91 83.06,84.91 	"/>
	<path class="st1" d="M94.99,91.05c0,2.16-1.74,2.41-3.04,2.41h-2.17v-4.58h3.07C94.27,88.88,94.99,89.61,94.99,91.05 M94.54,96.65
		c0.29-0.12,0.61-0.25,0.61-0.25c1.53-0.61,2.64-2.87,2.64-5.38c0-2.31-0.83-4.3-2.21-5.3c-0.97-0.71-2.18-0.81-3.24-0.81h-7.17
		h-0.2v3.97h1.98v12.28h-2.09v3.97h6.87v-3.97h-1.95v-3.73h1.75c0.11,0.2,2.26,4.04,2.26,4.04c0.64,1.12,1.2,2.36,1.61,3.49
		l0.06,0.17h3.84v-3.97h-2.1C97.1,100.99,95.05,97.5,94.54,96.65"/>
	<path class="st1" d="M111.44,99.43c-1.12,0.99-2.85,2.17-4.74,2.17c-3.41,0-4.62-3.43-4.62-6.65c0-5.15,2.99-6.51,4.57-6.51
		c1.45,0,2.76,0.78,3.64,1.47v2.33h2.83v-7.71h-0.2h-2.63v1.22c-0.54-0.43-1.79-1.22-3.68-1.22c-4.29,0-7.4,4.37-7.4,10.38
		c0,3.67,1.58,10.62,7.56,10.62c0.78,0,4.14-0.52,6.32-3.08l0.26-0.3l-1.81-2.83L111.44,99.43z"/>
	<polygon class="st1" points="115.04,84.91 115.04,88.88 119.39,88.88 119.39,101.16 115.04,101.16 115.04,105.13 126.57,105.13 
		126.57,101.16 122.3,101.16 122.3,88.88 126.57,88.88 126.57,84.91 126.36,84.91 	"/>
	<path class="st1" d="M137.01,84.91v3.97h2.46v8.89c-0.62-1.32-6.12-12.86-6.12-12.86h-5.01v3.97h2v12.28h-2v3.97h7.39v-3.97h-2.55
		v-9.28c0.63,1.27,6.52,13.26,6.52,13.26h2.61V88.88h2.03v-3.97h-0.2H137.01z"/>
	<polygon class="st1" points="146.07,84.91 146.07,88.88 148.1,88.88 148.1,101.16 146.02,101.16 146.02,105.13 159.69,105.13 
		159.69,98.24 156.83,98.24 156.83,101.16 150.94,101.16 150.94,96.82 153.33,96.82 153.33,98.04 155.17,98.04 155.17,91.66 
		153.33,91.66 153.33,92.88 150.94,92.88 150.94,88.88 156.83,88.88 156.83,91.9 159.69,91.9 159.69,84.91 159.49,84.91 	"/>
	<path class="st1" d="M173.43,96.09c-1.14-2.2-3.06-2.4-4.91-2.61l-1.39-0.19c-0.55-0.11-2.24-0.44-2.24-2.14
		c0-1.08,1.01-2.68,3.17-2.68c0.85,0,1.77,0.3,2.67,0.83v1.82h2.83v-6.59h-0.2h-2.63v0.69c-0.83-0.43-1.79-0.69-2.78-0.69
		c-3.71,0-5.92,3.37-5.92,6.62c0,1.8,0.61,3.39,1.72,4.5c1.34,1.32,3.1,1.48,4.79,1.63l0.8,0.07c1.74,0.18,1.94,1.11,1.94,1.8
		c0,1.58-1.23,2.47-3.38,2.47c-1.16,0-2.32-0.45-3.46-1.29v-1.67h-2.83v6.89h2.83v-1.08c0.62,0.39,1.75,1.08,3.46,1.08
		c3.65,0,6.19-2.64,6.19-6.41C174.1,98.04,173.85,96.92,173.43,96.09"/>
	<path class="st2" d="M183,79.42H14.17V89.8h1.26c2.94,0,5.33,2.39,5.33,5.33c0,2.94-2.39,5.34-5.33,5.34h-1.26V119h170.08v-18.53
		H183c-2.94,0-5.34-2.39-5.34-5.34c0-2.94,2.39-5.33,5.34-5.33h1.26V79.42H183z"/>
	<path class="st3" d="M21.92,116.36h-1.08v-2.5c0-0.61-0.27-0.81-0.59-0.81c-0.54,0-0.74,0.36-0.74,0.84v2.47h-1.08v-2.48
		c0-0.35,0-0.84-0.65-0.84c-0.51,0-0.67,0.36-0.67,0.81v2.51h-1.08v-4.12h1.04v0.6h0.02c0.14-0.27,0.44-0.71,1.17-0.71
		c0.6,0,0.87,0.22,1.15,0.66c0.14-0.2,0.44-0.66,1.1-0.66c0.81,0,1.43,0.47,1.43,1.38V116.36z"/>
	<path class="st3" d="M30.43,116.36h-1.04v-0.58h-0.02c-0.25,0.44-0.68,0.69-1.25,0.69c-0.81,0-1.4-0.46-1.4-1.52v-2.71h1.08v2.55
		c0,0.63,0.37,0.76,0.7,0.76c0.36,0,0.84-0.2,0.84-0.94v-2.38h1.08V116.36z"/>
	<path class="st3" d="M38.93,114.86c-0.04,0.43-0.37,1.61-1.88,1.61c-1.55,0-1.9-1.18-1.9-2.05c0-1.33,0.58-2.28,1.97-2.28
		c0.65,0,1.72,0.3,1.82,1.58h-1.1c-0.05-0.27-0.22-0.7-0.72-0.67c-0.68,0-0.86,0.68-0.86,1.19c0,0.45,0.02,1.34,0.84,1.34
		c0.55,0,0.74-0.53,0.74-0.72H38.93z"/>
	<path class="st3" d="M47.29,116.36H46.2v-2.5c0-0.3-0.02-0.81-0.7-0.81c-0.48,0-0.85,0.33-0.85,0.95v2.36h-1.08v-5.56h1.08v1.97
		h0.02c0.14-0.34,0.6-0.64,1.19-0.64c0.81,0,1.43,0.47,1.43,1.38V116.36z"/>
	<path class="st3" d="M54.11,113.05c-0.83,0-0.99,0.73-0.99,1.25s0.16,1.25,0.99,1.25c0.84,0,0.99-0.73,0.99-1.25
		S54.94,113.05,54.11,113.05 M54.11,116.47c-1.11,0-2.11-0.68-2.11-2.17c0-1.49,1-2.17,2.11-2.17c1.11,0,2.11,0.68,2.11,2.17
		C56.21,115.79,55.21,116.47,54.11,116.47"/>
	<path class="st3" d="M72.91,116.36h-1.08v-2.5c0-0.61-0.27-0.81-0.59-0.81c-0.54,0-0.74,0.36-0.74,0.84v2.47h-1.09v-2.48
		c0-0.35,0-0.84-0.65-0.84c-0.51,0-0.67,0.36-0.67,0.81v2.51h-1.08v-4.12h1.04v0.6h0.02c0.14-0.27,0.44-0.71,1.17-0.71
		c0.6,0,0.87,0.22,1.15,0.66c0.14-0.2,0.44-0.66,1.1-0.66c0.81,0,1.43,0.47,1.43,1.38V116.36z"/>
	<path class="st3" d="M79.83,111.68h-0.78l0.73-1.13h1.19L79.83,111.68z M80.13,114.35c-0.11,0.08-0.29,0.16-0.74,0.22
		c-0.4,0.07-0.74,0.17-0.74,0.62c0,0.38,0.29,0.5,0.5,0.5c0.48,0,0.97-0.31,0.97-0.81V114.35z M81.18,115.55
		c0,0.49,0.11,0.6,0.24,0.64v0.16h-1.17c-0.06-0.19-0.08-0.26-0.1-0.49c-0.25,0.26-0.6,0.6-1.33,0.6c-0.62,0-1.25-0.35-1.25-1.2
		c0-0.8,0.51-1.22,1.2-1.32l0.97-0.15c0.17-0.02,0.38-0.09,0.38-0.32c0-0.46-0.43-0.48-0.71-0.48c-0.54,0-0.63,0.33-0.66,0.57H77.7
		c0.13-1.26,1-1.44,1.84-1.44c0.58,0,1.64,0.18,1.64,1.19V115.55z"/>
	<path class="st3" d="M88.43,113.5c-0.05-0.26-0.14-0.54-0.73-0.54c-0.59,0-0.67,0.22-0.67,0.4c0,0.65,2.58,0.18,2.58,1.7
		c0,1.2-1.16,1.42-1.8,1.42c-0.94,0-1.95-0.32-1.98-1.42h1.11c0,0.35,0.22,0.6,0.9,0.6c0.56,0,0.69-0.27,0.69-0.43
		c0-0.69-2.56-0.17-2.56-1.71c0-0.6,0.38-1.38,1.66-1.38c0.81,0,1.77,0.2,1.85,1.36H88.43z"/>
	<path class="st3" d="M102.26,115.55c0.51,0,0.9-0.39,0.9-1.23c0-1.14-0.7-1.25-0.93-1.25c-0.42,0-0.91,0.26-0.91,1.31
		C101.33,115.11,101.61,115.55,102.26,115.55 M104.22,112.24v5.72h-1.08v-2.11h-0.02c-0.22,0.42-0.63,0.62-1.17,0.62
		c-1.29,0-1.74-1.21-1.74-2.08c0-1.15,0.53-2.25,1.8-2.25c0.7,0,1,0.45,1.15,0.72h0.02v-0.61H104.22z"/>
	<path class="st3" d="M112.85,116.36h-1.04v-0.58h-0.02c-0.25,0.44-0.68,0.69-1.25,0.69c-0.81,0-1.4-0.46-1.4-1.52v-2.71h1.08v2.55
		c0,0.63,0.37,0.76,0.7,0.76c0.35,0,0.83-0.2,0.83-0.94v-2.38h1.09V116.36z"/>
	<path class="st3" d="M120.28,113.89c-0.06-0.67-0.49-0.87-0.84-0.87c-0.51,0-0.78,0.32-0.84,0.87H120.28z M121.35,115.15
		c-0.29,0.99-1.11,1.32-1.81,1.32c-1.16,0-2.05-0.56-2.05-2.25c0-0.5,0.17-2.08,1.97-2.08c0.81,0,1.94,0.39,1.94,2.27v0.19h-2.83
		c0.03,0.31,0.09,1.01,0.97,1.01c0.3,0,0.61-0.16,0.7-0.45H121.35z"/>
	<path class="st3" d="M135.88,116.36h-1.04v-0.58h-0.02c-0.25,0.44-0.68,0.69-1.25,0.69c-0.81,0-1.4-0.46-1.4-1.52v-2.71h1.08v2.55
		c0,0.63,0.37,0.76,0.7,0.76c0.36,0,0.84-0.2,0.84-0.94v-2.38h1.08V116.36z"/>
	<path class="st3" d="M144.56,116.36h-1.08v-2.5c0-0.3-0.02-0.81-0.7-0.81c-0.48,0-0.85,0.33-0.85,0.95v2.36h-1.08v-4.12h1.04v0.6
		h0.02c0.15-0.25,0.46-0.71,1.24-0.71c0.8,0,1.43,0.47,1.43,1.38V116.36z"/>
	<path class="st3" d="M159.16,114.86c-0.04,0.43-0.37,1.61-1.88,1.61c-1.55,0-1.9-1.18-1.9-2.05c0-1.33,0.58-2.28,1.97-2.28
		c0.65,0,1.72,0.3,1.82,1.58h-1.1c-0.05-0.27-0.22-0.7-0.72-0.67c-0.68,0-0.86,0.68-0.86,1.19c0,0.45,0.02,1.34,0.84,1.34
		c0.55,0,0.74-0.53,0.74-0.72H159.16z"/>
	<path class="st3" d="M164.98,116.36h-1.08v-4.12h1.08V116.36z M164.98,111.75h-1.08v-1.01h1.08V111.75z"/>
	<path class="st3" d="M173.69,116.36h-1.08v-2.5c0-0.3-0.02-0.81-0.7-0.81c-0.48,0-0.85,0.33-0.85,0.95v2.36h-1.08v-4.12h1.04v0.6
		h0.02c0.15-0.25,0.46-0.71,1.24-0.71c0.8,0,1.43,0.47,1.43,1.38V116.36z"/>
	<path class="st3" d="M181.12,113.89c-0.06-0.67-0.49-0.87-0.84-0.87c-0.51,0-0.78,0.32-0.84,0.87H181.12z M182.18,115.15
		c-0.29,0.99-1.11,1.32-1.81,1.32c-1.16,0-2.05-0.56-2.05-2.25c0-0.5,0.17-2.08,1.97-2.08c0.81,0,1.94,0.39,1.94,2.27v0.19h-2.83
		c0.03,0.31,0.09,1.01,0.97,1.01c0.3,0,0.61-0.16,0.7-0.45H182.18z"/>
	<path class="st0" d="M15.43,80.68v7.87c3.64,0,6.59,2.96,6.59,6.59c0,3.64-2.95,6.59-6.59,6.59v7.87H183v-7.87
		c-3.64,0-6.59-2.95-6.59-6.59c0-3.64,2.95-6.59,6.59-6.59v-7.87H15.43z"/>
	<path class="st4" d="M31.3,93.48l-1.39-0.19c-0.55-0.11-2.24-0.44-2.24-2.14c0-1.08,1.01-2.68,3.16-2.68c0.86,0,1.78,0.3,2.68,0.83
		v1.82h2.83v-6.59h-0.2h-2.63v0.69c-0.83-0.43-1.79-0.69-2.78-0.69c-3.71,0-5.92,3.37-5.92,6.62c0,1.8,0.61,3.39,1.72,4.5
		c1.34,1.32,3.09,1.48,4.79,1.63l0.8,0.07c1.74,0.18,1.94,1.11,1.94,1.8c0,1.58-1.23,2.47-3.38,2.47c-1.16,0-2.32-0.45-3.46-1.29
		v-1.67h-2.83v6.89h2.83v-1.08c0.62,0.39,1.75,1.08,3.46,1.08c3.64,0,6.19-2.64,6.19-6.41c0-1.12-0.25-2.23-0.67-3.07
		C35.07,93.89,33.15,93.68,31.3,93.48"/>
	<path class="st4" d="M46.4,84.91v3.97h2.48v8.55c0,2.69-0.48,4.14-3.04,4.14c-2.88,0-2.88-2.24-2.88-3.57v-9.13h2.42v-3.97h-7.31
		v3.97h2.06v8.83c0,2.38,0.16,5.04,2.13,6.65c1.21,0.99,2.29,1.18,3.63,1.18c1.1,0,2.2-0.31,3.27-0.93
		c1.88-1.09,2.55-3.91,2.55-6.19v-9.54h2.01v-3.97h-0.2H46.4z"/>
	<path class="st4" d="M60.28,88.88h2.17c0.58,0,1.41,0.08,2.05,0.47c0.76,0.45,1.23,1.38,1.23,2.42c0,1.62-0.85,2.22-1.02,2.33
		c-0.76,0.45-1.67,0.45-2.55,0.45h-1.88V88.88z M67.32,87.16c-1.26-1.86-3.34-2.25-4.86-2.25H55.6h-0.2v3.97h2.06v12.28h-2.08v3.97
		h8.13v-3.97h-3.22v-2.64h2.88c3.13,0,5.4-2.8,5.4-6.65C68.56,89.98,68.14,88.39,67.32,87.16"/>
	<polygon class="st4" points="69.64,84.91 69.64,88.88 71.68,88.88 71.68,101.16 69.59,101.16 69.59,105.13 83.26,105.13 
		83.26,98.24 80.4,98.24 80.4,101.16 74.51,101.16 74.51,96.82 76.89,96.82 76.89,98.04 78.74,98.04 78.74,91.66 76.89,91.66 
		76.89,92.88 74.51,92.88 74.51,88.88 80.4,88.88 80.4,91.9 83.26,91.9 83.26,84.91 83.06,84.91 	"/>
	<path class="st4" d="M94.99,91.05c0,2.16-1.74,2.41-3.04,2.41h-2.17v-4.58h3.07C94.27,88.88,94.99,89.61,94.99,91.05 M94.54,96.65
		c0.29-0.12,0.61-0.25,0.61-0.25c1.53-0.61,2.64-2.87,2.64-5.38c0-2.31-0.83-4.3-2.21-5.3c-0.97-0.71-2.18-0.81-3.24-0.81h-7.17
		h-0.2v3.97h1.98v12.28h-2.09v3.97h6.87v-3.97h-1.95v-3.73h1.75c0.11,0.2,2.26,4.04,2.26,4.04c0.64,1.12,1.2,2.36,1.61,3.49
		l0.06,0.17h3.84v-3.97h-2.1C97.1,100.99,95.05,97.5,94.54,96.65"/>
	<path class="st4" d="M111.44,99.43c-1.12,0.99-2.85,2.17-4.74,2.17c-3.41,0-4.62-3.43-4.62-6.65c0-5.15,2.99-6.51,4.57-6.51
		c1.45,0,2.76,0.78,3.64,1.47v2.33h2.83v-7.71h-0.2h-2.63v1.22c-0.54-0.43-1.79-1.22-3.68-1.22c-4.29,0-7.4,4.37-7.4,10.38
		c0,3.67,1.58,10.62,7.56,10.62c0.78,0,4.14-0.52,6.32-3.08l0.26-0.3l-1.81-2.83L111.44,99.43z"/>
	<polygon class="st4" points="115.04,84.91 115.04,88.88 119.39,88.88 119.39,101.16 115.04,101.16 115.04,105.13 126.57,105.13 
		126.57,101.16 122.3,101.16 122.3,88.88 126.57,88.88 126.57,84.91 126.36,84.91 	"/>
	<path class="st4" d="M137.01,84.91v3.97h2.46v8.89c-0.62-1.32-6.12-12.86-6.12-12.86h-5.01v3.97h2v12.28h-2v3.97h7.39v-3.97h-2.55
		v-9.28c0.63,1.27,6.52,13.26,6.52,13.26h2.61V88.88h2.03v-3.97h-0.2H137.01z"/>
	<polygon class="st4" points="146.07,84.91 146.07,88.88 148.1,88.88 148.1,101.16 146.02,101.16 146.02,105.13 159.69,105.13 
		159.69,98.24 156.83,98.24 156.83,101.16 150.94,101.16 150.94,96.82 153.33,96.82 153.33,98.04 155.17,98.04 155.17,91.66 
		153.33,91.66 153.33,92.88 150.94,92.88 150.94,88.88 156.83,88.88 156.83,91.9 159.69,91.9 159.69,84.91 159.49,84.91 	"/>
	<path class="st4" d="M173.43,96.09c-1.14-2.2-3.06-2.4-4.91-2.61l-1.39-0.19c-0.55-0.11-2.24-0.44-2.24-2.14
		c0-1.08,1.01-2.68,3.17-2.68c0.85,0,1.77,0.3,2.67,0.83v1.82h2.83v-6.59h-0.2h-2.63v0.69c-0.83-0.43-1.79-0.69-2.78-0.69
		c-3.71,0-5.92,3.37-5.92,6.62c0,1.8,0.61,3.39,1.72,4.5c1.34,1.32,3.1,1.48,4.79,1.63l0.8,0.07c1.74,0.18,1.94,1.11,1.94,1.8
		c0,1.58-1.23,2.47-3.38,2.47c-1.16,0-2.32-0.45-3.46-1.29v-1.67h-2.83v6.89h2.83v-1.08c0.62,0.39,1.75,1.08,3.46,1.08
		c3.65,0,6.19-2.64,6.19-6.41C174.1,98.04,173.85,96.92,173.43,96.09"/>
	<path class="st4" d="M177.93,84.63h0.35c0.39,0,0.73-0.14,0.73-0.52c0-0.26-0.2-0.53-0.73-0.53c-0.16,0-0.27,0.01-0.35,0.02V84.63z
		 M177.93,86.31h-0.48v-3.02c0.25-0.04,0.49-0.07,0.85-0.07c0.46,0,0.76,0.1,0.94,0.23c0.18,0.13,0.28,0.34,0.28,0.63
		c0,0.4-0.26,0.64-0.59,0.74v0.02c0.26,0.05,0.44,0.29,0.5,0.73c0.07,0.47,0.14,0.65,0.19,0.75h-0.51c-0.07-0.1-0.15-0.37-0.2-0.77
		c-0.07-0.39-0.26-0.53-0.65-0.53h-0.34V86.31z M178.43,82.44c-1.19,0-2.17,1.02-2.17,2.29c0,1.29,0.98,2.3,2.18,2.3
		c1.2,0.01,2.17-1.01,2.17-2.29c0-1.28-0.96-2.3-2.17-2.3H178.43z M178.44,82.02c1.48,0,2.66,1.21,2.66,2.71
		c0,1.53-1.18,2.72-2.67,2.72c-1.48,0-2.69-1.19-2.69-2.72c0-1.51,1.2-2.71,2.69-2.71H178.44z"/>
</g>
</svg>
