<?xml version="1.0" encoding="utf-8"?>
<!-- Generator: Adobe Illustrator 28.0.0, SVG Export Plug-In . SVG Version: 6.00 Build 0)  -->
<svg version="1.1" id="Layer_1" xmlns="http://www.w3.org/2000/svg" xmlns:xlink="http://www.w3.org/1999/xlink" x="0px" y="0px"
	 viewBox="0 0 198.43 198.43" style="enable-background:new 0 0 198.43 198.43;" xml:space="preserve">
<style type="text/css">
	.st0{fill-rule:evenodd;clip-rule:evenodd;fill:#8E7192;}
	.st1{fill-rule:evenodd;clip-rule:evenodd;fill:#D43F76;}
	.st2{fill-rule:evenodd;clip-rule:evenodd;fill:#98C942;}
	.st3{fill-rule:evenodd;clip-rule:evenodd;fill:#F4FD3F;}
</style>
<g>
	<path class="st0" d="M148.19,154.69v2.56h0.36v-1.06h0.86h0.08c0.06,0.03,0.11,0.03,0.14,0.06c0.06,0.03,0.11,0.11,0.14,0.19
		c0.03,0.11,0.03,0.22,0.03,0.36c0,0.11,0,0.22,0.06,0.33c0,0.03,0.03,0.08,0.03,0.11h0.44c-0.03-0.03-0.06-0.06-0.08-0.08
		c-0.03-0.06-0.06-0.14-0.06-0.19c-0.03-0.08-0.03-0.17-0.03-0.25c0-0.08-0.03-0.19-0.03-0.31c-0.03-0.06-0.03-0.14-0.08-0.19
		c-0.03-0.06-0.08-0.08-0.14-0.14c-0.03,0-0.06-0.03-0.08-0.06c0.06-0.03,0.14-0.06,0.19-0.08c0.14-0.11,0.25-0.31,0.25-0.5
		c0-0.19-0.08-0.39-0.22-0.53c-0.11-0.11-0.25-0.19-0.42-0.22h-0.14H148.19z M148.55,154.99h0.86h0.17
		c0.08,0.03,0.17,0.08,0.25,0.17c0.06,0.06,0.08,0.17,0.08,0.28s-0.03,0.19-0.11,0.28c-0.06,0.08-0.14,0.14-0.22,0.17h-0.17h-0.86
		V154.99z M149.22,153.68L149.22,153.68c-0.36,0-0.75,0.11-1.11,0.31s-0.64,0.47-0.83,0.83c-0.22,0.36-0.31,0.75-0.31,1.14
		c0,0.39,0.08,0.78,0.28,1.14c0.22,0.36,0.5,0.64,0.86,0.83c0.36,0.19,0.72,0.28,1.11,0.28s0.78-0.08,1.14-0.28
		c0.36-0.19,0.64-0.47,0.83-0.83s0.31-0.75,0.31-1.14c0-0.39-0.11-0.78-0.31-1.14s-0.5-0.64-0.86-0.83S149.61,153.68,149.22,153.68
		 M149.22,153.91L149.22,153.91c0.36,0,0.7,0.11,1,0.28c0.33,0.17,0.58,0.45,0.78,0.75c0.19,0.33,0.28,0.67,0.28,1.03
		s-0.08,0.7-0.28,1.03c-0.17,0.31-0.44,0.56-0.75,0.75c-0.33,0.17-0.67,0.28-1.03,0.28c-0.33,0-0.7-0.11-1-0.28
		c-0.33-0.19-0.58-0.45-0.75-0.75c-0.19-0.33-0.28-0.67-0.28-1.03s0.08-0.7,0.28-1.03c0.17-0.31,0.45-0.58,0.75-0.75
		C148.55,154.02,148.89,153.91,149.22,153.91"/>
	<path class="st0" d="M42.03,174.16c-0.66,0-1.31-0.66-1.31-1.31V82.51c0-8,1.44-15.45,4.29-22.34c2.86-6.89,7.12-13.18,12.78-18.84
		c5.65-5.65,11.95-9.92,18.85-12.78c6.89-2.86,14.36-4.29,22.35-4.29h0.45c7.99,0,15.46,1.44,22.35,4.29
		c6.9,2.86,13.2,7.13,18.85,12.78c5.66,5.66,9.93,11.95,12.78,18.84c2.85,6.88,4.29,14.34,4.29,22.34v90.34
		c0,0.66-0.66,1.31-1.31,1.31H42.03z M42.03,172.85H156.4V82.51c0-15.66-5.62-29.18-16.69-40.25s-24.61-16.69-40.27-16.69h-0.45
		c-15.66,0-29.2,5.62-40.27,16.69S42.03,66.85,42.03,82.51V172.85z"/>
	<path class="st0" d="M100.4,126.63c-5.22,2.97-5.05,10.67,0.51,13.12c1.47,0.7,3.01,1.18,4.58,1.49c1.57,0.31,3.18,0.45,4.8,0.46
		c1.62,0.01,3.25-0.1,4.86-0.3c1.61-0.19,3.21-0.47,4.77-0.77v-2.19v-2.19c-4.54,0.87-13.13,2.45-13.13-3.5
		c0-1.22,0.5-2.1,1.01-2.62c2.52-2.45,7.24-1.75,10.6-1.4l2.02-3.85C120.42,124.88,107.3,122.61,100.4,126.63 M123.79,138.88
		c5.22,3.85,19.02,3.85,23.39-0.7c2.02-1.92,2.52-5.42,1.68-7.87c-3.37-7.87-22.72-7.87-26.76-1.22
		C119.92,132.41,120.42,136.26,123.79,138.88 M76.5,124.71l-8.75,16.62H77l1.68-3.67h8.08l1.52,3.67h9.59l-8.75-16.62H76.5z
		 M47.21,124.71l2.19,4.01h5.72v12.61h9.93v-12.6h6.06l2.02-4.02H47.21z M138.94,132.76c0-2.97-1.18-4.55-4.04-4.55
		c-2.86,0.17-3.87,2.1-3.87,4.9c0,2.8,1.35,4.55,4.04,4.55c1.18,0,2.36-0.35,3.2-1.4C138.94,135.21,139.28,133.98,138.94,132.76
		 M82.72,128.38l-2.36,5.6h4.71L82.72,128.38z"/>
	<path class="st0" d="M105.45,146.62v16.62l19.98-0.17l2.01-3.98h-12.26v-12.47H105.45z M128.62,146.62v16.45h19.98l2.01-3.98
		h-12.09v-12.47H128.62z M81.52,146.62v16.45h22.33v-3.98H91.26v-2.42h10.58v-3.64H91.26v-2.77h11.08l2.01-3.64H81.52z
		 M55.22,146.62v16.45h17.29c2.85-0.17,7.55-0.17,7.55-4.68c0-2.6-1.68-3.29-3.02-3.64l-0.67-0.35l0.5-0.17
		c1.34-0.17,2.52-1.73,2.52-3.64c0.17-3.81-4.37-3.98-7.22-3.98H55.22z M64.79,149.57v3.29h3.53c1.01,0,2.52,0,2.52-1.73
		c0-1.56-1.51-1.56-2.52-1.56H64.79z M64.79,159.61h3.53c1.18,0,2.85,0,2.85-1.73c0-1.9-1.68-1.9-2.85-1.9h-3.53V159.61z"/>
	<path class="st0" d="M146.14,116.64h-0.76l-1.28,3.12l-1.27-3.12h-0.76v3.91h0.51v-3.12l1.27,3.12h0.25l1.28-3.12v3.12h0.76V116.64
		z M141.55,116.64h-3.31v0.26h1.53v3.65h0.51v-3.65h1.27V116.64z"/>
	<path class="st1" d="M143.33,67.96c-4.08,0-9.43-2.86-12.49-6.25c-4.59-4.95-7.14-9.11-11.73-13.28c-5.1-4.69-13.51-9.89-23.2-7.29
		c-0.25-0.26-0.51-0.52-0.76-0.78c-3.31-3.91-8.92-4.69-13.51-2.34l-0.25,0.52c-1.02,0.78-3.31,2.86-0.76,9.11l0.76-0.78
		c3.06-2.08,5.86-3.12,8.67-4.17l3.57-1.04l-3.57,1.3C81.12,47.13,74.49,53.38,75,62.75c0.25,7.29,1.78,14.58,3.06,22.13
		c0.26,1.04,0.51,2.34,0.26,2.86l-1.28,1.56c-1.53,1.56-2.8,3.12-3.82,4.69c-0.25,0.78-1.02,1.56-1.27,2.08
		c-0.51,1.04-0.77,2.08-1.02,2.86c-0.51,1.04-0.51,1.56-1.02,2.34c2.8-3.91,7.9-9.37,15.3-14.84c9.18-6.25,18.1-11.2,27.28-14.32
		c6.12-2.08,11.98-3.65,17.85-4.69h0.51v0.26h-0.76c-6.12,1.56-12.49,3.91-18.61,6.51c-6.88,3.12-13.77,7.03-20.4,12.24
		c-3.57,2.86-6.88,5.99-9.69,9.37c-1.78,2.08-3.31,4.17-4.08,6.25c-2.55,5.21-0.76,9.37,6.63,9.63c4.84,0.26,9.94-0.52,14.79-2.08
		c8.16-2.34,16.06-5.47,23.97-10.41c4.59-2.6,9.18-5.73,13.51-9.89c1.53-1.56,3.06-3.12,4.33-4.95c6.12-9.11-1.53-12.5-12.24-10.93
		c-7.65,1.04-15.3,3.65-22.95,7.55h-0.51h-0.25h0.25c0.25-0.26,0.25-0.26,0.51-0.26c3.06-2.08,6.37-3.65,9.43-5.21
		c8.41-3.91,16.57-6.51,24.99-7.29C142.31,67.7,141.29,67.96,143.33,67.96"/>
	<path class="st0" d="M80.35,37.76c-1.27,0.26-1.81,0.46-2.55,0.78c-15.32,6.7-25.85,18.85-25.85,38.42l-0.01,36.82h9.03V113
		c0-4.43,3.31-8.07,5.61-11.98c2.04-4.17,3.31-6.77,2.04-13.8c-1.53-7.55-2.29-15.1-0.76-22.91c1.02-5.21,3.57-10.41,7.39-14.06
		l1.02-1.04C75.77,44.53,76.53,39.58,80.35,37.76 M129.31,65.61c-1.53-0.78-2.8-1.82-3.57-2.6c-0.76-0.78-1.27-1.3-1.78-2.08
		c-2.8-3.38-5.1-7.03-8.16-10.41c-8.16-9.11-14.28-8.59-20.91-7.81l-1.02,0.26h2.29c7.14-0.52,12.49,5.99,16.32,11.19
		c2.55,3.65,4.84,7.29,7.39,10.67c0.51,0.78,1.27,1.56,2.04,1.56c2.29-0.26,4.59-0.78,6.88-0.52h1.02
		C130.07,65.87,129.56,65.61,129.31,65.61"/>
	<path class="st0" d="M88.77,35.15c1.02,0.26,2.04,0.26,2.8,0.78c1.79,0.78,3.57,2.34,4.84,3.64c2.04-0.26,3.82-0.52,5.86-0.26
		c12.49,0.26,18.87,8.07,31.11,20.83c2.8,2.86,7.14,4.69,11.22,5.21h0.51l-0.51-1.3c-5.86-18.48-26.52-32.02-49.97-29.68h-1.78
		C91.57,34.63,90.3,34.89,88.77,35.15"/>
	<path class="st2" d="M129.56,65.61c-1.53-0.78-2.8-1.82-3.82-2.6c-0.51-0.78-1.27-1.3-1.78-2.08c-2.55-3.38-5.1-7.03-8.16-10.41
		c-7.9-9.11-14.02-8.59-20.91-7.81l-0.76,0.26h2.29c6.88-0.52,12.49,5.99,16.32,11.19c2.29,3.65,4.84,7.29,7.39,10.67
		c0.51,0.78,1.02,1.56,2.04,1.56c2.29-0.26,4.33-0.78,6.63-0.52h1.27L129.56,65.61z"/>
	<path class="st0" d="M131.09,67.44h-0.51c-5.86,1.04-11.73,2.6-17.85,4.69c-8.92,3.38-18.36,7.81-27.28,14.32
		c-11.47,7.81-22.18,20.83-18.87,26.82c3.06,6.25,18.36,3.38,27.03,0.78c4.84-1.3,9.18-2.86,14.28-4.95
		c9.94-4.17,20.14-9.37,30.34-16.92c3.06-2.08,6.37-4.95,9.18-7.81c1.53-1.82,2.8-3.65,4.08-5.21c4.33-7.81-0.51-12.5-11.73-11.2
		c-8.16,1.3-16.32,3.65-24.73,7.55c-3.06,1.56-6.37,3.12-9.43,5.21c-0.25,0-0.25,0-0.51,0.26c-0.25,0,0,0,0,0h0.51
		c7.65-3.91,15.3-6.51,22.95-7.55c10.71-1.56,18.36,2.08,12.24,10.93c-1.27,1.82-2.8,3.65-4.33,4.95
		c-4.33,4.17-8.92,7.29-13.51,10.15c-7.9,4.69-15.81,7.81-23.97,10.15c-4.84,1.56-9.94,2.34-15.04,2.08
		c-6.88-0.26-8.92-4.43-6.63-9.37c1.02-2.34,2.55-4.43,4.33-6.51c2.8-3.38,6.12-6.51,9.69-9.11c6.63-5.47,13.51-9.37,20.4-12.5
		c6.12-2.6,12.49-4.95,18.61-6.51c0.25,0,0.51-0.26,0.51-0.26H131.09z"/>
	<path class="st0" d="M146.39,113.78v-26.3c-4.84,4.95-10.45,9.37-16.06,13.54c-7.14,4.95-15.04,9.11-22.95,12.76H146.39z"/>
	<path class="st0" d="M72.2,96.07L72.2,96.07c0.25-0.26,1.02-1.56,1.27-2.08c1.02-1.56,2.29-3.12,3.57-4.69l1.78-1.56
		c0-0.52-0.25-2.08-0.51-2.86c-1.27-7.29-2.8-14.84-3.31-22.13c-0.25-9.63,6.12-15.62,15.3-19.79l3.57-1.3L90.3,42.7
		c-2.8,1.04-5.61,2.34-8.67,4.17l-0.76,0.52c-2.55-6.25-0.25-8.07,0.76-8.85l0.25-0.52l-0.51,0.26c-2.55,1.56-4.33,5.21-3.31,11.2
		l-1.02,1.3c-6.37,6.51-6.12,11.2-6.63,17.18c-0.76,7.81,0.25,15.62,1.53,23.69C72.45,95.29,72.2,96.07,72.2,96.07"/>
	<path class="st0" d="M138.74,78.63c-1.78-3.91-11.47-2.08-16.83-0.78c-8.92,2.6-17.59,6.51-26.52,11.98
		c-3.57,2.08-7.14,4.43-10.2,7.55c-1.27,1.3-2.55,2.6-3.31,3.91c-3.31,4.43-2.04,8.33,6.12,7.55c6.37-0.78,13-2.6,19.63-5.21
		c7.65-3.12,15.3-7.29,22.69-12.76C134.41,87.74,140.78,81.49,138.74,78.63"/>
	<path class="st3" d="M98.97,102.14h-0.25H98.2c-3.82,0.26-6.63-3.12-6.63-5.99c4.59-2.86,9.94-5.21,15.04-6.77l0.51,1.04
		c1.27,5.47-1.53,10.67-5.61,13.02c-4.08,2.34-11.22,3.64-16.83-2.08c0.76-0.52,1.27-1.04,1.78-1.56c4.33,3.38,7.9,3.38,11.73,2.6
		C98.46,102.14,98.71,102.14,98.97,102.14"/>
</g>
</svg>
