<?xml version="1.0" encoding="utf-8"?>
<!-- Generator: Adobe Illustrator 28.0.0, SVG Export Plug-In . SVG Version: 6.00 Build 0)  -->
<svg version="1.1" id="Layer_1" xmlns="http://www.w3.org/2000/svg" xmlns:xlink="http://www.w3.org/1999/xlink" x="0px" y="0px"
	 viewBox="0 0 198.43 198.43" style="enable-background:new 0 0 198.43 198.43;" xml:space="preserve">
<style type="text/css">
	.st0{fill:#402877;}
	.st1{fill-rule:evenodd;clip-rule:evenodd;fill:#402877;}
</style>
<g>
	<g>
		<g>
			<path class="st0" d="M126.93,87.54h-7.99l-4.57,23.47h-2.99l4.57-23.47h-8.03l0.48-2.44h19.01L126.93,87.54z"/>
		</g>
		<g>
			<path class="st0" d="M137.35,111.01h-2.85c-0.08-0.77,0-1.8,0.25-3.09c-2.09,2.39-4.54,3.58-7.35,3.58
				c-1.42,0-2.57-0.51-3.46-1.52c-0.89-1.01-1.18-2.31-0.87-3.9c0.18-0.94,0.53-1.78,1.05-2.5c0.52-0.72,1.2-1.33,2.03-1.83
				c0.83-0.5,1.8-0.89,2.91-1.18c1.11-0.29,2.4-0.49,3.86-0.6l3.26-0.26l0.18-0.92c0.64-3.28-0.57-4.92-3.63-4.92
				c-0.72,0-1.67,0.16-2.84,0.47c-1.17,0.31-2.19,0.68-3.07,1.11l-0.35-2.06c2.87-1.33,5.42-2,7.66-2c4.36,0,6.09,2.31,5.19,6.92
				l-1.6,8.23C137.42,108.24,137.29,109.72,137.35,111.01z M135.11,105.34l0.68-3.47c-2.63,0.23-4.44,0.45-5.44,0.65
				c-1,0.2-1.91,0.58-2.72,1.13c-0.81,0.55-1.31,1.3-1.49,2.24c-0.17,0.86,0,1.55,0.5,2.08c0.5,0.53,1.21,0.79,2.14,0.79
				c1.02,0,2.08-0.3,3.21-0.91C133.1,107.24,134.15,106.4,135.11,105.34z"/>
		</g>
		<g>
			<path class="st0" d="M158.73,111.01h-2.87l2.44-12.56c0.59-3.04,0.32-4.55-0.8-4.55c-0.58,0-1.31,0.52-2.21,1.57
				c-0.9,1.05-1.35,1.63-1.38,1.74l-2.69,13.81h-2.85l2.44-12.56c0.59-3.04,0.32-4.55-0.82-4.55c-0.56,0-1.29,0.52-2.19,1.57
				c-0.9,1.05-1.35,1.63-1.38,1.74l-2.69,13.81h-2.87l3.72-19.14h2.76l-0.56,2.88c0.74-1.02,1.53-1.83,2.39-2.43
				c0.86-0.61,1.66-0.91,2.39-0.91c0.77,0,1.4,0.3,1.9,0.91c0.49,0.61,0.76,1.42,0.79,2.43c0.74-1.02,1.54-1.83,2.4-2.43
				c0.86-0.61,1.66-0.91,2.38-0.91c2.31,0,3.07,2.07,2.26,6.21L158.73,111.01z"/>
		</g>
		<path class="st1" d="M164.2,104.56c0.49-2.15,1.49-3.93,2.9-5.25c1.41-1.33,3.24-2.2,5.37-2.53c0.98-0.15,1.86-0.17,2.5-0.17h6.57
			l0.76-3.91h-3.47h-3.47c-1.76,0-3.33,0.3-4.7,0.86c-2.78,1.14-4.73,3.38-5.75,6.18c-0.53,1.44-0.84,3.07-0.91,4.83L164.2,104.56z"
			/>
		<path class="st1" d="M181.03,98.99l-4.56,0l-4.56,0c-1.78,0-3.35,0.75-4.52,1.88c-1.18,1.13-1.96,2.63-2.18,4.13
			c-0.22,1.5,0.14,3,1.24,4.13c1.1,1.12,2.95,1.88,5.72,1.88h6.7l0.71-3.91h-6.83c-0.97,0-1.61-0.26-2-0.66
			c-0.38-0.39-0.51-0.92-0.43-1.44c0.08-0.52,0.35-1.05,0.76-1.44c0.41-0.39,0.96-0.66,1.58-0.66l1.59,0l6.09,0L181.03,98.99z"/>
	</g>
	<g>
		<path class="st0" d="M85.78,123.78h-3.07v-5.63h0.65v5.06h2.41V123.78z"/>
		<path class="st0" d="M89.84,123.78h-2.56v-0.57h0.97v-4.49h-0.97v-0.57h2.56v0.57h-0.93v4.49h0.93V123.78z"/>
		<path class="st0" d="M94.74,123.78h-0.73l-2.02-4.45v4.45h-0.65v-5.63h0.73l2.03,4.41v-4.41h0.64V123.78z"/>
		<path class="st0" d="M99,123.78h-2.94v-5.63h2.92v0.57h-2.26v1.74h2.18v0.57h-2.18v2.18H99V123.78z"/>
		<path class="st0" d="M104.18,123.78h-0.69l-0.62-1.97h-1.85l-0.63,1.97h-0.68l1.84-5.63h0.79L104.18,123.78z M102.68,121.24
			l-0.74-2.33l-0.73,2.33H102.68z"/>
		<path class="st0" d="M113.08,123.78h-0.69l-0.62-1.97h-1.85l-0.63,1.97h-0.68l1.84-5.63h0.79L113.08,123.78z M111.58,121.24
			l-0.74-2.33l-0.73,2.33H111.58z"/>
		<path class="st0" d="M116.8,123.78h-2.94v-5.63h2.92v0.57h-2.26v1.74h2.18v0.57h-2.18v2.18h2.29V123.78z"/>
		<path class="st0" d="M121.97,123.78h-0.82l-1.65-2.56h-0.73v2.56h-0.65v-5.63h1.59c0.53,0,0.96,0.13,1.27,0.39
			c0.31,0.26,0.46,0.62,0.46,1.08c0,0.34-0.11,0.65-0.34,0.92s-0.54,0.45-0.93,0.55L121.97,123.78z M118.77,120.65h0.83
			c0.35,0,0.63-0.09,0.84-0.28c0.22-0.19,0.32-0.42,0.32-0.71c0-0.63-0.38-0.94-1.15-0.94h-0.84V120.65z"/>
		<path class="st0" d="M125.69,123.78h-2.94v-5.63h2.92v0.57h-2.26v1.74h2.18v0.57h-2.18v2.18h2.29V123.78z"/>
		<path class="st0" d="M130.87,123.78h-0.69l-0.62-1.97h-1.85l-0.63,1.97h-0.68l1.84-5.63h0.79L130.87,123.78z M129.38,121.24
			l-0.74-2.33l-0.73,2.33H129.38z"/>
		<path class="st0" d="M135.91,118.15h1.11c0.74,0,1.33,0.25,1.77,0.75c0.44,0.5,0.67,1.19,0.67,2.07c0,0.89-0.23,1.59-0.68,2.08
			c-0.45,0.49-1.03,0.74-1.73,0.74h-1.14V118.15z M136.56,123.21h0.46c0.53,0,0.96-0.2,1.27-0.59c0.31-0.4,0.47-0.95,0.47-1.65
			c0-0.7-0.16-1.25-0.47-1.65c-0.31-0.4-0.74-0.6-1.27-0.6h-0.46V123.21z"/>
		<path class="st0" d="M143.49,123.78h-2.94v-5.63h2.92v0.57h-2.26v1.74h2.18v0.57h-2.18v2.18h2.29V123.78z"/>
		<path class="st0" d="M148.06,123.78H145v-5.63h0.65v5.06h2.41V123.78z"/>
		<path class="st0" d="M156.84,123.78h-2.94v-5.63h2.92v0.57h-2.26v1.74h2.18v0.57h-2.18v2.18h2.29V123.78z"/>
		<path class="st0" d="M161.6,123.43c-0.44,0.31-0.95,0.46-1.54,0.46c-0.73,0-1.28-0.25-1.66-0.75c-0.38-0.5-0.57-1.22-0.57-2.17
			c0-0.92,0.18-1.63,0.55-2.15c0.37-0.52,0.93-0.78,1.68-0.78c0.27,0,0.54,0.03,0.81,0.1c0.27,0.07,0.48,0.16,0.64,0.28l-0.22,0.52
			c-0.38-0.21-0.79-0.32-1.23-0.32c-0.52,0-0.9,0.19-1.16,0.57c-0.25,0.38-0.38,0.97-0.38,1.79c0,1.57,0.51,2.35,1.54,2.35
			c0.43,0,0.88-0.13,1.33-0.4L161.6,123.43z"/>
		<path class="st0" d="M165.84,122.01c0,0.65-0.13,1.13-0.4,1.43c-0.27,0.3-0.67,0.45-1.21,0.45c-1.09,0-1.63-0.62-1.63-1.86v-3.88
			h0.65v3.82c0,0.9,0.33,1.35,0.98,1.35c0.33,0,0.57-0.11,0.72-0.32c0.15-0.21,0.23-0.56,0.23-1.04v-3.81h0.65V122.01z"/>
		<path class="st0" d="M170.91,123.78h-0.69l-0.62-1.97h-1.85l-0.63,1.97h-0.68l1.84-5.63h0.79L170.91,123.78z M169.42,121.24
			l-0.74-2.33l-0.73,2.33H169.42z"/>
		<path class="st0" d="M171.5,118.15h1.11c0.74,0,1.33,0.25,1.77,0.75c0.44,0.5,0.67,1.19,0.67,2.07c0,0.89-0.23,1.59-0.68,2.08
			c-0.45,0.49-1.03,0.74-1.73,0.74h-1.14V118.15z M172.16,123.21h0.46c0.53,0,0.96-0.2,1.27-0.59c0.31-0.4,0.47-0.95,0.47-1.65
			c0-0.7-0.16-1.25-0.47-1.65c-0.31-0.4-0.74-0.6-1.27-0.6h-0.46V123.21z"/>
		<path class="st0" d="M177.56,118.04c0.63,0,1.11,0.25,1.44,0.75c0.33,0.5,0.5,1.23,0.5,2.18c0,0.95-0.16,1.67-0.49,2.17
			c-0.33,0.5-0.81,0.75-1.45,0.75c-0.63,0-1.11-0.25-1.44-0.75c-0.33-0.5-0.5-1.22-0.5-2.17c0-0.95,0.16-1.68,0.5-2.18
			C176.45,118.29,176.93,118.04,177.56,118.04z M177.56,123.32c0.83,0,1.25-0.78,1.25-2.35c0-1.57-0.42-2.35-1.25-2.35
			c-0.4,0-0.71,0.2-0.92,0.61c-0.21,0.41-0.32,0.99-0.32,1.74c0,0.76,0.11,1.35,0.32,1.75
			C176.84,123.11,177.15,123.32,177.56,123.32z"/>
		<path class="st0" d="M184.25,123.78h-0.82l-1.65-2.56h-0.73v2.56h-0.65v-5.63h1.59c0.53,0,0.96,0.13,1.27,0.39
			c0.31,0.26,0.46,0.62,0.46,1.08c0,0.34-0.11,0.65-0.34,0.92c-0.23,0.27-0.54,0.45-0.93,0.55L184.25,123.78z M181.05,120.65h0.83
			c0.35,0,0.63-0.09,0.84-0.28c0.22-0.19,0.32-0.42,0.32-0.71c0-0.63-0.38-0.94-1.15-0.94h-0.84V120.65z"/>
	</g>
	<g>
		<path class="st1" d="M74.71,111.65l-41.46,0.06c4.25,7.01,11.95,11.7,20.71,11.7C62.75,123.42,70.47,118.69,74.71,111.65
			 M35.33,87.01c0,0,30.9,4.91,31.82,5.04c0.92,0.12,2.89,0.68,4.18,1.35c1.29,0.68,6.76,3.81,6.7,3.93c0,0.01,0.02,0.01,0.06,0.02
			c-0.96-12.46-11.43-22.34-24.13-22.34c-13.33,0-24.2,10.87-24.2,24.2c0,3.29,0.66,6.43,1.86,9.3l4.16-0.74l21.61-3.82
			c1.71-0.3,2.53-1.15,2.57-2.09c0.03-0.94-0.72-1.98-2.16-2.65L35.33,87.01z M53.96,74.04c13.24,0,24.15,10.31,25.1,23.32
			c1.53,0.03,4.59,0.25,8,1.69c4.9,2.08,5.93,5.03,5.96,5.71c0.03,0.69,0.1,1.21-0.14,1.52c-0.4-0.3-1.01-0.49-2.08-0.51
			c-1.07-0.02-2.37,0.13-5.17,2.23c-2.8,2.1-5.93,3.65-7.97,3.65h-1.83c-4.34,7.6-12.52,12.73-21.87,12.73
			c-9.32,0-17.48-5.11-21.83-12.67l-17.95,0.03v-0.14l16.47-2.91c-1.2-2.93-1.86-6.12-1.86-9.47
			C28.79,85.35,40.09,74.04,53.96,74.04"/>
	</g>
</g>
</svg>
