<?xml version="1.0" encoding="utf-8"?>
<!-- Generator: Adobe Illustrator 28.0.0, SVG Export Plug-In . SVG Version: 6.00 Build 0)  -->
<svg version="1.1" id="Layer_1" xmlns="http://www.w3.org/2000/svg" xmlns:xlink="http://www.w3.org/1999/xlink" x="0px" y="0px"
	 viewBox="0 0 198.43 198.43" style="enable-background:new 0 0 198.43 198.43;" xml:space="preserve">
<style type="text/css">
	.st0{fill-rule:evenodd;clip-rule:evenodd;fill:#893D3A;}
	.st1{fill:none;stroke:#000000;stroke-width:0.1518;stroke-miterlimit:10;}
	.st2{fill-rule:evenodd;clip-rule:evenodd;fill:#23304A;}
</style>
<g>
	<path class="st0" d="M25.01,86.11h0.12h9.25c0.29,0,0.66,0.24,0.96,0.58c0.29,0.34,0.51,0.78,0.51,1.18v8.67v8.42
		c0,0.23-2.07,2.07-4.24,3.85c-2.17,1.78-4.44,3.5-4.83,3.5h-1.56h-0.2h-0.2h-1.56c-0.4,0-2.67-1.72-4.83-3.5
		c-2.17-1.78-4.24-3.62-4.24-3.85v-8.42v-8.67c0-0.4,0.22-0.84,0.51-1.18c0.29-0.34,0.66-0.58,0.96-0.58h9.25H25.01z M17.34,89.98
		c0.27,0.22,0.55,0.5,0.61,0.71c0.14,0.01,0.2,0.03,0.27,0.04c0.07,0.01,0.15,0.01,0.32-0.02c0.1-0.23,0.05-0.45-0.01-0.62
		c-0.05-0.17-0.12-0.28-0.06-0.28c0.02,0.01-0.32-0.13-0.7-0.23c-0.38-0.1-0.8-0.15-0.96,0.01C16.82,89.59,17.07,89.76,17.34,89.98
		 M31.63,90.72c0.19,0.03,0.35,0.05,0.28,0.01c-0.04-0.18-0.02-0.31,0.04-0.42c0.06-0.11,0.16-0.21,0.29-0.34
		c0.13-0.13,0.2-0.17,0.24-0.18c0.04-0.01,0.05,0.02,0.05,0.02c0.21-0.01,0.38-0.04,0.44-0.1c0.06-0.06,0-0.13-0.25-0.24
		c-0.46-0.19-0.82-0.06-1.06,0.12C31.41,89.77,31.28,90,31.28,90l-0.02,0.33l-0.02,0.33C31.24,90.65,31.45,90.69,31.63,90.72
		 M15.59,93c0.14-0.11,0.32-0.25,0.47-0.34c0.16-0.09,0.29-0.09,0.41-0.08c0.13,0.01,0.25,0.02,0.38-0.05
		c0.13-0.07,0.24-0.21,0.32-0.35c0.08-0.14,0.14-0.27,0.18-0.32c0.04-0.05,0-0.05-0.09-0.07c-0.09-0.02-0.23-0.04-0.37-0.14
		c-0.15-0.1-0.2-0.14-0.25-0.23c-0.05-0.08-0.11-0.2-0.25-0.44c-0.15-0.24-0.18-0.53-0.17-0.77c0.01-0.23,0.05-0.41,0.05-0.41
		s0.19,0.27,0.43,0.55c0.24,0.28,0.52,0.58,0.7,0.62c0.18,0.05,0.42,0.08,0.63,0.12c0.21,0.04,0.39,0.09,0.46,0.18
		c0.07,0.08,0.1,0.18,0.09,0.33c-0.02,0.14-0.09,0.33-0.21,0.59c-0.13,0.26-0.23,0.43-0.34,0.58c-0.11,0.16-0.24,0.3-0.42,0.51
		c-0.18,0.21-0.38,0.42-0.6,0.68c-0.22,0.26-0.46,0.56-0.7,0.95c-0.25,0.39-0.48,0.87-0.65,1.26c-0.17,0.39-0.28,0.67-0.28,0.67
		s-0.01,0.53,0,1.05c0,0.53,0.01,1.05,0.05,1.05c0.03,0,0.26-0.38,0.54-0.8c0.28-0.42,0.62-0.89,0.88-1.09
		c0.26-0.2,0.63-0.53,0.95-0.85c0.32-0.31,0.6-0.61,0.68-0.75c0.08-0.13,0.13-0.32,0.18-0.54c0.05-0.21,0.08-0.45,0.14-0.68
		c0.05-0.23,0.22-0.56,0.37-0.86c0.15-0.3,0.29-0.59,0.28-0.73c-0.02-0.23,0.18-0.29,0.47-0.29c0.29,0.01,0.65,0.08,0.96,0.12
		c0.15,0.02,0.43,0.11,0.73,0.24c0.3,0.12,0.6,0.28,0.78,0.44c0.19,0.16,0.33,0.27,0.46,0.37c0.13,0.1,0.24,0.18,0.36,0.26
		c0.14,0.09,0.1,0.34,0,0.62c-0.1,0.28-0.26,0.59-0.38,0.81c-0.12,0.26-0.32,0.62-0.5,0.91c-0.18,0.29-0.33,0.52-0.33,0.52
		s0.26-0.62,0.5-1.25s0.44-1.24,0.33-1.23c-0.12,0.01-0.52,0.11-0.95,0.17c-0.43,0.06-0.89,0.09-1.1-0.05
		c-0.24-0.15-0.45-0.37-0.59-0.55c-0.14-0.18-0.23-0.33-0.23-0.33s-0.13,0.05-0.27,0.18c-0.14,0.12-0.3,0.32-0.36,0.6
		c-0.05,0.28-0.15,0.75-0.23,1.15c-0.08,0.4-0.15,0.72-0.15,0.72s-0.04,0.01-0.16,0.09c-0.12,0.09-0.31,0.26-0.62,0.6
		c-0.3,0.34-0.46,0.65-0.62,1s-0.3,0.76-0.58,1.29s-0.49,1.04-0.63,1.42c-0.14,0.38-0.21,0.64-0.21,0.64s-0.05,0.52-0.07,1.16
		c-0.02,0.64,0.01,1.41,0.15,1.9c0.15,0.49,0.48,1.09,0.85,1.61c0.37,0.53,0.78,0.98,1.08,1.2c0.3,0.22,1.47,1.18,2.73,2.08
		c1.26,0.91,2.61,1.76,3.27,1.78c0.55,0.06,0.91,0.06,1.2,0.06c0.29-0.01,0.5-0.03,0.78-0.01c0.27,0.01,1.61-0.83,2.96-1.77
		c1.35-0.94,2.72-1.99,3.04-2.38c0.33-0.39,0.69-0.8,0.99-1.2c0.3-0.41,0.53-0.82,0.61-1.23c0.08-0.41,0.11-0.67,0.13-0.95
		c0.02-0.28,0.03-0.58,0.03-1.06c0.01-0.49-0.06-0.91-0.14-1.26c-0.08-0.36-0.17-0.65-0.2-0.88c-0.03-0.23-0.19-0.61-0.39-1.01
		c-0.2-0.4-0.43-0.82-0.62-1.13c-0.18-0.31-0.43-0.65-0.62-0.9c-0.2-0.26-0.34-0.44-0.34-0.44s0,0.12-0.03,0.28
		c-0.03,0.16-0.07,0.37-0.16,0.56c-0.09,0.19-0.19,0.35-0.27,0.46c-0.08,0.11-0.13,0.17-0.13,0.17s-0.02,0.14-0.03,0.4
		c-0.01,0.25,0,0.61,0.07,1.03c0.07,0.42,0.15,0.67,0.24,0.9c0.09,0.23,0.19,0.45,0.31,0.82c0.11,0.37,0.2,0.74,0.25,1.01
		c0.06,0.27,0.08,0.46,0.08,0.46s0.01,0.22-0.02,0.49c-0.03,0.27-0.09,0.61-0.22,0.85c-1.59,2.99-3.26,4.37-4.53,5
		c-1.27,0.64-2.15,0.52-2.15,0.52s-0.04-0.05-0.06-0.12c-0.02-0.07-0.02-0.16,0.06-0.25c0.08-0.09,0.1-0.36,0.05-0.71
		c-0.04-0.35-0.15-0.79-0.31-1.22c-0.13-0.34-0.57-0.84-0.98-1.25c-0.41-0.42-0.79-0.75-0.79-0.75s0.31,0.17,0.73,0.34
		c0.42,0.16,0.95,0.32,1.41,0.29c0.46-0.03,0.65-0.04,0.82-0.07c0.17-0.03,0.31-0.1,0.68-0.25c0.32-0.14,0.56-0.29,0.73-0.46
		c0.17-0.17,0.27-0.34,0.3-0.51c0.04-0.17,0.09-0.29,0.1-0.45c0.01-0.16-0.02-0.35-0.14-0.64c-0.13-0.29-0.42-0.57-0.75-0.77
		c-0.32-0.2-0.67-0.34-0.89-0.36c-0.22-0.02-0.46-0.05-0.68-0.06c-0.23-0.01-0.45-0.01-0.66,0.02c-0.21,0.03-0.39,0.09-0.6,0.16
		c-0.21,0.07-0.45,0.15-0.77,0.22c-0.32,0.07-0.61,0.11-0.88,0.11c-0.27,0.01-0.51-0.02-0.74-0.07c-0.23-0.05-0.5-0.2-0.77-0.42
		c-0.27-0.22-0.54-0.49-0.74-0.8c-0.2-0.31-0.31-0.53-0.36-0.71c-0.05-0.19-0.04-0.34-0.02-0.5c0.04-0.35,0.15-0.64,0.27-0.89
		c0.11-0.26,0.23-0.49,0.3-0.72c0.14-0.49,0.1-0.97,0.03-1.31c-0.07-0.35-0.18-0.57-0.18-0.57s0.16,0.16,0.32,0.39
		c0.17,0.24,0.34,0.55,0.37,0.87c0.02,0.21,0.06,0.44,0.07,0.73c0.02,0.29,0.01,0.63-0.05,1.05c-0.03,0.22-0.07,0.47-0.09,0.73
		c-0.01,0.26,0,0.54,0.09,0.82c0.03,0.1,0.16,0.23,0.32,0.35c0.16,0.12,0.36,0.22,0.52,0.28c0.16,0.05,0.45,0.09,0.74,0.09
		c0.29,0,0.58-0.03,0.73-0.09c0.16-0.06,0.3-0.12,0.45-0.23c0.15-0.11,0.3-0.26,0.47-0.53c0.17-0.26,0.21-0.47,0.2-0.64
		c-0.01-0.16-0.06-0.28-0.07-0.37c-0.01-0.09-0.31-0.34-0.62-0.57c-0.3-0.23-0.6-0.44-0.6-0.44s-0.08-0.18-0.12-0.38
		c-0.03-0.2-0.01-0.43,0.2-0.52c0.06,0.09,0.44,0.27,0.84,0.42c0.4,0.15,0.82,0.29,0.96,0.31c0.14,0.02,0.2,0.02,0.21,0.02
		c0.02-0.01,0-0.02,0-0.02s0.41-0.14,0.85-0.3c0.44-0.16,0.9-0.34,0.99-0.41c0.09-0.07,0.16,0.08,0.15,0.28
		c0,0.2-0.07,0.46-0.24,0.6c-0.17,0.14-0.43,0.33-0.67,0.51c-0.24,0.18-0.45,0.35-0.51,0.46c-0.06,0.1-0.1,0.27-0.12,0.45
		c-0.01,0.18,0.01,0.38,0.07,0.56c0.06,0.18,0.24,0.35,0.45,0.49c0.21,0.14,0.45,0.25,0.64,0.3c0.19,0.05,0.44,0.08,0.68,0.09
		c0.24,0,0.47-0.02,0.62-0.09c0.15-0.06,0.4-0.17,0.63-0.32c0.23-0.15,0.43-0.35,0.46-0.6c0.03-0.25,0-0.76-0.04-1.2
		c-0.04-0.44-0.09-0.82-0.09-0.82s-0.04-0.27-0.03-0.62c0.01-0.35,0.08-0.78,0.3-1.1c0.25-0.38,0.57-0.79,0.83-1.1
		c0.26-0.31,0.45-0.54,0.45-0.54s0.02-0.25,0.04-0.54c0.02-0.29,0.03-0.61,0.02-0.76c-0.01-0.15-0.08-0.51-0.19-0.77
		c-0.11-0.26-0.26-0.4-0.44-0.11c-0.27,0.24-0.45,0.37-0.64,0.45c-0.18,0.09-0.37,0.14-0.65,0.24c-0.28,0.1-0.69,0.11-1.03,0.09
		c-0.34-0.01-0.61-0.05-0.61-0.05l0.43,1.15l0.43,1.15c0,0-0.37-0.52-0.7-1.11c-0.34-0.59-0.65-1.25-0.53-1.55
		c0.12-0.32,0.37-0.58,0.63-0.77c0.26-0.2,0.53-0.34,0.7-0.42c0.17-0.08,0.46-0.17,0.81-0.26c0.35-0.09,0.76-0.16,1.17-0.23
		c0.28-0.13,0.28-0.1,0.25-0.07c-0.03,0.04-0.1,0.09,0.04,0.03c0.05-0.09,0.17,0.17,0.31,0.56c0.14,0.38,0.32,0.89,0.49,1.27
		c0.17,0.37,0.25,0.73,0.29,1c0.04,0.27,0.04,0.45,0.04,0.45s0.17,0.1,0.44,0.28c0.27,0.18,0.65,0.43,1.07,0.72
		c0.42,0.29,0.82,0.82,1.11,1.27c0.29,0.45,0.48,0.83,0.48,0.83s0.04-0.2,0.06-0.53c0.02-0.33,0.02-0.79-0.06-1.32
		c-0.08-0.52-0.28-0.97-0.46-1.28c-0.18-0.31-0.34-0.49-0.34-0.49s-0.52-0.66-1.08-1.36c-0.55-0.7-1.13-1.45-1.23-1.62
		c-0.1-0.18-0.2-0.33-0.23-0.45c-0.02-0.12,0.03-0.22,0.23-0.31c0.2-0.08,0.37-0.13,0.56-0.18c0.19-0.06,0.39-0.13,0.66-0.28
		c0.26-0.15,0.54-0.36,0.74-0.53c0.21-0.17,0.35-0.31,0.35-0.31s0.01,0.04,0,0.17c-0.01,0.13-0.04,0.34-0.13,0.67
		c-0.08,0.34-0.3,0.54-0.53,0.68c-0.23,0.15-0.47,0.24-0.61,0.37c-0.14,0.13,0.07,0.28,0.37,0.43c0.3,0.15,0.68,0.28,0.89,0.37
		c0.21,0.08,0.43,0.27,0.6,0.41c0.17,0.14,0.28,0.24,0.28,0.13v-1.99v-2.37c0-0.36-0.24-0.65-0.54-0.86
		c-0.3-0.2-0.67-0.32-0.93-0.32c-0.26,0-0.82,0.21-1.35,0.43c-0.53,0.22-1.03,0.45-1.17,0.49c-0.14,0.04-0.06-0.2,0.04-0.45
		c0.11-0.25,0.25-0.51,0.25-0.51h-6h-6c0,0,0.13,0.23,0.23,0.46c0.1,0.23,0.16,0.46,0.02,0.46c-0.14,0-0.47-0.24-0.86-0.48
		c-0.39-0.24-0.85-0.48-1.24-0.48c-0.51,0-0.96,0.21-1.27,0.47c-0.31,0.26-0.5,0.58-0.5,0.79v2.34v2.03
		C15.35,93.21,15.45,93.12,15.59,93"/>
	<path class="st1" d="M25.01,86.11h0.12h9.25c0.29,0,0.66,0.24,0.96,0.58c0.29,0.34,0.51,0.78,0.51,1.18v8.67v8.42
		c0,0.23-2.07,2.07-4.24,3.85c-2.17,1.78-4.44,3.5-4.83,3.5h-1.56h-0.2h-0.2h-1.56c-0.4,0-2.67-1.72-4.83-3.5
		c-2.17-1.78-4.24-3.62-4.24-3.85v-8.42v-8.67c0-0.4,0.22-0.84,0.51-1.18c0.29-0.34,0.66-0.58,0.96-0.58h9.25H25.01z M17.34,89.98
		c0.27,0.22,0.55,0.5,0.61,0.71c0.14,0.01,0.2,0.03,0.27,0.04c0.07,0.01,0.15,0.01,0.32-0.02c0.1-0.23,0.05-0.45-0.01-0.62
		c-0.05-0.17-0.12-0.28-0.06-0.28c0.02,0.01-0.32-0.13-0.7-0.23c-0.38-0.1-0.8-0.15-0.96,0.01C16.82,89.59,17.07,89.76,17.34,89.98z
		 M31.63,90.72c0.19,0.03,0.35,0.05,0.28,0.01c-0.04-0.18-0.02-0.31,0.04-0.42c0.06-0.11,0.16-0.21,0.29-0.34
		c0.13-0.13,0.2-0.17,0.24-0.18c0.04-0.01,0.05,0.02,0.05,0.02c0.21-0.01,0.38-0.04,0.44-0.1c0.06-0.06,0-0.13-0.25-0.24
		c-0.46-0.19-0.82-0.06-1.06,0.12C31.41,89.77,31.28,90,31.28,90l-0.02,0.33l-0.02,0.33C31.24,90.65,31.45,90.69,31.63,90.72z
		 M15.59,93c0.14-0.11,0.32-0.25,0.47-0.34c0.16-0.09,0.29-0.09,0.41-0.08c0.13,0.01,0.25,0.02,0.38-0.05
		c0.13-0.07,0.24-0.21,0.32-0.35c0.08-0.14,0.14-0.27,0.18-0.32c0.04-0.05,0-0.05-0.09-0.07c-0.09-0.02-0.23-0.04-0.37-0.14
		c-0.15-0.1-0.2-0.14-0.25-0.23c-0.05-0.08-0.11-0.2-0.25-0.44c-0.15-0.24-0.18-0.53-0.17-0.77c0.01-0.23,0.05-0.41,0.05-0.41
		s0.19,0.27,0.43,0.55c0.24,0.28,0.52,0.58,0.7,0.62c0.18,0.05,0.42,0.08,0.63,0.12c0.21,0.04,0.39,0.09,0.46,0.18
		c0.07,0.08,0.1,0.18,0.09,0.33c-0.02,0.14-0.09,0.33-0.21,0.59c-0.13,0.26-0.23,0.43-0.34,0.58c-0.11,0.16-0.24,0.3-0.42,0.51
		c-0.18,0.21-0.38,0.42-0.6,0.68c-0.22,0.26-0.46,0.56-0.7,0.95c-0.25,0.39-0.48,0.87-0.65,1.26c-0.17,0.39-0.28,0.67-0.28,0.67
		s-0.01,0.53,0,1.05c0,0.53,0.01,1.05,0.05,1.05c0.03,0,0.26-0.38,0.54-0.8c0.28-0.42,0.62-0.89,0.88-1.09
		c0.26-0.2,0.63-0.53,0.95-0.85c0.32-0.31,0.6-0.61,0.68-0.75c0.08-0.13,0.13-0.32,0.18-0.54c0.05-0.21,0.08-0.45,0.14-0.68
		c0.05-0.23,0.22-0.56,0.37-0.86c0.15-0.3,0.29-0.59,0.28-0.73c-0.02-0.23,0.18-0.29,0.47-0.29c0.29,0.01,0.65,0.08,0.96,0.12
		c0.15,0.02,0.43,0.11,0.73,0.24c0.3,0.12,0.6,0.28,0.78,0.44c0.19,0.16,0.33,0.27,0.46,0.37c0.13,0.1,0.24,0.18,0.36,0.26
		c0.14,0.09,0.1,0.34,0,0.62c-0.1,0.28-0.26,0.59-0.38,0.81c-0.12,0.26-0.32,0.62-0.5,0.91c-0.18,0.29-0.33,0.52-0.33,0.52
		s0.26-0.62,0.5-1.25s0.44-1.24,0.33-1.23c-0.12,0.01-0.52,0.11-0.95,0.17c-0.43,0.06-0.89,0.09-1.1-0.05
		c-0.24-0.15-0.45-0.37-0.59-0.55c-0.14-0.18-0.23-0.33-0.23-0.33s-0.13,0.05-0.27,0.18c-0.14,0.12-0.3,0.32-0.36,0.6
		c-0.05,0.28-0.15,0.75-0.23,1.15c-0.08,0.4-0.15,0.72-0.15,0.72s-0.04,0.01-0.16,0.09c-0.12,0.09-0.31,0.26-0.62,0.6
		c-0.3,0.34-0.46,0.65-0.62,1s-0.3,0.76-0.58,1.29s-0.49,1.04-0.63,1.42c-0.14,0.38-0.21,0.64-0.21,0.64s-0.05,0.52-0.07,1.16
		c-0.02,0.64,0.01,1.41,0.15,1.9c0.15,0.49,0.48,1.09,0.85,1.61c0.37,0.53,0.78,0.98,1.08,1.2c0.3,0.22,1.47,1.18,2.73,2.08
		c1.26,0.91,2.61,1.76,3.27,1.78c0.55,0.06,0.91,0.06,1.2,0.06c0.29-0.01,0.5-0.03,0.78-0.01c0.27,0.01,1.61-0.83,2.96-1.77
		c1.35-0.94,2.72-1.99,3.04-2.38c0.33-0.39,0.69-0.8,0.99-1.2c0.3-0.41,0.53-0.82,0.61-1.23c0.08-0.41,0.11-0.67,0.13-0.95
		c0.02-0.28,0.03-0.58,0.03-1.06c0.01-0.49-0.06-0.91-0.14-1.26c-0.08-0.36-0.17-0.65-0.2-0.88c-0.03-0.23-0.19-0.61-0.39-1.01
		c-0.2-0.4-0.43-0.82-0.62-1.13c-0.18-0.31-0.43-0.65-0.62-0.9c-0.2-0.26-0.34-0.44-0.34-0.44s0,0.12-0.03,0.28
		c-0.03,0.16-0.07,0.37-0.16,0.56c-0.09,0.19-0.19,0.35-0.27,0.46c-0.08,0.11-0.13,0.17-0.13,0.17s-0.02,0.14-0.03,0.4
		c-0.01,0.25,0,0.61,0.07,1.03c0.07,0.42,0.15,0.67,0.24,0.9c0.09,0.23,0.19,0.45,0.31,0.82c0.11,0.37,0.2,0.74,0.25,1.01
		c0.06,0.27,0.08,0.46,0.08,0.46s0.01,0.22-0.02,0.49c-0.03,0.27-0.09,0.61-0.22,0.85c-1.59,2.99-3.26,4.37-4.53,5
		c-1.27,0.64-2.15,0.52-2.15,0.52s-0.04-0.05-0.06-0.12c-0.02-0.07-0.02-0.16,0.06-0.25c0.08-0.09,0.1-0.36,0.05-0.71
		c-0.04-0.35-0.15-0.79-0.31-1.22c-0.13-0.34-0.57-0.84-0.98-1.25c-0.41-0.42-0.79-0.75-0.79-0.75s0.31,0.17,0.73,0.34
		c0.42,0.16,0.95,0.32,1.41,0.29c0.46-0.03,0.65-0.04,0.82-0.07c0.17-0.03,0.31-0.1,0.68-0.25c0.32-0.14,0.56-0.29,0.73-0.46
		c0.17-0.17,0.27-0.34,0.3-0.51c0.04-0.17,0.09-0.29,0.1-0.45c0.01-0.16-0.02-0.35-0.14-0.64c-0.13-0.29-0.42-0.57-0.75-0.77
		c-0.32-0.2-0.67-0.34-0.89-0.36c-0.22-0.02-0.46-0.05-0.68-0.06c-0.23-0.01-0.45-0.01-0.66,0.02c-0.21,0.03-0.39,0.09-0.6,0.16
		c-0.21,0.07-0.45,0.15-0.77,0.22c-0.32,0.07-0.61,0.11-0.88,0.11c-0.27,0.01-0.51-0.02-0.74-0.07c-0.23-0.05-0.5-0.2-0.77-0.42
		c-0.27-0.22-0.54-0.49-0.74-0.8c-0.2-0.31-0.31-0.53-0.36-0.71c-0.05-0.19-0.04-0.34-0.02-0.5c0.04-0.35,0.15-0.64,0.27-0.89
		c0.11-0.26,0.23-0.49,0.3-0.72c0.14-0.49,0.1-0.97,0.03-1.31c-0.07-0.35-0.18-0.57-0.18-0.57s0.16,0.16,0.32,0.39
		c0.17,0.24,0.34,0.55,0.37,0.87c0.02,0.21,0.06,0.44,0.07,0.73c0.02,0.29,0.01,0.63-0.05,1.05c-0.03,0.22-0.07,0.47-0.09,0.73
		c-0.01,0.26,0,0.54,0.09,0.82c0.03,0.1,0.16,0.23,0.32,0.35c0.16,0.12,0.36,0.22,0.52,0.28c0.16,0.05,0.45,0.09,0.74,0.09
		c0.29,0,0.58-0.03,0.73-0.09c0.16-0.06,0.3-0.12,0.45-0.23c0.15-0.11,0.3-0.26,0.47-0.53c0.17-0.26,0.21-0.47,0.2-0.64
		c-0.01-0.16-0.06-0.28-0.07-0.37c-0.01-0.09-0.31-0.34-0.62-0.57c-0.3-0.23-0.6-0.44-0.6-0.44s-0.08-0.18-0.12-0.38
		c-0.03-0.2-0.01-0.43,0.2-0.52c0.06,0.09,0.44,0.27,0.84,0.42c0.4,0.15,0.82,0.29,0.96,0.31c0.14,0.02,0.2,0.02,0.21,0.02
		c0.02-0.01,0-0.02,0-0.02s0.41-0.14,0.85-0.3c0.44-0.16,0.9-0.34,0.99-0.41c0.09-0.07,0.16,0.08,0.15,0.28
		c0,0.2-0.07,0.46-0.24,0.6c-0.17,0.14-0.43,0.33-0.67,0.51c-0.24,0.18-0.45,0.35-0.51,0.46c-0.06,0.1-0.1,0.27-0.12,0.45
		c-0.01,0.18,0.01,0.38,0.07,0.56c0.06,0.18,0.24,0.35,0.45,0.49c0.21,0.14,0.45,0.25,0.64,0.3c0.19,0.05,0.44,0.08,0.68,0.09
		c0.24,0,0.47-0.02,0.62-0.09c0.15-0.06,0.4-0.17,0.63-0.32c0.23-0.15,0.43-0.35,0.46-0.6c0.03-0.25,0-0.76-0.04-1.2
		c-0.04-0.44-0.09-0.82-0.09-0.82s-0.04-0.27-0.03-0.62c0.01-0.35,0.08-0.78,0.3-1.1c0.25-0.38,0.57-0.79,0.83-1.1
		c0.26-0.31,0.45-0.54,0.45-0.54s0.02-0.25,0.04-0.54c0.02-0.29,0.03-0.61,0.02-0.76c-0.01-0.15-0.08-0.51-0.19-0.77
		c-0.11-0.26-0.26-0.4-0.44-0.11c-0.27,0.24-0.45,0.37-0.64,0.45c-0.18,0.09-0.37,0.14-0.65,0.24c-0.28,0.1-0.69,0.11-1.03,0.09
		c-0.34-0.01-0.61-0.05-0.61-0.05l0.43,1.15l0.43,1.15c0,0-0.37-0.52-0.7-1.11c-0.34-0.59-0.65-1.25-0.53-1.55
		c0.12-0.32,0.37-0.58,0.63-0.77c0.26-0.2,0.53-0.34,0.7-0.42c0.17-0.08,0.46-0.17,0.81-0.26c0.35-0.09,0.76-0.16,1.17-0.23
		c0.28-0.13,0.28-0.1,0.25-0.07c-0.03,0.04-0.1,0.09,0.04,0.03c0.05-0.09,0.17,0.17,0.31,0.56c0.14,0.38,0.32,0.89,0.49,1.27
		c0.17,0.37,0.25,0.73,0.29,1c0.04,0.27,0.04,0.45,0.04,0.45s0.17,0.1,0.44,0.28c0.27,0.18,0.65,0.43,1.07,0.72
		c0.42,0.29,0.82,0.82,1.11,1.27c0.29,0.45,0.48,0.83,0.48,0.83s0.04-0.2,0.06-0.53c0.02-0.33,0.02-0.79-0.06-1.32
		c-0.08-0.52-0.28-0.97-0.46-1.28c-0.18-0.31-0.34-0.49-0.34-0.49s-0.52-0.66-1.08-1.36c-0.55-0.7-1.13-1.45-1.23-1.62
		c-0.1-0.18-0.2-0.33-0.23-0.45c-0.02-0.12,0.03-0.22,0.23-0.31c0.2-0.08,0.37-0.13,0.56-0.18c0.19-0.06,0.39-0.13,0.66-0.28
		c0.26-0.15,0.54-0.36,0.74-0.53c0.21-0.17,0.35-0.31,0.35-0.31s0.01,0.04,0,0.17c-0.01,0.13-0.04,0.34-0.13,0.67
		c-0.08,0.34-0.3,0.54-0.53,0.68c-0.23,0.15-0.47,0.24-0.61,0.37c-0.14,0.13,0.07,0.28,0.37,0.43c0.3,0.15,0.68,0.28,0.89,0.37
		c0.21,0.08,0.43,0.27,0.6,0.41c0.17,0.14,0.28,0.24,0.28,0.13v-1.99v-2.37c0-0.36-0.24-0.65-0.54-0.86
		c-0.3-0.2-0.67-0.32-0.93-0.32c-0.26,0-0.82,0.21-1.35,0.43c-0.53,0.22-1.03,0.45-1.17,0.49c-0.14,0.04-0.06-0.2,0.04-0.45
		c0.11-0.25,0.25-0.51,0.25-0.51h-6h-6c0,0,0.13,0.23,0.23,0.46c0.1,0.23,0.16,0.46,0.02,0.46c-0.14,0-0.47-0.24-0.86-0.48
		c-0.39-0.24-0.85-0.48-1.24-0.48c-0.51,0-0.96,0.21-1.27,0.47c-0.31,0.26-0.5,0.58-0.5,0.79v2.34v2.03
		C15.35,93.21,15.45,93.12,15.59,93z"/>
	<path class="st2" d="M172.63,105.55l1.08-2.32c0.36,0.38,0.64,0.66,0.86,0.83c0.65,0.55,1.39,0.83,2.24,0.83
		c0.69,0,1.28-0.2,1.77-0.59c0.47-0.39,0.77-0.86,0.89-1.42c0.14-0.65-0.01-1.16-0.46-1.55c-0.21-0.19-0.83-0.54-1.85-1.05
		c-1.09-0.56-1.81-1.15-2.14-1.78c-0.37-0.7-0.46-1.51-0.26-2.42c0.15-0.71,0.45-1.37,0.89-1.99c0.44-0.62,0.98-1.13,1.63-1.53
		c0.96-0.61,2.15-0.92,3.54-0.92c1.2,0,2.35,0.28,3.45,0.83l-0.98,2.14c-1-0.88-1.95-1.32-2.85-1.32c-0.54,0-1.02,0.18-1.46,0.53
		c-0.38,0.32-0.63,0.72-0.73,1.19c-0.12,0.55,0.02,1,0.41,1.35c0.25,0.22,0.88,0.58,1.9,1.07c1.18,0.56,1.93,1.19,2.25,1.88
		c0.33,0.7,0.39,1.53,0.19,2.49c-0.16,0.77-0.47,1.49-0.91,2.17c-0.44,0.67-0.99,1.23-1.63,1.67c-1,0.7-2.27,1.06-3.78,1.06
		c-1.16,0-2.22-0.23-3.17-0.68C173.26,105.9,172.97,105.75,172.63,105.55 M166.97,93.24c-2.3,0-3.86,1.97-4.7,5.91
		c-0.85,3.98-0.1,5.97,2.23,5.97c1.24,0,2.27-0.58,3.11-1.74c0.72-0.99,1.26-2.35,1.63-4.09c0.42-1.99,0.47-3.49,0.14-4.48
		C169.03,93.76,168.23,93.24,166.97,93.24 M167.46,91.65c2,0,3.51,0.54,4.53,1.62c1.2,1.28,1.51,3.25,0.95,5.89
		c-0.54,2.53-1.61,4.44-3.22,5.72c-1.51,1.2-3.39,1.8-5.65,1.8c-1.2,0-2.19-0.16-2.96-0.47c-0.78-0.32-1.4-0.81-1.87-1.49
		c-0.93-1.35-1.14-3.2-0.64-5.56c0.55-2.56,1.65-4.49,3.3-5.78C163.39,92.23,165.25,91.65,167.46,91.65 M151.06,98.76h0.72
		c0.53,0,0.99-0.16,1.38-0.48c0.62-0.51,1.02-1.22,1.22-2.15c0.18-0.83,0.12-1.52-0.17-2.06c-0.23-0.44-0.67-0.66-1.3-0.66h-0.71
		L151.06,98.76z M150.83,99.9l-1.25,5.85c-0.06,0.28-0.07,0.51-0.04,0.71h-3.73c0.1-0.16,0.19-0.4,0.26-0.71l2.8-13.15
		c0.06-0.26,0.07-0.5,0.04-0.71h5.59c1.12,0,1.99,0.28,2.62,0.83c0.85,0.75,1.13,1.82,0.84,3.2c-0.14,0.66-0.4,1.26-0.78,1.79
		c-0.38,0.53-0.83,0.95-1.37,1.26c-0.4,0.22-0.95,0.45-1.64,0.69l2.31,6.15c0.12,0.31,0.24,0.52,0.36,0.65h-4.21
		c0.01-0.23,0-0.46-0.06-0.67L150.83,99.9z M146.69,91.89c-0.11,0.2-0.2,0.44-0.26,0.71l-1.88,8.84c-0.27,1.27-0.81,2.33-1.62,3.2
		c-1.28,1.37-3.1,2.05-5.46,2.05c-1.01,0-1.85-0.13-2.51-0.39c-0.66-0.27-1.19-0.67-1.59-1.23c-0.66-0.93-0.82-2.16-0.49-3.7
		l1.87-8.78c0.06-0.28,0.07-0.51,0.04-0.71h3.72c-0.12,0.21-0.21,0.44-0.26,0.71l-1.91,8.98c-0.2,0.92-0.15,1.65,0.15,2.2
		c0.41,0.78,1.19,1.16,2.33,1.16c0.63,0,1.22-0.12,1.78-0.36c0.56-0.24,1.03-0.58,1.39-1c0.48-0.58,0.83-1.34,1.03-2.29l1.85-8.69
		c0.06-0.31,0.07-0.54,0.04-0.71H146.69z M132.16,92.4l-0.51,2.41c-0.99-0.97-2.12-1.46-3.4-1.46c-1.23,0-2.31,0.44-3.24,1.33
		c-0.55,0.54-1.01,1.18-1.37,1.93c-0.36,0.75-0.66,1.67-0.89,2.75c-0.41,1.93-0.38,3.4,0.1,4.4c0.2,0.42,0.5,0.75,0.9,0.98
		c0.4,0.24,0.86,0.35,1.37,0.35c0.5,0,1-0.14,1.5-0.43l1.17-5.49c0.06-0.3,0.07-0.54,0.04-0.71h3.59c-0.11,0.2-0.2,0.44-0.26,0.71
		l-1.19,5.56c-0.08,0.39-0.1,0.71-0.06,0.97c-0.8,0.24-1.4,0.42-1.78,0.52c-1.15,0.31-2.33,0.46-3.53,0.46
		c-1.13,0-2.06-0.14-2.8-0.41c-0.74-0.27-1.36-0.71-1.84-1.3c-1.1-1.33-1.39-3.22-0.86-5.67c0.55-2.58,1.76-4.56,3.62-5.96
		c1.53-1.15,3.36-1.72,5.49-1.72C129.53,91.64,130.85,91.89,132.16,92.4 M111.32,91.89h8.09l-0.35,1.63
		c-0.2-0.06-0.43-0.09-0.67-0.09h-3.79l-1.04,4.89h3.71c0.31,0,0.58-0.03,0.79-0.08l-0.36,1.68c-0.17-0.05-0.41-0.08-0.72-0.08
		h-3.74l-1.06,4.97h3.67c0.31,0,0.59-0.03,0.83-0.09l-0.38,1.76h-8.09c0.11-0.19,0.2-0.43,0.26-0.7l2.8-13.16
		C111.33,92.3,111.35,92.06,111.32,91.89 M97.9,105.55l1.08-2.32c0.36,0.38,0.64,0.66,0.86,0.83c0.65,0.55,1.39,0.83,2.24,0.83
		c0.69,0,1.28-0.2,1.77-0.59c0.47-0.39,0.77-0.86,0.89-1.42c0.14-0.65-0.01-1.16-0.46-1.55c-0.21-0.19-0.83-0.54-1.85-1.05
		c-1.09-0.56-1.81-1.15-2.14-1.78c-0.37-0.7-0.46-1.51-0.26-2.42c0.15-0.71,0.45-1.37,0.89-1.99c0.44-0.62,0.98-1.13,1.63-1.53
		c0.96-0.61,2.15-0.92,3.54-0.92c1.2,0,2.35,0.28,3.45,0.83l-0.98,2.14c-1-0.88-1.95-1.32-2.85-1.32c-0.54,0-1.02,0.18-1.46,0.53
		c-0.38,0.32-0.63,0.72-0.73,1.19c-0.12,0.55,0.02,1,0.41,1.35c0.25,0.22,0.88,0.58,1.9,1.07c1.18,0.56,1.93,1.19,2.25,1.88
		c0.33,0.7,0.39,1.53,0.19,2.49c-0.16,0.77-0.47,1.49-0.91,2.17c-0.44,0.67-0.99,1.23-1.63,1.67c-1,0.7-2.27,1.06-3.78,1.06
		c-1.16,0-2.22-0.23-3.17-0.68C98.52,105.9,98.24,105.75,97.9,105.55 M95.39,91.89h3.72c-0.1,0.17-0.19,0.41-0.26,0.71l-2.8,13.15
		c-0.06,0.31-0.07,0.54-0.04,0.71h-3.72c0.11-0.19,0.2-0.43,0.26-0.71l2.8-13.15C95.41,92.31,95.42,92.07,95.39,91.89 M81.57,96.15
		l-2.05,9.6c-0.06,0.29-0.07,0.53-0.04,0.71h-1.8c0.12-0.21,0.21-0.44,0.26-0.71l2.8-13.15c0.06-0.3,0.07-0.54,0.04-0.71h3.1
		c0,0.16,0.06,0.36,0.19,0.62l4.74,9.65l2.04-9.56c0.05-0.28,0.07-0.52,0.04-0.71h1.79c-0.1,0.13-0.18,0.38-0.26,0.71l-2.81,13.17
		c-0.05,0.27-0.06,0.5-0.03,0.69h-3.04c-0.01-0.14-0.08-0.36-0.22-0.64L81.57,96.15z M79.38,92.35l-0.54,2.52
		c-0.39-0.4-0.74-0.69-1.04-0.88c-0.63-0.41-1.31-0.62-2.05-0.62c-1.25,0-2.33,0.52-3.24,1.55c-0.93,1.05-1.58,2.45-1.96,4.23
		c-0.4,1.88-0.32,3.34,0.25,4.38c0.53,0.97,1.38,1.45,2.57,1.45c0.76,0,1.56-0.24,2.41-0.71c0.31-0.18,0.73-0.46,1.24-0.83
		l-0.52,2.45c-0.6,0.23-1.12,0.41-1.58,0.52c-0.79,0.21-1.65,0.31-2.59,0.31c-2.32,0-3.93-0.63-4.83-1.9
		c-0.93-1.32-1.14-3.23-0.6-5.72c0.35-1.66,0.9-2.99,1.65-4c1.7-2.29,4.16-3.43,7.38-3.43C77.21,91.65,78.36,91.88,79.38,92.35
		 M58.24,91.89h8.09l-0.35,1.63c-0.2-0.06-0.43-0.09-0.67-0.09h-3.79l-1.04,4.89h3.71c0.31,0,0.58-0.03,0.79-0.08l-0.36,1.68
		c-0.17-0.05-0.41-0.08-0.72-0.08h-3.74l-1.06,4.97h3.67c0.31,0,0.59-0.03,0.83-0.09l-0.38,1.76h-8.09c0.11-0.19,0.2-0.43,0.26-0.7
		l2.8-13.16C58.26,92.3,58.27,92.06,58.24,91.89 M46.5,91.89h10.67l-0.4,1.9c-0.28-0.07-0.54-0.11-0.79-0.11H53.2l-2.57,12.07
		c-0.06,0.29-0.07,0.53-0.04,0.71h-3.72c0.11-0.19,0.2-0.42,0.26-0.71l2.57-12.07h-2.67c-0.29,0-0.6,0.04-0.94,0.11L46.5,91.89z"/>
</g>
</svg>
