<?xml version="1.0" encoding="utf-8"?>
<!-- Generator: Adobe Illustrator 28.0.0, SVG Export Plug-In . SVG Version: 6.00 Build 0)  -->
<svg version="1.1" id="Layer_1" xmlns="http://www.w3.org/2000/svg" xmlns:xlink="http://www.w3.org/1999/xlink" x="0px" y="0px"
	 viewBox="0 0 198.43 198.43" style="enable-background:new 0 0 198.43 198.43;" xml:space="preserve">
<style type="text/css">
	.st0{fill-rule:evenodd;clip-rule:evenodd;fill:#384E88;}
	.st1{fill-rule:evenodd;clip-rule:evenodd;fill:#E56332;}
</style>
<g>
	<polygon class="st0" points="30.65,143.63 30.65,154.97 27.49,154.97 27.49,143.63 24.26,143.63 24.26,140.6 33.87,140.6 
		33.87,143.63 	"/>
	<g>
		<path class="st0" d="M36.74,154.97c-1.04,0-1.88-0.4-2.5-1.17c-0.56-0.71-0.85-1.6-0.85-2.65c0-0.94,0.23-1.75,0.7-2.44
			c-0.48-0.67-0.7-1.48-0.7-2.42c0-1.04,0.29-1.91,0.85-2.62c0.63-0.75,1.46-1.15,2.5-1.15h7.06v2.63h-6.6
			c-0.31,0-0.54,0.12-0.71,0.35c-0.19,0.23-0.27,0.48-0.27,0.79c0,0.71,0.33,1.08,0.98,1.08h6.6v2.6h-6.6
			c-0.69,0-1.02,0.39-1.04,1.17c0,0.31,0.08,0.56,0.27,0.77c0.19,0.25,0.44,0.38,0.77,0.38h6.6v2.67H36.74z"/>
		<path class="st0" d="M50.53,154.97c-1.94,0-3.35-0.52-4.25-1.56c-0.83-0.98-1.25-2.44-1.25-4.42v-6.46h2.75v6.14
			c0,0.85,0.06,1.52,0.21,1.96c0.21,0.71,0.62,1.17,1.23,1.4c0.42,0.17,0.96,0.25,1.63,0.25h4.64v2.69H50.53z"/>
		<path class="st0" d="M58.79,154.97c-1.04,0-1.87-0.4-2.5-1.17c-0.56-0.71-0.85-1.6-0.85-2.65c0-0.94,0.23-1.75,0.71-2.44
			c-0.48-0.67-0.71-1.48-0.71-2.42c0-1.04,0.29-1.91,0.85-2.62c0.63-0.75,1.46-1.15,2.5-1.15h7.06v2.63h-6.6
			c-0.31,0-0.54,0.12-0.71,0.35c-0.19,0.23-0.27,0.48-0.27,0.79c0,0.71,0.33,1.08,0.98,1.08h6.6v2.6h-6.6
			c-0.69,0-1.02,0.39-1.04,1.17c0,0.31,0.08,0.56,0.27,0.77c0.18,0.25,0.44,0.38,0.77,0.38h6.6v2.67H58.79z"/>
		<path class="st0" d="M77.54,154.97l-3.76-10.24c-0.05-0.12-0.12-0.17-0.26-0.17c-0.15,0-0.22,0.05-0.26,0.17l-3.69,10.24h-3.44
			l4.41-12.38c0.24-0.65,0.63-1.18,1.21-1.56c0.53-0.34,1.13-0.51,1.78-0.51c0.67,0,1.3,0.19,1.83,0.56
			c0.55,0.38,0.94,0.89,1.15,1.51l4.43,12.38H77.54z"/>
		<path class="st0" d="M97.37,154.97l-1.63-9.33c-0.09-0.42-0.25-0.63-0.52-0.63c-0.29,0-0.46,0.21-0.52,0.63l-0.93,6.83
			c-0.1,0.79-0.45,1.55-1.23,2.05c-0.71,0.44-1.56,0.53-2.37,0.53c-0.73,0-1.35-0.19-1.88-0.56c-0.57-0.41-0.92-1-1.07-1.79
			l-1.25-7.06c-0.07-0.42-0.23-0.63-0.52-0.63c-0.29,0-0.46,0.21-0.52,0.63l-1.26,9.33h-2.75l1.35-9.98
			c0.11-0.83,0.54-1.5,1.27-2.02c0.67-0.46,1.43-0.69,2.28-0.69c0.71,0,1.29,0.17,1.79,0.5c0.55,0.35,0.88,0.85,1,1.5l1.42,7.69
			c0.05,0.27,0.19,0.41,0.47,0.41c0.35,0,0.55-0.21,0.6-0.62l0.68-5c0.15-1.12,0.23-1.71,0.24-1.77c0.11-0.83,0.54-1.5,1.27-2.02
			c0.67-0.46,1.43-0.69,2.3-0.69c0.68,0,1.29,0.17,1.78,0.5c0.53,0.35,0.87,0.85,0.98,1.5l1.97,10.69H97.37z"/>
		<path class="st0" d="M110.37,154.97l-3.25-8.85c-0.04-0.1-0.1-0.15-0.23-0.15c-0.13,0-0.19,0.04-0.23,0.15l-3.19,8.85h-2.98
			l3.81-10.71c0.21-0.56,0.54-1.02,1.04-1.36c0.46-0.29,0.98-0.44,1.54-0.44c0.58,0,1.12,0.17,1.58,0.48c0.48,0.33,0.81,0.77,1,1.31
			l3.83,10.71H110.37z"/>
		<path class="st0" d="M123.85,147.37c-0.41,0.63-1.02,1.1-1.81,1.42l-6.04,2.46c-0.27,0.11-0.41,0.27-0.41,0.52
			c0,0.29,0.21,0.46,0.62,0.46h7.64v2.75h-8.04c-0.83,0-1.56-0.34-2.14-0.98c-0.56-0.63-0.83-1.38-0.83-2.21
			c0-1.5,0.81-2.58,2.44-3.23l5.79-2.33c0.35-0.14,0.54-0.33,0.54-0.52c0-0.27-0.19-0.4-0.54-0.4h-7.94v-2.77h8.27
			c0.87,0,1.6,0.29,2.18,0.83c0.59,0.56,0.87,1.27,0.87,2.13C124.45,146.16,124.24,146.79,123.85,147.37"/>
		<path class="st0" d="M134.44,146.24c-0.4-0.71-0.94-1.08-1.6-1.08h-3.15c-0.67,0-1.19,0.35-1.58,1.08
			c-0.36,0.65-0.52,1.44-0.52,2.38c0,0.98,0.19,1.81,0.54,2.5c0.4,0.77,0.92,1.17,1.57,1.17h3.15c0.73,0,1.29-0.46,1.66-1.35
			c0.31-0.69,0.44-1.46,0.44-2.29C134.93,147.68,134.77,146.89,134.44,146.24 M136.62,153.08c-0.81,1.27-1.93,1.89-3.33,1.89h-4.06
			c-1.39,0-2.5-0.63-3.31-1.89c-0.73-1.15-1.09-2.57-1.09-4.23c0-1.69,0.38-3.12,1.11-4.33c0.83-1.31,1.92-1.98,3.29-1.98h4.06
			c1.39,0,2.52,0.67,3.35,1.98c0.73,1.19,1.1,2.64,1.1,4.33C137.72,150.51,137.37,151.93,136.62,153.08"/>
		<path class="st0" d="M150.01,154.39c-0.63,0.44-1.36,0.64-2.17,0.64c-0.75,0-1.39-0.17-1.96-0.54c-0.65-0.41-1.08-1-1.33-1.79
			l-2.18-7.06c-0.15-0.42-0.33-0.63-0.61-0.63c-0.31,0-0.45,0.21-0.45,0.63v9.33h-2.75v-9.98c0-0.83,0.33-1.5,1-2.02
			c0.6-0.46,1.33-0.69,2.19-0.69c0.71,0,1.34,0.17,1.88,0.5c0.58,0.35,0.98,0.85,1.19,1.5l2.46,7.69c0.08,0.27,0.27,0.41,0.52,0.41
			c0.35,0,0.54-0.21,0.54-0.62v-9.31h2.75v10.02C151.07,153.26,150.72,153.91,150.01,154.39"/>
		<path class="st0" d="M160.68,154.97l-3.25-8.85c-0.04-0.1-0.1-0.15-0.23-0.15c-0.13,0-0.19,0.04-0.23,0.15l-3.19,8.85h-2.98
			l3.81-10.71c0.21-0.56,0.54-1.02,1.04-1.36c0.46-0.29,0.98-0.44,1.54-0.44c0.58,0,1.13,0.17,1.58,0.48c0.48,0.33,0.82,0.77,1,1.31
			l3.83,10.71H160.68z"/>
		<path class="st0" d="M173.33,153.78c-0.61,0.79-1.44,1.19-2.48,1.19h-7.1v-2.65h6.64c0.29,0,0.52-0.12,0.69-0.37
			c0.15-0.21,0.23-0.46,0.23-0.77c0-0.75-0.29-1.1-0.92-1.1h-3.9c-1.06,0-1.89-0.4-2.52-1.19c-0.57-0.71-0.83-1.56-0.83-2.58
			c0-1.04,0.29-1.91,0.87-2.62c0.61-0.75,1.44-1.15,2.48-1.15h7.06v2.63h-6.6c-0.31,0-0.54,0.12-0.71,0.35
			c-0.19,0.23-0.27,0.48-0.27,0.79c0,0.71,0.33,1.08,0.98,1.08h3.89c1.04,0,1.85,0.4,2.48,1.17c0.54,0.73,0.83,1.59,0.83,2.63
			C174.16,152.2,173.89,153.08,173.33,153.78"/>
		<path class="st1" d="M25.89,59.12c0.03-8.68,7.14-15.71,15.93-15.75H24.26v68.44c0,8.72,7.16,15.8,15.99,15.8h10.12V61.15H25.89
			V59.12z"/>
		<path class="st1" d="M108.26,45.91c2.3-1.23,4.79-2.07,7.45-2.54H93.58v17.78H69.1v66.45l30.75-72.51
			C101.53,51.27,104.22,48.17,108.26,45.91"/>
		<path class="st1" d="M158.03,43.37h-32.44c2.85,0.51,5.5,1.45,7.89,2.82c3.87,2.26,6.56,5.22,8.07,8.89l28.59,67.04
			c2.42-2.77,3.89-6.37,3.89-10.31V59.16C174.03,50.43,166.86,43.37,158.03,43.37"/>
		<path class="st1" d="M148.77,127.61H93.13l25.72-59.97c0.33-0.7,0.84-0.99,1.85-0.99c1,0,1.52,0.29,1.85,0.99L148.77,127.61z"/>
	</g>
</g>
</svg>
