<?xml version="1.0" encoding="utf-8"?>
<!-- Generator: Adobe Illustrator 28.0.0, SVG Export Plug-In . SVG Version: 6.00 Build 0)  -->
<svg version="1.1" id="Layer_1" xmlns="http://www.w3.org/2000/svg" xmlns:xlink="http://www.w3.org/1999/xlink" x="0px" y="0px"
	 viewBox="0 0 198.43 198.43" style="enable-background:new 0 0 198.43 198.43;" xml:space="preserve">
<style type="text/css">
	.st0{fill-rule:evenodd;clip-rule:evenodd;fill:#FFFDFC;}
	.st1{fill:none;stroke:#151515;stroke-width:0.031;stroke-miterlimit:10;}
	.st2{fill-rule:evenodd;clip-rule:evenodd;fill:#E6352F;}
	.st3{fill-rule:evenodd;clip-rule:evenodd;fill:#402877;}
</style>
<g>
	<path class="st0" d="M21.47,101.73v2.07c-0.35-0.01-0.72-0.02-1.12-0.05l0.01,0c-0.37-0.03-0.63-0.11-0.79-0.21
		c-0.09-0.05-0.14-0.11-0.15-0.16c-0.02-0.05-0.01-0.11,0.01-0.17c0.04-0.1,0.13-0.21,0.26-0.31l-0.01,0
		C20.12,102.57,20.76,102.15,21.47,101.73 M21.47,106.78v1.78c-0.24,0.01-0.47,0.02-0.68,0.02c-0.4,0-0.7-0.04-0.94-0.09
		c-0.23-0.05-0.42-0.13-0.58-0.22l-0.01,0c-0.05-0.03-0.09-0.01-0.09-0.03c0-0.04,0.08-0.11,0.25-0.23
		C19.92,107.64,20.59,107.22,21.47,106.78 M48.77,91.49l-6.78,14.86l-7.33-14.86h-19.8l0,3h6.61v4.93
		c-1.14,0.66-2.22,1.38-3.07,2.15l0.01-0.01c-0.5,0.42-0.86,0.93-1.02,1.44c-0.12,0.4-0.13,0.79,0.01,1.16
		c0.14,0.36,0.41,0.69,0.85,0.94c0.41,0.23,0.96,0.39,1.67,0.46c-1.26,0.75-1.66,0.99-2.36,1.52l-0.01,0
		c-0.27,0.22-0.5,0.49-0.64,0.77c-0.13,0.27-0.17,0.56-0.09,0.84c0.08,0.28,0.26,0.54,0.6,0.77c0.37,0.25,0.94,0.46,1.76,0.59
		l0.01,0c0.63,0.09,1.42,0.15,2.28,0.17v1.06h4.75v-1.44c1.05-0.22,2.04-0.54,2.84-0.99h0c0.31-0.17,0.45-0.46,0.45-0.76
		c0-0.13-0.03-0.27-0.08-0.39c-0.06-0.13-0.14-0.24-0.25-0.33c-0.22-0.18-0.54-0.26-0.93-0.12l-0.01,0
		c-0.59,0.24-1.29,0.45-2.03,0.63v-2.91c0.2-0.08,0.31-0.15,0.39-0.25c0.12-0.16,0.1-0.27,0.1-0.46c0-0.17,0.01-0.31-0.06-0.44
		c-0.08-0.17-0.21-0.26-0.43-0.25v-4.38c0.01-0.01,0.02-0.01,0.03-0.01c0.18-0.08,0.31-0.15,0.41-0.27c0.11-0.14,0.16-0.3,0.14-0.54
		c-0.01-0.09-0.02-0.19-0.03-0.3c-0.01-0.11-0.03-0.21-0.05-0.29c-0.03-0.18-0.1-0.39-0.31-0.51c-0.05-0.03-0.11-0.05-0.18-0.06
		v-2.7h5.11l8.32,16.79h4.66l9.1-19.79L48.77,91.49z"/>
	<path class="st1" d="M21.47,101.73v2.07c-0.35-0.01-0.72-0.02-1.12-0.05l0.01,0c-0.37-0.03-0.63-0.11-0.79-0.21
		c-0.09-0.05-0.14-0.11-0.15-0.16c-0.02-0.05-0.01-0.11,0.01-0.17c0.04-0.1,0.13-0.21,0.26-0.31l-0.01,0
		C20.12,102.57,20.76,102.15,21.47,101.73z M21.47,106.78v1.78c-0.24,0.01-0.47,0.02-0.68,0.02c-0.4,0-0.7-0.04-0.94-0.09
		c-0.23-0.05-0.42-0.13-0.58-0.22l-0.01,0c-0.05-0.03-0.09-0.01-0.09-0.03c0-0.04,0.08-0.11,0.25-0.23
		C19.92,107.64,20.59,107.22,21.47,106.78z M48.77,91.49l-6.78,14.86l-7.33-14.86h-19.8l0,3h6.61v4.93
		c-1.14,0.66-2.22,1.38-3.07,2.15l0.01-0.01c-0.5,0.42-0.86,0.93-1.02,1.44c-0.12,0.4-0.13,0.79,0.01,1.16
		c0.14,0.36,0.41,0.69,0.85,0.94c0.41,0.23,0.96,0.39,1.67,0.46c-1.26,0.75-1.66,0.99-2.36,1.52l-0.01,0
		c-0.27,0.22-0.5,0.49-0.64,0.77c-0.13,0.27-0.17,0.56-0.09,0.84c0.08,0.28,0.26,0.54,0.6,0.77c0.37,0.25,0.94,0.46,1.76,0.59
		l0.01,0c0.63,0.09,1.42,0.15,2.28,0.17v1.06h4.75v-1.44c1.05-0.22,2.04-0.54,2.84-0.99h0c0.31-0.17,0.45-0.46,0.45-0.76
		c0-0.13-0.03-0.27-0.08-0.39c-0.06-0.13-0.14-0.24-0.25-0.33c-0.22-0.18-0.54-0.26-0.93-0.12l-0.01,0
		c-0.59,0.24-1.29,0.45-2.03,0.63v-2.91c0.2-0.08,0.31-0.15,0.39-0.25c0.12-0.16,0.1-0.27,0.1-0.46c0-0.17,0.01-0.31-0.06-0.44
		c-0.08-0.17-0.21-0.26-0.43-0.25v-4.38c0.01-0.01,0.02-0.01,0.03-0.01c0.18-0.08,0.31-0.15,0.41-0.27c0.11-0.14,0.16-0.3,0.14-0.54
		c-0.01-0.09-0.02-0.19-0.03-0.3c-0.01-0.11-0.03-0.21-0.05-0.29c-0.03-0.18-0.1-0.39-0.31-0.51c-0.05-0.03-0.11-0.05-0.18-0.06
		v-2.7h5.11l8.32,16.79h4.66l9.1-19.79L48.77,91.49z"/>
	<path class="st2" d="M25.64,97.58c-2.3,1.1-5.23,2.51-7.05,4.17c-1.62,1.38-1.62,3.62,2.25,3.57c-1.9,1.12-2.3,1.35-3.11,1.96
		c-0.94,0.75-1.25,2.06,1.51,2.51c2.43,0.33,7.09,0.29,9.71-1.18c0.63-0.35,0.26-1.42-0.59-1.12c-2.1,0.84-5.41,1.34-7.57,1.35
		c-0.83-0.01-1.28-0.14-1.65-0.35c-0.3-0.16-0.34-0.36,0.12-0.7c1.17-0.86,3.27-2.01,6.71-3.02c0.5-0.16,0.48-0.24,0.48-0.52
		c0-0.28,0.01-0.47-0.29-0.42c-1.96,0.19-3.27,0.33-5.82,0.19c-1.38-0.13-1.44-0.8-0.82-1.32c1.71-1.34,6.35-3.65,6.62-3.78
		c0.29-0.14,0.42-0.21,0.39-0.55c-0.02-0.22-0.05-0.41-0.08-0.56C26.41,97.56,26.29,97.26,25.64,97.58"/>
	<polygon class="st3" points="39.42,110.8 39.66,111.28 44.32,111.28 44.54,110.8 	"/>
	<polygon class="st3" points="39,109.96 39.24,110.44 44.7,110.44 44.92,109.96 	"/>
	<polygon class="st3" points="38.59,109.12 38.82,109.6 45.09,109.6 45.31,109.12 	"/>
	<polygon class="st3" points="38.17,108.28 38.41,108.76 45.48,108.76 45.7,108.28 	"/>
	<polygon class="st3" points="37.75,107.44 37.99,107.92 45.86,107.92 46.08,107.44 	"/>
	<polygon class="st3" points="37.34,106.6 37.58,107.08 46.25,107.08 46.47,106.6 	"/>
	<rect x="21.47" y="110.8" class="st3" width="4.75" height="0.48"/>
	<path class="st3" d="M21.47,110.22v0.22h4.75v-0.48h-0.68c-0.25,0.04-0.5,0.08-0.75,0.11C23.67,110.2,22.52,110.24,21.47,110.22"/>
	<path class="st3" d="M21.47,108.28v0.28c0.83-0.04,1.77-0.14,2.72-0.28H21.47z"/>
	<path class="st3" d="M21.47,107.44v0.48h4.58c0.06-0.01,0.12-0.03,0.17-0.04v-0.44H21.47z"/>
	<path class="st3" d="M21.47,106.78v0.3h4.75v-0.48h-4.39C21.72,106.66,21.59,106.72,21.47,106.78"/>
	<path class="st3" d="M22.64,106.24h3.59v-0.48h-2.39C23.41,105.92,23.01,106.08,22.64,106.24"/>
	<path class="st3" d="M24.87,105.4h1.36v-0.43c-0.05,0.02-0.11,0.04-0.17,0.06l-0.01,0C25.64,105.15,25.24,105.28,24.87,105.4"/>
	<path class="st3" d="M21.47,103.24v0.48h3c0.54-0.04,1.07-0.09,1.67-0.15l-0.01,0c0.04-0.01,0.07-0.01,0.11-0.01v-0.32H21.47z"/>
	<rect x="21.47" y="102.4" class="st3" width="4.75" height="0.48"/>
	<path class="st3" d="M21.47,101.73v0.31h4.75v-0.48h-4.47C21.66,101.62,21.57,101.68,21.47,101.73"/>
	<path class="st3" d="M22.39,101.2h3.84v-0.48h-2.98C22.97,100.88,22.68,101.04,22.39,101.2"/>
	<path class="st3" d="M23.92,100.36h2.31v-0.48h-1.39C24.55,100.03,24.25,100.19,23.92,100.36"/>
	<path class="st3" d="M25.54,99.52h0.69v-0.35C26.14,99.22,25.89,99.35,25.54,99.52"/>
	<path class="st3" d="M21.47,99.05v0.37c0.11-0.06,0.22-0.12,0.33-0.19c0.11-0.06,0.22-0.12,0.33-0.18H21.47z"/>
	<path class="st3" d="M21.47,98.21v0.48h1.33c0.31-0.16,0.63-0.32,0.94-0.48H21.47z"/>
	<path class="st3" d="M21.47,97.37v0.48h3.01c0.34-0.17,0.67-0.33,1-0.48H21.47z"/>
	<rect x="21.47" y="96.53" class="st3" width="4.75" height="0.48"/>
	<rect x="21.47" y="95.69" class="st3" width="4.75" height="0.48"/>
	<rect x="21.47" y="94.85" class="st3" width="4.75" height="0.48"/>
	<polygon class="st3" points="35.31,92.81 35.08,92.33 14.86,92.33 14.86,92.81 	"/>
	<polygon class="st3" points="35.73,93.65 35.49,93.17 14.86,93.17 14.86,93.65 	"/>
	<polygon class="st3" points="36.14,94.49 35.91,94.01 14.86,94.01 14.86,94.49 21.47,94.49 26.23,94.49 31.33,94.49 	"/>
	<polygon class="st3" points="36.56,95.33 36.32,94.85 31.51,94.85 31.75,95.33 	"/>
	<polygon class="st3" points="36.97,96.17 36.73,95.69 31.93,95.69 32.17,96.17 	"/>
	<polygon class="st3" points="37.38,97.01 37.15,96.53 32.34,96.53 32.58,97.01 	"/>
	<polygon class="st3" points="37.8,97.85 37.56,97.37 32.76,97.37 33,97.85 	"/>
	<polygon class="st3" points="38.21,98.68 37.98,98.21 33.18,98.21 33.41,98.68 	"/>
	<polygon class="st3" points="38.63,99.52 38.39,99.05 33.59,99.05 33.83,99.52 	"/>
	<polygon class="st3" points="39.04,100.36 38.81,99.88 34.01,99.88 34.25,100.36 	"/>
	<polygon class="st3" points="39.46,101.2 39.22,100.72 34.43,100.72 34.66,101.2 	"/>
	<polygon class="st3" points="39.87,102.04 39.63,101.56 34.84,101.56 35.08,102.04 	"/>
	<polygon class="st3" points="40.28,102.88 40.05,102.4 35.26,102.4 35.5,102.88 	"/>
	<polygon class="st3" points="40.7,103.72 40.46,103.24 35.67,103.24 35.91,103.72 	"/>
	<polygon class="st3" points="41.11,104.56 40.88,104.08 36.09,104.08 36.33,104.56 	"/>
	<polygon class="st3" points="41.53,105.4 41.29,104.92 36.51,104.92 36.74,105.4 	"/>
	<polygon class="st3" points="41.94,106.24 41.7,105.76 36.92,105.76 37.16,106.24 	"/>
	<polygon class="st3" points="42.26,105.76 42.04,106.24 46.63,106.24 46.85,105.76 	"/>
	<polygon class="st3" points="42.64,104.92 42.42,105.4 47.02,105.4 47.24,104.92 	"/>
	<polygon class="st3" points="43.02,104.08 42.81,104.56 47.41,104.56 47.63,104.08 	"/>
	<polygon class="st3" points="43.41,103.24 43.19,103.72 47.79,103.72 48.01,103.24 	"/>
	<polygon class="st3" points="43.79,102.4 43.57,102.88 48.18,102.88 48.4,102.4 	"/>
	<polygon class="st3" points="44.17,101.56 43.96,102.04 48.56,102.04 48.78,101.56 	"/>
	<polygon class="st3" points="44.56,100.72 44.34,101.2 48.95,101.2 49.17,100.72 	"/>
	<polygon class="st3" points="44.94,99.88 44.72,100.36 49.34,100.36 49.56,99.88 	"/>
	<polygon class="st3" points="45.32,99.05 45.1,99.52 49.72,99.52 49.94,99.05 	"/>
	<polygon class="st3" points="45.71,98.21 45.49,98.68 50.11,98.68 50.33,98.21 	"/>
	<polygon class="st3" points="46.09,97.37 45.87,97.85 50.49,97.85 50.71,97.37 	"/>
	<polygon class="st3" points="46.47,96.53 46.25,97.01 50.88,97.01 51.1,96.53 	"/>
	<polygon class="st3" points="46.86,95.69 46.64,96.17 51.27,96.17 51.49,95.69 	"/>
	<polygon class="st3" points="47.24,94.85 47.02,95.33 51.65,95.33 51.87,94.85 	"/>
	<polygon class="st3" points="47.62,94.01 47.4,94.49 52.04,94.49 52.26,94.01 	"/>
	<polygon class="st3" points="48,93.17 47.79,93.65 52.42,93.65 52.65,93.17 	"/>
	<polygon class="st3" points="48.39,92.33 48.17,92.81 52.81,92.81 53.03,92.33 	"/>
	<polygon class="st3" points="48.77,91.49 53.42,91.49 53.2,91.97 48.55,91.97 	"/>
	<polygon class="st3" points="14.86,91.49 34.66,91.49 34.9,91.97 14.86,91.97 	"/>
	<path class="st2" d="M62.54,98.66l0.02-4.24h12.86l0.02,4.24h-0.62c-0.2-1.51-0.78-2.53-1.73-3.07c-0.54-0.29-1.34-0.45-2.4-0.48
		v11.06c0,0.77,0.14,1.29,0.41,1.54c0.27,0.25,0.85,0.38,1.72,0.38v0.53h-7.62v-0.53c0.83,0,1.39-0.13,1.66-0.38
		c0.27-0.26,0.41-0.77,0.41-1.53V95.12c-1.04,0.03-1.84,0.19-2.4,0.48c-1.02,0.55-1.6,1.57-1.73,3.07H62.54z"/>
	<path class="st2" d="M89.08,108.63H76.59v-0.53c0.61-0.02,1.05-0.1,1.3-0.25c0.4-0.22,0.59-0.63,0.59-1.23V96.45
		c0-0.62-0.21-1.03-0.62-1.24c-0.24-0.13-0.66-0.21-1.28-0.25v-0.53H88.9v4.24h-0.52c-0.27-1.35-0.73-2.28-1.38-2.78
		c-0.65-0.5-1.83-0.75-3.55-0.75c-0.65,0-1.07,0.07-1.25,0.2c-0.18,0.13-0.27,0.4-0.27,0.8v4.86c1.22,0.01,2.04-0.2,2.47-0.65
		c0.43-0.45,0.76-1.27,0.99-2.46h0.54v7.1H85.4c-0.15-1.2-0.46-2.04-0.93-2.53c-0.47-0.49-1.31-0.73-2.53-0.73v5.09
		c0,0.44,0.12,0.75,0.35,0.91c0.23,0.16,0.71,0.24,1.43,0.24c1.36,0,2.48-0.26,3.34-0.78c0.86-0.52,1.63-1.49,2.3-2.92h0.59
		L89.08,108.63z"/>
	<path class="st2" d="M90.88,108.63v-0.53c0.58-0.02,1-0.1,1.25-0.23c0.42-0.22,0.64-0.64,0.64-1.25V96.45c0-0.62-0.2-1.03-0.6-1.24
		c-0.24-0.13-0.66-0.21-1.28-0.25v-0.53h7.47v0.53c-0.87,0.03-1.45,0.15-1.74,0.36c-0.29,0.21-0.43,0.74-0.43,1.57v9.92
		c0,0.46,0.12,0.77,0.37,0.92c0.25,0.15,0.73,0.23,1.44,0.23c1.29,0,2.37-0.28,3.24-0.84c0.87-0.56,1.63-1.64,2.26-3.26h0.63
		l-0.87,4.76H90.88z"/>
	<path class="st2" d="M117.58,108.63h-12.49v-0.53c0.61-0.02,1.05-0.1,1.3-0.25c0.4-0.22,0.59-0.63,0.59-1.23V96.45
		c0-0.62-0.21-1.03-0.62-1.24c-0.24-0.13-0.66-0.21-1.28-0.25v-0.53h12.31v4.24h-0.52c-0.27-1.35-0.73-2.28-1.38-2.78
		c-0.65-0.5-1.83-0.75-3.55-0.75c-0.65,0-1.07,0.07-1.25,0.2c-0.18,0.13-0.27,0.4-0.27,0.8v4.86c1.22,0.01,2.04-0.2,2.47-0.65
		c0.43-0.45,0.76-1.27,0.99-2.46h0.54v7.1h-0.54c-0.15-1.2-0.46-2.04-0.93-2.53c-0.47-0.49-1.31-0.73-2.53-0.73v5.09
		c0,0.44,0.12,0.75,0.35,0.91c0.23,0.16,0.71,0.24,1.43,0.24c1.36,0,2.48-0.26,3.34-0.78c0.86-0.52,1.63-1.49,2.3-2.92h0.59
		L117.58,108.63z"/>
	<path class="st2" d="M126.56,108.63v-0.53c-0.75-0.03-1.25-0.17-1.5-0.43c-0.25-0.26-0.38-0.75-0.38-1.49v-4.11h0.56l4.43,6.57
		h4.37v-0.5c-0.19-0.01-0.36-0.05-0.49-0.1c-0.13-0.05-0.26-0.16-0.38-0.32l-4.3-5.98c0.73-0.14,1.42-0.45,2.08-0.94
		c0.86-0.66,1.28-1.56,1.28-2.7c0-1.55-0.86-2.62-2.57-3.21c-0.88-0.29-2.04-0.44-3.46-0.44h-6.88v0.53
		c0.73,0.06,1.2,0.17,1.41,0.34c0.31,0.25,0.47,0.78,0.47,1.59v9.28c0,0.78-0.13,1.29-0.4,1.52c-0.26,0.23-0.76,0.37-1.48,0.4v0.53
		H126.56z M124.68,96.04c0-0.32,0.09-0.55,0.27-0.69c0.18-0.14,0.55-0.21,1.12-0.21c1.05,0,1.77,0.4,2.17,1.2
		c0.23,0.47,0.34,1.11,0.34,1.93c0,1.33-0.3,2.17-0.9,2.54c-0.6,0.37-1.6,0.56-3,0.58V96.04z"/>
	<path class="st2" d="M139.17,108.63v-0.53c-0.49-0.01-0.85-0.05-1.1-0.12c-0.41-0.14-0.62-0.36-0.62-0.66
		c0-0.25,0.09-0.64,0.28-1.18c0.09-0.25,0.29-0.8,0.6-1.63h4.8l0.54,1.27c0.12,0.28,0.21,0.52,0.28,0.72
		c0.11,0.34,0.17,0.58,0.17,0.75c0,0.36-0.11,0.59-0.33,0.68c-0.22,0.09-0.68,0.15-1.37,0.17v0.53h6.92v-0.53
		c-0.49,0.01-0.86-0.16-1.13-0.52c-0.26-0.36-0.66-1.16-1.2-2.4l-4.77-11.04h-0.59l-4.75,11.5c-0.38,0.91-0.66,1.5-0.87,1.76
		c-0.31,0.42-0.73,0.65-1.24,0.69v0.53H139.17z M140.6,98.81h0.18l2.04,4.86h-4.15L140.6,98.81z"/>
	<path class="st2" d="M150.14,108.63v-0.53c0.81-0.01,1.34-0.15,1.59-0.43c0.24-0.28,0.37-0.69,0.37-1.25v-9.97
		c0-0.57-0.14-0.95-0.42-1.13c-0.28-0.18-0.77-0.3-1.48-0.35v-0.53h5.38l4.2,9.73h0.18l4.18-9.73h5.38v0.53
		c-0.72,0.05-1.22,0.19-1.48,0.39c-0.26,0.21-0.4,0.72-0.4,1.53v9.28c0,0.77,0.13,1.28,0.4,1.52c0.26,0.24,0.76,0.37,1.48,0.4v0.53
		h-7.09v-0.53c0.63-0.02,1.11-0.12,1.43-0.31c0.32-0.19,0.48-0.6,0.48-1.24V96.27h-0.16l-5.24,12.35h-0.57l-5.29-12.11h-0.09v9.51
		c0,0.7,0.13,1.21,0.4,1.53c0.26,0.32,0.85,0.5,1.75,0.53v0.53H150.14z"/>
	<path class="st2" d="M174.76,108.63v-0.53c-0.49-0.01-0.85-0.05-1.1-0.12c-0.41-0.14-0.62-0.36-0.62-0.66
		c0-0.25,0.09-0.64,0.28-1.18c0.09-0.25,0.29-0.8,0.6-1.63h4.8l0.54,1.27c0.12,0.28,0.21,0.52,0.28,0.72
		c0.11,0.34,0.17,0.58,0.17,0.75c0,0.36-0.11,0.59-0.33,0.68c-0.22,0.09-0.68,0.15-1.37,0.17v0.53h6.92v-0.53
		c-0.49,0.01-0.86-0.16-1.13-0.52c-0.26-0.36-0.66-1.16-1.2-2.4l-4.77-11.04h-0.59l-4.75,11.5c-0.38,0.91-0.66,1.5-0.87,1.76
		c-0.31,0.42-0.73,0.65-1.24,0.69v0.53H174.76z M176.19,98.81h0.18l2.04,4.86h-4.15L176.19,98.81z"/>
</g>
</svg>
