<?xml version="1.0" encoding="utf-8"?>
<!-- Generator: Adobe Illustrator 28.0.0, SVG Export Plug-In . SVG Version: 6.00 Build 0)  -->
<svg version="1.1" id="Layer_1" xmlns="http://www.w3.org/2000/svg" xmlns:xlink="http://www.w3.org/1999/xlink" x="0px" y="0px"
	 viewBox="0 0 198.43 198.43" style="enable-background:new 0 0 198.43 198.43;" xml:space="preserve">
<style type="text/css">
	.st0{fill-rule:evenodd;clip-rule:evenodd;fill:#23A259;}
</style>
<g>
	<path class="st0" d="M16.62,103.36v-0.63c0.62-0.02,0.98-0.07,1.1-0.13c0.12-0.06,0.2-0.17,0.24-0.3c0.06-0.23,0.09-0.89,0.09-2
		v-4.63c0-1.26-0.01-1.97-0.04-2.11h-1.11c-0.55,0-1.04,0.02-1.46,0.06c-0.17,0.01-0.26,0.04-0.29,0.06
		c-0.04,0.03-0.07,0.12-0.09,0.27c-0.06,0.36-0.11,0.77-0.11,1.21H14.3c-0.02-1.05-0.04-1.64-0.04-1.78
		c-0.02-0.23-0.05-0.47-0.09-0.73l0.07-0.08c0.24,0.02,0.5,0.03,0.77,0.04c0.44,0.01,1.3,0.02,2.56,0.02h3.13
		c1.3,0,2.17-0.01,2.61-0.02c0.24-0.01,0.48-0.02,0.72-0.04l0.08,0.08c-0.05,0.31-0.08,0.59-0.09,0.82c0,0.04-0.02,0.61-0.03,1.69
		h-0.64c-0.01-0.4-0.04-0.79-0.1-1.15c-0.03-0.19-0.07-0.3-0.1-0.33c-0.03-0.02-0.11-0.04-0.25-0.06c-0.43-0.04-0.93-0.06-1.53-0.06
		h-1.11c-0.02,0.18-0.02,0.88-0.02,2.11v4.63c0,1.11,0.03,1.78,0.09,2.01c0.03,0.13,0.11,0.23,0.23,0.29
		c0.12,0.07,0.49,0.11,1.11,0.13v0.63c-1-0.04-1.84-0.06-2.52-0.06C18.41,103.3,17.57,103.32,16.62,103.36"/>
	<path class="st0" d="M27.95,98.97c0.02-0.81-0.09-1.38-0.34-1.71c-0.25-0.32-0.57-0.49-0.96-0.49c-0.4,0-0.74,0.17-1,0.51
		c-0.27,0.34-0.39,0.9-0.37,1.69c0.3,0.04,0.82,0.07,1.53,0.07C27.26,99.04,27.65,99.02,27.95,98.97 M29.78,102.17l-0.34,0.76
		c-0.42,0.25-0.86,0.44-1.31,0.56c-0.33,0.09-0.71,0.14-1.14,0.14c-0.51,0-0.96-0.06-1.35-0.18c-0.39-0.11-0.71-0.28-0.99-0.49
		c-0.28-0.2-0.52-0.46-0.72-0.75c-0.21-0.3-0.36-0.64-0.45-1.03c-0.09-0.39-0.14-0.82-0.14-1.28c0-0.67,0.09-1.27,0.27-1.8
		c0.12-0.37,0.27-0.63,0.43-0.8c0.1-0.11,0.37-0.29,0.8-0.58c0.43-0.28,0.75-0.47,0.94-0.55c0.36-0.16,0.79-0.24,1.27-0.24
		c0.68,0,1.25,0.15,1.69,0.43c0.44,0.29,0.76,0.65,0.94,1.09c0.18,0.44,0.28,0.99,0.28,1.62c0,0.14-0.01,0.28-0.01,0.41
		c-0.13,0.04-0.33,0.09-0.59,0.14c-0.35,0.07-0.59,0.1-0.71,0.11c-0.38,0.03-0.89,0.05-1.53,0.06c-0.64,0.01-0.99,0.02-1.05,0.03
		c-0.06,0.01-0.14,0.02-0.22,0.02h-0.51c0.04,0.82,0.29,1.47,0.76,1.94c0.46,0.47,1.04,0.71,1.71,0.71c0.29,0,0.57-0.04,0.81-0.1
		c0.25-0.07,0.57-0.21,0.98-0.42L29.78,102.17z"/>
	<path class="st0" d="M33.32,99.34c0,1.37,0.2,2.35,0.6,2.93c0.27,0.39,0.64,0.58,1.14,0.58c0.42,0,0.75-0.15,1-0.45
		c0.33-0.39,0.49-1.15,0.49-2.27c0-0.79-0.06-1.46-0.2-2.03c-0.13-0.56-0.32-0.96-0.57-1.18c-0.26-0.22-0.56-0.33-0.92-0.33
		c-0.31,0-0.58,0.08-0.81,0.24c-0.23,0.16-0.41,0.43-0.54,0.82C33.38,98.04,33.32,98.6,33.32,99.34 M31.18,99.72
		c0-0.87,0.15-1.6,0.45-2.17c0.3-0.57,0.74-1,1.34-1.29c0.59-0.29,1.29-0.44,2.08-0.44c1.19,0,2.09,0.31,2.71,0.93
		c0.62,0.62,0.93,1.54,0.93,2.74c0,0.69-0.09,1.3-0.27,1.81c-0.18,0.51-0.42,0.92-0.72,1.23c-0.31,0.31-0.62,0.55-0.96,0.71
		c-0.57,0.27-1.21,0.4-1.93,0.4c-1.16,0-2.06-0.33-2.68-1C31.49,101.97,31.18,101,31.18,99.72"/>
	<path class="st0" d="M42.08,92.2c0.33,0,0.6,0.11,0.83,0.35c0.23,0.22,0.34,0.5,0.34,0.82c0,0.32-0.11,0.6-0.35,0.83
		c-0.23,0.23-0.5,0.34-0.83,0.34c-0.32,0-0.6-0.12-0.83-0.34c-0.23-0.23-0.34-0.51-0.34-0.83c0-0.32,0.12-0.6,0.34-0.82
		C41.48,92.31,41.76,92.2,42.08,92.2 M39.71,107.48l-0.17-0.57l0.06-0.08c0.1,0.02,0.18,0.02,0.25,0.02c0.28,0,0.53-0.08,0.72-0.25
		c0.2-0.17,0.34-0.47,0.43-0.91c0.09-0.44,0.14-1.62,0.14-3.52v-2.13c0-0.51-0.01-1.2-0.04-2.05c-0.01-0.38-0.03-0.6-0.06-0.65
		c-0.03-0.06-0.08-0.11-0.14-0.13c-0.11-0.05-0.44-0.07-0.97-0.07v-0.6c0.79-0.08,1.38-0.18,1.77-0.27c0.4-0.09,0.83-0.23,1.31-0.41
		l0.19,0.1c-0.06,0.5-0.09,0.91-0.1,1.23c-0.01,0.33-0.02,0.83-0.02,1.5l0.05,3.19c0,1.21-0.07,2.13-0.21,2.77
		c-0.14,0.64-0.36,1.17-0.66,1.59c-0.31,0.42-0.64,0.74-1.01,0.95c-0.37,0.22-0.78,0.32-1.22,0.32
		C39.92,107.51,39.82,107.5,39.71,107.48"/>
	<path class="st0" d="M49.27,99.63c-0.43,0.09-0.84,0.2-1.2,0.34c-0.36,0.13-0.61,0.29-0.75,0.49c-0.14,0.19-0.21,0.44-0.21,0.73
		c0,0.34,0.08,0.59,0.25,0.77c0.16,0.18,0.38,0.27,0.65,0.27c0.23,0,0.46-0.07,0.7-0.2c0.24-0.14,0.42-0.31,0.55-0.52V99.63z
		 M52.11,102.76v0.6c-0.59-0.04-1.12-0.06-1.57-0.06c-0.43,0-0.85,0.02-1.26,0.06l-0.07-0.08l0.06-1.01
		c-0.19,0.12-0.73,0.52-1.64,1.22c-0.23,0.05-0.45,0.08-0.66,0.08c-0.56,0-1-0.17-1.32-0.5c-0.32-0.33-0.47-0.8-0.47-1.42
		c0-0.42,0.07-0.76,0.21-1.03c0.14-0.27,0.3-0.46,0.46-0.59c0.16-0.13,0.41-0.25,0.75-0.37c0.81-0.29,1.7-0.52,2.67-0.68
		c0.01-0.61-0.11-1.08-0.38-1.4c-0.27-0.32-0.67-0.48-1.21-0.48c-0.22,0-0.43,0.03-0.63,0.09c-0.09,0.03-0.19,0.07-0.31,0.15
		l-0.33,0.77L45.88,98l0.05-0.99c0.38-0.26,0.74-0.48,1.09-0.67c0.35-0.19,0.59-0.31,0.73-0.35c0.19-0.05,0.46-0.08,0.8-0.08
		c0.56,0,1.02,0.08,1.38,0.24c0.36,0.16,0.63,0.35,0.81,0.57c0.17,0.22,0.29,0.46,0.35,0.71c0.06,0.25,0.1,0.57,0.1,0.96
		c0,0.16-0.01,0.59-0.04,1.28c-0.02,0.46-0.02,0.85-0.02,1.13c0,0.91,0.02,1.47,0.06,1.66c0.02,0.09,0.06,0.15,0.12,0.19
		C51.4,102.7,51.66,102.73,52.11,102.76"/>
	<path class="st0" d="M52.93,103.36v-0.6c0.4,0,0.67-0.03,0.83-0.08c0.07-0.02,0.12-0.07,0.16-0.13c0.05-0.1,0.08-0.28,0.09-0.56
		l0.03-0.69c0.01-0.14,0.01-0.38,0.01-0.7v-1.01c0-0.45-0.02-1.01-0.04-1.66c-0.02-0.33-0.04-0.52-0.07-0.56
		c-0.03-0.04-0.07-0.07-0.13-0.1c-0.1-0.03-0.39-0.06-0.87-0.07v-0.6c0.93-0.16,1.55-0.28,1.84-0.35c0.29-0.08,0.62-0.2,0.99-0.37
		l0.21,0.09v1.25l1.4-1.13c0.16-0.07,0.3-0.11,0.42-0.13c0.11-0.03,0.27-0.03,0.47-0.03c0.62,0,1.08,0.1,1.4,0.3
		c0.31,0.2,0.57,0.53,0.78,1l1.41-1.13c0.16-0.07,0.31-0.11,0.42-0.13c0.11-0.03,0.27-0.03,0.47-0.03c0.51,0,0.91,0.06,1.19,0.19
		c0.28,0.12,0.52,0.3,0.7,0.51c0.19,0.21,0.32,0.45,0.4,0.69c0.08,0.25,0.12,0.63,0.12,1.14c0,0.56-0.01,0.94-0.03,1.12
		c-0.01,0.06-0.01,0.14-0.01,0.22v0.8c0,0.83,0.01,1.35,0.04,1.58c0.03,0.23,0.08,0.38,0.15,0.43c0.07,0.06,0.22,0.1,0.46,0.12
		c0.08,0,0.23,0.01,0.44,0.04v0.6c-0.71-0.04-1.29-0.06-1.75-0.06c-0.52,0-0.96,0.02-1.33,0.06l-0.11-0.14l0.09-1.39
		c0.02-0.56,0.03-1.04,0.03-1.45v-0.59c0-0.91-0.04-1.49-0.13-1.72c-0.08-0.24-0.22-0.43-0.41-0.56c-0.19-0.14-0.43-0.2-0.73-0.2
		c-0.33,0-0.61,0.08-0.84,0.24c-0.23,0.16-0.37,0.31-0.43,0.45c-0.06,0.13-0.09,0.41-0.08,0.82v1.87l0.02,0.77l0.02,0.63
		c0.01,0.18,0.03,0.32,0.05,0.39c0.03,0.07,0.08,0.13,0.13,0.17c0.05,0.02,0.15,0.05,0.29,0.07c0.29,0.04,0.51,0.06,0.63,0.08v0.6
		c-0.46-0.04-1.11-0.06-1.98-0.06c-0.95,0-1.66,0.02-2.12,0.06v-0.6c0.1-0.02,0.22-0.03,0.37-0.05c0.22-0.01,0.36-0.04,0.42-0.08
		c0.06-0.04,0.11-0.12,0.14-0.23c0.04-0.11,0.05-0.38,0.05-0.81l0.04-1.37v-1.1c0-0.53-0.03-0.9-0.09-1.12
		c-0.06-0.22-0.19-0.39-0.39-0.54c-0.2-0.14-0.44-0.22-0.76-0.22c-0.34,0-0.63,0.09-0.87,0.26c-0.23,0.17-0.39,0.35-0.47,0.52
		c-0.03,0.1-0.04,0.5-0.04,1.21v1.35c0,0.69,0.01,1.23,0.04,1.6c0.02,0.19,0.04,0.32,0.08,0.37c0.04,0.05,0.11,0.09,0.21,0.12
		c0.07,0.02,0.31,0.05,0.72,0.08v0.6c-0.55-0.04-1.23-0.06-2-0.06C54.14,103.3,53.45,103.32,52.93,103.36"/>
	<path class="st0" d="M71.21,99.63c-0.44,0.09-0.84,0.2-1.2,0.34c-0.37,0.13-0.62,0.29-0.75,0.49c-0.14,0.19-0.21,0.44-0.21,0.73
		c0,0.34,0.08,0.59,0.25,0.77c0.17,0.18,0.39,0.27,0.66,0.27c0.23,0,0.46-0.07,0.7-0.2c0.23-0.14,0.42-0.31,0.56-0.52V99.63z
		 M74.05,102.76v0.6c-0.59-0.04-1.11-0.06-1.57-0.06c-0.44,0-0.86,0.02-1.26,0.06l-0.07-0.08l0.06-1.01
		c-0.19,0.12-0.73,0.52-1.64,1.22c-0.23,0.05-0.45,0.08-0.66,0.08c-0.56,0-1-0.17-1.32-0.5c-0.32-0.33-0.48-0.8-0.48-1.42
		c0-0.42,0.07-0.76,0.21-1.03c0.14-0.27,0.3-0.46,0.46-0.59c0.16-0.13,0.41-0.25,0.75-0.37c0.82-0.29,1.71-0.52,2.67-0.68
		c0.01-0.61-0.12-1.08-0.38-1.4c-0.27-0.32-0.67-0.48-1.22-0.48c-0.22,0-0.43,0.03-0.63,0.09c-0.09,0.03-0.19,0.07-0.31,0.15
		l-0.32,0.77L67.82,98l0.05-0.99c0.38-0.26,0.75-0.48,1.09-0.67c0.35-0.19,0.59-0.31,0.73-0.35c0.19-0.05,0.46-0.08,0.8-0.08
		c0.56,0,1.02,0.08,1.38,0.24c0.36,0.16,0.63,0.35,0.81,0.57c0.17,0.22,0.29,0.46,0.35,0.71c0.06,0.25,0.1,0.57,0.1,0.96
		c0,0.16-0.01,0.59-0.04,1.28c-0.02,0.46-0.02,0.85-0.02,1.13c0,0.91,0.02,1.47,0.06,1.66c0.02,0.09,0.06,0.15,0.12,0.19
		C73.33,102.7,73.6,102.73,74.05,102.76"/>
	<path class="st0" d="M90.4,99.34c0,1.37,0.2,2.35,0.6,2.93c0.27,0.39,0.65,0.58,1.14,0.58c0.42,0,0.76-0.15,1-0.45
		c0.33-0.39,0.49-1.15,0.49-2.27c0-0.79-0.06-1.46-0.19-2.03c-0.13-0.56-0.32-0.96-0.58-1.18c-0.26-0.22-0.56-0.33-0.91-0.33
		c-0.31,0-0.58,0.08-0.81,0.24c-0.23,0.16-0.41,0.43-0.53,0.82C90.47,98.04,90.4,98.6,90.4,99.34 M88.27,99.72
		c0-0.87,0.15-1.6,0.45-2.17c0.3-0.57,0.74-1,1.34-1.29c0.59-0.29,1.29-0.44,2.08-0.44c1.19,0,2.09,0.31,2.71,0.93
		c0.62,0.62,0.93,1.54,0.93,2.74c0,0.69-0.09,1.3-0.27,1.81c-0.18,0.51-0.42,0.92-0.72,1.23c-0.3,0.31-0.62,0.55-0.96,0.71
		c-0.57,0.27-1.21,0.4-1.93,0.4c-1.16,0-2.06-0.33-2.69-1C88.58,101.97,88.27,101,88.27,99.72"/>
	<path class="st0" d="M96.86,103.36v-0.6c0.4,0,0.67-0.03,0.83-0.08c0.07-0.02,0.12-0.07,0.16-0.13c0.05-0.1,0.08-0.28,0.08-0.56
		l0.03-0.69c0.01-0.14,0.01-0.38,0.01-0.7v-1.01c0-0.45-0.01-1.01-0.04-1.66c-0.01-0.33-0.04-0.52-0.06-0.56
		c-0.03-0.04-0.07-0.07-0.14-0.1c-0.1-0.03-0.39-0.06-0.87-0.07v-0.6c0.93-0.16,1.55-0.28,1.84-0.35c0.29-0.08,0.62-0.2,0.99-0.37
		l0.21,0.09v1.25l1.4-1.13c0.16-0.07,0.3-0.11,0.42-0.13c0.11-0.03,0.27-0.03,0.47-0.03c0.61,0,1.08,0.1,1.39,0.3
		c0.32,0.2,0.57,0.53,0.79,1l1.41-1.13c0.17-0.07,0.31-0.11,0.42-0.13c0.11-0.03,0.28-0.03,0.47-0.03c0.51,0,0.91,0.06,1.19,0.19
		c0.28,0.12,0.51,0.3,0.7,0.51c0.19,0.21,0.32,0.45,0.4,0.69c0.08,0.25,0.12,0.63,0.12,1.14c0,0.56-0.01,0.94-0.03,1.12
		c-0.01,0.06-0.02,0.14-0.02,0.22v0.8c0,0.83,0.02,1.35,0.04,1.58c0.03,0.23,0.08,0.38,0.15,0.43c0.07,0.06,0.23,0.1,0.46,0.12
		c0.09,0,0.23,0.01,0.44,0.04v0.6c-0.7-0.04-1.29-0.06-1.75-0.06c-0.52,0-0.97,0.02-1.33,0.06l-0.11-0.14l0.09-1.39
		c0.02-0.56,0.03-1.04,0.03-1.45v-0.59c0-0.91-0.04-1.49-0.12-1.72c-0.08-0.24-0.22-0.43-0.41-0.56c-0.19-0.14-0.44-0.2-0.73-0.2
		c-0.33,0-0.61,0.08-0.84,0.24c-0.23,0.16-0.38,0.31-0.43,0.45c-0.06,0.13-0.09,0.41-0.08,0.82v1.87l0.02,0.77l0.02,0.63
		c0,0.18,0.03,0.32,0.06,0.39c0.03,0.07,0.07,0.13,0.13,0.17c0.05,0.02,0.14,0.05,0.3,0.07c0.29,0.04,0.5,0.06,0.63,0.08v0.6
		c-0.46-0.04-1.12-0.06-1.98-0.06c-0.96,0-1.66,0.02-2.12,0.06v-0.6c0.09-0.02,0.21-0.03,0.37-0.05c0.22-0.01,0.36-0.04,0.41-0.08
		c0.06-0.04,0.11-0.12,0.14-0.23c0.03-0.11,0.05-0.38,0.05-0.81l0.04-1.37v-1.1c0-0.53-0.03-0.9-0.1-1.12
		c-0.06-0.22-0.19-0.39-0.39-0.54c-0.2-0.14-0.44-0.22-0.76-0.22c-0.34,0-0.63,0.09-0.86,0.26c-0.24,0.17-0.39,0.35-0.47,0.52
		c-0.03,0.1-0.04,0.5-0.04,1.21v1.35c0,0.69,0.01,1.23,0.04,1.6c0.01,0.19,0.04,0.32,0.08,0.37c0.04,0.05,0.11,0.09,0.21,0.12
		c0.07,0.02,0.31,0.05,0.72,0.08v0.6c-0.56-0.04-1.22-0.06-2-0.06C98.07,103.3,97.38,103.32,96.86,103.36"/>
	<path class="st0" d="M115.76,98.97c0.02-0.81-0.09-1.38-0.33-1.71c-0.25-0.32-0.57-0.49-0.97-0.49c-0.4,0-0.74,0.17-1,0.51
		c-0.27,0.34-0.39,0.9-0.38,1.69c0.31,0.04,0.82,0.07,1.53,0.07C115.07,99.04,115.45,99.02,115.76,98.97 M117.59,102.17l-0.34,0.76
		c-0.42,0.25-0.86,0.44-1.3,0.56c-0.34,0.09-0.72,0.14-1.14,0.14c-0.51,0-0.96-0.06-1.35-0.18c-0.39-0.11-0.72-0.28-0.99-0.49
		c-0.28-0.2-0.52-0.46-0.72-0.75c-0.21-0.3-0.36-0.64-0.45-1.03c-0.09-0.39-0.14-0.82-0.14-1.28c0-0.67,0.09-1.27,0.27-1.8
		c0.12-0.37,0.27-0.63,0.43-0.8c0.1-0.11,0.37-0.29,0.8-0.58c0.44-0.28,0.75-0.47,0.94-0.55c0.36-0.16,0.79-0.24,1.27-0.24
		c0.69,0,1.26,0.15,1.69,0.43c0.44,0.29,0.76,0.65,0.94,1.09c0.18,0.44,0.28,0.99,0.28,1.62c0,0.14-0.01,0.28-0.02,0.41
		c-0.13,0.04-0.33,0.09-0.59,0.14c-0.35,0.07-0.59,0.1-0.71,0.11c-0.39,0.03-0.9,0.05-1.53,0.06c-0.63,0.01-0.98,0.02-1.05,0.03
		c-0.07,0.01-0.14,0.02-0.22,0.02h-0.51c0.04,0.82,0.3,1.47,0.76,1.94c0.46,0.47,1.03,0.71,1.71,0.71c0.29,0,0.56-0.04,0.81-0.1
		c0.25-0.07,0.57-0.21,0.98-0.42L117.59,102.17z"/>
	<path class="st0" d="M123.25,102.76v0.6c-0.58-0.04-1.23-0.06-1.95-0.06c-0.8,0-1.63,0.02-2.5,0.06v-0.6c0.4,0,0.68-0.03,0.83-0.08
		c0.07-0.02,0.13-0.07,0.16-0.13c0.05-0.1,0.08-0.28,0.09-0.56l0.03-0.69c0.01-0.14,0.01-0.38,0.01-0.7v-1.01
		c0-0.45-0.01-1.01-0.04-1.66c-0.02-0.33-0.04-0.52-0.07-0.56c-0.03-0.04-0.07-0.07-0.14-0.1c-0.1-0.03-0.39-0.06-0.87-0.07v-0.6
		c0.94-0.16,1.56-0.28,1.85-0.35c0.29-0.08,0.63-0.2,1-0.37l0.2,0.09l-0.01,1.56c0.33-0.35,0.59-0.63,0.77-0.86
		c0.26-0.32,0.46-0.53,0.6-0.61c0.19-0.13,0.43-0.19,0.73-0.19c0.19,0,0.36,0.04,0.51,0.11l-0.06,1.09
		c-0.01,0.59-0.02,0.94-0.03,1.03l-0.32,0.1c-0.13-0.17-0.26-0.29-0.37-0.35c-0.19-0.11-0.4-0.16-0.63-0.16
		c-0.3,0-0.57,0.1-0.78,0.28c-0.22,0.19-0.35,0.38-0.39,0.58c-0.02,0.11-0.03,0.55-0.03,1.3v0.77l0.04,1.05
		c0.01,0.39,0.02,0.64,0.05,0.73c0.02,0.09,0.07,0.16,0.16,0.21c0.08,0.05,0.26,0.09,0.54,0.11L123.25,102.76z"/>
	<path class="st0" d="M131.11,102.33l-0.34,0.75c-0.45,0.22-0.8,0.37-1.08,0.44c-0.28,0.07-0.61,0.11-0.99,0.11
		c-0.84,0-1.53-0.17-2.05-0.5c-0.53-0.33-0.92-0.8-1.19-1.41c-0.2-0.43-0.3-1.01-0.3-1.73c0-0.54,0.05-0.98,0.16-1.33
		c0.1-0.34,0.25-0.65,0.44-0.91c0.13-0.17,0.3-0.34,0.51-0.49l1.19-0.75c0.4-0.26,0.67-0.41,0.82-0.46
		c0.24-0.09,0.57-0.14,0.96-0.14c0.33,0,0.64,0.03,0.92,0.08c0.28,0.06,0.54,0.13,0.79,0.25l0.08,0.13l-0.19,1.26
		c-0.02,0.11-0.04,0.47-0.08,1.06h-0.59c-0.03-0.46-0.07-0.8-0.12-1.03c-0.11-0.17-0.27-0.32-0.5-0.42
		c-0.23-0.12-0.51-0.17-0.84-0.17c-0.39,0-0.7,0.08-0.94,0.22c-0.23,0.14-0.4,0.38-0.51,0.73c-0.11,0.34-0.16,0.75-0.16,1.23
		c0,0.65,0.11,1.23,0.33,1.75c0.22,0.51,0.52,0.88,0.88,1.13c0.36,0.24,0.81,0.36,1.34,0.36c0.24,0,0.47-0.03,0.69-0.08
		c0.22-0.06,0.43-0.14,0.62-0.24L131.11,102.33z"/>
	<path class="st0" d="M134.14,92.2c0.33,0,0.6,0.11,0.83,0.34c0.23,0.23,0.34,0.5,0.34,0.82c0,0.32-0.11,0.6-0.34,0.83
		c-0.22,0.23-0.5,0.34-0.83,0.34c-0.32,0-0.6-0.12-0.83-0.34c-0.23-0.23-0.34-0.51-0.34-0.83c0-0.32,0.11-0.6,0.34-0.82
		C133.53,92.31,133.81,92.2,134.14,92.2 M132.02,103.36v-0.57c0.57-0.04,0.9-0.09,0.98-0.13c0.08-0.05,0.13-0.14,0.15-0.28
		c0.06-0.28,0.08-1.01,0.08-2.18c0-1.61-0.02-2.52-0.06-2.74c-0.02-0.1-0.06-0.17-0.1-0.2c-0.1-0.07-0.45-0.11-1.05-0.11v-0.59
		c0.79-0.08,1.38-0.17,1.78-0.26c0.4-0.09,0.83-0.23,1.31-0.42l0.19,0.1c-0.08,0.8-0.13,1.55-0.13,2.26v2.62
		c0,0.9,0.02,1.42,0.06,1.59c0.02,0.09,0.06,0.15,0.12,0.18c0.14,0.07,0.47,0.11,1.01,0.13v0.6c-0.73-0.04-1.53-0.06-2.38-0.06
		C133.23,103.3,132.58,103.32,132.02,103.36"/>
	<path class="st0" d="M141.45,99.63c-0.43,0.09-0.84,0.2-1.2,0.34c-0.36,0.13-0.61,0.29-0.75,0.49c-0.14,0.19-0.21,0.44-0.21,0.73
		c0,0.34,0.08,0.59,0.25,0.77c0.16,0.18,0.38,0.27,0.66,0.27c0.23,0,0.46-0.07,0.69-0.2c0.23-0.14,0.42-0.31,0.55-0.52V99.63z
		 M144.29,102.76v0.6c-0.59-0.04-1.12-0.06-1.58-0.06c-0.43,0-0.85,0.02-1.25,0.06l-0.07-0.08l0.06-1.01
		c-0.19,0.12-0.73,0.52-1.63,1.22c-0.24,0.05-0.46,0.08-0.67,0.08c-0.56,0-1-0.17-1.32-0.5c-0.31-0.33-0.47-0.8-0.47-1.42
		c0-0.42,0.07-0.76,0.21-1.03c0.14-0.27,0.29-0.46,0.46-0.59c0.16-0.13,0.41-0.25,0.75-0.37c0.81-0.29,1.7-0.52,2.67-0.68
		c0.01-0.61-0.11-1.08-0.38-1.4c-0.27-0.32-0.67-0.48-1.21-0.48c-0.22,0-0.44,0.03-0.64,0.09c-0.09,0.03-0.19,0.07-0.31,0.15
		l-0.32,0.77L138.05,98l0.05-0.99c0.38-0.26,0.74-0.48,1.09-0.67c0.34-0.19,0.58-0.31,0.72-0.35c0.19-0.05,0.46-0.08,0.8-0.08
		c0.56,0,1.02,0.08,1.39,0.24c0.36,0.16,0.63,0.35,0.8,0.57c0.17,0.22,0.29,0.46,0.36,0.71c0.07,0.25,0.1,0.57,0.1,0.96
		c0,0.16-0.02,0.59-0.04,1.28c-0.01,0.46-0.02,0.85-0.02,1.13c0,0.91,0.02,1.47,0.07,1.66c0.02,0.09,0.06,0.15,0.12,0.19
		C143.58,102.7,143.84,102.73,144.29,102.76"/>
	<path class="st0" d="M149.45,102.76v0.6c-0.64-0.04-1.32-0.06-2.02-0.06c-0.7,0-1.49,0.02-2.36,0.06v-0.6
		c0.49-0.02,0.78-0.04,0.88-0.06c0.08-0.02,0.13-0.05,0.18-0.09c0.04-0.04,0.06-0.1,0.08-0.18c0.03-0.15,0.06-0.64,0.08-1.46
		c0.01-0.81,0.02-1.54,0.02-2.18v-2.55c0-0.81-0.02-1.55-0.04-2.22c-0.02-0.36-0.05-0.57-0.08-0.63c-0.02-0.03-0.05-0.06-0.09-0.08
		c-0.06-0.04-0.16-0.07-0.3-0.09c-0.08-0.01-0.32-0.02-0.71-0.04v-0.58c0.65-0.06,1.16-0.14,1.55-0.22
		c0.38-0.08,0.91-0.22,1.56-0.42l0.17,0.09l-0.07,1.56c-0.03,0.87-0.04,1.95-0.05,3.22v1.98c0,0.75,0.01,1.31,0.01,1.68
		c0.02,0.92,0.04,1.47,0.04,1.67c0.01,0.19,0.03,0.31,0.05,0.36c0.02,0.04,0.04,0.07,0.08,0.1c0.05,0.03,0.13,0.06,0.24,0.08
		C148.71,102.72,148.97,102.74,149.45,102.76"/>
	<path class="st0" d="M163.17,95.38h-0.66c-0.01-0.6-0.04-1.02-0.08-1.27c-0.16-0.23-0.43-0.43-0.83-0.6
		c-0.39-0.18-0.83-0.27-1.31-0.27c-0.7,0-1.24,0.18-1.61,0.53c-0.38,0.36-0.57,0.77-0.57,1.24c0,0.34,0.06,0.62,0.17,0.83
		c0.1,0.21,0.26,0.38,0.46,0.5c0.2,0.12,0.49,0.24,0.88,0.34c0.3,0.06,0.71,0.14,1.24,0.23c0.53,0.09,0.87,0.15,1.03,0.19
		c0.41,0.1,0.75,0.23,1,0.39c0.26,0.15,0.46,0.33,0.61,0.53c0.15,0.2,0.28,0.44,0.37,0.74c0.09,0.3,0.15,0.64,0.15,1.02
		c0,0.65-0.14,1.24-0.41,1.74c-0.21,0.38-0.49,0.72-0.86,1.03c-0.36,0.32-0.74,0.54-1.13,0.7c-0.61,0.25-1.35,0.37-2.21,0.37
		c-0.63,0-1.19-0.06-1.69-0.18c-0.5-0.11-1.04-0.32-1.63-0.61c0.16-0.59,0.24-1.47,0.25-2.67h0.66c-0.01,0.37,0.02,0.83,0.08,1.38
		c0.19,0.32,0.53,0.6,1,0.85c0.47,0.24,0.98,0.36,1.54,0.36c0.49,0,0.92-0.09,1.3-0.26c0.38-0.17,0.65-0.41,0.83-0.72
		c0.17-0.3,0.26-0.65,0.26-1.04c0-0.32-0.06-0.6-0.18-0.83c-0.12-0.23-0.31-0.42-0.57-0.56c-0.25-0.14-0.71-0.28-1.35-0.43
		c-0.93-0.19-1.54-0.34-1.83-0.42c-0.44-0.13-0.8-0.33-1.06-0.58c-0.27-0.25-0.48-0.55-0.61-0.91c-0.13-0.36-0.19-0.74-0.19-1.16
		c0-0.57,0.12-1.1,0.36-1.59c0.24-0.49,0.56-0.86,0.95-1.13c0.4-0.27,0.84-0.46,1.34-0.57c0.5-0.12,1-0.18,1.53-0.18
		c0.54,0,1.07,0.05,1.58,0.15c0.51,0.1,0.95,0.24,1.33,0.42l0.06,0.19c-0.07,0.33-0.12,0.66-0.16,0.98
		C163.2,94.43,163.19,94.86,163.17,95.38"/>
	<path class="st0" d="M166.27,101.14c0.33,0,0.62,0.12,0.85,0.35c0.23,0.23,0.35,0.52,0.35,0.85c0,0.33-0.12,0.62-0.35,0.85
		c-0.24,0.24-0.52,0.35-0.85,0.35c-0.33,0-0.61-0.11-0.85-0.35c-0.23-0.23-0.36-0.52-0.36-0.85c0-0.33,0.12-0.62,0.35-0.85
		C165.65,101.25,165.94,101.14,166.27,101.14"/>
	<path class="st0" d="M172.33,99.16c0.49,0.02,1.03,0.04,1.64,0.04c0.59,0,1.11-0.02,1.59-0.04l-1.64-3.96L172.33,99.16z
		 M168.92,103.36v-0.63c0.42-0.03,0.66-0.06,0.74-0.08c0.08-0.02,0.15-0.06,0.2-0.11c0.06-0.05,0.12-0.13,0.18-0.23
		c0.06-0.11,0.23-0.5,0.53-1.18c0.13-0.32,0.39-0.95,0.77-1.89l2.01-4.97l0.68-1.75h1.09l3.44,8.05l0.48,1.06l0.31,0.71
		c0.05,0.09,0.1,0.16,0.15,0.2c0.05,0.04,0.1,0.07,0.16,0.09c0.05,0.02,0.21,0.03,0.45,0.05c0.08,0.01,0.19,0.02,0.34,0.04v0.63
		l-2.14-0.06l-2.71,0.06v-0.63c0.63-0.03,0.97-0.06,1.05-0.11c0.08-0.04,0.12-0.12,0.12-0.22c0-0.13-0.06-0.34-0.18-0.64l-0.66-1.7
		h-3.98l-0.34,0.93c-0.25,0.71-0.38,1.15-0.38,1.32c0,0.12,0.04,0.21,0.12,0.26c0.12,0.08,0.49,0.12,1.1,0.14v0.63l-1.78-0.06
		L168.92,103.36z"/>
	<path class="st0" d="M183.06,101.14c0.33,0,0.62,0.12,0.85,0.35c0.23,0.23,0.34,0.52,0.34,0.85c0,0.33-0.11,0.62-0.35,0.85
		c-0.24,0.24-0.52,0.35-0.84,0.35c-0.34,0-0.62-0.11-0.85-0.35c-0.24-0.23-0.35-0.52-0.35-0.85c0-0.33,0.12-0.62,0.35-0.85
		C182.43,101.25,182.72,101.14,183.06,101.14"/>
	<path class="st0" d="M94.7,104.51l-0.5,1.1c-0.91,0.48-1.72,0.81-2.45,0.99c-0.72,0.18-1.63,0.27-2.71,0.27
		c-1.54,0-2.9-0.24-4.09-0.73c-0.93-0.4-1.72-0.92-2.36-1.57c-0.65-0.65-1.15-1.35-1.49-2.11c-0.53-1.14-0.8-2.39-0.8-3.73
		c0-2.29,0.78-4.17,2.35-5.63c1.57-1.45,3.78-2.18,6.63-2.18c0.98,0,1.86,0.07,2.64,0.21c0.78,0.15,1.69,0.4,2.72,0.76l0.05,0.14
		c-0.12,0.33-0.21,0.76-0.28,1.27c-0.11,0.81-0.18,1.56-0.22,2.25H93.3c-0.01-0.8-0.04-1.43-0.08-1.91
		c-0.48-0.51-1.03-0.89-1.63-1.14c-0.6-0.25-1.37-0.37-2.31-0.37c-1.7,0-3.06,0.55-4.07,1.63c-1.02,1.09-1.53,2.6-1.53,4.55
		c0,1.18,0.18,2.21,0.52,3.08c0.35,0.88,0.8,1.61,1.38,2.19c0.57,0.58,1.15,0.99,1.73,1.25c0.79,0.35,1.75,0.53,2.87,0.53
		c0.74,0,1.44-0.09,2.1-0.25c0.66-0.17,1.38-0.46,2.15-0.87L94.7,104.51z"/>
</g>
</svg>
