<?xml version="1.0" encoding="utf-8"?>
<!-- Generator: Adobe Illustrator 28.0.0, SVG Export Plug-In . SVG Version: 6.00 Build 0)  -->
<svg version="1.1" id="Layer_1" xmlns="http://www.w3.org/2000/svg" xmlns:xlink="http://www.w3.org/1999/xlink" x="0px" y="0px"
	 viewBox="0 0 198.43 198.43" style="enable-background:new 0 0 198.43 198.43;" xml:space="preserve">
<style type="text/css">
	.st0{fill-rule:evenodd;clip-rule:evenodd;fill:#347EB0;}
	.st1{fill-rule:evenodd;clip-rule:evenodd;fill:#FFFDFC;}
	.st2{fill-rule:evenodd;clip-rule:evenodd;fill:#E6352F;}
	.st3{fill-rule:evenodd;clip-rule:evenodd;fill:#151515;}
	.st4{fill-rule:evenodd;clip-rule:evenodd;fill:#E57C35;}
</style>
<g>
	<g>
		<path class="st0" d="M15.65,65.98h11.33c-0.75,0.58-1.82,1.67-2.02,3.28c-0.31,2.51,1.25,11.1,1.25,11.1l0.57,2.3
			c0,0,0.33,0.97-0.51,0.97c-0.85,0-5.68,0.42-6.73,0.69c-0.76,0.2-2.8,1.11-3.89,1.61V65.98z M15.65,92.85l10.69-0.52
			c0,0-2.8,6.97-3.64,12.42c-0.85,5.45-0.21,6.93-0.26,7.83c-0.05,0.9-0.16,4.28-1.8,6.61c-1.64,2.33-4.98,5.45-4.98,5.45V92.85z
			 M50.95,65.98l-24.71,53.56l-7.81,4.68l-2.78,3.27v7.78l168.61,0l-0.02-69.28H50.95z"/>
		<path class="st1" d="M166.28,99.19c2.18,1.5,5.01,2.32,7.93,2.32c5.31,0,8.75-3.1,8.75-7.74c0-4.09-1.94-5.69-6.13-6.74
			c-2.66-0.68-4.09-1.19-4.09-3.78c0-2.18,1.33-3.68,3.17-3.68c2.35,0,4.22,2.18,4.53,5.82l0.48,0.03l1.46-5.38
			c-2.35-1.26-4.56-1.91-6.81-1.91c-5.01,0-8.1,3.03-8.1,7.12c0,1.98,0.51,3.47,1.6,4.5c1.26,1.19,3.06,1.5,5.35,2.11
			c2.28,0.61,3.34,1.74,3.34,3.92c0,2.62-1.7,4.29-3.88,4.29c-2.52,0-4.87-2.52-5.52-6.95l-0.48-0.1L166.28,99.19z M156.5,90.78
			h-3.64l1.87-5.04L156.5,90.78z M145.67,100.97c1.36-0.07,2.53-0.11,3.55-0.11c0.95,0,2.08,0.04,3.37,0.11v-0.48
			c-1.09-0.14-1.74-1.05-1.74-2.58c0-1.39,0.54-3.29,1.53-5.87h4.56l1.6,4.38c0.34,0.91,0.51,1.66,0.51,2.27
			c0,1.05-0.54,1.73-1.46,1.8v0.48c2.04-0.07,3.88-0.14,5.58-0.14c1.43,0,2.93,0.07,4.53,0.14v-0.48c-1.29-0.14-1.87-1.25-2.69-3.19
			l-8.07-19.15h-0.41l-6.37,15.32c-1.63,3.9-2.55,6.34-4.5,7.02V100.97z M137.2,100.52c-0.95-0.37-1.46-1.12-1.46-2.14
			c0-0.72,0.27-1.53,0.75-2.52l1.84-3.64l1.84,4.01c0.51,1.06,0.82,1.91,0.82,2.65c0,0.95-0.41,1.33-1.53,1.63V101
			c1.77-0.1,3.51-0.14,5.21-0.14c1.7,0,3.37,0.04,4.97,0.14v-0.48c-1.23-0.31-2.42-2.04-3.95-5.2l-3.51-7.31l1.63-2.79
			c2.18-3.74,4.12-5.78,5.31-6.05v-0.48c-1.19,0.07-2.38,0.14-3.58,0.14c-1.19,0-2.38-0.07-3.61-0.14v0.48
			c0.99,0.37,1.4,0.95,1.4,1.97c0,0.72-0.17,1.33-0.48,1.98l-1.6,3.26l-1.63-3.3c-0.51-1.09-0.72-1.87-0.72-2.21
			c0-0.78,0.48-1.29,1.5-1.7v-0.48c-1.63,0.07-3.27,0.14-4.9,0.14c-1.63,0-3.24-0.07-4.88-0.14v0.48c2.08,0.92,2.9,2.82,3.99,5.17
			l2.89,6.22l-2.15,3.54c-2.04,3.37-3.85,5.51-5.56,6.42V101c1.23-0.1,2.46-0.14,3.72-0.14c1.23,0,2.45,0.04,3.68,0.14V100.52z
			 M112.54,101c4.02-0.1,6.5-0.14,7.42-0.14h9.13l1.67-7.46l-0.48-0.14c-2.69,4.19-5.35,6.27-7.63,6.27c-2.15,0-2.86-1.43-2.86-4.53
			v-5.18c0.37-0.03,0.75-0.07,1.09-0.07c2.79,0,4.36,1.12,5.04,3.61h0.48v-8.4h-0.48c-0.68,2.48-2.28,3.6-5.04,3.6
			c-0.34,0-0.71-0.03-1.09-0.07v-8.72c0.31-0.03,0.58-0.03,0.89-0.03c3.03,0,5.41,1.63,7.93,5.02h0.48l-1.19-5.94h-7.97
			c-1.43,0-3.64-0.03-6.61-0.14v0.48c1.09,0.51,1.09,1.29,1.09,2.71v12.03c0,3.51-0.27,5.55-1.87,6.61V101z M99.81,101
			c1.53-0.1,3.03-0.14,4.56-0.14c1.5,0,3.03,0.04,4.56,0.14v-0.48c-1.8-1.16-1.87-3.6-1.87-7.82V81.31c0-0.78,0.07-1.06,0.54-1.06
			c1.16,0,3.24,1.56,5.52,4.89l0.48-0.07l-1.19-6.25H96.37l-1.23,6.25l0.48,0.07c2.28-3.33,4.36-4.89,5.52-4.89
			c0.48,0,0.54,0.27,0.54,1.06V92.7c0,4.22-0.07,6.66-1.87,7.82V101z"/>
		<path class="st1" d="M166.47,107.36l12.19,17.99h0.6v-12.47c0-5.72,0.16-8.74,2.74-9.85v-0.47c-1.1,0.07-2.2,0.07-3.31,0.07
			c-1.13,0-2.24,0-3.34-0.07v0.47c2.61,1.29,2.68,4.27,2.68,9.82v2.27l-8.6-12.56c-0.76,0-1.57,0.07-2.43,0.07
			c-1.2,0-2.49-0.07-3.84-0.1v0.41c1.83,0.68,2.08,1.9,2.08,4.3v7.11c0,5.72-0.13,8.74-2.71,9.85v0.48c1.11-0.1,2.21-0.14,3.34-0.14
			c1.1,0,2.2,0.04,3.31,0.14v-0.48c-2.61-1.29-2.71-4.3-2.71-9.85V107.36z M146.85,124.67c3.72-0.1,6.02-0.14,6.87-0.14h8.44
			l1.54-7.42l-0.44-0.14c-2.49,4.17-4.95,6.23-7.06,6.23c-1.98,0-2.65-1.42-2.65-4.5v-5.15c0.35-0.03,0.69-0.07,1.01-0.07
			c2.58,0,4.03,1.12,4.66,3.59h0.44v-8.35h-0.44c-0.63,2.47-2.11,3.58-4.66,3.58c-0.32,0-0.66-0.03-1.01-0.07v-8.67
			c0.28-0.03,0.54-0.03,0.82-0.03c2.8,0,5.01,1.62,7.34,4.99h0.44l-1.1-5.91h-7.37c-1.32,0-3.37-0.03-6.11-0.14v0.47
			c1.01,0.51,1.01,1.28,1.01,2.7v11.97c0,3.49-0.25,5.52-1.73,6.57V124.67z M129.05,124.19v0.48c1.42-0.1,2.84-0.14,4.22-0.14
			c1.42,0,2.8,0.04,4.22,0.14v-0.48c-1.32-0.95-1.73-2.84-1.73-6.02v-1.73c0-1.82,0.06-2.7,0.88-2.7c0.91,0,1.1,0.95,1.8,3.21
			l2.33,7.72c1.23-0.1,2.39-0.14,3.59-0.14c1.17,0,2.33,0.04,3.47,0.14v-0.45c-1.26-0.24-1.83-1.52-2.68-3.72l-1.2-3.08
			c-0.76-1.93-1.26-3.48-2.9-4.33c-0.63-0.34-1.54-0.51-2.74-0.51c-0.44,0-0.88,0-1.39,0.07l3.78-4.63c1.8-2.17,3.31-4.02,5.23-5.07
			v-0.47c-1.07,0.07-2.14,0.14-3.24,0.14c-1.07,0-2.17-0.07-3.31-0.14v0.47c0.91,0.27,1.32,0.85,1.32,1.76
			c0,0.95-0.57,1.9-1.57,3.15l-3.37,4.19v-6.39c0-1.42,0-2.2,1.01-2.7v-0.47c-1.17,0.07-2.33,0.14-3.5,0.14
			c-1.17,0-2.33-0.07-3.5-0.14v0.47c1.01,0.51,1.01,1.29,1.01,2.7v10.75C130.78,120.61,130.72,123.04,129.05,124.19 M126.56,116.67
			c-0.72,4.71-2.2,7.04-4.6,7.04c-2.68,0-4.95-3.52-4.95-9.69c0-6.87,2.17-10.74,4.95-10.74c2.55,0,3.65,2.57,4.25,7.86l0.44,0.1
			l1.42-6.67c-2.05-1.73-4.38-2.64-6.74-2.64c-2.93,0-5.58,1.46-7.34,3.96c-1.54,2.24-2.36,4.91-2.36,7.86
			c0,3.08,0.94,5.96,2.65,8.2c1.61,2.13,3.81,3.22,6.52,3.22c2.55,0,5.04-0.99,7.31-2.95l-1.1-5.66L126.56,116.67z M102.78,124.67
			c1.42-0.1,2.83-0.14,4.22-0.14c1.42,0,2.8,0.04,4.22,0.14v-0.48c-1.67-1.15-1.73-3.58-1.73-7.78v-10.75c0-1.42,0-2.2,1.01-2.7
			v-0.47c-1.17,0.07-2.33,0.14-3.5,0.14c-1.17,0-2.33-0.07-3.5-0.14v0.47c1.01,0.51,1.01,1.29,1.01,2.7v10.75
			c0,4.19-0.06,6.63-1.73,7.78V124.67z M83.76,124.67c1.42-0.1,2.84-0.14,4.22-0.14c1.42,0,2.8,0.04,4.22,0.14v-0.48
			c-1.67-1.15-1.73-3.59-1.73-7.79v-2.84c0.63-0.07,1.32-0.07,2.14-0.07h1.67c0.82,0,1.54,0,2.17,0.07V116
			c0,4.47-0.06,7.01-1.76,8.2v0.48c1.42-0.1,2.83-0.14,4.25-0.14s2.84,0.04,4.22,0.14v-0.48c-1.7-1.19-1.76-3.73-1.76-8.2v-10.34
			c0-1.42,0-2.19,1.01-2.7v-0.47c-1.17,0.07-2.33,0.14-3.5,0.14c-1.17,0-2.33-0.07-3.5-0.14v0.47c1.01,0.51,1.04,1.28,1.04,2.7v6.58
			c-1.2,0.07-1.95,0.07-2.17,0.07h-1.67c-0.95,0-1.64,0-2.14-0.07v-6.58c0-1.42,0-2.19,1.01-2.7v-0.47
			c-1.17,0.07-2.33,0.14-3.5,0.14c-1.17,0-2.33-0.07-3.5-0.14v0.47c1.01,0.51,1.01,1.28,1.01,2.7v10.75c0,4.2-0.06,6.64-1.73,7.79
			V124.67z M81.27,116.67c-0.72,4.71-2.2,7.04-4.6,7.04c-2.68,0-4.95-3.52-4.95-9.69c0-6.87,2.17-10.74,4.95-10.74
			c2.55,0,3.65,2.57,4.25,7.86l0.44,0.1l1.42-6.67c-2.05-1.73-4.38-2.64-6.74-2.64c-2.93,0-5.58,1.46-7.34,3.96
			c-1.54,2.24-2.36,4.91-2.36,7.86c0,3.08,0.95,5.96,2.65,8.2c1.61,2.13,3.81,3.22,6.52,3.22c2.55,0,5.04-0.99,7.31-2.95l-1.1-5.66
			L81.27,116.67z"/>
		<path class="st2" d="M165.44,97.31c2.18,1.5,5.01,2.32,7.93,2.32c5.31,0,8.75-3.1,8.75-7.74c0-4.09-1.94-5.69-6.13-6.74
			c-2.66-0.68-4.09-1.19-4.09-3.78c0-2.18,1.33-3.68,3.17-3.68c2.35,0,4.22,2.18,4.53,5.82l0.48,0.03l1.46-5.38
			c-2.35-1.26-4.56-1.91-6.81-1.91c-5.01,0-8.1,3.03-8.1,7.12c0,1.98,0.51,3.47,1.6,4.5c1.26,1.19,3.06,1.5,5.35,2.11
			c2.28,0.61,3.34,1.74,3.34,3.92c0,2.62-1.7,4.29-3.88,4.29c-2.52,0-4.87-2.52-5.52-6.95l-0.48-0.1L165.44,97.31z M155.67,88.9
			h-3.64l1.87-5.04L155.67,88.9z M144.83,99.08c1.36-0.07,2.53-0.11,3.55-0.11c0.95,0,2.08,0.04,3.37,0.11V98.6
			c-1.09-0.14-1.74-1.05-1.74-2.58c0-1.39,0.54-3.29,1.53-5.87h4.56l1.6,4.38c0.34,0.91,0.51,1.66,0.51,2.27
			c0,1.05-0.54,1.73-1.46,1.8v0.48c2.04-0.07,3.88-0.14,5.58-0.14c1.43,0,2.93,0.07,4.53,0.14V98.6c-1.29-0.14-1.87-1.25-2.69-3.19
			l-8.07-19.15h-0.41l-6.37,15.32c-1.63,3.9-2.55,6.34-4.5,7.02V99.08z M136.36,98.64c-0.95-0.37-1.46-1.12-1.46-2.14
			c0-0.72,0.27-1.53,0.75-2.52l1.84-3.64l1.84,4.01c0.51,1.06,0.82,1.91,0.82,2.65c0,0.95-0.41,1.33-1.53,1.63v0.48
			c1.77-0.1,3.51-0.14,5.21-0.14c1.7,0,3.37,0.04,4.97,0.14v-0.48c-1.23-0.31-2.42-2.04-3.95-5.2l-3.51-7.31l1.63-2.79
			c2.18-3.74,4.12-5.78,5.31-6.05v-0.48c-1.19,0.07-2.38,0.14-3.58,0.14s-2.38-0.07-3.61-0.14v0.48c0.99,0.37,1.4,0.95,1.4,1.97
			c0,0.72-0.17,1.33-0.48,1.98l-1.6,3.26l-1.63-3.3c-0.51-1.09-0.72-1.87-0.72-2.21c0-0.78,0.48-1.29,1.5-1.7v-0.48
			c-1.63,0.07-3.27,0.14-4.9,0.14c-1.63,0-3.24-0.07-4.88-0.14v0.48c2.08,0.92,2.9,2.82,3.99,5.17l2.89,6.22l-2.15,3.54
			c-2.04,3.37-3.85,5.51-5.56,6.42v0.48c1.23-0.1,2.46-0.14,3.72-0.14c1.23,0,2.45,0.04,3.68,0.14V98.64z M111.7,99.12
			c4.02-0.1,6.5-0.14,7.42-0.14h9.13l1.67-7.46l-0.48-0.14c-2.69,4.19-5.35,6.27-7.63,6.27c-2.15,0-2.86-1.43-2.86-4.53v-5.18
			c0.37-0.03,0.75-0.07,1.09-0.07c2.79,0,4.36,1.12,5.04,3.61h0.48v-8.4h-0.48c-0.68,2.48-2.28,3.6-5.04,3.6
			c-0.34,0-0.71-0.03-1.09-0.07V77.9c0.31-0.03,0.58-0.03,0.89-0.03c3.03,0,5.41,1.63,7.93,5.02h0.48l-1.19-5.94h-7.97
			c-1.43,0-3.64-0.03-6.61-0.14v0.48c1.09,0.51,1.09,1.29,1.09,2.71v12.03c0,3.51-0.27,5.55-1.87,6.61V99.12z M98.97,99.12
			c1.53-0.1,3.03-0.14,4.56-0.14c1.5,0,3.03,0.04,4.56,0.14v-0.48c-1.81-1.16-1.87-3.6-1.87-7.82V79.43c0-0.78,0.07-1.06,0.54-1.06
			c1.16,0,3.24,1.56,5.52,4.89l0.48-0.07l-1.19-6.25H95.53L94.3,83.2l0.48,0.07c2.28-3.33,4.36-4.89,5.52-4.89
			c0.48,0,0.54,0.27,0.54,1.06v11.39c0,4.22-0.07,6.66-1.87,7.82V99.12z"/>
		<path class="st2" d="M165.64,105.48l12.19,17.99h0.6V111c0-5.72,0.16-8.74,2.74-9.85v-0.47c-1.1,0.07-2.2,0.07-3.31,0.07
			c-1.13,0-2.24,0-3.34-0.07v0.47c2.61,1.29,2.68,4.27,2.68,9.82v2.27l-8.6-12.56c-0.76,0-1.57,0.07-2.43,0.07
			c-1.2,0-2.49-0.07-3.84-0.1v0.41c1.83,0.68,2.08,1.9,2.08,4.3v7.11c0,5.72-0.13,8.74-2.71,9.85v0.48c1.11-0.1,2.21-0.14,3.34-0.14
			c1.1,0,2.2,0.04,3.31,0.14v-0.48c-2.61-1.29-2.71-4.3-2.71-9.85V105.48z M146.01,122.79c3.72-0.1,6.02-0.14,6.87-0.14h8.44
			l1.54-7.42l-0.44-0.14c-2.49,4.17-4.95,6.23-7.06,6.23c-1.98,0-2.65-1.42-2.65-4.5v-5.15c0.35-0.03,0.69-0.07,1.01-0.07
			c2.58,0,4.03,1.12,4.66,3.59h0.44v-8.35h-0.44c-0.63,2.47-2.11,3.58-4.66,3.58c-0.32,0-0.66-0.03-1.01-0.07v-8.67
			c0.28-0.03,0.54-0.03,0.82-0.03c2.8,0,5.01,1.62,7.34,4.99h0.44l-1.1-5.91h-7.37c-1.32,0-3.37-0.03-6.11-0.14v0.47
			c1.01,0.51,1.01,1.28,1.01,2.7v11.97c0,3.49-0.25,5.52-1.73,6.57V122.79z M128.21,122.31v0.48c1.42-0.1,2.84-0.14,4.22-0.14
			c1.42,0,2.8,0.04,4.22,0.14v-0.48c-1.32-0.95-1.73-2.84-1.73-6.02v-1.73c0-1.82,0.06-2.7,0.88-2.7c0.91,0,1.1,0.95,1.8,3.21
			l2.33,7.72c1.23-0.1,2.39-0.14,3.59-0.14c1.17,0,2.33,0.04,3.47,0.14v-0.45c-1.26-0.24-1.83-1.52-2.68-3.72l-1.2-3.08
			c-0.76-1.93-1.26-3.48-2.9-4.33c-0.63-0.34-1.54-0.51-2.74-0.51c-0.44,0-0.88,0-1.39,0.07l3.78-4.63c1.8-2.17,3.31-4.02,5.23-5.07
			v-0.47c-1.07,0.07-2.14,0.14-3.24,0.14c-1.07,0-2.17-0.07-3.31-0.14v0.47c0.91,0.27,1.32,0.85,1.32,1.76
			c0,0.95-0.57,1.9-1.57,3.15l-3.37,4.19v-6.39c0-1.42,0-2.2,1.01-2.7v-0.47c-1.17,0.07-2.33,0.14-3.5,0.14
			c-1.17,0-2.33-0.07-3.5-0.14v0.47c1.01,0.51,1.01,1.29,1.01,2.7v10.75C129.95,118.72,129.88,121.16,128.21,122.31 M125.73,114.79
			c-0.72,4.71-2.2,7.04-4.6,7.04c-2.68,0-4.95-3.52-4.95-9.69c0-6.87,2.17-10.74,4.95-10.74c2.55,0,3.65,2.57,4.25,7.86l0.44,0.1
			l1.42-6.67c-2.05-1.73-4.38-2.64-6.74-2.64c-2.93,0-5.58,1.46-7.34,3.96c-1.54,2.24-2.36,4.91-2.36,7.86
			c0,3.08,0.94,5.96,2.65,8.2c1.61,2.13,3.81,3.22,6.52,3.22c2.55,0,5.04-0.99,7.31-2.95l-1.1-5.66L125.73,114.79z M101.94,122.79
			c1.42-0.1,2.83-0.14,4.22-0.14c1.42,0,2.8,0.04,4.22,0.14v-0.48c-1.67-1.15-1.73-3.58-1.73-7.78v-10.75c0-1.42,0-2.2,1.01-2.7
			v-0.47c-1.17,0.07-2.33,0.14-3.5,0.14c-1.17,0-2.33-0.07-3.5-0.14v0.47c1.01,0.51,1.01,1.29,1.01,2.7v10.75
			c0,4.19-0.06,6.63-1.73,7.78V122.79z M82.92,122.79c1.42-0.1,2.84-0.14,4.22-0.14c1.42,0,2.8,0.04,4.22,0.14v-0.48
			c-1.67-1.15-1.73-3.59-1.73-7.79v-2.84c0.63-0.07,1.32-0.07,2.14-0.07h1.67c0.82,0,1.54,0,2.17,0.07v2.44
			c0,4.47-0.06,7.01-1.76,8.2v0.48c1.42-0.1,2.83-0.14,4.25-0.14s2.84,0.04,4.22,0.14v-0.48c-1.7-1.19-1.76-3.73-1.76-8.2v-10.34
			c0-1.42,0-2.19,1.01-2.7v-0.47c-1.17,0.07-2.33,0.14-3.5,0.14c-1.17,0-2.33-0.07-3.5-0.14v0.47c1.01,0.51,1.04,1.28,1.04,2.7v6.58
			c-1.2,0.07-1.95,0.07-2.17,0.07h-1.67c-0.95,0-1.64,0-2.14-0.07v-6.58c0-1.42,0-2.19,1.01-2.7v-0.47
			c-1.17,0.07-2.33,0.14-3.5,0.14c-1.17,0-2.33-0.07-3.5-0.14v0.47c1.01,0.51,1.01,1.28,1.01,2.7v10.75c0,4.2-0.06,6.64-1.73,7.79
			V122.79z M80.43,114.79c-0.72,4.71-2.2,7.04-4.6,7.04c-2.68,0-4.95-3.52-4.95-9.69c0-6.87,2.17-10.74,4.95-10.74
			c2.55,0,3.65,2.57,4.25,7.86l0.44,0.1l1.42-6.67c-2.05-1.73-4.38-2.64-6.74-2.64c-2.93,0-5.58,1.46-7.34,3.96
			c-1.54,2.24-2.36,4.91-2.36,7.86c0,3.08,0.95,5.96,2.65,8.2c1.61,2.13,3.81,3.22,6.52,3.22c2.55,0,5.04-0.99,7.31-2.95l-1.1-5.66
			L80.43,114.79z"/>
		<path class="st2" d="M28.65,84.61l-2.72,0.18c1.4,0.02,2.79,0.19,4.08,0.42l15.04,2.6c6.75,1.16,14.91,2.82,18.52,2.76
			c3.61-0.05,9.62-1.53,10-7.27c0.38-5.74-5.38-6.39-7.38-6.86c-1.99-0.46-8.14-0.9-8.14-0.9l-3.61-0.18
			c0.09,0.54,0.2,1.33,0.28,1.88c0.49,3.44,0.49,5.14,0.49,5.14s-10.27,1.42-11.75,1.8C42,84.55,29.97,84.72,28.65,84.61"/>
		<path class="st3" d="M29.28,92.11l-0.62,0.09c-0.47,0.07-0.99,0.17-1.54,0.26c-1.86,0.3-3.73,0.54-5.61,0.69
			c-1.92,0.15-3.87,0.22-5.79,0.04c-0.68-0.08-1.45-0.71-1.54-1.6c-0.05-1,0.69-2.64,2.86-3.97c2.17-1.32,4.58-2.29,7.44-2.66
			c2.18-0.28,4.4-0.07,6.41,0.28l14.56,2.51c6.53,1.13,14.44,2.73,17.93,2.67c3.49-0.05,9.31-1.48,9.68-7.04
			c0.37-5.55-5.21-6.19-7.14-6.64c-1.93-0.45-7.88-0.87-7.88-0.87l-3.49-0.18c0.08,0.52,0.19,1.29,0.27,1.82
			c0.48,3.33,0.48,4.97,0.48,4.97s-9.94,1.38-11.37,1.75c-1.43,0.37-13.08,0.53-14.35,0.43L27.66,73.7
			c-0.43-2.51-0.85-4.65,0.79-6.19c1.64-1.54,2.91-2.22,5.87-2.59c2.96-0.37,8.78-1.06,10.95-1.38c2.17-0.32,3.81-0.95,5.55,0.74
			c0.82,0.81,1.2,1.65,1.44,2.13c0.91,2.79,1.73,5.49,2.05,8.37l2.9,0.16c1.92,0.1,4.5,0.13,7.06,0.46
			c5.12,0.66,10.18,2.29,9.89,6.44c-0.04,0.5,0.14,1.86-0.31,3.47c-0.45,1.6-1.14,3.35-3.68,4.82c-5.1,2.94-13.02,0.98-13.02,0.98
			s3.74,2.01,5.1,5.02c1.36,3.01,1.1,6.36,0.75,8.51c-0.36,2.15-2.3,3.8-2.66,3.09c-0.36-0.72-1.44-1.72-1.44-1.72l-1.01,0.93
			c-1,0.93-2.44,0.72-2.73,1.15c-0.29,0.43,0.5,2.37,2.58,4.45c2.08,2.08,7.32,4.74,7.32,4.74s1.87,1.44,5.45,2.51
			c-0.86,0.93-2.44,1.22-5.24,1c-2.8-0.22-7.39-2.66-7.39-2.66s1.29,0.65,1.65,0.79c0.36,0.14,4.09,2.15,4.88,3.16
			c0.79,1,0.5,2.44-0.86,3.44c-1.36,1-4.31-0.86-4.31-0.86s0.14-0.07,0.86,0.57c0.72,0.65,1.51,2.44,0.75,3.57s-1.2,1.22-2.4,1.37
			c-2.84,0.36-5.33-2.66-5.33-2.66l-1.58-1.73c0,0-0.39-0.58-0.48,0.21c-0.09,0.79-0.31,3.66-0.92,4.85
			c-0.61,1.19-0.88,1.03-1.17,1.03c-0.29,0-1.28-0.34-2-2.15c-0.72-1.82-1.17-4.13-1.17-4.13l-0.2-0.79c0,0-0.54,1.37-1.17,2.4
			c-0.63,1.03-3.1,4.2-4.13,4.94c-1.03,0.74-1.14,0.83-1.66,0.83c-0.52,0-1.23-0.61-1.64-1.66c-0.4-1.05-0.81-3.3-0.88-3.95
			c-0.07-0.65-0.05-0.94-0.05-0.94s-1.19,1.89-2.74,2.78c-1.55,0.9-3.05,1.14-3.57,1.14c-0.52,0-1.64-0.36-1.93-1.41
			c-0.29-1.05-0.07-3.12-0.07-3.32c0-0.2-1.32,1.41-3.39,2.31s-3.59,1.53-4.65,1.44c-1.05-0.09-2.63-0.29-2.65-2.72
			c-0.02-2.42,3.12-3.95,3.73-4.4c0.61-0.45,1.64-2.11,2.22-3.05c0.58-0.94,1.82-3.52,2.04-5.9c0.22-2.38-0.25-4.35,0.2-7.59
			c0.45-3.23,1.57-7.52,2.31-9.56C28.07,94.95,28.59,93.48,29.28,92.11"/>
		<path class="st2" d="M38.09,65.29c0,0,7.52-0.96,8.21-1c0.7-0.04,2.88,0.17,3.1,0.96c0.22,0.79-0.52,1.35-0.87,1.57
			c-0.35,0.22-1.35,0.7-2.75,0.74c-1.4,0.04-3.32-0.26-4.89-0.61c-1.57-0.35-2.8-0.39-3.76-0.39s-3.76,0.04-3.76,0.04
			s-0.81,0.07-0.79-0.42c0.01-0.49,0.95-0.43,1.31-0.45C34.25,65.73,38.09,65.29,38.09,65.29"/>
		<path class="st2" d="M29.94,82.32c0,0-1.3-8.11-1.48-9.11c-0.37-2.1-0.67-4.9,1.66-5.62c0.95-0.29,1.89-0.47,3.61-0.47
			s4.44,0.18,5.86,0.47c1.42,0.3,3.43,0.59,4.14,0.77c0.71,0.18,1.18,0.24,2.49,0.24c1.3,0,2.55-0.59,2.9-0.83
			c0.36-0.24,1.36-1.42,1.42-1.78c0.06-0.36,0.65,0.71,1.07,1.36c0.41,0.65,0.65,2.31,0.95,3.14c0.3,0.83,0.71,3.49,1.07,5.33
			c0.35,1.84,0.65,4.26,0.65,4.26s-3.2,0.95-6.45,1.36c-3.26,0.41-9.71,1.24-12.19,1.36c-2.49,0.12-5.45,0.12-5.45,0.12L29.94,82.32
			z"/>
		<path class="st1" d="M48.8,90.42c0.17,0,0.33,0.01,0.49,0.03c-0.71,0.52-1.18,1.4-1.18,2.39c0,0.65,0.2,1.26,0.55,1.74
			c-1.43-0.06-2.57-0.97-2.57-2.08C46.08,91.35,47.3,90.42,48.8,90.42"/>
		<path class="st1" d="M29.68,91.12l0.15-0.02c0.79-1.31,1.78-2.43,3.06-3.01c0.62-0.28,1.32-0.43,2.21-0.43
			c0.32,0,0.61,0.22,0.18,0.45c-0.23,0.12-0.87,0.49-1.51,0.92c-1.56,1.06-2.01,1.66-2.97,3.5c-0.73,1.4-1.61,3.45-2.38,6.3
			c-1.69,6.21-1.93,6.58-1.99,9.31c-0.07,2.73,0.17,4.39,0.1,5.45c-0.07,1.06-0.9,4.15-1.76,5.85c-0.86,1.7-2.63,3.92-3.12,4.32
			c-0.5,0.4-3.06,1.7-2.99,3.06c0.07,1.36,1.43,1.1,1.83,1.06c0.4-0.03,5.68-2.23,7.08-3.79c1.4-1.56,1.56-2.06,1.56-2.06l1.13,0.33
			c0,0-0.83,2.79-1.03,3.72c-0.2,0.93-0.53,2.76,0.63,2.79c1.16,0.03,2.99-1.03,3.56-1.53c0.57-0.5,1.79-1.73,2.13-3.12
			c0.33-1.4,0.33-1.36,0.33-1.36l1.36-0.07c0,0,0.1,4.05,0.63,6.12c0.53,2.06,0.47,2.53,1,2.56c0.53,0.03,3.06-2.79,3.72-4.02
			c0.66-1.23,1.76-3.22,1.99-4.32c0.23-1.1,0.23-1.33,0.23-1.33l1.7-0.17c0,0,0.8,4.55,1.46,6.41c0.66,1.86,0.76,1.96,0.76,1.96
			s0.13,0.43,0.4-0.23c0.27-0.66,0.86-2.39,0.73-3.89c-0.13-1.5-0.86-3.79-0.96-3.99c-0.1-0.2-0.2-0.3-0.2-0.3l1.4-0.66
			c0,0,2.19,3.49,3.12,4.59c0.93,1.1,1.89,2.26,3.16,2.79c1.26,0.53,2.56,0.53,2.89,0.4c0.33-0.13,1.23-0.7,0.2-2.09
			c-1.03-1.4-3.69-3.16-4.19-3.49c-0.5-0.33-3.16-2.13-3.16-2.13l1.03-1.2c0,0,5.38,3.79,7.91,4.42c1.34,0.34,2.26,0.21,2.58-0.26
			c0.28-0.41,0.09-1.1-0.69-1.97c-1.66-1.86-5.78-2.96-6.68-3.32c-0.9-0.37-3.46-1.36-3.46-1.36l0.33-1.7c0,0,7.25,2.63,8.54,3.09
			c1.3,0.47,4.25,1,4.65,0.86c0.4-0.13-2.99-1.43-6.21-3.62c-3.22-2.19-4.39-3.49-4.95-4.15c-0.57-0.66-1.13-1.93-1.2-2.63
			c-0.07-0.7,0.03-0.76,0.03-0.76s-3.62,0.56-6.08-0.5c-2.46-1.06-4.15-3.26-4.15-3.26s-1.56,1.56-4.12,1.46s-4.75-1.69-5.48-2.36
			c-0.73-0.66-0.73-0.7-0.73-0.7l0.9-0.9c0,0,2.73,2.43,5.38,2.43c2.66,0,5.55-2.76,5.75-5.62c0.2-2.86-4.12-7.05-4.72-7.61
			c-0.6-0.56-0.7-0.63-0.7-0.63l0.9-0.93c0,0,2.46,1.99,3.12,2.79c0.66,0.8,0.83,1.06,1.1,1.46c0.27,0.4-0.43-0.93-0.27-2.06
			c0.17-1.13,0.83-2.16,1.03-2.36l0.2-0.2c0,0-8.11-2.09-9.64-2.23c-1.53-0.13-7.27-1.14-10.53-1.18c-3.27-0.03-7.72,1.91-9.02,3.03
			c-1.3,1.12-1.3,1.8-1.3,2.38s0.55,0.99,1.91,0.99C22.31,92.42,27.74,91.42,29.68,91.12"/>
		<path class="st2" d="M37.66,87.18c-1.61-0.14-7.96-1.27-11.4-1.31c-3.44-0.04-8.13,1.97-9.5,3.14s-1.37,1.87-1.37,2.47
			c0,0.6,0.58,1.02,2.02,1.02c5.01,0,10.59-0.96,12.64-1.26c0.39-1.21,2.1-2.59,3.52-3.23C34.57,87.56,36.29,87.78,37.66,87.18"/>
		<path class="st4" d="M45.4,104.07c0,0,0.63,1.45,3.52,2.51c2.89,1.06,5.4,0.43,6.12,0.19c0.72-0.24,2.12-0.77,2.27-1.01
			c0.14-0.24-0.24-0.58-0.72-0.87s-5.54-2.84-7.33-3.47c-1.78-0.63-2.07-0.67-2.07-0.67c-0.11,0.39-0.43,1.13-0.8,1.83
			C46.06,103.19,45.7,103.78,45.4,104.07"/>
		<path class="st4" d="M51.33,90.92c0,0,5.44-0.64,9.14,5.19c1.05,1.65,2.39,6.82,0.3,9.95c0,0-3.66-3.42-6.94-4.92
			c-3.28-1.49-6.22-2.02-6.22-2.02s-0.14-1.35-0.53-2.22s-1.11-1.3-1.06-1.59c0.02-0.14,0.19,0.05,0.55,0.27
			c0.36,0.22,0.9,0.48,1.67,0.45c2.08-0.06,2.88-1.36,3.15-2.63C51.66,92.12,51.39,90.88,51.33,90.92"/>
		<path class="st1" d="M60.66,66.94l0.96,2.97l3.12-0.01l-2.53,1.83l0.97,2.97l-2.52-1.84l-2.52,1.84l0.97-2.97l-2.53-1.83
			l3.12,0.01L60.66,66.94z M71.66,66.94l0.96,2.97l3.12-0.01l-2.53,1.83l0.97,2.97l-2.52-1.84l-2.52,1.84l0.97-2.97l-2.53-1.83
			l3.12,0.01L71.66,66.94z M82.67,66.94l0.96,2.97l3.12-0.01l-2.53,1.83l0.97,2.97l-2.52-1.84l-2.52,1.84l0.97-2.97l-2.53-1.83
			l3.12,0.01L82.67,66.94z M93.67,66.94l0.96,2.97l3.12-0.01l-2.53,1.83l0.97,2.97l-2.52-1.84l-2.52,1.84l0.97-2.97l-2.53-1.83
			l3.12,0.01L93.67,66.94z M104.68,66.94l0.96,2.97l3.12-0.01l-2.53,1.83l0.97,2.97l-2.52-1.84l-2.52,1.84l0.97-2.97l-2.53-1.83
			l3.12,0.01L104.68,66.94z M115.68,66.94l0.96,2.97l3.12-0.01l-2.53,1.83l0.97,2.97l-2.52-1.84l-2.52,1.84l0.97-2.97l-2.53-1.83
			l3.12,0.01L115.68,66.94z M126.68,66.94l0.96,2.97l3.12-0.01l-2.53,1.83l0.97,2.97l-2.52-1.84l-2.52,1.84l0.97-2.97l-2.53-1.83
			l3.12,0.01L126.68,66.94z M137.69,66.94l0.96,2.97l3.12-0.01l-2.53,1.83l0.97,2.97l-2.52-1.84l-2.52,1.84l0.97-2.97l-2.53-1.83
			l3.12,0.01L137.69,66.94z M148.69,66.94l0.96,2.97l3.12-0.01l-2.53,1.83l0.97,2.97l-2.52-1.84l-2.52,1.84l0.97-2.97l-2.53-1.83
			l3.12,0.01L148.69,66.94z M159.7,66.94l0.96,2.97l3.12-0.01l-2.53,1.83l0.97,2.97l-2.52-1.84l-2.52,1.84l0.97-2.97l-2.53-1.83
			l3.12,0.01L159.7,66.94z M170.7,66.94l0.96,2.97l3.12-0.01l-2.53,1.83l0.97,2.97l-2.52-1.84l-2.52,1.84l0.97-2.97l-2.53-1.83
			l3.12,0.01L170.7,66.94z"/>
	</g>
</g>
</svg>
