<?xml version="1.0" encoding="utf-8"?>
<!-- Generator: Adobe Illustrator 28.0.0, SVG Export Plug-In . SVG Version: 6.00 Build 0)  -->
<svg version="1.1" id="Layer_1" xmlns="http://www.w3.org/2000/svg" xmlns:xlink="http://www.w3.org/1999/xlink" x="0px" y="0px"
	 viewBox="0 0 198.43 198.43" style="enable-background:new 0 0 198.43 198.43;" xml:space="preserve">
<style type="text/css">
	.st0{fill-rule:evenodd;clip-rule:evenodd;fill:#EA312E;}
	.st1{fill-rule:evenodd;clip-rule:evenodd;fill:#FFFFFF;}
</style>
<g>
	<path class="st0" d="M57.93,99.19c0-12.42-9.88-22.61-21.88-22.61S14.17,86.78,14.17,99.19s9.88,22.64,21.88,22.64
		S57.93,111.61,57.93,99.19"/>
	<polygon class="st1" points="43.94,101.81 48.81,117.25 38.41,109.46 38.41,98.91 42.94,98.91 42.94,94.46 29.2,94.46 29.2,98.91 
		33.72,98.91 33.72,109.46 23.36,117.25 28.22,101.81 15.53,92.27 31.22,92.27 36.08,76.84 40.92,92.27 56.6,92.27 	"/>
	<path class="st0" d="M153.18,88.97c5.29,0,8.7,3.35,9.59,7.85h-6.43c-0.5-1.8-1.6-3.05-3.16-3.05c-2.19,0-3.47,2.45-3.47,5.45
		c0,3,1.27,5.45,3.47,5.45c1.66,0,2.79-1.4,3.25-3.39h6.41c-0.77,4.66-4.2,8.18-9.65,8.18c-6.23,0-9.82-4.6-9.82-10.25
		C143.36,93.57,146.99,88.97,153.18,88.97 M174.12,93.76c2.26,0,3.58,2.45,3.58,5.45c0,3-1.31,5.45-3.58,5.45
		c-2.27,0-3.58-2.45-3.58-5.45C170.54,96.21,171.86,93.76,174.12,93.76 M174.12,88.97c6.39,0,10.14,4.6,10.14,10.25
		c0,5.64-3.7,10.25-10.14,10.25c-6.43,0-10.14-4.6-10.14-10.25C163.98,93.57,167.72,88.97,174.12,88.97 M134.79,96.61l1.68,5.58
		h-3.36L134.79,96.61z M125.06,107.39l-5.64-8.67l6.12-9.42h-6.96l-3.24,5.33l-3.12-5.33h-6.96l6.12,9.29l-6.84,10.53h7.68l3.12-5.7
		l3.36,5.7h12.25l0.84-2.85h5.76l0.84,2.85h6.72l-7.68-19.82h-5.4L125.06,107.39z M80.15,109.12v-14.5h5.52V89.3H68.27v5.2h5.52
		v14.62H80.15z M87.6,89.31v19.81h15.73v-5.23H93.6v-2.37h9.49v-4.86H93.6v-2.12h9.49v-5.23H87.6z"/>
</g>
</svg>
