<?xml version="1.0" encoding="utf-8"?>
<!-- Generator: Adobe Illustrator 28.0.0, SVG Export Plug-In . SVG Version: 6.00 Build 0)  -->
<svg version="1.1" id="Layer_1" xmlns="http://www.w3.org/2000/svg" xmlns:xlink="http://www.w3.org/1999/xlink" x="0px" y="0px"
	 viewBox="0 0 741.1 178.7" style="enable-background:new 0 0 741.1 178.7;" xml:space="preserve">
<style type="text/css">
	.st0{fill:#231F20;}
</style>
<g>
	<path class="st0" d="M671.3,33.3c18.6,0,36.5,11.5,36.5,33.5c0,21.9-17.9,33.5-36.5,33.5c-18.7,0-36.5-11.5-36.5-33.5
		C634.7,44.8,652.6,33.3,671.3,33.3 M671.3,97.1c10.6,0,17.6-9.4,17.6-30.3c0-20.9-7-30.3-17.6-30.3c-10.6,0-17.6,9.5-17.6,30.3
		C653.7,87.6,660.6,97.1,671.3,97.1"/>
	<path class="st0" d="M39.3,77.4l1.5,0.7c0.3,6.4,2.1,18.6,8.3,18.6c2.7,0,6.9-2.4,6.9-22.8V47.5c0-6.5-1.2-10-6.3-11v-1.6
		c5.8,0,10.4,0.4,14.8,0.4c4.3,0,9-0.4,14.5-0.4v1.6c-4.8,1-6,4.5-6,11v25.2c0,17.5-7.9,27.6-24.3,27.6c-5.9,0-10.6-1-15.5-2.3
		L39.3,77.4z"/>
	<path class="st0" d="M116.9,33.3c18.7,0,36.5,11.5,36.5,33.5c0,21.9-17.9,33.5-36.5,33.5c-18.6,0-36.5-11.5-36.5-33.5
		C80.4,44.8,98.2,33.3,116.9,33.3 M116.9,97.1c10.6,0,17.6-9.4,17.6-30.3c0-20.9-7-30.3-17.6-30.3s-17.6,9.5-17.6,30.3
		C99.3,87.6,106.3,97.1,116.9,97.1"/>
	<path class="st0" d="M162.4,47.5c0-6.5-1.2-10-5.7-11v-1.6c3.9,0,7.7,0.1,11.5,0.2c3.9,0.1,7.6,0.2,11.1,0.2h17.6
		c15.7,0,23.4,5.9,23.4,14.8c0,12.3-14.4,15.1-23.9,15.1v0.2c11.3,1.8,15.9,4.3,20.3,15.4c5.1,13.1,7.1,15.1,12.5,16.4v1.6
		c-4,0-8.6-0.4-12.2-0.4c-3.7,0-7.8,0.4-11.8,0.4L200.1,83c-2.7-7.1-6.7-16.7-15.6-16.7h-5.1v13.3c0,8.9,0.4,16.7,7.4,17.1v2
		c-5.3,0-10.8-0.4-15.9-0.4c-5.1,0-10.6,0.4-15.9,0.4v-2c7.1-0.4,7.4-8.3,7.4-17.1V47.5z M179.4,63.1h5.1c8.1,0,17.2-2.7,17.2-12.3
		c0-10.2-9.1-12.4-17.2-12.4h-5.1V63.1z"/>
	<path class="st0" d="M275.1,79.2c0-8.8-2-10.2-10.1-11.4v-1.6c5.6,0,11.4,0.4,16.4,0.4c5.1,0,11.5-0.4,17.1-0.4v1.6
		c-5.4,0.4-6.5,4.9-6.5,14c0,3.5,0,7.1,1.2,10.6c-9.8,5.1-18.4,7.9-31,7.9c-18.6,0-36.5-11.5-36.5-33.5s17.9-33.5,36.5-33.5
		c12,0,22.5,2.4,30.3,6.5l-5.9,19.1h-1.5c-1.5-11.7-7.2-22.4-20.2-22.4c-15.6,0-20.3,18.2-20.3,30.3c0,12,3.1,30.3,18.8,30.3
		c7.5,0,11.6-4.6,11.6-12.1V79.2z"/>
	<path class="st0" d="M306,47.5c0-6.5-1.2-10-5.7-11v-1.6c2.6,0,5.1,0.1,7.4,0.2c2.3,0.1,4.6,0.2,6.8,0.2c11.3,0,19.4-0.1,25.9-0.2
		c6.5-0.1,11.3-0.2,15.9-0.2l4.5,17.3h-2.1c-7.2-8.8-16.8-13.8-26.6-13.8H323v24.9h5.7c8.2,0,17-1.8,19.9-10.7h1.8v24.5h-1.5
		c-1.8-7.2-10.2-10.4-20.2-10.4H323V81c0,9.8,2.2,13.6,11.8,13.6c12.3,0,23.7-9.8,30.6-18.8l1.5,0.7l-7.1,22.1
		c-13.3,0-26.7-0.4-45.4-0.4c-2.5,0-5.2,0.1-7.9,0.2c-2.8,0.1-5.6,0.2-8.5,0.2v-2c7.5-0.4,7.9-8.3,7.9-17.1V47.5z"/>
	<path class="st0" d="M400.9,47.5c0-6.5-1.2-10-5.7-11v-1.6c3.9,0,7.7,0.1,11.5,0.2c3.9,0.1,7.6,0.2,11.1,0.2h17.6
		c15.7,0,23.4,5.9,23.4,14.8c0,12.3-14.4,15.1-23.9,15.1v0.2c11.3,1.8,15.9,4.3,20.3,15.4c5.1,13.1,7.1,15.1,12.5,16.4v1.6
		c-4,0-8.6-0.4-12.2-0.4c-3.7,0-7.8,0.4-11.8,0.4L438.6,83c-2.7-7.1-6.7-16.7-15.6-16.7h-5.1v13.3c0,8.9,0.4,16.7,7.4,17.1v2
		c-5.3,0-10.8-0.4-15.9-0.4c-5.1,0-10.6,0.4-15.9,0.4v-2c7.1-0.4,7.4-8.3,7.4-17.1V47.5z M417.9,63.1h5.1c8.1,0,17.2-2.7,17.2-12.3
		c0-10.2-9.1-12.4-17.2-12.4h-5.1V63.1z"/>
	<path class="st0" d="M522.1,56.3c0-7-1.5-17.7-10.6-19.8v-1.7c5,0,9.5,0.4,13,0.4c3.6,0,7.6-0.4,11.1-0.4v1.6
		c-7.3,2.2-10,12.9-10,19.9v17c0,18.7-9.5,26.9-28.3,26.9c-13.6,0-29.1-4.7-29.1-19.2V47.5c0-8.3-1.1-10.4-4.9-11v-1.6
		c4.9,0,9.9,0.4,14.4,0.4c4.5,0,10.1-0.4,14.9-0.4v1.6c-4.3,0.6-7.3,3.7-7.3,11v28.9c0,11.2,4.5,19.3,15.8,19.3
		c16,0,21.1-8,21.1-23.1V56.3z"/>
	<path class="st0" d="M538,47.5c0-6.5-0.9-10-4.6-11v-1.6c2.2,0,4.5,0.1,6.8,0.2c2.2,0.1,4.5,0.2,6.7,0.2h20.8
		c9.1,0,27.4,0.8,27.4,13.7c0,11.8-11.5,14-20.7,15.1v0.2c10.3,0.4,25.8,3.7,25.8,17.1c0,15.9-21.7,16.9-32.5,16.9h-18.6
		c-2.8,0-5.8,0.1-8.9,0.2c-3,0.1-6.1,0.2-9.2,0.2v-2c6.8-0.4,7.2-8.3,7.2-17.1V47.5z M555,62.8h3.2c9.4,0,18.9-1.6,18.9-12.4
		c0.2-9.6-6-11.8-18.9-12H555V62.8z M555,79.6c0.1,14,1.6,15.5,11.7,15.5c9.6,0,15.6-5,15.6-15c0-12.8-13-14.2-23.1-14.2H555V79.6z"
		/>
	<path class="st0" d="M608.6,45c0-6.7-1.8-7.6-4.9-8.6v-1.6c4.4,0,9.1,0.4,13.4,0.4c4.4,0,9-0.4,13.4-0.4v1.6
		c-3.8,1-4.9,3.4-4.9,8.8v34c0,8.9,0.4,16.7,6.7,17.1v2h-31.1v-2c7.1-0.4,7.4-8.3,7.4-17.1V45z"/>
	<path class="st0" d="M78.9,117v2.1h-4.8v14c0,0.8,0.1,1.5,0.4,2c0.3,0.5,0.9,0.7,2,0.8c0.8,0,1.7,0,2.5-0.1v2.1c-0.4,0-0.9,0-1.3,0
		c-0.4,0-0.9,0-1.3,0c-1.9,0-3.3-0.3-4.1-1c-0.8-0.7-1.1-1.9-1.1-3.6v-14.2H67V117h4.2v-6.2h2.9v6.2H78.9z"/>
	<path class="st0" d="M96.2,120.2c0.5-0.9,1.2-1.6,2-2.2c0.8-0.6,1.8-1,3-1.2c1.1-0.3,2.4-0.4,3.8-0.4c1,0,2.1,0.1,3.1,0.3
		c1,0.2,2,0.5,2.8,1c0.8,0.5,1.5,1.2,2,2c0.5,0.9,0.8,2,0.8,3.4v11c0,1,0.6,1.5,1.7,1.5c0.3,0,0.6-0.1,0.9-0.2v2.1
		c-0.3,0.1-0.6,0.1-0.9,0.1c-0.3,0-0.6,0-1,0c-0.7,0-1.3-0.1-1.8-0.3c-0.4-0.2-0.8-0.4-1-0.7c-0.2-0.3-0.4-0.7-0.5-1.1
		c-0.1-0.4-0.1-0.9-0.1-1.5h-0.1c-0.5,0.7-1.1,1.3-1.6,1.8c-0.5,0.5-1.1,1-1.8,1.3c-0.7,0.3-1.4,0.6-2.3,0.8c-0.8,0.2-1.9,0.3-3,0.3
		c-1.1,0-2.1-0.1-3.1-0.3c-1-0.2-1.8-0.6-2.5-1.1c-0.7-0.5-1.3-1.1-1.7-1.9c-0.4-0.8-0.6-1.7-0.6-2.7c0-1.5,0.4-2.6,1.1-3.4
		c0.7-0.8,1.7-1.4,2.9-1.9c1.2-0.4,2.6-0.7,4.1-0.9c1.5-0.2,3.1-0.3,4.6-0.5c0.6-0.1,1.2-0.1,1.6-0.2c0.5-0.1,0.8-0.2,1.2-0.4
		c0.3-0.2,0.5-0.5,0.7-0.8c0.2-0.3,0.3-0.8,0.3-1.4c0-0.9-0.2-1.6-0.5-2.1c-0.3-0.5-0.8-1-1.3-1.3c-0.6-0.3-1.2-0.5-2-0.7
		c-0.8-0.1-1.6-0.2-2.4-0.2c-1.8,0-3.4,0.4-4.5,1.1c-1.2,0.8-1.8,2-1.8,3.7h-2.9C95.4,122.2,95.7,121.1,96.2,120.2 M110.7,126.4
		c-0.2,0.3-0.5,0.5-1.1,0.6c-0.5,0.1-1,0.2-1.4,0.3c-1.2,0.2-2.5,0.4-3.8,0.5c-1.3,0.1-2.5,0.4-3.6,0.7c-1.1,0.3-2,0.7-2.7,1.3
		c-0.7,0.5-1,1.3-1,2.4c0,0.6,0.1,1.2,0.4,1.7c0.3,0.5,0.7,0.9,1.2,1.3c0.5,0.4,1.1,0.6,1.7,0.8c0.6,0.2,1.3,0.3,2,0.3
		c1.1,0,2.2-0.1,3.2-0.4c1-0.3,1.9-0.7,2.7-1.3c0.8-0.6,1.4-1.2,1.8-2.1c0.4-0.8,0.7-1.7,0.7-2.7L110.7,126.4L110.7,126.4z"/>
	<rect x="132" y="109" class="st0" width="2.9" height="28.7"/>
	<rect x="153" y="109" class="st0" width="2.9" height="28.7"/>
	<path class="st0" d="M176.1,130.9c0.3,1,0.8,1.9,1.4,2.6c0.6,0.8,1.5,1.4,2.4,1.9c1,0.5,2.2,0.8,3.6,0.8c2.1,0,3.8-0.5,5-1.4
		c1.2-1,2-2.3,2.5-3.9h2.9c-0.6,2.4-1.7,4.2-3.4,5.5s-4,1.9-7,1.9c-1.9,0-3.5-0.3-4.9-0.9c-1.4-0.6-2.5-1.4-3.3-2.4
		c-0.9-1-1.5-2.2-1.9-3.5c-0.4-1.3-0.6-2.7-0.6-4.2c0-1.4,0.2-2.7,0.6-4c0.4-1.3,1.1-2.5,1.9-3.5c0.9-1,2-1.9,3.3-2.5
		c1.4-0.6,3-0.9,4.9-0.9c1.9,0,3.5,0.3,4.9,1c1.4,0.7,2.5,1.5,3.3,2.6c0.8,1.1,1.5,2.3,1.8,3.7c0.4,1.4,0.5,2.8,0.5,4.3h-18.3
		C175.7,129,175.8,129.9,176.1,130.9 M190.5,123.2c-0.4-0.9-0.9-1.7-1.5-2.4c-0.6-0.7-1.4-1.2-2.4-1.6c-0.9-0.4-2-0.6-3.1-0.6
		c-1.2,0-2.3,0.2-3.2,0.6c-0.9,0.4-1.7,1-2.4,1.6c-0.6,0.7-1.2,1.5-1.5,2.4c-0.4,0.9-0.6,1.8-0.8,2.8h15.4
		C191.1,125,190.9,124,190.5,123.2"/>
	<path class="st0" d="M213,117v4.9h0.1c0.7-1.7,1.9-3,3.4-3.9c1.6-0.9,3.4-1.3,5.6-1.2v2.5c-1.3-0.1-2.5,0.1-3.6,0.5
		c-1.1,0.4-2,0.9-2.8,1.5c-0.8,0.7-1.4,1.5-1.8,2.4c-0.4,0.9-0.6,1.9-0.6,3v11.1h-2.9V117H213z"/>
	<path class="st0" d="M280.9,137.8v-3.9h-0.1c-0.3,0.7-0.8,1.3-1.4,1.9c-0.6,0.6-1.3,1-2.1,1.4c-0.8,0.4-1.6,0.7-2.5,0.9
		c-0.9,0.2-1.7,0.3-2.6,0.3c-1.8,0-3.4-0.3-4.7-0.9c-1.3-0.6-2.5-1.4-3.3-2.4c-0.9-1-1.6-2.2-2-3.5c-0.4-1.3-0.6-2.7-0.6-4.2
		c0-1.5,0.2-2.9,0.6-4.2c0.4-1.3,1.1-2.5,2-3.5c0.9-1,2-1.8,3.3-2.4c1.3-0.6,2.9-0.9,4.7-0.9c0.9,0,1.8,0.1,2.6,0.3
		c0.8,0.2,1.6,0.5,2.4,0.9c0.7,0.4,1.4,0.9,2,1.4c0.6,0.6,1,1.2,1.3,2h0.1V109h2.9v28.7H280.9z M265,130.6c0.3,1.1,0.8,2,1.4,2.8
		c0.6,0.8,1.4,1.5,2.4,2c1,0.5,2.2,0.8,3.6,0.8c1.5,0,2.8-0.3,3.9-0.8c1.1-0.5,1.9-1.2,2.6-2c0.7-0.8,1.1-1.8,1.4-2.8
		c0.3-1.1,0.4-2.1,0.4-3.2c0-1.1-0.1-2.1-0.4-3.2c-0.3-1.1-0.8-2-1.4-2.8c-0.7-0.8-1.5-1.5-2.6-2c-1.1-0.5-2.4-0.8-3.9-0.8
		c-1.4,0-2.6,0.3-3.6,0.8c-1,0.5-1.8,1.2-2.4,2c-0.6,0.8-1.1,1.8-1.4,2.8c-0.3,1.1-0.4,2.1-0.4,3.2
		C264.5,128.5,264.7,129.5,265,130.6"/>
	<path class="st0" d="M303.7,130.9c0.3,1,0.8,1.9,1.4,2.6c0.6,0.8,1.5,1.4,2.4,1.9c1,0.5,2.2,0.8,3.6,0.8c2.1,0,3.8-0.5,5-1.4
		c1.2-1,2-2.3,2.5-3.9h2.9c-0.6,2.4-1.7,4.2-3.4,5.5c-1.6,1.3-4,1.9-7,1.9c-1.9,0-3.5-0.3-4.9-0.9c-1.4-0.6-2.5-1.4-3.3-2.4
		c-0.9-1-1.5-2.2-1.9-3.5c-0.4-1.3-0.6-2.7-0.6-4.2c0-1.4,0.2-2.7,0.6-4c0.4-1.3,1.1-2.5,1.9-3.5c0.9-1,2-1.9,3.3-2.5
		c1.4-0.6,3-0.9,4.9-0.9c1.9,0,3.5,0.3,4.9,1c1.4,0.7,2.5,1.5,3.3,2.6c0.8,1.1,1.5,2.3,1.8,3.7c0.4,1.4,0.5,2.8,0.5,4.3h-18.3
		C303.3,129,303.4,129.9,303.7,130.9 M318.1,123.2c-0.4-0.9-0.9-1.7-1.5-2.4c-0.6-0.7-1.4-1.2-2.4-1.6c-0.9-0.4-2-0.6-3.1-0.6
		c-1.2,0-2.3,0.2-3.2,0.6c-0.9,0.4-1.7,1-2.4,1.6c-0.6,0.7-1.2,1.5-1.5,2.4c-0.4,0.9-0.6,1.8-0.8,2.8h15.4
		C318.7,125,318.5,124,318.1,123.2"/>
	<path class="st0" d="M365.9,117v3.9h0.1c0.7-1.4,1.8-2.6,3.3-3.4c1.5-0.8,3.3-1.2,5.2-1.2c1.8,0,3.4,0.3,4.7,0.9
		c1.3,0.6,2.5,1.4,3.3,2.4c0.9,1,1.6,2.2,2,3.5c0.4,1.3,0.6,2.7,0.6,4.2c0,1.5-0.2,2.9-0.6,4.2c-0.4,1.3-1.1,2.5-2,3.5
		c-0.9,1-2,1.8-3.3,2.4c-1.3,0.6-2.9,0.9-4.7,0.9c-0.9,0-1.7-0.1-2.6-0.3c-0.9-0.2-1.7-0.5-2.4-0.8c-0.7-0.4-1.4-0.8-2-1.4
		c-0.6-0.6-1-1.2-1.3-2h-0.1v11.6h-2.9V117H365.9z M381.9,124.2c-0.3-1.1-0.8-2-1.4-2.8c-0.6-0.8-1.4-1.5-2.4-2
		c-1-0.5-2.2-0.8-3.6-0.8c-1.6,0-2.9,0.2-4,0.7c-1.1,0.5-1.9,1.1-2.6,1.9c-0.6,0.8-1.1,1.7-1.4,2.8c-0.3,1.1-0.4,2.2-0.4,3.4
		c0,1.1,0.1,2.1,0.4,3.2c0.3,1.1,0.8,2,1.4,2.8c0.7,0.8,1.5,1.5,2.6,2c1.1,0.5,2.4,0.8,3.9,0.8c1.4,0,2.6-0.3,3.6-0.8
		c1-0.5,1.8-1.2,2.4-2c0.6-0.8,1.1-1.8,1.4-2.8c0.3-1.1,0.4-2.1,0.4-3.2C382.3,126.3,382.2,125.2,381.9,124.2"/>
	<path class="st0" d="M418.8,137.8V134h-0.1c-0.8,1.4-1.9,2.5-3.3,3.2c-1.5,0.7-3.1,1.1-4.9,1.1c-1.5,0-2.8-0.2-3.9-0.5
		c-1.1-0.4-1.9-0.9-2.6-1.5c-0.7-0.7-1.1-1.5-1.5-2.5c-0.3-1-0.5-2.1-0.5-3.3V117h2.9v13.5c0.1,1.9,0.6,3.3,1.5,4.3
		c0.9,1,2.6,1.4,4.9,1.4c1.3,0,2.3-0.2,3.2-0.7c0.9-0.5,1.6-1.1,2.2-1.9c0.6-0.8,1-1.7,1.3-2.7c0.3-1,0.4-2,0.4-3.1V117h2.9v20.8
		H418.8z"/>
	<path class="st0" d="M442.4,109v11.9h0.1c0.3-0.8,0.7-1.4,1.3-2c0.6-0.6,1.2-1,2-1.4s1.5-0.7,2.4-0.9c0.9-0.2,1.7-0.3,2.6-0.3
		c1.8,0,3.4,0.3,4.7,0.9c1.3,0.6,2.5,1.4,3.3,2.4c0.9,1,1.6,2.2,2,3.5c0.4,1.3,0.6,2.7,0.6,4.2c0,1.5-0.2,2.9-0.6,4.2
		c-0.4,1.3-1.1,2.5-2,3.5c-0.9,1-2,1.8-3.3,2.4c-1.3,0.6-2.9,0.9-4.7,0.9c-1.9,0-3.7-0.4-5.2-1.2c-1.5-0.8-2.6-1.9-3.3-3.3h-0.1v3.9
		h-2.7V109H442.4z M458.1,124.2c-0.3-1.1-0.8-2-1.4-2.8c-0.6-0.8-1.4-1.5-2.4-2c-1-0.5-2.2-0.8-3.6-0.8c-1.5,0-2.8,0.3-3.9,0.8
		c-1.1,0.5-1.9,1.2-2.6,2c-0.7,0.8-1.1,1.8-1.4,2.8c-0.3,1.1-0.4,2.1-0.4,3.2c0,1.1,0.1,2.1,0.4,3.2c0.3,1.1,0.8,2,1.4,2.8
		c0.7,0.8,1.5,1.5,2.6,2c1.1,0.5,2.4,0.8,3.9,0.8c1.4,0,2.6-0.3,3.6-0.8c1-0.5,1.8-1.2,2.4-2c0.6-0.8,1.1-1.8,1.4-2.8
		c0.3-1.1,0.4-2.1,0.4-3.2C458.5,126.3,458.4,125.2,458.1,124.2"/>
	<rect x="478.4" y="109" class="st0" width="2.9" height="28.7"/>
	<path class="st0" d="M502.3,113.1h-2.9V109h2.9V113.1z M502.3,137.8h-2.9V117h2.9V137.8z"/>
	<path class="st0" d="M534.9,119.9c-1.1-0.9-2.6-1.3-4.5-1.3c-1.4,0-2.6,0.3-3.6,0.8c-1,0.5-1.9,1.2-2.6,2c-0.7,0.8-1.2,1.8-1.6,2.8
		c-0.4,1.1-0.5,2.1-0.5,3.2c0,1.1,0.2,2.2,0.5,3.2c0.4,1.1,0.9,2,1.6,2.8c0.7,0.8,1.6,1.5,2.6,2c1,0.5,2.3,0.8,3.6,0.8
		c0.9,0,1.7-0.1,2.5-0.4c0.8-0.3,1.5-0.7,2.1-1.2c0.6-0.5,1.1-1.1,1.5-1.9c0.4-0.7,0.6-1.5,0.7-2.4h2.9c-0.4,2.5-1.5,4.5-3.2,5.9
		c-1.7,1.4-3.9,2.1-6.6,2.1c-1.8,0-3.4-0.3-4.8-0.9c-1.4-0.6-2.6-1.4-3.5-2.4c-1-1-1.7-2.2-2.2-3.5c-0.5-1.3-0.7-2.7-0.7-4.2
		c0-1.5,0.2-2.9,0.7-4.2c0.5-1.3,1.2-2.5,2.2-3.5c1-1,2.1-1.8,3.5-2.4c1.4-0.6,3-0.9,4.8-0.9c2.6,0,4.7,0.6,6.5,1.8
		c1.8,1.2,2.8,3,3.2,5.4h-2.9C536.8,122,536,120.7,534.9,119.9"/>
	<path class="st0" d="M559.7,113.1h-2.9V109h2.9V113.1z M559.7,137.8h-2.9V117h2.9V137.8z"/>
	<path class="st0" d="M596,137.8v-3.9h-0.1c-0.3,0.7-0.8,1.3-1.4,1.9c-0.6,0.6-1.3,1-2.1,1.4c-0.8,0.4-1.6,0.7-2.5,0.9
		c-0.9,0.2-1.7,0.3-2.6,0.3c-1.8,0-3.4-0.3-4.7-0.9c-1.3-0.6-2.5-1.4-3.3-2.4c-0.9-1-1.6-2.2-2-3.5c-0.4-1.3-0.6-2.7-0.6-4.2
		c0-1.5,0.2-2.9,0.6-4.2c0.4-1.3,1.1-2.5,2-3.5c0.9-1,2-1.8,3.3-2.4c1.3-0.6,2.9-0.9,4.7-0.9c0.9,0,1.8,0.1,2.6,0.3s1.6,0.5,2.4,0.9
		c0.7,0.4,1.4,0.9,2,1.4c0.6,0.6,1,1.2,1.3,2h0.1V109h2.9v28.7H596z M580.1,130.6c0.3,1.1,0.8,2,1.4,2.8c0.6,0.8,1.4,1.5,2.4,2
		c1,0.5,2.2,0.8,3.6,0.8c1.5,0,2.8-0.3,3.9-0.8c1.1-0.5,1.9-1.2,2.6-2c0.7-0.8,1.1-1.8,1.4-2.8c0.3-1.1,0.4-2.1,0.4-3.2
		c0-1.1-0.1-2.1-0.4-3.2c-0.3-1.1-0.8-2-1.4-2.8c-0.7-0.8-1.5-1.5-2.6-2c-1.1-0.5-2.4-0.8-3.9-0.8c-1.4,0-2.6,0.3-3.6,0.8
		c-1,0.5-1.8,1.2-2.4,2c-0.6,0.8-1.1,1.8-1.4,2.8c-0.3,1.1-0.4,2.1-0.4,3.2C579.7,128.5,579.8,129.5,580.1,130.6"/>
	<path class="st0" d="M617.3,120.2c0.5-0.9,1.2-1.6,2-2.2c0.8-0.6,1.8-1,3-1.2c1.1-0.3,2.4-0.4,3.8-0.4c1,0,2.1,0.1,3.1,0.3
		c1,0.2,2,0.5,2.8,1c0.8,0.5,1.5,1.2,2,2c0.5,0.9,0.8,2,0.8,3.4v11c0,1,0.6,1.5,1.7,1.5c0.3,0,0.6-0.1,0.9-0.2v2.1
		c-0.3,0.1-0.6,0.1-0.9,0.1c-0.3,0-0.6,0-1,0c-0.7,0-1.3-0.1-1.8-0.3c-0.4-0.2-0.8-0.4-1-0.7c-0.2-0.3-0.4-0.7-0.5-1.1
		c-0.1-0.4-0.1-0.9-0.1-1.5h-0.1c-0.5,0.7-1.1,1.3-1.6,1.8c-0.5,0.5-1.1,1-1.8,1.3c-0.7,0.3-1.4,0.6-2.3,0.8c-0.8,0.2-1.9,0.3-3,0.3
		c-1.1,0-2.1-0.1-3.1-0.3c-1-0.2-1.8-0.6-2.5-1.1c-0.7-0.5-1.3-1.1-1.7-1.9c-0.4-0.8-0.6-1.7-0.6-2.7c0-1.5,0.4-2.6,1.1-3.4
		c0.7-0.8,1.7-1.4,2.9-1.9c1.2-0.4,2.6-0.7,4.1-0.9c1.5-0.2,3.1-0.3,4.6-0.5c0.6-0.1,1.2-0.1,1.6-0.2c0.5-0.1,0.8-0.2,1.2-0.4
		c0.3-0.2,0.5-0.5,0.7-0.8c0.2-0.3,0.3-0.8,0.3-1.4c0-0.9-0.2-1.6-0.5-2.1c-0.3-0.5-0.8-1-1.3-1.3c-0.6-0.3-1.2-0.5-2-0.7
		c-0.8-0.1-1.6-0.2-2.4-0.2c-1.8,0-3.4,0.4-4.5,1.1c-1.2,0.8-1.8,2-1.8,3.7h-2.9C616.5,122.2,616.8,121.1,617.3,120.2 M631.8,126.4
		c-0.2,0.3-0.5,0.5-1.1,0.6c-0.5,0.1-1,0.2-1.4,0.3c-1.2,0.2-2.5,0.4-3.8,0.5c-1.3,0.1-2.5,0.4-3.6,0.7c-1.1,0.3-2,0.7-2.7,1.3
		c-0.7,0.5-1,1.3-1,2.4c0,0.6,0.1,1.2,0.4,1.7c0.3,0.5,0.7,0.9,1.2,1.3c0.5,0.4,1.1,0.6,1.7,0.8c0.6,0.2,1.3,0.3,2,0.3
		c1.1,0,2.2-0.1,3.2-0.4c1-0.3,1.9-0.7,2.7-1.3c0.8-0.6,1.4-1.2,1.8-2.1c0.4-0.8,0.7-1.7,0.7-2.7L631.8,126.4L631.8,126.4z"/>
	<path class="st0" d="M671.4,137.8v-3.9h-0.1c-0.3,0.7-0.8,1.3-1.4,1.9c-0.6,0.6-1.3,1-2.1,1.4c-0.8,0.4-1.6,0.7-2.5,0.9
		c-0.9,0.2-1.7,0.3-2.6,0.3c-1.8,0-3.4-0.3-4.7-0.9c-1.3-0.6-2.5-1.4-3.3-2.4c-0.9-1-1.6-2.2-2-3.5c-0.4-1.3-0.6-2.7-0.6-4.2
		c0-1.5,0.2-2.9,0.6-4.2c0.4-1.3,1.1-2.5,2-3.5c0.9-1,2-1.8,3.3-2.4c1.3-0.6,2.9-0.9,4.7-0.9c0.9,0,1.8,0.1,2.6,0.3
		c0.8,0.2,1.6,0.5,2.4,0.9c0.7,0.4,1.4,0.9,2,1.4c0.6,0.6,1,1.2,1.3,2h0.1V109h2.9v28.7H671.4z M655.4,130.6c0.3,1.1,0.8,2,1.4,2.8
		c0.6,0.8,1.4,1.5,2.4,2c1,0.5,2.2,0.8,3.6,0.8c1.5,0,2.8-0.3,3.9-0.8c1.1-0.5,1.9-1.2,2.6-2c0.7-0.8,1.1-1.8,1.4-2.8
		c0.3-1.1,0.4-2.1,0.4-3.2c0-1.1-0.1-2.1-0.4-3.2c-0.3-1.1-0.8-2-1.4-2.8c-0.7-0.8-1.5-1.5-2.6-2c-1.1-0.5-2.4-0.8-3.9-0.8
		c-1.4,0-2.6,0.3-3.6,0.8c-1,0.5-1.8,1.2-2.4,2c-0.6,0.8-1.1,1.8-1.4,2.8c-0.3,1.1-0.4,2.1-0.4,3.2
		C655,128.5,655.1,129.5,655.4,130.6"/>
</g>
</svg>
