<?xml version="1.0" encoding="utf-8"?>
<!-- Generator: Adobe Illustrator 28.0.0, SVG Export Plug-In . SVG Version: 6.00 Build 0)  -->
<svg version="1.1" id="Layer_1" xmlns="http://www.w3.org/2000/svg" xmlns:xlink="http://www.w3.org/1999/xlink" x="0px" y="0px"
	 viewBox="0 0 198.43 198.43" style="enable-background:new 0 0 198.43 198.43;" xml:space="preserve">
<style type="text/css">
	.st0{fill-rule:evenodd;clip-rule:evenodd;fill:#E3A23C;}
	.st1{fill-rule:evenodd;clip-rule:evenodd;fill:#315C7D;}
	.st2{fill-rule:evenodd;clip-rule:evenodd;fill:#FFFDFC;}
</style>
<g>
	<path class="st0" d="M27.99,112.51h-2.01v-2.48h2.01v-3.7l3.13-1.21v4.91h4.85v2.48h-4.85v8.78c0,1.49,0.25,2.54,0.75,3.17
		c0.5,0.63,1.3,0.94,2.4,0.94c0.8,0,1.62-0.2,2.48-0.59l0.46,2.71c-1.29,0.32-2.71,0.49-4.26,0.49c-1.39,0-2.57-0.52-3.53-1.56
		c-0.96-1.04-1.44-2.35-1.44-3.93V112.51z"/>
	<path class="st0" d="M40.7,118.82c0,4.42,1.56,6.63,4.68,6.63c1.45,0,2.6-0.59,3.42-1.77c0.82-1.19,1.24-2.8,1.24-4.86
		c0-4.37-1.55-6.55-4.66-6.55c-1.42,0-2.56,0.58-3.41,1.74C41.13,115.18,40.7,116.78,40.7,118.82 M37.39,118.82
		c0-2.72,0.73-4.91,2.2-6.58c1.47-1.67,3.4-2.51,5.79-2.51c2.53,0,4.49,0.8,5.88,2.41c1.39,1.6,2.09,3.83,2.09,6.68
		c0,2.84-0.71,5.08-2.14,6.72c-1.43,1.64-3.37,2.46-5.83,2.46c-2.52,0-4.48-0.83-5.88-2.48C38.09,123.86,37.39,121.63,37.39,118.82"
		/>
	<path class="st0" d="M66.11,114.11c-0.79-1.18-1.87-1.77-3.24-1.77c-1.68,0-3.04,0.62-4.07,1.87c-1.04,1.25-1.55,2.84-1.55,4.77
		c0,4.24,1.93,6.36,5.79,6.36c0.49,0,1.09-0.16,1.78-0.47c0.69-0.31,1.12-0.64,1.3-1V114.11z M66.11,127.64v-1.3
		c-1.09,1.06-2.67,1.59-4.74,1.59c-2.21,0-4-0.79-5.37-2.36c-1.37-1.57-2.06-3.67-2.06-6.3c0-2.63,0.79-4.88,2.37-6.75
		c1.58-1.86,3.46-2.8,5.65-2.8c1.82,0,3.21,0.43,4.15,1.28v-8.2h3.13v24.83H66.11z"/>
	<path class="st0" d="M74.12,118.82c0,4.42,1.56,6.63,4.68,6.63c1.46,0,2.6-0.59,3.42-1.77c0.83-1.19,1.24-2.8,1.24-4.86
		c0-4.37-1.56-6.55-4.66-6.55c-1.42,0-2.56,0.58-3.41,1.74C74.54,115.18,74.12,116.78,74.12,118.82 M70.81,118.82
		c0-2.72,0.73-4.91,2.2-6.58c1.47-1.67,3.4-2.51,5.79-2.51c2.53,0,4.49,0.8,5.88,2.41c1.4,1.6,2.09,3.83,2.09,6.68
		c0,2.84-0.71,5.08-2.14,6.72c-1.43,1.64-3.37,2.46-5.83,2.46c-2.51,0-4.47-0.83-5.88-2.48C71.51,123.86,70.81,121.63,70.81,118.82"
		/>
	<path class="st1" d="M99.17,127.64v-11.07c0-1.32-0.32-2.35-0.96-3.11c-0.64-0.76-1.55-1.13-2.71-1.13c-0.75,0-1.51,0.22-2.27,0.67
		c-0.75,0.45-1.34,0.96-1.74,1.55v13.09h-3.13v-24.83h3.13V112c0.42-0.65,1.08-1.18,2.01-1.62c0.93-0.43,1.88-0.65,2.86-0.65
		c1.86,0,3.31,0.61,4.37,1.84c1.05,1.23,1.58,2.9,1.58,5.02v11.05H99.17z"/>
	<path class="st1" d="M107.17,118.82c0,4.42,1.56,6.63,4.68,6.63c1.46,0,2.6-0.59,3.42-1.77c0.82-1.19,1.24-2.8,1.24-4.86
		c0-4.37-1.55-6.55-4.66-6.55c-1.42,0-2.56,0.58-3.41,1.74C107.59,115.18,107.17,116.78,107.17,118.82 M103.86,118.82
		c0-2.72,0.73-4.91,2.2-6.58c1.47-1.67,3.39-2.51,5.79-2.51c2.53,0,4.48,0.8,5.88,2.41c1.4,1.6,2.09,3.83,2.09,6.68
		c0,2.84-0.71,5.08-2.14,6.72c-1.43,1.64-3.37,2.46-5.83,2.46c-2.52,0-4.47-0.83-5.88-2.48
		C104.56,123.86,103.86,121.63,103.86,118.82"/>
	<path class="st1" d="M127.33,112.27c-1.09,0-1.97,0.38-2.65,1.14c-0.68,0.76-1.03,1.69-1.03,2.78c0,1.22,0.33,2.23,0.99,3.03
		c0.67,0.8,1.56,1.2,2.69,1.2c1.11,0,1.97-0.39,2.6-1.17c0.63-0.78,0.94-1.8,0.94-3.07c0-1.09-0.34-2.02-1.01-2.78
		C129.18,112.66,128.34,112.27,127.33,112.27 M120.69,132.46l1.7-2.51c1.83,1.22,3.51,1.83,5.06,1.83c1.42,0,2.54-0.24,3.36-0.73
		c0.82-0.49,1.23-1.09,1.23-1.81c0-1.42-1.03-2.13-3.1-2.13c-0.35,0-0.99,0.09-1.91,0.27c-0.92,0.18-1.64,0.27-2.16,0.27
		c-2.51,0-3.76-0.94-3.76-2.83c0-0.58,0.29-1.11,0.88-1.58c0.59-0.47,1.32-0.81,2.18-1.02c-2.48-1.16-3.71-3.17-3.71-6.04
		c0-1.84,0.63-3.37,1.92-4.6c1.28-1.22,2.86-1.84,4.74-1.84c1.72,0,3.08,0.36,4.05,1.07l1.56-1.89l2.03,1.93l-1.85,1.42
		c0.8,1.04,1.2,2.39,1.2,4.07c0,1.77-0.55,3.26-1.66,4.46c-1.11,1.2-2.56,1.89-4.36,2.07l-2.58,0.28c-0.31,0.03-0.71,0.15-1.22,0.36
		c-0.51,0.21-0.77,0.48-0.77,0.81c0,0.46,0.54,0.68,1.61,0.68c0.47,0,1.21-0.09,2.2-0.27c1-0.18,1.74-0.27,2.22-0.27
		c1.73,0,3.08,0.41,4.05,1.24c0.97,0.83,1.45,1.97,1.45,3.44c0,1.62-0.73,2.93-2.18,3.93c-1.46,1-3.3,1.5-5.53,1.5
		c-1.14,0-2.35-0.21-3.61-0.61C122.48,133.54,121.46,133.04,120.69,132.46"/>
	<path class="st1" d="M146.18,119.01c-0.98-0.24-1.67-0.35-2.06-0.35c-1.57,0-2.85,0.41-3.84,1.22c-0.99,0.81-1.49,1.77-1.49,2.89
		c0,1.83,1.08,2.75,3.22,2.75c1.57,0,2.96-0.75,4.17-2.25V119.01z M146.47,125.63c-1.24,1.58-3.15,2.36-5.72,2.36
		c-1.38,0-2.57-0.5-3.58-1.51c-1.01-1.01-1.51-2.25-1.51-3.75c0-1.79,0.78-3.3,2.34-4.54c1.56-1.23,3.54-1.85,5.96-1.85
		c0.65,0,1.4,0.14,2.23,0.41c0-2.84-1.27-4.25-3.79-4.25c-1.94,0-3.43,0.53-4.48,1.6l-1.31-2.6c0.59-0.49,1.41-0.9,2.45-1.25
		c1.04-0.35,2.04-0.52,2.99-0.52c2.55,0,4.39,0.58,5.54,1.74c1.15,1.16,1.73,3.01,1.73,5.54v6.31c0,1.54,0.45,2.57,1.36,3.09v1.54
		c-1.27,0-2.22-0.18-2.84-0.54C147.2,127.05,146.75,126.45,146.47,125.63"/>
	<path class="st1" d="M162.16,113.04c-0.68-0.47-1.36-0.71-2.06-0.71c-1.11,0-2.08,0.51-2.91,1.53c-0.83,1.02-1.24,2.25-1.24,3.7
		v10.08h-3.13v-17.62h3.13v2.84c1.14-2.09,2.84-3.13,5.09-3.13c0.56,0,1.36,0.1,2.42,0.29L162.16,113.04z"/>
	<path class="st0" d="M175.88,99.05l-0.04-0.04l-0.19-0.21l-0.38-0.41c-0.61-0.65-1.22-1.3-1.86-1.92c-0.62-0.6-1.23-1.13-1.85-1.56
		c-0.57-0.45-1.25-1.61-1.86-2.78c-0.79-1.5-1.5-2.99-1.8-2.97c-1.96,0.17-0.53,0.05-3.26-2.75c-0.32-0.35-1.85-0.97-2.48-1.68
		c-2.05-2.47-3.08-2.76-5.84-5.17c-4.25-3.42-4.46-4.92-8.6-7.58c-0.49-0.33-6.37-5.12-6.37-5.12c-1.04-1.05-2.02-1.95-2.95-2.79
		l-0.68-0.62c-0.03-0.05-0.17-0.2-0.36-0.22c-0.3-0.03-0.84-0.04-1.76-0.05l-0.32,0.31l-1.24,1.18c-1.63,1.52-3.21,2.85-5.27,4.01
		c-3.33,4.24-9.31,8.19-13.4,12.12c-4.09,3.93-6.34,4.97-10.45,7.82c-1.12,0.88-1.86,1.64-2.61,2.04c-0.75,0.41-1.85,2.18-2.97,3.05
		l-0.01-0.54c-0.38,0.29-1.12,0.88-1.49,1.17c-0.37,0.29-0.38,0.11-0.38-0.06c0-0.18-0.01-0.36-0.1-0.44
		c-0.1-0.08-0.28-0.07-0.66,0.13l-2.43,1.78l-0.3,0.23l-0.08,0.06l-0.04,0.03l-0.02,0.01l0,0.01l0,0l0,0l3.3,8.56h0.01l0.19,0.02
		l0.76,0.06l1.54,0.1c1.01-0.11,2.03-0.22,3.04-0.32l1.51-0.18l0.75-0.09l0.15-0.02c0.42,0.36,0.83,0.59,1.23,0.36
		c0.15-0.12,0.25-1.03,0.38-2.11l0.23-1.66l0.15-0.77l0.04-0.18l0.02-0.09l0.01-0.02l0-0.01l0-0.01v0l-1.08-1.09l0.32-0.33l0.2-0.21
		l0.38-0.4c0.74-0.76,1.85-2.17,2.59-3.12c0.37-0.47,1.49-1.17,1.86-1.46c0.37-0.83-0.02-1.07-0.03-1.61
		c2.99-2.16,9.33-6.94,8.18-7.86c2.23-1.93,2.22-2.82,4.45-4.93c2.94-2.81,6.71-6.34,10.45-9.79l2.01-1.88l1.01,0.97l2.12,2.01
		c7.34,6.93,13.51,13.18,19.72,19.3c3.05,3,6.11,5.98,9.32,8.99l-0.9,0.04l-0.58,0.03c-4.16,4.16-1.15,1.16-2.08,2.1l0,0.03l0,0.06
		l0.01,0.23l0.05,0.92c0.55,9.93,0.76,20.11,0.76,29.96l-0.01,3.55l-1.32,0.05l-7.12,0.25c-4.67,0.14-9.19,0.24-13.47,0.31
		c-17.14,0.27-30.55,0.03-35.44,0.12l-5.01,1.27l25.59,0.05c3.04-0.01,11.2,0.21,16.75,0.51l4.69,0.54
		c2.12,0.52,4.69,0.45,6.83,0.52c1.73,0.06,3.69,0.1,5.77,0.14l3.2,0.04l0.82,0.01h0.1h0.01c1.1-1.15-2.45,2.59,2.47-2.59l0-0.03
		l0-0.05l0.01-0.21l0.03-0.41l0.09-1.66c0.49-8.86,0.81-17.98,0.71-20.58c-0.12-3.56-0.78-6.86-1.03-10.65
		c0.37,0,0.73-0.02,1.07-0.08c0.12-0.14,0.71-0.24,1.3-0.34l2.29,0.03c0.08,0,0.16,0.01,0.24,0.01L175.88,99.05z"/>
	<path class="st2" d="M150.53,138.37l-4.69-0.54l7.3-0.25l8.09-0.28l4.01-0.15c0.89-0.31,0.84,0.6,2.49-0.73l0.03-2
		c0.08-5.33,0.17-10.65,0.33-16.02c0.13-3.68,0.16-11.49,0.39-15.52l0.04,0l-0.2,23.02l-0.05,5.92l-0.02,2.96l-0.01,1.48
		c-2.12,2.63-1.44,0.76-2.29,1.37l-8.92,0.38l-3.4,0.2l-1.95,0.05L150.53,138.37z"/>
</g>
</svg>
