<?xml version="1.0" encoding="utf-8"?>
<!-- Generator: Adobe Illustrator 28.0.0, SVG Export Plug-In . SVG Version: 6.00 Build 0)  -->
<svg version="1.1" id="Layer_1" xmlns="http://www.w3.org/2000/svg" xmlns:xlink="http://www.w3.org/1999/xlink" x="0px" y="0px"
	 viewBox="0 0 198.43 198.43" style="enable-background:new 0 0 198.43 198.43;" xml:space="preserve">
<style type="text/css">
	.st0{fill-rule:evenodd;clip-rule:evenodd;fill:#E60000;}
</style>
<g>
	<path class="st0" d="M103.38,112.34L103.38,112.34c5.44-4.1,9.37-15.99,9.37-30.03c0-0.58-0.01-1.15-0.02-1.72
		c15.97-2.36,27.43-8.78,27.43-16.33c0-0.34-0.03-0.68-0.07-1.01c4.07,4.84,6.4,10.46,6.4,16.47
		C146.49,96.83,127.54,110.88,103.38,112.34 M51.93,79.72L51.93,79.72c0-6,2.33-11.63,6.41-16.47c-0.05,0.34-0.07,0.68-0.07,1.01
		c0,7.55,11.46,13.97,27.43,16.33c-0.01,0.57-0.02,1.14-0.02,1.72c0,14.04,3.94,25.93,9.37,30.03
		C70.88,110.88,51.93,96.83,51.93,79.72 M111.99,71.85L111.99,71.85c-1.85-12.29-6.87-21.11-12.78-21.11
		c-5.91,0-10.93,8.81-12.78,21.11c-11.24-1.74-19.11-5.69-19.11-10.3c0-6.21,14.28-11.24,31.89-11.24
		c17.61,0,31.88,5.03,31.88,11.24C131.1,66.16,123.23,70.12,111.99,71.85 M91.28,72.45L91.28,72.45c1.24-7.83,4.32-13.38,7.93-13.38
		c3.6,0,6.69,5.55,7.93,13.38c-2.54,0.23-5.19,0.35-7.93,0.35C96.47,72.8,93.82,72.67,91.28,72.45 M99.21,101.22L99.21,101.22
		c-4.56,0-8.29-8.88-8.51-20.04c2.74,0.24,5.59,0.38,8.51,0.38c2.92,0,5.76-0.13,8.51-0.38C107.5,92.34,103.77,101.22,99.21,101.22
		 M123.83,49.26c-6.85-2.18-15.38-3.47-24.62-3.47c-9.24,0-17.77,1.29-24.62,3.47c-18.23,5.8-30.75,17.84-30.75,31.76
		c0,19.58,24.78,35.45,55.37,35.45c30.57,0,55.36-15.88,55.36-35.45C154.57,67.1,142.05,55.06,123.83,49.26"/>
	<polygon class="st0" points="45.75,127.14 24.26,127.14 24.26,131.85 32.2,131.85 32.19,151.9 37.82,151.9 37.82,131.85 
		45.75,131.85 	"/>
	<path class="st0" d="M66.76,143.49L66.76,143.49c-0.86,2.17-2.82,3.79-5.19,4.21c-0.42,0.07-0.86,0.11-1.31,0.11
		c-0.44,0-0.88-0.04-1.3-0.11c-2.37-0.42-4.33-2.04-5.19-4.21c-0.49-1.23-0.76-2.57-0.76-3.97s0.27-2.74,0.76-3.97
		c0.86-2.17,2.82-3.79,5.19-4.2c0.42-0.08,0.86-0.12,1.3-0.12c0.45,0,0.88,0.04,1.31,0.12c2.37,0.41,4.33,2.04,5.19,4.2
		c0.49,1.23,0.76,2.57,0.76,3.97S67.25,142.26,66.76,143.49 M60.26,126.4c-7.32,0-13.25,5.87-13.25,13.12
		c0,7.24,5.93,13.12,13.25,13.12c7.32,0,13.25-5.88,13.25-13.12C73.51,132.27,67.58,126.4,60.26,126.4"/>
	<polygon class="st0" points="73.6,127.14 80.23,127.14 86.42,137.79 92.61,127.14 99.23,127.14 89.23,142.74 89.23,151.9 
		83.61,151.9 83.61,142.74 	"/>
	<path class="st0" d="M112.59,147.81L112.59,147.81c0.44,0,0.88-0.04,1.3-0.11c2.38-0.41,4.33-2.04,5.19-4.21
		c0.49-1.23,0.76-2.57,0.76-3.97c0-1.4-0.27-2.74-0.76-3.97c-0.86-2.17-2.82-3.79-5.19-4.21c-0.42-0.07-0.86-0.12-1.3-0.12
		c-0.44,0-0.88,0.04-1.3,0.12c-2.37,0.41-4.33,2.04-5.19,4.21c-0.49,1.23-0.76,2.57-0.76,3.97c0,1.41,0.27,2.74,0.76,3.97
		c0.86,2.17,2.82,3.79,5.19,4.21C111.71,147.77,112.14,147.81,112.59,147.81 M99.34,139.52c0-7.24,5.93-13.12,13.25-13.12
		c7.32,0,13.25,5.87,13.25,13.12s-5.93,13.12-13.25,13.12C105.27,152.64,99.34,146.76,99.34,139.52"/>
	<path class="st0" d="M164.22,142.1L164.22,142.1l-3.68-9.77l-3.69,9.77H164.22z M165.85,146.43l-10.64,0l-2.05,5.44h-6.25
		l10.13-24.75h7l10.13,24.75h-6.25L165.85,146.43L165.85,146.43z"/>
	<polygon class="st0" points="148.55,127.14 127.07,127.14 127.07,131.85 135,131.85 135,151.9 140.62,151.9 140.62,131.85 
		148.55,131.85 	"/>
</g>
</svg>
