<?xml version="1.0" encoding="utf-8"?>
<!-- Generator: Adobe Illustrator 28.0.0, SVG Export Plug-In . SVG Version: 6.00 Build 0)  -->
<svg version="1.1" id="Layer_1" xmlns="http://www.w3.org/2000/svg" xmlns:xlink="http://www.w3.org/1999/xlink" x="0px" y="0px"
	 viewBox="0 0 198.43 198.43" style="enable-background:new 0 0 198.43 198.43;" xml:space="preserve">
<style type="text/css">
	.st0{fill-rule:evenodd;clip-rule:evenodd;fill:#385077;}
</style>
<g>
	<path class="st0" d="M182.13,99.54h2.12v-2.11h-2.12V99.54z M176.67,92.15h0.03l1.22,3.6h-2.51L176.67,92.15z M171.95,99.54h2.15
		l0.76-2.17h3.61l0.74,2.17h2.2l-3.61-9.81h-2.18L171.95,99.54z M165.33,99.54h2.12v-2.11h-2.12V99.54z M156.06,96.29
		c-0.02,2.42,1.98,3.48,4.12,3.48c2.62,0,4.01-1.34,4.01-3.14c0-2.23-2.16-2.69-2.87-2.86c-2.42-0.63-2.88-0.73-2.88-1.49
		c0-0.83,0.79-1.11,1.47-1.11c1.01,0,1.84,0.3,1.91,1.49h2.06c0-2.27-1.85-3.16-3.87-3.16c-1.75,0-3.62,0.95-3.62,2.96
		c0,1.85,1.46,2.41,2.88,2.79c1.43,0.38,2.87,0.56,2.87,1.62c0,1-1.14,1.22-1.88,1.22c-1.14,0-2.14-0.5-2.14-1.81H156.06z
		 M151.38,93.03c-0.26-2.27-2.04-3.53-4.16-3.53c-2.99,0-4.75,2.26-4.75,5.17c0,2.83,1.76,5.1,4.75,5.1c2.36,0,4.03-1.56,4.25-4
		h-2.06c-0.17,1.29-0.9,2.19-2.19,2.19c-1.91,0-2.63-1.64-2.63-3.29c0-1.71,0.72-3.36,2.63-3.36c1.05,0,1.97,0.74,2.11,1.72H151.38z
		 M138.89,99.54h2.12v-9.81h-2.12V99.54z M131.24,91.41h2.33c0.94,0,1.47,0.41,1.47,1.36c0,0.99-0.52,1.41-1.47,1.41h-2.33V91.41z
		 M129.11,99.54h2.12v-3.83h2.12c1.07,0,1.47,0.45,1.61,1.49c0.11,0.79,0.08,1.73,0.33,2.34h2.12c-0.37-0.54-0.36-1.69-0.4-2.31
		c-0.07-0.99-0.36-2.03-1.41-2.3V94.9c1.07-0.44,1.53-1.31,1.53-2.46c0-1.49-1.1-2.72-2.83-2.72h-5.21V99.54z M122.98,99.54h2.12
		v-7.99h2.9v-1.82h-7.92v1.82h2.89V99.54z M119.32,93.03c-0.26-2.27-2.04-3.53-4.16-3.53c-2.99,0-4.75,2.26-4.75,5.17
		c0,2.83,1.76,5.1,4.75,5.1c2.37,0,4.03-1.56,4.25-4h-2.06c-0.17,1.29-0.9,2.19-2.19,2.19c-1.91,0-2.63-1.64-2.63-3.29
		c0-1.71,0.72-3.36,2.63-3.36c1.05,0,1.98,0.74,2.11,1.72H119.32z M102.05,99.54h7.34v-1.81h-5.21v-2.4h4.68v-1.67h-4.68v-2.11h5.11
		v-1.82h-7.23V99.54z M94.03,99.54h6.83v-1.81h-4.7v-8h-2.13V99.54z M85.27,99.54h7.34v-1.81h-5.21v-2.4h4.68v-1.67h-4.68v-2.11
		h5.11v-1.82h-7.23V99.54z M75.87,96.29c-0.02,2.42,1.98,3.48,4.11,3.48c2.63,0,4.02-1.34,4.02-3.14c0-2.23-2.16-2.69-2.87-2.86
		c-2.42-0.63-2.88-0.73-2.88-1.49c0-0.83,0.79-1.11,1.47-1.11c1.01,0,1.84,0.3,1.91,1.49h2.06c0-2.27-1.85-3.16-3.87-3.16
		c-1.75,0-3.62,0.95-3.62,2.96c0,1.85,1.46,2.41,2.88,2.79c1.43,0.38,2.87,0.56,2.87,1.62c0,1-1.14,1.22-1.88,1.22
		c-1.14,0-2.14-0.5-2.14-1.81H75.87z M66.46,99.54h1.99v-6.56h0.03l4.01,6.56h2.12v-9.81h-1.99v6.59H72.6l-4.03-6.59h-2.11V99.54z
		 M60.88,92.15h0.03l1.22,3.6h-2.51L60.88,92.15z M56.16,99.54h2.15l0.76-2.17h3.61l0.73,2.17h2.21L62,89.73h-2.17L56.16,99.54z
		 M49.54,91.41h2.33c0.94,0,1.47,0.41,1.47,1.36c0,0.99-0.52,1.41-1.47,1.41h-2.33V91.41z M47.41,99.54h2.12v-3.83h2.12
		c1.07,0,1.47,0.45,1.61,1.49c0.11,0.79,0.08,1.73,0.33,2.34h2.12c-0.37-0.54-0.36-1.69-0.4-2.31c-0.07-0.99-0.36-2.03-1.41-2.3
		V94.9c1.07-0.44,1.52-1.31,1.52-2.46c0-1.49-1.09-2.72-2.82-2.72h-5.21V99.54z M41.29,99.54h2.12v-7.99h2.9v-1.82h-7.92v1.82h2.89
		V99.54z"/>
	<path class="st0" d="M181.59,106.22c0.03-0.38,0.28-0.53,0.64-0.53c0.34,0,0.64,0.06,0.64,0.47c0,0.4-0.56,0.38-1.16,0.47
		c-0.6,0.08-1.2,0.28-1.2,1.07c0,0.73,0.53,1.07,1.2,1.07c0.43,0,0.89-0.12,1.2-0.44c0,0.12,0.03,0.24,0.07,0.34h0.98
		c-0.09-0.15-0.12-0.47-0.12-0.8v-1.84c0-0.86-0.86-1.01-1.56-1.01c-0.8,0-1.61,0.28-1.66,1.19H181.59z M182.86,107.3
		c0,0.22-0.03,0.82-0.8,0.82c-0.31,0-0.59-0.09-0.59-0.45c0-0.35,0.28-0.46,0.57-0.52c0.3-0.05,0.65-0.06,0.82-0.21V107.3z
		 M180.08,106.37c-0.06-0.91-0.83-1.35-1.66-1.35c-1.16,0-1.81,0.82-1.81,1.93c0,1.06,0.72,1.82,1.79,1.82
		c0.92,0,1.58-0.52,1.7-1.46h-0.93c-0.07,0.43-0.32,0.72-0.78,0.72c-0.61,0-0.81-0.61-0.81-1.12c0-0.52,0.2-1.15,0.83-1.15
		c0.4,0,0.66,0.22,0.72,0.61H180.08z M175.95,103.78h-0.97v0.8h0.97V103.78z M174.98,108.68h0.97v-3.55h-0.97V108.68z
		 M172.27,108.68h0.97v-1.6c0-0.62,0.26-1.14,0.96-1.14c0.12,0,0.27,0.02,0.35,0.04v-0.9c-0.07-0.02-0.15-0.04-0.22-0.04
		c-0.47,0-0.95,0.31-1.13,0.76h-0.01v-0.66h-0.93V108.68z M171.09,104.06h-0.97v1.06h-0.59v0.65h0.59v2.1
		c0,0.71,0.52,0.85,1.12,0.85c0.2,0,0.4-0.01,0.57-0.03v-0.77c-0.1,0.02-0.2,0.03-0.3,0.03c-0.32,0-0.41-0.09-0.41-0.41v-1.76h0.72
		v-0.65h-0.72V104.06z M169.29,106.37c-0.06-0.91-0.83-1.35-1.66-1.35c-1.16,0-1.82,0.82-1.82,1.93c0,1.06,0.73,1.82,1.79,1.82
		c0.93,0,1.59-0.52,1.71-1.46h-0.93c-0.07,0.43-0.32,0.72-0.78,0.72c-0.61,0-0.82-0.61-0.82-1.12c0-0.52,0.21-1.15,0.84-1.15
		c0.4,0,0.66,0.22,0.72,0.61H169.29z M162.79,106.52c0.01-0.28,0.19-0.76,0.81-0.76c0.47,0,0.69,0.26,0.78,0.76H162.79z
		 M165.34,107.13c0.07-1.08-0.51-2.11-1.72-2.11c-1.08,0-1.81,0.82-1.81,1.88c0,1.09,0.69,1.87,1.81,1.87c0.81,0,1.39-0.36,1.66-1.2
		h-0.86c-0.07,0.22-0.38,0.46-0.78,0.46c-0.54,0-0.84-0.29-0.87-0.91H165.34z M164.8,103.71h-1.08l-0.66,0.97h0.68L164.8,103.71z
		 M160.24,108.68h0.97v-4.9h-0.97V108.68z M155.87,108.68h3.72v-0.9h-2.65v-1.2h2.38v-0.85h-2.38v-1.04h2.59v-0.91h-3.66V108.68z
		 M149.79,108.68h0.97v-1.86c0-0.73,0.23-1.02,0.76-1.02c0.45,0,0.62,0.29,0.62,0.88v2.01h0.97v-2.18c0-0.88-0.26-1.47-1.3-1.47
		c-0.41,0-0.84,0.2-1.08,0.59h-0.02v-0.49h-0.92V108.68z M146.47,106.91c0-0.57,0.2-1.14,0.86-1.14s0.87,0.57,0.87,1.14
		c0,0.56-0.21,1.13-0.87,1.13S146.47,107.47,146.47,106.91 M145.49,106.91c0,1.12,0.72,1.87,1.83,1.87s1.84-0.75,1.84-1.87
		c0-1.13-0.73-1.88-1.84-1.88S145.49,105.77,145.49,106.91 M148.54,103.71h-1.08l-0.66,0.97h0.68L148.54,103.71z M144.83,103.78
		h-0.97v0.8h0.97V103.78z M143.86,108.68h0.97v-3.55h-0.97V108.68z M139.97,107.53c0.04,0.93,0.85,1.25,1.66,1.25
		c0.82,0,1.62-0.3,1.62-1.24c0-0.66-0.56-0.87-1.13-0.99c-0.55-0.13-1.1-0.18-1.1-0.53c0-0.29,0.32-0.32,0.54-0.32
		c0.35,0,0.64,0.1,0.67,0.47h0.92c-0.08-0.87-0.79-1.13-1.56-1.13c-0.76,0-1.54,0.24-1.54,1.14c0,0.63,0.56,0.83,1.13,0.94
		c0.7,0.16,1.1,0.26,1.1,0.55c0,0.34-0.35,0.45-0.64,0.45c-0.38,0-0.74-0.17-0.75-0.59H139.97z M139.37,103.78h-0.97v0.8h0.97
		V103.78z M138.4,108.68h0.97v-3.55h-0.97V108.68z M132.18,108.68h0.97v-2.07c0-0.69,0.47-0.82,0.66-0.82
		c0.62,0,0.59,0.48,0.59,0.89v2h0.97v-1.98c0-0.44,0.11-0.9,0.65-0.9c0.56,0,0.6,0.39,0.6,0.87v2.02h0.97v-2.38
		c0-0.91-0.54-1.27-1.3-1.27c-0.49,0-0.87,0.29-1.06,0.59c-0.2-0.42-0.59-0.59-1.04-0.59c-0.46,0-0.83,0.22-1.08,0.58h-0.01v-0.48
		h-0.92V108.68z M128.3,107.53c0.05,0.93,0.85,1.25,1.67,1.25c0.81,0,1.61-0.3,1.61-1.24c0-0.66-0.55-0.87-1.12-0.99
		c-0.55-0.13-1.1-0.18-1.1-0.53c0-0.29,0.32-0.32,0.54-0.32c0.34,0,0.64,0.1,0.67,0.47h0.92c-0.08-0.87-0.79-1.13-1.56-1.13
		c-0.77,0-1.54,0.24-1.54,1.14c0,0.63,0.56,0.83,1.12,0.94c0.7,0.16,1.1,0.26,1.1,0.55c0,0.34-0.35,0.45-0.63,0.45
		c-0.38,0-0.75-0.17-0.75-0.59H128.3z M124.4,108.68h0.97v-1.86c0-0.73,0.23-1.02,0.76-1.02c0.45,0,0.62,0.29,0.62,0.88v2.01h0.98
		v-2.18c0-0.88-0.27-1.47-1.3-1.47c-0.41,0-0.84,0.2-1.09,0.59h-0.02v-0.49h-0.92V108.68z M121.4,106.22
		c0.03-0.38,0.28-0.53,0.64-0.53c0.34,0,0.63,0.06,0.63,0.47c0,0.4-0.55,0.38-1.15,0.47c-0.6,0.08-1.2,0.28-1.2,1.07
		c0,0.73,0.53,1.07,1.2,1.07c0.43,0,0.89-0.12,1.2-0.44c0,0.12,0.03,0.24,0.07,0.34h0.98c-0.09-0.15-0.12-0.47-0.12-0.8v-1.84
		c0-0.86-0.86-1.01-1.56-1.01c-0.8,0-1.61,0.28-1.66,1.19H121.4z M122.67,107.3c0,0.22-0.02,0.82-0.79,0.82
		c-0.31,0-0.59-0.09-0.59-0.45c0-0.35,0.27-0.46,0.57-0.52c0.3-0.05,0.65-0.06,0.81-0.21V107.3z M117.8,108.68v-3.55h0.92v0.66h0.01
		c0.18-0.44,0.66-0.76,1.13-0.76c0.07,0,0.16,0.02,0.22,0.04v0.9c-0.09-0.02-0.24-0.04-0.35-0.04c-0.71,0-0.95,0.52-0.95,1.14v1.6
		H117.8z M115.42,108.68h1.08v-3.99h1.47v-0.91h-4.01v0.91h1.47V108.68z M109.19,106.52c0.01-0.28,0.19-0.76,0.81-0.76
		c0.47,0,0.69,0.26,0.78,0.76H109.19z M111.75,107.13c0.07-1.08-0.51-2.11-1.72-2.11c-1.07,0-1.81,0.82-1.81,1.88
		c0,1.09,0.69,1.87,1.81,1.87c0.81,0,1.39-0.36,1.66-1.2h-0.86c-0.07,0.22-0.38,0.46-0.77,0.46c-0.55,0-0.85-0.29-0.88-0.91H111.75z
		 M106.71,106.89c0,0.59-0.19,1.15-0.84,1.15c-0.6,0-0.86-0.58-0.86-1.14c0-0.58,0.22-1.13,0.86-1.13
		C106.51,105.76,106.71,106.32,106.71,106.89 M106.73,108.68h0.92v-4.9h-0.97v1.78h-0.02c-0.22-0.35-0.63-0.53-1.04-0.53
		c-1.04,0-1.57,0.89-1.57,1.84c0,0.98,0.52,1.91,1.59,1.91c0.45,0,0.85-0.17,1.07-0.55h0.02V108.68z M100.55,108.68h0.97v-4.9h-0.97
		V108.68z M97.53,106.22c0.03-0.38,0.28-0.53,0.64-0.53c0.34,0,0.64,0.06,0.64,0.47c0,0.4-0.56,0.38-1.16,0.47
		c-0.6,0.08-1.2,0.28-1.2,1.07c0,0.73,0.53,1.07,1.2,1.07c0.43,0,0.89-0.12,1.2-0.44c0,0.12,0.03,0.24,0.07,0.34h0.97
		c-0.09-0.15-0.12-0.47-0.12-0.8v-1.84c0-0.86-0.85-1.01-1.55-1.01c-0.8,0-1.61,0.28-1.66,1.19H97.53z M98.8,107.3
		c0,0.22-0.03,0.82-0.8,0.82c-0.31,0-0.59-0.09-0.59-0.45c0-0.35,0.28-0.46,0.57-0.52c0.31-0.05,0.65-0.06,0.82-0.21V107.3z
		 M92.52,108.68h0.97v-1.86c0-0.73,0.23-1.02,0.76-1.02c0.45,0,0.63,0.29,0.63,0.88v2.01h0.97v-2.18c0-0.88-0.27-1.47-1.3-1.47
		c-0.41,0-0.84,0.2-1.08,0.59h-0.02v-0.49h-0.93V108.68z M89.19,106.91c0-0.57,0.2-1.14,0.86-1.14c0.67,0,0.87,0.57,0.87,1.14
		c0,0.56-0.2,1.13-0.87,1.13C89.39,108.04,89.19,107.47,89.19,106.91 M88.22,106.91c0,1.12,0.72,1.87,1.83,1.87
		c1.12,0,1.84-0.75,1.84-1.87c0-1.13-0.72-1.88-1.84-1.88C88.94,105.03,88.22,105.77,88.22,106.91 M87.56,103.78h-0.97v0.8h0.97
		V103.78z M86.59,108.68h0.97v-3.55h-0.97V108.68z M85.99,106.37c-0.06-0.91-0.83-1.35-1.66-1.35c-1.15,0-1.81,0.82-1.81,1.93
		c0,1.06,0.72,1.82,1.79,1.82c0.93,0,1.58-0.52,1.71-1.46h-0.94c-0.06,0.43-0.32,0.72-0.78,0.72c-0.61,0-0.81-0.61-0.81-1.12
		c0-0.52,0.21-1.15,0.83-1.15c0.4,0,0.66,0.22,0.73,0.61H85.99z M79.62,106.22c0.03-0.38,0.27-0.53,0.64-0.53
		c0.34,0,0.63,0.06,0.63,0.47c0,0.4-0.55,0.38-1.15,0.47c-0.6,0.08-1.21,0.28-1.21,1.07c0,0.73,0.54,1.07,1.21,1.07
		c0.43,0,0.89-0.12,1.19-0.44c0.01,0.12,0.04,0.24,0.07,0.34h0.99c-0.09-0.15-0.13-0.47-0.13-0.8v-1.84c0-0.86-0.85-1.01-1.55-1.01
		c-0.8,0-1.61,0.28-1.67,1.19H79.62z M80.89,107.3c0,0.22-0.03,0.82-0.79,0.82c-0.31,0-0.6-0.09-0.6-0.45
		c0-0.35,0.28-0.46,0.58-0.52c0.31-0.05,0.64-0.06,0.81-0.21V107.3z M73.7,108.68h1.01v-3.29h0.01l2.04,3.29h1.08v-4.9h-1.01v3.29
		h-0.01l-2.05-3.29H73.7V108.68z M68.68,106.22c0.04-0.38,0.28-0.53,0.65-0.53c0.34,0,0.63,0.06,0.63,0.47
		c0,0.4-0.55,0.38-1.15,0.47c-0.6,0.08-1.21,0.28-1.21,1.07c0,0.73,0.54,1.07,1.21,1.07c0.43,0,0.89-0.12,1.19-0.44
		c0.01,0.12,0.04,0.24,0.07,0.34h0.99c-0.09-0.15-0.13-0.47-0.13-0.8v-1.84c0-0.86-0.85-1.01-1.55-1.01c-0.8,0-1.61,0.28-1.67,1.19
		H68.68z M69.96,107.3c0,0.22-0.03,0.82-0.79,0.82c-0.31,0-0.6-0.09-0.6-0.45c0-0.35,0.28-0.46,0.58-0.52
		c0.3-0.05,0.64-0.06,0.81-0.21V107.3z M66.01,108.68h0.97v-3.55h-0.97V108.68z M67.72,103.71h-1.07l-0.66,0.97h0.68L67.72,103.71z
		 M61.91,108.68h0.97v-1.86c0-0.73,0.23-1.02,0.76-1.02c0.45,0,0.62,0.29,0.62,0.88v2.01h0.97v-2.18c0-0.88-0.26-1.47-1.29-1.47
		c-0.41,0-0.85,0.2-1.09,0.59h-0.02v-0.49h-0.92V108.68z M64.36,103.78c0.01,0.13-0.08,0.24-0.29,0.24c-0.16,0-0.31-0.06-0.45-0.12
		c-0.15-0.06-0.29-0.12-0.44-0.12c-0.6,0-0.78,0.43-0.87,0.84h0.42c0.04-0.18,0.1-0.29,0.29-0.29c0.16,0,0.31,0.05,0.48,0.11
		c0.17,0.06,0.35,0.12,0.56,0.12c0.29,0,0.44-0.12,0.56-0.28c0.11-0.16,0.16-0.34,0.21-0.5H64.36z M58.91,106.22
		c0.03-0.38,0.27-0.53,0.64-0.53c0.34,0,0.63,0.06,0.63,0.47c0,0.4-0.55,0.38-1.15,0.47c-0.6,0.08-1.21,0.28-1.21,1.07
		c0,0.73,0.54,1.07,1.21,1.07c0.43,0,0.89-0.12,1.19-0.44c0.01,0.12,0.04,0.24,0.07,0.34h0.99c-0.09-0.15-0.13-0.47-0.13-0.8v-1.84
		c0-0.86-0.85-1.01-1.55-1.01c-0.8,0-1.61,0.28-1.66,1.19H58.91z M60.18,107.3c0,0.22-0.02,0.82-0.79,0.82
		c-0.31,0-0.6-0.09-0.6-0.45c0-0.35,0.28-0.46,0.58-0.52c0.3-0.05,0.65-0.06,0.81-0.21V107.3z M55.58,108.04
		c-0.64,0-0.86-0.55-0.86-1.13c0-0.57,0.21-1.14,0.85-1.14c0.62,0,0.85,0.58,0.85,1.14C56.41,107.49,56.21,108.04,55.58,108.04
		 M53.79,109.93h0.97v-1.69h0.01c0.24,0.35,0.64,0.54,1.06,0.54c1.03,0,1.55-0.9,1.55-1.84c0-1-0.49-1.91-1.6-1.91
		c-0.44,0-0.83,0.18-1.06,0.55h-0.01v-0.45h-0.92V109.93z M47.59,108.68h0.98v-2.07c0-0.69,0.46-0.82,0.65-0.82
		c0.62,0,0.59,0.48,0.59,0.89v2h0.97v-1.98c0-0.44,0.11-0.9,0.66-0.9c0.55,0,0.59,0.39,0.59,0.87v2.02h0.97v-2.38
		c0-0.91-0.54-1.27-1.29-1.27c-0.5,0-0.87,0.29-1.07,0.59c-0.2-0.42-0.59-0.59-1.03-0.59c-0.46,0-0.84,0.22-1.09,0.58h-0.01v-0.48
		h-0.92V108.68z M44.24,106.91c0-0.57,0.21-1.14,0.87-1.14c0.66,0,0.86,0.57,0.86,1.14c0,0.56-0.2,1.13-0.86,1.13
		C44.44,108.04,44.24,107.47,44.24,106.91 M43.26,106.91c0,1.12,0.73,1.87,1.84,1.87c1.11,0,1.84-0.75,1.84-1.87
		c0-1.13-0.73-1.88-1.84-1.88C43.99,105.03,43.26,105.77,43.26,106.91 M42.7,105.42c-0.13-1.13-1.03-1.76-2.12-1.76
		c-1.51,0-2.4,1.13-2.4,2.59c0,1.41,0.89,2.55,2.4,2.55c1.2,0,2.05-0.79,2.15-2.01H41.7c-0.08,0.64-0.45,1.09-1.11,1.09
		c-0.96,0-1.33-0.82-1.33-1.63c0-0.86,0.36-1.68,1.33-1.68c0.54,0,1,0.37,1.07,0.86H42.7z"/>
	<rect x="14.3" y="111.9" class="st0" width="169.18" height="0.53"/>
	<rect x="14.3" y="113.94" class="st0" width="169.18" height="0.53"/>
	<path class="st0" d="M30.04,99.6l-2.55,2.13l0.62-3.73L30.04,99.6z M32.16,97.85l-1.87,1.55l-1.87-1.55H32.16z M30.51,95.77
		l1.42-1.17h0.1l0.46,2.82L30.51,95.77z M28.47,97.47l1.86-1.54l1.86,1.54H28.47z M30.14,95.77l-1.93,1.61l0.46-2.78h0.06
		L30.14,95.77z M31.56,94.6l-1.23,1.02L29.1,94.6H31.56z M30.61,104.76l2.63-2.34h0.08l0.92,5.57L30.61,104.76z M26.8,108.15
		l3.46-3.09l3.47,3.09H26.8z M29.93,104.76l-3.45,3.07l0.89-5.36L29.93,104.76z M32.55,102.42l-2.28,2.03l-2.27-2.03H32.55z
		 M32.97,102.04L32.97,102.04l-5.39,0.01l2.71-2.25L32.97,102.04z M33.22,101.82l-0.01,0.01l-2.69-2.23l2.05-1.69L33.22,101.82z
		 M25.9,108.61h8.9l-2.39-14.46h-4.12L25.9,108.61z"/>
	<path class="st0" d="M29.43,94.13l0.69-9.72h0.45l0.69,9.72H29.43z M28.95,94.58h2.8l-0.76-10.62h-1.3L28.95,94.58z"/>
	<path class="st0" d="M33.51,92.18c0.14,0.07,0.25,0.27,0.25,0.49c0,0.29-0.16,0.52-0.35,0.52s-0.35-0.24-0.35-0.52
		c0-0.23,0.1-0.42,0.25-0.49V91.9H27.4v0.28c0.14,0.07,0.24,0.27,0.24,0.49c0,0.29-0.16,0.52-0.34,0.52c-0.2,0-0.35-0.24-0.35-0.52
		c0-0.23,0.1-0.42,0.25-0.49V91.9h-0.42v-0.46h7.22v0.46h-0.47V92.18z M33.79,86.76v0.21c0.14,0.07,0.25,0.27,0.25,0.5
		c0,0.29-0.16,0.52-0.35,0.52c-0.2,0-0.35-0.24-0.35-0.52c0-0.24,0.1-0.43,0.25-0.5v-0.21h-6.04v0.21c0.15,0.07,0.25,0.27,0.25,0.5
		c0,0.29-0.16,0.52-0.35,0.52c-0.19,0-0.34-0.24-0.34-0.52c0-0.24,0.1-0.43,0.25-0.5v-0.21H26.5V86.3h7.75v0.46H33.79z M23.79,89
		h13.16v0.46h-0.59v0.22c0.14,0.07,0.25,0.27,0.25,0.5c0,0.29-0.17,0.51-0.35,0.51c-0.2,0-0.35-0.23-0.35-0.51
		c0-0.24,0.1-0.43,0.25-0.5v-0.22H24.37v0.22c0.14,0.07,0.25,0.27,0.25,0.5c0,0.29-0.16,0.51-0.35,0.51c-0.2,0-0.35-0.23-0.35-0.51
		c0-0.24,0.1-0.43,0.25-0.5v-0.22h-0.36V89z"/>
	<polygon class="st0" points="29.32,94.16 31.2,91.71 29.54,89.29 29.5,89.23 29.53,89.16 30.83,86.66 29.86,84.42 30.1,84.32 
		31.08,86.61 31.11,86.67 31.08,86.72 29.79,89.21 31.46,91.64 31.52,91.72 31.46,91.8 29.53,94.3 	"/>
	<polygon class="st0" points="31.16,94.3 29.23,91.8 29.18,91.72 29.23,91.64 30.9,89.21 29.61,86.72 29.58,86.67 29.61,86.61 
		30.57,84.35 30.81,84.46 29.86,86.66 31.16,89.16 31.19,89.23 31.15,89.29 29.49,91.71 31.37,94.16 	"/>
	<path class="st0" d="M24.41,89.33c0,0.02-2.84,7.49-5.79,9.23c-3.04,1.8-4.31-3.37-4.32-3.38l0.22-0.06
		c0.01,0.02,1.21,4.89,3.99,3.25c2.87-1.7,5.69-9.09,5.7-9.11L24.41,89.33z"/>
	<path class="st0" d="M36.23,89.44c-0.01,0.02-3.59,7.22-7.3,8.9c-3.8,1.71-5.39-3.26-5.4-3.27l0.22-0.07
		c0,0.01,1.52,4.73,5.09,3.13c3.64-1.64,7.18-8.78,7.19-8.79L36.23,89.44z"/>
	<path class="st0" d="M18.91,102.84l-1.94,1.61l0.47-2.83L18.91,102.84z M20.51,101.5l-1.42,1.18l-1.42-1.18H20.51z M19.27,99.94
		l1.07-0.89h0.08l0.35,2.13L19.27,99.94z M17.72,101.23l1.41-1.18l1.41,1.18H17.72z M18.98,99.94l-1.47,1.22l0.35-2.11h0.04
		L18.98,99.94z M20.06,99.06l-0.92,0.77l-0.93-0.77H20.06z M19.35,106.76l1.99-1.77h0.06l0.7,4.22L19.35,106.76z M16.46,109.33
		l2.63-2.34l2.63,2.34H16.46z M18.83,106.76l-2.62,2.32l0.67-4.05L18.83,106.76z M20.81,104.99l-1.73,1.53l-1.72-1.53H20.81z
		 M21.14,104.69l-0.01,0.01h-4.08l2.05-1.71L21.14,104.69z M21.32,104.52L21.32,104.52l-2.05-1.68l1.55-1.3L21.32,104.52z
		 M15.77,109.67h6.75l-1.81-10.96h-3.13L15.77,109.67z"/>
	<path class="st0" d="M18.45,98.7l0.52-7.37h0.34l0.52,7.37H18.45z M18.08,99.04h2.12l-0.57-8.05h-0.98L18.08,99.04z"/>
	<path class="st0" d="M21.54,97.22c0.11,0.06,0.19,0.21,0.19,0.38c0,0.22-0.12,0.39-0.27,0.39c-0.15,0-0.28-0.18-0.28-0.39
		c0-0.18,0.08-0.32,0.19-0.38v-0.21h-4.47v0.21c0.11,0.06,0.19,0.21,0.19,0.38c0,0.22-0.12,0.39-0.27,0.39s-0.28-0.18-0.28-0.39
		c0-0.18,0.08-0.32,0.19-0.38v-0.21h-0.31v-0.34h5.48v0.34h-0.36V97.22z M21.75,93.11v0.16c0.11,0.05,0.19,0.2,0.19,0.37
		c0,0.22-0.12,0.39-0.27,0.39s-0.27-0.18-0.27-0.39c0-0.18,0.08-0.32,0.19-0.37v-0.16h-4.57v0.16c0.11,0.05,0.19,0.2,0.19,0.37
		c0,0.22-0.13,0.39-0.28,0.39s-0.27-0.18-0.27-0.39c0-0.18,0.08-0.32,0.19-0.37v-0.16h-0.62v-0.35h5.87v0.35H21.75z M14.17,94.82
		h9.98v0.34h-0.45v0.17c0.11,0.05,0.19,0.2,0.19,0.37c0,0.22-0.13,0.39-0.28,0.39s-0.27-0.18-0.27-0.39c0-0.18,0.08-0.32,0.19-0.37
		v-0.17h-8.92v0.17c0.11,0.05,0.19,0.2,0.19,0.37c0,0.22-0.13,0.39-0.28,0.39s-0.27-0.18-0.27-0.39c0-0.18,0.08-0.32,0.19-0.37
		v-0.17h-0.28V94.82z"/>
	<polygon class="st0" points="18.36,98.72 19.79,96.86 18.53,95.03 18.5,94.98 18.52,94.93 19.51,93.03 18.78,91.33 18.95,91.25 
		19.7,93 19.72,93.04 19.7,93.08 18.73,94.96 19.99,96.81 20.03,96.87 19.99,96.93 18.52,98.84 	"/>
	<polygon class="st0" points="19.76,98.84 18.3,96.93 18.26,96.87 18.3,96.81 19.55,94.96 18.58,93.08 18.56,93.04 18.58,93 
		19.32,91.28 19.5,91.36 18.78,93.03 19.76,94.93 19.78,94.98 19.75,95.03 18.49,96.86 19.92,98.72 	"/>
</g>
</svg>
