<?xml version="1.0" encoding="utf-8"?>
<!-- Generator: Adobe Illustrator 28.0.0, SVG Export Plug-In . SVG Version: 6.00 Build 0)  -->
<svg version="1.1" id="Layer_1" xmlns="http://www.w3.org/2000/svg" xmlns:xlink="http://www.w3.org/1999/xlink" x="0px" y="0px"
	 viewBox="0 0 198.43 198.43" style="enable-background:new 0 0 198.43 198.43;" xml:space="preserve">
<style type="text/css">
	
		.st0{clip-path:url(#SVGID_00000117667689552573979400000009808456921895986601_);fill:url(#SVGID_00000142879441594190158720000002732533031281008784_);}
	.st1{fill-rule:evenodd;clip-rule:evenodd;fill:#005399;}
</style>
<g>
	<g>
		<defs>
			<path id="SVGID_1_" d="M116.34,102.84h7.41c1.08,0,1.96,0.88,1.96,1.96c0,1.08-0.88,1.96-1.96,1.96h-7.41V102.84z M116.34,91.95
				h5.6c1.08,0,1.96,0.88,1.96,1.96c0,1.08-0.88,1.96-1.96,1.96h-5.6V91.95z M108,91.77l-0.01,11.22h-4.71L108,91.77z M126.33,83.74
				L126.33,83.74L126.33,83.74h-24.12l-8.69,20.63c-0.72,0.41-1.43,0.87-2.21,1.17c-1.88,0.71-3.85,0.51-5.48-0.37
				c-2.01-1.08-3.48-3.19-3.48-5.9c0-2.43,1.21-4.4,2.82-5.52c1.98-1.39,6.35-1.92,8.87-0.57l3.97-9.43h-8.97
				c-8.51,0-15.47,6.96-15.47,15.47c0,8.51,6.96,15.47,15.47,15.47h9.31l1.75-4.15h7.87l-0.01,4.15h18.61v0
				c4.44-0.04,8.56-3.9,8.56-8.66c0-3.7-2.23-6.86-5.3-8.1c2.19-1.3,3.67-3.77,3.67-6.61c0-4.15-3.18-7.53-7.11-7.57v0H126.33z
				 M136.33,83.74v30.95h2.34h6.01h6.91v-7.96h-6.91V83.74H136.33z M152.84,83.74v30.95h21.32v-7.96h-12.88v-3.73h12.88v-7.53
				h-12.88V91.7h12.88v-7.96H152.84z"/>
		</defs>
		<clipPath id="SVGID_00000026128500321779026000000017237720320459407036_">
			<use xlink:href="#SVGID_1_"  style="overflow:visible;"/>
		</clipPath>
		
			<radialGradient id="SVGID_00000183940774702487076770000013567264055583792572_" cx="-133.6722" cy="170.2051" r="0.3525" gradientTransform="matrix(0.5379 -82.3907 -398.5163 -2.602 68025.5391 -10457.4033)" gradientUnits="userSpaceOnUse">
			<stop  offset="0" style="stop-color:#929395"/>
			<stop  offset="0.2084" style="stop-color:#949597"/>
			<stop  offset="0.3229" style="stop-color:#9C9D9F"/>
			<stop  offset="0.4147" style="stop-color:#AAABAD"/>
			<stop  offset="0.4944" style="stop-color:#BEBFC0"/>
			<stop  offset="0.5656" style="stop-color:#D7D8D8"/>
			<stop  offset="0.6231" style="stop-color:#F1F2F2"/>
			<stop  offset="0.6539" style="stop-color:#E4E5E6"/>
			<stop  offset="0.7541" style="stop-color:#C1C2C3"/>
			<stop  offset="0.8482" style="stop-color:#A7A8AA"/>
			<stop  offset="0.9329" style="stop-color:#97989A"/>
			<stop  offset="1" style="stop-color:#929395"/>
		</radialGradient>
		
			<polygon style="clip-path:url(#SVGID_00000026128500321779026000000017237720320459407036_);fill:url(#SVGID_00000183940774702487076770000013567264055583792572_);" points="
			73.37,114.68 73.58,83.08 174.36,83.74 174.16,115.34 		"/>
	</g>
	<g>
		<polygon class="st1" points="67.62,83.74 76.81,83.74 63.68,114.68 63.67,114.68 54.49,114.68 54.48,114.68 44.9,92.12 
			41.87,92.12 41.87,114.68 33.5,114.68 33.5,92.12 24.26,92.12 24.26,83.74 41.35,83.74 41.35,83.74 50.53,83.74 59.08,103.87 		
			"/>
		<path class="st1" d="M28.56,96.4c-0.92,0-1.58-0.37-1.58-1.13c0-0.76,0.66-1.13,1.58-1.13c0.92,0,1.7,0.29,1.7,1.13
			C30.26,96.14,29.48,96.4,28.56,96.4 M28.56,97.32c1.46,0,2.59-0.6,2.59-2.05c0-1.39-1.23-2.05-2.59-2.05
			c-1.41,0-2.47,0.72-2.47,2.05C26.09,96.6,27.14,97.32,28.56,97.32 M27.05,100.18v-0.77c0-0.46,0.2-0.74,0.68-0.74
			c0.42,0,0.68,0.28,0.68,0.65v0.86H27.05z M30.56,101.11c0.33,0,0.55-0.18,0.55-0.46s-0.22-0.46-0.55-0.46h-1.31v-1.03
			c0-0.9-0.65-1.41-1.53-1.41c-1.07,0-1.53,0.63-1.53,1.4v1.41c0,0.33,0.15,0.54,0.64,0.54H30.56z M29.22,105.49
			c1.33,0,1.92-0.69,1.92-1.76c0-1.08-0.6-1.76-1.92-1.76h-2.55c-0.33,0-0.55,0.18-0.55,0.46s0.22,0.46,0.55,0.46h2.64
			c0.66,0,0.95,0.31,0.95,0.84c0,0.53-0.29,0.84-0.95,0.84h-2.64c-0.33,0-0.55,0.18-0.55,0.46s0.22,0.46,0.55,0.46H29.22z
			 M27.05,108.74v-0.95c0-0.41,0.13-0.67,0.65-0.67c0.54,0,0.65,0.35,0.65,0.7v0.92H27.05z M30.56,109.66
			c0.33,0,0.55-0.18,0.55-0.46s-0.22-0.46-0.55-0.46h-1.41v-0.91c0-0.51,0.34-0.64,1.19-0.64c0.19,0,0.78-0.04,0.78-0.55
			c0-0.21-0.18-0.43-0.43-0.43c-0.23,0-0.44,0.12-0.99,0.12c-0.49,0-0.9,0.08-0.98,0.56H28.7c-0.12-0.44-0.64-0.7-1.16-0.7
			c-0.62,0-1.34,0.29-1.34,1.39v1.54c0,0.33,0.15,0.54,0.64,0.54H30.56z M28.93,110.49c-0.3,0-0.46,0.11-0.46,0.38v1.14
			c0,0.23,0.15,0.36,0.42,0.36c0.33,0,0.42-0.22,0.42-0.42v-0.6c0.59,0.05,0.98,0.47,0.98,0.96c0,0.75-0.66,1.15-1.61,1.15
			c-1.22,0-1.71-0.5-1.71-1.14c0-0.9,0.76-0.73,0.76-1.19c0-0.2-0.1-0.43-0.48-0.43c-0.43,0-1.16,0.55-1.16,1.57
			c0,1.26,0.9,2.11,2.53,2.11c1.35,0,2.53-0.55,2.53-1.98c0-0.57-0.26-0.94-0.65-1.21c0.43-0.06,0.62-0.13,0.62-0.39
			c0-0.19-0.17-0.32-0.37-0.32H28.93z"/>
	</g>
</g>
</svg>
