<?xml version="1.0" encoding="utf-8"?>
<!-- Generator: Adobe Illustrator 28.0.0, SVG Export Plug-In . SVG Version: 6.00 Build 0)  -->
<svg version="1.1" id="Layer_1" xmlns="http://www.w3.org/2000/svg" xmlns:xlink="http://www.w3.org/1999/xlink" x="0px" y="0px"
	 viewBox="0 0 198.43 198.43" style="enable-background:new 0 0 198.43 198.43;" xml:space="preserve">
<style type="text/css">
	.st0{fill-rule:evenodd;clip-rule:evenodd;fill:#E6352F;}
	.st1{fill-rule:evenodd;clip-rule:evenodd;fill:#151515;}
	.st2{fill-rule:evenodd;clip-rule:evenodd;fill:#F4FD3F;}
	.st3{fill-rule:evenodd;clip-rule:evenodd;fill:#402877;}
	.st4{fill-rule:evenodd;clip-rule:evenodd;fill:#21AA54;}
	.st5{fill-rule:evenodd;clip-rule:evenodd;fill:#EAF73F;}
	.st6{fill-rule:evenodd;clip-rule:evenodd;fill:#21A953;}
	.st7{fill-rule:evenodd;clip-rule:evenodd;fill:#44AF48;}
</style>
<g>
	<polygon class="st0" points="99.68,95.63 112.74,73.47 125.79,51.3 99.68,51.3 73.57,51.3 86.63,73.47 	"/>
	<rect x="24.26" y="139.33" class="st1" width="149.01" height="7.79"/>
	<rect x="25.22" y="140.29" class="st2" width="147.1" height="5.88"/>
	<path class="st1" d="M109.48,89.81h63.79v6.94H105.4L109.48,89.81z M24.26,89.81h65.62l4.09,6.94h-69.7V89.81z"/>
	<path class="st2" d="M110.03,90.77h62.29v5.02h-65.25L110.03,90.77z M25.22,90.77h64.11l2.96,5.02H25.22V90.77z"/>
	<polygon class="st3" points="128.1,58.21 142.68,58.21 133.69,73.47 125.38,87.57 110.8,87.57 119.11,73.47 	"/>
	<polygon class="st4" points="56.69,58.21 71.26,58.21 80.25,73.47 88.56,87.57 73.98,87.57 65.68,73.47 	"/>
	<polygon class="st0" points="144.22,64.34 158.35,64.34 152.98,73.47 144.67,87.57 130.54,87.57 138.85,73.47 	"/>
	<polygon class="st5" points="41.01,64.34 55.14,64.34 60.51,73.47 68.82,87.57 54.69,87.57 46.39,73.47 	"/>
	<polygon class="st6" points="160.78,69.57 174.16,69.57 171.87,73.47 163.56,87.57 150.18,87.57 158.49,73.47 	"/>
	<polygon class="st7" points="25.2,69.57 38.58,69.57 40.87,73.47 49.18,87.57 35.8,87.57 27.49,73.47 	"/>
	<g>
		<path class="st1" d="M172.67,110.25c-0.02-1.56-0.35-3.11-0.81-4.59c-1.36-4.27-3.81-6.6-8.64-6.7c-5.11-0.11-7.9,3.32-8.89,7.27
			c-0.56,2.25-0.7,4.48-0.4,6.73c0.15,1.13,0.41,2.26,0.92,3.4c2.03,4.55,6.59,5.04,9.53,6.61c1.02,0.54,2,1.62,2.06,2.77
			c0.01,0.18,0.01,0.36-0.01,0.53c-0.11,1.16-0.88,2.28-2.74,2.15c-3.07-0.22-3.06-2.13-3.44-3.44h-6.93l0.06,0.7
			c0.23,2.46,0.5,3.57,1.37,5.5c1.52,3.37,5.19,5.98,9.49,5.76c3.91-0.21,6.63-2.58,7.84-5.53c0.82-1.99,1.22-3.99,1.29-5.98
			c0.06-1.77-0.12-3.52-0.67-5.29c-0.95-3.03-3.11-4.99-5.64-6.09c-2.37-1.02-6.36-1.96-6.4-4.35c-0.02-1.07,0.4-2.28,2.08-2.44
			c1.76-0.16,2.46,0.68,2.92,1.88l0.24,1.13L172.67,110.25z M136.38,110.71l2.45,13.26h-4.76L136.38,110.71z M148.18,136.05
			l-8.06-36.12h-7.38l-7.89,36.12h7.11l0.78-4.78l7.35,0.02l0.91,4.77H148.18z M106.03,127.11c-0.05-6.07,0.01-12.15-0.04-18.23
			l1.17-0.02c0.72-0.01,1.43,0.07,2.14,0.16c0.38,0.05,0.76,0.15,1.13,0.36c0.35,0.19,0.68,0.46,0.96,0.8
			c0.26,0.31,0.46,0.63,0.6,0.94c0.27,0.61,0.5,1.21,0.6,1.82c0.42,2.46,0.57,4.91,0.35,7.36c-0.13,1.44-0.38,2.9-1.02,4.34
			c-0.15,0.34-0.3,0.68-0.57,1.01c-0.27,0.33-0.58,0.61-0.93,0.82c-0.33,0.2-0.67,0.35-1.01,0.42c-0.82,0.16-1.64,0.21-2.46,0.2
			L106.03,127.11z M98.86,99.92l0.06,36.14h8.12c11.3-1.09,12.9-9.41,13.04-18.91c0.12-7.77-2.12-16.25-11.73-17.21L98.86,99.92z
			 M83.87,99.93l0.03,36.12h7.27V99.93H83.87z M68.89,119.44l-7.76-19.51h-6.72l-0.05,36.12h7.11v-18.79L69,136.05h6.95l-0.04-36.12
			l-7.02,0V119.44z M24.99,99.93L25,125.08c-0.01,2.84,0.77,5.66,2.66,8.1c1.91,2.47,5.22,3.92,8.5,3.93
			c2.68,0.01,5.65-1.31,7.27-3.45c1.93-2.55,2.92-5.93,2.92-9.12l0.03-24.61h-7.32l-0.01,23.58c-0.04,1.11-0.09,2.34-0.71,3.26
			c-0.54,0.8-1.54,1.46-2.5,1.43c-0.89-0.02-1.87-0.43-2.4-1.15c-0.58-0.77-0.89-1.77-0.99-2.73c-0.05-0.47-0.07-0.94-0.07-1.42
			l-0.04-22.97H24.99z"/>
	</g>
</g>
</svg>
