<?xml version="1.0" encoding="utf-8"?>
<!-- Generator: Adobe Illustrator 28.0.0, SVG Export Plug-In . SVG Version: 6.00 Build 0)  -->
<svg version="1.1" id="Layer_1" xmlns="http://www.w3.org/2000/svg" xmlns:xlink="http://www.w3.org/1999/xlink" x="0px" y="0px"
	 viewBox="0 0 198.43 198.43" style="enable-background:new 0 0 198.43 198.43;" xml:space="preserve">
<style type="text/css">
	.st0{fill-rule:evenodd;clip-rule:evenodd;}
	.st1{fill-rule:evenodd;clip-rule:evenodd;fill:#F4FD3F;}
	.st2{fill-rule:evenodd;clip-rule:evenodd;fill:#F4FC6A;}
	.st3{fill-rule:evenodd;clip-rule:evenodd;fill:#151515;}
	.st4{opacity:0;}
	
		.st5{clip-path:url(#SVGID_00000036211846343759337500000008207926654624836018_);fill-rule:evenodd;clip-rule:evenodd;fill:#FFFFFF;}
	.st6{font-family:'ArialMT';}
	.st7{font-size:5.7092px;}
</style>
<g>
	<g>
		<g>
			<path class="st0" d="M174.85,120.42c1.86,0,3.37-1.51,3.37-3.37s-1.51-3.37-3.37-3.37s-3.37,1.51-3.37,3.37
				S172.99,120.42,174.85,120.42"/>
			<path class="st1" d="M174.85,119.98c1.62,0,2.93-1.31,2.93-2.93c0-1.62-1.31-2.93-2.93-2.93s-2.93,1.31-2.93,2.93
				C171.92,118.67,173.23,119.98,174.85,119.98"/>
			<path class="st0" d="M12.34,101c0-2.09,0.99-4.14,2.94-6.1c9.8-9.8,43.56-16.64,82.1-16.64c38.54,0,72.3,6.84,82.1,16.64
				c1.95,1.95,2.94,4,2.94,6.1c0,12.75-37.35,22.74-85.04,22.74c-38.54,0-72.3-6.84-82.1-16.64C13.33,105.14,12.34,103.09,12.34,101
				"/>
			<path class="st2" d="M138.14,118.85c8.21-1.14,15.04-2.6,22.88-4.9c4.24-1.26,7.69-2.64,11.51-4.62
				c1.93-1.02,3.42-2.06,4.95-3.47c2.53-2.36,3.4-5.39,1.42-8.08c-0.9-1.23-1.87-2.18-3.19-3.12c-3-2.08-5.86-3.53-9.46-4.83
				c-3.65-1.36-6.83-2.35-10.67-3.3c-4.14-1.03-7.69-1.78-11.93-2.51c-20.61-3.53-44.06-4.34-65.48-3.06
				c-7.61,0.46-14.02,1.1-21.53,2.18c-8.21,1.14-15.04,2.6-22.88,4.9c-4.24,1.26-7.69,2.64-11.51,4.62
				c-1.93,1.02-3.42,2.06-4.95,3.47c-2.53,2.36-3.4,5.39-1.42,8.08c0.9,1.23,1.87,2.18,3.19,3.12c3.01,2.08,5.86,3.53,9.46,4.83
				c3.65,1.36,6.83,2.35,10.67,3.3c4.14,1.03,7.69,1.78,11.93,2.51C78.07,122.59,111.03,122.73,138.14,118.85"/>
			<path class="st3" d="M163.89,94.6l0,5.09l-1.86,0.01l0-5.1C162.04,94.26,163.89,94.26,163.89,94.6 M157.76,94.41l0.01,15.55h4.26
				v-8.99h1.86v8.99h4.26l0-15.57C168.15,92.49,157.76,92.49,157.76,94.41"/>
			<path class="st3" d="M111.6,94.6l0,5.09l-1.86,0.01l0-5.1C109.75,94.26,111.6,94.26,111.6,94.6 M105.47,94.41l0.01,15.55h4.26
				v-8.99h1.86v8.99h4.26l0-15.57C115.86,92.49,105.47,92.49,105.47,94.41"/>
			<path class="st3" d="M49.13,94.6l0,5.09l-1.86,0.01l0-5.1C47.27,94.26,49.13,94.26,49.13,94.6 M43,94.41l0.01,15.55h4.26v-8.99
				h1.86v8.99h4.26l0-15.57C53.39,92.49,43,92.49,43,94.41"/>
			<path class="st3" d="M123.83,99.68l0-5.28l1.51,0c0.8,0,0.88,0.3,0.88,1.53v2.99c0,0.2,0,0.23-0.03,0.3
				c-0.09,0.22-0.37,0.37-0.38,0.37C125.36,99.71,123.83,99.68,123.83,99.68 M123.83,100.99c0,0,0.5-0.02,0.96-0.01
				c1.26,0,1.44,0.15,1.44,1.34l-0.01,7.63l4.17-0.01l0.01-7.49c0-1.47-0.53-1.8-1.49-2.03c-0.32-0.08-0.74-0.12-0.74-0.12
				s0.39-0.04,0.69-0.1c1.17-0.23,1.57-0.6,1.57-1.77v-3.15c0-1.85-1.16-2.32-4.07-2.32h-6.64v17l4.12-0.02L123.83,100.99z"/>
			<path class="st3" d="M138.57,108.62V94.08h1.25c0.92,0,0.88,0.53,0.89,1.41l-0.01,11.93c0.01,1.2,0.07,1.09-0.88,1.2
				L138.57,108.62z M139.71,92.96h-5.23v17h6.39c4.38,0,4.07-1.49,4.07-2.87V95.32C144.94,92.98,143.33,92.96,139.71,92.96"/>
			<polygon class="st3" points="32.05,109.96 33.74,109.96 39.91,92.96 35.72,92.95 33.02,102.62 30.23,92.96 26.01,92.96 			"/>
			<polygon class="st3" points="71.13,109.99 71.14,92.96 67.08,92.96 67.07,102.6 61.79,92.96 57.46,92.96 57.48,109.99 
				61.62,109.96 61.64,99.43 68.07,109.99 			"/>
			<path class="st3" d="M75.6,94.87v12.19c0,4.2,10.93,3.88,10.93,0.41l0.01-7.78h-5.6v1.38l1.07-0.01v6.71
				c0,1.19-2.22,1.1-2.23-0.04l0.01-12.55c0-0.97,2.21-0.97,2.21-0.04v2.16l4.53-0.02v-2.28C86.52,92.25,75.6,92.26,75.6,94.87"/>
			<path class="st3" d="M101.27,107.45l-0.01-14.49h-4.19l0.01,14.67c0,1.37-2.36,1.37-2.36,0V92.96H90.6l0.01,14.49
				C90.61,110.75,101.27,110.95,101.27,107.45"/>
			<rect x="149.08" y="92.96" class="st3" width="4.13" height="17"/>
			<g class="st4">
				<g>
					<defs>
						<rect id="SVGID_1_" x="97.38" y="95.83" width="4.12" height="6.38"/>
					</defs>
					<clipPath id="SVGID_00000019663059728058492400000011981735173693003672_">
						<use xlink:href="#SVGID_1_"  style="overflow:visible;"/>
					</clipPath>
					
						<rect x="97.38" y="95.83" style="clip-path:url(#SVGID_00000019663059728058492400000011981735173693003672_);fill-rule:evenodd;clip-rule:evenodd;fill:#FFFFFF;" width="4.12" height="6.38"/>
				</g>
			</g>
		</g>
		<text transform="matrix(1 0 0 1 172.8821 119.0514)" class="st6 st7">R</text>
	</g>
</g>
</svg>
