<?xml version="1.0" encoding="utf-8"?>
<!-- Generator: Adobe Illustrator 28.0.0, SVG Export Plug-In . SVG Version: 6.00 Build 0)  -->
<svg version="1.1" id="Layer_1" xmlns="http://www.w3.org/2000/svg" xmlns:xlink="http://www.w3.org/1999/xlink" x="0px" y="0px"
	 viewBox="0 0 198.43 198.43" style="enable-background:new 0 0 198.43 198.43;" xml:space="preserve">
<style type="text/css">
	.st0{fill-rule:evenodd;clip-rule:evenodd;fill:#413328;}
	.st1{fill-rule:evenodd;clip-rule:evenodd;fill:#EFE446;}
</style>
<g>
	<rect x="14.17" y="77.98" class="st0" width="170.08" height="42.46"/>
	<polygon class="st1" points="16.32,81.22 22.14,81.22 23.53,91.53 23.57,91.53 25.09,81.22 31.82,81.22 33.34,91.53 33.39,91.53 
		34.77,81.22 40.59,81.22 37.04,97.61 30,97.61 28.48,86.99 28.43,86.99 26.91,97.61 19.87,97.61 	"/>
	<polygon class="st1" points="44.56,81.22 57.04,81.22 57.04,85.49 50.79,85.49 50.79,87.24 56.56,87.24 56.56,91.51 50.79,91.51 
		50.79,93.34 57.25,93.34 57.25,97.61 44.56,97.61 	"/>
	<g>
		<path class="st1" d="M70.54,85.87c-0.02-1.02-0.59-1.36-1.43-1.36c-1.05,0-1.5,0.45-1.5,0.95c0,0.59,0.39,0.84,1.07,1.04
			c1.25,0.36,3.55,0.82,5.2,1.52c2.07,0.86,2.98,2.34,2.98,4.31c0,4.02-3.27,5.7-7.91,5.7c-3.95,0-7.59-1.23-7.59-5.49h6.22
			c0,0.45,0.09,0.91,0.34,1.25c0.25,0.32,0.66,0.52,1.27,0.52c0.95,0,1.57-0.61,1.57-1.34c0-0.61-0.48-0.93-1.09-1.11l-4.61-1.36
			c-2.53-0.75-3.41-2.27-3.41-4.38c0-3.41,2.75-5.33,7.54-5.33c4.09,0,7.16,1.27,7.16,5.08H70.54z"/>
		<polygon class="st1" points="84.6,85.63 80.56,85.63 80.56,81.22 95.14,81.22 95.14,85.63 91.1,85.63 91.1,97.61 84.6,97.61 		"/>
		<polygon class="st1" points="99.55,81.22 112.03,81.22 112.03,85.49 105.78,85.49 105.78,87.24 111.55,87.24 111.55,91.51 
			105.78,91.51 105.78,93.34 112.23,93.34 112.23,97.61 99.55,97.61 		"/>
		<path class="st1" d="M117.05,81.22L117.05,81.22h9.7c3.53,0,5.59,1.07,5.59,4.16c0,1.88-0.79,3.31-3.25,3.9v0.04
			c1.59,0.14,2.46,0.84,2.77,2.09c0.36,1.41,0.32,3.72,1.07,6.19h-6.37c-0.39-1.22-0.59-3.29-0.82-4.7
			c-0.14-0.82-0.55-1.14-1.59-1.14h-0.75v5.83h-6.36V81.22z M123.96,88.05c1.25,0,2.16-0.43,2.16-1.66c0-1.2-0.84-1.46-2.11-1.46
			h-0.59v3.11H123.96z"/>
		<polygon class="st1" points="137.45,81.22 145.25,81.22 148.72,91.14 148.77,91.14 148.77,81.22 154.04,81.22 154.04,97.61 
			146.25,97.61 142.77,87.63 142.73,87.63 142.73,97.61 137.45,97.61 		"/>
		<path class="st1" d="M76.72,111.71c0,3.95-2.84,5.92-7.79,5.92c-4.95,0-7.8-1.98-7.8-5.92v-10.89h6.5v10.62
			c0,1.29,0.61,1.79,1.3,1.79c0.68,0,1.29-0.5,1.29-1.79v-10.62h6.5V111.71z"/>
		<polygon class="st1" points="82.1,100.82 89.9,100.82 93.37,110.73 93.42,110.73 93.42,100.82 98.69,100.82 98.69,117.2 
			90.9,117.2 87.42,107.22 87.37,107.22 87.37,117.2 82.1,117.2 		"/>
		<rect x="104.18" y="100.82" class="st1" width="6.5" height="16.38"/>
		<path class="st1" d="M124.07,100.39L124.07,100.39c5.66,0,8.47,3.51,8.47,8.62c0,5.11-2.82,8.63-8.47,8.63
			c-5.66,0-8.47-3.52-8.47-8.63C115.59,103.9,118.41,100.39,124.07,100.39 M124.07,113.36c1,0,1.75-0.57,1.75-4.36
			c0-3.7-0.71-4.36-1.75-4.36c-1.05,0-1.75,0.66-1.75,4.36C122.32,112.8,123.07,113.36,124.07,113.36"/>
		<polygon class="st1" points="137.45,100.82 145.25,100.82 148.72,110.73 148.77,110.73 148.77,100.82 154.04,100.82 154.04,117.2 
			146.25,117.2 142.77,107.22 142.73,107.22 142.73,117.2 137.45,117.2 		"/>
		<rect x="158.76" y="80.9" class="st1" width="2.07" height="36.37"/>
		<rect x="173.46" y="81.24" class="st1" width="2.07" height="35.98"/>
		<path class="st1" d="M177.33,83.19L177.33,83.19c0-1.2,0.98-2.18,2.19-2.18c1.21,0,2.18,0.98,2.18,2.18
			c0,1.21-0.97,2.19-2.18,2.19C178.31,85.38,177.33,84.4,177.33,83.19 M181.36,83.19L181.36,83.19c0-1.06-0.77-1.89-1.83-1.89
			c-1.07,0-1.85,0.83-1.85,1.89c0,1.07,0.78,1.9,1.85,1.9C180.59,85.09,181.36,84.26,181.36,83.19 M180.61,84.41L180.61,84.41h-0.36
			l-0.7-1.12h-0.55v1.12h-0.3v-2.43h1.07c0.64,0,0.86,0.24,0.86,0.64c0,0.47-0.34,0.66-0.77,0.67L180.61,84.41z M179.47,83.05
			c0.34,0,0.85,0.06,0.85-0.44c0-0.38-0.31-0.43-0.61-0.43h-0.7v0.86H179.47z"/>
	</g>
</g>
</svg>
